<?xml version="1.0" encoding="utf-8"?>
<!-- Generator: Adobe Illustrator 25.0.0, SVG Export Plug-In . SVG Version: 6.00 Build 0)  -->
<svg version="1.1" id="Layer_1" xmlns="http://www.w3.org/2000/svg" xmlns:xlink="http://www.w3.org/1999/xlink" x="0px" y="0px"
	 viewBox="0 0 1080 1080" style="enable-background:new 0 0 1080 1080;" xml:space="preserve">
<style type="text/css">
	.st0{fill:#0E3E29;}
	.st1{fill:#2E8B57;}
</style>
<g>
	<g>
		<path d="M407.6,579.7c-7.9,0-14.8-1.8-20.8-5.3c-6-3.5-10.7-8.5-14-15c-3.3-6.5-5-14.1-5-23c0-9.1,1.7-16.9,5.2-23.4
			c3.5-6.5,8.2-11.5,14.1-14.9c5.9-3.5,12.7-5.2,20.1-5.2c4.8,0,9.2,0.7,13.3,2.1c4.1,1.4,7.8,3.4,11,5.9c3.2,2.6,5.8,5.6,7.9,9.1
			c2.1,3.5,3.4,7.4,3.9,11.6h-17.6c-0.6-2.1-1.4-3.9-2.5-5.6c-1.1-1.6-2.4-3-3.9-4.2c-1.5-1.2-3.3-2.1-5.3-2.7
			c-2-0.6-4.2-0.9-6.6-0.9c-4.4,0-8.3,1.1-11.6,3.3c-3.3,2.2-5.9,5.4-7.8,9.5c-1.9,4.2-2.8,9.2-2.8,15.2c0,5.9,0.9,11,2.7,15.2
			c1.8,4.2,4.4,7.4,7.8,9.6s7.3,3.3,11.9,3.3c4,0,7.5-0.7,10.5-2.2c2.9-1.5,5.2-3.6,6.8-6.3c1.6-2.7,2.4-5.9,2.4-9.6l3.7,0.5h-22
			v-13.1h35.2v10.6c0,7.3-1.6,13.6-4.7,18.9c-3.2,5.3-7.5,9.4-13,12.3C421,578.2,414.7,579.7,407.6,579.7z"/>
		<path d="M456.8,578.5v-84.4h33.1c6.4,0,11.8,1.1,16.4,3.4c4.5,2.3,8,5.5,10.4,9.6c2.4,4.1,3.6,9,3.6,14.6c0,5.6-1.2,10.4-3.7,14.4
			c-2.5,4-6,7.1-10.6,9.3c-4.6,2.2-10.2,3.2-16.7,3.2h-22.3v-14h20.2c3.4,0,6.2-0.5,8.5-1.5c2.3-1,4-2.5,5.1-4.4
			c1.2-1.9,1.7-4.3,1.7-7c0-2.8-0.6-5.2-1.7-7.2c-1.2-1.9-2.9-3.4-5.1-4.5c-2.3-1-5.1-1.6-8.6-1.6h-13.1v70.1H456.8z M504,578.5
			l-20.3-38.4h18.7l20.7,38.4H504z"/>
		<path d="M532.8,578.5v-84.4h57.5v14.5h-40.1v20.2h37.1V543h-37.1v21h40.2v14.5H532.8z"/>
		<path d="M603.3,578.5v-84.4h57.5v14.5h-40.1v20.2h37.1V543h-37.1v21h40.2v14.5H603.3z"/>
		<path d="M673.8,578.5v-84.4h19.1l26.8,42.8c1.2,2,2.5,4.2,3.9,6.7c1.4,2.5,2.8,5.2,4.2,8.2c1.5,3,2.9,6.3,4.3,9.9l-1.9,1
			c-0.2-3-0.4-6.3-0.6-9.8c-0.2-3.5-0.3-6.8-0.5-10.1c-0.1-3.2-0.2-5.9-0.2-8v-40.8h17.6v84.4h-19.2l-24.3-38.8
			c-1.6-2.6-3.2-5.3-4.7-8c-1.5-2.7-3.1-5.7-4.8-9c-1.7-3.3-3.6-7.2-5.9-11.6l2.4-0.5c0.2,4.1,0.4,8,0.7,11.8
			c0.2,3.7,0.4,7.1,0.5,10.1c0.1,3,0.2,5.4,0.2,7.3v38.9H673.8z"/>
		<path d="M798.3,579.7c-7.5,0-14.3-1.7-20.2-5.2c-6-3.4-10.6-8.4-14.1-14.8c-3.4-6.5-5.1-14.2-5.1-23.3c0-9.1,1.7-17,5.2-23.4
			c3.4-6.5,8.1-11.4,14.1-14.9c6-3.4,12.7-5.2,20.1-5.2c4.8,0,9.3,0.7,13.5,2c4.2,1.4,7.9,3.3,11.1,6c3.2,2.6,5.8,5.8,7.9,9.5
			c2.1,3.7,3.4,8,4.1,12.7h-17.5c-0.4-2.3-1.2-4.4-2.3-6.3c-1.1-1.9-2.5-3.4-4.1-4.7c-1.6-1.3-3.5-2.3-5.6-2.9c-2.1-0.7-4.3-1-6.8-1
			c-4.5,0-8.4,1.1-11.7,3.3c-3.3,2.2-5.9,5.4-7.7,9.6c-1.8,4.2-2.7,9.2-2.7,15.2c0,6,0.9,11.1,2.7,15.3c1.8,4.2,4.4,7.3,7.7,9.5
			c3.3,2.2,7.2,3.2,11.7,3.2c2.4,0,4.7-0.3,6.7-1c2.1-0.7,3.9-1.7,5.6-2.9c1.6-1.3,3-2.8,4.1-4.7c1.1-1.9,1.9-3.9,2.3-6.3h17.5
			c-0.5,4.1-1.7,8-3.7,11.6c-1.9,3.6-4.4,6.8-7.6,9.7c-3.2,2.8-6.9,5-11.1,6.6C808.3,578.9,803.5,579.7,798.3,579.7z"/>
		<path d="M838.6,578.5l29.1-84.4h22.6l29.6,84.4h-19.3l-13.5-40.8c-1.6-5.3-3.3-11-5-17.1c-1.7-6.1-3.5-12.9-5.4-20.3h4
			c-1.9,7.4-3.6,14.1-5.2,20.3c-1.6,6.2-3.2,11.9-4.8,17.1l-13.2,40.8H838.6z M856.8,559.2v-13.7h44.9v13.7H856.8z"/>
		<path d="M929.5,578.5v-84.4h33.1c6.4,0,11.8,1.1,16.4,3.4c4.5,2.3,8,5.5,10.4,9.6s3.6,9,3.6,14.6c0,5.6-1.2,10.4-3.7,14.4
			c-2.5,4-6,7.1-10.6,9.3c-4.6,2.2-10.2,3.2-16.7,3.2h-22.3v-14h20.2c3.4,0,6.2-0.5,8.5-1.5c2.3-1,4-2.5,5.1-4.4
			c1.2-1.9,1.7-4.3,1.7-7c0-2.8-0.6-5.2-1.7-7.2c-1.2-1.9-2.9-3.4-5.1-4.5c-2.3-1-5.1-1.6-8.6-1.6h-13.1v70.1H929.5z M976.7,578.5
			l-20.3-38.4h18.7l20.7,38.4H976.7z"/>
		<path d="M1022.8,494.1v84.4h-17.3v-84.4H1022.8z M1035.3,578.5h-21.9v-14.8h21c5.5,0,10.1-1,13.7-2.9c3.7-2,6.4-5,8.3-9
			s2.8-9.2,2.8-15.4c0-6.2-0.9-11.3-2.8-15.4c-1.9-4-4.6-7-8.3-9c-3.7-2-8.2-2.9-13.7-2.9H1013v-14.8h22.6c8.5,0,15.8,1.7,21.9,5.1
			c6.1,3.4,10.8,8.2,14.1,14.5c3.3,6.3,5,13.8,5,22.6c0,8.8-1.6,16.3-4.9,22.6c-3.3,6.3-8,11.2-14.2,14.6
			C1051.2,576.8,1043.8,578.5,1035.3,578.5z"/>
	</g>
	<g>
		<path d="M387.8,660.3v-67.6h41.2v7.5h-32.7v22.9h29.7v7.5h-29.7v29.6H387.8z"/>
		<path d="M497,592.7v67.6h-8.5v-67.6H497z"/>
		<path d="M559.1,660.3v-67.6h10l27.6,43.4c0.7,1.1,1.5,2.4,2.5,4.2c1,1.7,2.1,3.6,3.2,5.7c1.2,2.1,2.3,4.4,3.4,6.7l-1.1,0.4
			c-0.2-2.4-0.4-4.7-0.5-7.1c-0.1-2.3-0.2-4.5-0.2-6.5c0-2,0-3.6,0-4.9v-42h8.5v67.6h-10.1l-24.5-38.6c-1-1.6-2.1-3.4-3.2-5.3
			c-1.1-1.9-2.4-4.1-3.9-6.7c-1.5-2.6-3.2-5.7-5.3-9.3l1.5-0.5c0.2,3.4,0.3,6.5,0.4,9.3c0.1,2.8,0.2,5.3,0.2,7.4
			c0.1,2.1,0.1,3.7,0.1,4.9v38.7H559.1z"/>
		<path d="M668.9,660.3l24.6-67.6h9.8l24.8,67.6h-9L704.9,620c-0.9-2.5-1.9-5.6-3.1-9.3c-1.2-3.6-2.6-8.3-4.2-14h1.8
			c-1.7,5.7-3.1,10.5-4.3,14.2c-1.2,3.7-2.2,6.8-3,9.1l-14.1,40.3H668.9z M681.4,641.4v-7.5h34.4v7.5H681.4z"/>
		<path d="M784.5,660.3v-67.6h10l27.6,43.4c0.7,1.1,1.5,2.4,2.5,4.2c1,1.7,2.1,3.6,3.2,5.7c1.2,2.1,2.3,4.4,3.4,6.7l-1.1,0.4
			c-0.2-2.4-0.4-4.7-0.5-7.1c-0.1-2.3-0.2-4.5-0.2-6.5c0-2,0-3.6,0-4.9v-42h8.5v67.6h-10.1l-24.5-38.6c-1-1.6-2.1-3.4-3.2-5.3
			c-1.1-1.9-2.4-4.1-3.9-6.7c-1.5-2.6-3.2-5.7-5.3-9.3l1.5-0.5c0.2,3.4,0.3,6.5,0.4,9.3c0.1,2.8,0.2,5.3,0.2,7.4
			c0.1,2.1,0.1,3.7,0.1,4.9v38.7H784.5z"/>
		<path d="M927.7,661.2c-5.9,0-11.1-1.4-15.7-4.3c-4.6-2.8-8.1-6.9-10.7-12.1c-2.6-5.2-3.9-11.3-3.9-18.4c0-7.1,1.3-13.3,3.9-18.4
			c2.6-5.2,6.2-9.2,10.7-12.1c4.6-2.9,9.8-4.3,15.7-4.3c3.4,0,6.7,0.5,9.8,1.5c3.1,1,5.8,2.5,8.2,4.4c2.4,1.9,4.5,4.3,6.1,7
			c1.6,2.8,2.7,5.9,3.3,9.4h-8.6c-0.5-2.4-1.3-4.4-2.5-6.2c-1.2-1.8-2.6-3.3-4.3-4.5c-1.7-1.2-3.6-2.2-5.6-2.8
			c-2-0.6-4.2-0.9-6.5-0.9c-4.2,0-8,1.1-11.3,3.2c-3.3,2.1-5.9,5.2-7.8,9.2c-1.9,4-2.8,8.9-2.8,14.5c0,5.7,1,10.5,2.9,14.5
			c1.9,4,4.5,7.1,7.8,9.2c3.3,2.1,7.1,3.2,11.2,3.2c2.3,0,4.4-0.3,6.5-1c2-0.6,3.9-1.6,5.6-2.8c1.7-1.2,3.1-2.7,4.3-4.5
			c1.2-1.8,2-3.8,2.5-6.2h8.5c-0.6,3.4-1.7,6.5-3.3,9.3c-1.6,2.7-3.7,5.1-6.1,7c-2.4,2-5.2,3.4-8.2,4.5
			C934.5,660.7,931.2,661.2,927.7,661.2z"/>
		<path d="M1014.3,660.3v-67.6h41.8v7.5h-33.3v22.1h30.9v7.6h-30.9v22.9h33.6v7.5H1014.3z"/>
	</g>
	<g>
		<polygon class="st0" points="163.8,631.1 129.6,705.2 3.5,647.1 94.7,449.2 120.4,461.1 63.4,584.9 		"/>
		
			<rect x="93.4" y="433.3" transform="matrix(0.4184 -0.9083 0.9083 0.4184 -338.9543 476.176)" class="st1" width="217.9" height="138.9"/>
	</g>
</g>
</svg>
