<svg width="583" height="507" viewBox="0 0 583 507" fill="none" xmlns="http://www.w3.org/2000/svg">
<path d="M464.639 196.29C469.212 204.595 471.208 210.015 473.013 219.331C479.327 251.071 472.762 283.984 455.307 308.867C443.475 325.724 425.94 340.468 407.032 349.345C392.559 356.093 376.499 359.962 360.83 360.478C347.225 360.959 342.885 360.275 324.929 355.148C316.1 352.558 308.16 350.084 307.316 349.565C305.74 348.63 305.638 348.74 303.316 352.651C298.96 360.208 290.871 368.431 281.629 374.732C254.994 393.045 208.4 395.127 172.652 379.585C159.908 374.076 145.416 363.771 134.469 352.468C132.879 350.836 131.592 349.637 131.537 349.829C131.5 349.958 132.527 352.815 133.903 356.187C136.447 362.665 142.915 381.213 145.602 389.672C147.252 395.063 146.994 397.207 144.7 396.552C142.931 396.047 123.51 365.278 118.24 354.695C114.237 346.623 106.519 328.481 105.886 325.736C105.712 324.855 106.007 322.583 106.556 320.661C107.453 317.521 107.814 317.001 110.004 316.032C113.463 314.594 117.439 315.314 128.52 319.447C140.238 323.832 161.507 332.746 168.724 336.261C176.739 340.213 179.328 343.308 175.662 344.479C174.711 344.831 174.051 345.405 174.156 345.781C174.327 346.177 174.953 346.217 175.624 345.854C176.313 345.427 177.238 345.414 177.642 345.737C178.806 346.624 177.434 348.45 175.361 348.759C172.858 349.084 162.326 346.007 149.596 341.195C143.779 338.98 135.574 335.944 131.322 334.453C124.092 331.973 123.633 331.842 124.192 333.111C124.969 334.857 134.918 343.449 143.443 349.833C172.819 371.802 207.764 381.224 240.9 376.132C258.995 373.329 274.36 365.935 284.555 355.056C288.028 351.335 293.72 343.813 293.437 343.316C293.324 343.215 290.951 341.844 288.222 340.233C265.357 326.984 251.443 304.232 253.021 282.576C253.789 272.193 258.449 265.554 267.224 262.377C273.696 260.067 280.303 260.013 286.681 262.25C301.348 267.476 311.948 287.688 313.26 312.872C313.632 320.254 312.926 330.17 311.718 334.399L311.023 336.834L317.215 339.225C326.694 342.763 339.809 346.23 346.822 346.985C378.964 350.34 412.118 337.492 435.47 312.559C453.157 293.563 462.275 271.565 464.472 242.533C465.671 226.175 463.565 201.042 460.162 191.616C459.697 190.513 459.447 189.403 459.502 189.21C459.813 188.121 461.038 189.788 464.639 196.29ZM273.177 274.541C267.009 276.036 265.055 282.131 267.243 293.081C269.305 303.233 274.897 312.937 283.129 320.346C286.737 323.594 295.794 329.852 297.694 330.395C299.005 330.769 299.99 326.823 300.156 320.287C300.583 301.422 294.453 283.179 285.506 276.536C282.709 274.421 277.086 273.508 273.177 274.541Z" fill="#145932"/>
</svg>
