<svg width="1024" height="1118" viewBox="0 0 1024 1118" fill="none" xmlns="http://www.w3.org/2000/svg">
<path opacity="0.25" d="M803.068 174.921C666.767 366.324 551.95 526.236 549.432 529.508C543.608 534.688 146.829 252.028 149.363 244.203C152.431 234.25 622.865 -508.192 625.368 -506.911C628.926 -505.329 1011 -206.91 1036.66 -185.366C1049.82 -174.785 1035.23 -152.728 803.068 174.921Z" fill="#9FE870"/>
<path opacity="0.25" d="M976.438 339.331C967.293 350.973 856.049 507.913 728.767 685.929C601.879 864.627 494.224 1014.04 490.383 1018.08C484.827 1022.19 413.201 974.469 287.091 882.758C109.378 753.577 92.534 739.67 97.7273 725.764C102.921 711.858 274.064 440.347 280.014 436.912C281.336 436.149 342.683 479.809 415.743 533.068C489.195 587.009 553.439 632.633 557.657 633.833C562.27 635.715 631.994 542.74 713.271 428.553C794.547 314.365 864.272 221.39 868.491 222.59C874.819 224.391 987.753 310.074 990.902 315.528C991.689 316.891 984.528 327.389 976.438 339.331Z" fill="#9FE870"/>
</svg>
