<svg width="756" height="348" viewBox="0 0 756 348" fill="none" xmlns="http://www.w3.org/2000/svg">
<g clip-path="url(#clip0_1_2740)">
<path d="M386.528 333.69C381.445 329.916 376.809 325.726 372.686 321.178C371.088 319.463 371.089 319.441 368.896 320.591C362.927 323.724 357.038 326.923 350.989 329.984C344.939 333.046 338.459 334.923 331.381 334.791C320.52 334.547 311.552 330.881 304.664 323.741C300.056 318.958 295.576 314.087 291.078 309.257C290.574 308.723 290.045 308.211 289.316 307.482C287.338 310.29 285.136 312.981 282.726 315.534C274.733 324.101 264.734 331.155 253.376 336.24C244.377 340.23 236.785 346.207 231.401 353.542C227.421 358.795 223.957 364.277 220.598 369.818C220.327 370.232 220.186 370.698 220.191 371.171C220.195 371.643 220.345 372.105 220.624 372.511C221.749 374.465 222.704 376.495 223.803 378.456C227.131 384.405 227.402 390.381 223.975 396.417L221.486 396.371C220.775 395.592 221.268 394.843 221.667 394.157C224.567 389.103 223.316 384.27 220.893 379.458C214.204 366.186 204.963 354.369 193.937 343.439C180.922 330.581 165.923 319.967 148.22 312.222C131.992 305.074 114.33 300.55 96.118 298.879C92.8571 298.578 89.6295 298.05 86.32 298.4C79.503 299.06 74.8742 302.778 69.7695 307.018C74.619 307.25 78.8881 307.457 83.0773 307.804C105.658 309.564 127.455 315.567 146.907 325.381C162.767 333.424 176.964 343.626 188.941 355.587C200.355 366.915 209.718 379.641 216.722 393.349C217.187 394.258 218.083 395.188 217.138 396.283L214.648 396.237C212.122 393.554 210.914 390.259 209.014 387.284C202.4 376.94 195.106 367.043 186.086 358.042C173.278 345.343 158.017 334.61 140.953 326.297C134.82 323.327 128.398 320.81 121.755 318.772C120.113 318.246 118.471 317.748 116.828 317.264C116.137 317.067 115.465 316.842 114.757 316.68C113.884 316.492 113.039 316.225 112.236 315.882C98.482 313.006 84.6364 310.808 70.3789 310.557C48.0641 310.143 27.7373 315.305 9.39722 326.306C7.79248 327.268 6.0765 328.093 4.55942 329.156C4.34761 329.307 4.19988 329.514 4.1393 329.743C4.81071 330.683 6.14937 330.637 7.24581 330.856C20.3212 333.451 32.504 337.97 44.3896 343.121C48.6979 344.979 48.971 346.818 45.3951 349.678C37.8035 355.642 30.5896 361.947 23.7848 368.565C21.4495 370.881 20.0642 371.068 16.7738 369.533C7.50641 365.224 -1.94098 361.294 -12.0274 358.486C-17.7893 356.935 -23.6706 355.715 -29.6314 354.837C-30.4316 354.684 -31.2658 354.706 -32.0577 354.899C-32.8496 355.092 -33.574 355.451 -34.1645 355.943C-48.6074 367.101 -64.348 376.96 -79.2078 387.713C-80.7553 388.88 -82.4656 389.879 -84.2993 390.686L-88.0004 390.617C-85.5985 388.296 -82.6515 386.509 -79.8969 384.534C-67.0271 375.288 -53.5736 366.655 -40.8638 357.242C-30.015 349.212 -19.335 341.031 -7.98309 333.548C0.825065 327.726 9.87231 322.178 19.7437 317.707C32.4266 311.909 46.4596 308.628 60.7858 308.112C63.4216 308.02 65.4436 307.455 67.1552 305.617C68.7912 304.028 70.5638 302.545 72.458 301.181C77.7439 296.98 84.0169 294.851 91.1215 295.861C95.4826 296.502 97.7097 295.098 99.6708 292.117C101.729 288.974 103.992 285.921 106.042 282.771C107.612 280.433 108.552 277.83 108.794 275.153C109.035 272.475 108.573 269.791 107.439 267.298C105.33 262.3 103.037 257.341 100.752 252.39C95.3211 240.615 89.7214 228.9 83.5156 217.409C80.1718 211.212 77.5168 204.801 76.6807 197.929C76.0436 192.654 76.7591 187.404 77.7463 182.215C79.6164 172.425 79.3599 162.652 78.2653 152.863C77.8781 149.377 77.5327 145.886 77.4619 142.378C77.3621 137.8 78.3365 133.242 80.328 128.972C82.5453 124.21 83.7909 119.225 84.8954 114.238C85.5235 111.373 84.5663 108.487 84.3809 105.614C84.0305 100.897 83.447 96.1966 83.0718 91.479C82.1678 80.5673 90.7456 76.7242 99.874 76.8937C106.131 77.0099 111.645 79.0603 116.455 82.4011C119.593 84.6278 122.346 87.2206 124.635 90.1043C126.025 91.816 126.051 91.8023 128.177 90.8784C138.519 86.2747 149.479 82.8938 160.169 78.9837C160.365 78.9404 160.567 78.9227 160.769 78.9311C162.171 78.7304 162.411 79.4432 162.377 80.3777C159.053 82.9299 154.7 83.6495 150.793 85.1212C144.292 87.5861 137.574 89.6149 131.321 92.5519C130.375 93.0018 129.241 93.3421 129.053 94.4011C129.689 95.1638 130.254 94.7139 130.713 94.432C138.045 90.3603 146.349 88.0989 154.303 85.1793C171.626 78.821 189.082 72.7059 206.476 66.448C219.008 61.9582 231.554 57.4686 244.114 52.9793C251.055 50.5225 257.788 47.6228 265.015 45.7522C278.63 42.2294 290.232 44.6762 300.082 53.4871C312.425 64.5332 325.135 75.2745 337.691 86.1474C342.778 90.5559 347.813 95.013 352.891 99.4425C362.107 107.486 371.309 115.546 380.497 123.622C391.198 132.987 401.994 142.276 412.755 151.593C424.949 162.154 437.041 172.792 449.252 183.34C459.718 192.332 470.188 201.211 480.44 210.377C482.338 212.077 484.287 213.728 486.159 215.442C493.933 222.67 494.824 234.382 482.501 241.626C478.758 243.831 474.928 245.906 471.059 247.938C452.171 257.859 433.262 267.772 414.331 277.678C397.087 286.708 379.841 295.739 362.592 304.769C358.808 306.739 355.094 308.823 351.318 310.8C344.468 314.385 337.199 316.503 329.051 315.884C322.691 315.398 317.109 313.636 312.63 309.636C305.699 303.436 299.731 296.561 293.421 289.941C284.239 280.349 275.08 270.745 265.943 261.131C255.581 250.204 245.196 239.312 234.787 228.456C224.629 217.861 214.675 207.121 204.5 196.533C195.805 187.503 187.279 178.362 178.668 169.27C167.628 157.603 156.638 145.895 145.538 134.263C142.715 131.306 140.139 128.17 136.738 125.139C136.24 127.17 137.215 128.441 138.349 129.653C145.446 137.244 152.696 144.689 159.744 152.243C172.826 166.208 186.129 180.048 199.153 194.026C211.507 207.254 224.065 220.344 236.614 233.441C245.805 243.019 254.722 252.797 263.87 262.41C273.018 272.022 282.012 281.519 291.122 291.045C295.969 296.094 301.011 301.061 305.508 306.366C317.78 320.931 335.62 321.092 350.75 313.39C370.939 303.139 390.879 292.437 410.912 281.921C435.184 269.191 459.413 256.418 483.599 243.602C489.197 240.645 493.573 236.802 494.776 230.931C495.572 227.099 494.495 223.651 492.543 220.264C491.926 219.197 490.805 218.269 491.179 216.895C491.39 216.602 491.709 216.377 492.085 216.256C492.461 216.134 492.873 216.123 493.255 216.225C496.513 217.979 497.79 220.977 498.791 223.801C502.638 234.831 501.252 245.254 492.441 254.547C489.927 257.207 486.59 258.979 483.215 260.674C479.044 262.778 475.046 265.126 470.836 267.166C468.14 268.481 465.975 270.466 464.632 272.853C461.376 278.318 458.681 283.878 459.587 290.199C459.754 291.322 459.504 292.457 457.842 292.512C456.428 292.549 455.994 291.5 455.972 290.493C455.823 287.607 455.982 284.713 456.447 281.846C456.61 281.02 457.172 280.195 456.545 279.17C454.8 279.65 453.124 280.298 451.55 281.103C438.237 287.699 425.435 294.885 414.366 304.151C406.066 311.08 398.948 318.797 393.723 327.696C393.372 328.428 392.908 329.117 392.344 329.746C390.346 331.013 389.579 333.584 386.528 333.69Z" fill="#020303"/>
<path d="M473.546 401.043L450.742 400.62C450.267 399.535 451.166 398.793 451.727 397.989C458.656 388.137 467.022 379.203 476.093 370.744C488.294 359.347 502.462 349.604 518.099 341.857C534.702 333.615 552.559 328.549 571.442 325.846C581.194 324.569 591.04 323.939 600.892 323.963C618.07 323.808 633.978 327.517 648.055 336.095C650.882 337.819 653.744 339.488 656.571 341.212C657.383 341.709 658.502 342.204 658.158 343.225C657.877 344.077 656.697 344.118 655.819 344.279C649.474 345.422 643.151 346.651 636.843 347.929C628.477 349.609 620.359 351.781 612.237 354.053C608.672 355.05 608.535 355.614 610.806 358.227C613.801 361.683 617.464 364.613 620.913 367.702C626.541 372.765 632.168 377.828 637.232 383.32C638.678 384.87 640.174 384.855 642.094 384.119C652.082 380.323 662.426 377.266 673.013 374.981C681.915 373.177 690.847 371.437 699.968 370.679C700.676 370.574 701.399 370.589 702.097 370.724C702.794 370.858 703.453 371.109 704.034 371.462C716.506 379.38 728.325 388.015 739.409 397.309C740.418 398.175 741.254 399.176 741.883 400.274L741.671 406.057L644.296 404.249C640.872 402.06 638.727 398.946 636.053 396.233C628.166 388.238 620.254 380.263 611.957 372.572C607.805 368.734 603.944 364.631 599.662 360.925C598.11 359.53 596.137 358.526 593.956 358.021C579.331 354.639 564.576 351.652 549.933 348.32C547.874 347.857 546.316 348.671 544.727 349.442C535.665 353.819 526.981 358.748 518.743 364.19C503.284 374.326 489.223 385.93 476.835 398.774C475.941 399.722 474.819 400.496 473.546 401.043Z" fill="black"/>
<path d="M197.395 395.916L21.723 392.655C22.3994 389.834 25.2087 388.179 27.2078 386.197C36.9215 376.739 46.9475 367.518 57.286 358.534C66.3794 350.592 75.9871 343.119 85.4018 335.474C88.2259 333.189 91.3726 331.164 94.3668 328.996C95.3436 328.221 96.5384 327.676 97.8328 327.414C99.1272 327.152 100.476 327.183 101.746 327.503C119.034 331.07 135.262 337.596 149.448 346.686C156.637 351.158 163.35 356.159 169.512 361.63C180.381 371.395 189.948 382.05 197.026 394.195C197.347 394.725 197.793 395.258 197.395 395.916Z" fill="black"/>
<path d="M741.901 400.239C740.8 399.601 739.827 398.815 739.022 397.911C734.665 393.991 729.799 390.564 725.116 386.942C718.244 381.622 710.904 376.818 703.583 371.978C703.223 371.68 702.79 371.452 702.315 371.313C701.839 371.173 701.333 371.124 700.831 371.169C692.217 372.116 683.671 373.49 675.236 375.284C665.259 377.422 655.435 379.925 646.042 383.562C644.357 384.239 642.579 384.701 640.91 385.372C639.242 386.042 638.138 385.568 637.165 384.481C630.327 376.852 622.362 370.088 614.603 363.157C612.48 361.262 610.706 359.139 608.659 357.196C607.472 356.062 607.627 355.236 609.152 354.414C609.951 354.039 610.798 353.743 611.675 353.533C625.668 349.494 639.958 346.271 654.446 343.885C655.541 343.7 656.621 343.465 657.926 343.206C656.931 342.019 655.497 341.504 654.304 340.759C648.683 337.14 642.711 333.932 636.452 331.169C630.151 328.494 623.4 326.658 616.431 325.725C613.083 325.37 609.715 325.158 606.339 325.092C605.004 325.144 603.67 325.004 602.393 324.678C601.825 324.472 601.192 324.428 600.588 324.553C598.147 325.216 595.686 324.83 593.236 324.855C586.904 324.933 580.582 325.374 574.312 326.176C566.72 327.106 559.21 328.494 551.838 330.328C546.608 331.647 541.463 333.131 536.417 334.865C527.535 337.912 519.045 341.743 511.086 346.296C504.661 349.923 498.498 353.88 492.632 358.144C488.885 360.908 485.194 363.716 481.665 366.661C475.917 371.555 470.542 376.758 465.574 382.237C460.089 388.036 455.13 394.182 450.742 400.62L448.252 400.574C447.384 398.673 449.025 397.4 450.077 396.095C456.06 388.282 462.605 380.79 469.675 373.664C480.577 362.827 493.14 353.29 507.019 345.313C527.536 333.452 551.028 325.91 575.546 323.316C581.532 322.662 587.559 322.49 594.059 321.888C589.481 317.418 585.864 312.775 580.977 309.036C576.939 305.929 571.978 305.327 566.876 305.658C535.63 307.606 508.068 317.586 483.394 333.98C467.623 344.429 454.192 357.227 443.761 371.744C441.167 375.247 439.06 378.993 437.481 382.905C436.042 386.617 436.329 390.646 438.282 394.155C439.329 396.172 441.281 397.958 440.883 400.43L438.394 400.384C437.202 398.236 435.941 396.173 434.832 394.02C433.814 392.155 433.254 390.129 433.187 388.066C433.12 386.003 433.547 383.946 434.441 382.02C435.347 379.975 436.384 377.962 437.527 375.992C437.778 375.625 437.904 375.205 437.89 374.782C437.876 374.358 437.723 373.948 437.449 373.597C433.513 367.701 429.468 361.824 424.626 356.407C422.667 354.274 420.265 352.468 417.538 351.076C415.092 349.811 412.557 348.673 409.948 347.669C401.203 344.261 393.268 339.525 386.528 333.69C388.762 332.776 389.782 330.761 391.662 329.535C391.843 329.695 391.964 329.897 392.007 330.116C392.051 330.336 392.017 330.562 391.908 330.765C390.437 333.055 391.777 334.347 393.809 335.759C399.235 339.53 404.879 343.013 411.4 345.224C420.677 348.372 427.307 353.928 432.36 361.07C434.208 363.683 436.131 366.262 437.936 368.902C439.245 370.818 439.742 370.834 441.03 368.995C450.215 355.827 462.265 344.709 475.814 334.838C489.342 324.965 504.641 317.017 521.112 311.304C532.389 307.382 544.186 304.684 556.226 303.271C559.629 302.867 559.664 302.811 558.127 300.112C555.838 296.295 554.219 292.208 553.323 287.98C552.512 283.601 553.28 279.408 554.753 275.256C560.926 257.937 567.346 240.68 575.525 223.93C576.674 221.578 577.363 219.09 578.34 216.679C580.93 210.056 581.497 202.995 579.988 196.166C577.642 184.732 577.426 173.167 578.423 161.597C578.796 157.318 579.698 153.084 578.893 148.777C578.492 146.439 577.817 144.143 576.877 141.925C575.008 137.851 573.677 133.609 572.905 129.277C572.675 127.856 572.118 126.521 570.542 125.776C561.069 121.201 559.69 113.731 560.675 105.419C560.908 103.676 561.248 101.944 561.696 100.231C562.595 96.5357 565.296 94.0002 569.026 92.1286C569.695 91.7939 570.71 91.501 570.534 90.6477C570.358 89.7944 569.424 89.6637 568.677 89.4373C566.499 88.7709 564.178 88.4991 561.861 88.639C559.544 88.7789 557.283 89.3275 555.219 90.25C551.671 91.6771 548.49 93.6973 545.867 96.1897C536.115 105.777 529.904 116.649 528.689 129.405C528.179 134.943 528.104 140.389 530.584 145.691C531.739 148.17 531.298 150.904 530.398 153.479C527.616 161.411 525.602 169.485 523.702 177.575C522.712 181.934 520.271 185.098 515.464 187.119C508.387 190.062 502.107 194.242 497.036 199.386C496.268 200.165 495.207 201.251 493.951 200.392C492.696 199.532 493.318 198.198 494.172 197.307C497.008 194.388 500.235 191.762 503.785 189.481C507.374 187.253 511.15 185.253 515.082 183.5C516.637 182.763 519.145 181.839 518.367 180.189C517.588 178.538 515.248 179.862 513.645 180.101C510.913 180.553 508.375 181.604 505.732 182.341C504.565 182.674 503.063 183.099 502.469 181.87C501.875 180.64 503.221 179.929 504.334 179.475C508.355 177.842 512.461 176.367 517.016 176.487C519.306 176.53 520.36 175.883 520.617 173.848C521.05 170.976 521.729 168.134 522.648 165.343C523.252 163.29 522.99 161.128 521.908 159.237C518.94 153.67 515.668 148.226 512.598 142.715C504.228 127.726 497.652 112.062 489.089 97.1544C485.582 91.0361 481.462 85.1911 476.774 79.6838C469.672 71.356 463.53 62.4368 455.96 54.412C448.767 46.7484 441.577 38.9928 433.01 32.3308C431.379 31.1339 429.575 30.1198 427.64 29.3126C422.126 26.83 416.976 27.5349 412.047 30.624C406.803 33.9056 404.547 38.1352 405.755 43.6759C407.317 50.6825 410.358 57.2206 415.437 62.7481C423.166 71.1938 429.196 80.451 434.886 89.9214C438.486 95.9315 442.569 101.674 446.635 107.417C448.464 110.045 449.845 112.885 450.736 115.852C453.594 125.069 457.046 134.141 461.076 143.026C462.611 146.448 462.662 146.413 466.572 145.083C476.15 141.825 486.013 139.869 496.377 140.295C496.892 140.305 497.406 140.314 497.912 140.324C499.327 140.471 501.229 140.449 501.036 142.096C500.85 143.559 498.969 143.212 497.673 143.224C485.47 143.351 473.743 145.436 462.791 150.156C454.227 153.85 445.188 156.665 436.968 160.954C433.497 162.759 433.493 162.646 436.223 165.19C443.922 172.417 452.485 178.951 460.192 186.178C460.746 186.698 461.42 187.108 462.009 187.586C463.621 188.912 464.85 188.701 466.371 187.292C471.959 182.104 477.66 177.01 484.268 172.748C485.894 171.662 487.643 170.716 489.487 169.926C490.246 169.608 491.091 169.439 491.74 170.096C492.5 170.868 492.043 171.568 491.429 172.215C490.815 172.813 490.089 173.322 489.282 173.719C481.103 178.215 474.927 184.518 468.388 190.503C467.254 191.544 467.581 192.351 468.571 193.219C471.427 195.716 474.061 198.393 477.115 200.731C482.454 204.818 487.108 209.466 492.054 213.879C492.858 214.603 493.74 215.455 493.272 216.665C492.575 216.652 491.823 216.56 491.343 217.196C490.505 217.4 490.042 216.874 489.56 216.454C476.608 204.589 462.938 193.292 449.754 181.642C439.974 172.96 429.987 164.493 420.061 155.957C409.047 146.494 398.171 136.914 387.166 127.451C374.576 116.591 362.146 105.657 349.615 94.7773C339.153 85.6929 328.766 76.5745 318.157 67.6361C312.131 62.5656 306.329 57.2796 300.227 52.2502C289.216 43.1698 276.539 41.4893 262.45 45.4851C254.898 47.6117 247.764 50.589 240.436 53.1802C223.879 59.0357 207.322 64.8912 190.793 70.8818C182.376 73.9486 173.81 76.7789 165.392 79.8883C164.34 80.2725 163.32 81.1532 162.01 80.4134C162.003 80.0773 161.874 79.7523 161.64 79.4838C161.405 79.2153 161.078 79.0167 160.703 78.9157C162.348 77.9829 164.248 77.5648 166.034 76.8896C166.998 76.5765 167.789 75.963 168.247 75.1739C171.413 69.6931 175.823 64.9085 180.014 60.0064C191.445 46.6259 203.816 33.8445 217.057 21.7333C219.682 19.2444 222.544 16.9446 225.613 14.858C233.909 9.42292 244.088 9.26479 252.493 14.4291C255.788 16.4484 258.201 19.3439 259.358 22.6675C260.595 22.2229 261.073 21.1905 261.725 20.3879C264.467 17.1874 267.086 13.9137 270.492 11.1718C273.385 8.71561 277.154 7.1537 281.192 6.73766C293.985 5.47343 305.774 15.7513 303.833 26.5818C303.541 28.2127 303.1 29.8267 302.704 31.5549C304.697 31.7761 306.658 31.5362 308.562 31.9257C317.2 33.6729 322.724 39.7542 322.927 47.8122C323.004 51.6743 322.335 55.5269 320.948 59.2158C320.578 60.2573 320.438 60.9064 322.007 61.3606C328.777 63.3493 332.175 67.606 332.496 73.5977C332.493 74.5527 332.733 75.4948 333.198 76.3595C333.664 77.2241 334.345 77.9907 335.194 78.6065C336.781 79.9504 338.459 81.2139 340.22 82.3905C339.385 80.2498 338.534 78.1089 337.714 76.0039C335.75 71.1051 334.994 65.9043 335.492 60.7254C335.91 56.6275 337.97 52.7642 341.325 49.7865C344.68 46.8088 349.125 44.8987 353.911 44.378C355.787 44.252 357.671 44.3947 359.485 44.8003C359.902 43.8446 359.484 43.0152 359.356 42.1911C358.36 35.8397 360.677 30.6194 366.718 26.6513C370.006 24.4908 373.88 23.0799 377.971 22.5533C380.769 22.0979 383.649 22.2488 386.347 22.9921C389.045 23.7354 391.474 25.0473 393.411 26.8069C395.199 28.3514 396.806 30.0419 398.208 31.8546C399.5 33.5292 400.767 35.2174 402.035 36.8843C402.807 36.8987 402.791 36.4238 402.962 36.0515C403.927 33.7937 405.462 31.7405 407.458 30.0384C409.453 28.3362 411.861 27.027 414.508 26.2041C417.156 25.3812 419.978 25.0648 422.773 25.2776C425.569 25.4904 428.269 26.2271 430.682 27.4352C433.718 28.916 436.452 30.8034 438.781 33.0259C449.131 42.6962 459.275 52.5326 467.718 63.4992C471.023 67.8108 474.327 72.1225 477.964 76.2278C486.324 85.5919 492.4 96.0683 497.869 106.817C501.936 114.819 506.011 122.828 509.867 130.905C514.202 139.967 519.742 148.535 524.575 157.388C524.64 157.57 524.761 157.733 524.926 157.86C525.091 157.988 525.293 158.075 525.512 158.114C526.27 155.783 526.971 153.423 527.829 151.073C528.386 149.639 528.337 148.089 527.69 146.693C523.765 138.247 524.852 129.639 526.968 121.078C529.529 110.776 535.402 101.889 543.732 94.1524C548.298 89.9019 553.742 86.8294 560.641 85.9658C564.529 85.4213 568.508 85.9936 571.95 87.5925C573.666 88.3416 575.124 89.4548 576.186 90.8262C577.248 92.1975 577.878 93.7813 578.015 95.4265C578.536 99.1339 577.746 102.774 577.313 106.429C576.705 111.929 575.997 117.427 575.314 122.918C575.079 124.791 575.612 126.572 575.945 128.377C576.713 132.612 577.991 136.763 579.759 140.767C582.381 146.482 582.787 152.412 581.997 158.567C580.407 169.91 580.61 181.37 582.6 192.637C583.184 195.744 583.526 198.888 583.834 202.025C584.542 209.002 582.432 215.607 579.711 222.095C577.463 227.465 575.043 232.79 572.565 238.092C568.116 247.558 564.645 257.298 561.19 267.045C560.267 269.563 559.345 272.075 558.357 274.565C555.358 281.855 555.337 289.002 559.374 295.991C560.507 297.946 561.656 299.887 562.763 301.855C563.309 302.829 564.053 303.381 565.417 303.08C565.924 303.001 566.436 302.953 566.95 302.939C570.435 302.559 573.968 302.918 577.235 303.985C580.502 305.051 583.402 306.792 585.677 309.053C589.304 312.497 592.738 316.072 595.979 319.778C597.924 322.003 600.014 322.984 603.339 322.904C610.75 322.731 618.14 323.491 625.27 325.16C634.493 327.293 642.722 331.151 650.45 335.785C657.569 340.04 664.531 344.484 671.485 348.927C685.647 357.974 699.774 367.057 713.867 376.179C722.587 381.838 730.634 388.178 738.613 394.56C739.807 395.51 740.865 396.571 741.99 397.577L741.901 400.239Z" fill="#070302"/>
<path d="M-84.2995 390.686C-82.1997 388.225 -79.0411 386.782 -76.4599 384.782C-72.9564 382.085 -69.1243 379.712 -65.3865 377.196C-60.5583 373.928 -55.7063 370.688 -50.9102 367.391C-48.5845 365.791 -46.2983 364.133 -44.0849 362.425C-40.9727 359.982 -37.5241 357.878 -34.5325 355.327C-33.0494 354.058 -31.4892 353.861 -29.2577 354.15C-21.8036 355.183 -14.4892 356.823 -7.41435 359.047C-2.78142 360.418 1.73871 362.048 6.11723 363.924C10.1218 365.684 14.0649 367.535 18.0607 369.309C20.3811 370.344 21.0025 370.384 22.6093 368.685C25.9505 365.206 29.7256 362.123 33.2193 358.788C35.2677 356.821 37.6235 355.08 39.8664 353.244C42.1094 351.409 44.2367 349.784 46.3709 347.967C47.8875 346.692 47.8227 346.195 46.3912 344.922C45.7236 344.382 44.95 343.945 44.1049 343.633C35.6637 340.118 27.1782 336.681 18.2274 334.156C13.4848 332.821 8.63043 331.817 3.80377 330.736C3.20265 330.597 2.57221 330.578 2.21537 329.891C4.29442 327.996 7.04643 326.772 9.56453 325.36C18.9668 320.094 28.7778 315.459 39.7459 313.013C44.7406 311.779 49.8564 310.949 55.0251 310.534C61.0501 310.186 67.0533 309.752 73.0939 309.885C78.322 309.982 83.4518 310.722 88.6265 311.144C96.6991 311.797 104.37 313.902 112.301 315.005C112.476 315.008 112.618 315.216 112.78 315.326C103.797 319.572 96.3685 325.583 88.5183 331.097C80.0802 337.018 72.187 343.481 64.4392 350.053C53.4061 359.411 42.6876 369.023 32.2836 378.889C28.085 382.877 23.9915 386.945 19.8412 390.976C19.1231 391.611 18.2969 392.15 17.3911 392.574L-84.2995 390.686Z" fill="black"/>
<path d="M440.883 400.437L437.521 394.283C436.387 392.312 435.768 390.153 435.706 387.951C435.643 385.749 436.138 383.557 437.158 381.525C439.797 376.083 443.128 370.9 447.091 366.069C465.371 343.109 489.526 326.16 519.12 314.894C533.346 309.457 548.557 306.181 564.06 305.216C566.424 305.068 568.77 304.935 571.127 304.979C575.186 304.986 579.063 306.358 581.916 308.799C586.615 312.943 590.992 317.345 595.018 321.977C595.122 322.092 595.081 322.297 595.157 322.738C592.741 322.934 590.307 322.952 587.921 323.05C555.767 324.325 524.772 334.061 499.199 350.92C481.555 362.423 466.873 376.24 454.402 391.833C452.775 393.865 451.163 395.91 449.626 397.993C449.04 398.789 448.232 399.546 448.276 400.596L440.883 400.437Z" fill="#60AB58"/>
<path d="M217.121 396.282C215.92 392.555 213.785 389.179 211.692 385.804C202.361 370.755 190.974 356.978 176.347 345.28C161.72 333.582 145.46 324.086 126.871 317.613C114.755 313.352 102.015 310.484 88.9843 309.082C82.6914 308.338 76.3482 307.917 69.9889 307.823C69.5159 307.814 69.0454 307.734 68.2262 307.655C75.0248 300.925 82.4717 296.671 93.2352 297.77C108.939 299.259 124.302 302.605 138.885 307.714C155.213 313.535 169.597 321.899 182.449 332.182C199.527 345.569 213.031 361.931 222.062 380.181C224.934 385.653 224.613 391.024 221.469 396.363L217.121 396.282Z" fill="#5FAB58"/>
<path d="M121.799 318.263C125.653 318.922 128.976 320.691 132.516 322.004C140.626 325.079 148.312 328.899 155.442 333.395C162.337 337.545 168.858 342.127 174.952 347.103C177.2 348.987 179.578 350.731 181.696 352.761C188.395 358.936 194.463 365.589 199.834 372.649C204.957 379.441 209.563 386.509 213.625 393.809C214.176 394.544 214.529 395.376 214.657 396.244L201.097 395.992C199.694 395.293 199.04 394.105 198.327 392.944C189.507 378.747 177.933 365.941 164.09 355.062C155.291 348.163 145.628 342.109 135.271 337.009C133.938 336.364 132.827 335.432 132.048 334.307C128.967 329.787 125.86 325.28 122.576 320.863C122.022 320.109 121.095 319.348 121.799 318.263Z" fill="black"/>
<path d="M121.799 318.263C124.197 322.409 127.626 326.043 129.999 330.174C132.209 334.012 135.639 336.484 139.861 338.66C158.712 348.381 174.272 361.145 187.158 376.373C192.338 382.628 196.996 389.189 201.096 396.006L197.395 395.938C193.288 389.486 189.028 383.138 183.879 377.269C168.734 359.986 150.445 345.798 127.614 336.109C118.964 332.406 109.828 329.948 100.509 327.948C99.7295 327.748 98.9006 327.723 98.1024 327.876C97.3041 328.029 96.5635 328.354 95.9516 328.819C82.9426 337.787 70.9361 347.722 59.1786 357.889C52.6445 363.519 46.2637 369.273 39.9716 375.1C33.6794 380.926 27.574 386.643 21.7235 392.655L17.3917 392.574C22.3517 387.297 27.6596 382.267 32.9909 377.28C44.8413 366.165 56.9912 355.262 69.737 344.866C81.745 334.963 94.4537 325.698 107.79 317.124C109.252 316.195 110.696 315.096 112.762 315.368L115.071 316.034C115.401 317.457 114.044 317.779 113.069 318.32C109.535 320.176 106.227 322.329 103.193 324.746C110.959 326.739 118.475 328.749 125.899 331.246C123.437 327.283 120.599 323.603 117.947 319.821C117.316 318.909 115.805 317.996 117.183 316.647C118.724 317.2 120.418 317.416 121.799 318.263Z" fill="#60A95A"/>
<path d="M639.982 404.134C636.929 400.202 633.212 396.719 629.698 393.112C619.711 382.839 609.075 373.05 598.695 363.067C598.411 362.825 598.143 362.57 597.893 362.302C597.033 361.287 596.265 361.393 595.124 362.158C588.273 366.692 581.662 371.471 575.148 376.352C569.102 380.886 563.225 385.58 557.268 390.187C556.648 390.78 555.903 391.268 555.073 391.627C554.795 391.73 554.486 391.757 554.191 391.705C553.895 391.652 553.627 391.523 553.423 391.334C553.2 391.156 553.06 390.915 553.027 390.655C552.993 390.395 553.07 390.132 553.242 389.914C553.685 389.322 554.212 388.78 554.813 388.3C565.927 379.595 577.038 371.003 588.867 362.963C590.152 362.094 591.423 361.19 592.634 360.327C592.411 359.366 591.498 359.597 590.888 359.459C577.321 356.458 563.753 353.5 550.194 350.5C549.601 350.371 548.982 350.349 548.375 350.434C547.769 350.519 547.189 350.71 546.671 350.994C538.131 355.093 529.918 359.674 522.087 364.705C512.323 371.069 503.082 377.999 494.43 385.443C489.248 389.854 484.338 394.492 479.721 399.338C479.211 399.874 478.481 400.313 478.526 401.115L473.547 401.022C482.436 391.665 492.152 382.9 502.609 374.806C515.207 365.045 528.979 356.45 543.691 349.168C544.764 348.649 545.877 348.181 546.959 347.684C547.365 347.505 547.809 347.398 548.264 347.368C548.719 347.339 549.175 347.389 549.606 347.514C561.369 350.112 573.16 352.641 584.932 355.218C588.599 355.995 592.218 356.933 595.875 357.759C597.14 358.064 598.272 358.675 599.132 359.52C611.983 371.432 624.746 383.442 636.742 396.012C639.317 398.702 642.097 401.247 644.256 404.22L639.982 404.134Z" fill="#5FA959"/>
<path d="M331.573 310.278C327.879 310.203 324.257 309.434 320.966 308.026C317.675 306.618 314.795 304.606 312.531 302.132C302.803 292.035 293.087 281.911 283.383 271.761C261.667 249.044 239.964 226.323 218.276 203.597C191.468 175.543 164.657 147.489 137.844 119.436C136.72 118.331 136.071 116.931 136.005 115.463C135.665 110.913 134.424 106.452 132.336 102.268C131.959 101.655 131.844 100.948 132.008 100.266C132.172 99.5837 132.606 98.9685 133.237 98.5237C135.363 96.7143 137.882 95.276 140.65 94.2906C146.71 92.0796 152.808 89.9544 158.861 87.7291C160.384 87.1695 161.486 87.2466 162.675 88.3241C167.441 92.6629 173.286 93.3806 179.583 91.2732C185.88 89.1658 192.112 86.781 198.364 84.5382L241.289 68.9007C243.024 68.3378 244.687 67.6207 246.25 66.7615C249.909 64.5697 250.581 61.8832 248.409 58.5985C246.905 56.3463 246.947 56.1133 249.682 55.1369C254.907 53.2717 260.117 51.3708 265.411 49.6699C270.772 47.9938 276.576 47.683 282.11 48.7757C286.846 49.6689 291.141 51.7662 294.429 54.7918C302.49 61.8907 310.676 68.9706 318.802 76.0919C348.075 101.698 377.342 127.306 406.603 152.916C430.534 173.833 454.476 194.733 478.43 215.617C480.847 217.624 482.644 220.112 483.662 222.862C485.472 228.088 483.93 232.529 479.235 236.239C477.744 237.324 476.135 238.286 474.43 239.11L347.987 306.056C342.983 308.691 337.664 310.391 331.573 310.278Z" fill="#FDFEFD"/>
<path d="M493.306 216.665C492.584 215.058 491.131 213.926 489.787 212.746C482.659 206.475 475.511 200.236 468.342 194.03C467.537 193.349 466.73 192.703 465.723 191.856C467.306 190.355 468.822 189.08 470.258 187.753C476.331 182.235 482.228 176.535 489.915 172.534C490.009 172.499 490.095 172.45 490.169 172.39C490.814 171.793 492.374 171.383 491.546 170.404C490.718 169.425 489.679 170.369 488.856 170.843C481.784 174.607 475.955 179.585 470.278 184.722C468.724 186.11 467.192 187.562 465.678 189C464.758 189.869 463.893 190.122 462.841 189.16C462.15 188.524 461.314 187.998 460.597 187.376C451.776 179.722 442.967 172.064 434.168 164.401C433.548 163.865 432.718 163.418 432.579 162.445C435.176 160.885 437.921 159.515 440.784 158.347C450.284 154.273 459.767 150.199 469.631 146.84C478.565 143.824 488.101 142.361 497.674 142.537C498.388 142.55 499.11 142.563 499.826 142.513C499.93 142.523 500.037 142.514 500.137 142.487C500.238 142.46 500.332 142.416 500.412 142.356C500.492 142.297 500.557 142.225 500.603 142.144C500.649 142.062 500.675 141.974 500.679 141.884C500.705 141.706 500.652 141.527 500.529 141.383C500.407 141.239 500.224 141.14 500.018 141.107C499.213 140.974 498.398 140.89 497.578 140.856C486.718 140.35 476.349 142.297 466.306 145.787C461.529 147.448 462.393 147.662 460.633 143.797C456.301 134.368 452.65 124.717 449.7 114.898C448.562 111.065 446.121 107.882 443.833 104.588C437.586 95.5747 431.483 86.5004 426.318 76.976C425.42 75.4119 424.312 73.9436 423.015 72.6007C417.091 66.1153 411.184 59.6302 407.715 51.8586C405.927 47.8373 404.557 43.7599 404.726 39.364C404.751 37.4219 405.485 35.5289 406.826 33.9485C410.233 30.0378 414.662 27.4777 420.452 26.976C423.226 26.7371 425.701 27.6331 428.106 28.6199C432.79 30.6549 436.405 33.761 439.813 37.0474C442.307 39.4667 444.611 42.0951 447.176 44.4024C456.726 52.9953 464.168 62.9303 471.984 72.6315C474.82 76.1552 477.715 79.6375 480.593 83.1336C484.21 87.5828 487.371 92.2912 490.042 97.2075C495.339 106.751 500.291 116.43 504.898 126.243C510.013 137.113 516.267 147.529 522.217 158.067C523.843 160.676 524.194 163.736 523.192 166.585C522.213 169.348 521.553 172.182 521.221 175.049C521.038 176.881 520.689 177.115 518.441 177.038C513.557 176.855 509.168 178.332 504.776 179.887C503.834 180.216 502.479 180.694 502.903 181.609C503.326 182.523 504.649 181.981 505.575 181.658C508.837 180.571 512.053 179.37 515.548 178.932C516.148 178.811 516.76 178.742 517.375 178.725C518.204 178.741 519.365 178.337 519.845 179.281C520.232 180.067 519.647 180.836 519.117 181.478C517.831 183.048 515.897 183.911 513.965 184.761C507.242 187.684 501.165 191.59 496.012 196.3C495.014 197.077 494.302 198.083 493.962 199.195C493.895 199.362 493.886 199.542 493.936 199.712C493.985 199.883 494.092 200.037 494.243 200.156C494.424 200.24 494.634 200.268 494.837 200.236C495.041 200.203 495.226 200.113 495.362 199.979C495.667 199.738 495.954 199.48 496.221 199.208C501.271 193.878 507.649 189.571 514.885 186.606C516.955 185.821 518.763 184.605 520.142 183.07C521.521 181.535 522.426 179.731 522.772 177.827C524.744 169.32 526.915 160.846 529.836 152.513C530.731 150.054 530.622 147.417 529.529 145.034C526.554 138.518 527.156 131.814 528.44 125.115C529.303 120.164 531.03 115.344 533.564 110.816C537.288 104.389 541.695 98.3223 548.082 93.546C552.94 89.9102 558.474 87.5336 565.209 87.9845C567.577 88.1583 569.843 88.8626 571.778 90.0261C572.672 90.5457 572.667 91.1406 571.718 91.6614C570.489 92.347 569.27 92.976 568.042 93.6191C566.593 94.3875 565.347 95.4063 564.386 96.609C563.425 97.8118 562.77 99.1714 562.463 100.599C561.147 105.718 561.257 110.877 561.898 116.024C562.149 117.781 563.111 119.403 564.62 120.609C566.636 122.345 568.842 123.914 571.208 125.293C571.895 125.659 572.471 126.157 572.892 126.747C573.313 127.338 573.566 128.005 573.633 128.696C574.219 132.779 575.415 136.776 577.192 140.592C580.056 146.737 580.404 153.083 579.523 159.676C578.625 166.563 578.393 173.496 578.83 180.405C579.287 188.106 580.887 195.68 581.661 203.338C582.047 207.071 580.986 210.643 579.942 214.222C577.984 220.972 574.957 227.419 571.874 233.843C566.992 244.017 563.113 254.471 559.365 264.971C558.218 268.158 557.105 271.354 555.835 274.511C552.837 281.621 553.207 289.422 556.865 296.249C558.06 298.559 559.397 300.815 560.83 303.406C548.37 304.875 536.172 306.894 524.467 310.863C512.783 314.842 501.612 319.858 491.142 325.829C480.8 331.817 471.222 338.717 462.569 346.415C453.759 354.101 446.136 362.714 439.889 372.041C438.519 371.59 438.19 370.593 437.629 369.817C435.07 366.228 432.501 362.681 429.882 359.14C425.23 352.834 418.743 348.576 410.774 345.758C403.396 343.149 397.143 339.08 391.081 334.767C390.842 334.643 390.636 334.479 390.475 334.284C390.314 334.09 390.201 333.869 390.144 333.635C390.086 333.402 390.085 333.16 390.141 332.925C390.196 332.69 390.307 332.467 390.467 332.269C390.954 331.381 391.376 330.469 391.729 329.537C395.325 323.208 399.78 317.256 405.001 311.804C412.589 304.121 421.312 297.305 430.947 291.531C438.497 286.773 446.511 282.579 454.899 278.998C455.743 278.631 456.597 277.988 457.915 278.282C457.505 281.299 456.491 284.269 456.611 287.339C456.658 288.558 456.613 289.79 456.734 291.011C456.795 291.614 457.12 292.279 458.09 292.077C458.242 292.042 458.384 291.981 458.508 291.899C458.632 291.817 458.735 291.714 458.812 291.597C458.889 291.48 458.938 291.352 458.956 291.219C458.974 291.086 458.961 290.952 458.917 290.824C457.53 283.339 461.037 276.937 465.145 270.638C465.997 269.332 467.245 268.244 468.757 267.489C474.22 264.644 479.659 261.772 485.075 258.873C493.197 254.54 497.574 248.175 499.292 240.259C500.218 235.761 500.105 231.16 498.958 226.716C498.034 223.025 496.097 219.581 493.306 216.665Z" fill="#6C382C"/>
<path d="M141.854 168.636C148.373 170.004 153.937 172.02 158.665 176.032C166.937 183.036 175.26 189.991 183.506 197.036C193.826 205.771 202.045 216.145 207.706 227.585C211.2 234.375 213.583 241.55 214.789 248.911C215.957 256.682 215.922 264.445 213.54 272.122C213.23 273.101 212.307 274.508 213.822 274.855C215.337 275.202 215.29 273.55 215.564 272.627C218.368 264.101 218.284 255.5 216.691 246.863C216.129 243.748 215.38 240.66 214.447 237.613C214.359 237.42 214.338 237.209 214.387 237.005C214.436 236.801 214.552 236.613 214.722 236.463C217.794 238.73 220.918 240.963 223.947 243.272C237.641 253.713 249.588 265.332 258.917 278.837C265.797 288.763 270.554 299.665 272.967 311.039C273.535 313.692 273.717 316.408 274.067 319.1C274.125 319.626 274.023 320.157 273.771 320.642C273.519 321.127 273.126 321.55 272.629 321.871C266.445 326.559 260.038 330.981 252.692 334.294C248.864 336 245.184 337.942 241.684 340.104C238.403 342.168 235.936 344.885 233.494 347.623C228.483 353.333 224.09 359.416 220.372 365.798C219.948 366.498 219.49 367.198 219.025 367.898C218.928 368.031 218.694 368.097 218.507 368.2C217.472 367.656 217.26 366.64 216.709 365.829C208.37 353.591 198.137 342.375 186.283 332.48C174.195 322.438 160.651 314.054 145.287 307.96C133.754 303.382 121.822 299.732 109.199 297.939C105.993 297.476 102.807 296.964 99.6357 296.48C99.4202 295.562 100.111 295.072 100.538 294.52C103.544 290.834 106.223 286.962 108.552 282.938C110.11 280.446 111.019 277.701 111.215 274.892C111.411 272.082 110.89 269.276 109.688 266.666C104.049 254.208 98.469 241.736 92.3424 229.445C88.9387 222.617 85.0293 215.992 82.047 208.994C78.6975 201.14 78.3248 193.178 79.664 184.957C80.4991 179.844 81.7573 174.739 81.5735 169.557C81.3313 162.568 81.1474 155.573 80.1897 148.62C79.3256 142.285 79.7037 136.044 82.483 129.997C84.3862 125.912 85.7373 121.659 86.5099 117.321C86.8384 115.379 87.9198 114.648 89.8179 114.067C93.053 113.137 95.9981 111.582 98.4214 109.523C99.7901 108.416 100.625 106.914 100.76 105.316C101.195 100.333 100.996 95.3302 100.169 90.3939C99.3615 86.1287 96.5418 83.3065 91.9255 81.6978C91.5565 81.5705 91.2232 81.3731 90.6434 81.1073C92.9509 79.3225 95.6469 78.9476 98.3558 78.8987C105.652 78.765 111.647 81.2706 116.755 85.5661C123.933 91.5789 128.565 98.8762 131.489 107.02C133.882 113.907 134.523 121.163 133.367 128.306C132.722 132.757 132.161 137.181 130.189 141.388C130.031 141.757 129.967 142.149 130 142.539C130.033 142.929 130.162 143.308 130.38 143.651C133.345 149.97 135.692 156.491 137.397 163.148C137.675 164.167 137.928 165.191 138.24 166.203C139.62 170.677 142.276 174.354 147.053 176.794C149.156 177.867 151.014 179.29 153.24 180.175C154.181 180.553 155.59 181.536 156.272 180.606C157.147 179.383 155.421 178.897 154.416 178.447C151.568 177.068 148.826 175.539 146.205 173.867C144.201 172.59 142.443 171.141 141.854 168.636Z" fill="#6C382C"/>
<path d="M135.743 131.46C137.38 132.1 137.93 133.399 138.875 134.352C147.458 143.371 156.013 152.384 164.541 161.393C171.319 168.602 177.817 175.984 184.757 183.069C192.554 191.006 199.941 199.275 207.662 207.267C215.207 215.058 222.497 223.021 229.941 230.88C235.273 236.505 240.7 242.06 246.016 247.691C252.108 254.13 258.097 260.666 264.173 267.091C268.17 271.302 272.281 275.395 276.168 279.668C282.482 286.621 289.375 293.181 295.612 300.196C299.249 304.287 303.029 308.303 306.99 312.174C311.576 316.644 317.527 319.219 324.378 320.373C335.016 322.172 344.694 319.801 353.77 315.054C367.401 307.93 381.013 300.79 394.606 293.633C408.205 286.476 421.708 279.196 435.41 272.161C452.101 263.581 468.514 254.613 485.181 246.011C490.378 243.324 494.448 239.893 496.776 235.062C496.847 234.922 497.034 234.826 497.171 234.709C498.316 237.677 496.621 242.696 495.021 246.003C492.778 250.681 488.826 254.629 483.756 257.255C467.796 265.681 451.845 274.122 435.901 282.577C423.294 289.261 410.7 295.969 398.119 302.701C382.721 310.916 367.323 319.107 351.927 327.275C346.846 329.971 341.472 332.039 335.621 332.639C326.794 333.53 318.789 331.462 311.673 326.924C308.427 324.852 306.13 322.054 303.643 319.436C298.395 313.983 293.292 308.434 288.121 302.933C281.796 296.204 275.466 289.475 269.13 282.746C264.006 277.317 258.822 271.929 253.706 266.493C247.768 260.17 241.881 253.813 235.951 247.483C232.059 243.33 228.107 239.226 224.215 235.074C216.047 226.365 207.89 217.649 199.745 208.927C193.954 202.737 188.158 196.539 182.356 190.335C176.644 184.193 171.068 177.955 165.236 171.897C159.596 166.033 154.195 160.018 148.666 154.085C144.096 149.169 139.636 144.184 135.092 139.24C134.581 138.685 133.945 138.149 134.205 137.389C134.817 135.424 134.841 133.399 135.743 131.46Z" fill="#3C5944"/>
<path d="M162.076 80.4217L193.427 69.2588L238.181 53.3154C245.871 50.5751 253.501 47.6849 261.292 45.1448C271.419 41.8476 281.55 41.8727 291.444 45.8321C294.001 46.9371 296.369 48.332 298.484 49.9793C300.489 51.4616 302.422 53.0158 304.284 54.6419C312.525 61.7937 320.655 69.0426 328.948 76.1457C341.292 86.7101 353.489 97.3994 365.748 107.998C371.768 113.224 377.694 118.526 383.757 123.718C394.932 133.3 406.05 142.93 417.111 152.609C426.769 161.01 436.468 169.381 446.211 177.723C452.218 182.842 457.935 188.205 464.037 193.227C469.567 197.764 474.773 202.564 480.132 207.226C481.348 208.283 482.7 209.222 483.915 210.278C486.536 212.472 489.021 214.781 491.36 217.196C492.271 218.629 493.264 220.065 494.064 221.588C495.668 224.583 496.161 227.932 495.478 231.19C494.795 234.448 492.968 237.461 490.24 239.829C488.027 241.798 485.483 243.475 482.692 244.803C479.548 246.31 476.568 248.069 473.503 249.683C456.568 258.597 439.633 267.505 422.699 276.409C411.815 282.134 400.945 287.868 390.089 293.613C377.184 300.421 364.31 307.28 351.337 313.911C344.025 317.657 335.985 319.512 327.449 318.801C320.949 318.302 314.874 315.893 310.26 311.986C306.449 308.799 303.439 305.045 300.072 301.54C295.791 297.104 291.614 292.592 287.385 288.114C280.854 281.193 274.459 274.174 267.749 267.384C261.223 260.781 255.08 253.93 248.647 247.28C243.318 241.769 238.152 236.14 232.882 230.588C227.285 224.704 221.628 218.854 216.031 212.969C211.235 207.886 206.44 202.768 201.644 197.677C195.249 190.891 188.854 184.108 182.459 177.331C176.228 170.755 170.025 164.167 163.851 157.569C160.006 153.495 156.118 149.456 152.264 145.389C147.387 140.241 142.561 135.058 137.616 129.958C136.799 129.184 136.232 128.241 135.97 127.221C135.707 126.201 135.759 125.139 136.119 124.135C136.905 123.768 137.267 124.298 137.618 124.68C146.937 134.61 156.262 144.542 165.592 154.477C173.018 162.35 180.538 170.155 187.981 178.014C195.744 186.213 203.464 194.453 211.227 202.644C217.625 209.358 224.024 216.015 230.372 222.721C235.641 228.273 240.756 233.95 246.145 239.398C252.088 245.388 257.621 251.654 263.615 257.609C268.799 262.756 273.599 268.187 278.604 273.472C282.602 277.676 286.473 281.941 290.6 286.028C295.009 290.36 298.947 295.066 303.313 299.439C306.693 302.824 309.835 306.375 313.505 309.546C317.489 313.006 322.497 314.587 328.014 315.171C336.328 316.033 343.835 313.998 350.88 310.282C361.482 304.685 372.095 299.094 382.719 293.511C402.051 283.386 421.388 273.275 440.73 263.179C453.024 256.725 465.3 250.247 477.557 243.745C480.007 242.442 482.349 240.996 484.567 239.419C493.092 233.386 493.036 223.354 486.455 216.892C479.762 210.315 472.539 204.145 465.213 198.08C464.777 197.718 464.334 197.355 463.908 196.979C454.839 189.054 445.881 181.06 436.66 173.231C429.83 167.437 423.341 161.409 416.544 155.637C405.437 146.222 394.646 136.586 383.598 127.144C376.947 121.466 370.621 115.526 363.91 109.904C355.852 103.174 348.297 96.0916 340.367 89.2927C329.705 80.1975 319.211 71.0488 308.634 61.9268C304.037 57.9737 299.845 53.6315 294.639 50.2125C291.549 48.1274 287.991 46.6006 284.179 45.724C280.367 44.8473 276.378 44.6388 272.454 45.1112C267.468 45.7028 262.596 46.8806 257.976 48.6109C248.368 52.024 238.853 55.5876 229.269 59.0224C214.459 64.3365 199.619 69.5651 184.809 74.8721C173.416 78.9534 162.086 83.1066 150.675 87.2159C147.553 88.3409 144.391 89.4085 141.261 90.5405C137.618 91.7765 134.133 93.3308 130.86 95.1785C130.071 95.6385 129.141 96.7688 128.211 95.193C127.484 93.947 127.531 93.5583 129.297 92.741C131.738 91.6033 134.188 90.4658 136.739 89.5356C145.164 86.4406 153.628 83.4454 162.076 80.4217Z" fill="#3F5A46"/>
<path d="M44.3737 346.499C44.0648 347.45 43.1185 347.893 42.3903 348.503C35.1781 354.284 27.9007 360.028 21.5588 366.534C20.3337 367.786 19.4819 367.692 17.9972 366.963C6.34802 361.135 -6.19647 356.7 -19.2874 353.782C-22.5171 353.085 -25.785 352.521 -29.0175 351.902C-29.1028 351.057 -28.3536 350.781 -27.8497 350.4C-19.7605 344.253 -11.4074 338.387 -2.89415 332.68C-2.52897 332.38 -2.08204 332.163 -1.59457 332.048C-1.1071 331.933 -0.594766 331.925 -0.104788 332.023C15.2236 334.865 29.9819 339.549 43.73 345.935C43.9715 346.099 44.1878 346.289 44.3737 346.499Z" fill="#5FAB57"/>
<path d="M87.6019 112.68C86.8481 106.51 86.0511 100.609 85.636 94.7143C85.4472 91.934 84.893 89.1539 85.8663 86.3881C86.014 85.8802 86.1959 85.3798 86.4111 84.8893C87.36 83.0156 88.2363 82.6706 90.507 83.2511C92.4553 83.6982 94.201 84.6252 95.5268 85.917C96.8527 87.2087 97.7001 88.808 97.9637 90.5158C98.8453 95.1681 99.1371 99.8924 98.8343 104.607C98.7864 105.352 98.5553 106.081 98.156 106.748C97.7568 107.414 97.1983 108.002 96.5169 108.475C93.8975 110.366 90.8666 111.796 87.6019 112.68Z" fill="#6C382C"/>
<path d="M117.199 316.647C116.989 317.628 117.737 318.294 118.258 319.012C120.882 322.645 123.532 326.25 126.165 329.876C126.915 330.656 127.372 331.612 127.476 332.621C123.077 331.2 118.911 329.763 114.663 328.515C110.416 327.268 106.127 326.232 101.621 325.029C104.974 322.317 108.647 319.909 112.58 317.844C113.512 317.337 114.7 317.083 115.137 316.035L117.199 316.647Z" fill="black"/>
<path d="M138.5 158.635C137.044 153.61 135.214 148.671 133.021 143.849C132.788 143.416 132.657 142.946 132.638 142.468C132.618 141.99 132.71 141.512 132.908 141.063C133.879 140.847 134.058 141.615 134.45 142.041C136.847 144.614 139.192 147.243 141.639 149.796C142.439 150.64 142.695 151.346 142.019 152.354C140.721 154.235 140.177 156.4 138.5 158.635Z" fill="#FAFAFA"/>
<path d="M216.464 71.0468C216.442 71.6414 215.884 71.9002 215.312 72.1092C213.056 72.9528 210.791 73.7891 208.511 74.6039C205.297 75.7556 202.058 76.8855 198.828 78.0227C198.449 78.1503 198.078 78.2992 197.684 78.4194C197.521 78.4896 197.345 78.5319 197.164 78.544C196.983 78.5561 196.802 78.5376 196.63 78.4897C196.458 78.4417 196.299 78.3653 196.163 78.2646C196.026 78.164 195.914 78.0413 195.834 77.9034C195.372 77.1439 196.075 76.7744 196.716 76.503C198.478 75.7777 200.233 75.024 202.041 74.3988C205.767 73.122 209.522 71.9308 213.139 70.4396C213.485 70.2473 213.871 70.1168 214.276 70.0561C214.681 69.9954 215.096 70.0058 215.494 70.0866C215.754 70.1399 215.987 70.261 216.16 70.4331C216.334 70.6051 216.44 70.8197 216.464 71.0468Z" fill="#2D2F2C"/>
<path d="M223.842 69.1223C222.531 69.0979 221.716 68.4382 221.855 67.5836C221.998 67.1178 222.321 66.7056 222.773 66.4142C223.224 66.1228 223.776 65.9695 224.339 65.9792C224.6 65.9767 224.857 66.0228 225.094 66.1144C225.33 66.206 225.54 66.3407 225.708 66.5093C225.876 66.6778 225.998 66.8759 226.066 67.0898C226.134 67.3037 226.146 67.5282 226.102 67.7475C225.934 68.6936 225.161 69.168 223.842 69.1223Z" fill="#2F302D"/>
<path d="M381.537 24.2771C385.31 24.4272 388.855 25.8123 391.436 28.1445C395.633 31.906 398.608 36.3673 401.819 40.741C402.184 41.3676 402.385 42.0551 402.41 42.7567C403.673 51.1177 407.789 58.4409 413.412 65.2253C416.188 68.5637 419.134 71.799 422.045 75.0549C422.921 76.0212 423.676 77.0631 424.298 78.164C429.636 87.8898 435.669 97.3226 442.363 106.41C445.59 110.812 447.429 115.465 449.01 120.361C451.678 128.881 454.946 137.251 458.796 145.428C460.232 148.401 460.237 148.472 456.751 149.796C448.473 152.943 440.272 156.234 432.384 160.068C430.219 161.119 430.164 161.054 428.472 159.62C423.978 155.803 419.792 151.738 415.101 148.094C414.091 147.221 413.346 146.15 412.932 144.973C410.069 138.346 407.022 131.765 405.325 124.813C404.603 121.852 402.71 119.331 401.037 116.735C394.539 106.641 388.303 96.4378 383.112 85.7866C382.338 84.2562 381.723 82.6935 381.04 81.1436C379.979 78.6844 378.657 76.3148 377.089 74.0644C371.638 66.3724 367.168 58.1989 363.758 49.6824C362.688 46.9499 361.995 44.1177 361.692 41.2427C361.154 36.4158 362.85 32.2961 367.321 29.0285C371.291 26.0992 376.314 24.4207 381.537 24.2771Z" fill="#6C382C"/>
<path d="M408.555 142.285C391.887 127.808 375.128 113.563 358.946 98.96C359.249 97.9597 360.083 98.0814 360.727 97.9446C364.947 97.0954 368.96 95.6053 372.573 93.5459C373.421 93.0516 375.103 92.4737 374.474 91.5057C373.69 90.2444 372.496 91.5681 371.667 91.9707C367.317 94.1824 362.544 95.7134 357.575 96.4906C357.147 96.5955 356.695 96.595 356.269 96.4893C355.844 96.3836 355.464 96.177 355.172 95.8934C352.124 93.1804 349.059 90.4954 345.985 87.8103C345.421 87.3038 344.978 86.7088 344.679 86.0576C341.725 80.0949 339.032 74.052 338.065 67.5736C337.359 62.8285 337.423 58.1332 340.661 53.8509C343.81 49.7016 348.108 47.0896 353.88 46.3963C355.311 46.2402 356.762 46.3444 358.137 46.702C358.841 46.8359 359.484 47.1375 359.991 47.572C360.498 48.0065 360.849 48.556 361.003 49.1566C364.242 58.2344 369.113 66.705 374.779 74.8007C377.541 78.748 379.152 83.0636 381.25 87.2183C384.811 94.2832 388.625 101.232 392.819 108.033C395.169 111.887 397.712 115.689 400.112 119.545C401.313 121.472 402.274 123.503 402.979 125.605C404.69 130.595 406.33 135.684 408.374 140.631C408.556 140.873 408.668 141.15 408.699 141.437C408.73 141.725 408.681 142.015 408.555 142.285Z" fill="#6C382C"/>
<path d="M215.249 59.3218L171.799 74.8077C171.886 73.9573 172.285 73.1494 172.938 72.4983C182.772 59.9131 193.506 47.8528 205.078 36.3869C211.516 29.9823 217.898 23.5128 225.28 17.8412C228.554 15.2579 232.622 13.5259 236.998 12.8522C248.957 11.0057 259.778 20.2881 257.462 30.4528C256.145 36.2512 252.871 41.312 249.309 46.2754C248.76 47.0276 247.94 47.6091 246.973 47.9321C237.937 51.1268 228.915 54.3453 219.905 57.5877C219.302 57.832 218.638 57.9456 217.974 57.9185C217.31 57.8913 216.666 57.7242 216.099 57.432C214.311 56.5771 212.497 55.7713 210.693 54.9444C210.153 54.7006 209.641 54.4007 209.059 54.2057C208.476 54.0107 207.597 53.7606 207.181 54.4683C206.764 55.1761 207.52 55.3955 208.026 55.6599C210.316 56.8217 212.591 57.969 215.249 59.3218Z" fill="#6C382C"/>
<path d="M698.526 369.235C679.824 371.764 661.759 375.48 644.561 381.834C642.97 382.421 641.311 383.509 639.701 383.26C638.09 383.01 637.283 381.245 636.195 380.127C629.706 373.631 622.638 367.55 615.979 361.171C614.375 359.611 612.696 358.092 611.009 356.517C612.077 355.488 613.422 355.251 614.656 354.892C629.086 350.668 643.938 347.841 658.833 345.192C659.528 345.055 660.25 345.057 660.941 345.199C661.632 345.341 662.273 345.619 662.814 346.01C674.469 353.523 686.15 361.012 697.857 368.479C698.113 368.708 698.338 368.962 698.526 369.235Z" fill="#5FAB58"/>
<path d="M252.722 45.8287C254.294 43.0244 255.631 40.7753 256.869 38.4677C258.809 35.0599 259.933 31.362 260.174 27.5917C260.189 26.5356 260.58 25.5051 261.296 24.6374C264.17 21.2055 266.849 17.6567 270.171 14.4952C272.108 12.6632 274.415 11.1414 276.979 10.003C278.601 9.22087 280.402 8.75191 282.254 8.62956C284.106 8.50722 285.963 8.7345 287.692 9.29521C294.784 11.552 300.206 15.1946 301.458 22.0678C301.809 24.5983 301.548 27.1681 300.691 29.6191C299.265 34.203 297.178 38.6234 294.479 42.7788C293.73 43.9549 293.059 44.1267 291.575 43.6245C280.518 39.8773 269.433 39.8486 258.346 43.9567C256.696 44.5637 254.967 45.0628 252.722 45.8287Z" fill="#6C382C"/>
<path d="M316.921 62.605C312.781 59.0996 309.026 55.9838 305.342 52.7206C302.847 50.5492 300.413 48.308 297.428 46.6021C296.126 45.8695 295.631 45.1094 296.526 43.7943C298.266 41.2064 299.696 38.4775 300.794 35.6493C301.378 34.2009 302.428 33.6537 304.256 33.6239C313.396 33.4748 319.533 39.1495 320.39 46.575C321.057 51.9569 319.497 57.1204 316.921 62.605Z" fill="#6C382C"/>
<path d="M563.929 107.944C563.96 105.069 563.883 102.184 565.311 99.4692C566.928 96.3752 569.908 94.5959 573.289 93.1923C574.537 92.67 575.012 93.5218 575.183 94.2971C575.702 96.3412 575.852 98.4436 575.628 100.532C575.101 104.255 574.599 107.986 574.171 111.726C573.77 115.196 573.203 118.664 573.075 122.161C573.021 123.626 572.416 123.813 570.997 122.887C569.2 121.739 567.529 120.454 566.006 119.047C564.079 117.241 563.956 114.929 563.748 112.68C563.673 111.099 563.872 109.523 563.929 107.944Z" fill="#6C382C"/>
<path d="M330.094 73.199C326.026 70.8921 322.862 67.9644 319.595 65.0986C319.45 65.0095 319.328 64.8956 319.237 64.764C319.147 64.6324 319.089 64.4859 319.068 64.3339C319.047 64.1818 319.063 64.0274 319.116 63.8803C319.168 63.7333 319.255 63.5967 319.372 63.4793C319.595 63.2328 319.915 63.0631 320.271 63.0019C320.628 62.9407 320.998 62.9923 321.311 63.147C325.092 64.4285 327.998 66.4871 329.217 69.9242C329.627 70.9873 329.818 72.103 330.094 73.199Z" fill="#6C382C"/>
<path d="M222.291 96.9398C220.819 96.9833 220.752 96.9963 220.349 95.0903C219.506 91.1361 218.771 87.1626 217.919 83.2153C217.699 82.184 218.014 81.7578 219.245 81.6956C222.529 81.5346 225.807 81.3594 229.08 81.1699C230.229 81.092 230.822 81.443 230.986 82.4024C231.668 86.4599 232.466 90.5196 233.106 94.5905C233.37 96.2175 233.235 96.2929 231.153 96.4526C228.489 96.6228 225.869 96.7371 222.291 96.9398Z" fill="#184330"/>
<path d="M220.54 104.855C219.136 104.645 217.191 105.601 215.987 104.693C214.783 103.785 215.084 102.119 214.81 100.761C214.184 97.6678 213.525 94.5812 212.966 91.4823C212.826 90.7713 212.201 89.7113 213.92 89.4669C216.483 89.1036 217.246 89.3516 217.603 90.9521C218.032 92.8301 218.511 94.7162 218.74 96.6402C218.891 97.9393 219.621 98.2079 220.953 98.098C222.685 97.9885 224.436 98.021 226.168 97.8832C227.367 97.785 227.817 98.2113 227.956 99.1631C228.763 105.702 230.268 104.051 222.894 104.736C222.185 104.836 221.463 104.823 220.54 104.855Z" fill="#163E2C"/>
<path d="M235.263 109.627C235.31 110.846 237.268 111.343 236.251 112.118C234.927 113.141 234.452 111.588 233.801 110.988C232.846 110.099 232.035 109.099 231.053 108.026C233.263 106.65 234.882 108.678 236.757 108.521C236.834 107.765 236.081 107.482 235.742 106.986C235.544 106.707 235.231 106.424 235.682 106.114C236.134 105.804 236.529 105.676 236.777 105.915C238.29 107.079 239.549 108.461 240.497 110C240.911 110.716 239.903 111.038 239.154 110.854C237.903 110.54 236.699 110.093 235.263 109.627Z" fill="#171717"/>
<path d="M257.349 97.4703C258.501 96.6221 259.925 96.0902 261.432 95.9452C262.304 95.8417 263.19 95.9701 263.968 96.313C264.746 96.6558 265.379 97.1964 265.78 97.8606C266.105 98.2587 266.239 98.7486 266.155 99.2312C266.071 99.7137 265.775 100.153 265.328 100.459C263.239 102.17 261.886 102.152 260.091 100.362C259.244 99.4748 258.42 98.5953 257.349 97.4703Z" fill="#3F3F3E"/>
<path d="M213.577 114.941C214.515 114.515 215.48 114.133 216.467 113.797C218.674 113.165 219.909 113.684 220.266 115.717C220.479 116.939 222.254 116.547 222.31 117.745C220.91 118.768 219.773 117.16 218.46 117.426C217.959 117.721 218.264 118.003 218.513 118.249C218.761 118.494 219.151 118.969 218.614 119.341C218.525 119.421 218.417 119.483 218.298 119.525C218.18 119.567 218.052 119.587 217.924 119.585C217.796 119.583 217.67 119.557 217.555 119.511C217.439 119.465 217.336 119.398 217.253 119.316C215.823 118.007 214.341 116.733 213.577 114.941Z" fill="#121212"/>
<path d="M213.243 117.003C212.431 117.633 211.695 117.322 211.005 117.344C210.697 117.322 210.387 117.382 210.117 117.515C209.848 117.648 209.632 117.848 209.5 118.088C209.386 118.381 209.379 118.695 209.48 118.989C209.58 119.283 209.783 119.543 210.062 119.735C210.359 120.031 210.745 120.251 211.181 120.37C211.616 120.489 212.082 120.504 212.529 120.411C212.947 120.341 213.369 120.144 213.432 119.784C213.509 119.268 212.964 119.421 212.617 119.365C211.7 119.227 211.61 118.744 212.353 118.418C213.095 118.091 214.163 117.275 215.003 118.389C215.175 118.58 215.299 118.799 215.369 119.034C215.438 119.268 215.451 119.512 215.407 119.752C215.362 119.991 215.261 120.221 215.11 120.427C214.959 120.633 214.76 120.812 214.527 120.951C212.435 122.514 208.505 121.668 207.557 119.441C207.335 118.997 207.298 118.5 207.452 118.032C207.607 117.565 207.944 117.155 208.407 116.871C209.828 115.927 211.107 115.929 213.243 117.003Z" fill="#171716"/>
<path d="M256.528 98.5814C256.932 98.6456 257.427 98.7327 257.48 99.1091C257.705 100.686 258.909 101.58 260.687 102.236C258.979 103.529 257.832 101.956 256.413 102.157C255.903 102.473 256.248 102.812 256.585 103.144C256.921 103.476 256.986 103.74 256.618 104.045C256.538 104.13 256.435 104.198 256.319 104.244C256.203 104.29 256.076 104.313 255.948 104.311C255.821 104.309 255.696 104.281 255.583 104.231C255.47 104.18 255.373 104.108 255.299 104.02C253.96 102.72 252.637 101.406 251.235 100.027C252.101 99.0376 253.279 98.8469 254.418 98.5847C254.75 98.4526 255.11 98.3838 255.475 98.3832C255.839 98.3826 256.199 98.4503 256.528 98.5814Z" fill="#161515"/>
<path d="M219.873 112.416L223.331 110.957C223.829 110.746 224.331 110.621 224.602 111.157C224.873 111.694 224.195 111.858 223.814 112.057C223.433 112.255 222.631 112.389 222.336 112.95C222.879 113.994 223.668 113.308 224.34 113.101C225.012 112.893 225.609 112.472 226.261 113.037C226.336 113.938 225.342 113.856 224.839 114.208C224.498 114.449 223.725 114.478 224.143 115.08C224.466 115.554 224.962 115.407 225.484 115.204C225.577 115.164 225.662 115.094 225.762 115.089C226.536 115.04 227.468 113.86 228.032 115.018C228.423 115.89 227.06 115.942 226.41 116.206C223.56 117.386 224.06 117.579 222.048 115.36C221.37 114.604 220.692 113.848 220.039 113.077C219.928 112.948 219.952 112.743 219.873 112.416Z" fill="#171717"/>
<path d="M229.861 112.679C230.451 113.335 231.123 112.901 231.761 112.714C232.399 112.528 232.999 112.029 233.814 112.667C232.939 113.877 231.395 114.089 230.089 114.617C229.499 114.854 229.158 114.401 228.855 114.077C227.703 112.873 226.577 111.655 225.402 110.407C226.552 109.387 227.941 109.108 229.254 108.609C229.438 108.524 229.652 108.501 229.853 108.544C230.055 108.587 230.229 108.693 230.342 108.841C230.546 109.171 230.254 109.442 229.904 109.676C229.326 110.055 227.847 110.077 228.301 110.836C228.896 111.818 229.827 110.652 230.637 110.526C231.147 110.45 231.646 110.204 231.908 110.762C232.169 111.319 231.475 111.462 231.102 111.661C230.73 111.859 229.863 111.949 229.861 112.679Z" fill="#1A1B1A"/>
<path d="M244.932 104.543C244.075 105.271 243.393 104.862 242.715 104.771C242.412 104.717 242.095 104.748 241.811 104.859C241.528 104.969 241.292 105.154 241.14 105.387C240.641 106.086 241.096 106.59 241.527 107.051C242.615 108.191 243.865 108.065 245.144 106.701C245.49 106.339 245.837 105.934 246.37 106.114C247.108 106.362 246.927 106.982 246.728 107.453C246.161 108.859 244.163 109.445 241.972 108.958C240.202 108.557 238.773 106.986 239.01 105.715C239.39 103.746 242.453 103.095 244.932 104.543Z" fill="#191919"/>
<path d="M254.55 104.516C253.878 105.156 253.478 105.205 252.909 105.095C250.582 104.683 250.523 104.725 249.414 106.652C249.359 106.771 249.273 106.878 249.164 106.965C249.054 107.053 248.923 107.119 248.781 107.158C248.21 107.317 248.059 106.918 247.971 106.611C247.54 105.456 247.151 104.287 246.753 103.118C246.566 102.555 246.089 101.972 246.905 101.477C247.216 101.241 247.614 101.105 248.028 101.092C248.443 101.079 248.848 101.19 249.174 101.406C249.58 101.661 249.987 101.881 250.443 102.138L254.55 104.516Z" fill="#181818"/>
<path d="M254.347 112.765C252.292 113.095 250.715 111.699 248.731 111.697C248.614 112.85 250.336 113.215 250.171 114.324C248.423 113.76 247.49 112.914 245.599 110.152C247.775 109.682 249.352 111.298 251.374 111.18C251.516 110.007 249.818 109.663 249.807 108.601C251.462 109 252.916 110.344 254.347 112.765Z" fill="#484847"/>
<path d="M232.616 119.077C232.386 117.883 230.944 117.346 230.704 116.208C232.404 116.707 233.568 117.806 235.094 120.342C232.942 120.84 231.335 119.138 229.318 119.335C229.486 120.422 231.098 120.841 230.936 122.092C229.073 121.271 227.776 119.965 226.572 117.683C228.795 117.54 230.505 118.91 232.616 119.077Z" fill="#414141"/>
<path d="M264.136 102.612C265.359 101.855 266.738 101.301 268.198 100.98C268.286 101.987 267.397 101.985 266.897 102.28C266.396 102.576 265.909 102.73 266.313 103.261C266.459 103.437 266.669 103.567 266.911 103.632C267.152 103.696 267.413 103.692 267.653 103.619C268.322 103.497 268.835 102.876 269.729 103.162C269.878 103.873 269.145 103.909 268.722 104.142C268.298 104.375 267.743 104.563 268.063 105.114C268.12 105.236 268.207 105.346 268.319 105.436C268.431 105.526 268.564 105.594 268.71 105.636C268.856 105.678 269.011 105.692 269.165 105.678C269.318 105.664 269.467 105.621 269.6 105.554C270.391 105.264 271.132 104.768 272.315 104.896C271.438 106.162 270.021 106.312 268.923 106.802C268.408 107.026 267.98 106.7 267.645 106.332C266.495 105.085 265.351 103.895 264.136 102.612Z" fill="#424242"/>
<path d="M245.096 115.958C241.353 115.889 241.097 115.841 240.153 118.494C238.691 116.93 238.341 115.146 238.071 113.433C237.93 112.538 239.116 112.808 239.679 113.088C241.514 114 243.296 114.976 245.096 115.958Z" fill="#434343"/>
<path d="M260.782 105.985C260.502 105.956 260.227 105.908 259.956 105.842C258.757 105.487 257.636 105.494 257.242 106.72C256.878 107.825 257.756 108.557 258.82 108.98C259.884 109.404 260.983 109.545 261.794 108.504C262.098 108.12 261.955 107.501 262.675 107.104C263.526 108.593 262.809 109.352 261.428 109.865C260.503 110.136 259.501 110.134 258.583 109.86C257.665 109.586 256.885 109.056 256.368 108.354C256.007 107.933 255.842 107.411 255.906 106.889C255.969 106.367 256.257 105.882 256.713 105.527C257.859 104.62 259.286 104.647 260.782 105.985Z" fill="#464646"/>
<path d="M216.687 121.834C216.572 122.944 215.52 122.861 214.974 123.269C214.684 123.469 214.205 123.63 214.546 124.076C214.767 124.377 215.023 124.644 215.498 124.61C216.38 124.556 217.057 123.768 218.077 124.028C216.115 125.67 216.115 125.67 216.995 127.953C214.902 126.81 213.964 125.22 212.845 123.796C212.607 123.501 212.92 123.132 213.341 122.969C214.378 122.55 215.356 121.916 216.687 121.834Z" fill="#3D3C3C"/>
<path d="M225.284 124.296C223.388 123.18 221.832 121.695 220.742 119.962C222.733 120.48 224.122 121.781 225.284 124.296Z" fill="#403F40"/>
<path d="M256.527 98.5812L254.42 98.5421C254.562 98.4253 254.729 98.3335 254.912 98.2722C255.095 98.2108 255.291 98.1811 255.487 98.1847C255.683 98.1884 255.876 98.2253 256.055 98.2934C256.233 98.3614 256.394 98.4593 256.527 98.5812Z" fill="#3F3F3E"/>
<path d="M487.204 305.007C485.96 304.984 484.831 304.963 483.711 304.942C483.582 304.948 483.453 304.931 483.333 304.891C483.214 304.85 483.106 304.789 483.017 304.71C482.928 304.631 482.859 304.537 482.817 304.434C482.774 304.33 482.758 304.22 482.769 304.11C482.756 303.932 482.823 303.755 482.956 303.616C483.089 303.476 483.278 303.384 483.486 303.359C484.377 303.158 485.289 303.032 486.207 302.984C498.766 302.913 510.501 299.936 521.778 295.392C526.089 293.701 530.11 291.511 533.726 288.884C533.879 288.774 534.025 288.642 534.187 288.538C534.917 288.099 535.814 287.187 536.555 287.824C537.625 288.751 536.49 289.58 535.637 290.209C532.271 292.529 528.641 294.555 524.802 296.256C514.754 301.028 503.894 303.468 492.598 304.668C490.814 304.918 489.009 305.031 487.204 305.007Z" fill="#0F0303"/>
<path d="M433.453 346.682C433.143 346.527 432.78 346.45 432.638 346.256C432.549 346.096 432.527 345.915 432.575 345.742C432.624 345.569 432.74 345.414 432.905 345.305C433.29 345.017 433.715 344.77 434.169 344.57C443.952 340.246 451.99 334.148 458.753 326.807C460.093 325.358 461.474 323.939 462.862 322.527C463.207 322.186 463.715 321.926 464.219 322.219C464.419 322.362 464.554 322.559 464.604 322.777C464.653 322.996 464.613 323.223 464.49 323.421C464.242 323.996 463.903 324.54 463.485 325.039C456.4 332.777 448.656 339.923 438.471 344.806C437.304 345.365 436.098 345.867 434.885 346.347C434.419 346.493 433.94 346.605 433.453 346.682Z" fill="#0C0302"/>
<path d="M471.498 97.4652C472.328 97.4806 473.152 97.6447 473.285 98.3272C473.418 99.0097 472.659 99.3285 471.907 99.435C464.655 100.413 458.693 103.582 453.207 107.588C452.832 107.885 452.437 108.162 452.022 108.416C451.848 108.517 451.636 108.559 451.429 108.533C451.222 108.507 451.036 108.415 450.906 108.275C450.744 108.166 450.632 108.012 450.59 107.839C450.547 107.666 450.578 107.486 450.675 107.329C450.981 106.876 451.363 106.463 451.808 106.103C457.152 101.938 463.656 99.0136 470.687 97.6131C470.954 97.5504 471.225 97.5011 471.498 97.4652Z" fill="#100403"/>
<path d="M431.164 73.8925C430.334 73.8771 429.913 73.593 429.771 73.1582C429.629 72.7235 430.074 72.3563 430.57 72.1955C431.234 71.9741 431.922 71.8026 432.601 71.6169C437.524 70.3372 442.034 68.0859 445.763 65.0467C446.354 64.5618 446.953 64.0841 447.591 63.6639C447.686 63.5899 447.799 63.5339 447.922 63.4998C448.044 63.4656 448.174 63.454 448.301 63.4658C448.429 63.4775 448.552 63.5124 448.662 63.5679C448.772 63.6235 448.867 63.6986 448.94 63.7881C449.035 63.8617 449.11 63.9514 449.162 64.0517C449.214 64.1519 449.241 64.2604 449.241 64.3703C449.24 64.4802 449.214 64.5891 449.162 64.6901C449.11 64.791 449.034 64.8819 448.939 64.9569C448.243 65.5957 447.53 66.2271 446.77 66.808C442.745 69.9662 437.911 72.2768 432.663 73.5519C432.101 73.6973 431.506 73.8421 431.164 73.8925Z" fill="#150504"/>
<path d="M534.863 151.749C534.133 151.735 534.033 151.733 533.934 151.732C533.29 151.635 532.324 151.928 532.298 151.05C532.261 150.468 532.966 150.261 533.578 150.11C536.929 149.301 540.24 148.477 543.574 147.674C543.969 147.588 544.377 147.562 544.781 147.598C544.983 147.585 545.184 147.63 545.352 147.725C545.52 147.821 545.645 147.961 545.708 148.125C545.764 148.293 545.761 148.471 545.7 148.638C545.639 148.805 545.524 148.955 545.367 149.068C545.138 149.242 544.874 149.378 544.588 149.471C541.471 150.585 538.203 151.351 534.863 151.749Z" fill="#0E0403"/>
<path d="M177.923 291.841C163.593 291.345 149.686 287.726 137.526 281.33C135.441 280.228 133.402 279.066 131.409 277.844C130.437 277.209 129.537 276.498 128.722 275.719C128.6 275.631 128.504 275.522 128.439 275.398C128.375 275.274 128.344 275.139 128.349 275.003C128.354 274.867 128.394 274.734 128.468 274.613C128.542 274.491 128.646 274.385 128.774 274.303C128.984 274.17 129.242 274.104 129.501 274.118C129.761 274.132 130.005 274.224 130.191 274.379C131.003 274.876 131.813 275.443 132.624 275.968C143.413 282.963 156.128 287.5 169.584 289.157C172.629 289.515 175.695 289.733 178.77 289.81C179.08 289.801 179.39 289.807 179.699 289.827C180.651 289.929 182.113 289.666 181.976 290.932C181.838 292.197 180.433 291.788 179.452 291.827C178.81 291.886 178.189 291.846 177.923 291.841Z" fill="#0E0302"/>
<path d="M226.23 332.131C226.136 332.66 225.723 332.83 225.151 332.819C223.997 332.798 223.343 332.077 222.634 331.469C219.677 328.825 216.971 325.985 214.541 322.974C210.414 317.988 205.664 313.459 201.042 308.825C200.377 308.161 198.87 307.368 199.924 306.481C201.295 305.316 202.01 306.895 202.733 307.546C208.506 312.725 213.529 318.422 218.51 324.132C220.503 326.552 222.755 328.809 225.239 330.873C225.681 331.249 226.228 331.529 226.23 332.131Z" fill="#0C0302"/>
<path d="M128.722 141.75C128.454 141.802 128.125 141.959 127.886 141.891C124.295 140.861 120.799 139.608 117.428 138.14C117.018 137.977 116.446 137.725 116.707 137.171C116.787 137.002 116.939 136.866 117.132 136.789C117.324 136.713 117.543 136.701 117.744 136.758C121.751 137.76 125.697 138.875 128.74 141.474C128.79 141.482 128.727 141.616 128.722 141.75Z" fill="#020303"/>
<path d="M433.023 280.646C433.073 281.19 432.933 281.735 432.62 282.214C432.306 282.692 431.834 283.082 431.264 283.333L413.477 292.828C413.304 292.921 413.123 293.003 412.936 293.073C411.604 293.622 410.224 294.135 408.975 293.071C408.122 292.346 408.426 290.617 409.54 289.44C410.283 288.707 411.165 288.087 412.149 287.604C417.584 284.751 422.996 281.869 428.424 279.002C428.758 278.797 429.109 278.614 429.474 278.455C431.639 277.631 433.046 278.436 433.023 280.646Z" fill="#010302"/>
<path d="M410.3 120.01C409.729 119.95 409.113 119.988 408.957 119.489C408.765 118.834 409.374 118.555 409.961 118.382C411.028 118.061 412.109 117.791 413.19 117.521C418.767 116.252 423.979 113.997 428.488 110.905C429.286 110.361 430.137 109.877 431.032 109.458C431.219 109.375 431.434 109.351 431.638 109.391C431.842 109.432 432.022 109.533 432.145 109.677C432.289 109.804 432.371 109.972 432.375 110.149C432.379 110.327 432.305 110.499 432.168 110.633C431.851 110.977 431.497 111.295 431.112 111.584C425.497 115.761 418.718 118.631 411.441 119.911C411.064 119.965 410.682 119.998 410.3 120.01Z" fill="#100403"/>
<path d="M387.141 79.3938C386.402 79.3801 385.703 79.4167 385.504 78.74C385.293 77.9286 386.009 77.6443 386.72 77.5017C387.815 77.2954 388.945 77.2951 390.058 77.0537C394.344 76.0568 398.36 74.3393 401.869 72.0026C402.171 71.7589 402.487 71.5283 402.816 71.3118C403.722 70.8328 404.779 69.6481 405.697 70.6569C406.711 71.7596 404.983 72.2234 404.2 72.7543C399.496 76.0317 394.325 78.4646 388.187 79.1653C387.834 79.2269 387.485 79.3031 387.141 79.3938Z" fill="#150403"/>
<path d="M292.38 167.393L281.943 165.074L264.378 161.284C263.488 161.09 262.598 160.89 261.727 160.647C261.495 160.62 261.275 160.546 261.084 160.432C260.894 160.317 260.738 160.166 260.63 159.99C260.522 159.813 260.465 159.617 260.464 159.418C260.463 159.218 260.517 159.02 260.622 158.841C261.773 156.213 262.883 153.57 264.083 150.958C264.606 149.834 265.724 150.145 266.729 150.376L279.764 153.374C280.061 153.443 280.348 153.54 280.644 153.61C283.724 154.326 283.767 154.291 284.774 151.731C288.064 143.292 291.205 134.85 294.83 126.572C296.646 122.356 296.419 122.656 301.165 123.672C303.241 124.122 305.344 124.515 307.429 124.957C309.959 125.486 310.037 125.608 309.192 127.824C308.779 128.914 308.333 129.982 307.862 131.05C302.862 142.398 298.561 153.935 293.767 165.336C293.4 166.293 293.376 167.617 292.38 167.393Z" fill="#60B158"/>
<path d="M324.387 179.336C325.695 181.485 326.936 183.669 328.345 185.784C329.134 186.918 328.716 187.435 327.498 188.035C323.16 190.158 322.903 190.16 319.217 187.414C317.508 186.065 315.626 184.882 313.608 183.889C315.251 185.718 316.929 187.535 318.521 189.399C320.114 191.263 319.976 191.183 317.693 192.274C316.704 192.751 315.723 193.243 314.696 193.635C312.875 194.359 312.182 194.254 311.054 192.859C309.642 191.04 308.4 189.133 307.107 187.26C304.739 183.894 302.616 180.405 299.943 177.21C299.083 176.188 299.176 175.474 300.606 174.984C300.799 174.916 300.977 174.828 301.162 174.753C308.6 171.647 306.023 171.507 312.217 175.603C313.185 176.396 314.278 177.069 315.466 177.604C316.253 176.96 315.507 176.472 315.25 176.007C314.399 174.517 313.481 173.055 312.555 171.6C311.942 170.646 312.168 169.914 313.299 169.425C315.138 168.637 317.009 167.893 318.848 167.098C319.852 166.663 320.572 166.967 321.323 167.562C326.592 171.82 331.87 176.065 337.157 180.295C337.46 180.533 337.742 180.789 338.001 181.062C339.441 182.569 339.373 182.816 337.353 183.784C332.485 186.109 332.485 186.109 328.842 182.648C327.558 181.42 326.257 180.199 324.965 178.971L324.387 179.336Z" fill="#64B25A"/>
<path d="M292.884 235.683C292.751 235.895 292.599 236.098 292.43 236.291C292.295 236.423 292.13 236.531 291.945 236.608C290.114 237.417 288.372 238.504 286.429 238.942C284.269 239.426 283.23 237.395 281.581 236.635C280.601 236.185 279.753 235.524 278.817 234.997C278.313 234.718 277.718 234.396 277.161 234.867C276.604 235.338 277.126 235.83 277.436 236.218C278.472 237.406 279.533 238.573 280.628 239.734C281.54 240.7 281.396 241.456 280.047 242.004C278.008 242.816 276.082 244.615 274.022 244.386C271.963 244.156 271.311 241.778 270.018 240.352C266.19 236.03 262.641 231.58 258.585 227.389C257.088 225.852 257.154 225.634 259.223 224.702C263.233 222.906 267.235 221.103 271.293 219.386C275.055 217.784 276.942 218.195 279.537 221.02C280.91 222.54 282.274 224.06 283.621 225.594C284.299 226.357 285.126 227.138 284.947 228.154C284.681 229.757 285.69 230.548 287.118 231.234C288.546 231.911 289.924 232.661 291.246 233.478C291.68 233.731 292.049 234.057 292.33 234.436C292.612 234.815 292.8 235.239 292.884 235.683Z" fill="#64B15C"/>
<path d="M359.752 164.67C361.585 166.305 363.453 167.912 365.244 169.582C366.464 170.724 366.445 171.021 364.874 171.735C359.53 174.13 360.331 174.485 356.605 170.767C352.526 166.753 348.285 162.821 344.596 158.566C343.353 157.126 343.36 156.942 345.221 156.006C345.484 155.869 345.754 155.739 346.066 155.625C351.254 153.405 350.11 153.575 354.367 155.701C356.494 156.737 358.629 157.766 360.773 158.788C360.848 158.789 360.955 158.791 361.428 158.8C359.376 157.027 357.466 155.447 355.641 153.798C354.13 152.424 354.156 152.176 356.162 151.378C361.858 149.111 360.213 148.697 364.351 152.699C368.264 156.493 372.169 160.296 376.065 164.109C377.668 165.704 377.658 165.959 375.429 166.98C370.284 169.371 370.284 169.364 365.205 166.79C363.575 165.952 361.922 165.119 360.248 164.29L359.752 164.67Z" fill="#60B157"/>
<path d="M292.613 203.185L291.77 203.552C290.765 203.993 289.776 204.478 288.747 204.912C285.588 206.143 285.663 207.023 282.785 204.221C282.479 203.814 281.999 203.525 281.445 203.416C280.892 203.306 280.308 203.385 279.817 203.634C278.366 204.259 278.198 204.518 278.905 205.856C279.121 206.251 279.362 206.637 279.627 207.01C280.419 208.044 280.134 208.804 278.835 209.347C277.266 210.026 275.69 210.663 274.143 211.385C273.926 211.506 273.683 211.588 273.428 211.625C273.172 211.662 272.912 211.654 272.661 211.601C272.411 211.547 272.177 211.45 271.974 211.316C271.771 211.181 271.604 211.012 271.482 210.818C270.918 210.2 270.43 209.533 270.027 208.829C267.656 204.185 265.054 199.651 262.221 195.225C261.828 194.616 261.512 193.965 261.186 193.329C261.06 193.162 260.98 192.972 260.951 192.775C260.923 192.577 260.948 192.376 261.024 192.187C261.099 191.997 261.224 191.825 261.388 191.681C261.552 191.538 261.752 191.428 261.972 191.36C265.203 190.003 268.441 188.646 271.665 187.24C272.829 186.737 273.557 187.275 274.357 187.878C278.716 191.302 283.109 194.706 287.476 198.116C288.913 199.234 290.336 200.358 291.745 201.49C292.022 201.704 292.242 201.965 292.391 202.257C292.541 202.549 292.616 202.865 292.613 203.185Z" fill="#64B15A"/>
<path d="M399.194 163.617C400.719 163.646 402.165 164.181 403.225 165.109C407.331 168.861 411.48 172.58 415.509 176.395C417.306 178.1 416.951 179.878 414.66 180.983C410.906 182.805 407.097 184.541 403.265 186.24C401.213 187.152 400.743 187.072 399.292 185.642C394.398 180.975 389.532 176.288 384.694 171.579C383.507 170.431 383.516 169.956 384.909 169.331C389.012 167.501 393.161 165.758 397.311 164.021C397.917 163.821 398.55 163.685 399.194 163.617Z" fill="#64B259"/>
<path d="M298.167 213.212C298.179 214.027 297.513 214.298 296.863 214.605C295.401 215.286 293.934 215.896 292.489 216.578C291.829 216.892 290.76 217.07 291.429 218.067C291.996 218.906 292.683 219.422 293.893 218.821C295.102 218.22 296.426 217.671 297.75 217.136C300.354 216.079 300.362 216.087 302.046 217.967C302.293 218.24 302.54 218.521 302.779 218.802C304.419 220.738 304.419 220.745 302.019 221.884C300.847 222.438 299.667 222.983 298.479 223.518C297.694 223.879 296.989 224.291 297.723 225.126C298.304 225.796 298.792 226.754 300.134 226.177C301.475 225.599 302.862 224.938 304.229 224.326C305.149 223.925 306.069 223.531 306.996 223.145C307.469 222.948 308.049 222.753 308.425 223.129C309.619 224.32 310.829 225.525 311.845 226.805C312.314 227.38 311.544 227.749 311.029 228.001C309.406 228.772 307.752 229.499 306.114 230.24C303.2 231.561 300.255 232.838 297.381 234.215C297.162 234.366 296.906 234.473 296.633 234.53C296.36 234.588 296.077 234.594 295.802 234.547C295.527 234.501 295.268 234.404 295.044 234.263C294.819 234.121 294.634 233.939 294.501 233.73C289.718 228.286 284.907 222.857 280.067 217.445C279.101 216.379 279.439 215.762 280.714 215.205C285.12 213.268 289.493 211.294 293.907 209.379C295.501 208.7 296.364 208.95 297.155 210.261C297.703 211.181 298.046 212.182 298.167 213.212Z" fill="#65B05B"/>
<path d="M254.805 195.002C255.429 194.985 256.046 195.101 256.6 195.341C257.154 195.58 257.628 195.934 257.977 196.372C260.092 198.72 262.266 201.034 264.228 203.472C266.189 205.91 265.669 206.956 262.766 208.248C261.213 208.927 259.627 209.606 258.09 210.286C255.919 211.287 255.927 211.309 257.321 212.914C258.174 213.893 259.044 214.859 259.948 215.797C260.852 216.734 260.668 217.227 259.513 217.914C253.672 221.184 253.583 221.126 249.452 216.452C245.841 212.333 242.527 208.042 238.678 204.082C236.949 202.307 237.047 202.132 239.47 201.057C243.209 199.398 246.973 197.761 250.728 196.124C251.984 195.512 253.372 195.13 254.805 195.002Z" fill="#63B05B"/>
<path d="M332.262 192.636C332.604 192.621 332.944 192.682 333.249 192.811C333.554 192.941 333.814 193.136 334.004 193.377C334.596 194.089 335.034 194.886 335.296 195.732C335.421 195.948 335.49 196.184 335.5 196.426C335.509 196.667 335.458 196.908 335.35 197.132C335.242 197.357 335.08 197.56 334.873 197.727C334.667 197.895 334.422 198.023 334.154 198.105C332.763 198.674 331.419 199.329 330.075 199.977C329.432 200.291 328.348 200.413 328.843 201.413C329.338 202.414 330.326 202.659 331.582 202.13C333.058 201.506 334.535 200.874 335.956 200.171C337.182 199.571 338.053 199.821 338.876 200.7C342.424 204.492 342.392 203.776 337.855 205.895C337.314 206.147 336.742 206.356 336.168 206.614C335.458 206.962 334.574 207.293 335.221 208.198C335.869 209.102 336.414 209.877 337.875 209.203C339.869 208.284 341.933 207.479 343.902 206.524C344.125 206.375 344.382 206.268 344.657 206.213C344.931 206.157 345.216 206.153 345.492 206.201C345.767 206.25 346.026 206.349 346.25 206.492C346.475 206.636 346.659 206.82 346.79 207.031C349.856 210.63 350.532 210.069 345.682 212.352C342.344 213.919 338.928 215.372 335.614 216.975C334.152 217.656 333.188 217.454 332.206 216.394C327.455 211.267 322.682 206.159 317.886 201.068C317.086 200.239 316.508 199.477 318.086 198.777C322.475 196.847 326.857 194.888 331.246 192.958C331.574 192.827 331.914 192.719 332.262 192.636Z" fill="#63B159"/>
<path d="M366.353 195.295C363.703 191.91 361.037 188.538 358.421 185.132C355.948 181.919 355.143 182.358 359.757 180.396C364.059 178.577 363.976 178.576 366.203 182.152C369.176 186.932 372.258 191.658 375.28 196.417C376.482 198.296 376.477 198.423 374.289 199.452C372.1 200.481 369.682 201.435 367.411 202.462C366.971 202.698 366.454 202.803 365.94 202.762C365.426 202.72 364.945 202.534 364.571 202.233C358.436 197.868 352.257 193.581 346.148 189.204C344.303 187.88 344.464 187.104 346.751 186.119C352.454 183.668 350.765 183.318 355.443 187.095C358.935 189.909 362.368 192.77 365.827 195.604L366.353 195.295Z" fill="#66B15C"/>
<path d="M398.732 188.253C393.666 190.525 388.887 192.682 384.098 194.874C382.857 195.439 382.181 194.838 381.502 194.117C378.568 191.229 375.629 188.341 372.684 185.453C370.689 183.475 368.676 181.518 366.716 179.498C365.357 178.056 365.422 177.88 367.397 176.996C371.314 175.248 375.247 173.522 379.211 171.853C381.109 171.052 382.043 171.395 383.049 173.192C384.304 175.426 384.072 176.101 382.086 176.808C380.883 177.284 379.713 177.818 378.581 178.408C377.939 178.708 377.194 179.09 377.699 179.808C378.118 180.383 378.661 180.988 379.69 180.554C380.973 179.997 382.26 179.449 383.553 178.911C386.084 177.846 386.143 177.826 387.864 179.572C390.354 182.097 391.549 181.893 386.749 183.936C386.201 184.174 385.644 184.404 385.111 184.671C384.443 184.998 383.339 185.205 384.044 186.146C384.638 186.936 385.312 187.813 386.755 187.166C388.764 186.276 390.805 185.435 392.806 184.537C393.013 184.41 393.249 184.319 393.498 184.271C393.746 184.223 394.004 184.219 394.254 184.258C394.504 184.297 394.741 184.379 394.952 184.499C395.163 184.619 395.343 184.774 395.481 184.955C396.474 185.966 397.791 186.734 398.732 188.253Z" fill="#5FB058"/>
<path d="M340.135 158.157C340.475 158.129 340.815 158.184 341.117 158.315C341.42 158.446 341.672 158.648 341.844 158.897C342.431 159.612 342.889 160.399 343.203 161.232C343.335 161.421 343.413 161.635 343.431 161.856C343.448 162.077 343.404 162.298 343.303 162.503C343.202 162.708 343.046 162.89 342.848 163.035C342.65 163.18 342.415 163.284 342.163 163.337C340.756 163.878 339.388 164.49 338.028 165.131C337.462 165.397 336.475 165.584 337.042 166.43C337.497 167.147 338.115 167.746 339.271 167.237C340.731 166.598 342.271 166.053 343.676 165.328C345.081 164.603 346.187 164.779 347.077 165.887C347.371 166.239 347.733 166.551 348.045 166.896C349.719 168.798 349.718 168.826 347.311 169.922C346.314 170.378 345.294 170.798 344.297 171.283C343.696 171.569 342.823 171.836 343.334 172.632C343.844 173.428 344.449 174.14 345.79 173.577C347.131 173.014 348.395 172.527 349.693 171.992C353.521 170.413 353.521 170.405 356.091 173.244C357.472 174.772 357.494 174.85 355.551 175.742C351.742 177.492 347.95 179.22 344.061 180.884C341.724 181.896 341.27 181.802 339.606 180.093C335.195 175.52 330.813 170.926 326.459 166.311C325.155 164.934 325.23 164.482 327.002 163.708C330.944 161.982 334.933 160.313 338.905 158.658C339.337 158.404 339.824 158.265 340.135 158.157Z" fill="#5FB158"/>
<path d="M315.641 225.175C314.98 225.169 314.331 225.031 313.746 224.775C313.16 224.518 312.653 224.149 312.265 223.696C308.199 219.32 304.106 214.966 300.125 210.543C298.736 208.994 298.992 207.454 300.955 206.471C304.863 204.517 308.929 202.786 312.939 200.984C313.354 200.78 313.844 200.721 314.305 200.819C314.767 200.918 315.163 201.166 315.411 201.511C315.799 201.915 316.148 202.345 316.452 202.798C317.85 204.985 317.647 205.548 315.072 206.683C313.789 207.254 312.491 207.783 311.176 208.304C309.862 208.825 309.607 209.429 310.538 210.325C312.857 212.536 315.15 214.76 317.205 217.157C317.914 217.985 318.844 217.747 319.689 217.359C321.52 216.564 323.407 215.827 325.167 214.925C326.623 214.18 327.551 214.473 328.542 215.526C331.979 219.181 331.751 218.589 327.451 220.585C324.638 221.892 321.802 223.143 318.966 224.401C317.973 224.943 316.813 225.213 315.641 225.175Z" fill="#63B15B"/>
<path d="M292.1 187.279C291.183 185.562 290.258 183.845 289.358 182.121C288.458 180.397 288.439 180.226 290.515 179.309C291.883 178.69 293.306 178.163 294.682 177.558C295.855 177.028 296.646 177.425 297.272 178.251C297.851 179.079 298.245 179.991 298.436 180.943C299.069 183.597 299.828 186.232 300.278 188.919C300.633 191.183 301.814 193.288 303.653 194.939C304.552 195.572 305.244 196.392 305.667 197.321C303.758 198.652 301.39 199.366 299.252 200.361C298.989 200.497 298.679 200.55 298.377 200.51C298.075 200.471 297.8 200.342 297.599 200.146C297.519 200.092 297.449 200.029 297.39 199.958C293.357 194.216 286.049 192.203 279.919 188.824C278.762 188.265 277.717 187.552 276.824 186.712C276.089 185.933 276.121 185.282 277.259 184.836C279.036 184.16 280.829 183.485 282.593 182.718C283.63 182.284 284.329 182.7 285.066 183.217C287.196 184.673 289.352 186.13 291.497 187.636L292.1 187.279Z" fill="#65B15C"/>
<path d="M390.979 159.831C389.168 161.214 387.079 161.777 385.235 162.706C384.008 163.321 383.357 162.53 382.683 161.88C379.705 158.991 376.741 156.102 373.791 153.214C373.366 152.837 372.967 152.44 372.597 152.023C371.724 150.937 370.8 150.977 369.482 151.604C367.048 152.756 364.216 151.634 363.279 149.328C362.966 148.571 363.421 148.162 364.113 147.856C368.503 145.919 372.798 143.81 377.359 142.18C379.101 141.553 382.271 144.113 381.856 145.692C381.797 145.904 381.681 146.103 381.518 146.272C381.355 146.441 381.148 146.576 380.915 146.666C380.213 147.007 379.511 147.349 378.574 147.777C382.621 152.018 387.224 155.574 390.979 159.831Z" fill="#69B35C"/>
<path d="M335.337 191.432C337.178 190.142 339.383 189.588 341.327 188.639C341.634 188.47 342.006 188.41 342.362 188.471C342.718 188.532 343.031 188.709 343.234 188.965C344.18 189.882 345.16 190.772 346.081 191.703C349.945 195.642 353.8 199.591 357.647 203.549C358.103 204.018 358.542 204.494 358.964 204.99C359.091 205.101 359.183 205.237 359.232 205.386C359.282 205.535 359.286 205.693 359.246 205.845C359.206 205.997 359.122 206.138 359.002 206.256C358.882 206.374 358.73 206.464 358.56 206.52C356.948 207.298 355.317 208.049 353.669 208.774C352.251 209.392 351.37 208.731 350.557 207.817C347.12 204.14 343.616 200.505 340.231 196.794C338.627 195.028 336.487 193.6 335.337 191.432Z" fill="#62B05A"/>
<path d="M272.827 229.87C271.937 229.903 270.138 228.22 269.921 227.358C269.703 226.497 270.53 226.364 271.098 226.07C272.291 225.454 273.211 225.748 273.881 226.731C273.983 226.881 274.12 227.011 274.214 227.162C274.536 227.664 275.309 228.089 274.945 228.741C274.517 229.526 273.437 229.535 272.827 229.87Z" fill="#F0F9ED"/>
<path d="M271.71 194.168C272.966 195.269 274.231 196.34 275.468 197.468C275.878 197.844 276.377 198.279 275.604 198.753C275.474 198.862 275.316 198.944 275.144 198.994C274.971 199.043 274.788 199.058 274.608 199.038C274.428 199.017 274.257 198.962 274.107 198.876C273.957 198.79 273.832 198.675 273.743 198.542C272.794 197.249 271.929 195.915 271.022 194.595L271.71 194.168Z" fill="#E1F5DD"/>
<path d="M406.476 177.913C403.687 179.689 403.653 179.709 401.783 177.946C399.912 176.183 398.174 174.436 396.37 172.681C395.825 172.147 395.189 171.611 396.176 170.956C396.916 170.474 397.691 169.957 398.575 170.76L406.476 177.913Z" fill="#F5FCF3"/>
<path d="M249.049 203.424C252.099 201.781 252.348 201.785 253.911 203.777C254.339 204.33 255.464 204.896 254.296 205.718C253.129 206.539 251.84 206.593 250.911 205.655C250.28 204.963 249.733 204.245 249.049 203.424Z" fill="#EDF9EA"/>
<path d="M260.286 97.7657C262.27 97.0942 263.343 97.2912 263.988 98.5004C264.14 98.7349 264.182 99.0108 264.104 99.2724C264.027 99.5339 263.836 99.7616 263.571 99.9094C263.032 100.324 262.473 100.392 261.994 99.8801C261.388 99.1746 260.527 98.6557 260.286 97.7657Z" fill="#E1E1E1"/>
<path d="M218.539 115.443C218.434 116.036 217.895 116.253 217.303 116.327C217.157 116.356 217.005 116.356 216.858 116.329C216.712 116.301 216.575 116.246 216.458 116.167C216.34 116.088 216.246 115.988 216.18 115.873C216.115 115.758 216.081 115.632 216.08 115.504C216.095 115.101 216.587 114.805 217.137 114.759C217.431 114.695 217.741 114.731 218.002 114.859C218.264 114.986 218.456 115.196 218.539 115.443Z" fill="#C7C7C7"/>
<path d="M256.235 100.191C256.304 100.787 255.781 101.011 255.322 101.094C255.17 101.12 255.014 101.118 254.864 101.09C254.714 101.061 254.573 101.006 254.45 100.927C254.327 100.849 254.224 100.749 254.15 100.635C254.075 100.521 254.029 100.394 254.016 100.263C253.914 99.8574 254.328 99.681 254.762 99.6112C255.049 99.5233 255.365 99.5347 255.64 99.6431C255.915 99.7515 256.129 99.9481 256.235 100.191Z" fill="#CBCAC9"/>
<path d="M250.347 103.609C250.053 104.142 249.715 104.305 249.3 104.297C248.546 104.283 248.383 103.749 248.359 103.253C248.336 102.758 248.727 102.729 249.153 102.879C249.579 103.028 250.178 103.238 250.347 103.609Z" fill="#A6A6A6"/>
<path d="M239.71 114.236C239.952 114.273 240.187 114.337 240.409 114.426C240.816 114.639 241.385 114.756 241.423 115.294C241.41 115.655 241.077 115.67 240.809 115.75C239.97 115.989 239.731 115.489 239.534 114.976C239.451 114.755 239.203 114.489 239.71 114.236Z" fill="#D1D1D1"/>
</g>
<defs>
<clipPath id="clip0_1_2740">
<rect width="829.833" height="390.88" fill="white" transform="matrix(0.999828 0.0185635 -0.0366102 0.99933 -73.6904 0)"/>
</clipPath>
</defs>
</svg>
