<svg width="857" height="545" viewBox="0 0 857 545" fill="none" xmlns="http://www.w3.org/2000/svg">
<path d="M747 600.595H-213V168.595L747 0.595093V600.595Z" fill="#1F2933" stroke="white"/>
<g clip-path="url(#clip0_447_306)">
<path d="M396.715 498.989C390.321 493.42 384.486 487.243 379.289 480.544C377.275 478.017 377.276 477.986 374.539 479.661C367.089 484.23 359.74 488.894 352.189 493.356C344.637 497.818 336.539 500.539 327.675 500.308C314.074 499.891 302.818 494.46 294.139 483.939C288.334 476.893 282.687 469.717 277.018 462.602C276.384 461.815 275.717 461.06 274.799 459.986C272.344 464.098 269.607 468.037 266.609 471.772C256.667 484.306 244.2 494.61 230.018 502.014C218.78 507.822 209.319 516.557 202.634 527.296C197.691 534.987 193.395 543.017 189.232 551.134C188.895 551.74 188.722 552.424 188.732 553.118C188.741 553.811 188.932 554.49 189.285 555.087C190.707 557.963 191.919 560.948 193.31 563.833C197.522 572.584 197.907 581.361 193.662 590.203L190.545 590.122C189.649 588.975 190.26 587.879 190.754 586.872C194.348 579.469 192.744 572.366 189.674 565.288C181.199 545.767 169.538 528.367 155.65 512.261C139.256 493.314 120.396 477.65 98.1715 466.183C77.7989 455.601 55.6499 448.865 32.8349 446.313C28.7498 445.853 24.7046 445.061 20.5634 445.556C12.033 446.488 6.2656 451.921 -0.0936681 458.12C5.98001 458.486 11.3268 458.813 16.5747 459.345C44.861 462.052 72.1983 470.982 96.628 485.495C116.547 497.39 134.4 512.445 149.487 530.07C163.864 546.762 175.683 565.496 184.557 585.661C185.146 586.997 186.275 588.367 185.1 589.969L181.982 589.888C178.799 585.937 177.262 581.092 174.859 576.714C166.501 561.491 157.293 546.922 145.93 533.658C129.798 514.946 110.609 499.105 89.1795 486.809C81.4789 482.415 73.4184 478.684 65.0854 475.657C63.0261 474.875 60.9656 474.135 58.9047 473.416C58.0388 473.123 57.1948 472.789 56.3068 472.547C55.2134 472.267 54.1534 471.87 53.1453 471.363C35.902 467.065 18.5495 463.764 0.696222 463.319C-27.2468 462.59 -52.6584 470.059 -75.5382 486.111C-77.5401 487.514 -79.6824 488.717 -81.5739 490.269C-81.8379 490.49 -82.0213 490.792 -82.0954 491.129C-81.2477 492.513 -79.5719 492.453 -78.1974 492.78C-61.8063 496.659 -46.5182 503.36 -31.5974 510.986C-26.1891 513.737 -25.8332 516.44 -30.2888 520.618C-39.7489 529.334 -48.7333 538.552 -57.2033 548.232C-60.1096 551.619 -61.8428 551.886 -65.9742 549.615C-77.6104 543.239 -89.4691 537.418 -102.119 533.241C-109.346 530.932 -116.719 529.11 -124.189 527.788C-125.192 527.56 -126.236 527.587 -127.226 527.866C-128.216 528.145 -129.12 528.668 -129.856 529.387C-147.855 545.691 -167.489 560.08 -186.013 575.788C-187.941 577.492 -190.075 578.949 -192.365 580.125L-197 580.004C-194.01 576.609 -190.334 574.001 -186.9 571.117C-170.856 557.611 -154.076 545.009 -138.234 531.259C-124.712 519.529 -111.401 507.574 -97.2447 496.65C-86.2604 488.15 -74.9746 480.052 -62.6488 473.542C-46.8128 465.098 -29.2673 460.358 -11.3337 459.677C-8.03412 459.556 -5.5067 458.738 -3.37761 456.048C-1.34123 453.724 0.866947 451.557 3.22824 449.565C9.81477 443.425 17.6528 440.333 26.556 441.854C32.0214 442.818 34.7992 440.77 37.232 436.403C39.7854 431.801 42.5952 427.33 45.1384 422.717C47.0861 419.292 48.2435 415.476 48.5259 411.547C48.8083 407.617 48.2085 403.675 46.7706 400.007C44.0922 392.658 41.1836 385.366 38.2851 378.084C31.3952 360.767 24.2951 343.538 16.4379 326.633C12.2042 317.518 8.83128 308.092 7.73233 297.997C6.89453 290.249 7.75056 282.545 8.94736 274.933C11.2145 260.569 10.8193 246.219 9.37449 231.842C8.86328 226.723 8.40431 221.595 8.28905 216.444C8.12932 209.722 9.31486 203.035 11.776 196.778C14.5161 189.799 16.0378 182.487 17.3829 175.17C18.1476 170.968 16.9272 166.725 16.6733 162.507C16.1988 155.579 15.4326 148.675 14.927 141.747C13.7123 125.722 24.4233 120.126 35.8541 120.424C43.6894 120.629 50.6084 123.669 56.6566 128.599C60.6023 131.886 64.0692 135.707 66.9568 139.953C68.7108 142.474 68.7425 142.454 71.3981 141.109C84.3113 134.406 98.0094 129.501 111.364 123.818C111.609 123.756 111.862 123.731 112.115 123.744C113.869 123.457 114.175 124.505 114.139 125.877C109.996 129.606 104.552 130.639 99.6709 132.778C91.5497 136.362 83.154 139.304 75.3474 143.583C74.1657 144.238 72.749 144.732 72.5213 146.285C73.3239 147.409 74.0274 146.751 74.5996 146.34C83.7493 140.401 94.1295 137.126 104.067 132.883C125.708 123.641 147.517 114.758 169.249 105.664C184.906 99.1399 200.58 92.6162 216.272 86.093C224.944 82.5237 233.352 78.3027 242.387 75.5955C259.407 70.4969 273.953 74.1519 286.353 87.1409C301.89 103.425 317.886 119.263 333.69 135.294C340.092 141.794 346.431 148.365 352.822 154.896C364.423 166.755 376.005 178.637 387.57 190.544C401.04 204.351 414.628 218.047 428.172 231.783C443.52 247.355 458.74 263.038 474.11 278.59C487.282 291.849 500.459 304.941 513.365 318.453C515.754 320.959 518.207 323.394 520.564 325.92C530.352 336.573 531.556 353.773 516.182 364.343C511.512 367.559 506.733 370.585 501.904 373.548C478.33 388.011 454.73 402.463 431.102 416.904C409.58 430.069 388.054 443.234 366.525 456.399C361.802 459.27 357.168 462.311 352.455 465.193C343.907 470.419 334.821 473.489 324.614 472.536C316.647 471.788 309.644 469.172 304.006 463.274C295.281 454.135 287.756 444.008 279.806 434.255C268.237 420.123 256.696 405.974 245.183 391.809C232.126 375.711 219.04 359.664 205.925 343.669C193.126 328.059 180.582 312.238 167.762 296.638C156.805 283.334 146.061 269.868 135.211 256.472C121.299 239.284 107.451 222.036 93.4642 204.898C89.9071 200.542 86.6584 195.923 82.3763 191.454C81.7683 194.433 82.9984 196.306 84.4285 198.09C93.3709 209.273 102.506 220.243 111.387 231.372C127.873 251.945 144.635 272.337 161.047 292.928C176.616 312.415 192.439 331.702 208.251 350.998C219.831 365.11 231.07 379.514 242.597 393.676C254.124 407.838 265.458 421.828 276.936 435.864C283.043 443.303 289.393 450.623 295.065 458.434C310.54 479.885 332.878 480.218 351.764 468.991C376.965 454.05 401.85 438.446 426.853 423.116C457.147 404.557 487.386 385.935 517.572 367.249C524.558 362.939 530.008 357.32 531.47 348.707C532.438 343.085 531.063 338.017 528.593 333.034C527.812 331.464 526.403 330.096 526.861 328.08C527.122 327.652 527.52 327.323 527.99 327.147C528.46 326.97 528.976 326.957 529.455 327.108C533.547 329.7 535.168 334.11 536.443 338.261C541.344 354.476 539.687 369.77 528.726 383.367C525.598 387.257 521.434 389.842 517.22 392.311C512.014 395.378 507.027 398.804 501.771 401.776C498.405 403.692 495.709 406.595 494.046 410.092C490.01 418.097 486.678 426.246 487.861 435.532C488.078 437.18 487.774 438.847 485.693 438.917C483.924 438.965 483.371 437.422 483.337 435.944C483.128 431.706 483.305 427.457 483.866 423.251C484.063 422.039 484.761 420.83 483.968 419.323C481.787 420.017 479.693 420.961 477.728 422.134C461.11 431.746 445.135 442.227 431.346 455.77C421.006 465.899 412.153 477.19 405.678 490.228C405.244 491.3 404.668 492.309 403.967 493.23C401.475 495.078 400.535 498.849 396.715 498.989Z" fill="#020303"/>
<path d="M506.18 598.343L477.624 597.599C477.02 596.002 478.141 594.919 478.837 593.741C487.438 579.314 497.845 566.244 509.138 553.873C524.328 537.206 541.994 522.978 561.514 511.689C582.24 499.678 604.56 492.337 628.183 488.471C640.383 486.648 652.706 485.777 665.041 485.865C686.549 485.73 706.495 491.262 724.186 503.931C727.738 506.478 731.334 508.943 734.886 511.489C735.907 512.223 737.313 512.957 736.889 514.453C736.544 515.703 735.066 515.758 733.968 515.989C726.033 517.633 718.125 519.402 710.237 521.245C699.775 523.666 689.627 526.812 679.475 530.103C675.018 531.547 674.851 532.374 677.714 536.224C681.491 541.314 686.1 545.635 690.442 550.188C697.526 557.652 704.611 565.116 710.992 573.206C712.815 575.49 714.687 575.476 717.086 574.405C729.563 568.886 742.492 564.454 755.73 561.156C766.862 558.556 778.033 556.05 789.447 554.985C790.332 554.835 791.238 554.862 792.112 555.063C792.987 555.264 793.813 555.637 794.543 556.158C810.219 567.849 825.083 580.591 839.032 594.296C840.302 595.573 841.356 597.047 842.153 598.662L841.931 607.152L719.996 603.972C715.692 600.74 712.983 596.156 709.614 592.158C699.679 580.378 689.711 568.627 679.265 557.29C674.037 551.632 669.172 545.589 663.782 540.124C661.828 538.067 659.35 536.582 656.615 535.83C638.279 530.786 619.781 526.321 601.422 521.35C598.841 520.659 596.896 521.846 594.912 522.969C583.599 529.347 572.763 536.536 562.489 544.481C543.211 559.278 525.693 576.239 510.28 595.029C509.168 596.416 507.769 597.547 506.18 598.343Z" fill="black"/>
<path d="M160.378 589.325L-59.6021 583.588C-58.7767 579.45 -55.2717 577.035 -52.7836 574.136C-40.6931 560.302 -28.2097 546.819 -15.3333 533.685C-4.00786 522.074 7.96502 511.155 19.695 499.981C23.2137 496.641 27.1382 493.686 30.8708 490.518C32.0879 489.387 33.5798 488.593 35.1985 488.215C36.8171 487.838 38.5064 487.89 40.0985 488.367C61.7718 493.697 82.1396 503.366 99.9712 516.789C109.006 523.393 117.449 530.77 125.206 538.837C138.889 553.232 150.948 568.926 159.903 586.796C160.309 587.576 160.871 588.36 160.378 589.325Z" fill="black"/>
<path d="M842.174 598.61C840.79 597.668 839.567 596.509 838.552 595.178C833.066 589.399 826.949 584.341 821.057 578.999C812.412 571.151 803.186 564.058 793.982 556.913C793.53 556.473 792.986 556.137 792.39 555.929C791.793 555.721 791.159 555.647 790.53 555.71C779.753 557.054 769.063 559.025 758.515 561.614C746.039 564.699 733.757 568.32 722.025 573.608C719.92 574.593 717.698 575.263 715.613 576.238C713.529 577.214 712.143 576.512 710.916 574.91C702.298 563.673 692.274 553.699 682.505 543.482C679.833 540.688 677.596 537.562 675.019 534.698C673.523 533.026 673.711 531.814 675.614 530.616C676.612 530.07 677.67 529.64 678.767 529.336C696.256 523.483 714.124 518.828 732.247 515.403C733.616 515.137 734.966 514.798 736.598 514.425C735.344 512.676 733.544 511.912 732.044 510.812C724.979 505.468 717.478 500.726 709.62 496.636C701.711 492.675 693.243 489.944 684.51 488.536C680.316 487.996 676.098 487.668 671.871 487.551C670.199 487.621 668.528 487.409 666.927 486.923C666.213 486.617 665.42 486.549 664.665 486.729C661.614 487.689 658.53 487.11 655.462 487.134C647.535 487.214 639.622 487.827 631.778 488.97C622.279 490.295 612.887 492.292 603.67 494.944C597.132 496.853 590.701 499.005 584.396 501.523C573.299 505.948 562.697 511.527 552.766 518.168C544.749 523.459 537.063 529.235 529.75 535.464C525.08 539.501 520.481 543.603 516.084 547.908C508.924 555.063 502.234 562.672 496.055 570.689C489.231 579.174 483.069 588.17 477.623 597.598L474.506 597.517C473.404 594.722 475.449 592.862 476.757 590.952C484.188 579.513 492.326 568.549 501.124 558.125C514.692 542.274 530.35 528.34 547.668 516.704C573.265 499.4 602.623 488.455 633.301 484.777C640.792 483.85 648.337 483.631 656.47 482.782C650.704 476.195 646.14 469.358 639.993 463.843C634.913 459.26 628.698 458.349 622.311 458.806C583.205 461.499 548.771 476.001 518.001 499.937C498.333 515.193 481.614 533.91 468.664 555.167C465.443 560.296 462.832 565.784 460.886 571.519C459.112 576.961 459.502 582.877 461.973 588.039C463.299 591.006 465.758 593.639 465.278 597.266L462.161 597.185C460.652 594.026 459.057 590.989 457.653 587.823C456.364 585.079 455.648 582.102 455.548 579.073C455.448 576.043 455.967 573.025 457.072 570.203C458.19 567.206 459.474 564.255 460.89 561.37C461.202 560.831 461.356 560.216 461.336 559.594C461.315 558.972 461.12 558.369 460.774 557.852C455.801 549.175 450.692 540.525 444.588 532.546C442.12 529.404 439.099 526.739 435.674 524.681C432.601 522.81 429.419 521.127 426.145 519.638C415.169 514.588 405.198 507.592 396.714 498.989C399.505 497.658 400.767 494.706 403.112 492.916C403.34 493.151 403.492 493.449 403.548 493.771C403.605 494.093 403.563 494.425 403.429 494.724C401.605 498.076 403.292 499.982 405.847 502.066C412.669 507.63 419.762 512.775 427.944 516.056C439.583 520.727 447.927 528.921 454.308 539.434C456.641 543.28 459.069 547.076 461.349 550.962C463.002 553.782 463.625 553.809 465.224 551.115C476.624 531.832 491.627 515.575 508.516 501.156C525.38 486.734 544.475 475.147 565.054 466.848C579.144 461.152 593.895 457.254 608.959 455.245C613.216 454.669 613.26 454.587 611.315 450.616C608.42 445.001 606.362 438.991 605.208 432.779C604.16 426.346 605.09 420.194 606.902 414.106C614.5 388.713 622.408 363.411 632.521 338.864C633.942 335.417 634.786 331.769 635.991 328.233C639.183 318.525 639.84 308.161 637.899 298.127C634.874 281.327 634.516 264.347 635.677 247.365C636.111 241.085 637.209 234.874 636.168 228.546C635.649 225.111 634.786 221.737 633.591 218.475C631.222 212.484 629.522 206.25 628.523 199.885C628.224 197.798 627.516 195.835 625.538 194.733C613.642 187.965 611.859 176.989 613.03 164.791C613.307 162.234 613.721 159.694 614.268 157.18C615.366 151.76 618.728 148.052 623.385 145.324C624.219 144.837 625.488 144.412 625.261 143.158C625.034 141.905 623.864 141.708 622.926 141.371C620.194 140.381 617.286 139.97 614.387 140.163C611.487 140.355 608.659 141.149 606.082 142.492C601.651 144.568 597.683 147.517 594.418 151.162C582.281 165.185 574.586 181.113 573.162 199.835C572.565 207.961 572.513 215.957 575.658 223.754C577.123 227.401 576.592 231.411 575.484 235.188C572.062 246.818 569.6 258.661 567.284 270.528C566.077 276.923 563.045 281.554 557.041 284.496C548.203 288.778 540.371 294.882 534.061 302.407C533.105 303.546 531.785 305.134 530.206 303.866C528.627 302.598 529.396 300.642 530.459 299.339C533.988 295.069 538.008 291.23 542.435 287.9C546.913 284.648 551.625 281.733 556.535 279.18C558.476 278.107 561.61 276.764 560.623 274.337C559.636 271.909 556.716 273.84 554.71 274.182C551.293 274.832 548.123 276.361 544.819 277.429C543.361 277.911 541.484 278.527 540.731 276.719C539.977 274.911 541.657 273.873 543.047 273.213C548.069 270.838 553.2 268.694 558.903 268.895C561.772 268.97 563.086 268.026 563.392 265.04C563.913 260.826 564.741 256.656 565.87 252.563C566.611 249.553 566.267 246.377 564.898 243.595C561.139 235.407 557.001 227.396 553.116 219.288C542.523 197.237 534.17 174.204 523.335 152.272C518.897 143.27 513.694 134.666 507.784 126.556C498.828 114.291 491.07 101.163 481.53 89.3403C472.466 78.0501 463.405 66.6248 452.628 56.7978C450.577 55.0318 448.31 53.5331 445.882 52.3376C438.958 48.6631 432.516 49.6701 426.367 54.1787C419.826 58.9683 417.034 65.1659 418.589 73.307C420.598 83.6021 424.455 93.2175 430.856 101.36C440.598 113.802 448.218 127.425 455.414 141.36C459.967 150.203 465.123 158.656 470.258 167.109C472.568 170.978 474.318 175.155 475.456 179.515C479.104 193.063 483.495 206.401 488.608 219.467C490.557 224.499 490.62 224.448 495.506 222.517C507.473 217.785 519.807 214.967 532.788 215.648C533.432 215.665 534.076 215.682 534.71 215.699C536.482 215.922 538.864 215.9 538.635 218.317C538.412 220.464 536.055 219.945 534.433 219.955C519.154 220.076 504.486 223.073 490.81 229.944C480.115 235.322 468.819 239.405 458.559 245.657C454.227 248.29 454.221 248.123 457.659 251.873C467.353 262.524 478.124 272.164 487.829 282.816C488.527 283.583 489.374 284.187 490.115 284.893C492.144 286.849 493.68 286.546 495.574 284.484C502.531 276.898 509.63 269.45 517.872 263.229C519.9 261.643 522.082 260.264 524.385 259.114C525.333 258.65 526.39 258.407 527.207 259.375C528.165 260.513 527.598 261.538 526.835 262.485C526.07 263.36 525.165 264.102 524.157 264.682C513.951 271.237 506.265 280.458 498.124 289.209C496.711 290.732 497.128 291.918 498.373 293.198C501.969 296.88 505.287 300.824 509.128 304.273C515.844 310.302 521.707 317.152 527.933 323.658C528.945 324.724 530.056 325.98 529.479 327.753C528.606 327.731 527.664 327.592 527.067 328.522C526.02 328.817 525.437 328.043 524.829 327.424C508.523 309.935 491.321 293.274 474.725 276.1C462.414 263.3 449.846 250.816 437.352 238.231C423.491 224.278 409.8 210.153 395.949 196.201C380.103 180.19 364.458 164.069 348.685 148.029C335.516 134.635 322.442 121.191 309.091 108.011C301.508 100.534 294.203 92.7425 286.525 85.3256C272.669 71.9347 256.784 69.399 239.174 75.1894C229.734 78.2708 220.824 82.6034 211.669 86.3681C190.982 94.8754 170.296 103.383 149.646 112.089C139.131 116.546 128.427 120.655 117.911 125.174C116.596 125.733 115.325 127.02 113.68 125.927C113.669 125.434 113.504 124.956 113.209 124.56C112.913 124.165 112.502 123.872 112.032 123.721C114.085 122.361 116.461 121.757 118.691 120.775C119.896 120.321 120.882 119.424 121.45 118.268C125.371 110.239 130.857 103.238 136.067 96.0637C150.279 76.4809 165.671 57.7827 182.158 40.0731C185.426 36.4331 188.992 33.0721 192.819 30.0252C203.165 22.0905 215.908 21.9133 226.471 29.5407C230.612 32.5231 233.655 36.7871 235.129 41.6729C236.674 41.0269 237.265 39.5137 238.076 38.339C241.484 33.6549 244.739 28.8628 248.982 24.8556C252.586 21.2652 257.293 18.9924 262.346 18.4034C278.355 16.6164 293.194 31.7695 290.845 47.6599C290.491 50.0527 289.951 52.4199 289.469 54.955C291.967 55.2905 294.419 54.9489 296.806 55.5311C307.636 58.1429 314.598 67.1009 314.913 78.9325C315.039 84.603 314.231 90.2556 312.522 95.664C312.066 97.1911 311.896 98.1433 313.864 98.8186C322.356 101.775 326.643 108.043 327.089 116.841C327.093 118.243 327.4 119.628 327.99 120.9C328.58 122.172 329.438 123.301 330.506 124.209C332.503 126.191 334.614 128.055 336.828 129.792C335.766 126.645 334.684 123.497 333.641 120.402C331.145 113.199 330.159 105.56 330.743 97.9589C331.235 91.9447 333.785 86.2839 337.963 81.9303C342.142 77.5767 347.693 74.7964 353.682 74.0579C356.029 73.883 358.389 74.1027 360.663 74.7079C361.178 73.3071 360.649 72.0871 360.483 70.8765C359.187 61.5463 362.049 53.8947 369.583 48.1016C373.683 44.9473 378.523 42.8968 383.641 42.1458C387.14 41.4923 390.748 41.7294 394.132 42.8353C397.515 43.9411 400.567 45.8802 403.005 48.4741C405.256 50.7513 407.28 53.2419 409.05 55.9108C410.681 58.3762 412.28 60.8616 413.879 63.3158C414.846 63.341 414.822 62.6437 415.034 62.0981C416.225 58.7885 418.131 55.7824 420.617 53.2942C423.103 50.8059 426.107 48.8968 429.416 47.7029C432.724 46.5091 436.256 46.0599 439.757 46.3874C443.26 46.7149 446.646 47.8111 449.676 49.5977C453.488 51.7882 456.926 54.574 459.859 57.8495C472.891 72.1028 485.668 86.599 496.321 102.745C500.492 109.093 504.663 115.441 509.247 121.488C519.785 135.281 527.473 150.695 534.402 166.505C539.554 178.275 544.717 190.056 549.606 201.934C555.103 215.263 562.105 227.872 568.223 240.895C568.306 241.162 568.459 241.403 568.666 241.591C568.874 241.779 569.127 241.909 569.401 241.966C570.333 238.548 571.193 235.087 572.249 231.641C572.936 229.539 572.863 227.263 572.043 225.21C567.063 212.788 568.36 200.157 570.944 187.6C574.073 172.489 581.359 159.473 591.73 148.159C597.414 141.943 604.207 137.462 612.838 136.231C617.703 135.453 622.689 136.315 627.01 138.681C629.165 139.79 631 141.432 632.339 143.451C633.679 145.47 634.48 147.799 634.665 150.215C635.344 155.661 634.383 161.001 633.869 166.364C633.149 174.435 632.304 182.504 631.491 190.562C631.211 193.31 631.892 195.928 632.322 198.58C633.316 204.802 634.948 210.904 637.192 216.791C640.518 225.196 641.071 233.904 640.129 242.937C638.224 259.581 638.565 276.406 641.143 292.96C641.897 297.524 642.349 302.142 642.759 306.749C643.698 316.996 641.106 326.682 637.748 336.192C634.975 344.065 631.984 351.869 628.922 359.64C623.423 373.514 619.151 387.794 614.9 402.086C613.764 405.779 612.628 409.461 611.409 413.111C607.71 423.798 607.738 434.291 612.845 444.573C614.278 447.449 615.732 450.305 617.133 453.201C617.824 454.634 618.759 455.448 620.466 455.014C621.099 454.9 621.741 454.833 622.384 454.815C626.745 454.276 631.171 454.823 635.27 456.406C639.368 457.99 643.012 460.561 645.877 463.892C650.445 468.968 654.772 474.235 658.859 479.694C661.311 482.971 663.935 484.422 668.097 484.323C677.375 484.109 686.634 485.265 695.574 487.753C707.138 490.935 717.471 496.643 727.181 503.489C736.127 509.775 744.878 516.336 753.618 522.897C771.419 536.255 789.177 549.668 806.891 563.135C817.852 571.491 827.976 580.843 838.014 590.256C839.517 591.657 840.849 593.22 842.266 594.703L842.174 598.61Z" fill="#070302"/>
<path d="M-192.365 580.125C-189.755 576.522 -185.811 574.421 -182.594 571.499C-178.228 567.558 -173.448 564.095 -168.787 560.421C-162.767 555.649 -156.716 550.919 -150.736 546.105C-147.836 543.768 -144.986 541.347 -142.228 538.85C-138.35 535.28 -134.048 532.211 -130.321 528.481C-128.474 526.626 -126.522 526.345 -123.726 526.781C-114.385 528.338 -105.214 530.785 -96.3391 534.088C-90.5279 536.128 -84.856 538.544 -79.3595 541.322C-74.3321 543.928 -69.381 546.667 -64.3646 549.293C-61.4513 550.825 -60.673 550.887 -58.674 548.402C-54.517 543.311 -49.8137 538.806 -45.4646 533.928C-42.9147 531.052 -39.9783 528.508 -37.1839 525.825C-34.3895 523.142 -31.7383 520.768 -29.0798 518.113C-27.1906 516.249 -27.2755 515.519 -29.0775 513.641C-29.9175 512.845 -30.8894 512.2 -31.9499 511.736C-42.5456 506.531 -53.1962 501.439 -64.4224 497.683C-70.3706 495.698 -76.4563 494.198 -82.5079 492.584C-83.2616 492.377 -84.0511 492.346 -84.5031 491.336C-81.9143 488.565 -78.4779 486.783 -75.3357 484.723C-63.6033 477.042 -51.3543 470.291 -37.64 466.759C-31.3955 464.974 -24.9965 463.783 -18.528 463.202C-10.9869 462.723 -3.47368 462.118 4.09059 462.347C10.6373 462.517 17.0658 463.631 23.5481 464.279C33.6607 465.281 43.281 468.412 53.2204 470.075C53.4386 470.081 53.6178 470.387 53.8215 470.548C42.6064 476.734 33.3513 485.519 23.564 493.572C13.0438 502.22 3.2099 511.665 -6.44105 521.272C-20.1844 534.952 -33.5319 549.006 -46.4837 563.434C-51.7104 569.266 -56.8049 575.217 -61.9709 581.113C-62.8652 582.041 -63.8955 582.828 -65.0265 583.446L-192.365 580.125Z" fill="black"/>
<path d="M714.594 603.779L512.362 598.504C511.292 596.47 513.047 595.403 513.992 594.221C518.437 588.557 523.217 583.164 528.306 578.071C545.394 560.839 563.487 544.902 584.091 531.973C588.003 529.517 592.064 527.283 596.057 524.922C597.09 524.272 598.25 523.85 599.459 523.685C600.669 523.519 601.9 523.613 603.07 523.961C619.322 528.368 635.724 532.238 651.986 536.676C653.308 537.033 655.095 537.079 655.448 538.7C655.801 540.321 654.138 541.099 653.076 541.924C639.152 552.729 626.377 564.864 613.018 576.318C610.731 578.276 608.177 580.102 606.77 583.434C609.446 583.691 610.512 581.879 611.791 580.685C626.239 567.367 640.859 554.23 656.387 542.156C659.816 539.49 660.895 539.56 663.645 543.001C669.575 550.434 676.325 557.172 682.649 564.294C692.844 575.707 702.667 587.422 712.394 599.219C713.454 600.421 715.044 601.669 714.594 603.779Z" fill="black"/>
<path d="M465.278 597.277L461.022 588.223C459.588 585.324 458.796 582.15 458.701 578.917C458.606 575.684 459.209 572.469 460.471 569.491C463.734 561.515 467.866 553.923 472.791 546.852C495.505 513.243 525.62 488.489 562.588 472.108C580.359 464.203 599.379 459.476 618.783 458.142C621.742 457.939 624.679 457.755 627.63 457.832C632.713 457.864 637.577 459.901 641.167 463.499C647.082 469.609 652.596 476.095 657.673 482.918C657.803 483.087 657.754 483.388 657.852 484.035C654.829 484.31 651.782 484.324 648.794 484.454C608.544 486.152 569.81 500.28 537.919 524.893C515.914 541.685 497.636 561.892 482.14 584.718C480.118 587.691 478.116 590.686 476.206 593.735C475.479 594.901 474.473 596.009 474.536 597.549L465.278 597.277Z" fill="#60AB58"/>
<path d="M185.079 589.969C183.547 584.49 180.848 579.522 178.202 574.555C166.405 552.411 152.043 532.122 133.64 514.869C115.237 497.616 94.8058 483.586 71.4824 473.983C56.2797 467.662 40.3069 463.381 23.9805 461.254C16.0957 460.126 8.1503 459.475 0.18725 459.302C-0.405072 459.287 -0.994688 459.167 -2.02102 459.047C6.4403 449.202 15.7322 442.997 29.2172 444.669C48.8906 446.939 68.1525 451.935 86.4491 459.514C106.938 468.149 125.011 480.506 141.181 495.673C162.665 515.419 179.697 539.514 191.143 566.356C194.781 574.405 194.419 582.289 190.524 590.111L185.079 589.969Z" fill="#5FAB58"/>
<path d="M65.1359 474.909C69.9663 475.898 74.1407 478.513 78.5822 480.459C88.7598 485.019 98.4132 490.668 107.374 497.307C116.039 503.437 124.239 510.199 131.907 517.538C134.735 520.316 137.726 522.889 140.393 525.881C148.828 534.983 156.476 544.783 163.255 555.178C169.72 565.177 175.541 575.578 180.682 586.319C181.378 587.401 181.825 588.623 181.992 589.899L165.012 589.456C163.251 588.422 162.423 586.674 161.521 584.966C150.371 564.075 135.782 545.211 118.366 529.164C107.297 518.988 95.1523 510.048 82.146 502.504C80.4718 501.55 79.0743 500.177 78.0904 498.519C74.198 491.867 70.274 485.234 66.1281 478.731C65.4292 477.621 64.2626 476.498 65.1359 474.909Z" fill="black"/>
<path d="M65.136 474.909C68.1693 481.009 72.4908 486.363 75.4934 492.441C78.289 498.088 82.6029 501.736 87.9055 504.952C111.583 519.327 131.161 538.15 147.412 560.577C153.945 569.788 159.826 579.445 165.012 589.477L160.377 589.356C155.186 579.862 149.804 570.518 143.312 561.874C124.218 536.419 101.211 515.49 72.5525 501.141C61.6936 495.659 50.2361 492.001 38.5531 489.013C37.5752 488.716 36.5371 488.675 35.5389 488.895C34.5406 489.115 33.6157 489.588 32.8531 490.269C16.6328 503.364 1.67513 517.885 -12.9691 532.748C-21.1075 540.979 -29.0532 549.393 -36.8872 557.913C-44.7212 566.433 -52.3223 574.793 -59.602 583.587L-65.0264 583.446C-58.8562 575.725 -52.2484 568.368 -45.611 561.075C-30.8577 544.822 -15.7278 528.88 0.152061 513.686C15.112 499.212 30.954 485.678 47.587 473.162C49.411 471.806 51.2103 470.2 53.7992 470.61L56.6954 471.601C57.1192 473.692 55.4225 474.157 54.2061 474.947C49.7955 477.652 45.6689 480.795 41.8885 484.327C51.6275 487.295 61.0539 490.287 70.368 493.992C67.2549 488.161 63.6735 482.743 60.3247 477.176C59.5278 475.834 57.6289 474.485 59.3441 472.512C61.2777 473.332 63.4009 473.658 65.136 474.909Z" fill="#60A95A"/>
<path d="M714.594 603.779C710.741 597.99 706.06 592.856 701.634 587.541C689.051 572.405 675.66 557.976 662.587 543.264C662.23 542.908 661.892 542.531 661.577 542.136C660.493 540.641 659.532 540.793 658.11 541.91C649.566 548.53 641.325 555.511 633.205 562.64C625.67 569.265 618.347 576.125 610.924 582.857C610.152 583.723 609.223 584.437 608.186 584.958C607.838 585.108 607.453 585.147 607.082 585.068C606.712 584.99 606.375 584.798 606.118 584.52C605.837 584.257 605.66 583.902 605.616 583.52C605.573 583.138 605.667 582.753 605.881 582.434C606.43 581.568 607.087 580.774 607.835 580.072C621.685 567.352 635.531 554.798 650.281 543.058C651.884 541.789 653.468 540.468 654.977 539.208C654.692 537.797 653.55 538.131 652.786 537.924C635.776 533.445 618.764 529.029 601.765 524.551C601.021 524.359 600.246 524.323 599.488 524.444C598.729 524.566 598.004 524.843 597.358 525.258C586.697 531.23 576.448 537.911 566.681 545.255C554.504 554.546 542.986 564.669 532.209 575.552C525.754 582.001 519.642 588.783 513.897 595.872C513.263 596.656 512.352 597.298 512.415 598.475L506.18 598.312C517.239 584.622 529.338 571.807 542.369 559.98C558.069 545.717 575.247 533.173 593.612 522.561C594.953 521.805 596.343 521.124 597.693 520.4C598.201 520.139 598.756 519.984 599.325 519.943C599.895 519.903 600.466 519.978 601.006 520.164C615.754 524.043 630.536 527.818 645.295 531.666C649.893 532.826 654.432 534.223 659.016 535.455C660.603 535.91 662.024 536.813 663.108 538.058C679.288 555.617 695.36 573.318 710.475 591.838C713.72 595.801 717.22 599.553 719.945 603.929L714.594 603.779Z" fill="#5FA959"/>
<path d="M327.729 464.319C323.103 464.189 318.563 463.04 314.431 460.956C310.3 458.871 306.678 455.901 303.825 452.257C291.569 437.379 279.327 422.464 267.1 407.511C239.737 374.041 212.391 340.565 185.063 307.083C151.285 265.751 117.503 224.419 83.7175 183.087C82.3018 181.459 81.4794 179.4 81.3846 177.245C80.9247 170.562 79.3378 164.006 76.691 157.853C76.215 156.951 76.0646 155.912 76.2649 154.911C76.4652 153.911 77.0041 153.01 77.7909 152.36C80.4392 149.715 83.5821 147.617 87.0404 146.186C94.6112 142.972 102.231 139.885 109.792 136.651C111.695 135.837 113.075 135.956 114.573 137.545C120.572 143.941 127.896 145.026 135.764 141.966C143.633 138.906 151.418 135.438 159.229 132.179L212.855 109.453C215.024 108.636 217.101 107.592 219.051 106.339C223.616 103.141 224.436 99.2002 221.692 94.3661C219.793 91.0514 219.843 90.7095 223.26 89.2908C229.788 86.5806 236.297 83.818 242.913 81.3492C249.613 78.9174 256.877 78.4925 263.815 80.1266C269.751 81.4636 275.144 84.566 279.284 89.0258C289.431 99.4915 299.734 109.93 309.963 120.429C346.809 158.181 383.648 195.935 420.479 233.693C450.601 264.531 480.737 295.345 510.887 326.135C513.929 329.095 516.197 332.757 517.493 336.8C519.799 344.482 517.903 350.994 512.052 356.415C510.193 358.001 508.186 359.405 506.057 360.605L348.249 458.21C342.003 462.05 335.357 464.518 327.729 464.319Z" fill="#FDFEFD"/>
<path d="M529.521 327.754C528.605 325.391 526.777 323.721 525.086 321.982C516.113 312.736 507.116 303.537 498.093 294.387C497.079 293.383 496.064 292.431 494.797 291.181C496.767 288.987 498.657 287.123 500.444 285.183C508.006 277.113 515.347 268.778 524.941 262.945C525.058 262.893 525.165 262.822 525.258 262.735C526.061 261.861 528.01 261.268 526.967 259.826C525.923 258.385 524.628 259.765 523.602 260.456C514.776 265.945 507.515 273.222 500.445 280.732C498.51 282.762 496.604 284.885 494.719 286.989C493.573 288.259 492.493 288.626 491.167 287.208C490.297 286.27 489.247 285.494 488.345 284.576C477.242 273.292 466.154 262.001 455.079 250.703C454.299 249.914 453.256 249.252 453.075 247.823C456.315 245.547 459.741 243.55 463.317 241.851C475.181 235.921 487.023 229.99 499.348 225.113C510.512 220.733 522.44 218.636 534.428 218.946C535.322 218.969 536.226 218.993 537.122 218.923C537.253 218.938 537.386 218.925 537.512 218.886C537.638 218.847 537.755 218.783 537.855 218.696C537.955 218.61 538.036 218.504 538.093 218.385C538.15 218.266 538.181 218.136 538.186 218.004C538.217 217.743 538.149 217.48 537.994 217.268C537.839 217.055 537.61 216.91 537.352 216.859C536.344 216.659 535.322 216.532 534.295 216.478C520.693 215.676 507.726 218.478 495.178 223.548C489.208 225.961 490.292 226.28 488.059 220.596C482.563 206.73 477.919 192.541 474.151 178.108C472.697 172.476 469.616 167.789 466.727 162.941C458.837 149.674 451.127 136.319 444.587 122.308C443.452 120.006 442.053 117.845 440.419 115.866C432.952 106.313 425.506 96.7596 421.104 85.331C418.836 79.4174 417.089 73.4238 417.268 66.9709C417.284 64.1196 418.189 61.3444 419.856 59.0314C424.092 53.3082 429.618 49.5736 436.863 48.8683C440.335 48.5325 443.44 49.8613 446.459 51.3231C452.339 54.3361 456.889 58.9158 461.182 63.7591C464.323 67.3246 467.227 71.1959 470.456 74.5973C482.479 87.2645 491.872 101.891 501.732 116.176C505.309 121.364 508.96 126.493 512.59 131.641C517.153 138.193 521.147 145.122 524.529 152.355C531.233 166.394 537.507 180.631 543.349 195.064C549.837 211.05 557.746 226.376 565.275 241.879C567.332 245.718 567.793 250.213 566.561 254.391C565.356 258.441 564.551 262.599 564.157 266.806C563.942 269.494 563.506 269.836 560.692 269.711C554.574 269.416 549.091 271.561 543.603 273.82C542.426 274.299 540.734 274.993 541.271 276.338C541.808 277.683 543.461 276.894 544.617 276.425C548.693 274.847 552.711 273.101 557.084 272.476C557.834 272.302 558.599 272.204 559.369 272.182C560.408 272.21 561.858 271.624 562.467 273.012C562.957 274.169 562.231 275.294 561.572 276.233C559.973 278.531 557.559 279.789 555.145 281.026C546.75 285.281 539.17 290.983 532.754 297.87C531.512 299.005 530.627 300.478 530.21 302.109C530.128 302.354 530.117 302.617 530.181 302.868C530.244 303.119 530.379 303.346 530.569 303.522C530.796 303.646 531.059 303.688 531.314 303.642C531.568 303.595 531.8 303.463 531.969 303.267C532.349 302.915 532.706 302.539 533.038 302.141C539.32 294.342 547.274 288.053 556.312 283.739C558.897 282.598 561.152 280.822 562.867 278.576C564.582 276.33 565.701 273.687 566.12 270.892C568.525 258.414 571.179 245.984 574.773 233.766C575.875 230.161 575.719 226.289 574.332 222.784C570.557 213.202 571.261 203.362 572.817 193.534C573.86 186.27 575.986 179.203 579.125 172.569C583.738 163.154 589.21 154.27 597.171 147.292C603.226 141.981 610.138 138.521 618.574 139.22C621.539 139.488 624.382 140.534 626.813 142.253C627.937 143.02 627.935 143.894 626.751 144.653C625.217 145.653 623.696 146.57 622.163 147.507C620.355 148.628 618.802 150.117 617.608 151.877C616.414 153.638 615.604 155.631 615.231 157.725C613.621 165.233 613.798 172.808 614.641 180.369C614.967 182.949 616.185 185.335 618.084 187.114C620.62 189.674 623.394 191.989 626.368 194.026C627.23 194.568 627.956 195.302 628.487 196.171C629.018 197.04 629.341 198.021 629.43 199.035C630.194 205.033 631.722 210.909 633.975 216.52C637.608 225.557 638.093 234.877 637.04 244.551C635.967 254.657 635.729 264.835 636.329 274.98C636.96 286.289 639.02 297.418 640.047 308.665C640.559 314.148 639.258 319.386 637.977 324.635C635.577 334.534 631.837 343.983 628.024 353.398C621.989 368.308 617.211 383.636 612.598 399.031C611.187 403.705 609.817 408.39 608.251 413.018C604.551 423.44 605.074 434.896 609.706 444.938C611.219 448.337 612.91 451.656 614.724 455.468C599.134 457.557 583.877 460.455 569.251 466.22C554.652 471.998 540.704 479.303 527.639 488.011C514.736 496.747 502.796 506.826 492.02 518.081C481.047 529.318 471.569 541.922 463.818 555.581C462.099 554.913 461.679 553.446 460.971 552.304C457.739 547.021 454.496 541.799 451.19 536.586C445.318 527.303 437.163 521.018 427.164 516.837C417.906 512.966 410.046 506.958 402.423 500.593C402.123 500.41 401.864 500.168 401.661 499.882C401.457 499.595 401.315 499.271 401.241 498.927C401.167 498.584 401.164 498.229 401.232 497.884C401.3 497.54 401.437 497.213 401.635 496.923C402.239 495.622 402.76 494.285 403.195 492.918C407.649 483.646 413.182 474.932 419.678 466.956C429.121 455.717 439.99 445.758 452.011 437.332C461.427 430.387 471.43 424.273 481.905 419.061C482.959 418.527 484.023 417.587 485.676 418.026C485.186 422.453 483.939 426.809 484.113 431.316C484.18 433.106 484.133 434.915 484.294 436.707C484.375 437.593 484.786 438.571 486 438.28C486.19 438.23 486.367 438.142 486.521 438.021C486.676 437.901 486.805 437.751 486.9 437.58C486.996 437.409 487.056 437.22 487.078 437.025C487.099 436.831 487.082 436.634 487.026 436.446C485.233 425.449 489.574 416.068 494.671 406.843C495.728 404.93 497.282 403.34 499.169 402.239C505.988 398.091 512.776 393.904 519.535 389.678C529.672 383.36 535.104 374.039 537.196 362.426C538.321 355.827 538.144 349.072 536.674 342.541C535.489 337.117 533.037 332.051 529.521 327.754Z" fill="#6C382C"/>
<path d="M89.112 255.343C97.2841 257.386 104.267 260.376 110.217 266.292C120.627 276.619 131.101 286.875 141.478 297.263C154.467 310.143 164.836 325.418 172.011 342.244C176.437 352.232 179.475 362.779 181.041 373.592C182.563 385.008 182.578 396.405 179.653 407.663C179.272 409.099 178.127 411.159 180.027 411.677C181.927 412.194 181.855 409.769 182.192 408.416C185.637 395.913 185.467 383.285 183.407 370.596C182.679 366.019 181.718 361.482 180.527 357.003C180.416 356.719 180.388 356.41 180.447 356.111C180.507 355.812 180.651 355.536 180.862 355.317C184.727 358.662 188.654 361.957 192.465 365.363C209.689 380.765 224.737 397.889 236.52 417.767C245.209 432.377 251.248 448.408 254.356 465.12C255.086 469.018 255.336 473.007 255.794 476.96C255.87 477.732 255.746 478.512 255.435 479.223C255.123 479.934 254.634 480.553 254.014 481.021C246.307 487.87 238.319 494.327 229.146 499.152C224.366 501.636 219.774 504.467 215.407 507.622C211.314 510.635 208.247 514.611 205.21 518.618C198.979 526.973 193.525 535.881 188.918 545.23C188.392 546.256 187.825 547.281 187.247 548.306C187.127 548.5 186.834 548.597 186.601 548.747C185.301 547.943 185.028 546.449 184.332 545.256C173.797 527.243 160.9 510.722 145.983 496.131C130.772 481.321 113.75 468.94 94.4667 459.91C79.9919 453.127 65.024 447.703 49.2053 445.003C45.1888 444.306 41.195 443.536 37.2208 442.809C36.9441 441.46 37.805 440.744 38.3356 439.936C42.072 434.54 45.3969 428.871 48.2824 422.976C50.2141 419.326 51.3307 415.3 51.5549 411.177C51.7791 407.053 51.1057 402.93 49.5811 399.093C42.4264 380.771 35.3448 362.43 27.5806 344.352C23.2671 334.309 18.322 324.561 14.5348 314.272C10.2814 302.722 9.75446 291.031 11.3689 278.969C12.3756 271.466 13.9124 263.978 13.6429 256.369C13.2866 246.107 13.0033 235.836 11.7515 225.623C10.6215 216.318 11.0476 207.157 14.4816 198.294C16.8336 192.306 18.4929 186.07 19.4274 179.705C19.8241 176.856 21.1725 175.789 23.5446 174.946C27.5882 173.598 31.2639 171.33 34.2825 168.321C35.9877 166.703 37.0214 164.503 37.1781 162.158C37.685 154.844 37.3989 147.498 36.3249 140.246C35.2821 133.98 31.7302 129.821 25.938 127.434C25.475 127.245 25.0562 126.954 24.3282 126.56C27.2039 123.953 30.5766 123.417 33.9681 123.36C43.1022 123.203 50.6276 126.914 57.0552 133.248C66.0892 142.114 71.9443 152.853 75.6668 164.825C78.7157 174.949 79.5721 185.606 78.179 196.087C77.4056 202.618 76.7371 209.11 74.299 215.275C74.105 215.816 74.0276 216.392 74.0718 216.964C74.116 217.537 74.2808 218.094 74.5555 218.599C78.3161 227.891 81.3041 237.478 83.4891 247.262C83.8453 248.758 84.1699 250.264 84.5679 251.751C86.3306 258.327 89.6834 263.739 95.6829 267.348C98.3243 268.935 100.661 271.034 103.456 272.344C104.637 272.905 106.408 274.355 107.255 272.994C108.342 271.203 106.177 270.481 104.915 269.814C101.339 267.775 97.8936 265.514 94.5992 263.046C92.0799 261.16 89.8688 259.023 89.112 255.343Z" fill="#6C382C"/>
<path d="M81.1774 200.73C83.2324 201.678 83.9313 203.589 85.1217 204.992C95.9364 218.28 106.717 231.559 117.462 244.831C126.004 255.452 134.195 266.324 142.938 276.764C152.762 288.459 162.073 300.639 171.801 312.415C181.307 323.893 190.495 335.623 199.875 347.202C206.594 355.489 213.431 363.674 220.13 371.97C227.806 381.456 235.354 391.085 243.01 400.55C248.048 406.754 253.225 412.785 258.125 419.079C266.083 429.321 274.764 438.99 282.626 449.323C287.211 455.349 291.975 461.265 296.963 466.969C302.739 473.557 310.21 477.37 318.796 479.102C332.129 481.8 344.229 478.372 355.557 471.451C372.57 461.066 389.559 450.656 406.524 440.222C423.497 429.787 440.349 419.173 457.452 408.919C478.284 396.412 498.768 383.334 519.57 370.795C526.057 366.878 531.127 361.862 534.005 354.783C534.093 354.578 534.326 354.438 534.497 354.266C535.953 358.63 533.868 365.989 531.891 370.836C529.118 377.692 524.199 383.467 517.871 387.295C497.952 399.58 478.044 411.886 458.145 424.213C442.411 433.958 426.693 443.739 410.991 453.555C391.774 465.532 372.558 477.475 353.342 489.383C347.001 493.314 340.288 496.321 332.966 497.17C321.921 498.431 311.883 495.352 302.938 488.65C298.859 485.591 295.961 481.47 292.828 477.614C286.216 469.58 279.784 461.405 273.267 453.301C265.297 443.388 257.32 433.474 249.336 423.56C242.879 415.562 236.348 407.624 229.901 399.615C222.418 390.3 214.998 380.935 207.526 371.61C202.621 365.493 197.642 359.446 192.737 353.328C182.444 340.498 172.166 327.658 161.901 314.808C154.603 305.689 147.299 296.559 139.988 287.418C132.789 278.371 125.76 269.182 118.412 260.256C111.306 251.616 104.497 242.756 97.5295 234.016C91.7703 226.774 86.149 219.432 80.4221 212.149C79.7779 211.331 78.977 210.541 79.2972 209.426C80.0483 206.544 80.0635 203.571 81.1774 200.73Z" fill="#3C5944"/>
<path d="M113.763 125.94L152.931 109.72L208.846 86.5544C218.454 82.5727 227.985 78.3707 237.721 74.6835C250.376 69.8974 263.06 69.989 275.479 75.8554C278.689 77.4915 281.664 79.5522 284.324 81.9821C286.846 84.1692 289.279 86.4615 291.622 88.8588C301.995 99.4032 312.229 110.09 322.667 120.563C338.202 136.14 353.555 151.899 368.985 167.525C376.562 175.231 384.022 183.047 391.652 190.702C405.717 204.83 419.711 219.029 433.634 233.298C445.789 245.685 457.998 258.027 470.259 270.326C477.82 277.875 485.017 285.779 492.696 293.186C499.655 299.877 506.209 306.952 512.955 313.825C514.485 315.383 516.185 316.769 517.715 318.327C521.013 321.562 524.142 324.965 527.088 328.523C528.24 330.633 529.495 332.745 530.507 334.986C532.539 339.392 533.182 344.311 532.351 349.09C531.521 353.87 529.256 358.284 525.858 361.746C523.103 364.625 519.929 367.073 516.445 369.008C512.519 371.204 508.803 373.769 504.977 376.123C483.841 389.118 462.704 402.106 441.569 415.087C427.985 423.433 414.419 431.793 400.869 440.168C384.763 450.094 368.696 460.095 352.503 469.759C343.376 475.22 333.323 477.9 322.63 476.81C314.487 476.042 306.863 472.473 301.057 466.712C296.261 462.011 292.464 456.484 288.221 451.32C282.828 444.784 277.563 438.137 272.234 431.541C264.004 421.343 255.944 411.005 247.491 400.999C239.27 391.27 231.526 381.179 223.421 371.38C216.707 363.26 210.196 354.969 203.556 346.789C196.503 338.12 189.376 329.5 182.323 320.831C176.279 313.342 170.237 305.802 164.193 298.303C156.135 288.304 148.077 278.312 140.018 268.327C132.167 258.639 124.351 248.934 116.569 239.213C111.724 233.211 106.826 227.26 101.97 221.269C95.8243 213.684 89.7426 206.049 83.5122 198.534C82.4834 197.393 81.7663 196.007 81.4301 194.508C81.0939 193.009 81.1501 191.449 81.5932 189.978C82.5743 189.442 83.0322 190.224 83.4751 190.786C95.2184 205.415 106.969 220.047 118.726 234.683C128.083 246.283 137.558 257.781 146.937 269.36C156.72 281.439 166.448 293.578 176.231 305.646C184.291 315.538 192.355 325.346 200.354 335.225C206.993 343.405 213.44 351.768 220.229 359.796C227.715 368.622 234.691 377.851 242.24 386.626C248.77 394.211 254.822 402.209 261.128 409.996C266.166 416.19 271.046 422.473 276.244 428.494C281.797 434.878 286.763 441.809 292.262 448.254C296.521 453.242 300.481 458.472 305.101 463.147C310.115 468.248 316.397 470.596 323.31 471.483C333.727 472.795 343.11 469.847 351.903 464.43C365.135 456.269 378.381 448.118 391.64 439.979C415.769 425.218 439.904 410.478 464.045 395.76C479.389 386.35 494.71 376.906 510.008 367.426C513.065 365.527 515.986 363.417 518.751 361.113C529.38 352.302 529.234 337.574 520.945 328.051C512.515 318.358 503.424 309.261 494.205 300.317C493.657 299.783 493.1 299.248 492.563 298.693C481.148 287.009 469.871 275.224 458.266 263.681C449.671 255.138 441.5 246.252 432.946 237.741C418.968 223.858 405.384 209.653 391.48 195.731C383.109 187.36 375.143 178.604 366.697 170.315C356.557 160.39 347.044 149.951 337.063 139.926C323.645 126.516 310.437 113.027 297.124 99.5778C291.338 93.7492 286.056 87.3514 279.512 82.3038C275.628 79.2258 271.161 76.9651 266.381 75.6574C261.601 74.3497 256.606 74.0222 251.696 74.6944C245.458 75.5361 239.366 77.239 233.595 79.7544C221.591 84.7135 209.705 89.894 197.731 94.885C179.228 102.607 160.686 110.203 142.184 117.915C127.949 123.845 113.795 129.882 99.5387 135.853C95.6382 137.488 91.6878 139.038 87.7766 140.683C83.2252 142.478 78.8727 144.741 74.7893 147.436C73.8047 148.107 72.6489 149.762 71.4719 147.443C70.5527 145.61 70.6092 145.04 72.8135 143.849C75.862 142.192 78.9208 140.535 82.1069 139.183C92.6332 134.685 103.208 130.333 113.763 125.94Z" fill="#3F5A46"/>
<path d="M20.7591 172.897C19.7685 163.835 18.7259 155.167 18.1613 146.511C17.9039 142.428 17.1889 138.343 18.3865 134.288C18.5677 133.543 18.7916 132.809 19.0574 132.09C20.2312 129.344 21.3258 128.843 24.1733 129.707C26.6161 130.374 28.8089 131.745 30.4787 133.648C32.1486 135.552 33.2218 137.904 33.5648 140.413C34.7039 147.248 35.1051 154.186 34.7617 161.107C34.7074 162.2 34.4236 163.269 33.9287 164.245C33.4338 165.221 32.739 166.082 31.8895 166.772C28.6241 169.534 24.84 171.617 20.7591 172.897Z" fill="#6C382C"/>
<path d="M59.3648 472.513C59.1089 473.951 60.0504 474.933 60.7092 475.99C64.022 481.338 67.3672 486.645 70.6907 491.983C71.6364 493.132 72.2156 494.538 72.3532 496.02C66.8346 493.91 61.6076 491.778 56.2799 489.923C50.9522 488.068 45.5747 486.524 39.9229 484.734C44.1007 480.771 48.6813 477.255 53.59 474.244C54.7531 473.505 56.2393 473.138 56.7785 471.603L59.3648 472.513Z" fill="black"/>
<path d="M84.8367 240.642C82.9751 233.255 80.6464 225.995 77.8647 218.904C77.5687 218.266 77.4018 217.577 77.3737 216.874C77.3456 216.172 77.4568 215.472 77.701 214.813C78.9154 214.501 79.1459 215.63 79.6391 216.257C82.6598 220.048 85.616 223.92 88.6999 227.682C89.7074 228.925 90.0339 229.963 89.1947 231.438C87.5838 234.193 86.9187 237.369 84.8367 240.642Z" fill="#FAFAFA"/>
<path d="M181.789 112.469C181.766 113.342 181.07 113.719 180.355 114.023C177.536 115.249 174.707 116.465 171.858 117.649C167.842 119.322 163.796 120.964 159.76 122.616C159.287 122.801 158.824 123.018 158.33 123.192C158.128 123.294 157.907 123.356 157.68 123.372C157.454 123.389 157.227 123.361 157.011 123.29C156.796 123.218 156.596 123.105 156.425 122.957C156.253 122.808 156.112 122.627 156.011 122.425C155.426 121.307 156.303 120.768 157.104 120.373C159.305 119.318 161.496 118.221 163.756 117.313C168.411 115.458 173.104 113.73 177.622 111.56C178.052 111.28 178.536 111.09 179.042 111.003C179.549 110.916 180.068 110.934 180.567 111.054C180.893 111.134 181.185 111.313 181.404 111.567C181.623 111.82 181.757 112.136 181.789 112.469Z" fill="#2D2F2C"/>
<path d="M191.012 109.684C189.37 109.641 188.345 108.668 188.513 107.414C188.689 106.731 189.09 106.128 189.653 105.702C190.215 105.277 190.906 105.055 191.611 105.072C191.937 105.07 192.26 105.139 192.556 105.275C192.853 105.41 193.116 105.609 193.328 105.858C193.539 106.106 193.694 106.398 193.781 106.712C193.868 107.026 193.885 107.356 193.83 107.678C193.628 109.066 192.664 109.758 191.012 109.684Z" fill="#2F302D"/>
<path d="M388.119 44.6959C392.843 44.9365 397.292 46.9893 400.541 50.4271C405.825 55.9723 409.584 62.5383 413.638 68.9768C414.099 69.8987 414.357 70.9091 414.393 71.9393C416.038 84.2215 421.248 94.9952 428.339 104.986C431.84 109.902 435.553 114.668 439.223 119.464C440.327 120.887 441.28 122.421 442.067 124.041C448.824 138.349 456.449 152.23 464.9 165.607C468.974 172.088 471.312 178.929 473.329 186.125C476.734 198.648 480.889 210.956 485.771 222.98C487.591 227.354 487.599 227.458 483.244 229.382C472.903 233.958 462.66 238.745 452.812 244.332C450.11 245.863 450.04 245.768 447.911 243.653C442.256 238.026 436.984 232.034 431.082 226.66C429.811 225.373 428.87 223.796 428.343 222.065C424.708 212.32 420.842 202.642 418.665 192.426C417.738 188.076 415.35 184.364 413.235 180.544C405.022 165.689 397.137 150.675 390.557 135.01C389.576 132.759 388.794 130.461 387.928 128.182C386.581 124.566 384.907 121.08 382.927 117.767C376.043 106.445 370.385 94.4206 366.05 81.8987C364.69 77.8811 363.8 73.7193 363.399 69.4967C362.69 62.4071 364.781 56.368 370.355 51.5948C375.303 47.3156 381.579 44.8783 388.119 44.6959Z" fill="#6C382C"/>
<path d="M422.841 218.095C401.862 196.75 380.77 175.746 360.399 154.22C360.77 152.753 361.816 152.936 362.622 152.739C367.899 151.515 372.911 149.349 377.419 146.345C378.478 145.624 380.579 144.784 379.785 143.36C378.793 141.504 377.308 143.441 376.273 144.027C370.844 147.251 364.879 149.473 358.664 150.587C358.129 150.739 357.562 150.735 357.028 150.578C356.495 150.421 356.017 150.115 355.65 149.697C351.814 145.698 347.955 141.739 344.086 137.78C343.376 137.034 342.817 136.158 342.438 135.2C338.694 126.43 335.276 117.543 334.016 108.027C333.096 101.057 333.14 94.1635 337.162 87.894C341.074 81.8193 346.435 78.0076 353.657 77.0209C355.448 76.7995 357.265 76.9603 358.989 77.4927C359.872 77.693 360.679 78.1394 361.317 78.78C361.956 79.4206 362.4 80.2292 362.597 81.1119C366.72 94.457 372.884 106.919 380.04 118.836C383.528 124.646 385.577 130.991 388.236 137.102C392.748 147.493 397.577 157.716 402.879 167.723C405.851 173.395 409.064 178.99 412.098 184.664C413.616 187.5 414.835 190.487 415.734 193.576C417.913 200.912 420.006 208.392 422.603 215.666C422.833 216.022 422.974 216.429 423.016 216.851C423.057 217.274 422.997 217.7 422.841 218.095Z" fill="#6C382C"/>
<path d="M180.179 95.2487L125.893 117.75C125.996 116.502 126.489 115.318 127.302 114.365C139.519 95.9415 152.867 78.2931 167.27 61.5219C175.282 52.1537 183.224 42.69 192.424 34.4031C196.504 30.6281 201.584 28.1073 207.057 27.1417C222.017 24.4954 235.636 38.1817 232.814 53.0926C231.209 61.5985 227.147 69.0108 222.726 76.2785C222.043 77.3799 221.021 78.2292 219.813 78.6982C208.524 83.3397 197.251 88.0163 185.995 92.7279C185.242 93.0834 184.412 93.2467 183.58 93.2032C182.748 93.1597 181.94 92.9109 181.228 92.4789C178.984 91.2141 176.707 90.0212 174.44 88.7975C173.764 88.4367 173.12 87.9935 172.389 87.7041C171.658 87.4147 170.556 87.0428 170.04 88.0796C169.524 89.1164 170.472 89.4427 171.107 89.8336C173.984 91.5516 176.841 93.2483 180.179 95.2487Z" fill="#6C382C"/>
<path d="M787.631 552.858C764.233 556.47 741.643 561.829 720.157 571.064C718.17 571.917 716.1 573.506 714.083 573.131C712.065 572.756 711.04 570.161 709.669 568.513C701.496 558.941 692.6 549.974 684.214 540.574C682.194 538.275 680.079 536.036 677.956 533.714C679.285 532.209 680.968 531.869 682.51 531.347C700.545 525.225 719.119 521.155 737.749 517.346C738.619 517.148 739.522 517.155 740.389 517.367C741.255 517.579 742.06 517.99 742.74 518.568C757.39 529.661 772.072 540.719 786.786 551.745C787.109 552.083 787.392 552.456 787.631 552.858Z" fill="#5FAB58"/>
<path d="M226.995 75.6413C228.943 71.5326 230.599 68.2378 232.133 64.8567C234.535 59.8639 235.914 54.4408 236.188 48.9069C236.199 47.3563 236.681 45.8456 237.57 44.5755C241.143 39.5525 244.471 34.3568 248.605 29.7332C251.018 27.054 253.894 24.8322 257.095 23.1747C259.121 22.0351 261.372 21.3563 263.69 21.1867C266.008 21.0171 268.334 21.3608 270.504 22.1933C279.401 25.545 286.218 30.9221 287.836 41.0198C288.295 44.7368 287.988 48.5083 286.934 52.1021C285.183 58.8242 282.604 65.3028 279.256 71.389C278.327 73.1117 277.489 73.3602 275.626 72.6149C261.753 67.0538 247.874 66.9518 234.023 72.9233C231.962 73.8054 229.801 74.529 226.995 75.6413Z" fill="#6C382C"/>
<path d="M307.506 100.618C302.296 95.4492 297.57 90.8546 292.932 86.0438C289.792 82.8423 286.728 79.5388 282.977 77.0181C281.342 75.9356 280.716 74.817 281.827 72.891C283.985 69.1009 285.755 65.1022 287.108 60.9559C287.829 58.8326 289.139 58.0348 291.428 58.0009C302.871 57.8314 310.597 66.1959 311.727 77.1024C312.603 85.0074 310.689 92.5797 307.506 100.618Z" fill="#6C382C"/>
<path d="M617.123 168.517C617.14 164.295 617.021 160.06 618.789 156.082C620.789 151.548 624.507 148.952 628.73 146.909C630.289 146.149 630.89 147.402 631.11 148.542C631.775 151.545 631.979 154.633 631.714 157.698C631.083 163.161 630.482 168.636 629.975 174.124C629.499 179.217 628.815 184.305 628.682 189.439C628.625 191.59 627.87 191.861 626.086 190.494C623.827 188.798 621.725 186.902 619.807 184.829C617.381 182.166 617.209 178.772 616.931 175.468C616.826 173.147 617.063 170.834 617.123 168.517Z" fill="#6C382C"/>
<path d="M324.079 116.243C318.969 112.834 314.984 108.519 310.873 104.293C310.69 104.162 310.537 103.994 310.422 103.8C310.307 103.607 310.234 103.391 310.207 103.168C310.179 102.945 310.199 102.718 310.263 102.502C310.327 102.287 310.436 102.087 310.581 101.915C310.858 101.554 311.257 101.307 311.703 101.219C312.15 101.131 312.613 101.209 313.006 101.437C317.75 103.339 321.404 106.377 322.957 111.43C323.478 112.993 323.726 114.632 324.079 116.243Z" fill="#6C382C"/>
<path d="M189.282 150.516C187.44 150.572 187.356 150.591 186.836 147.79C185.75 141.98 184.8 136.143 183.704 130.343C183.421 128.828 183.811 128.203 185.353 128.119C189.462 127.9 193.566 127.661 197.663 127.4C199.1 127.292 199.846 127.81 200.059 129.22C200.943 135.181 201.973 141.145 202.805 147.125C203.148 149.515 202.979 149.625 200.374 149.849C197.04 150.084 193.76 150.238 189.282 150.516Z" fill="#184330"/>
<path d="M187.149 162.128C185.389 161.811 182.961 163.204 181.446 161.865C179.932 160.525 180.297 158.081 179.944 156.085C179.137 151.541 178.288 147.006 177.565 142.453C177.384 141.408 176.593 139.849 178.744 139.499C181.95 138.98 182.907 139.348 183.366 141.7C183.918 144.459 184.532 147.231 184.832 150.057C185.032 151.965 185.947 152.363 187.615 152.209C189.782 152.058 191.975 152.115 194.143 151.922C195.644 151.784 196.21 152.412 196.391 153.811C197.451 163.415 199.324 161 190.096 161.965C189.208 162.109 188.304 162.085 187.149 162.128Z" fill="#163E2C"/>
<path d="M205.619 169.213C205.687 171.003 208.142 171.743 206.875 172.874C205.224 174.37 204.619 172.088 203.799 171.203C202.596 169.893 201.574 168.421 200.336 166.839C203.092 164.831 205.135 167.817 207.481 167.597C207.572 166.487 206.626 166.067 206.198 165.339C205.949 164.927 205.554 164.511 206.117 164.057C206.68 163.604 207.174 163.419 207.487 163.771C209.389 165.488 210.976 167.525 212.176 169.789C212.7 170.843 211.44 171.309 210.5 171.035C208.932 170.568 207.421 169.904 205.619 169.213Z" fill="#171717"/>
<path d="M233.18 151.484C234.617 150.245 236.396 149.472 238.282 149.267C239.373 149.12 240.483 149.313 241.46 149.821C242.437 150.328 243.233 151.125 243.74 152.103C244.15 152.689 244.321 153.409 244.22 154.117C244.118 154.825 243.751 155.468 243.193 155.915C240.591 158.416 238.897 158.382 236.636 155.744C235.568 154.437 234.531 153.141 233.18 151.484Z" fill="#3F3F3E"/>
<path d="M178.507 176.897C179.679 176.277 180.884 175.722 182.117 175.234C184.876 174.318 186.426 175.086 186.889 178.072C187.164 179.868 189.384 179.302 189.462 181.062C187.718 182.555 186.282 180.188 184.64 180.572C184.015 181.003 184.399 181.418 184.712 181.78C185.025 182.142 185.517 182.841 184.847 183.385C184.736 183.501 184.602 183.592 184.454 183.653C184.305 183.714 184.146 183.743 183.985 183.739C183.825 183.735 183.667 183.697 183.522 183.628C183.377 183.56 183.248 183.462 183.143 183.34C181.342 181.411 179.478 179.533 178.507 176.897Z" fill="#121212"/>
<path d="M178.106 179.923C177.094 180.843 176.17 180.382 175.306 180.412C174.919 180.378 174.532 180.464 174.195 180.658C173.859 180.852 173.591 181.144 173.427 181.496C173.287 181.925 173.28 182.386 173.408 182.818C173.536 183.25 173.793 183.633 174.143 183.917C174.517 184.353 175.003 184.678 175.549 184.855C176.094 185.033 176.679 185.056 177.237 184.923C177.759 184.822 178.287 184.534 178.363 184.006C178.456 183.249 177.774 183.471 177.339 183.387C176.19 183.18 176.074 182.47 177.001 181.995C177.929 181.52 179.26 180.328 180.319 181.967C180.536 182.249 180.694 182.571 180.782 182.916C180.871 183.26 180.889 183.619 180.835 183.97C180.781 184.321 180.656 184.658 180.469 184.96C180.281 185.262 180.034 185.523 179.743 185.727C177.136 188.009 172.208 186.747 171.004 183.471C170.723 182.818 170.673 182.088 170.863 181.403C171.053 180.717 171.471 180.118 172.049 179.703C173.821 178.324 175.422 178.335 178.106 179.923Z" fill="#171716"/>
<path d="M232.16 153.111C232.667 153.207 233.288 153.338 233.357 153.891C233.65 156.207 235.165 157.526 237.396 158.499C235.267 160.388 233.82 158.073 232.044 158.359C231.408 158.821 231.842 159.321 232.266 159.81C232.69 160.3 232.774 160.687 232.315 161.132C232.215 161.257 232.087 161.357 231.942 161.424C231.797 161.491 231.638 161.524 231.478 161.52C231.318 161.515 231.162 161.474 231.02 161.4C230.879 161.325 230.757 161.219 230.663 161.089C228.976 159.174 227.311 157.238 225.544 155.205C226.622 153.757 228.095 153.483 229.519 153.104C229.933 152.912 230.384 152.813 230.841 152.814C231.297 152.815 231.747 152.917 232.16 153.111Z" fill="#161515"/>
<path d="M186.37 173.224L190.689 171.1C191.311 170.794 191.939 170.613 192.283 171.402C192.626 172.191 191.778 172.429 191.302 172.718C190.827 173.007 189.823 173.199 189.459 174.022C190.147 175.558 191.129 174.554 191.969 174.253C192.809 173.953 193.553 173.338 194.373 174.171C194.474 175.494 193.23 175.368 192.603 175.882C192.177 176.235 191.209 176.272 191.737 177.159C192.146 177.856 192.765 177.643 193.417 177.348C193.533 177.289 193.64 177.188 193.765 177.181C194.733 177.112 195.891 175.385 196.606 177.088C197.103 178.37 195.396 178.44 194.585 178.824C191.025 180.541 191.652 180.828 189.117 177.559C188.262 176.444 187.407 175.33 186.584 174.196C186.444 174.005 186.472 173.704 186.37 173.224Z" fill="#171717"/>
<path d="M198.879 173.664C199.623 174.63 200.461 173.997 201.259 173.726C202.056 173.456 202.803 172.727 203.828 173.668C202.742 175.439 200.811 175.742 199.179 176.511C198.442 176.856 198.012 176.189 197.63 175.711C196.178 173.937 194.759 172.143 193.278 170.305C194.711 168.814 196.447 168.412 198.089 167.685C198.318 167.562 198.585 167.529 198.838 167.593C199.091 167.657 199.31 167.814 199.452 168.033C199.71 168.518 199.346 168.914 198.911 169.256C198.189 169.809 196.337 169.834 196.911 170.951C197.664 172.395 198.821 170.689 199.835 170.507C200.472 170.399 201.095 170.041 201.427 170.861C201.759 171.68 200.891 171.886 200.425 172.176C199.96 172.465 198.876 172.593 198.879 173.664Z" fill="#1A1B1A"/>
<path d="M217.688 161.801C216.62 162.865 215.762 162.26 214.913 162.124C214.533 162.043 214.136 162.086 213.782 162.247C213.428 162.408 213.134 162.679 212.945 163.019C212.326 164.042 212.899 164.785 213.443 165.465C214.813 167.144 216.378 166.966 217.969 164.97C218.399 164.44 218.83 163.848 219.499 164.115C220.425 164.482 220.204 165.392 219.957 166.082C219.259 168.144 216.762 168.994 214.015 168.267C211.794 167.668 209.993 165.354 210.281 163.49C210.741 160.601 214.572 159.661 217.688 161.801Z" fill="#191919"/>
<path d="M229.729 161.814C228.893 162.748 228.392 162.819 227.679 162.654C224.763 162.038 224.689 162.098 223.315 164.922C223.247 165.096 223.14 165.252 223.004 165.38C222.868 165.508 222.704 165.604 222.526 165.66C221.813 165.891 221.62 165.304 221.507 164.854C220.959 163.155 220.463 161.437 219.957 159.718C219.718 158.89 219.117 158.032 220.134 157.31C220.522 156.966 221.019 156.768 221.538 156.751C222.057 156.734 222.565 156.899 222.975 157.218C223.485 157.595 223.997 157.921 224.569 158.299L229.729 161.814Z" fill="#181818"/>
<path d="M229.538 173.923C226.967 174.397 224.983 172.338 222.498 172.325C222.36 174.017 224.519 174.562 224.321 176.189C222.128 175.352 220.954 174.105 218.565 170.039C221.286 169.361 223.272 171.742 225.804 171.579C225.973 169.858 223.844 169.345 223.823 167.784C225.897 168.379 227.728 170.361 229.538 173.923Z" fill="#484847"/>
<path d="M202.377 183.073C202.08 181.318 200.27 180.522 199.96 178.85C202.094 179.592 203.559 181.211 205.49 184.942C202.798 185.662 200.774 183.156 198.25 183.433C198.468 185.03 200.49 185.654 200.297 187.49C197.957 186.275 196.323 184.35 194.799 180.993C197.58 180.795 199.732 182.816 202.377 183.073Z" fill="#414141"/>
<path d="M241.717 159.069C243.244 157.965 244.965 157.159 246.791 156.695C246.909 158.175 245.796 158.167 245.172 158.598C244.547 159.028 243.938 159.252 244.448 160.034C244.632 160.294 244.896 160.486 245.199 160.582C245.503 160.678 245.829 160.673 246.129 160.567C246.965 160.391 247.603 159.482 248.725 159.907C248.916 160.952 248 161.001 247.471 161.34C246.942 161.68 246.249 161.953 246.654 162.764C246.726 162.944 246.836 163.105 246.977 163.238C247.117 163.371 247.285 163.472 247.468 163.534C247.651 163.596 247.845 163.618 248.037 163.598C248.23 163.578 248.415 163.516 248.581 163.418C249.57 162.996 250.494 162.272 251.975 162.466C250.887 164.32 249.114 164.534 247.743 165.247C247.101 165.573 246.562 165.091 246.139 164.55C244.69 162.713 243.249 160.96 241.717 159.069Z" fill="#424242"/>
<path d="M217.978 178.561C213.292 178.439 212.971 178.368 211.809 182.258C209.966 179.953 209.515 177.332 209.164 174.816C208.98 173.501 210.467 173.904 211.174 174.318C213.478 175.667 215.718 177.109 217.978 178.561Z" fill="#434343"/>
<path d="M237.544 164.003C237.194 163.959 236.848 163.887 236.509 163.789C235.005 163.261 233.601 163.266 233.117 165.063C232.67 166.684 233.775 167.763 235.11 168.391C236.446 169.018 237.823 169.231 238.83 167.708C239.209 167.146 239.024 166.236 239.923 165.657C241 167.848 240.108 168.958 238.383 169.703C237.226 170.096 235.971 170.088 234.82 169.681C233.669 169.274 232.688 168.491 232.036 167.458C231.58 166.838 231.37 166.071 231.446 165.305C231.521 164.539 231.877 163.828 232.446 163.309C233.874 161.984 235.661 162.031 237.544 164.003Z" fill="#464646"/>
<path d="M182.454 187.035C182.318 188.664 181 188.536 180.319 189.132C179.958 189.424 179.359 189.658 179.789 190.314C180.069 190.758 180.391 191.151 180.985 191.104C182.09 191.029 182.931 189.876 184.21 190.263C181.766 192.663 181.766 192.663 182.885 196.02C180.257 194.329 179.07 191.99 177.658 189.894C177.358 189.46 177.746 188.919 178.272 188.683C179.567 188.072 180.787 187.147 182.454 187.035Z" fill="#3D3C3C"/>
<path d="M193.235 190.696C190.853 189.046 188.893 186.857 187.516 184.307C190.013 185.079 191.762 186.997 193.235 190.696Z" fill="#403F40"/>
<path d="M232.159 153.11L229.521 153.042C229.698 152.871 229.906 152.737 230.135 152.648C230.364 152.559 230.609 152.516 230.854 152.523C231.1 152.529 231.342 152.584 231.566 152.685C231.79 152.786 231.991 152.931 232.159 153.11Z" fill="#3F3F3E"/>
<path d="M522.552 457.421C520.993 457.38 519.58 457.344 518.177 457.307C518.015 457.315 517.854 457.288 517.704 457.229C517.554 457.169 517.418 457.078 517.306 456.962C517.194 456.846 517.108 456.707 517.054 456.555C517 456.403 516.979 456.241 516.992 456.08C516.974 455.818 517.056 455.559 517.222 455.355C517.387 455.151 517.624 455.017 517.884 454.98C518.998 454.69 520.138 454.511 521.288 454.445C537.011 454.408 551.682 450.101 565.768 443.491C571.153 441.032 576.17 437.839 580.677 434.001C580.869 433.84 581.051 433.647 581.252 433.496C582.163 432.854 583.279 431.521 584.212 432.461C585.559 433.827 584.144 435.038 583.081 435.956C578.883 439.345 574.354 442.3 569.561 444.775C557.016 451.727 543.437 455.252 529.302 456.952C527.07 457.309 524.811 457.466 522.552 457.421Z" fill="#0F0303"/>
<path d="M455.566 518.316C455.177 518.087 454.723 517.971 454.543 517.686C454.43 517.451 454.401 517.184 454.461 516.931C454.52 516.677 454.665 516.451 454.87 516.291C455.35 515.87 455.88 515.51 456.448 515.219C468.664 508.924 478.682 500.014 487.093 489.273C488.761 487.154 490.478 485.077 492.206 483.011C492.635 482.513 493.269 482.134 493.903 482.567C494.154 482.777 494.325 483.067 494.389 483.388C494.452 483.71 494.404 484.043 494.252 484.333C493.945 485.176 493.525 485.973 493.005 486.703C484.193 498.026 474.551 508.475 461.835 515.588C460.379 516.403 458.873 517.133 457.357 517.832C456.775 518.044 456.176 518.206 455.566 518.316Z" fill="#0C0302"/>
<path d="M501.311 152.633C502.351 152.66 503.384 152.905 503.556 153.908C503.727 154.911 502.779 155.375 501.839 155.527C492.766 156.923 485.325 161.544 478.486 167.396C478.02 167.831 477.527 168.234 477.009 168.606C476.792 168.753 476.527 168.813 476.268 168.774C476.009 168.734 475.774 168.598 475.611 168.393C475.407 168.232 475.266 168.005 475.211 167.751C475.157 167.497 475.194 167.232 475.314 167.002C475.694 166.338 476.169 165.734 476.723 165.208C483.383 159.123 491.504 154.864 500.297 152.846C500.631 152.755 500.97 152.684 501.311 152.633Z" fill="#100403"/>
<path d="M450.632 117.807C449.593 117.78 449.063 117.36 448.882 116.721C448.701 116.082 449.256 115.546 449.875 115.312C450.705 114.991 451.564 114.743 452.414 114.474C458.568 112.621 464.198 109.34 468.844 104.899C469.58 104.19 470.326 103.492 471.122 102.878C471.241 102.77 471.382 102.689 471.535 102.639C471.688 102.59 471.85 102.573 472.01 102.591C472.17 102.609 472.324 102.661 472.462 102.743C472.6 102.825 472.72 102.936 472.812 103.068C472.931 103.177 473.027 103.309 473.092 103.456C473.158 103.604 473.192 103.763 473.193 103.924C473.193 104.086 473.161 104.245 473.096 104.393C473.032 104.541 472.937 104.674 472.819 104.784C471.952 105.718 471.065 106.641 470.118 107.49C465.102 112.105 459.068 115.471 452.506 117.315C451.804 117.525 451.06 117.735 450.632 117.807Z" fill="#150504"/>
<path d="M581.062 232.672C580.147 232.648 580.022 232.645 579.898 232.641C579.091 232.496 577.884 232.922 577.844 231.631C577.794 230.777 578.675 230.478 579.44 230.259C583.63 229.089 587.769 227.897 591.937 226.737C592.431 226.613 592.942 226.577 593.448 226.631C593.701 226.613 593.953 226.68 594.164 226.821C594.375 226.962 594.533 227.169 594.613 227.41C594.684 227.656 594.681 227.918 594.607 228.163C594.532 228.409 594.388 228.627 594.192 228.792C593.907 229.046 593.578 229.246 593.22 229.381C589.327 230.999 585.24 232.105 581.062 232.672Z" fill="#0E0403"/>
<path d="M135.208 436.421C117.262 435.616 99.8211 430.228 84.548 420.771C81.9284 419.142 79.3665 417.426 76.8625 415.62C75.6402 414.683 74.5083 413.634 73.4815 412.485C73.3288 412.357 73.207 412.195 73.1252 412.013C73.0433 411.831 73.0035 411.633 73.0087 411.433C73.014 411.234 73.064 411.038 73.1552 410.86C73.2464 410.682 73.3765 410.528 73.5357 410.407C73.7975 410.213 74.1199 410.118 74.4451 410.14C74.7704 410.162 75.0772 410.299 75.3107 410.526C76.3315 411.26 77.3495 412.098 78.3691 412.873C91.9312 423.201 107.885 429.93 124.747 432.436C128.561 432.978 132.402 433.314 136.252 433.443C136.641 433.433 137.029 433.443 137.416 433.474C138.608 433.629 140.438 433.251 140.275 435.108C140.112 436.965 138.35 436.358 137.121 436.409C136.318 436.492 135.54 436.43 135.208 436.421Z" fill="#0E0302"/>
<path d="M195.998 495.834C195.884 496.611 195.368 496.857 194.651 496.838C193.207 496.801 192.382 495.739 191.49 494.843C187.768 490.945 184.358 486.761 181.293 482.327C176.088 474.985 170.106 468.309 164.284 461.481C163.446 460.503 161.553 459.33 162.866 458.033C164.574 456.331 165.481 458.653 166.392 459.612C173.659 467.247 179.991 475.638 186.271 484.048C188.785 487.612 191.622 490.938 194.747 493.981C195.304 494.537 195.99 494.95 195.998 495.834Z" fill="#0C0302"/>
<path d="M72.4655 215.799C72.1308 215.873 71.7193 216.102 71.4204 216.001C66.9157 214.47 62.5294 212.611 58.2968 210.438C57.7832 210.196 57.065 209.824 57.3877 209.011C57.4861 208.764 57.675 208.565 57.9157 208.453C58.1564 208.341 58.4307 208.326 58.6824 208.41C63.7076 209.903 68.6558 211.561 72.4865 215.394C72.5486 215.406 72.4707 215.602 72.4655 215.799Z" fill="#020303"/>
<path d="M454.528 421.363C454.595 422.161 454.423 422.962 454.035 423.662C453.646 424.363 453.058 424.933 452.345 425.299L430.147 439.143C429.931 439.278 429.706 439.397 429.472 439.5C427.809 440.298 426.084 441.044 424.513 439.474C423.438 438.406 423.806 435.868 425.193 434.147C426.117 433.075 427.216 432.169 428.444 431.466C435.229 427.306 441.983 423.105 448.758 418.924C449.174 418.626 449.612 418.359 450.068 418.127C452.772 416.929 454.54 418.119 454.528 421.363Z" fill="#010302"/>
<path d="M424.858 185.402C424.143 185.31 423.372 185.363 423.173 184.63C422.928 183.667 423.687 183.26 424.422 183.009C425.754 182.545 427.106 182.154 428.458 181.763C435.431 179.929 441.94 176.648 447.562 172.133C448.557 171.338 449.619 170.631 450.736 170.021C450.97 169.9 451.239 169.867 451.495 169.927C451.75 169.987 451.976 170.137 452.132 170.349C452.312 170.536 452.416 170.784 452.423 171.044C452.43 171.304 452.339 171.557 452.168 171.754C451.773 172.256 451.333 172.722 450.852 173.144C443.854 179.246 435.388 183.422 426.287 185.262C425.814 185.339 425.337 185.386 424.858 185.402Z" fill="#100403"/>
<path d="M395.554 125.646C394.629 125.622 393.754 125.672 393.499 124.677C393.229 123.485 394.124 123.071 395.013 122.866C396.383 122.569 397.797 122.574 399.189 122.226C404.547 120.786 409.563 118.286 413.939 114.874C414.315 114.518 414.709 114.181 415.119 113.865C416.25 113.167 417.564 111.433 418.721 112.919C420 114.543 417.84 115.215 416.863 115.99C410.998 120.777 404.542 124.32 396.862 125.316C396.421 125.405 395.984 125.515 395.554 125.646Z" fill="#150403"/>
<path d="M277.573 254.331L264.488 250.87L242.466 245.21C241.35 244.921 240.235 244.622 239.142 244.261C238.852 244.219 238.576 244.11 238.336 243.941C238.096 243.772 237.9 243.549 237.764 243.29C237.627 243.03 237.554 242.742 237.551 242.449C237.548 242.156 237.614 241.866 237.745 241.604C239.166 237.752 240.536 233.877 242.019 230.048C242.665 228.401 244.067 228.864 245.327 229.209L261.671 233.68C262.043 233.783 262.403 233.928 262.775 234.031C266.636 235.099 266.689 235.048 267.931 231.296C271.987 218.923 275.856 206.545 280.331 194.413C282.572 188.232 282.291 188.672 288.241 190.189C290.844 190.86 293.48 191.449 296.094 192.11C299.265 192.899 299.365 193.079 298.323 196.327C297.814 197.926 297.263 199.492 296.682 201.057C290.508 217.69 285.21 234.606 279.294 251.318C278.842 252.721 278.822 254.665 277.573 254.331Z" fill="#60B158"/>
<path d="M317.739 272.037C319.393 275.199 320.962 278.412 322.743 281.526C323.739 283.195 323.22 283.951 321.7 284.826C316.285 287.919 315.962 287.921 311.326 283.869C309.176 281.879 306.812 280.133 304.276 278.663C306.348 281.358 308.462 284.034 310.47 286.78C312.478 289.525 312.305 289.406 309.456 290.996C308.221 291.692 306.996 292.408 305.712 292.978C303.439 294.031 302.569 293.873 301.146 291.819C299.365 289.142 297.796 286.335 296.162 283.578C293.172 278.623 290.487 273.489 287.116 268.784C286.032 267.279 286.143 266.232 287.929 265.519C288.171 265.421 288.393 265.292 288.624 265.184C297.914 260.663 294.686 260.444 302.472 266.491C303.69 267.66 305.064 268.655 306.555 269.447C307.536 268.505 306.598 267.784 306.273 267.1C305.197 264.909 304.036 262.757 302.865 260.616C302.09 259.213 302.368 258.138 303.78 257.426C306.077 256.28 308.414 255.197 310.711 254.04C311.965 253.408 312.868 253.858 313.812 254.735C320.442 261.015 327.083 267.275 333.735 273.515C334.115 273.866 334.47 274.243 334.797 274.644C336.611 276.865 336.529 277.227 334.007 278.638C327.929 282.025 327.929 282.025 323.341 276.925C321.724 275.115 320.087 273.315 318.46 271.504L317.739 272.037Z" fill="#64B25A"/>
<path d="M278.722 354.593C278.556 354.904 278.368 355.201 278.158 355.483C277.99 355.677 277.784 355.834 277.554 355.946C275.266 357.124 273.093 358.71 270.664 359.343C267.963 360.042 266.648 357.055 264.576 355.93C263.346 355.263 262.279 354.289 261.104 353.51C260.47 353.098 259.723 352.621 259.029 353.31C258.336 353.999 258.993 354.724 259.383 355.295C260.689 357.045 262.028 358.765 263.408 360.475C264.556 361.898 264.381 363.006 262.697 363.805C260.15 364.986 257.752 367.617 255.171 367.269C252.591 366.921 251.757 363.426 250.127 361.324C245.302 354.959 240.825 348.406 235.713 342.231C233.828 339.967 233.909 339.646 236.492 338.289C241.5 335.674 246.497 333.049 251.564 330.55C256.263 328.219 258.628 328.832 261.899 332.993C263.629 335.233 265.349 337.472 267.047 339.731C267.902 340.855 268.943 342.005 268.727 343.497C268.406 345.849 269.675 347.016 271.469 348.03C273.261 349.032 274.993 350.14 276.654 351.347C277.2 351.721 277.664 352.202 278.019 352.759C278.375 353.317 278.614 353.941 278.722 354.593Z" fill="#64B15C"/>
<path d="M361.907 250.696C364.215 253.107 366.566 255.476 368.821 257.937C370.357 259.62 370.336 260.057 368.374 261.097C361.701 264.584 362.706 265.109 358.014 259.631C352.875 253.716 347.536 247.919 342.885 241.652C341.318 239.532 341.325 239.262 343.648 237.898C343.976 237.698 344.314 237.509 344.703 237.343C351.182 234.111 349.751 234.355 355.097 237.5C357.768 239.032 360.449 240.554 363.141 242.066C363.235 242.069 363.37 242.072 363.962 242.088C361.378 239.473 358.975 237.143 356.678 234.712C354.776 232.687 354.806 232.324 357.311 231.162C364.427 227.864 362.363 227.249 367.575 233.146C372.503 238.737 377.421 244.342 382.329 249.96C384.347 252.311 384.337 252.685 381.553 254.172C375.13 257.655 375.13 257.644 368.751 253.838C366.703 252.6 364.628 251.367 362.525 250.14L361.907 250.696Z" fill="#60B157"/>
<path d="M278.136 306.879L277.083 307.413C275.828 308.057 274.593 308.763 273.308 309.395C269.362 311.184 269.464 312.476 265.838 308.347C265.452 307.748 264.848 307.322 264.155 307.158C263.461 306.995 262.731 307.107 262.117 307.47C260.305 308.38 260.098 308.759 260.993 310.727C261.266 311.309 261.57 311.876 261.905 312.425C262.905 313.948 262.554 315.062 260.932 315.852C258.972 316.841 257.003 317.767 255.073 318.819C254.802 318.996 254.497 319.114 254.178 319.168C253.859 319.221 253.532 319.207 253.219 319.128C252.905 319.048 252.611 318.904 252.356 318.706C252.101 318.507 251.89 318.257 251.736 317.972C251.025 317.062 250.41 316.081 249.899 315.044C246.895 308.214 243.603 301.542 240.022 295.029C239.526 294.132 239.124 293.175 238.712 292.239C238.553 291.994 238.451 291.715 238.414 291.425C238.377 291.134 238.407 290.839 238.5 290.562C238.593 290.284 238.748 290.032 238.952 289.822C239.157 289.613 239.406 289.452 239.682 289.353C243.716 287.378 247.76 285.404 251.786 283.357C253.24 282.625 254.155 283.418 255.162 284.308C260.645 289.359 266.171 294.38 271.666 299.411C273.474 301.059 275.264 302.718 277.037 304.386C277.384 304.702 277.661 305.087 277.851 305.516C278.04 305.946 278.138 306.41 278.136 306.879Z" fill="#64B15A"/>
<path d="M411.284 249.364C413.194 249.414 415.008 250.208 416.342 251.575C421.512 257.107 426.734 262.588 431.808 268.211C434.072 270.724 433.64 273.333 430.78 274.943C426.093 277.598 421.338 280.125 416.552 282.6C413.991 283.927 413.401 283.807 411.574 281.701C405.41 274.822 399.282 267.914 393.189 260.975C391.694 259.283 391.702 258.586 393.441 257.675C398.564 255.011 403.747 252.474 408.929 249.947C409.687 249.656 410.478 249.46 411.284 249.364Z" fill="#64B259"/>
<path d="M285.166 321.631C285.187 322.828 284.355 323.222 283.543 323.669C281.718 324.661 279.885 325.549 278.081 326.542C277.258 326.999 275.92 327.255 276.766 328.722C277.482 329.958 278.346 330.719 279.856 329.843C281.366 328.967 283.02 328.168 284.673 327.39C287.926 325.852 287.936 325.863 290.058 328.632C290.37 329.036 290.681 329.449 290.982 329.863C293.05 332.714 293.05 332.724 290.053 334.383C288.59 335.19 287.117 335.984 285.634 336.763C284.654 337.289 283.775 337.89 284.699 339.12C285.433 340.106 286.051 341.516 287.726 340.676C289.402 339.835 291.132 338.872 292.84 337.981C293.989 337.397 295.137 336.824 296.296 336.261C296.885 335.975 297.61 335.692 298.085 336.246C299.588 338.001 301.112 339.777 302.394 341.661C302.985 342.509 302.025 343.045 301.381 343.413C299.355 344.535 297.29 345.594 295.244 346.674C291.606 348.597 287.929 350.456 284.341 352.463C284.067 352.682 283.748 352.839 283.407 352.921C283.065 353.004 282.71 353.011 282.366 352.942C282.022 352.872 281.697 352.728 281.414 352.519C281.132 352.311 280.898 352.043 280.731 351.734C274.701 343.715 268.635 335.72 262.535 327.748C261.318 326.177 261.736 325.273 263.328 324.462C268.829 321.642 274.291 318.769 279.802 315.98C281.793 314.992 282.875 315.364 283.875 317.293C284.568 318.647 285.006 320.118 285.166 321.631Z" fill="#65B05B"/>
<path d="M230.736 294.662C231.516 294.64 232.289 294.814 232.985 295.168C233.681 295.523 234.276 296.046 234.717 296.69C237.383 300.149 240.122 303.559 242.597 307.148C245.072 310.738 244.429 312.271 240.803 314.152C238.864 315.141 236.883 316.129 234.965 317.119C232.254 318.577 232.264 318.609 234.022 320.973C235.097 322.416 236.193 323.838 237.332 325.219C238.471 326.601 238.244 327.323 236.804 328.325C229.515 333.095 229.403 333.009 224.196 326.124C219.643 320.058 215.462 313.74 210.612 307.905C208.434 305.29 208.555 305.033 211.58 303.469C216.25 301.054 220.95 298.67 225.64 296.287C227.207 295.396 228.942 294.843 230.736 294.662Z" fill="#63B05B"/>
<path d="M327.7 291.607C328.128 291.587 328.554 291.677 328.937 291.869C329.32 292.061 329.647 292.349 329.886 292.704C330.633 293.752 331.187 294.925 331.522 296.168C331.68 296.485 331.769 296.833 331.782 297.188C331.795 297.542 331.733 297.896 331.6 298.225C331.467 298.553 331.265 298.85 331.008 299.095C330.751 299.34 330.445 299.528 330.111 299.646C328.373 300.474 326.695 301.428 325.017 302.372C324.215 302.83 322.859 303.002 323.486 304.475C324.113 305.947 325.351 306.312 326.921 305.542C328.764 304.633 330.608 303.714 332.381 302.689C333.912 301.814 335.005 302.186 336.042 303.481C340.513 309.068 340.468 308.016 334.803 311.103C334.128 311.47 333.413 311.773 332.696 312.15C331.81 312.657 330.705 313.138 331.523 314.469C332.341 315.801 333.029 316.942 334.853 315.96C337.342 314.621 339.921 313.451 342.38 312.059C342.657 311.841 342.978 311.686 343.322 311.606C343.665 311.526 344.022 311.521 344.367 311.594C344.712 311.666 345.037 311.814 345.319 312.025C345.601 312.237 345.834 312.508 345.999 312.819C349.865 318.119 350.708 317.299 344.652 320.625C340.485 322.908 336.218 325.022 332.081 327.357C330.256 328.35 329.048 328.048 327.809 326.487C321.823 318.934 315.807 311.408 309.764 303.909C308.756 302.687 308.026 301.565 309.997 300.546C315.478 297.735 320.949 294.883 326.43 292.073C326.839 291.883 327.264 291.727 327.7 291.607Z" fill="#63B159"/>
<path d="M370.404 295.695C367.061 290.71 363.697 285.745 360.396 280.73C357.275 276 356.27 276.64 362.033 273.785C367.405 271.138 367.301 271.135 370.117 276.398C373.875 283.432 377.77 290.386 381.591 297.39C383.11 300.154 383.105 300.341 380.372 301.84C377.64 303.339 374.62 304.727 371.783 306.223C371.235 306.566 370.588 306.718 369.944 306.654C369.3 306.59 368.696 306.315 368.226 305.87C360.511 299.43 352.742 293.102 345.06 286.642C342.74 284.689 342.936 283.55 345.791 282.117C352.914 278.549 350.796 278.025 356.682 283.597C361.076 287.746 365.396 291.966 369.748 296.145L370.404 295.695Z" fill="#66B15C"/>
<path d="M410.892 285.53C404.566 288.838 398.599 291.979 392.62 295.172C391.069 295.994 390.219 295.109 389.363 294.047C385.668 289.791 381.966 285.535 378.257 281.279C375.744 278.364 373.209 275.48 370.739 272.504C369.027 270.379 369.106 270.122 371.573 268.834C376.465 266.289 381.376 263.776 386.327 261.347C388.697 260.182 389.869 260.691 391.141 263.334C392.73 266.62 392.444 267.611 389.963 268.638C388.461 269.329 387 270.107 385.587 270.967C384.785 271.404 383.856 271.962 384.494 273.019C385.023 273.864 385.707 274.756 386.992 274.124C388.593 273.313 390.202 272.516 391.817 271.733C394.977 270.183 395.05 270.153 397.219 272.726C400.356 276.448 401.85 276.154 395.856 279.128C395.171 279.474 394.476 279.809 393.811 280.197C392.977 280.675 391.596 280.972 392.486 282.357C393.235 283.52 394.086 284.811 395.888 283.87C398.397 282.574 400.945 281.351 403.444 280.043C403.703 279.857 403.997 279.726 404.308 279.657C404.619 279.587 404.941 279.582 405.255 279.641C405.568 279.699 405.866 279.821 406.131 279.998C406.396 280.175 406.623 280.404 406.797 280.671C408.047 282.16 409.702 283.295 410.892 285.53Z" fill="#5FB058"/>
<path d="M337.296 241.028C337.721 240.99 338.147 241.072 338.527 241.266C338.907 241.46 339.224 241.758 339.441 242.124C340.182 243.177 340.761 244.335 341.161 245.559C341.328 245.838 341.427 246.152 341.45 246.477C341.474 246.801 341.421 247.126 341.296 247.426C341.17 247.727 340.977 247.993 340.73 248.205C340.483 248.416 340.19 248.567 339.874 248.645C338.117 249.431 336.409 250.322 334.711 251.256C334.004 251.643 332.77 251.912 333.486 253.158C334.062 254.213 334.839 255.096 336.283 254.354C338.106 253.424 340.03 252.632 341.784 251.575C343.537 250.519 344.924 250.784 346.046 252.414C346.417 252.934 346.873 253.393 347.266 253.902C349.376 256.702 349.375 256.744 346.37 258.34C345.126 259.004 343.851 259.615 342.606 260.321C341.857 260.738 340.765 261.126 341.411 262.297C342.056 263.468 342.819 264.517 344.494 263.698C346.168 262.879 347.747 262.171 349.368 261.392C354.149 259.094 354.15 259.083 357.389 263.265C359.129 265.515 359.157 265.63 356.732 266.929C351.976 269.477 347.241 271.995 342.384 274.416C339.465 275.889 338.897 275.75 336.8 273.231C331.242 266.493 325.72 259.725 320.234 252.927C318.592 250.898 318.682 250.234 320.895 249.107C325.817 246.594 330.798 244.166 335.759 241.758C336.299 241.387 336.907 241.185 337.296 241.028Z" fill="#5FB158"/>
<path d="M307.136 339.289C306.308 339.276 305.495 339.071 304.76 338.691C304.025 338.311 303.388 337.766 302.898 337.099C297.773 330.653 292.616 324.238 287.597 317.722C285.847 315.441 286.156 313.182 288.606 311.749C293.484 308.902 298.562 306.383 303.57 303.758C304.088 303.461 304.701 303.377 305.279 303.524C305.858 303.671 306.356 304.037 306.669 304.545C307.158 305.14 307.597 305.774 307.982 306.441C309.749 309.659 309.499 310.484 306.284 312.137C304.682 312.969 303.06 313.737 301.418 314.495C299.776 315.253 299.462 316.139 300.634 317.459C303.554 320.717 306.443 323.996 309.033 327.526C309.927 328.745 311.09 328.401 312.145 327.836C314.432 326.679 316.789 325.607 318.986 324.291C320.803 323.205 321.967 323.641 323.216 325.192C327.547 330.577 327.257 329.707 321.889 332.613C318.376 334.518 314.835 336.339 311.293 338.171C310.055 338.961 308.603 339.352 307.136 339.289Z" fill="#63B15B"/>
<path d="M277.373 283.525C276.212 280.999 275.04 278.472 273.9 275.937C272.76 273.401 272.735 273.151 275.328 271.814C277.036 270.913 278.814 270.148 280.532 269.267C281.997 268.494 282.991 269.082 283.78 270.298C284.511 271.516 285.012 272.858 285.258 274.257C286.071 278.157 287.041 282.03 287.625 285.976C288.087 289.302 289.581 292.4 291.896 294.832C293.026 295.768 293.9 296.975 294.436 298.341C292.056 300.285 289.096 301.321 286.428 302.77C286.099 302.967 285.712 303.043 285.333 302.984C284.954 302.925 284.608 302.734 284.356 302.445C284.256 302.366 284.167 302.273 284.093 302.168C279 293.716 269.834 290.721 262.134 285.727C260.68 284.9 259.367 283.848 258.243 282.61C257.316 281.463 257.351 280.507 258.772 279.858C260.992 278.876 263.232 277.894 265.435 276.777C266.73 276.145 267.608 276.76 268.535 277.523C271.214 279.672 273.924 281.823 276.621 284.046L277.373 283.525Z" fill="#65B15C"/>
<path d="M400.969 243.76C398.712 245.781 396.101 246.597 393.799 247.951C392.268 248.847 391.445 247.682 390.597 246.724C386.847 242.466 383.114 238.209 379.398 233.953C378.863 233.398 378.361 232.812 377.894 232.198C376.792 230.599 375.636 230.652 373.99 231.566C370.952 233.244 367.397 231.581 366.207 228.191C365.809 227.079 366.376 226.48 367.24 226.035C372.721 223.214 378.084 220.141 383.782 217.773C385.958 216.862 389.946 220.637 389.439 222.953C389.366 223.265 389.223 223.556 389.02 223.803C388.817 224.05 388.56 224.247 388.268 224.378C387.392 224.876 386.516 225.373 385.345 225.997C390.444 232.245 396.235 237.491 400.969 243.76Z" fill="#69B35C"/>
<path d="M331.541 289.856C333.836 287.971 336.592 287.17 339.02 285.788C339.403 285.541 339.867 285.455 340.314 285.546C340.76 285.637 341.153 285.899 341.409 286.276C342.601 287.628 343.835 288.939 344.995 290.311C349.863 296.116 354.72 301.934 359.566 307.766C360.141 308.456 360.695 309.157 361.227 309.889C361.386 310.052 361.503 310.252 361.565 310.471C361.628 310.69 361.635 310.922 361.586 311.144C361.537 311.367 361.433 311.574 361.284 311.747C361.135 311.919 360.945 312.052 360.731 312.132C358.719 313.265 356.684 314.359 354.625 315.415C352.854 316.315 351.746 315.34 350.721 313.992C346.391 308.576 341.976 303.22 337.709 297.754C335.687 295.153 332.997 293.045 331.541 289.856Z" fill="#62B05A"/>
<path d="M253.564 345.951C252.451 345.995 250.186 343.513 249.907 342.247C249.628 340.982 250.663 340.79 251.371 340.362C252.86 339.465 254.013 339.9 254.86 341.347C254.989 341.569 255.161 341.76 255.28 341.982C255.687 342.72 256.658 343.349 256.207 344.304C255.678 345.455 254.326 345.461 253.564 345.951Z" fill="#F0F9ED"/>
<path d="M251.895 293.529C253.475 295.151 255.066 296.732 256.624 298.394C257.14 298.949 257.768 299.589 256.804 300.281C256.642 300.441 256.445 300.561 256.23 300.632C256.014 300.704 255.785 300.725 255.56 300.694C255.334 300.663 255.119 300.58 254.931 300.453C254.743 300.326 254.586 300.158 254.473 299.961C253.275 298.058 252.182 296.095 251.037 294.152L251.895 293.529Z" fill="#E1F5DD"/>
<path d="M420.51 270.391C417.032 272.983 416.989 273.013 414.634 270.415C412.279 267.816 410.09 265.242 407.817 262.656C407.131 261.869 406.33 261.078 407.561 260.123C408.484 259.419 409.45 258.664 410.563 259.847L420.51 270.391Z" fill="#F5FCF3"/>
<path d="M223.593 306.996C227.399 304.599 227.71 304.607 229.682 307.539C230.223 308.354 231.636 309.192 230.18 310.391C228.724 311.591 227.11 311.663 225.94 310.281C225.145 309.262 224.455 308.204 223.593 306.996Z" fill="#EDF9EA"/>
<path d="M236.86 151.934C239.34 150.958 240.684 151.253 241.5 153.032C241.693 153.377 241.747 153.783 241.652 154.166C241.557 154.55 241.32 154.883 240.989 155.098C240.318 155.705 239.619 155.801 239.015 155.047C238.251 154.008 237.169 153.241 236.86 151.934Z" fill="#E1E1E1"/>
<path d="M184.724 177.662C184.598 178.531 183.924 178.846 183.184 178.952C183 178.994 182.81 178.994 182.627 178.953C182.443 178.911 182.271 178.829 182.124 178.713C181.976 178.596 181.857 178.448 181.774 178.279C181.692 178.111 181.648 177.925 181.646 177.737C181.662 177.145 182.276 176.715 182.963 176.649C183.331 176.558 183.719 176.612 184.048 176.801C184.376 176.989 184.618 177.298 184.724 177.662Z" fill="#C7C7C7"/>
<path d="M231.806 155.472C231.897 156.347 231.244 156.673 230.67 156.793C230.48 156.83 230.285 156.827 230.097 156.784C229.909 156.741 229.731 156.659 229.577 156.544C229.422 156.428 229.294 156.281 229.199 156.113C229.105 155.944 229.047 155.758 229.029 155.566C228.899 154.97 229.415 154.713 229.958 154.613C230.317 154.486 230.712 154.504 231.057 154.665C231.403 154.825 231.672 155.115 231.806 155.472Z" fill="#CBCAC9"/>
<path d="M224.459 160.459C224.096 161.239 223.674 161.477 223.155 161.464C222.21 161.439 222.002 160.654 221.969 159.926C221.936 159.198 222.425 159.159 222.96 159.38C223.494 159.602 224.245 159.913 224.459 160.459Z" fill="#A6A6A6"/>
<path d="M211.223 176.003C211.526 176.059 211.821 176.154 212.099 176.286C212.611 176.601 213.323 176.775 213.375 177.566C213.361 178.096 212.945 178.116 212.61 178.232C211.561 178.579 211.258 177.844 211.008 177.089C210.902 176.764 210.59 176.371 211.223 176.003Z" fill="#D1D1D1"/>
</g>
<defs>
<clipPath id="clip0_447_306">
<rect width="1039.31" height="573.604" fill="white" transform="translate(-182.045 6.59509) rotate(1.49396)"/>
</clipPath>
</defs>
</svg>
