<svg width="1054" height="601" viewBox="0 0 1054 601" fill="none" xmlns="http://www.w3.org/2000/svg">
<path d="M593.716 492.394C587.323 486.826 581.487 480.649 576.29 473.95C574.276 471.423 574.277 471.392 571.54 473.067C564.09 477.636 556.741 482.3 549.19 486.762C541.639 491.223 533.54 493.945 524.676 493.713C511.075 493.296 499.819 487.866 491.141 477.345C485.335 470.299 479.688 463.122 474.019 456.007C473.385 455.221 472.718 454.466 471.8 453.391C469.345 457.504 466.608 461.442 463.61 465.178C453.668 477.712 441.201 488.015 427.019 495.42C415.781 501.228 406.32 509.963 399.635 520.702C394.693 528.393 390.396 536.423 386.233 544.54C385.896 545.146 385.724 545.83 385.733 546.523C385.742 547.217 385.933 547.896 386.286 548.493C387.709 551.369 388.92 554.353 390.311 557.239C394.523 565.99 394.908 574.766 390.663 583.609L387.546 583.528C386.65 582.381 387.261 581.284 387.755 580.278C391.349 572.874 389.745 565.772 386.675 558.694C378.2 539.173 366.539 521.773 352.651 505.667C336.257 486.72 317.397 471.056 295.173 459.589C274.8 449.006 252.651 442.27 229.836 439.719C225.751 439.258 221.706 438.467 217.565 438.962C209.034 439.894 203.267 445.327 196.907 451.525C202.981 451.892 208.328 452.218 213.576 452.75C241.862 455.457 269.199 464.387 293.629 478.901C313.548 490.796 331.401 505.85 346.488 523.475C360.865 540.168 372.684 558.902 381.558 579.066C382.147 580.402 383.276 581.773 382.101 583.375L378.983 583.294C375.8 579.342 374.263 574.498 371.861 570.12C363.502 554.897 354.294 540.327 342.931 527.064C326.799 508.352 307.61 492.511 286.181 480.214C278.48 475.821 270.42 472.09 262.087 469.062C260.027 468.281 257.967 467.541 255.906 466.822C255.04 466.529 254.196 466.195 253.308 465.953C252.215 465.673 251.155 465.276 250.146 464.768C232.903 460.471 215.551 457.169 197.697 456.725C169.754 455.996 144.343 463.465 121.463 479.516C119.461 480.92 117.319 482.122 115.427 483.674C115.163 483.896 114.98 484.198 114.906 484.534C115.753 485.919 117.429 485.858 118.804 486.185C135.195 490.065 150.483 496.765 165.404 504.392C170.812 507.143 171.168 509.846 166.712 514.024C157.252 522.74 148.268 531.957 139.798 541.638C136.891 545.025 135.158 545.292 131.027 543.021C119.391 536.645 107.532 530.824 94.8818 526.647C87.6556 524.337 80.2826 522.516 72.8124 521.194C71.8094 520.966 70.7651 520.992 69.775 521.272C68.785 521.551 67.8808 522.074 67.145 522.793C49.1461 539.097 29.5124 553.486 10.9883 569.194C9.05964 570.898 6.92569 572.355 4.63597 573.531L0.0013141 573.41C2.99109 570.015 6.66745 567.407 10.1014 564.522C26.1453 551.017 42.9247 538.415 58.7669 524.665C72.2895 512.934 85.5997 500.98 99.7564 490.056C110.741 481.556 122.027 473.458 134.352 466.948C150.188 458.504 167.734 453.763 185.667 453.083C188.967 452.961 191.494 452.143 193.624 449.454C195.66 447.13 197.868 444.963 200.229 442.971C206.816 436.83 214.654 433.739 223.557 435.26C229.023 436.224 231.8 434.175 234.233 429.809C236.786 425.207 239.596 420.736 242.14 416.123C244.087 412.698 245.245 408.882 245.527 404.952C245.809 401.023 245.21 397.08 243.772 393.413C241.093 386.064 238.185 378.771 235.286 371.489C228.396 354.173 221.296 336.944 213.439 320.039C209.205 310.923 205.832 301.497 204.733 291.403C203.896 283.655 204.752 275.951 205.948 268.339C208.216 253.975 207.82 239.625 206.376 225.248C205.864 220.128 205.405 215 205.29 209.85C205.13 203.128 206.316 196.441 208.777 190.183C211.517 183.205 213.039 175.892 214.384 168.576C215.149 164.374 213.928 160.13 213.674 155.912C213.2 148.985 212.434 142.081 211.928 135.153C210.713 119.128 221.424 113.532 232.855 113.83C240.691 114.034 247.61 117.074 253.658 122.005C257.603 125.291 261.07 129.113 263.958 133.359C265.712 135.879 265.744 135.859 268.399 134.515C281.312 127.811 295.011 122.907 308.365 117.224C308.61 117.162 308.863 117.137 309.116 117.15C310.87 116.863 311.176 117.911 311.14 119.283C306.998 123.012 301.553 124.045 296.672 126.184C288.551 129.768 280.155 132.71 272.349 136.988C271.167 137.644 269.75 138.137 269.522 139.691C270.325 140.814 271.028 140.157 271.601 139.745C280.75 133.807 291.131 130.532 301.068 126.288C322.709 117.047 344.518 108.163 366.25 99.0697C381.907 92.5456 397.582 86.022 413.273 79.4988C421.945 75.9294 430.354 71.7085 439.388 69.0013C456.408 63.9027 470.954 67.5576 483.354 80.5466C498.891 96.8306 514.887 112.669 530.691 128.7C537.094 135.2 543.432 141.771 549.823 148.301C561.424 160.16 573.006 172.043 584.571 183.95C598.041 197.757 611.629 211.453 625.173 225.189C640.521 240.761 655.742 256.444 671.111 271.996C684.283 285.254 697.46 298.347 710.366 311.858C712.755 314.364 715.208 316.799 717.565 319.325C727.353 329.979 728.558 347.179 713.183 357.748C708.513 360.965 703.734 363.991 698.905 366.953C675.332 381.417 651.731 395.869 628.103 410.31C606.581 423.475 585.055 436.64 563.527 449.804C558.803 452.676 554.17 455.716 549.457 458.599C540.908 463.825 531.822 466.894 521.615 465.942C513.648 465.193 506.645 462.577 501.007 456.68C492.282 447.541 484.757 437.414 476.807 427.66C465.238 413.528 453.697 399.38 442.184 385.215C429.127 369.117 416.042 353.07 402.927 337.075C390.127 321.465 377.583 305.644 364.763 290.044C353.807 276.739 343.062 263.274 332.212 249.878C318.3 232.69 304.452 215.441 290.465 198.304C286.908 193.947 283.66 189.329 279.377 184.86C278.769 187.839 280 189.712 281.43 191.496C290.372 202.679 299.507 213.649 308.389 224.778C324.875 245.35 341.636 265.742 358.049 286.334C373.617 305.821 389.44 325.107 405.252 344.404C416.832 358.515 428.072 372.919 439.598 387.081C451.125 401.244 462.459 415.234 473.937 429.27C480.044 436.709 486.394 444.028 492.066 451.84C507.541 473.291 529.879 473.624 548.765 462.397C573.966 447.456 598.851 431.852 623.854 416.521C654.148 397.963 684.388 379.341 714.574 360.655C721.559 356.345 727.009 350.726 728.471 342.112C729.439 336.491 728.064 331.422 725.594 326.439C724.814 324.87 723.404 323.502 723.862 321.486C724.123 321.057 724.521 320.729 724.991 320.552C725.461 320.376 725.977 320.363 726.456 320.514C730.548 323.106 732.169 327.516 733.444 331.667C738.345 347.881 736.688 363.176 725.727 376.772C722.599 380.663 718.435 383.248 714.221 385.717C709.015 388.784 704.028 392.21 698.772 395.182C695.407 397.098 692.71 400 691.047 403.497C687.011 411.503 683.679 419.652 684.862 428.938C685.079 430.586 684.775 432.252 682.694 432.323C680.925 432.37 680.372 430.827 680.338 429.35C680.13 425.111 680.306 420.863 680.867 416.656C681.065 415.445 681.762 414.236 680.969 412.728C678.788 413.423 676.695 414.366 674.729 415.54C658.111 425.151 642.136 435.633 628.348 449.176C618.007 459.305 609.154 470.596 602.679 483.633C602.245 484.706 601.669 485.715 600.968 486.636C598.476 488.484 597.536 492.255 593.716 492.394Z" fill="#020303"/>
<path d="M703.181 591.749L674.625 591.004C674.022 589.408 675.142 588.325 675.838 587.147C684.44 572.719 694.846 559.649 706.14 547.278C721.33 530.612 738.995 516.384 758.516 505.095C779.242 493.084 801.561 485.742 825.184 481.877C837.384 480.054 849.707 479.183 862.043 479.271C883.551 479.135 903.496 484.668 921.187 497.337C924.739 499.884 928.335 502.349 931.888 504.895C932.908 505.629 934.314 506.362 933.89 507.859C933.546 509.108 932.067 509.163 930.97 509.395C923.034 511.039 915.127 512.808 907.238 514.651C896.776 517.071 886.628 520.218 876.476 523.509C872.019 524.953 871.852 525.78 874.715 529.63C878.493 534.72 883.101 539.041 887.443 543.594C894.527 551.058 901.612 558.522 907.994 566.612C909.816 568.895 911.688 568.882 914.087 567.811C926.564 562.292 939.493 557.86 952.731 554.562C963.863 551.962 975.034 549.456 986.449 548.391C987.333 548.241 988.239 548.268 989.114 548.469C989.988 548.67 990.814 549.042 991.545 549.564C1007.22 561.255 1022.08 573.997 1036.03 587.702C1037.3 588.979 1038.36 590.453 1039.15 592.068L1038.93 600.558L916.997 597.377C912.693 594.146 909.984 589.562 906.615 585.564C896.68 573.783 886.713 562.033 876.266 550.696C871.038 545.038 866.173 538.994 860.783 533.53C858.83 531.473 856.352 529.988 853.616 529.235C835.28 524.192 816.783 519.727 798.423 514.756C795.842 514.065 793.898 515.251 791.913 516.375C780.6 522.752 769.764 529.942 759.491 537.886C740.212 552.684 722.694 569.644 707.281 588.435C706.169 589.822 704.771 590.953 703.181 591.749Z" fill="black"/>
<path d="M357.379 582.731L137.399 576.993C138.225 572.855 141.73 570.441 144.218 567.542C156.308 553.708 168.792 540.224 181.668 527.09C192.993 515.479 204.966 504.561 216.696 493.387C220.215 490.047 224.139 487.092 227.872 483.924C229.089 482.792 230.581 481.998 232.2 481.621C233.818 481.244 235.508 481.296 237.1 481.773C258.773 487.103 279.141 496.772 296.972 510.195C306.007 516.799 314.45 524.176 322.207 532.243C335.89 546.638 347.949 562.332 356.904 580.202C357.31 580.982 357.872 581.766 357.379 582.731Z" fill="black"/>
<path d="M1039.18 592.016C1037.79 591.074 1036.57 589.915 1035.55 588.584C1030.07 582.805 1023.95 577.747 1018.06 572.405C1009.41 564.557 1000.19 557.464 990.984 550.319C990.531 549.878 989.988 549.543 989.391 549.335C988.795 549.127 988.16 549.052 987.532 549.116C976.754 550.46 966.064 552.431 955.516 555.02C943.041 558.105 930.759 561.726 919.026 567.014C916.921 567.999 914.699 568.669 912.615 569.644C910.53 570.619 909.145 569.918 907.918 568.315C899.299 557.079 889.275 547.105 879.507 536.888C876.834 534.094 874.597 530.968 872.02 528.103C870.525 526.432 870.712 525.22 872.615 524.022C873.614 523.475 874.672 523.046 875.768 522.742C893.258 516.888 911.126 512.233 929.248 508.809C930.617 508.543 931.968 508.204 933.599 507.831C932.345 506.082 930.545 505.318 929.045 504.218C921.98 498.874 914.479 494.132 906.621 490.042C898.712 486.081 890.245 483.349 881.512 481.942C877.318 481.402 873.099 481.073 868.872 480.957C867.2 481.027 865.529 480.815 863.928 480.329C863.214 480.023 862.421 479.955 861.666 480.135C858.615 481.095 855.532 480.515 852.463 480.539C844.536 480.62 836.624 481.233 828.779 482.376C819.281 483.701 809.888 485.698 800.672 488.35C794.133 490.259 787.703 492.41 781.398 494.929C770.3 499.353 759.699 504.932 749.768 511.574C741.751 516.865 734.064 522.641 726.751 528.869C722.081 532.907 717.482 537.009 713.085 541.314C705.926 548.468 699.235 556.078 693.056 564.095C686.232 572.579 680.07 581.575 674.625 591.004L671.507 590.923C670.405 588.128 672.45 586.268 673.758 584.358C681.19 572.919 689.328 561.955 698.126 551.53C711.693 535.68 727.351 521.746 744.669 510.11C770.267 492.806 799.625 481.86 830.303 478.183C837.793 477.256 845.338 477.036 853.471 476.188C847.705 469.601 843.142 462.764 836.994 457.248C831.915 452.665 825.699 451.755 819.313 452.212C780.206 454.904 745.772 469.407 715.002 493.343C695.334 508.599 678.615 527.315 665.665 548.573C662.444 553.702 659.834 559.19 657.887 564.925C656.114 570.367 656.503 576.283 658.974 581.445C660.301 584.412 662.759 587.045 662.28 590.672L659.162 590.591C657.654 587.432 656.059 584.395 654.654 581.229C653.365 578.485 652.649 575.508 652.549 572.478C652.45 569.449 652.968 566.431 654.074 563.608C655.192 560.612 656.475 557.661 657.892 554.776C658.203 554.237 658.358 553.622 658.337 553C658.316 552.378 658.122 551.775 657.775 551.258C652.802 542.58 647.693 533.931 641.59 525.952C639.121 522.81 636.1 520.144 632.675 518.087C629.603 516.216 626.421 514.532 623.146 513.044C612.17 507.993 602.199 500.997 593.716 492.394C596.506 491.063 597.769 488.112 600.113 486.322C600.341 486.557 600.493 486.855 600.55 487.177C600.606 487.499 600.565 487.831 600.43 488.129C598.606 491.482 600.293 493.387 602.849 495.471C609.671 501.036 616.764 506.181 624.945 509.462C636.584 514.133 644.929 522.326 651.309 532.84C653.642 536.685 656.07 540.482 658.35 544.368C660.003 547.188 660.626 547.214 662.225 544.521C673.626 525.238 688.629 508.981 705.518 494.562C722.382 480.14 741.476 468.553 762.056 460.254C776.145 454.558 790.896 450.659 805.96 448.65C810.218 448.075 810.262 447.993 808.317 444.022C805.421 438.406 803.364 432.397 802.21 426.185C801.161 419.752 802.091 413.6 803.903 407.512C811.501 382.119 819.409 356.817 829.522 332.27C830.943 328.823 831.787 325.174 832.992 321.639C836.184 311.93 836.841 301.567 834.9 291.533C831.876 274.733 831.518 257.753 832.678 240.771C833.112 234.491 834.21 228.28 833.169 221.951C832.65 218.517 831.787 215.143 830.593 211.881C828.223 205.89 826.523 199.656 825.525 193.291C825.226 191.203 824.518 189.24 822.54 188.139C810.643 181.371 808.86 170.395 810.031 158.197C810.309 155.64 810.722 153.099 811.269 150.586C812.367 145.166 815.729 141.458 820.386 138.73C821.22 138.242 822.49 137.818 822.262 136.564C822.035 135.31 820.865 135.114 819.928 134.777C817.196 133.787 814.288 133.375 811.388 133.568C808.489 133.761 805.661 134.554 803.084 135.898C798.652 137.974 794.685 140.922 791.419 144.568C779.282 158.591 771.588 174.518 770.164 193.24C769.567 201.367 769.514 209.362 772.659 217.16C774.124 220.807 773.593 224.817 772.486 228.594C769.063 240.224 766.602 252.066 764.285 263.933C763.078 270.328 760.046 274.96 754.042 277.902C745.204 282.184 737.372 288.288 731.062 295.812C730.107 296.952 728.786 298.54 727.208 297.272C725.629 296.003 726.397 294.048 727.461 292.744C730.99 288.474 735.009 284.635 739.437 281.306C743.914 278.054 748.627 275.139 753.536 272.585C755.477 271.513 758.611 270.17 757.624 267.742C756.637 265.315 753.717 267.245 751.711 267.588C748.294 268.237 745.124 269.766 741.821 270.835C740.363 271.316 738.485 271.933 737.732 270.125C736.978 268.317 738.659 267.279 740.049 266.618C745.071 264.243 750.201 262.1 755.905 262.301C758.773 262.375 760.087 261.432 760.394 258.445C760.914 254.232 761.742 250.062 762.871 245.969C763.612 242.958 763.268 239.783 761.899 237.001C758.14 228.813 754.003 220.802 750.117 212.694C739.524 190.642 731.171 167.61 720.336 145.677C715.898 136.676 710.696 128.072 704.785 119.961C695.829 107.696 688.071 94.5686 678.532 82.7461C669.467 71.4559 660.407 60.0306 649.63 50.2036C647.578 48.4376 645.311 46.9389 642.883 45.7433C635.96 42.0688 629.518 43.0759 623.369 47.5845C616.828 52.3741 614.035 58.5717 615.591 66.7128C617.6 77.0079 621.456 86.6233 627.857 94.766C637.599 107.207 645.219 120.831 652.416 134.765C656.969 143.609 662.124 152.062 667.259 160.515C669.569 164.384 671.319 168.561 672.457 172.921C676.106 186.469 680.496 199.806 685.609 212.873C687.558 217.904 687.622 217.854 692.507 215.922C704.475 211.191 716.808 208.372 729.789 209.054C730.433 209.071 731.078 209.088 731.711 209.104C733.484 209.327 735.866 209.306 735.636 211.723C735.414 213.87 733.057 213.351 731.434 213.361C716.155 213.482 701.488 216.479 687.811 223.349C677.116 228.727 665.821 232.811 655.56 239.063C651.228 241.695 651.222 241.529 654.66 245.279C664.355 255.93 675.126 265.57 684.831 276.222C685.528 276.989 686.376 277.593 687.116 278.299C689.145 280.255 690.682 279.951 692.576 277.89C699.533 270.304 706.632 262.856 714.874 256.634C716.902 255.048 719.084 253.67 721.387 252.52C722.335 252.056 723.391 251.813 724.208 252.781C725.167 253.918 724.599 254.943 723.836 255.891C723.071 256.766 722.166 257.508 721.158 258.088C710.953 264.643 703.267 273.864 695.125 282.615C693.713 284.138 694.129 285.324 695.375 286.604C698.97 290.286 702.288 294.23 706.129 297.679C712.845 303.708 718.708 310.558 724.934 317.063C725.946 318.13 727.057 319.386 726.481 321.159C725.608 321.136 724.665 320.997 724.069 321.928C723.021 322.223 722.438 321.449 721.831 320.83C705.524 303.34 688.322 286.68 671.727 269.506C659.416 256.706 646.847 244.222 634.354 231.636C620.492 217.684 606.802 203.559 592.951 189.607C577.105 173.595 561.459 157.475 545.687 141.434C532.518 128.041 519.444 114.597 506.092 101.417C498.509 93.9402 491.204 86.1483 483.526 78.7313C469.671 65.3404 453.785 62.8048 436.175 68.5951C426.736 71.6765 417.825 76.0092 408.67 79.7739C387.984 88.2812 367.297 96.7885 346.647 105.494C336.132 109.952 325.429 114.061 314.912 118.58C313.598 119.139 312.327 120.426 310.681 119.333C310.67 118.839 310.506 118.362 310.21 117.966C309.915 117.571 309.503 117.277 309.033 117.127C311.086 115.766 313.462 115.163 315.692 114.181C316.897 113.727 317.884 112.83 318.451 111.674C322.373 103.645 327.859 96.6439 333.068 89.4695C347.28 69.8867 362.672 51.1884 379.16 33.4788C382.428 29.8388 385.994 26.4779 389.82 23.431C400.166 15.4962 412.909 15.3191 423.473 22.9464C427.614 25.9289 430.657 30.1929 432.13 35.0787C433.676 34.4327 434.266 32.9195 435.077 31.7448C438.485 27.0607 441.74 22.2686 445.983 18.2614C449.587 14.671 454.295 12.3982 459.348 11.8092C475.356 10.0222 490.195 25.1753 487.846 41.0656C487.493 43.4585 486.953 45.8257 486.471 48.3608C488.968 48.6963 491.421 48.3547 493.807 48.9369C504.637 51.5486 511.599 60.5067 511.915 72.3382C512.04 78.0088 511.232 83.6613 509.523 89.0697C509.068 90.5968 508.897 91.5491 510.866 92.2243C519.357 95.1806 523.644 101.448 524.091 110.247C524.095 111.649 524.402 113.034 524.991 114.305C525.581 115.577 526.439 116.706 527.507 117.615C529.505 119.597 531.616 121.461 533.829 123.198C532.768 120.05 531.685 116.903 530.643 113.808C528.147 106.605 527.16 98.9654 527.745 91.3647C528.236 85.3505 530.786 79.6897 534.965 75.3361C539.143 70.9825 544.694 68.2022 550.683 67.4637C553.031 67.2887 555.39 67.5084 557.665 68.1137C558.18 66.7129 557.65 65.4928 557.484 64.2823C556.188 54.9521 559.05 47.3005 566.584 41.5073C570.684 38.3531 575.524 36.3026 580.642 35.5516C584.142 34.8981 587.749 35.1352 591.133 36.241C594.517 37.3469 597.568 39.2859 600.006 41.8798C602.257 44.1571 604.282 46.6477 606.051 49.3166C607.682 51.782 609.281 54.2674 610.881 56.7216C611.847 56.7468 611.824 56.0495 612.036 55.5039C613.226 52.1943 615.133 49.1882 617.619 46.6999C620.104 44.2117 623.109 42.3026 626.417 41.1087C629.726 39.9148 633.257 39.4656 636.759 39.7932C640.261 40.1207 643.647 41.2168 646.677 43.0035C650.49 45.194 653.927 47.9797 656.861 51.2552C669.893 65.5085 682.669 80.0047 693.323 96.151C697.493 102.499 701.664 108.847 706.248 114.894C716.786 128.687 724.474 144.101 731.403 159.911C736.556 171.681 741.718 183.462 746.608 195.34C752.104 208.669 759.106 221.278 765.224 234.301C765.307 234.568 765.461 234.808 765.668 234.997C765.875 235.185 766.129 235.314 766.403 235.371C767.334 231.954 768.194 228.493 769.251 225.047C769.938 222.945 769.864 220.669 769.044 218.615C764.065 206.194 765.361 193.562 767.945 181.006C771.074 165.895 778.36 152.879 788.731 141.565C794.415 135.349 801.208 130.868 809.84 129.637C814.705 128.859 819.69 129.72 824.012 132.086C826.166 133.195 828.001 134.838 829.341 136.857C830.681 138.876 831.481 141.204 831.666 143.621C832.345 149.066 831.385 154.407 830.87 159.77C830.15 167.841 829.306 175.909 828.492 183.968C828.213 186.716 828.893 189.334 829.323 191.986C830.317 198.207 831.949 204.31 834.193 210.196C837.52 218.602 838.073 227.31 837.13 236.343C835.225 252.987 835.566 269.812 838.144 286.366C838.899 290.93 839.35 295.548 839.76 300.155C840.699 310.401 838.107 320.088 834.75 329.598C831.976 337.47 828.986 345.275 825.923 353.046C820.425 366.92 816.153 381.2 811.901 395.491C810.765 399.185 809.629 402.867 808.411 406.517C804.711 417.204 804.739 427.696 809.847 437.979C811.28 440.855 812.734 443.711 814.135 446.607C814.825 448.039 815.761 448.854 817.467 448.42C818.101 448.306 818.742 448.239 819.386 448.221C823.746 447.682 828.173 448.228 832.271 449.812C836.369 451.396 840.013 453.967 842.879 457.298C847.447 462.374 851.774 467.641 855.86 473.099C858.312 476.376 860.936 477.828 865.098 477.729C874.376 477.515 883.635 478.671 892.576 481.159C904.139 484.341 914.472 490.049 924.183 496.895C933.128 503.181 941.879 509.742 950.62 516.302C968.42 529.661 986.178 543.074 1003.89 556.541C1014.85 564.896 1024.98 574.249 1035.02 583.662C1036.52 585.063 1037.85 586.626 1039.27 588.109L1039.18 592.016Z" fill="#070302"/>
<path d="M4.63598 573.531C7.24642 569.928 11.1903 567.826 14.4069 564.905C18.7732 560.963 23.5533 557.501 28.2141 553.827C34.2346 549.055 40.2852 544.325 46.2653 539.51C49.165 537.174 52.015 534.752 54.7734 532.256C58.6516 528.686 62.9535 525.616 66.6799 521.887C68.5273 520.032 70.4792 519.75 73.2754 520.187C82.6164 521.744 91.7871 524.191 100.662 527.494C106.473 529.533 112.145 531.949 117.642 534.727C122.669 537.333 127.62 540.072 132.637 542.699C135.55 544.231 136.328 544.293 138.327 541.808C142.484 536.717 147.188 532.212 151.537 527.334C154.087 524.458 157.023 521.914 159.817 519.231C162.612 516.548 165.263 514.174 167.921 511.519C169.811 509.654 169.726 508.924 167.924 507.047C167.084 506.251 166.112 505.606 165.051 505.142C154.456 499.937 143.805 494.844 132.579 491.089C126.631 489.104 120.545 487.603 114.493 485.99C113.74 485.783 112.95 485.752 112.498 484.742C115.087 481.971 118.523 480.188 121.666 478.128C133.398 470.448 145.647 463.696 159.361 460.165C165.606 458.38 172.005 457.189 178.473 456.608C186.014 456.129 193.528 455.524 201.092 455.752C207.639 455.923 214.067 457.037 220.549 457.685C230.662 458.687 240.282 461.818 250.222 463.481C250.44 463.487 250.619 463.793 250.823 463.954C239.608 470.14 230.353 478.925 220.565 486.978C210.045 495.626 200.211 505.071 190.56 514.677C176.817 528.357 163.469 542.411 150.518 556.84C145.291 562.672 140.196 568.622 135.03 574.519C134.136 575.447 133.106 576.234 131.975 576.852L4.63598 573.531Z" fill="black"/>
<path d="M911.595 597.184L709.364 591.91C708.294 589.875 710.048 588.808 710.994 587.627C715.438 581.963 720.218 576.57 725.307 571.477C742.395 554.245 760.488 538.307 781.092 525.378C785.004 522.922 789.066 520.689 793.058 518.328C794.091 517.678 795.251 517.256 796.461 517.09C797.67 516.925 798.901 517.019 800.071 517.367C816.324 521.774 832.725 525.644 848.987 530.082C850.309 530.438 852.097 530.485 852.449 532.106C852.802 533.727 851.139 534.505 850.078 535.33C836.153 546.135 823.379 558.27 810.019 569.724C807.732 571.682 805.179 573.508 803.771 576.84C806.447 577.097 807.514 575.284 808.793 574.091C823.241 560.772 837.861 547.635 853.389 535.562C856.817 532.896 857.897 532.966 860.646 536.406C866.577 543.84 873.327 550.578 879.65 557.699C889.845 569.113 899.668 580.828 909.395 592.624C910.455 593.827 912.045 595.075 911.595 597.184Z" fill="black"/>
<path d="M662.28 590.682L658.023 581.629C656.589 578.73 655.797 575.556 655.702 572.323C655.607 569.09 656.211 565.875 657.472 562.897C660.735 554.921 664.867 547.329 669.792 540.258C692.506 506.649 722.621 481.895 759.59 465.514C777.36 457.609 796.38 452.882 815.784 451.548C818.743 451.344 821.68 451.161 824.631 451.238C829.714 451.27 834.578 453.307 838.168 456.905C844.084 463.014 849.597 469.501 854.674 476.323C854.805 476.493 854.755 476.793 854.853 477.441C851.83 477.715 848.783 477.729 845.795 477.86C805.546 479.558 766.811 493.686 734.92 518.299C712.915 535.091 694.638 555.297 679.141 578.124C677.119 581.097 675.117 584.092 673.207 587.141C672.48 588.307 671.474 589.414 671.538 590.955L662.28 590.682Z" fill="#60AB58"/>
<path d="M382.08 583.375C380.549 577.896 377.85 572.928 375.203 567.961C363.406 545.816 349.044 525.528 330.641 508.275C312.239 491.022 291.807 476.992 268.484 467.389C253.281 461.068 237.308 456.787 220.982 454.659C213.097 453.532 205.152 452.881 197.189 452.708C196.596 452.692 196.007 452.573 194.98 452.453C203.442 442.607 212.734 436.403 226.219 438.075C245.892 440.345 265.154 445.341 283.451 452.919C303.939 461.554 322.012 473.911 338.182 489.078C359.666 508.824 376.699 532.92 388.145 559.761C391.782 567.811 391.421 575.694 387.525 583.517L382.08 583.375Z" fill="#5FAB58"/>
<path d="M262.137 468.315C266.968 469.304 271.142 471.919 275.584 473.865C285.761 478.425 295.415 484.074 304.375 490.713C313.04 496.843 321.24 503.605 328.908 510.944C331.737 513.722 334.727 516.295 337.394 519.287C345.829 528.388 353.477 538.189 360.256 548.583C366.721 558.583 372.542 568.984 377.683 579.724C378.379 580.806 378.827 582.029 378.993 583.305L362.014 582.862C360.252 581.828 359.424 580.08 358.522 578.372C347.372 557.481 332.783 538.616 315.367 522.57C304.299 512.393 292.154 503.454 279.147 495.91C277.473 494.955 276.076 493.582 275.092 491.925C271.199 485.273 267.275 478.64 263.129 472.137C262.431 471.026 261.264 469.904 262.137 468.315Z" fill="black"/>
<path d="M262.137 468.315C265.171 474.415 269.492 479.769 272.495 485.847C275.29 491.494 279.604 495.142 284.907 498.358C308.584 512.733 328.163 531.556 344.413 553.983C350.946 563.194 356.827 572.851 362.013 582.883L357.378 582.762C352.187 573.267 346.805 563.924 340.313 555.28C321.22 529.825 298.213 508.896 269.554 494.547C258.695 489.064 247.237 485.407 235.554 482.419C234.576 482.122 233.538 482.081 232.54 482.301C231.542 482.521 230.617 482.994 229.854 483.674C213.634 496.77 198.676 511.291 184.032 526.154C175.894 534.385 167.948 542.798 160.114 551.319C152.28 559.839 144.679 568.199 137.399 576.993L131.975 576.852C138.145 569.131 144.753 561.774 151.39 554.481C166.144 538.228 181.273 522.286 197.153 507.092C212.113 492.618 227.955 479.084 244.588 466.568C246.412 465.212 248.212 463.605 250.8 464.016L253.697 465.007C254.12 467.097 252.424 467.563 251.207 468.352C246.797 471.058 242.67 474.2 238.89 477.733C248.629 480.701 258.055 483.692 267.369 487.398C264.256 481.566 260.675 476.149 257.326 470.581C256.529 469.24 254.63 467.891 256.345 465.918C258.279 466.738 260.402 467.064 262.137 468.315Z" fill="#60A95A"/>
<path d="M911.595 597.184C907.742 591.396 903.062 586.262 898.635 580.947C886.052 565.811 872.661 551.382 859.589 536.67C859.231 536.313 858.893 535.937 858.578 535.541C857.494 534.047 856.534 534.199 855.111 535.316C846.567 541.935 838.326 548.916 830.206 556.046C822.671 562.671 815.348 569.53 807.925 576.262C807.153 577.129 806.224 577.842 805.187 578.364C804.84 578.514 804.454 578.552 804.083 578.474C803.713 578.395 803.376 578.204 803.119 577.925C802.839 577.662 802.661 577.308 802.618 576.926C802.574 576.544 802.668 576.159 802.882 575.84C803.432 574.973 804.088 574.18 804.836 573.478C818.686 560.758 832.532 548.204 847.282 536.463C848.885 535.195 850.469 533.874 851.979 532.614C851.693 531.202 850.551 531.537 849.787 531.329C832.777 526.851 815.766 522.435 798.766 517.957C798.023 517.765 797.247 517.728 796.489 517.85C795.731 517.972 795.006 518.249 794.36 518.664C783.698 524.636 773.449 531.317 763.682 538.661C751.505 547.952 739.987 558.075 729.21 568.958C722.755 575.406 716.643 582.189 710.899 589.278C710.265 590.062 709.354 590.704 709.417 591.88L703.182 591.718C714.24 578.028 726.339 565.213 739.37 553.386C755.07 539.123 772.248 526.579 790.613 515.966C791.954 515.211 793.344 514.53 794.694 513.806C795.202 513.545 795.757 513.39 796.327 513.349C796.896 513.309 797.467 513.384 798.007 513.57C812.755 517.449 827.537 521.224 842.297 525.072C846.894 526.231 851.433 527.629 856.018 528.861C857.604 529.315 859.025 530.219 860.109 531.464C876.289 549.023 892.361 566.724 907.476 585.243C910.721 589.207 914.222 592.958 916.946 597.334L911.595 597.184Z" fill="#5FA959"/>
<path d="M524.73 457.725C520.104 457.595 515.564 456.446 511.432 454.361C507.301 452.277 503.68 449.307 500.826 445.663C488.57 430.785 476.328 415.87 464.101 400.916C436.738 367.447 409.392 333.971 382.064 300.489C348.286 259.157 314.504 217.825 280.719 176.493C279.303 174.865 278.481 172.806 278.386 170.65C277.926 163.968 276.339 157.412 273.692 151.259C273.216 150.357 273.066 149.318 273.266 148.317C273.466 147.317 274.005 146.416 274.792 145.766C277.44 143.121 280.583 141.023 284.042 139.591C291.612 136.378 299.232 133.291 306.793 130.056C308.696 129.243 310.076 129.362 311.574 130.951C317.573 137.346 324.897 138.432 332.765 135.372C340.634 132.312 348.419 128.844 356.23 125.585L409.856 102.859C412.025 102.041 414.102 100.998 416.052 99.7446C420.617 96.5465 421.438 92.606 418.694 87.7718C416.794 84.4571 416.844 84.1153 420.261 82.6966C426.789 79.9864 433.298 77.2237 439.914 74.755C446.614 72.3232 453.878 71.8983 460.816 73.5324C466.752 74.8694 472.145 77.9717 476.286 82.4315C486.432 92.8973 496.735 103.336 506.964 113.835C543.81 151.586 580.649 189.341 617.481 227.099C647.602 257.937 677.738 288.751 707.888 319.541C710.93 322.501 713.199 326.163 714.494 330.205C716.8 337.888 714.904 344.4 709.053 349.821C707.194 351.407 705.187 352.81 703.058 354.011L545.25 451.615C539.004 455.456 532.358 457.924 524.73 457.725Z" fill="#FDFEFD"/>
<path d="M726.522 321.16C725.606 318.797 723.778 317.127 722.087 315.388C713.115 306.141 704.117 296.943 695.094 287.793C694.08 286.789 693.065 285.837 691.798 284.587C693.769 282.392 695.658 280.528 697.445 278.589C705.007 270.519 712.348 262.184 721.942 256.351C722.059 256.299 722.166 256.228 722.259 256.141C723.062 255.267 725.012 254.673 723.968 253.232C722.924 251.79 721.63 253.171 720.603 253.862C711.777 259.351 704.516 266.628 697.447 274.138C695.512 276.167 693.605 278.291 691.72 280.394C690.574 281.664 689.494 282.031 688.169 280.614C687.299 279.676 686.248 278.9 685.346 277.982C674.244 266.698 663.155 255.407 652.081 244.109C651.3 243.319 650.257 242.658 650.076 241.228C653.316 238.953 656.742 236.955 660.318 235.256C672.182 229.327 684.025 223.396 696.35 218.518C707.513 214.139 719.441 212.042 731.429 212.352C732.323 212.375 733.227 212.399 734.123 212.328C734.254 212.343 734.387 212.331 734.513 212.292C734.639 212.253 734.756 212.188 734.856 212.102C734.956 212.016 735.037 211.91 735.094 211.791C735.151 211.671 735.182 211.542 735.187 211.41C735.218 211.149 735.15 210.886 734.995 210.674C734.841 210.461 734.611 210.315 734.354 210.265C733.345 210.065 732.323 209.938 731.296 209.884C717.695 209.082 704.727 211.884 692.179 216.954C686.21 219.366 687.293 219.686 685.06 214.002C679.565 200.135 674.92 185.946 671.152 171.514C669.698 165.882 666.617 161.195 663.728 156.347C655.838 143.08 648.128 129.725 641.589 115.713C640.453 113.412 639.054 111.251 637.42 109.272C629.954 99.7184 622.508 90.1654 618.106 78.7368C615.837 72.8232 614.09 66.8296 614.269 60.3766C614.285 57.5254 615.19 54.7502 616.857 52.4372C621.093 46.714 626.619 42.9794 633.864 42.2741C637.336 41.9383 640.442 43.2671 643.461 44.7289C649.341 47.7419 653.89 52.3215 658.183 57.1649C661.324 60.7304 664.228 64.6016 667.457 68.003C679.48 80.6702 688.873 95.2966 698.733 109.582C702.31 114.77 705.962 119.898 709.592 125.047C714.154 131.598 718.148 138.528 721.53 145.76C728.235 159.8 734.508 174.037 740.35 188.47C746.838 204.455 754.747 219.781 762.277 235.285C764.333 239.124 764.795 243.619 763.562 247.797C762.358 251.847 761.553 256.005 761.159 260.212C760.943 262.9 760.508 263.242 757.693 263.117C751.576 262.822 746.092 264.967 740.605 267.226C739.428 267.704 737.735 268.399 738.272 269.744C738.809 271.089 740.462 270.3 741.618 269.831C745.694 268.253 749.712 266.506 754.085 265.882C754.835 265.708 755.601 265.61 756.37 265.588C757.409 265.615 758.86 265.029 759.468 266.418C759.958 267.574 759.232 268.699 758.573 269.639C756.974 271.937 754.56 273.194 752.146 274.431C743.751 278.687 736.172 284.389 729.756 291.276C728.513 292.411 727.629 293.884 727.212 295.514C727.129 295.759 727.118 296.023 727.182 296.274C727.246 296.525 727.38 296.752 727.57 296.927C727.797 297.051 728.06 297.094 728.315 297.047C728.57 297.001 728.801 296.869 728.97 296.673C729.35 296.321 729.708 295.945 730.039 295.546C736.322 287.747 744.275 281.459 753.313 277.145C755.899 276.004 758.154 274.228 759.869 271.982C761.583 269.736 762.702 267.093 763.121 264.298C765.527 251.82 768.18 239.39 771.774 227.172C772.876 223.567 772.72 219.695 771.333 216.19C767.558 206.608 768.262 196.768 769.818 186.94C770.861 179.676 772.987 172.609 776.126 165.975C780.739 156.559 786.212 147.676 794.172 140.698C800.227 135.386 807.139 131.927 815.575 132.625C818.541 132.893 821.383 133.94 823.815 135.658C824.938 136.426 824.937 137.299 823.752 138.059C822.218 139.059 820.697 139.976 819.165 140.913C817.356 142.034 815.804 143.523 814.609 145.283C813.415 147.044 812.605 149.036 812.233 151.131C810.623 158.639 810.799 166.213 811.642 173.774C811.969 176.355 813.186 178.741 815.085 180.519C817.622 183.08 820.395 185.395 823.369 187.432C824.232 187.974 824.957 188.708 825.488 189.577C826.02 190.446 826.342 191.426 826.431 192.441C827.196 198.439 828.723 204.314 830.977 209.925C834.609 218.963 835.094 228.282 834.041 237.957C832.968 248.063 832.731 258.241 833.331 268.386C833.961 279.695 836.021 290.823 837.048 302.07C837.56 307.553 836.259 312.792 834.978 318.041C832.578 327.94 828.838 337.389 825.025 346.804C818.99 361.714 814.213 377.042 809.6 392.437C808.188 397.11 806.818 401.796 805.252 406.424C801.553 416.846 802.075 428.302 806.707 438.344C808.22 441.742 809.912 445.062 811.726 448.874C796.135 450.963 780.878 453.861 766.253 459.625C751.653 465.404 737.705 472.708 724.641 481.417C711.737 490.152 699.797 500.232 689.021 511.487C678.048 522.723 668.57 535.327 660.819 548.987C659.1 548.318 658.681 546.852 657.972 545.71C654.741 540.426 651.497 535.205 648.191 529.992C642.319 520.709 634.164 514.423 624.166 510.242C614.908 506.372 607.047 500.364 599.424 493.999C599.125 493.816 598.865 493.574 598.662 493.288C598.459 493.001 598.316 492.676 598.242 492.333C598.168 491.99 598.165 491.635 598.233 491.29C598.301 490.946 598.438 490.618 598.636 490.329C599.24 489.028 599.761 487.69 600.196 486.324C604.651 477.052 610.183 468.338 616.68 460.362C626.122 449.123 636.992 439.164 649.012 430.737C658.429 423.792 668.431 417.679 678.907 412.467C679.96 411.933 681.025 410.993 682.677 411.432C682.187 415.859 680.94 420.215 681.114 424.722C681.182 426.512 681.134 428.32 681.296 430.113C681.376 430.999 681.788 431.977 683.002 431.686C683.191 431.635 683.368 431.547 683.523 431.427C683.677 431.307 683.806 431.156 683.902 430.985C683.997 430.814 684.058 430.626 684.079 430.431C684.101 430.236 684.083 430.039 684.027 429.852C682.234 418.855 686.576 409.474 691.672 400.248C692.729 398.336 694.283 396.745 696.17 395.645C702.989 391.497 709.778 387.31 716.536 383.084C726.673 376.766 732.105 367.445 734.197 355.832C735.322 349.233 735.145 342.478 733.676 335.947C732.49 330.523 730.039 325.456 726.522 321.16Z" fill="#6C382C"/>
<path d="M286.113 248.748C294.285 250.792 301.268 253.782 307.218 259.698C317.628 270.025 328.102 280.28 338.48 290.669C351.468 303.549 361.837 318.824 369.012 335.649C373.438 345.638 376.476 356.185 378.042 366.998C379.564 378.414 379.579 389.811 376.654 401.069C376.274 402.505 375.128 404.565 377.028 405.082C378.928 405.6 378.856 403.175 379.193 401.822C382.638 389.319 382.469 376.69 380.408 364.002C379.681 359.425 378.72 354.888 377.528 350.409C377.417 350.125 377.389 349.815 377.449 349.516C377.508 349.217 377.652 348.942 377.864 348.723C381.728 352.068 385.656 355.363 389.466 358.769C406.69 374.171 421.738 391.295 433.521 411.173C442.21 425.783 448.249 441.814 451.357 458.526C452.088 462.423 452.337 466.412 452.796 470.366C452.872 471.138 452.748 471.918 452.436 472.629C452.124 473.34 451.635 473.959 451.015 474.427C443.308 481.276 435.32 487.733 426.147 492.558C421.367 495.042 416.775 497.873 412.408 501.028C408.316 504.041 405.248 508.017 402.211 512.024C395.98 520.379 390.526 529.286 385.919 538.636C385.393 539.662 384.826 540.687 384.248 541.712C384.129 541.906 383.835 542.002 383.602 542.152C382.303 541.349 382.03 539.855 381.333 538.662C370.799 520.649 357.901 504.128 342.985 489.536C327.773 474.727 310.751 462.346 291.468 453.316C276.993 446.533 262.025 441.109 246.207 438.409C242.19 437.712 238.196 436.942 234.222 436.214C233.945 434.866 234.806 434.15 235.337 433.342C239.073 427.946 242.398 422.276 245.284 416.381C247.215 412.732 248.332 408.706 248.556 404.582C248.78 400.459 248.107 396.336 246.582 392.498C239.428 374.176 232.346 355.836 224.582 337.758C220.268 327.715 215.323 317.967 211.536 307.677C207.283 296.128 206.756 284.436 208.37 272.374C209.377 264.872 210.914 257.383 210.644 249.775C210.288 239.513 210.005 229.242 208.753 219.029C207.623 209.724 208.049 200.563 211.483 191.699C213.835 185.712 215.494 179.475 216.429 173.111C216.825 170.262 218.174 169.194 220.546 168.352C224.589 167.004 228.265 164.736 231.284 161.727C232.989 160.109 234.023 157.909 234.179 155.563C234.686 148.25 234.4 140.903 233.326 133.652C232.283 127.385 228.731 123.227 222.939 120.84C222.476 120.651 222.058 120.36 221.329 119.966C224.205 117.358 227.578 116.822 230.969 116.765C240.103 116.608 247.629 120.319 254.056 126.653C263.09 135.52 268.946 146.258 272.668 158.231C275.717 168.355 276.573 179.012 275.18 189.492C274.407 196.023 273.738 202.516 271.3 208.681C271.106 209.222 271.029 209.797 271.073 210.37C271.117 210.943 271.282 211.5 271.557 212.005C275.317 221.297 278.305 230.884 280.49 240.668C280.847 242.164 281.171 243.67 281.569 245.157C283.332 251.733 286.685 257.145 292.684 260.754C295.326 262.341 297.663 264.44 300.457 265.75C301.638 266.311 303.41 267.761 304.256 266.4C305.343 264.609 303.178 263.887 301.916 263.22C298.34 261.18 294.895 258.92 291.6 256.451C289.081 254.566 286.87 252.429 286.113 248.748Z" fill="#6C382C"/>
<path d="M278.179 194.136C280.234 195.083 280.933 196.994 282.123 198.398C292.938 211.685 303.718 224.965 314.464 238.236C323.005 248.858 331.196 259.73 339.94 270.17C349.763 281.864 359.075 294.045 368.802 305.82C378.309 317.299 387.497 329.029 396.876 340.608C403.596 348.894 410.433 357.08 417.131 365.376C424.808 374.862 432.356 384.49 440.012 393.955C445.049 400.16 450.227 406.191 455.127 412.485C463.085 422.727 471.765 432.396 479.627 442.729C484.212 448.755 488.976 454.671 493.964 460.375C499.741 466.962 507.211 470.776 515.797 472.508C529.131 475.206 541.231 471.778 552.559 464.856C569.571 454.472 586.56 444.062 603.526 433.627C620.498 423.193 637.35 412.579 654.453 402.325C675.286 389.818 695.769 376.74 716.571 364.201C723.058 360.283 728.128 355.268 731.006 348.189C731.095 347.983 731.327 347.844 731.498 347.671C732.954 352.035 730.87 359.395 728.892 364.241C726.119 371.098 721.201 376.873 714.872 380.701C694.954 392.986 675.045 405.291 655.146 417.618C639.412 427.364 623.694 437.145 607.993 446.961C588.775 458.938 569.559 470.88 550.344 482.788C544.002 486.72 537.289 489.727 529.967 490.576C518.922 491.837 508.885 488.757 499.94 482.056C495.86 478.996 492.962 474.876 489.829 471.019C483.217 462.986 476.785 454.811 470.269 446.707C462.298 436.793 454.321 426.88 446.337 416.966C439.88 408.968 433.349 401.029 426.903 393.021C419.419 383.706 412 374.341 404.527 365.016C399.623 358.898 394.643 352.852 389.739 346.734C379.446 333.904 369.167 321.064 358.903 308.214C351.605 299.095 344.3 289.965 336.989 280.824C329.79 271.777 322.761 262.588 315.413 253.662C308.308 245.022 301.499 236.162 294.531 227.422C288.772 220.18 283.15 212.837 277.423 205.554C276.779 204.737 275.978 203.947 276.299 202.832C277.05 199.95 277.065 196.977 278.179 194.136Z" fill="#3C5944"/>
<path d="M310.764 119.345L349.932 103.126L405.847 79.9602C415.455 75.9785 424.986 71.7764 434.722 68.0892C447.377 63.3031 460.061 63.3948 472.48 69.2612C475.69 70.8972 478.665 72.958 481.326 75.3879C483.847 77.575 486.28 79.8672 488.623 82.2646C498.996 92.809 509.231 103.495 519.668 113.969C535.203 129.546 550.556 145.305 565.986 160.931C573.563 168.636 581.023 176.453 588.654 184.108C602.719 198.236 616.712 212.434 630.635 226.704C642.79 239.09 654.999 251.433 667.26 263.732C674.821 271.281 682.019 279.185 689.697 286.591C696.656 293.282 703.21 300.358 709.956 307.231C711.486 308.789 713.186 310.175 714.716 311.733C718.014 314.967 721.143 318.371 724.09 321.929C725.241 324.038 726.496 326.151 727.509 328.392C729.54 332.798 730.183 337.717 729.353 342.496C728.522 347.276 726.257 351.69 722.859 355.152C720.104 358.031 716.931 360.479 713.446 362.414C709.521 364.61 705.804 367.175 701.978 369.529C680.842 382.524 659.706 395.512 638.57 408.493C624.986 416.839 611.42 425.199 597.87 433.573C581.764 443.5 565.697 453.5 549.504 463.165C540.377 468.625 530.324 471.306 519.632 470.216C511.489 469.448 503.864 465.879 498.058 460.118C493.262 455.417 489.465 449.89 485.222 444.726C479.829 438.19 474.564 431.543 469.235 424.946C461.005 414.749 452.945 404.411 444.492 394.405C436.271 384.676 428.527 374.585 420.422 364.786C413.709 356.666 407.197 348.375 400.558 340.195C393.505 331.525 386.377 322.906 379.325 314.237C373.281 306.748 367.238 299.208 361.194 291.708C353.136 281.71 345.078 271.718 337.019 261.733C329.168 252.045 321.352 242.34 313.571 232.619C308.725 226.617 303.827 220.666 298.971 214.674C292.826 207.09 286.744 199.454 280.513 191.94C279.485 190.799 278.768 189.412 278.431 187.914C278.095 186.415 278.151 184.855 278.594 183.384C279.576 182.848 280.033 183.629 280.476 184.192C292.22 198.821 303.97 213.453 315.727 228.089C325.085 239.688 334.56 251.187 343.939 262.766C353.721 274.844 363.449 286.984 373.232 299.052C381.293 308.943 389.356 318.752 397.355 328.631C403.994 336.811 410.442 345.173 417.231 353.201C424.716 362.028 431.692 371.256 439.241 380.032C445.772 387.617 451.823 395.615 458.13 403.402C463.167 409.596 468.047 415.879 473.245 421.9C478.798 428.284 483.765 435.214 489.264 441.659C493.522 446.648 497.483 451.877 502.102 456.552C507.117 461.654 513.399 464.001 520.311 464.889C530.728 466.2 540.112 463.253 548.905 457.836C562.137 449.674 575.382 441.524 588.641 433.385C612.77 418.624 636.905 403.884 661.046 389.165C676.391 379.756 691.711 370.312 707.009 360.832C710.066 358.932 712.988 356.823 715.753 354.519C726.381 345.708 726.235 330.979 717.946 321.456C709.516 311.763 700.425 302.667 691.206 293.723C690.659 293.188 690.101 292.654 689.564 292.099C678.15 280.415 666.873 268.63 655.267 257.087C646.672 248.543 638.502 239.658 629.947 231.147C615.969 217.264 602.385 203.059 588.481 189.136C580.11 180.766 572.144 172.01 563.698 163.72C553.558 153.796 544.046 143.357 534.064 133.332C520.646 119.921 507.438 106.433 494.125 92.9835C488.339 87.155 483.057 80.7572 476.513 75.7095C472.629 72.6316 468.163 70.3708 463.383 69.0632C458.603 67.7555 453.607 67.4279 448.697 68.1002C442.459 68.9418 436.367 70.6447 430.597 73.1602C418.592 78.1192 406.706 83.2997 394.732 88.2908C376.229 96.0128 357.688 103.609 339.185 111.321C324.95 117.251 310.796 123.287 296.54 129.259C292.639 130.894 288.689 132.444 284.778 134.089C280.226 135.884 275.874 138.147 271.791 140.842C270.806 141.513 269.65 143.168 268.473 140.849C267.554 139.016 267.61 138.445 269.815 137.255C272.863 135.598 275.922 133.941 279.108 132.589C289.635 128.091 300.209 123.739 310.764 119.345Z" fill="#3F5A46"/>
<path d="M165.41 509.352C165.03 510.746 163.849 511.391 162.941 512.283C153.955 520.731 144.887 529.126 136.996 538.643C135.471 540.475 134.404 540.333 132.539 539.254C117.91 530.634 102.169 524.055 85.7562 519.702C81.7071 518.66 77.6113 517.815 73.5592 516.888C73.4459 515.647 74.3819 515.245 75.0099 514.69C85.0917 505.708 95.5058 497.141 106.122 488.808C106.577 488.37 107.135 488.053 107.744 487.887C108.354 487.721 108.995 487.712 109.609 487.859C128.823 492.114 147.337 499.07 164.599 508.52C164.903 508.763 165.175 509.042 165.41 509.352Z" fill="#5FAB57"/>
<path d="M217.761 166.303C216.77 157.241 215.727 148.572 215.163 139.916C214.905 135.833 214.19 131.749 215.388 127.693C215.569 126.949 215.793 126.215 216.059 125.496C217.233 122.75 218.327 122.248 221.175 123.113C223.617 123.78 225.81 125.15 227.48 127.054C229.15 128.957 230.223 131.31 230.566 133.819C231.705 140.654 232.106 147.592 231.763 154.512C231.709 155.605 231.425 156.675 230.93 157.651C230.435 158.627 229.74 159.488 228.891 160.177C225.625 162.94 221.841 165.022 217.761 166.303Z" fill="#6C382C"/>
<path d="M256.366 465.918C256.11 467.357 257.052 468.338 257.71 469.396C261.023 474.744 264.368 480.051 267.692 485.389C268.638 486.538 269.217 487.944 269.355 489.425C263.836 487.316 258.609 485.183 253.281 483.329C247.953 481.474 242.576 479.93 236.924 478.139C241.102 474.176 245.683 470.661 250.591 467.65C251.754 466.911 253.241 466.544 253.78 465.009L256.366 465.918Z" fill="black"/>
<path d="M281.838 234.048C279.976 226.661 277.648 219.401 274.866 212.309C274.57 211.672 274.403 210.982 274.375 210.28C274.347 209.578 274.458 208.877 274.702 208.218C275.917 207.907 276.147 209.036 276.64 209.662C279.661 213.453 282.617 217.326 285.701 221.088C286.709 222.331 287.035 223.368 286.196 224.844C284.585 227.599 283.92 230.774 281.838 234.048Z" fill="#FAFAFA"/>
<path d="M378.79 105.875C378.767 106.748 378.071 107.125 377.356 107.429C374.537 108.655 371.708 109.871 368.859 111.055C364.843 112.728 360.797 114.37 356.761 116.022C356.288 116.207 355.825 116.424 355.332 116.598C355.129 116.7 354.908 116.761 354.682 116.778C354.455 116.795 354.228 116.767 354.012 116.695C353.797 116.624 353.598 116.511 353.426 116.362C353.254 116.214 353.114 116.033 353.012 115.83C352.427 114.713 353.305 114.174 354.105 113.779C356.306 112.724 358.498 111.627 360.757 110.719C365.412 108.864 370.105 107.136 374.623 104.966C375.054 104.685 375.537 104.496 376.044 104.409C376.55 104.322 377.069 104.339 377.568 104.46C377.894 104.54 378.186 104.719 378.405 104.972C378.624 105.226 378.759 105.542 378.79 105.875Z" fill="#2D2F2C"/>
<path d="M388.013 103.09C386.371 103.047 385.347 102.074 385.514 100.82C385.69 100.137 386.092 99.5333 386.654 99.108C387.217 98.6826 387.907 98.4605 388.612 98.4779C388.938 98.4756 389.261 98.5447 389.557 98.6804C389.854 98.8161 390.117 99.0151 390.329 99.2634C390.541 99.5117 390.695 99.8033 390.782 100.118C390.869 100.432 390.886 100.762 390.832 101.083C390.629 102.472 389.665 103.164 388.013 103.09Z" fill="#2F302D"/>
<path d="M585.12 38.1016C589.844 38.3422 594.294 40.395 597.543 43.8329C602.826 49.378 606.586 55.944 610.64 62.3826C611.101 63.3045 611.358 64.3149 611.394 65.3451C613.039 77.6272 618.249 88.4009 625.34 98.3918C628.841 103.308 632.554 108.074 636.224 112.87C637.328 114.293 638.281 115.827 639.068 117.447C645.825 131.754 653.451 145.636 661.901 159.013C665.975 165.494 668.313 172.335 670.33 179.531C673.735 192.054 677.89 204.361 682.773 216.386C684.593 220.759 684.6 220.864 680.245 222.788C669.904 227.364 659.661 232.151 649.813 237.738C647.111 239.269 647.041 239.174 644.913 237.059C639.257 231.431 633.985 225.44 628.084 220.066C626.812 218.778 625.872 217.201 625.344 215.471C621.709 205.726 617.843 196.048 615.666 185.832C614.74 181.482 612.351 177.769 610.236 173.95C602.024 159.094 594.138 144.081 587.559 128.415C586.577 126.164 585.795 123.867 584.929 121.588C583.582 117.971 581.908 114.485 579.928 111.173C573.044 99.8504 567.386 87.8263 563.051 75.3044C561.691 71.2868 560.801 67.125 560.4 62.9025C559.691 55.8129 561.783 49.7738 567.356 45.0006C572.305 40.7214 578.58 38.2841 585.12 38.1016Z" fill="#6C382C"/>
<path d="M619.842 211.5C598.863 190.156 577.772 169.152 557.401 147.625C557.772 146.159 558.817 146.342 559.623 146.144C564.9 144.92 569.913 142.754 574.421 139.75C575.479 139.029 577.581 138.19 576.786 136.765C575.795 134.909 574.309 136.846 573.275 137.433C567.845 140.657 561.881 142.878 555.665 143.993C555.13 144.144 554.563 144.141 554.03 143.984C553.496 143.826 553.019 143.521 552.652 143.103C548.815 139.103 544.956 135.145 541.087 131.186C540.378 130.439 539.818 129.563 539.439 128.606C535.695 119.836 532.277 110.949 531.018 101.433C530.097 94.4625 530.142 87.5693 534.163 81.2998C538.075 75.225 543.437 71.4133 550.658 70.4266C552.449 70.2052 554.267 70.366 555.991 70.8985C556.873 71.0988 557.68 71.5451 558.319 72.1858C558.957 72.8264 559.401 73.635 559.598 74.5177C563.722 87.8628 569.885 100.325 577.041 112.241C580.529 118.052 582.578 124.396 585.237 130.507C589.749 140.899 594.578 151.122 599.88 161.129C602.852 166.801 606.065 172.396 609.099 178.069C610.617 180.906 611.836 183.893 612.735 186.982C614.914 194.318 617.007 201.797 619.604 209.071C619.834 209.428 619.976 209.835 620.017 210.257C620.058 210.68 619.999 211.106 619.842 211.5Z" fill="#6C382C"/>
<path d="M377.18 88.6545L322.894 111.156C322.997 109.908 323.49 108.724 324.303 107.771C336.52 89.3472 349.868 71.6988 364.271 54.9277C372.283 45.5594 380.225 36.0958 389.425 27.8088C393.505 24.0339 398.585 21.513 404.059 20.5475C419.018 17.9012 432.637 31.5875 429.815 46.4984C428.21 55.0042 424.149 62.4165 419.727 69.6843C419.045 70.7857 418.022 71.635 416.815 72.104C405.525 76.7455 394.253 81.422 382.996 86.1337C382.243 86.4891 381.413 86.6524 380.582 86.609C379.75 86.5655 378.942 86.3166 378.23 85.8846C375.985 84.6198 373.708 83.427 371.442 82.2032C370.765 81.8424 370.121 81.3993 369.39 81.1099C368.66 80.8204 367.557 80.4485 367.041 81.4853C366.525 82.5221 367.473 82.8484 368.108 83.2393C370.985 84.9574 373.842 86.6541 377.18 88.6545Z" fill="#6C382C"/>
<path d="M984.632 546.264C961.234 549.876 938.644 555.235 917.159 564.47C915.171 565.323 913.102 566.912 911.084 566.537C909.066 566.162 908.042 563.567 906.67 561.919C898.497 552.347 889.601 543.38 881.215 533.98C879.195 531.681 877.081 529.442 874.957 527.12C876.286 525.615 877.969 525.274 879.511 524.753C897.546 518.631 916.121 514.56 934.75 510.752C935.62 510.553 936.524 510.561 937.39 510.773C938.256 510.985 939.061 511.396 939.741 511.974C954.391 523.066 969.073 534.125 983.788 545.15C984.11 545.488 984.394 545.862 984.632 546.264Z" fill="#5FAB58"/>
<path d="M423.997 69.047C425.944 64.9384 427.6 61.6436 429.134 58.2624C431.537 53.2697 432.916 47.8466 433.19 42.3126C433.2 40.7621 433.682 39.2514 434.571 37.9812C438.144 32.9583 441.472 27.7625 445.607 23.1389C448.019 20.4597 450.895 18.238 454.096 16.5804C456.122 15.4409 458.374 14.7621 460.691 14.5925C463.009 14.4229 465.336 14.7666 467.505 15.5991C476.402 18.9507 483.219 24.3279 484.838 34.4256C485.296 38.1426 484.989 41.9141 483.935 45.5078C482.184 52.23 479.605 58.7085 476.257 64.7947C475.328 66.5175 474.49 66.766 472.627 66.0207C458.755 60.4595 444.875 60.3575 431.024 66.3291C428.963 67.2112 426.802 67.9348 423.997 69.047Z" fill="#6C382C"/>
<path d="M504.507 94.0238C499.297 88.855 494.571 84.2603 489.934 79.4496C486.794 76.2481 483.729 72.9446 479.978 70.4239C478.343 69.3413 477.717 68.2227 478.828 66.2968C480.986 62.5067 482.756 58.508 484.11 54.3617C484.831 52.2383 486.141 51.4406 488.429 51.4067C499.872 51.2372 507.599 59.6017 508.729 70.5082C509.604 78.4132 507.691 85.9855 504.507 94.0238Z" fill="#6C382C"/>
<path d="M814.124 161.922C814.141 157.701 814.023 153.466 815.79 149.487C817.791 144.954 821.508 142.357 825.731 140.315C827.29 139.555 827.892 140.808 828.112 141.947C828.776 144.951 828.98 148.038 828.715 151.103C828.084 156.567 827.484 162.042 826.977 167.53C826.501 172.623 825.817 177.711 825.683 182.844C825.627 184.995 824.871 185.267 823.087 183.9C820.828 182.204 818.726 180.308 816.808 178.235C814.382 175.572 814.21 172.178 813.933 168.874C813.827 166.552 814.064 164.24 814.124 161.922Z" fill="#6C382C"/>
<path d="M521.08 109.649C515.97 106.24 511.985 101.924 507.874 97.6992C507.691 97.5676 507.538 97.3997 507.423 97.206C507.309 97.0123 507.235 96.797 507.208 96.5736C507.181 96.3503 507.2 96.1237 507.264 95.908C507.329 95.6924 507.437 95.4924 507.582 95.3207C507.859 94.9599 508.258 94.7125 508.705 94.6246C509.151 94.5367 509.614 94.6144 510.007 94.8432C514.751 96.7451 518.405 99.7832 519.958 104.836C520.479 106.399 520.727 108.038 521.08 109.649Z" fill="#6C382C"/>
<path d="M386.283 143.922C384.441 143.978 384.357 143.996 383.837 141.196C382.751 135.386 381.801 129.548 380.705 123.748C380.422 122.233 380.813 121.609 382.354 121.525C386.464 121.306 390.567 121.066 394.664 120.806C396.102 120.698 396.847 121.216 397.06 122.626C397.944 128.586 398.974 134.551 399.806 140.531C400.149 142.921 399.98 143.031 397.375 143.254C394.041 143.49 390.761 143.643 386.283 143.922Z" fill="#184330"/>
<path d="M384.15 155.533C382.39 155.217 379.962 156.61 378.448 155.27C376.933 153.931 377.299 151.486 376.945 149.491C376.138 144.947 375.289 140.411 374.566 135.859C374.385 134.814 373.594 133.255 375.745 132.905C378.951 132.386 379.909 132.754 380.367 135.105C380.919 137.865 381.533 140.637 381.834 143.463C382.034 145.371 382.949 145.769 384.617 145.615C386.783 145.463 388.976 145.521 391.144 145.328C392.645 145.19 393.211 145.818 393.393 147.216C394.453 156.821 396.325 154.406 387.097 155.371C386.209 155.514 385.305 155.491 384.15 155.533Z" fill="#163E2C"/>
<path d="M402.62 162.618C402.688 164.409 405.144 165.149 403.877 166.28C402.226 167.776 401.62 165.493 400.801 164.609C399.597 163.299 398.575 161.827 397.337 160.245C400.093 158.237 402.137 161.223 404.482 161.003C404.573 159.893 403.628 159.473 403.2 158.744C402.95 158.332 402.556 157.916 403.119 157.463C403.682 157.01 404.175 156.825 404.488 157.177C406.391 158.894 407.978 160.93 409.177 163.195C409.701 164.248 408.441 164.715 407.502 164.441C405.933 163.973 404.422 163.31 402.62 162.618Z" fill="#171717"/>
<path d="M430.182 144.89C431.618 143.651 433.397 142.878 435.283 142.673C436.374 142.526 437.484 142.719 438.461 143.226C439.438 143.734 440.234 144.531 440.741 145.508C441.151 146.095 441.322 146.815 441.221 147.523C441.119 148.231 440.752 148.873 440.194 149.321C437.592 151.821 435.898 151.788 433.637 149.15C432.569 147.843 431.532 146.547 430.182 144.89Z" fill="#3F3F3E"/>
<path d="M375.508 170.303C376.68 169.683 377.885 169.128 379.118 168.64C381.877 167.724 383.427 168.492 383.89 171.478C384.165 173.274 386.385 172.708 386.464 174.467C384.719 175.961 383.284 173.594 381.641 173.978C381.016 174.408 381.401 174.824 381.713 175.186C382.026 175.547 382.518 176.247 381.848 176.791C381.737 176.906 381.603 176.998 381.455 177.058C381.306 177.119 381.147 177.149 380.986 177.145C380.826 177.14 380.668 177.103 380.523 177.034C380.378 176.966 380.249 176.868 380.144 176.746C378.343 174.817 376.479 172.938 375.508 170.303Z" fill="#121212"/>
<path d="M375.107 173.329C374.095 174.249 373.171 173.788 372.307 173.817C371.921 173.784 371.533 173.869 371.197 174.063C370.86 174.257 370.592 174.55 370.428 174.902C370.288 175.33 370.282 175.791 370.41 176.224C370.538 176.656 370.794 177.039 371.145 177.323C371.518 177.759 372.004 178.083 372.55 178.261C373.096 178.438 373.68 178.462 374.238 178.329C374.761 178.228 375.288 177.94 375.364 177.412C375.457 176.655 374.775 176.877 374.341 176.792C373.192 176.586 373.075 175.876 374.002 175.401C374.93 174.926 376.261 173.733 377.32 175.373C377.537 175.654 377.695 175.977 377.783 176.321C377.872 176.666 377.89 177.024 377.836 177.376C377.782 177.727 377.658 178.064 377.47 178.366C377.282 178.668 377.035 178.929 376.744 179.132C374.137 181.415 369.21 180.153 368.006 176.877C367.724 176.224 367.674 175.494 367.864 174.809C368.054 174.123 368.472 173.523 369.05 173.108C370.823 171.73 372.424 171.741 375.107 173.329Z" fill="#171716"/>
<path d="M429.162 146.517C429.669 146.613 430.289 146.744 430.358 147.297C430.651 149.613 432.166 150.931 434.397 151.905C432.268 153.794 430.821 151.479 429.046 151.765C428.41 152.227 428.844 152.727 429.268 153.216C429.692 153.706 429.775 154.093 429.316 154.538C429.216 154.663 429.089 154.762 428.943 154.83C428.798 154.897 428.64 154.93 428.48 154.925C428.32 154.921 428.163 154.88 428.022 154.806C427.88 154.731 427.758 154.625 427.664 154.495C425.978 152.579 424.312 150.643 422.546 148.611C423.623 147.163 425.097 146.889 426.521 146.51C426.935 146.318 427.386 146.219 427.842 146.22C428.298 146.221 428.749 146.322 429.162 146.517Z" fill="#161515"/>
<path d="M383.372 166.629L387.691 164.506C388.312 164.2 388.941 164.019 389.284 164.808C389.627 165.597 388.779 165.834 388.304 166.124C387.828 166.413 386.825 166.605 386.46 167.427C387.148 168.963 388.131 167.96 388.971 167.659C389.81 167.359 390.554 166.744 391.375 167.576C391.476 168.9 390.231 168.773 389.604 169.287C389.179 169.64 388.211 169.677 388.739 170.565C389.147 171.262 389.766 171.049 390.418 170.754C390.534 170.695 390.641 170.594 390.766 170.586C391.735 170.518 392.893 168.791 393.607 170.494C394.104 171.776 392.397 171.846 391.586 172.23C388.027 173.947 388.654 174.233 386.118 170.964C385.264 169.85 384.409 168.736 383.586 167.602C383.445 167.411 383.474 167.11 383.372 166.629Z" fill="#171717"/>
<path d="M395.88 167.07C396.625 168.036 397.463 167.402 398.26 167.132C399.057 166.862 399.804 166.132 400.83 167.074C399.744 168.845 397.812 169.148 396.18 169.917C395.443 170.261 395.014 169.595 394.631 169.117C393.18 167.343 391.76 165.548 390.28 163.711C391.712 162.219 393.449 161.818 395.09 161.091C395.319 160.967 395.587 160.934 395.839 160.999C396.092 161.063 396.311 161.22 396.453 161.438C396.711 161.923 396.347 162.32 395.912 162.662C395.19 163.215 393.339 163.239 393.913 164.357C394.665 165.801 395.823 164.094 396.836 163.913C397.473 163.805 398.096 163.447 398.428 164.266C398.76 165.086 397.892 165.292 397.427 165.582C396.962 165.871 395.877 165.999 395.88 167.07Z" fill="#1A1B1A"/>
<path d="M414.689 155.207C413.621 156.271 412.764 155.666 411.914 155.53C411.534 155.449 411.137 155.492 410.783 155.653C410.429 155.814 410.136 156.085 409.946 156.425C409.327 157.448 409.9 158.191 410.444 158.871C411.815 160.55 413.379 160.372 414.97 158.375C415.4 157.846 415.831 157.254 416.5 157.521C417.427 157.888 417.205 158.798 416.958 159.488C416.26 161.549 413.763 162.399 411.016 161.673C408.796 161.074 406.995 158.76 407.283 156.896C407.743 154.007 411.573 153.067 414.689 155.207Z" fill="#191919"/>
<path d="M426.73 155.219C425.895 156.154 425.394 156.224 424.681 156.06C421.764 155.443 421.69 155.504 420.316 158.328C420.248 158.502 420.142 158.658 420.005 158.786C419.869 158.914 419.706 159.009 419.528 159.066C418.814 159.297 418.622 158.71 418.509 158.26C417.96 156.561 417.464 154.842 416.958 153.124C416.72 152.296 416.118 151.438 417.135 150.716C417.524 150.371 418.02 150.174 418.539 150.157C419.058 150.14 419.567 150.305 419.977 150.624C420.487 151.001 420.998 151.326 421.571 151.705L426.73 155.219Z" fill="#181818"/>
<path d="M426.539 167.329C423.969 167.802 421.984 165.744 419.499 165.731C419.362 167.422 421.521 167.967 421.322 169.595C419.129 168.758 417.956 167.51 415.566 163.445C418.287 162.767 420.274 165.148 422.805 164.985C422.974 163.263 420.846 162.75 420.824 161.19C422.899 161.785 424.729 163.767 426.539 167.329Z" fill="#484847"/>
<path d="M399.378 176.478C399.081 174.724 397.272 173.928 396.962 172.256C399.095 172.998 400.56 174.617 402.491 178.348C399.8 179.068 397.775 176.561 395.251 176.839C395.469 178.435 397.491 179.06 397.298 180.896C394.959 179.68 393.324 177.755 391.8 174.399C394.582 174.201 396.733 176.222 399.378 176.478Z" fill="#414141"/>
<path d="M438.719 152.475C440.245 151.37 441.967 150.565 443.793 150.101C443.91 151.581 442.798 151.572 442.173 152.003C441.548 152.434 440.939 152.657 441.449 153.44C441.634 153.699 441.897 153.892 442.201 153.988C442.504 154.084 442.83 154.078 443.13 153.973C443.967 153.797 444.604 152.888 445.726 153.313C445.917 154.357 445.001 154.406 444.472 154.746C443.943 155.086 443.25 155.359 443.655 156.17C443.727 156.35 443.837 156.511 443.978 156.644C444.118 156.777 444.286 156.878 444.469 156.94C444.652 157.002 444.846 157.024 445.039 157.004C445.231 156.984 445.416 156.922 445.583 156.824C446.571 156.402 447.495 155.678 448.977 155.872C447.889 157.726 446.115 157.94 444.745 158.653C444.102 158.979 443.563 158.497 443.141 157.956C441.691 156.119 440.25 154.366 438.719 152.475Z" fill="#424242"/>
<path d="M414.98 171.967C410.293 171.844 409.973 171.774 408.81 175.664C406.968 173.359 406.516 170.737 406.166 168.222C405.982 166.907 407.468 167.31 408.175 167.723C410.48 169.073 412.719 170.514 414.98 171.967Z" fill="#434343"/>
<path d="M434.545 157.409C434.195 157.364 433.849 157.293 433.511 157.195C432.006 156.667 430.602 156.672 430.119 158.469C429.671 160.09 430.776 161.169 432.112 161.796C433.447 162.424 434.825 162.637 435.831 161.114C436.21 160.551 436.026 159.642 436.925 159.062C438.001 161.253 437.109 162.363 435.384 163.109C434.228 163.502 432.973 163.494 431.821 163.087C430.67 162.68 429.689 161.896 429.037 160.864C428.581 160.243 428.371 159.477 428.447 158.711C428.522 157.945 428.879 157.234 429.447 156.715C430.875 155.39 432.662 155.436 434.545 157.409Z" fill="#464646"/>
<path d="M379.455 180.441C379.319 182.07 378.002 181.942 377.321 182.537C376.96 182.83 376.361 183.064 376.791 183.719C377.07 184.164 377.393 184.557 377.987 184.51C379.091 184.435 379.932 183.281 381.212 183.668C378.768 186.069 378.768 186.069 379.886 189.426C377.258 187.735 376.071 185.396 374.66 183.3C374.359 182.866 374.747 182.325 375.273 182.089C376.568 181.478 377.788 180.553 379.455 180.441Z" fill="#3D3C3C"/>
<path d="M390.237 184.101C387.854 182.452 385.895 180.263 384.518 177.713C387.014 178.485 388.763 180.403 390.237 184.101Z" fill="#403F40"/>
<path d="M429.16 146.516L426.522 146.447C426.699 146.277 426.908 146.143 427.137 146.054C427.365 145.965 427.61 145.922 427.855 145.929C428.101 145.935 428.343 145.99 428.567 146.091C428.791 146.192 428.992 146.337 429.16 146.516Z" fill="#3F3F3E"/>
<path d="M719.553 450.827C717.994 450.786 716.581 450.749 715.178 450.713C715.017 450.721 714.856 450.694 714.705 450.635C714.555 450.575 714.42 450.484 714.307 450.368C714.195 450.252 714.109 450.113 714.055 449.961C714.001 449.809 713.98 449.647 713.993 449.486C713.975 449.224 714.058 448.965 714.223 448.761C714.388 448.557 714.625 448.423 714.885 448.386C715.999 448.096 717.139 447.917 718.289 447.851C734.013 447.814 748.683 443.507 762.769 436.897C768.154 434.438 773.172 431.244 777.679 427.407C777.87 427.245 778.052 427.053 778.253 426.902C779.164 426.26 780.281 424.927 781.213 425.866C782.56 427.233 781.146 428.443 780.082 429.362C775.885 432.751 771.355 435.705 766.562 438.181C754.017 445.133 740.438 448.657 726.303 450.358C724.072 450.715 721.812 450.872 719.553 450.827Z" fill="#0F0303"/>
<path d="M652.568 511.722C652.178 511.493 651.724 511.377 651.544 511.092C651.431 510.857 651.403 510.59 651.462 510.336C651.522 510.083 651.666 509.857 651.872 509.696C652.352 509.276 652.881 508.916 653.449 508.625C665.665 502.33 675.683 493.42 684.095 482.679C685.762 480.559 687.48 478.483 689.208 476.417C689.637 475.919 690.27 475.54 690.904 475.972C691.155 476.183 691.327 476.473 691.39 476.794C691.454 477.115 691.405 477.449 691.253 477.739C690.946 478.581 690.527 479.379 690.006 480.108C681.194 491.432 671.552 501.88 658.836 508.994C657.38 509.809 655.874 510.539 654.358 511.238C653.776 511.45 653.177 511.611 652.568 511.722Z" fill="#0C0302"/>
<path d="M698.313 146.039C699.352 146.066 700.385 146.311 700.557 147.314C700.728 148.317 699.78 148.781 698.84 148.933C689.768 150.329 682.326 154.949 675.487 160.802C675.021 161.236 674.528 161.64 674.01 162.012C673.793 162.159 673.529 162.219 673.269 162.179C673.01 162.14 672.775 162.004 672.612 161.798C672.408 161.638 672.267 161.411 672.213 161.156C672.159 160.902 672.195 160.638 672.316 160.408C672.695 159.744 673.17 159.14 673.725 158.614C680.385 152.529 688.506 148.27 697.298 146.251C697.632 146.161 697.971 146.09 698.313 146.039Z" fill="#100403"/>
<path d="M647.633 111.212C646.594 111.185 646.064 110.766 645.883 110.127C645.702 109.488 646.257 108.951 646.877 108.718C647.706 108.396 648.566 108.148 649.415 107.879C655.57 106.027 661.199 102.746 665.845 98.3044C666.581 97.5957 667.327 96.8976 668.123 96.2841C668.242 96.1759 668.383 96.0944 668.536 96.0449C668.689 95.9954 668.851 95.9791 669.011 95.9971C669.171 96.015 669.325 96.0668 669.463 96.149C669.602 96.2312 669.721 96.3419 669.813 96.4737C669.932 96.5823 670.028 96.7145 670.093 96.8619C670.159 97.0093 670.193 97.1688 670.194 97.3301C670.195 97.4915 670.162 97.6512 670.097 97.7992C670.033 97.9471 669.939 98.0801 669.82 98.1897C668.954 99.1238 668.066 100.047 667.119 100.896C662.103 105.511 656.069 108.877 649.507 110.721C648.805 110.931 648.061 111.14 647.633 111.212Z" fill="#150504"/>
<path d="M778.063 226.078C777.148 226.054 777.024 226.05 776.899 226.047C776.092 225.901 774.885 226.327 774.846 225.037C774.795 224.183 775.676 223.884 776.441 223.664C780.631 222.495 784.77 221.303 788.939 220.143C789.432 220.018 789.943 219.982 790.449 220.037C790.702 220.019 790.954 220.086 791.165 220.227C791.376 220.368 791.534 220.575 791.614 220.816C791.685 221.062 791.683 221.324 791.608 221.569C791.533 221.814 791.389 222.033 791.194 222.198C790.908 222.452 790.579 222.651 790.222 222.786C786.328 224.405 782.241 225.511 778.063 226.078Z" fill="#0E0403"/>
<path d="M332.209 429.827C314.263 429.022 296.822 423.633 281.549 414.176C278.93 412.548 276.368 410.832 273.864 409.026C272.642 408.089 271.51 407.039 270.483 405.891C270.33 405.763 270.208 405.601 270.127 405.419C270.045 405.237 270.005 405.039 270.01 404.839C270.015 404.639 270.065 404.444 270.157 404.266C270.248 404.088 270.378 403.933 270.537 403.813C270.799 403.619 271.121 403.524 271.447 403.546C271.772 403.568 272.079 403.704 272.312 403.932C273.333 404.666 274.351 405.503 275.371 406.279C288.933 416.606 304.886 423.336 321.748 425.842C325.562 426.384 329.403 426.72 333.254 426.849C333.642 426.838 334.031 426.849 334.418 426.879C335.609 427.035 337.439 426.657 337.276 428.514C337.113 430.371 335.351 429.763 334.123 429.814C333.32 429.898 332.542 429.836 332.209 429.827Z" fill="#0E0302"/>
<path d="M393 489.239C392.886 490.016 392.37 490.263 391.653 490.244C390.208 490.207 389.383 489.145 388.492 488.248C384.769 484.351 381.359 480.166 378.295 475.733C373.089 468.391 367.107 461.715 361.285 454.887C360.448 453.909 358.555 452.736 359.867 451.439C361.576 449.737 362.482 452.059 363.393 453.018C370.66 460.653 376.992 469.044 383.272 477.454C385.786 481.018 388.623 484.344 391.748 487.387C392.306 487.942 392.991 488.355 393 489.239Z" fill="#0C0302"/>
<path d="M269.467 209.205C269.132 209.279 268.721 209.508 268.422 209.406C263.917 207.876 259.531 206.016 255.298 203.844C254.785 203.602 254.066 203.229 254.389 202.416C254.487 202.17 254.676 201.97 254.917 201.859C255.158 201.747 255.432 201.732 255.684 201.816C260.709 203.309 265.657 204.967 269.488 208.8C269.55 208.812 269.472 209.007 269.467 209.205Z" fill="#020303"/>
<path d="M651.529 414.768C651.596 415.567 651.425 416.367 651.036 417.068C650.648 417.769 650.06 418.338 649.347 418.705L627.148 432.549C626.933 432.684 626.707 432.803 626.474 432.905C624.81 433.704 623.085 434.45 621.514 432.88C620.44 431.812 620.807 429.274 622.194 427.553C623.118 426.481 624.218 425.574 625.446 424.872C632.23 420.712 638.985 416.511 645.759 412.33C646.175 412.031 646.613 411.765 647.069 411.532C649.773 410.334 651.541 411.524 651.529 414.768Z" fill="#010302"/>
<path d="M621.86 178.808C621.145 178.716 620.374 178.769 620.174 178.036C619.929 177.073 620.689 176.666 621.423 176.415C622.756 175.951 624.107 175.559 625.459 175.168C632.432 173.335 638.942 170.054 644.563 165.538C645.558 164.744 646.62 164.037 647.738 163.427C647.971 163.306 648.24 163.273 648.496 163.333C648.752 163.393 648.978 163.542 649.133 163.755C649.314 163.942 649.418 164.19 649.424 164.45C649.431 164.71 649.34 164.963 649.169 165.159C648.774 165.662 648.334 166.128 647.854 166.55C640.855 172.651 632.389 176.828 623.288 178.668C622.815 178.745 622.338 178.792 621.86 178.808Z" fill="#100403"/>
<path d="M592.555 119.052C591.63 119.028 590.755 119.078 590.501 118.083C590.23 116.89 591.125 116.477 592.014 116.271C593.384 115.974 594.798 115.98 596.19 115.632C601.549 114.191 606.564 111.691 610.94 108.28C611.316 107.924 611.71 107.587 612.121 107.271C613.252 106.572 614.565 104.839 615.722 106.325C617.001 107.949 614.841 108.621 613.864 109.396C607.999 114.182 601.543 117.726 593.863 118.722C593.422 118.81 592.986 118.92 592.555 119.052Z" fill="#150403"/>
<path d="M474.574 247.736L461.489 244.275L439.467 238.616C438.351 238.327 437.236 238.028 436.143 237.666C435.853 237.625 435.577 237.516 435.337 237.347C435.097 237.178 434.901 236.955 434.765 236.695C434.629 236.436 434.556 236.148 434.552 235.855C434.549 235.562 434.616 235.272 434.746 235.009C436.167 231.157 437.537 227.283 439.02 223.454C439.666 221.807 441.068 222.27 442.328 222.614L458.672 227.086C459.044 227.189 459.404 227.334 459.776 227.437C463.637 228.505 463.69 228.454 464.932 224.701C468.988 212.329 472.857 199.951 477.333 187.818C479.574 181.638 479.292 182.077 485.242 183.595C487.845 184.266 490.481 184.854 493.095 185.515C496.267 186.305 496.366 186.484 495.324 189.733C494.815 191.331 494.264 192.898 493.683 194.463C487.509 211.096 482.212 228.012 476.296 244.724C475.843 246.126 475.824 248.07 474.574 247.736Z" fill="#60B158"/>
<path d="M514.74 265.442C516.394 268.605 517.964 271.818 519.744 274.932C520.74 276.601 520.221 277.357 518.701 278.232C513.286 281.325 512.963 281.327 508.327 277.275C506.177 275.284 503.813 273.538 501.278 272.069C503.349 274.764 505.463 277.44 507.472 280.185C509.48 282.931 509.306 282.812 506.457 284.402C505.222 285.097 503.997 285.814 502.714 286.384C500.44 287.437 499.571 287.279 498.148 285.225C496.367 282.547 494.797 279.74 493.163 276.984C490.173 272.029 487.489 266.895 484.118 262.19C483.034 260.685 483.144 259.637 484.931 258.925C485.172 258.827 485.394 258.698 485.626 258.589C494.915 254.069 491.687 253.85 499.474 259.897C500.692 261.066 502.065 262.061 503.556 262.853C504.537 261.911 503.6 261.19 503.274 260.506C502.198 258.315 501.037 256.163 499.866 254.021C499.092 252.618 499.369 251.544 500.781 250.832C503.078 249.686 505.415 248.603 507.712 247.446C508.966 246.813 509.869 247.263 510.813 248.141C517.443 254.421 524.084 260.681 530.736 266.92C531.117 267.271 531.472 267.649 531.799 268.05C533.612 270.271 533.53 270.633 531.008 272.044C524.93 275.431 524.93 275.431 520.342 270.33C518.726 268.52 517.088 266.72 515.461 264.91L514.74 265.442Z" fill="#64B25A"/>
<path d="M475.724 347.999C475.558 348.309 475.369 348.607 475.16 348.889C474.991 349.082 474.785 349.24 474.555 349.352C472.268 350.529 470.094 352.116 467.665 352.749C464.964 353.448 463.649 350.461 461.578 349.336C460.347 348.669 459.281 347.695 458.105 346.916C457.471 346.504 456.725 346.027 456.031 346.716C455.337 347.405 455.994 348.129 456.384 348.701C457.691 350.451 459.029 352.17 460.409 353.881C461.557 355.304 461.383 356.412 459.698 357.21C457.151 358.392 454.753 361.022 452.173 360.674C449.593 360.326 448.758 356.831 447.128 354.73C442.303 348.365 437.826 341.811 432.715 335.636C430.829 333.372 430.91 333.052 433.493 331.695C438.501 329.08 443.498 326.455 448.565 323.956C453.264 321.625 455.629 322.237 458.9 326.399C460.63 328.638 462.35 330.877 464.049 333.136C464.903 334.261 465.944 335.411 465.729 336.903C465.407 339.255 466.677 340.422 468.47 341.436C470.262 342.438 471.994 343.546 473.656 344.753C474.201 345.127 474.665 345.607 475.02 346.165C475.376 346.723 475.615 347.347 475.724 347.999Z" fill="#64B15C"/>
<path d="M558.909 244.102C561.217 246.512 563.567 248.882 565.822 251.343C567.359 253.026 567.337 253.462 565.376 254.503C558.702 257.989 559.708 258.515 555.015 253.037C549.877 247.121 544.537 241.325 539.886 235.058C538.319 232.938 538.326 232.667 540.65 231.303C540.977 231.104 541.315 230.915 541.704 230.749C548.183 227.517 546.752 227.761 552.099 230.905C554.769 232.438 557.45 233.96 560.142 235.472C560.236 235.475 560.371 235.478 560.963 235.494C558.38 232.879 555.976 230.549 553.679 228.118C551.777 226.093 551.807 225.73 554.312 224.568C561.428 221.27 559.364 220.655 564.576 226.551C569.505 232.143 574.423 237.748 579.33 243.366C581.349 245.717 581.339 246.091 578.555 247.578C572.131 251.06 572.131 251.05 565.752 247.244C563.705 246.005 561.629 244.773 559.526 243.546L558.909 244.102Z" fill="#60B157"/>
<path d="M475.138 300.285L474.084 300.819C472.83 301.462 471.595 302.168 470.31 302.8C466.363 304.59 466.465 305.882 462.839 301.753C462.453 301.154 461.85 300.728 461.156 300.564C460.462 300.401 459.732 300.512 459.119 300.876C457.307 301.785 457.099 302.165 457.994 304.133C458.267 304.715 458.572 305.282 458.906 305.831C459.907 307.354 459.555 308.468 457.933 309.258C455.973 310.246 454.005 311.172 452.074 312.224C451.803 312.401 451.499 312.52 451.18 312.573C450.86 312.626 450.534 312.613 450.22 312.533C449.907 312.454 449.613 312.31 449.358 312.111C449.102 311.912 448.891 311.663 448.737 311.378C448.027 310.468 447.411 309.486 446.9 308.45C443.897 301.619 440.604 294.948 437.024 288.435C436.527 287.538 436.126 286.581 435.713 285.645C435.554 285.399 435.452 285.121 435.416 284.831C435.379 284.54 435.408 284.245 435.501 283.968C435.595 283.69 435.749 283.437 435.954 283.228C436.158 283.019 436.408 282.858 436.683 282.759C440.717 280.784 444.762 278.81 448.788 276.762C450.242 276.031 451.157 276.824 452.163 277.713C457.647 282.765 463.173 287.786 468.667 292.816C470.475 294.465 472.265 296.123 474.038 297.792C474.386 298.108 474.663 298.492 474.852 298.922C475.042 299.351 475.139 299.816 475.138 300.285Z" fill="#64B15A"/>
<path d="M608.285 242.769C610.195 242.82 612.01 243.614 613.344 244.981C618.513 250.513 623.736 255.994 628.809 261.617C631.073 264.13 630.641 266.739 627.781 268.349C623.095 271.003 618.339 273.531 613.553 276.006C610.992 277.332 610.402 277.213 608.575 275.106C602.411 268.228 596.283 261.32 590.19 254.381C588.695 252.688 588.703 251.992 590.443 251.081C595.566 248.417 600.748 245.88 605.93 243.353C606.688 243.062 607.479 242.866 608.285 242.769Z" fill="#64B259"/>
<path d="M482.167 315.037C482.188 316.233 481.356 316.628 480.544 317.074C478.719 318.067 476.887 318.955 475.082 319.948C474.259 320.404 472.922 320.661 473.767 322.128C474.484 323.364 475.348 324.124 476.858 323.249C478.368 322.373 480.021 321.574 481.674 320.795C484.927 319.258 484.937 319.269 487.059 322.038C487.371 322.441 487.683 322.855 487.984 323.269C490.052 326.12 490.051 326.13 487.055 327.788C485.592 328.596 484.119 329.39 482.636 330.169C481.655 330.694 480.776 331.295 481.701 332.526C482.434 333.512 483.052 334.922 484.728 334.081C486.403 333.241 488.134 332.278 489.841 331.386C490.99 330.803 492.138 330.23 493.297 329.667C493.887 329.381 494.612 329.098 495.086 329.651C496.59 331.406 498.113 333.183 499.395 335.067C499.987 335.914 499.027 336.451 498.383 336.819C496.357 337.941 494.291 339 492.246 340.08C488.608 342.002 484.93 343.861 481.342 345.868C481.068 346.088 480.749 346.244 480.408 346.327C480.067 346.41 479.711 346.417 479.367 346.347C479.023 346.278 478.698 346.134 478.416 345.925C478.133 345.716 477.9 345.448 477.732 345.14C471.702 337.121 465.637 329.126 459.536 321.154C458.319 319.583 458.738 318.679 460.329 317.868C465.831 315.048 471.292 312.175 476.803 309.386C478.794 308.398 479.877 308.769 480.877 310.698C481.57 312.053 482.007 313.524 482.167 315.037Z" fill="#65B05B"/>
<path d="M427.737 288.068C428.517 288.046 429.291 288.22 429.986 288.574C430.682 288.928 431.278 289.451 431.719 290.095C434.384 293.555 437.124 296.964 439.599 300.554C442.073 304.144 441.43 305.676 437.804 307.558C435.865 308.547 433.884 309.535 431.966 310.525C429.255 311.983 429.265 312.014 431.023 314.379C432.098 315.821 433.194 317.243 434.333 318.625C435.472 320.006 435.246 320.728 433.805 321.731C426.516 326.501 426.404 326.415 421.197 319.53C416.645 313.463 412.463 307.146 407.613 301.311C405.435 298.696 405.556 298.439 408.582 296.875C413.251 294.46 417.951 292.076 422.641 289.692C424.208 288.802 425.944 288.248 427.737 288.068Z" fill="#63B05B"/>
<path d="M524.701 285.013C525.129 284.992 525.555 285.083 525.938 285.275C526.321 285.467 526.648 285.754 526.887 286.11C527.634 287.158 528.188 288.331 528.523 289.573C528.681 289.891 528.77 290.239 528.783 290.594C528.797 290.948 528.735 291.302 528.601 291.63C528.468 291.959 528.266 292.256 528.009 292.501C527.752 292.746 527.447 292.933 527.112 293.051C525.374 293.88 523.696 294.834 522.018 295.778C521.216 296.236 519.86 296.408 520.487 297.88C521.114 299.352 522.352 299.718 523.922 298.947C525.765 298.039 527.609 297.12 529.383 296.095C530.913 295.22 532.006 295.591 533.043 296.887C537.514 302.473 537.469 301.422 531.804 304.508C531.129 304.875 530.414 305.179 529.697 305.556C528.811 306.063 527.706 306.544 528.524 307.875C529.342 309.207 530.03 310.348 531.855 309.366C534.344 308.027 536.922 306.857 539.381 305.465C539.658 305.247 539.98 305.092 540.323 305.012C540.666 304.931 541.023 304.927 541.368 305C541.713 305.072 542.038 305.219 542.32 305.431C542.602 305.643 542.835 305.914 543.001 306.225C546.866 311.525 547.709 310.705 541.653 314.03C537.486 316.313 533.22 318.427 529.082 320.763C527.258 321.755 526.049 321.454 524.81 319.893C518.824 312.34 512.809 304.814 506.765 297.314C505.757 296.092 505.027 294.971 506.998 293.951C512.479 291.141 517.95 288.289 523.431 285.479C523.841 285.289 524.265 285.133 524.701 285.013Z" fill="#63B159"/>
<path d="M567.406 289.1C564.063 284.115 560.698 279.151 557.397 274.136C554.276 269.406 553.272 270.045 559.034 267.19C564.407 264.544 564.303 264.541 567.119 269.803C570.876 276.837 574.771 283.792 578.592 290.796C580.111 293.56 580.106 293.747 577.374 295.246C574.642 296.745 571.621 298.132 568.785 299.629C568.236 299.972 567.589 300.124 566.946 300.06C566.302 299.996 565.697 299.72 565.227 299.276C557.513 292.835 549.744 286.508 542.061 280.048C539.741 278.095 539.937 276.956 542.793 275.523C549.915 271.954 547.797 271.431 553.683 277.002C558.078 281.152 562.397 285.372 566.749 289.551L567.406 289.1Z" fill="#66B15C"/>
<path d="M607.893 278.936C601.568 282.244 595.6 285.385 589.621 288.577C588.071 289.4 587.22 288.515 586.364 287.453C582.669 283.197 578.967 278.941 575.258 274.685C572.745 271.77 570.21 268.886 567.74 265.91C566.028 263.785 566.107 263.527 568.574 262.24C573.466 259.695 578.377 257.182 583.328 254.753C585.698 253.588 586.87 254.096 588.143 256.74C589.731 260.026 589.445 261.016 586.964 262.044C585.462 262.735 584.001 263.513 582.588 264.373C581.786 264.81 580.857 265.368 581.495 266.424C582.024 267.27 582.708 268.161 583.993 267.529C585.595 266.718 587.203 265.922 588.818 265.139C591.978 263.588 592.051 263.559 594.22 266.132C597.357 269.854 598.852 269.56 592.857 272.533C592.172 272.88 591.477 273.215 590.812 273.603C589.978 274.081 588.598 274.377 589.487 275.763C590.236 276.926 591.087 278.217 592.889 277.276C595.398 275.979 597.947 274.756 600.445 273.449C600.704 273.263 600.998 273.131 601.309 273.062C601.62 272.993 601.942 272.988 602.256 273.046C602.569 273.105 602.867 273.227 603.132 273.404C603.397 273.581 603.624 273.81 603.798 274.077C605.049 275.565 606.704 276.701 607.893 278.936Z" fill="#5FB058"/>
<path d="M534.297 234.434C534.722 234.395 535.149 234.478 535.528 234.672C535.908 234.866 536.225 235.163 536.442 235.53C537.183 236.583 537.763 237.741 538.162 238.965C538.329 239.244 538.428 239.558 538.452 239.882C538.475 240.207 538.422 240.532 538.297 240.832C538.172 241.132 537.978 241.399 537.731 241.611C537.484 241.822 537.191 241.973 536.875 242.051C535.118 242.837 533.41 243.728 531.712 244.661C531.005 245.049 529.771 245.318 530.487 246.564C531.063 247.618 531.84 248.502 533.284 247.76C535.108 246.83 537.031 246.038 538.785 244.981C540.539 243.925 541.925 244.189 543.047 245.82C543.419 246.339 543.875 246.798 544.267 247.308C546.377 250.108 546.376 250.15 543.371 251.745C542.127 252.41 540.853 253.021 539.607 253.727C538.858 254.144 537.766 254.532 538.412 255.703C539.057 256.874 539.82 257.923 541.495 257.104C543.17 256.284 544.748 255.577 546.37 254.798C551.151 252.499 551.151 252.489 554.39 256.671C556.13 258.921 556.159 259.036 553.733 260.335C548.977 262.883 544.242 265.401 539.385 267.822C536.466 269.295 535.898 269.155 533.801 266.636C528.243 259.899 522.721 253.131 517.235 246.332C515.593 244.303 515.683 243.64 517.896 242.513C522.818 240 527.8 237.571 532.76 235.164C533.3 234.793 533.909 234.59 534.297 234.434Z" fill="#5FB158"/>
<path d="M504.137 332.695C503.309 332.682 502.496 332.477 501.761 332.097C501.026 331.717 500.389 331.172 499.899 330.505C494.774 324.059 489.618 317.644 484.599 311.128C482.849 308.847 483.157 306.588 485.607 305.154C490.486 302.308 495.563 299.788 500.571 297.163C501.089 296.866 501.702 296.783 502.28 296.93C502.859 297.077 503.357 297.443 503.67 297.951C504.159 298.546 504.598 299.18 504.983 299.847C506.75 303.065 506.5 303.89 503.285 305.543C501.683 306.374 500.061 307.143 498.419 307.901C496.777 308.659 496.463 309.545 497.635 310.865C500.555 314.123 503.444 317.401 506.035 320.932C506.928 322.151 508.091 321.807 509.146 321.242C511.433 320.085 513.79 319.013 515.987 317.697C517.804 316.611 518.968 317.047 520.217 318.598C524.548 323.983 524.259 323.112 518.89 326.019C515.377 327.924 511.836 329.745 508.294 331.576C507.056 332.367 505.605 332.757 504.137 332.695Z" fill="#63B15B"/>
<path d="M474.374 276.93C473.213 274.404 472.042 271.878 470.902 269.342C469.761 266.807 469.737 266.556 472.33 265.22C474.038 264.318 475.815 263.554 477.533 262.673C478.999 261.9 479.992 262.488 480.782 263.704C481.512 264.922 482.013 266.264 482.259 267.663C483.072 271.563 484.043 275.436 484.626 279.382C485.088 282.708 486.582 285.806 488.898 288.238C490.027 289.174 490.901 290.381 491.437 291.746C489.057 293.691 486.097 294.727 483.429 296.175C483.1 296.373 482.713 296.449 482.334 296.39C481.955 296.33 481.61 296.14 481.358 295.851C481.257 295.772 481.168 295.678 481.094 295.574C476.001 287.122 466.835 284.127 459.135 279.133C457.682 278.305 456.368 277.253 455.244 276.016C454.317 274.868 454.352 273.913 455.773 273.263C457.993 272.281 460.233 271.3 462.436 270.182C463.731 269.551 464.61 270.166 465.536 270.929C468.215 273.078 470.925 275.229 473.622 277.452L474.374 276.93Z" fill="#65B15C"/>
<path d="M597.97 237.166C595.713 239.187 593.102 240.003 590.8 241.357C589.269 242.253 588.447 241.087 587.598 240.129C583.848 235.872 580.115 231.615 576.399 227.359C575.864 226.803 575.362 226.218 574.896 225.604C573.793 224.005 572.638 224.058 570.992 224.972C567.953 226.65 564.399 224.987 563.208 221.597C562.811 220.484 563.377 219.886 564.242 219.44C569.722 216.62 575.085 213.546 580.783 211.178C582.959 210.268 586.948 214.043 586.44 216.359C586.368 216.671 586.224 216.961 586.021 217.209C585.818 217.456 585.561 217.653 585.269 217.784C584.393 218.281 583.517 218.778 582.347 219.403C587.446 225.65 593.236 230.897 597.97 237.166Z" fill="#69B35C"/>
<path d="M528.542 283.262C530.838 281.377 533.593 280.575 536.021 279.193C536.404 278.947 536.869 278.86 537.315 278.952C537.762 279.043 538.155 279.305 538.41 279.682C539.602 281.034 540.837 282.345 541.997 283.717C546.864 289.521 551.721 295.34 556.568 301.171C557.142 301.862 557.696 302.563 558.228 303.294C558.388 303.457 558.504 303.657 558.567 303.877C558.63 304.096 558.637 304.327 558.588 304.55C558.538 304.773 558.434 304.98 558.285 305.152C558.136 305.325 557.946 305.457 557.733 305.538C555.721 306.671 553.685 307.765 551.626 308.821C549.856 309.721 548.748 308.746 547.722 307.398C543.392 301.982 538.977 296.626 534.711 291.159C532.688 288.559 529.998 286.451 528.542 283.262Z" fill="#62B05A"/>
<path d="M450.566 339.357C449.452 339.401 447.187 336.919 446.909 335.653C446.63 334.388 447.664 334.196 448.372 333.768C449.862 332.871 451.015 333.306 451.861 334.753C451.99 334.975 452.162 335.166 452.281 335.388C452.688 336.126 453.66 336.755 453.208 337.71C452.679 338.861 451.327 338.867 450.566 339.357Z" fill="#F0F9ED"/>
<path d="M448.897 286.935C450.476 288.557 452.068 290.137 453.626 291.8C454.142 292.354 454.77 292.995 453.805 293.687C453.643 293.846 453.447 293.966 453.231 294.038C453.015 294.109 452.786 294.13 452.561 294.099C452.336 294.068 452.121 293.986 451.932 293.859C451.744 293.732 451.587 293.563 451.474 293.366C450.276 291.463 449.183 289.501 448.038 287.557L448.897 286.935Z" fill="#E1F5DD"/>
<path d="M617.511 263.797C614.033 266.389 613.991 266.419 611.635 263.82C609.28 261.222 607.091 258.648 604.819 256.062C604.132 255.275 603.331 254.484 604.562 253.528C605.485 252.825 606.451 252.07 607.564 253.253L617.511 263.797Z" fill="#F5FCF3"/>
<path d="M420.594 300.402C424.4 298.005 424.711 298.013 426.684 300.945C427.224 301.76 428.637 302.597 427.181 303.797C425.725 304.996 424.111 305.069 422.941 303.686C422.146 302.667 421.456 301.61 420.594 300.402Z" fill="#EDF9EA"/>
<path d="M433.861 145.339C436.341 144.364 437.685 144.659 438.502 146.438C438.694 146.783 438.748 147.188 438.653 147.572C438.558 147.955 438.321 148.289 437.99 148.504C437.319 149.111 436.62 149.207 436.016 148.453C435.253 147.414 434.17 146.647 433.861 145.339Z" fill="#E1E1E1"/>
<path d="M381.725 171.067C381.599 171.937 380.925 172.252 380.185 172.357C380.002 172.399 379.811 172.4 379.628 172.358C379.445 172.317 379.273 172.235 379.125 172.119C378.978 172.002 378.858 171.854 378.775 171.685C378.693 171.516 378.649 171.331 378.647 171.143C378.663 170.551 379.277 170.12 379.964 170.055C380.332 169.963 380.721 170.018 381.049 170.206C381.377 170.395 381.62 170.704 381.725 171.067Z" fill="#C7C7C7"/>
<path d="M428.807 148.878C428.899 149.753 428.246 150.079 427.671 150.199C427.482 150.236 427.286 150.233 427.098 150.19C426.91 150.147 426.733 150.065 426.578 149.95C426.424 149.834 426.295 149.687 426.2 149.519C426.106 149.35 426.048 149.164 426.03 148.972C425.9 148.376 426.416 148.119 426.959 148.019C427.318 147.891 427.713 147.91 428.059 148.07C428.404 148.231 428.673 148.521 428.807 148.878Z" fill="#CBCAC9"/>
<path d="M421.461 153.864C421.097 154.645 420.675 154.883 420.156 154.87C419.211 154.845 419.003 154.06 418.97 153.332C418.937 152.604 419.427 152.564 419.961 152.786C420.496 153.008 421.246 153.318 421.461 153.864Z" fill="#A6A6A6"/>
<path d="M408.225 169.409C408.528 169.465 408.822 169.56 409.101 169.692C409.612 170.007 410.324 170.181 410.377 170.972C410.363 171.502 409.947 171.522 409.611 171.638C408.563 171.985 408.26 171.25 408.009 170.495C407.903 170.17 407.592 169.777 408.225 169.409Z" fill="#D1D1D1"/>
</svg>
