<svg width="402" height="293" viewBox="0 0 402 293" fill="none" xmlns="http://www.w3.org/2000/svg">
<path d="M-162.626 78.0251L-47.3158 339.235L288.38 321.389L272.629 12.0145L-162.626 78.0251Z" fill="#1F2933"/>
<g clip-path="url(#clip0_518_2191)">
<path d="M182.036 290.3C178.267 287.017 174.826 283.376 171.763 279.426C170.576 277.936 170.576 277.918 168.962 278.906C164.57 281.599 160.237 284.349 155.785 286.979C151.333 289.61 146.558 291.214 141.332 291.078C133.314 290.832 126.678 287.63 121.561 281.427C118.138 277.274 114.809 273.042 111.467 268.848C111.093 268.384 110.7 267.939 110.158 267.305C108.711 269.73 107.098 272.052 105.33 274.254C99.4683 281.644 92.1182 287.719 83.7569 292.084C77.1316 295.508 71.5537 300.658 67.6121 306.99C64.6983 311.524 62.1654 316.258 59.7109 321.044C59.5121 321.401 59.4104 321.804 59.4159 322.213C59.4214 322.622 59.5338 323.022 59.7421 323.374C60.5807 325.07 61.295 326.83 62.1151 328.531C64.5984 333.69 64.8251 338.864 62.3227 344.078L60.4847 344.03C59.9567 343.354 60.3169 342.707 60.6083 342.114C62.7268 337.749 61.7816 333.561 59.9715 329.388C54.9747 317.879 48.0999 307.621 39.9116 298.126C30.2466 286.955 19.1272 277.72 6.02434 270.959C-5.98671 264.72 -19.0451 260.749 -32.4962 259.244C-34.9046 258.973 -37.2895 258.506 -39.731 258.798C-44.7603 259.347 -48.1606 262.551 -51.9098 266.205C-48.329 266.421 -45.1767 266.614 -42.0827 266.927C-25.4059 268.523 -9.28867 273.788 5.11432 282.345C16.858 289.358 27.3833 298.233 36.2782 308.625C44.7547 318.466 51.7228 329.511 56.9546 341.399C57.3019 342.187 57.9674 342.995 57.2746 343.94L55.4366 343.892C53.56 341.562 52.6536 338.706 51.2373 336.125C46.3092 327.15 40.8807 318.56 34.1814 310.74C24.6701 299.708 13.3569 290.369 0.722898 283.119C-3.81714 280.529 -8.56932 278.329 -13.4822 276.544C-14.6964 276.084 -15.9111 275.647 -17.1262 275.223C-17.6367 275.051 -18.1343 274.854 -18.6578 274.711C-19.3025 274.546 -19.9274 274.312 -20.5217 274.013C-30.6879 271.479 -40.9184 269.533 -51.4441 269.27C-67.9185 268.841 -82.9004 273.244 -96.3897 282.708C-97.5699 283.535 -98.833 284.244 -99.9481 285.159C-100.104 285.29 -100.212 285.468 -100.256 285.666C-99.7558 286.482 -98.7678 286.447 -97.9574 286.64C-88.2937 288.927 -79.2803 292.877 -70.4835 297.374C-67.2949 298.996 -67.0851 300.589 -69.712 303.053C-75.2894 308.191 -80.5863 313.625 -85.5799 319.333C-87.2935 321.33 -88.3153 321.487 -90.751 320.148C-97.6114 316.389 -104.603 312.957 -112.061 310.494C-116.321 309.133 -120.668 308.059 -125.073 307.28C-125.664 307.145 -126.28 307.161 -126.863 307.325C-127.447 307.49 -127.98 307.799 -128.414 308.222C-139.026 317.835 -150.601 326.318 -161.522 335.579C-162.659 336.584 -163.917 337.443 -165.267 338.136L-168 338.065C-166.237 336.063 -164.07 334.525 -162.045 332.825C-152.586 324.862 -142.693 317.432 -133.353 309.326C-125.381 302.41 -117.534 295.362 -109.187 288.922C-102.711 283.91 -96.0574 279.136 -88.7905 275.298C-79.454 270.319 -69.1097 267.525 -58.5366 267.124C-56.5913 267.052 -55.1012 266.569 -53.846 264.984C-52.6454 263.614 -51.3435 262.336 -49.9513 261.162C-46.0681 257.541 -41.447 255.719 -36.198 256.616C-32.9758 257.184 -31.338 255.976 -29.9037 253.402C-28.3984 250.688 -26.7418 248.052 -25.2424 245.333C-24.0941 243.314 -23.4117 241.064 -23.2452 238.747C-23.0787 236.431 -23.4323 234.106 -24.2801 231.944C-25.8592 227.611 -27.574 223.312 -29.2829 219.018C-33.3449 208.809 -37.5309 198.651 -42.1633 188.685C-44.6594 183.31 -46.648 177.753 -47.2959 171.802C-47.7898 167.234 -47.2851 162.692 -46.5795 158.204C-45.2429 149.735 -45.4759 141.275 -46.3277 132.799C-46.6291 129.781 -46.8997 126.757 -46.9676 123.721C-47.0618 119.757 -46.3629 115.815 -44.9119 112.126C-43.2964 108.011 -42.3992 103.7 -41.6062 99.3865C-41.1554 96.9092 -41.8748 94.4075 -42.0246 91.9206C-42.3043 87.8364 -42.756 83.766 -43.0541 79.6813C-43.7702 70.2336 -37.4554 66.9344 -30.7161 67.1101C-26.0967 67.2306 -22.0174 69.023 -18.4516 71.93C-16.1253 73.8673 -14.0813 76.1204 -12.3789 78.6237C-11.3448 80.1098 -11.3261 80.098 -9.76049 79.3051C-2.14725 75.3531 5.92879 72.4616 13.8022 69.1111C13.9467 69.0743 14.0959 69.0596 14.2448 69.0675C15.2792 68.8983 15.4592 69.516 15.4381 70.3248C12.9959 72.5233 9.78592 73.1324 6.90835 74.3938C2.12031 76.5067 -2.82952 78.2413 -7.43205 80.7636C-8.12877 81.1501 -8.96402 81.441 -9.09825 82.3571C-8.62508 83.0193 -8.21033 82.6316 -7.87295 82.389C-2.47854 78.8881 3.64125 76.9571 9.50007 74.4553C22.2592 69.0067 35.1171 63.7692 47.9292 58.4079C57.1602 54.5615 66.4015 50.7154 75.653 46.8695C80.7657 44.7651 85.723 42.2766 91.0493 40.6805C101.084 37.6745 109.66 39.8293 116.97 47.4872C126.131 57.0878 135.561 66.4257 144.879 75.877C148.654 79.7091 152.39 83.5831 156.159 87.4334C162.998 94.4251 169.827 101.431 176.645 108.451C184.587 116.591 192.597 124.665 200.583 132.764C209.632 141.945 218.605 151.191 227.666 160.36C235.432 168.177 243.201 175.896 250.81 183.862C252.218 185.339 253.664 186.775 255.054 188.264C260.825 194.545 261.535 204.686 252.471 210.917C249.718 212.813 246.9 214.597 244.053 216.344C230.155 224.871 216.24 233.392 202.31 241.906C189.621 249.667 176.931 257.429 164.238 265.19C161.453 266.884 158.721 268.676 155.942 270.375C150.902 273.456 145.546 275.266 139.528 274.705C134.831 274.263 130.702 272.721 127.378 269.244C122.234 263.856 117.798 257.885 113.111 252.135C106.29 243.803 99.4856 235.462 92.698 227.11C85.0001 217.62 77.285 208.159 69.5528 198.728C62.0068 189.525 54.6111 180.198 47.0527 171.001C40.5932 163.157 34.2587 155.218 27.8618 147.32C19.6596 137.186 11.495 127.017 3.24906 116.913C1.15189 114.345 -0.76346 111.622 -3.28805 108.987C-3.64652 110.744 -2.92125 111.848 -2.07812 112.9C3.19403 119.493 8.57982 125.96 13.816 132.522C23.5357 144.651 33.4176 156.673 43.0941 168.813C52.2726 180.302 61.6013 191.673 70.9237 203.05C77.751 211.369 84.3776 219.861 91.1734 228.211C97.9692 236.56 104.651 244.809 111.418 253.084C115.019 257.47 118.763 261.785 122.107 266.391C131.23 279.037 144.4 279.234 155.535 272.615C170.392 263.806 185.064 254.606 199.805 245.568C217.665 234.626 235.494 223.647 253.29 212.631C257.409 210.09 260.622 206.777 261.484 201.699C262.055 198.384 261.244 195.396 259.788 192.458C259.328 191.533 258.497 190.726 258.767 189.538C258.921 189.285 259.155 189.091 259.432 188.987C259.71 188.883 260.014 188.875 260.296 188.965C262.708 190.493 263.664 193.093 264.416 195.54C267.306 205.1 266.329 214.117 259.866 222.133C258.022 224.427 255.567 225.951 253.083 227.406C250.013 229.215 247.073 231.235 243.974 232.987C241.99 234.116 240.401 235.828 239.42 237.889C237.041 242.609 235.076 247.413 235.773 252.888C235.901 253.86 235.722 254.842 234.495 254.884C233.452 254.912 233.126 254.002 233.106 253.131C232.983 250.632 233.088 248.127 233.418 245.647C233.535 244.933 233.946 244.221 233.478 243.332C232.193 243.741 230.958 244.297 229.8 244.989C220.002 250.656 210.583 256.835 202.454 264.82C196.358 270.792 191.139 277.449 187.321 285.135C187.065 285.767 186.726 286.362 186.312 286.905C184.843 287.995 184.288 290.218 182.036 290.3Z" fill="#020303"/>
<path d="M246.574 348.877L229.738 348.438C229.382 347.497 230.043 346.858 230.453 346.163C235.524 337.658 241.66 329.952 248.318 322.658C257.274 312.832 267.689 304.444 279.197 297.788C291.417 290.707 304.576 286.378 318.503 284.099C325.696 283.025 332.961 282.511 340.234 282.563C352.914 282.483 364.674 285.745 375.104 293.214C377.198 294.716 379.318 296.169 381.412 297.67C382.014 298.103 382.843 298.535 382.593 299.418C382.39 300.154 381.518 300.187 380.871 300.323C376.193 301.292 371.53 302.336 366.88 303.422C360.712 304.849 354.729 306.704 348.743 308.645C346.116 309.496 346.017 309.984 347.705 312.253C349.932 315.254 352.649 317.802 355.209 320.486C359.386 324.887 363.563 329.287 367.325 334.057C368.4 335.403 369.503 335.395 370.918 334.764C378.274 331.51 385.896 328.897 393.701 326.953C400.264 325.419 406.85 323.942 413.58 323.314C414.101 323.226 414.635 323.241 415.151 323.36C415.667 323.479 416.154 323.698 416.584 324.006C425.826 330.898 434.59 338.411 442.814 346.491C443.562 347.244 444.183 348.113 444.653 349.065L444.523 354.07L372.633 352.195C370.096 350.29 368.499 347.587 366.513 345.23C360.655 338.285 354.778 331.357 348.62 324.673C345.537 321.337 342.669 317.774 339.491 314.552C338.339 313.34 336.879 312.464 335.266 312.021C324.455 309.047 313.55 306.415 302.726 303.484C301.204 303.076 300.057 303.776 298.888 304.438C292.218 308.198 285.829 312.437 279.772 317.121C268.406 325.845 258.078 335.845 248.991 346.923C248.335 347.741 247.511 348.407 246.574 348.877Z" fill="black"/>
<path d="M42.699 343.56L-86.9945 340.177C-86.5079 337.738 -84.4415 336.314 -82.9746 334.605C-75.8464 326.449 -68.4865 318.499 -60.895 310.756C-54.2178 303.91 -47.159 297.473 -40.2434 290.885C-38.1689 288.916 -35.8551 287.174 -33.6545 285.307C-32.9369 284.639 -32.0573 284.171 -31.103 283.949C-30.1487 283.726 -29.1527 283.757 -28.2141 284.038C-15.4361 287.181 -3.42791 292.881 7.08504 300.795C12.4115 304.688 17.3894 309.038 21.9625 313.794C30.03 322.281 37.1394 331.533 42.4191 342.069C42.6585 342.529 42.9897 342.991 42.699 343.56Z" fill="black"/>
<path d="M444.666 349.034C443.85 348.479 443.129 347.795 442.53 347.011C439.296 343.603 435.689 340.622 432.216 337.472C427.119 332.845 421.68 328.663 416.254 324.451C415.987 324.191 415.666 323.993 415.315 323.871C414.963 323.748 414.589 323.704 414.218 323.742C407.864 324.534 401.562 325.696 395.343 327.222C387.988 329.041 380.747 331.176 373.83 334.294C372.588 334.875 371.278 335.27 370.05 335.844C368.821 336.419 368.004 336.006 367.28 335.061C362.199 328.436 356.289 322.556 350.53 316.532C348.955 314.885 347.636 313.042 346.116 311.353C345.235 310.368 345.345 309.653 346.467 308.947C347.056 308.625 347.679 308.371 348.326 308.192C358.637 304.741 369.172 301.997 379.856 299.978C380.663 299.821 381.459 299.621 382.422 299.401C381.682 298.37 380.621 297.92 379.737 297.271C375.571 294.121 371.149 291.325 366.516 288.913C361.853 286.578 356.861 284.968 351.712 284.138C349.239 283.82 346.752 283.626 344.26 283.557C343.275 283.598 342.289 283.473 341.345 283.187C340.925 283.007 340.457 282.966 340.012 283.072C338.213 283.639 336.395 283.297 334.586 283.311C329.913 283.358 325.248 283.72 320.623 284.394C315.023 285.175 309.485 286.352 304.051 287.916C300.196 289.041 296.405 290.31 292.688 291.794C286.145 294.403 279.895 297.692 274.04 301.608C269.313 304.727 264.782 308.133 260.47 311.805C257.717 314.185 255.005 316.604 252.413 319.142C248.192 323.36 244.247 327.846 240.604 332.573C236.581 337.575 232.948 342.879 229.738 348.438L227.9 348.39C227.25 346.742 228.456 345.645 229.227 344.519C233.608 337.775 238.406 331.311 243.593 325.165C251.592 315.82 260.824 307.605 271.034 300.745C286.126 290.543 303.434 284.09 321.521 281.922C325.937 281.375 330.385 281.246 335.18 280.745C331.781 276.862 329.09 272.831 325.466 269.579C322.471 266.877 318.807 266.34 315.042 266.61C291.985 268.197 271.684 276.747 253.543 290.859C241.948 299.854 232.09 310.889 224.456 323.421C222.557 326.445 221.017 329.681 219.87 333.062C218.824 336.27 219.054 339.758 220.511 342.802C221.293 344.551 222.742 346.103 222.46 348.242L220.622 348.194C219.732 346.331 218.792 344.541 217.964 342.674C217.204 341.057 216.782 339.301 216.723 337.515C216.664 335.729 216.97 333.95 217.622 332.286C218.281 330.519 219.037 328.779 219.873 327.078C220.056 326.761 220.147 326.398 220.135 326.032C220.123 325.665 220.008 325.309 219.804 325.004C216.872 319.888 213.86 314.789 210.261 310.085C208.806 308.232 207.025 306.661 205.006 305.448C203.194 304.345 201.318 303.352 199.388 302.475C192.917 299.497 187.038 295.372 182.036 290.3C183.681 289.516 184.426 287.775 185.808 286.72C185.942 286.859 186.032 287.034 186.065 287.224C186.099 287.414 186.074 287.61 185.995 287.786C184.92 289.762 185.914 290.886 187.421 292.114C191.443 295.395 195.625 298.428 200.448 300.363C207.31 303.117 212.23 307.947 215.992 314.146C217.367 316.413 218.799 318.651 220.143 320.942C221.117 322.605 221.485 322.62 222.427 321.033C229.149 309.664 237.994 300.079 247.951 291.578C257.894 283.075 269.152 276.244 281.285 271.351C289.591 267.993 298.288 265.695 307.169 264.51C309.679 264.171 309.705 264.123 308.559 261.782C306.851 258.471 305.638 254.928 304.958 251.265C304.34 247.473 304.888 243.845 305.956 240.256C310.436 225.285 315.098 210.368 321.061 195.896C321.899 193.864 322.396 191.712 323.106 189.628C324.989 183.904 325.376 177.794 324.231 171.878C322.448 161.974 322.237 151.963 322.921 141.951C323.177 138.248 323.825 134.587 323.211 130.855C322.905 128.83 322.396 126.841 321.692 124.918C320.295 121.386 319.293 117.71 318.704 113.958C318.528 112.727 318.11 111.57 316.944 110.92C309.93 106.93 308.879 100.459 309.569 93.2675C309.733 91.76 309.977 90.2622 310.299 88.7805C310.947 85.5848 312.929 83.3988 315.674 81.7906C316.166 81.503 316.915 81.2528 316.781 80.5136C316.647 79.7744 315.957 79.6583 315.404 79.46C313.793 78.8763 312.079 78.6336 310.369 78.7473C308.66 78.861 306.993 79.3287 305.473 80.1206C302.861 81.3446 300.522 83.0831 298.596 85.2321C291.441 93.4998 286.904 102.89 286.065 113.928C285.713 118.719 285.682 123.433 287.536 128.031C288.4 130.18 288.087 132.545 287.434 134.772C285.416 141.628 283.965 148.61 282.599 155.607C281.887 159.377 280.1 162.107 276.56 163.842C271.349 166.366 266.732 169.965 263.011 174.401C262.448 175.073 261.67 176.01 260.739 175.262C259.808 174.514 260.261 173.361 260.888 172.593C262.969 170.075 265.339 167.812 267.949 165.849C270.589 163.932 273.367 162.213 276.262 160.708C277.406 160.075 279.254 159.284 278.672 157.852C278.09 156.421 276.368 157.559 275.186 157.761C273.171 158.144 271.302 159.046 269.355 159.675C268.495 159.959 267.388 160.323 266.944 159.257C266.5 158.191 267.49 157.579 268.31 157.19C271.271 155.789 274.295 154.526 277.658 154.644C279.349 154.688 280.124 154.132 280.305 152.371C280.612 149.887 281.1 147.428 281.765 145.015C282.202 143.24 281.999 141.368 281.192 139.728C278.976 134.901 276.537 130.178 274.246 125.397C268 112.396 263.076 98.8172 256.688 85.8864C254.072 80.5793 251.004 75.5069 247.519 70.725C242.239 63.494 237.665 55.7542 232.041 48.784C226.697 42.1277 221.355 35.3917 215.002 29.5979C213.792 28.5568 212.456 27.6732 211.024 26.9683C206.942 24.8019 203.144 25.3957 199.519 28.0538C195.663 30.8776 194.016 34.5315 194.933 39.3313C196.118 45.4009 198.391 51.0699 202.165 55.8706C207.909 63.2056 212.401 71.2376 216.644 79.4531C219.328 84.6668 222.368 89.6506 225.395 94.6342C226.757 96.9153 227.789 99.3778 228.46 101.948C230.611 109.936 233.2 117.799 236.214 125.503C237.363 128.469 237.4 128.44 240.281 127.301C247.337 124.511 254.608 122.85 262.261 123.251C262.641 123.261 263.021 123.271 263.394 123.281C264.439 123.412 265.844 123.4 265.708 124.825C265.577 126.091 264.187 125.785 263.231 125.79C254.223 125.862 245.575 127.629 237.512 131.68C231.207 134.85 224.547 137.258 218.498 140.944C215.944 142.496 215.941 142.397 217.967 144.608C223.683 150.888 230.033 156.571 235.755 162.851C236.166 163.304 236.666 163.66 237.102 164.076C238.299 165.229 239.204 165.05 240.321 163.835C244.423 159.362 248.608 154.971 253.468 151.303C254.663 150.368 255.949 149.556 257.307 148.878C257.866 148.604 258.489 148.461 258.971 149.031C259.536 149.702 259.201 150.306 258.751 150.865C258.3 151.381 257.767 151.818 257.173 152.16C251.156 156.025 246.624 161.461 241.824 166.621C240.992 167.519 241.237 168.218 241.971 168.973C244.091 171.143 246.048 173.469 248.312 175.502C252.272 179.057 255.728 183.095 259.399 186.93C259.995 187.559 260.65 188.3 260.31 189.345C259.796 189.332 259.24 189.25 258.889 189.799C258.271 189.973 257.927 189.516 257.569 189.151C247.955 178.84 237.813 169.017 228.029 158.892C220.771 151.346 213.361 143.985 205.995 136.565C197.823 128.339 189.751 120.012 181.585 111.786C172.243 102.346 163.019 92.8419 153.72 83.3848C145.956 75.4883 138.248 67.5625 130.376 59.7919C125.905 55.3837 121.599 50.7898 117.072 46.417C108.903 38.5222 99.5375 37.0272 89.155 40.441C83.5899 42.2577 78.3367 44.8121 72.9389 47.0317C60.7428 52.0474 48.5467 57.063 36.372 62.1957C30.1727 64.8236 23.8623 67.2462 17.6621 69.9107C16.8872 70.24 16.1378 70.999 15.1676 70.3545C15.1612 70.0636 15.0642 69.7819 14.89 69.5487C14.7159 69.3156 14.4732 69.1426 14.196 69.054C15.4063 68.2518 16.8073 67.8959 18.1221 67.3172C18.8325 67.0493 19.4141 66.5207 19.7485 65.8391C22.0607 61.1052 25.295 56.9777 28.3664 52.7479C36.7453 41.2025 45.8201 30.1786 55.5405 19.7375C57.4672 17.5915 59.5695 15.61 61.8258 13.8136C67.9253 9.13554 75.4381 9.03107 81.6662 13.5279C84.1076 15.2863 85.9016 17.8002 86.7705 20.6808C87.6816 20.2999 88.0298 19.4078 88.5077 18.7152C90.517 15.9536 92.4361 13.1283 94.9377 10.7658C97.0624 8.64898 99.8378 7.30902 102.817 6.96176C112.255 5.9082 121.004 14.842 119.619 24.2105C119.41 25.6212 119.092 27.0169 118.808 28.5115C120.28 28.7093 121.726 28.5079 123.133 28.8511C129.518 30.3909 133.623 35.6724 133.809 42.6479C133.883 45.991 133.407 49.3236 132.399 52.5122C132.13 53.4126 132.03 53.974 133.191 54.3721C138.197 56.1151 140.724 59.8104 140.988 64.9977C140.99 65.8243 141.171 66.6406 141.519 67.3905C141.866 68.1403 142.372 68.806 143.002 69.3418C144.179 70.5101 145.424 71.6091 146.729 72.6331C146.103 70.7776 145.465 68.9217 144.85 67.0971C143.379 62.8505 142.797 58.3464 143.142 53.8653C143.432 50.3195 144.935 46.9821 147.399 44.4153C149.862 41.8486 153.135 40.2094 156.666 39.774C158.05 39.6708 159.441 39.8004 160.782 40.1572C161.085 39.3313 160.773 38.612 160.675 37.8983C159.911 32.3975 161.598 27.8864 166.04 24.4709C168.458 22.6112 171.311 21.4023 174.329 20.9596C176.392 20.5743 178.519 20.7141 180.514 21.366C182.509 22.018 184.307 23.1612 185.745 24.6905C187.072 26.0331 188.266 27.5015 189.309 29.075C190.27 30.5285 191.213 31.9938 192.156 33.4408C192.726 33.4556 192.712 33.0445 192.837 32.7228C193.539 30.7716 194.663 28.9993 196.129 27.5323C197.594 26.0653 199.366 24.9397 201.316 24.2359C203.267 23.532 205.349 23.2672 207.413 23.4603C209.478 23.6534 211.475 24.2996 213.261 25.353C215.508 26.6444 217.535 28.2868 219.265 30.218C226.948 38.6213 234.481 47.1678 240.762 56.6871C243.22 60.4297 245.679 64.1723 248.382 67.7373C254.595 75.8693 259.128 84.9568 263.213 94.2779C266.251 101.217 269.294 108.163 272.177 115.166C275.417 123.024 279.546 130.458 283.153 138.136C283.202 138.294 283.292 138.435 283.414 138.546C283.536 138.657 283.686 138.734 283.847 138.767C284.396 136.752 284.903 134.712 285.527 132.68C285.931 131.441 285.888 130.099 285.405 128.888C282.469 121.565 283.233 114.118 284.757 106.715C286.602 97.8061 290.897 90.1321 297.012 83.4619C300.363 79.7973 304.368 77.1551 309.457 76.4296C312.325 75.9706 315.264 76.4786 317.812 77.8736C319.082 78.5275 320.164 79.4957 320.954 80.6861C321.744 81.8765 322.216 83.2493 322.325 84.6738C322.725 87.8845 322.159 91.0332 321.856 94.1949C321.431 98.9535 320.933 103.71 320.454 108.461C320.289 110.082 320.69 111.625 320.943 113.189C321.53 116.856 322.492 120.454 323.815 123.925C325.776 128.881 326.102 134.014 325.546 139.34C324.423 149.153 324.624 159.073 326.144 168.832C326.589 171.523 326.855 174.246 327.097 176.962C327.65 183.003 326.122 188.714 324.143 194.321C322.507 198.962 320.744 203.563 318.939 208.145C315.697 216.324 313.178 224.744 310.672 233.169C310.002 235.347 309.332 237.518 308.614 239.669C306.433 245.97 306.449 252.156 309.461 258.219C310.305 259.914 311.163 261.598 311.989 263.306C312.396 264.15 312.947 264.63 313.953 264.374C314.327 264.307 314.705 264.268 315.085 264.257C317.655 263.939 320.265 264.261 322.681 265.195C325.098 266.129 327.246 267.645 328.935 269.609C331.628 272.601 334.18 275.706 336.589 278.925C338.034 280.857 339.581 281.712 342.035 281.654C347.505 281.528 352.964 282.209 358.235 283.676C365.053 285.552 371.145 288.918 376.87 292.954C382.144 296.66 387.303 300.528 392.456 304.396C402.951 312.272 413.42 320.179 423.864 328.119C430.326 333.045 436.295 338.559 442.214 344.109C443.099 344.935 443.885 345.857 444.72 346.731L444.666 349.034Z" fill="#070302"/>
<path d="M222.459 348.248L219.95 342.91C219.104 341.201 218.637 339.33 218.581 337.424C218.525 335.518 218.881 333.622 219.625 331.866C221.549 327.164 223.985 322.688 226.888 318.519C240.28 298.704 258.035 284.11 279.83 274.452C290.307 269.792 301.521 267.005 312.961 266.218C314.705 266.098 316.437 265.99 318.177 266.036C321.173 266.055 324.041 267.255 326.158 269.377C329.645 272.979 332.896 276.803 335.889 280.825C335.966 280.925 335.937 281.102 335.995 281.484C334.212 281.646 332.416 281.654 330.654 281.731C306.925 282.732 284.088 291.061 265.286 305.573C252.312 315.473 241.536 327.386 232.4 340.844C231.208 342.597 230.028 344.362 228.902 346.16C228.473 346.847 227.88 347.5 227.917 348.409L222.459 348.248Z" fill="#60AB58"/>
<path d="M57.2617 343.939C56.3589 340.709 54.7677 337.78 53.2072 334.852C46.2521 321.796 37.7848 309.835 26.9351 299.663C16.0853 289.491 4.03954 281.219 -9.7112 275.558C-18.6743 271.831 -28.0913 269.307 -37.7169 268.053C-42.3655 267.388 -47.0499 267.004 -51.7447 266.902C-52.0939 266.893 -52.4415 266.823 -53.0466 266.752C-48.0581 260.947 -42.5799 257.289 -34.6295 258.275C-23.0307 259.614 -11.6744 262.559 -0.887279 267.027C11.1924 272.118 21.8477 279.403 31.3808 288.345C44.0473 299.987 54.0889 314.193 60.8373 330.018C62.9819 334.764 62.7687 339.411 60.472 344.023L57.2617 343.939Z" fill="#5FAB58"/>
<path d="M-13.4524 276.104C-10.6045 276.687 -8.14338 278.229 -5.52482 279.376C0.475552 282.064 6.16694 285.395 11.4497 289.309C16.5583 292.923 21.3928 296.91 25.9137 301.237C27.5815 302.874 29.3443 304.391 30.9168 306.155C35.89 311.521 40.399 317.299 44.3954 323.428C48.2071 329.323 51.6389 335.455 54.6699 341.787C55.0803 342.425 55.3442 343.146 55.4425 343.898L45.4317 343.637C44.3931 343.028 43.905 341.997 43.3734 340.99C36.7994 328.673 28.1982 317.551 17.9305 308.091C11.4048 302.091 4.24442 296.821 -3.42374 292.373C-4.41079 291.81 -5.23472 291.001 -5.81477 290.024C-8.1096 286.101 -10.4231 282.191 -12.8674 278.357C-13.2795 277.702 -13.9673 277.041 -13.4524 276.104Z" fill="black"/>
<path d="M-13.4524 276.104C-11.6641 279.7 -9.1163 282.857 -7.34601 286.44C-5.69783 289.769 -3.15449 291.92 -0.0282165 293.816C13.9312 302.291 25.4741 313.389 35.0549 326.611C38.9067 332.042 42.3739 337.735 45.4313 343.649L42.6989 343.578C39.6385 337.981 36.4654 332.472 32.6378 327.376C21.3808 312.368 7.8165 300.029 -9.07991 291.569C-15.4819 288.337 -22.237 286.181 -29.1249 284.419C-29.7015 284.244 -30.3135 284.22 -30.902 284.349C-31.4906 284.479 -32.0359 284.758 -32.4855 285.159C-42.0485 292.88 -50.8671 301.441 -59.5008 310.204C-64.299 315.057 -68.9835 320.017 -73.6023 325.04C-78.221 330.063 -82.7023 334.992 -86.9942 340.177L-90.1923 340.094C-86.5545 335.542 -82.6587 331.205 -78.7455 326.905C-70.0474 317.322 -61.1273 307.924 -51.765 298.965C-42.9451 290.432 -33.6051 282.453 -23.7988 275.074C-22.7234 274.274 -21.6626 273.327 -20.1363 273.569L-18.4288 274.153C-18.1789 275.386 -19.1792 275.66 -19.8964 276.126C-22.4967 277.721 -24.9297 279.574 -27.1584 281.656C-21.4167 283.406 -15.8591 285.17 -10.3678 287.355C-12.2032 283.916 -14.3147 280.722 -16.289 277.44C-16.7588 276.649 -17.8784 275.854 -16.8672 274.691C-15.7272 275.174 -14.4754 275.366 -13.4524 276.104Z" fill="#60A95A"/>
<path d="M141.365 269.86C138.637 269.783 135.961 269.106 133.525 267.877C131.089 266.648 128.954 264.897 127.272 262.749C120.045 253.977 112.828 245.184 105.619 236.368C89.4869 216.635 73.3648 196.899 57.2531 177.158C37.3384 152.79 17.4216 128.422 -2.49725 104.054C-3.33189 103.095 -3.81673 101.88 -3.87267 100.61C-4.14377 96.6701 -5.07937 92.8048 -6.63987 89.1773C-6.92046 88.6452 -7.00917 88.0327 -6.89106 87.4428C-6.77295 86.853 -6.45523 86.3218 -5.99138 85.9388C-4.43 84.3794 -2.57708 83.1424 -0.538171 82.2983C3.92538 80.4039 8.41765 78.5837 12.8754 76.6768C13.9976 76.1972 14.8111 76.2675 15.694 77.204C19.2312 80.9747 23.549 81.6145 28.188 79.8105C32.8269 78.0064 37.417 75.962 42.0223 74.0405L73.6385 60.6418C74.9173 60.16 76.1417 59.5446 77.2913 58.8059C79.9828 56.9203 80.4664 54.5971 78.8487 51.7471C77.7286 49.7928 77.7584 49.5913 79.7727 48.7548C83.6216 47.157 87.459 45.5282 91.3594 44.0727C95.3095 42.639 99.5921 42.3885 103.683 43.3519C107.183 44.1401 110.362 45.9692 112.803 48.5986C118.785 54.7689 124.86 60.9232 130.89 67.1131C152.613 89.3702 174.333 111.629 196.047 133.89C213.806 152.071 231.573 170.238 249.349 188.391C251.143 190.136 252.48 192.295 253.244 194.679C254.603 199.208 253.485 203.047 250.036 206.243C248.94 207.178 247.756 208.006 246.502 208.714L153.463 266.258C149.78 268.523 145.862 269.978 141.365 269.86Z" fill="#FDFEFD"/>
<path d="M260.335 189.346C259.795 187.952 258.717 186.968 257.72 185.942C252.43 180.491 247.125 175.068 241.806 169.673C241.208 169.081 240.609 168.52 239.862 167.783C241.024 166.489 242.138 165.39 243.192 164.247C247.65 159.489 251.978 154.575 257.634 151.136C257.703 151.106 257.767 151.064 257.821 151.012C258.295 150.497 259.444 150.147 258.829 149.297C258.213 148.447 257.45 149.261 256.845 149.669C251.641 152.905 247.36 157.195 243.193 161.623C242.052 162.819 240.928 164.071 239.816 165.312C239.141 166.06 238.504 166.277 237.722 165.441C237.21 164.888 236.59 164.43 236.059 163.889C229.513 157.236 222.975 150.579 216.446 143.919C215.986 143.453 215.371 143.063 215.264 142.22C217.174 140.879 219.195 139.701 221.303 138.699C228.297 135.203 235.279 131.707 242.546 128.831C249.127 126.249 256.16 125.013 263.228 125.196C263.755 125.209 264.288 125.223 264.816 125.182C264.893 125.191 264.972 125.183 265.046 125.16C265.12 125.137 265.189 125.099 265.248 125.048C265.307 124.997 265.355 124.935 265.388 124.865C265.422 124.794 265.44 124.718 265.443 124.64C265.462 124.487 265.421 124.331 265.33 124.206C265.239 124.081 265.104 123.995 264.952 123.965C264.357 123.848 263.755 123.772 263.149 123.741C255.13 123.268 247.485 124.92 240.087 127.909C236.568 129.331 237.206 129.52 235.89 126.169C232.65 117.993 229.912 109.628 227.69 101.119C226.833 97.7983 225.017 95.035 223.313 92.1766C218.662 84.3551 214.116 76.4811 210.26 68.2205C209.591 66.8638 208.766 65.5894 207.803 64.4228C203.401 58.7903 199.011 53.1582 196.415 46.4202C195.078 42.9337 194.048 39.4001 194.154 35.5956C194.163 33.9146 194.697 32.2784 195.68 30.9148C198.177 27.5406 201.435 25.3388 205.706 24.9229C207.753 24.7249 209.584 25.5084 211.364 26.3702C214.831 28.1466 217.513 30.8466 220.044 33.7021C221.896 35.8042 223.608 38.0866 225.511 40.0919C232.6 47.5601 238.138 56.1834 243.951 64.6054C246.06 67.6644 248.213 70.6879 250.353 73.7232C253.043 77.5858 255.398 81.6714 257.391 85.9353C261.344 94.2127 265.043 102.606 268.487 111.116C272.312 120.54 276.975 129.576 281.414 138.716C282.627 140.98 282.899 143.63 282.172 146.093C281.462 148.481 280.988 150.932 280.755 153.413C280.628 154.997 280.371 155.199 278.712 155.125C275.105 154.951 271.872 156.216 268.637 157.548C267.943 157.83 266.946 158.239 267.262 159.032C267.579 159.825 268.553 159.36 269.235 159.084C271.638 158.153 274.007 157.124 276.585 156.756C277.027 156.653 277.478 156.595 277.932 156.582C278.545 156.598 279.4 156.253 279.759 157.071C280.047 157.753 279.619 158.416 279.231 158.97C278.288 160.325 276.865 161.067 275.442 161.796C270.492 164.305 266.024 167.667 262.241 171.727C261.508 172.396 260.987 173.264 260.741 174.226C260.692 174.37 260.686 174.526 260.724 174.674C260.761 174.821 260.841 174.955 260.952 175.059C261.086 175.132 261.241 175.157 261.392 175.13C261.542 175.102 261.678 175.024 261.778 174.909C262.002 174.701 262.213 174.479 262.408 174.245C266.112 169.647 270.801 165.939 276.13 163.396C277.654 162.723 278.984 161.676 279.995 160.352C281.006 159.028 281.665 157.469 281.912 155.822C283.33 148.465 284.895 141.137 287.014 133.933C287.663 131.808 287.572 129.525 286.754 127.458C284.528 121.809 284.943 116.008 285.861 110.214C286.475 105.931 287.729 101.764 289.58 97.853C292.299 92.3021 295.526 87.0647 300.219 82.9508C303.789 79.8191 307.864 77.7796 312.837 78.1914C314.586 78.3494 316.262 78.9662 317.695 79.9795C318.358 80.4321 318.357 80.947 317.658 81.3947C316.754 81.9842 315.857 82.5249 314.954 83.0776C313.887 83.7381 312.972 84.616 312.268 85.654C311.564 86.692 311.086 87.8668 310.867 89.1017C309.918 93.5279 310.022 97.9938 310.519 102.452C310.711 103.973 311.429 105.38 312.548 106.428C314.044 107.938 315.679 109.303 317.433 110.504C317.941 110.823 318.369 111.256 318.682 111.768C318.995 112.281 319.186 112.859 319.238 113.457C319.689 116.993 320.589 120.457 321.918 123.765C324.059 129.093 324.345 134.588 323.725 140.292C323.092 146.25 322.952 152.25 323.306 158.232C323.677 164.899 324.892 171.46 325.498 178.091C325.799 181.324 325.032 184.412 324.277 187.507C322.862 193.343 320.657 198.914 318.409 204.465C314.851 213.255 312.034 222.292 309.315 231.368C308.482 234.124 307.675 236.886 306.751 239.615C304.57 245.759 304.878 252.513 307.609 258.434C308.501 260.437 309.499 262.395 310.568 264.642C301.377 265.873 292.381 267.582 283.758 270.981C275.151 274.388 266.928 278.694 259.225 283.828C251.618 288.979 244.578 294.921 238.225 301.556C231.756 308.181 226.168 315.612 221.598 323.666C220.584 323.271 220.337 322.407 219.92 321.734C218.014 318.619 216.102 315.54 214.153 312.467C210.691 306.994 205.883 303.288 199.988 300.823C194.53 298.541 189.896 294.999 185.402 291.246C185.225 291.138 185.072 290.996 184.952 290.827C184.832 290.658 184.748 290.467 184.705 290.264C184.661 290.062 184.659 289.853 184.699 289.649C184.739 289.446 184.82 289.253 184.937 289.082C185.293 288.316 185.6 287.527 185.857 286.721C188.483 281.255 191.745 276.117 195.575 271.415C201.142 264.789 207.55 258.917 214.637 253.949C220.189 249.855 226.086 246.25 232.262 243.177C232.883 242.862 233.511 242.309 234.485 242.567C234.196 245.177 233.461 247.745 233.563 250.403C233.603 251.458 233.575 252.524 233.67 253.581C233.718 254.103 233.961 254.68 234.676 254.509C234.788 254.479 234.892 254.427 234.983 254.356C235.074 254.285 235.15 254.196 235.207 254.095C235.263 253.995 235.299 253.883 235.311 253.769C235.324 253.654 235.314 253.538 235.281 253.427C234.224 246.944 236.783 241.413 239.788 235.974C240.411 234.846 241.328 233.909 242.44 233.26C246.46 230.814 250.463 228.346 254.447 225.854C260.424 222.129 263.626 216.634 264.859 209.787C265.523 205.897 265.418 201.914 264.552 198.063C263.853 194.866 262.408 191.879 260.335 189.346Z" fill="#6C382C"/>
<path d="M0.683336 146.654C5.50134 147.859 9.61815 149.621 13.1259 153.109C19.2634 159.198 25.4388 165.244 31.5569 171.369C39.2146 178.962 45.3277 187.968 49.5579 197.888C52.1675 203.777 53.9587 209.995 54.8818 216.37C55.7791 223.101 55.7878 229.82 54.0636 236.458C53.8392 237.304 53.1638 238.519 54.2839 238.824C55.404 239.129 55.3616 237.699 55.5602 236.901C57.5917 229.53 57.4916 222.085 56.2766 214.604C55.8478 211.905 55.2812 209.231 54.5789 206.59C54.5131 206.423 54.4968 206.24 54.5318 206.064C54.5668 205.888 54.6518 205.725 54.7765 205.596C57.0548 207.568 59.3706 209.51 61.6172 211.519C71.772 220.599 80.6435 230.695 87.5905 242.414C92.7135 251.028 96.2735 260.479 98.1062 270.332C98.5368 272.63 98.6839 274.982 98.9541 277.313C98.999 277.768 98.926 278.228 98.7422 278.647C98.5584 279.066 98.27 279.431 97.9046 279.707C93.3607 283.745 88.6511 287.552 83.2431 290.397C80.4247 291.861 77.7174 293.53 75.1429 295.391C72.7301 297.167 70.9217 299.511 69.1312 301.873C65.4574 306.799 62.2422 312.051 59.5259 317.563C59.2159 318.168 58.8813 318.772 58.5406 319.376C58.4702 319.491 58.2971 319.548 58.1599 319.636C57.3936 319.162 57.2327 318.282 56.8219 317.578C50.6113 306.959 43.0075 297.218 34.213 288.615C25.2446 279.884 15.2088 272.584 3.84028 267.261C-4.69365 263.262 -13.5182 260.064 -22.8445 258.472C-25.2125 258.061 -27.5671 257.607 -29.9101 257.178C-30.0733 256.383 -29.5657 255.961 -29.2529 255.485C-27.0501 252.304 -25.0898 248.961 -23.3886 245.485C-22.2497 243.333 -21.5914 240.96 -21.4592 238.529C-21.327 236.098 -21.724 233.667 -22.6229 231.405C-26.8411 220.603 -31.0162 209.789 -35.5938 199.131C-38.1369 193.21 -41.0524 187.463 -43.2851 181.397C-45.7928 174.587 -46.1035 167.695 -45.1517 160.583C-44.5581 156.16 -43.6521 151.745 -43.811 147.259C-44.0211 141.209 -44.1881 135.153 -44.9261 129.132C-45.5923 123.646 -45.3411 118.245 -43.3165 113.02C-41.9299 109.49 -40.9516 105.813 -40.4006 102.06C-40.1668 100.38 -39.3717 99.7514 -37.9732 99.2545C-35.5893 98.4599 -33.4222 97.1229 -31.6425 95.3488C-30.6372 94.3949 -30.0277 93.0976 -29.9354 91.7148C-29.6365 87.4032 -29.8052 83.0718 -30.4384 78.7965C-31.0532 75.102 -33.1473 72.6503 -36.5622 71.2431C-36.8352 71.1318 -37.082 70.9598 -37.5113 70.7279C-35.8159 69.1904 -33.8274 68.8744 -31.8279 68.8407C-26.4427 68.7482 -22.0059 70.9361 -18.2164 74.6705C-12.8902 79.8979 -9.43822 86.229 -7.24358 93.2876C-5.44603 99.2562 -4.9411 105.539 -5.76243 111.718C-6.21843 115.569 -6.61253 119.396 -8.04996 123.031C-8.16434 123.35 -8.20999 123.69 -8.18393 124.027C-8.15787 124.365 -8.06069 124.693 -7.89876 124.991C-5.68163 130.47 -3.91999 136.122 -2.63175 141.89C-2.42179 142.772 -2.23037 143.66 -1.99575 144.536C-0.956548 148.414 1.02017 151.604 4.55729 153.732C6.11462 154.668 7.49242 155.905 9.13984 156.678C9.83625 157.008 10.8807 157.863 11.3798 157.061C12.0205 156.005 10.7441 155.579 10.0003 155.186C7.89192 153.983 5.86068 152.651 3.91841 151.195C2.43311 150.084 1.12947 148.824 0.683336 146.654Z" fill="#6C382C"/>
<path d="M-3.9952 114.456C-2.78362 115.015 -2.37159 116.141 -1.66975 116.969C4.70628 124.803 11.062 132.632 17.3974 140.456C22.4329 146.718 27.2623 153.128 32.4172 159.283C38.2087 166.178 43.6985 173.359 49.4336 180.302C55.0384 187.069 60.4554 193.985 65.9851 200.812C69.9469 205.697 73.9777 210.523 77.927 215.414C82.4528 221.007 86.9028 226.683 91.4167 232.264C94.3866 235.921 97.439 239.477 100.328 243.188C105.02 249.227 110.137 254.927 114.773 261.019C117.476 264.572 120.285 268.06 123.226 271.423C126.631 275.306 131.036 277.555 136.097 278.576C143.958 280.166 151.092 278.145 157.771 274.065C167.801 267.942 177.817 261.805 187.82 255.653C197.826 249.501 207.762 243.243 217.845 237.198C230.127 229.824 242.203 222.114 254.468 214.721C258.292 212.412 261.281 209.455 262.978 205.281C263.03 205.16 263.167 205.078 263.268 204.976C264.127 207.549 262.898 211.888 261.732 214.745C260.097 218.788 257.197 222.192 253.466 224.449C241.723 231.692 229.985 238.947 218.254 246.215C208.977 251.96 199.71 257.727 190.453 263.514C179.123 270.575 167.794 277.616 156.465 284.637C152.726 286.955 148.769 288.728 144.452 289.228C137.94 289.972 132.022 288.156 126.748 284.205C124.343 282.401 122.635 279.972 120.787 277.698C116.889 272.962 113.097 268.142 109.255 263.364C104.556 257.52 99.8531 251.675 95.1459 245.83C91.3391 241.114 87.4884 236.434 83.6879 231.713C79.276 226.221 74.9016 220.699 70.496 215.202C67.6044 211.595 64.6687 208.03 61.7771 204.423C55.7088 196.859 49.6488 189.289 43.5971 181.713C39.2946 176.337 34.9881 170.954 30.6777 165.565C26.4334 160.231 22.2893 154.813 17.9572 149.551C13.7679 144.457 9.75359 139.233 5.6455 134.08C2.25007 129.811 -1.06412 125.482 -4.44053 121.188C-4.82033 120.706 -5.2925 120.24 -5.1037 119.583C-4.66089 117.884 -4.65195 116.131 -3.9952 114.456Z" fill="#3C5944"/>
<path d="M15.2159 70.3619L38.3084 60.7994L71.2741 47.1415C76.9388 44.7941 82.5578 42.3167 88.2978 40.1428C95.7589 37.3211 103.237 37.3751 110.559 40.8337C112.451 41.7983 114.206 43.0133 115.774 44.4459C117.261 45.7353 118.695 47.0867 120.076 48.5001C126.192 54.7168 132.226 61.0172 138.379 67.1919C147.538 76.3756 156.59 85.6668 165.687 94.8794C170.154 99.4223 174.553 104.031 179.051 108.544C187.344 116.873 195.594 125.244 203.802 133.657C210.969 140.96 218.166 148.237 225.395 155.488C229.853 159.939 234.096 164.598 238.624 168.965C242.726 172.91 246.59 177.081 250.568 181.133C251.469 182.052 252.472 182.869 253.374 183.788C255.318 185.695 257.163 187.701 258.9 189.799C259.579 191.043 260.319 192.288 260.916 193.61C262.114 196.207 262.493 199.107 262.003 201.925C261.514 204.743 260.178 207.345 258.175 209.386C256.55 211.084 254.679 212.527 252.625 213.668C250.311 214.962 248.119 216.475 245.864 217.863C233.403 225.524 220.941 233.181 208.48 240.834C200.472 245.755 192.474 250.684 184.485 255.621C174.989 261.474 165.517 267.37 155.97 273.067C150.589 276.287 144.662 277.867 138.358 277.225C133.557 276.772 129.062 274.667 125.639 271.271C122.811 268.5 120.573 265.241 118.071 262.196C114.892 258.343 111.787 254.424 108.646 250.535C103.794 244.523 99.0418 238.428 94.0581 232.529C89.2111 226.793 84.6456 220.843 79.8672 215.066C75.909 210.279 72.0699 205.391 68.1555 200.568C63.9972 195.457 59.7953 190.375 55.6371 185.264C52.0738 180.849 48.5113 176.403 44.9482 171.982C40.1973 166.087 35.4464 160.196 30.6953 154.309C26.0664 148.597 21.4581 142.876 16.8706 137.144C14.014 133.606 11.1259 130.097 8.26305 126.565C4.63992 122.093 1.05435 117.592 -2.61891 113.161C-3.22545 112.489 -3.64826 111.671 -3.84645 110.788C-4.04464 109.904 -4.01151 108.984 -3.75028 108.117C-3.17188 107.801 -2.90189 108.262 -2.64079 108.593C4.28272 117.218 11.2103 125.845 18.1419 134.474C23.659 141.313 29.2451 148.092 34.7747 154.918C40.542 162.039 46.2776 169.196 52.045 176.311C56.7975 182.143 61.5513 187.926 66.2672 193.75C70.1816 198.573 73.9828 203.503 77.9854 208.236C82.3987 213.44 86.5115 218.881 90.9624 224.055C94.8123 228.527 98.3801 233.242 102.098 237.833C105.068 241.485 107.945 245.189 111.01 248.739C114.284 252.503 117.212 256.589 120.454 260.389C122.964 263.329 125.3 266.413 128.023 269.169C130.98 272.177 134.683 273.561 138.759 274.084C144.9 274.857 150.432 273.119 155.616 269.925C163.418 265.114 171.227 260.309 179.044 255.51C193.269 246.807 207.499 238.117 221.732 229.44C230.778 223.892 239.811 218.324 248.83 212.735C250.632 211.615 252.355 210.372 253.985 209.013C260.251 203.818 260.165 195.135 255.278 189.52C250.308 183.806 244.949 178.443 239.513 173.169C239.19 172.854 238.861 172.539 238.545 172.212C231.815 165.324 225.167 158.376 218.325 151.57C213.257 146.533 208.44 141.295 203.397 136.277C195.156 128.092 187.147 119.717 178.949 111.509C174.014 106.573 169.318 101.411 164.338 96.5241C158.36 90.6727 152.752 84.5183 146.867 78.608C138.956 70.7015 131.169 62.7492 123.32 54.8197C119.909 51.3834 116.795 47.6114 112.937 44.6355C110.647 42.8208 108.013 41.4879 105.195 40.717C102.377 39.946 99.4321 39.7529 96.5373 40.1492C92.8592 40.6455 89.2678 41.6494 85.8656 43.1325C78.788 46.0562 71.7806 49.1105 64.7209 52.053C53.8121 56.6057 42.8807 61.0842 31.972 65.6307C23.5797 69.127 15.2349 72.6859 6.82984 76.2065C4.53019 77.1704 2.20119 78.0844 -0.10474 79.0542C-2.7881 80.1125 -5.35419 81.4468 -7.76165 83.0357C-8.34213 83.4313 -9.02356 84.4067 -9.71747 83.0399C-10.2594 81.959 -10.2261 81.6227 -8.92652 80.9209C-7.12925 79.9439 -5.32586 78.9671 -3.44745 78.1701C2.75859 75.5179 8.99303 72.9523 15.2159 70.3619Z" fill="#3F5A46"/>
<path d="M-1.83788 137.987C-2.93547 133.632 -4.3084 129.351 -5.94841 125.171C-6.12292 124.795 -6.2213 124.388 -6.23787 123.974C-6.25443 123.56 -6.18885 123.147 -6.04491 122.759C-5.32896 122.575 -5.19304 123.241 -4.90227 123.61C-3.12134 125.845 -1.37844 128.128 0.439725 130.346C1.03369 131.079 1.22618 131.691 0.731423 132.561C-0.218292 134.185 -0.610448 136.057 -1.83788 137.987Z" fill="#FAFAFA"/>
<path d="M55.3222 62.4202C55.3087 62.9348 54.8983 63.1571 54.4767 63.3361C52.8148 64.0591 51.147 64.7758 49.4673 65.4739C47.0997 66.4605 44.7141 67.4282 42.3345 68.4023C42.0557 68.5115 41.7827 68.6392 41.4918 68.742C41.3724 68.8022 41.2422 68.8383 41.1087 68.8482C40.9753 68.858 40.8412 68.8415 40.7141 68.7995C40.5871 68.7574 40.4696 68.6907 40.3684 68.6032C40.2671 68.5157 40.1842 68.4091 40.1242 68.2894C39.7797 67.6306 40.2968 67.313 40.7688 67.0801C42.0664 66.4579 43.3585 65.8111 44.6905 65.2757C47.435 64.1824 50.202 63.1633 52.8654 61.884C53.1194 61.7187 53.4044 61.607 53.703 61.5558C54.0016 61.5045 54.3076 61.5148 54.6021 61.586C54.7939 61.6329 54.9664 61.7385 55.0954 61.888C55.2245 62.0375 55.3037 62.2235 55.3222 62.4202Z" fill="#2D2F2C"/>
<path d="M60.7603 60.7779C59.7923 60.7526 59.188 60.179 59.287 59.4397C59.3904 59.037 59.6273 58.6812 59.9589 58.4304C60.2906 58.1796 60.6975 58.0487 61.1132 58.0589C61.3055 58.0576 61.4958 58.0983 61.6707 58.1783C61.8456 58.2583 62.0008 58.3756 62.1255 58.522C62.2502 58.6684 62.3414 58.8403 62.3926 59.0257C62.4438 59.2111 62.4538 59.4054 62.4219 59.5951C62.3025 60.4135 61.7339 60.8217 60.7603 60.7779Z" fill="#2F302D"/>
<path d="M176.969 22.463C179.754 22.6048 182.377 23.8151 184.292 25.842C187.407 29.1112 189.624 32.9823 192.014 36.7783C192.286 37.3218 192.438 37.9175 192.459 38.5249C193.429 45.7661 196.5 52.1179 200.681 58.0082C202.745 60.9067 204.934 63.7165 207.098 66.5441C207.749 67.3832 208.311 68.2875 208.775 69.2424C212.759 77.6778 217.254 85.8618 222.236 93.7486C224.638 97.5694 226.017 101.603 227.206 105.845C229.213 113.229 231.663 120.485 234.541 127.574C235.615 130.152 235.619 130.214 233.051 131.349C226.954 134.046 220.916 136.869 215.11 140.163C213.517 141.065 213.475 141.009 212.22 139.762C208.886 136.444 205.778 132.912 202.299 129.743C201.549 128.984 200.994 128.055 200.683 127.034C198.54 121.289 196.261 115.583 194.978 109.56C194.431 106.995 193.023 104.807 191.776 102.555C186.934 93.7966 182.285 84.9452 178.406 75.7092C177.828 74.3821 177.366 73.0275 176.856 71.6838C176.062 69.5517 175.075 67.4965 173.908 65.5436C169.849 58.8682 166.513 51.7792 163.957 44.3966C163.155 42.028 162.631 39.5743 162.395 37.0848C161.976 32.905 163.209 29.3445 166.495 26.5304C169.413 24.0075 173.113 22.5706 176.969 22.463Z" fill="#6C382C"/>
<path d="M197.44 124.694C185.071 112.11 172.636 99.7261 160.626 87.0348C160.845 86.17 161.461 86.278 161.936 86.1617C165.047 85.4401 168.003 84.163 170.66 82.392C171.285 81.9668 172.524 81.4719 172.055 80.632C171.471 79.5378 170.595 80.6798 169.985 81.0256C166.784 82.9262 163.267 84.2361 159.603 84.8931C159.287 84.9825 158.953 84.9806 158.639 84.8878C158.324 84.795 158.043 84.6149 157.826 84.3685C155.564 82.0105 153.289 79.6767 151.008 77.3427C150.59 76.9025 150.26 76.386 150.036 75.8214C147.829 70.6508 145.814 65.4116 145.071 59.801C144.529 55.6915 144.555 51.6275 146.926 47.9312C149.232 44.3497 152.393 42.1025 156.651 41.5207C157.707 41.3902 158.778 41.485 159.795 41.7989C160.315 41.917 160.791 42.1802 161.167 42.5579C161.544 42.9356 161.805 43.4123 161.922 43.9327C164.353 51.8005 167.987 59.148 172.205 66.1735C174.262 69.599 175.47 73.3397 177.038 76.9425C179.698 83.0691 182.545 89.0963 185.671 94.9959C187.423 98.3399 189.317 101.639 191.106 104.984C192.001 106.656 192.719 108.417 193.249 110.238C194.534 114.563 195.768 118.973 197.299 123.261C197.435 123.472 197.518 123.712 197.543 123.961C197.567 124.21 197.532 124.461 197.44 124.694Z" fill="#6C382C"/>
<path d="M54.3735 52.2675L22.3683 65.5335C22.429 64.7977 22.7196 64.0996 23.199 63.5381C30.4018 52.6759 38.2715 42.2709 46.7627 32.3832C51.4864 26.8599 56.1687 21.2805 61.5931 16.3947C63.9982 14.1691 66.9932 12.6829 70.2203 12.1136C79.0403 10.5535 87.0695 18.6225 85.4057 27.4135C84.4595 32.4283 82.0649 36.7984 79.4579 41.0832C79.0556 41.7326 78.4529 42.2333 77.7409 42.5098C71.0851 45.2463 64.439 48.0035 57.8025 50.7813C57.3584 50.9909 56.8694 51.0871 56.379 51.0615C55.8886 51.0359 55.4122 50.8892 54.9924 50.6345C53.6692 49.8888 52.3265 49.1855 50.9904 48.464C50.5913 48.2513 50.2119 47.99 49.7811 47.8194C49.3502 47.6488 48.7 47.4295 48.3959 48.0408C48.0918 48.652 48.6508 48.8444 49.0249 49.0749C50.7212 50.0878 52.4056 51.0881 54.3735 52.2675Z" fill="#6C382C"/>
<path d="M81.9745 40.7074C83.1228 38.285 84.0992 36.3425 85.0034 34.3491C86.4199 31.4055 87.2329 28.2082 87.3944 24.9456C87.4005 24.0314 87.6846 23.1408 88.209 22.3919C90.3155 19.4305 92.2775 16.3673 94.7151 13.6414C96.1373 12.0618 97.833 10.7519 99.7205 9.77467C100.915 9.10282 102.242 8.70263 103.609 8.60263C104.975 8.50263 106.347 8.70527 107.626 9.19611C112.871 11.1721 116.89 14.3423 117.844 20.2956C118.115 22.4871 117.934 24.7106 117.312 26.8294C116.28 30.7926 114.76 34.6121 112.786 38.2004C112.238 39.216 111.744 39.3626 110.646 38.9231C102.467 35.6445 94.2838 35.5843 86.1178 39.105C84.9026 39.6251 83.6285 40.0516 81.9745 40.7074Z" fill="#6C382C"/>
<path d="M129.442 55.433C126.37 52.3856 123.584 49.6767 120.85 46.8405C118.998 44.953 117.191 43.0053 114.98 41.5192C114.016 40.881 113.647 40.2215 114.302 39.086C115.575 36.8515 116.618 34.4939 117.416 32.0494C117.841 30.7975 118.613 30.3272 119.963 30.3072C126.709 30.2073 131.264 35.1387 131.93 41.5689C132.447 46.2294 131.319 50.6939 129.442 55.433Z" fill="#6C382C"/>
<path d="M311.982 95.464C311.992 92.9751 311.922 90.4781 312.964 88.1327C314.143 85.4598 316.335 83.9291 318.825 82.725C319.744 82.2769 320.099 83.0157 320.228 83.6873C320.62 85.4582 320.74 87.2785 320.584 89.0855C320.212 92.3067 319.858 95.5345 319.559 98.7699C319.279 101.773 318.875 104.772 318.796 107.799C318.763 109.067 318.318 109.227 317.266 108.421C315.934 107.421 314.695 106.304 313.564 105.081C312.134 103.511 312.033 101.51 311.869 99.5625C311.807 98.1937 311.946 96.8302 311.982 95.464Z" fill="#6C382C"/>
<path d="M139.213 64.6449C136.2 62.6351 133.851 60.0909 131.426 57.5999C131.319 57.5223 131.228 57.4234 131.161 57.3092C131.093 57.195 131.05 57.068 131.034 56.9363C131.018 56.8046 131.029 56.671 131.067 56.5439C131.105 56.4168 131.169 56.2989 131.255 56.1976C131.418 55.9849 131.653 55.839 131.916 55.7872C132.179 55.7354 132.452 55.7812 132.684 55.9161C135.481 57.0374 137.636 58.8286 138.551 61.8075C138.858 62.729 139.005 63.6953 139.213 64.6449Z" fill="#6C382C"/>
<path d="M59.7397 84.8513C58.6537 84.8843 58.6043 84.8953 58.2979 83.2442C57.6577 79.8189 57.0976 76.3772 56.4511 72.9577C56.2844 72.0644 56.5147 71.6965 57.4233 71.6466C59.8463 71.5177 62.2655 71.3764 64.6809 71.2228C65.5286 71.1591 65.9682 71.4648 66.0937 72.2957C66.6151 75.81 67.2223 79.3265 67.7127 82.8522C67.9151 84.2614 67.8153 84.3262 66.2792 84.4578C64.3137 84.5966 62.3802 84.6872 59.7397 84.8513Z" fill="#184330"/>
<path d="M58.4824 91.6971C57.445 91.5107 56.0136 92.3317 55.1207 91.542C54.2278 90.7524 54.4431 89.3112 54.2347 88.1348C53.759 85.4555 53.2586 82.7817 52.832 80.0975C52.7254 79.4817 52.2589 78.5622 53.5272 78.3562C55.4174 78.0499 55.9819 78.2669 56.2522 79.6534C56.5777 81.2804 56.9397 82.9145 57.1169 84.5805C57.2347 85.7055 57.7742 85.9403 58.7575 85.8495C60.0351 85.7602 61.3278 85.7939 62.6059 85.6801C63.4909 85.5989 63.8245 85.9693 63.9318 86.7937C64.5566 92.4564 65.6604 91.0322 60.2199 91.6015C59.6966 91.6859 59.1636 91.672 58.4824 91.6971Z" fill="#163E2C"/>
<path d="M69.3716 95.8742C69.4115 96.9297 70.8593 97.366 70.1123 98.0331C69.139 98.9151 68.7818 97.5693 68.2988 97.0478C67.5894 96.2753 66.9867 95.4074 66.2569 94.4749C67.8818 93.2911 69.0865 95.0514 70.4693 94.9219C70.5232 94.2673 69.9656 94.0198 69.7132 93.5902C69.5663 93.3473 69.3336 93.1021 69.6655 92.8349C69.9974 92.5677 70.2883 92.4588 70.473 92.6659C71.5946 93.6782 72.5302 94.879 73.2374 96.2141C73.5461 96.8352 72.8032 97.1101 72.2496 96.9486C71.3249 96.6731 70.4339 96.282 69.3716 95.8742Z" fill="#171717"/>
<path d="M85.621 85.422C86.4678 84.6915 87.5167 84.2356 88.6285 84.1149C89.2718 84.0281 89.9262 84.1421 90.5022 84.4413C91.0782 84.7406 91.5477 85.2105 91.8465 85.7867C92.0881 86.1323 92.1893 86.5568 92.1295 86.9742C92.0696 87.3916 91.8533 87.7707 91.5242 88.0344C89.9899 89.5087 88.9911 89.4888 87.6584 87.9336C87.0286 87.1631 86.4171 86.3992 85.621 85.422Z" fill="#3F3F3E"/>
<path d="M53.3875 100.405C54.0785 100.039 54.7891 99.7119 55.5159 99.4243C57.1424 98.8843 58.0563 99.3372 58.3292 101.098C58.4917 102.156 59.8001 101.823 59.8466 102.86C58.8182 103.741 57.9718 102.345 57.0033 102.571C56.635 102.825 56.8616 103.07 57.0461 103.284C57.2306 103.497 57.5202 103.909 57.1256 104.23C57.0601 104.298 56.981 104.352 56.8935 104.388C56.806 104.424 56.712 104.441 56.6175 104.438C56.5229 104.436 56.4299 104.414 56.3444 104.373C56.2589 104.333 56.1828 104.275 56.1209 104.204C55.0592 103.066 53.9601 101.959 53.3875 100.405Z" fill="#121212"/>
<path d="M53.1509 102.189C52.5543 102.731 52.0096 102.46 51.5003 102.477C51.2724 102.457 51.0438 102.508 50.8456 102.622C50.6474 102.736 50.4892 102.909 50.3924 103.116C50.3099 103.369 50.3061 103.641 50.3816 103.896C50.4571 104.151 50.6082 104.376 50.815 104.544C51.0349 104.801 51.3216 104.992 51.6434 105.097C51.9652 105.201 52.3096 105.215 52.6387 105.137C52.9468 105.077 53.2578 104.908 53.3027 104.596C53.3572 104.15 52.9553 104.281 52.6991 104.231C52.0218 104.109 51.953 103.69 52.4998 103.41C53.0466 103.13 53.8313 102.427 54.456 103.394C54.5838 103.56 54.6767 103.75 54.729 103.953C54.7813 104.156 54.7918 104.368 54.7601 104.575C54.7283 104.782 54.6549 104.981 54.5442 105.159C54.4335 105.337 54.2879 105.49 54.1161 105.611C52.579 106.956 49.6741 106.212 48.9642 104.281C48.7981 103.896 48.7686 103.465 48.8807 103.061C48.9927 102.657 49.2394 102.304 49.58 102.059C50.6251 101.246 51.569 101.253 53.1509 102.189Z" fill="#171716"/>
<path d="M85.02 86.3812C85.319 86.438 85.6848 86.515 85.7253 86.841C85.8982 88.2065 86.7914 88.9839 88.1068 89.5577C86.8516 90.6714 85.9982 89.3066 84.9516 89.4754C84.5766 89.7477 84.8326 90.0425 85.0825 90.331C85.3325 90.6196 85.3817 90.8477 85.1113 91.1104C85.0521 91.1838 84.9769 91.2426 84.8913 91.2822C84.8057 91.3218 84.7122 91.3411 84.6179 91.3387C84.5237 91.3362 84.4313 91.3121 84.3479 91.2681C84.2645 91.224 84.1924 91.1614 84.1371 91.085C83.1428 89.9555 82.161 88.8141 81.1193 87.616C81.7547 86.762 82.6233 86.6007 83.4629 86.3774C83.7069 86.264 83.9728 86.2056 84.2419 86.2063C84.5109 86.207 84.7766 86.2667 85.02 86.3812Z" fill="#161515"/>
<path d="M58.0238 98.239L60.57 96.9873C60.9365 96.8068 61.3071 96.7 61.5095 97.1651C61.712 97.6302 61.2117 97.7704 60.9314 97.9409C60.6511 98.1113 60.0596 98.2247 59.8446 98.7095C60.2501 99.6152 60.8296 99.0233 61.3247 98.8462C61.8198 98.6691 62.2584 98.3065 62.7422 98.7973C62.8015 99.5775 62.0678 99.5032 61.6981 99.8062C61.4475 100.014 60.8768 100.036 61.1881 100.559C61.4287 100.97 61.7937 100.845 62.1783 100.671C62.2467 100.636 62.3095 100.576 62.3832 100.572C62.9544 100.532 63.637 99.5135 64.0583 100.518C64.3513 101.273 63.3448 101.314 62.8668 101.541C60.7682 102.553 61.1378 102.722 59.6431 100.795C59.1391 100.138 58.6351 99.4811 58.1498 98.8124C58.0669 98.6999 58.0838 98.5226 58.0238 98.239Z" fill="#171717"/>
<path d="M65.3982 98.4987C65.837 99.0681 66.3311 98.6947 66.8012 98.5353C67.2713 98.3759 67.7116 97.946 68.3164 98.5013C67.6761 99.5452 66.5372 99.7239 65.5751 100.177C65.1407 100.38 64.8873 99.9874 64.6617 99.7057C63.8061 98.6595 62.9693 97.6016 62.0963 96.5182C62.9408 95.639 63.9647 95.4021 64.9322 94.9737C65.0675 94.9008 65.2252 94.8815 65.3741 94.9194C65.523 94.9573 65.6522 95.0498 65.7362 95.1785C65.8881 95.4645 65.6735 95.698 65.4169 95.8998C64.9915 96.2259 63.8999 96.2403 64.2383 96.899C64.682 97.7505 65.3642 96.7445 65.9617 96.6374C66.3374 96.5736 66.7046 96.3625 66.9004 96.8458C67.0963 97.3291 66.5842 97.4506 66.31 97.6213C66.0358 97.7919 65.3963 97.8672 65.3982 98.4987Z" fill="#1A1B1A"/>
<path d="M76.4876 91.5047C75.8582 92.132 75.3525 91.7755 74.8519 91.695C74.6275 91.6473 74.3937 91.6728 74.1849 91.7678C73.9761 91.8628 73.8032 92.0222 73.6916 92.2227C73.3264 92.8262 73.6645 93.2642 73.9851 93.6649C74.7931 94.6546 75.7154 94.5499 76.6535 93.3728C76.9068 93.0606 77.1612 92.7116 77.5556 92.8691C78.1017 93.0856 77.9712 93.6217 77.8257 94.0287C77.4139 95.2441 75.9417 95.7452 74.3221 95.3167C73.0132 94.9638 71.9514 93.5996 72.1211 92.5005C72.3923 90.7971 74.6506 90.2429 76.4876 91.5047Z" fill="#191919"/>
<path d="M83.586 91.512C83.0934 92.0632 82.798 92.1046 82.3775 92.0078C80.6581 91.6441 80.6143 91.6798 79.8046 93.3446C79.7643 93.4472 79.7016 93.5395 79.6212 93.6148C79.5407 93.6901 79.4445 93.7466 79.3395 93.78C78.9191 93.9162 78.8055 93.5699 78.7388 93.3046C78.4155 92.3029 78.1231 91.2899 77.8246 90.2766C77.6841 89.7887 77.3294 89.2828 77.9291 88.857C78.1581 88.6539 78.4509 88.5373 78.7568 88.5274C79.0627 88.5174 79.3625 88.6148 79.6042 88.8026C79.9049 89.0251 80.2065 89.2168 80.544 89.4402L83.586 91.512Z" fill="#181818"/>
<path d="M83.4738 98.6513C81.9583 98.9306 80.7884 97.7169 79.3233 97.7093C79.2421 98.7065 80.5151 99.0279 80.3981 99.9873C79.1051 99.4938 78.4131 98.7585 77.0043 96.3614C78.6087 95.9618 79.7798 97.3656 81.2721 97.2697C81.3721 96.2546 80.1171 95.9521 80.1043 95.0322C81.3274 95.3829 82.4066 96.5513 83.4738 98.6513Z" fill="#484847"/>
<path d="M67.4603 104.046C67.285 103.011 66.2182 102.542 66.0355 101.556C67.2932 101.994 68.1572 102.948 69.2953 105.148C67.7087 105.573 66.5149 104.095 65.027 104.258C65.1557 105.199 66.3478 105.568 66.2337 106.65C64.8546 105.933 63.891 104.799 62.9924 102.819C64.6323 102.703 65.9009 103.895 67.4603 104.046Z" fill="#414141"/>
<path d="M90.6549 89.8939C91.5548 89.2428 92.5698 88.7679 93.6464 88.4944C93.7156 89.3667 93.0597 89.3619 92.6914 89.6159C92.323 89.8699 91.964 90.0016 92.2646 90.4631C92.3734 90.6159 92.5289 90.7292 92.7077 90.7858C92.8865 90.8425 93.0789 90.8394 93.2558 90.7771C93.7489 90.6735 94.1246 90.1376 94.7864 90.3879C94.899 91.0039 94.3588 91.0327 94.047 91.233C93.7352 91.4333 93.3264 91.5943 93.5653 92.0726C93.6078 92.1783 93.6727 92.2736 93.7555 92.352C93.8383 92.4303 93.9371 92.4898 94.045 92.5264C94.1529 92.5629 94.2675 92.5758 94.3809 92.5639C94.4942 92.5521 94.6037 92.5159 94.7017 92.4578C95.2845 92.2094 95.829 91.7822 96.7027 91.8969C96.0611 92.9899 95.0156 93.1159 94.2077 93.5362C93.8287 93.7287 93.5111 93.4445 93.262 93.1253C92.4074 92.0424 91.5576 91.0087 90.6549 89.8939Z" fill="#424242"/>
<path d="M76.6589 101.386C73.8959 101.314 73.7069 101.272 73.0217 103.565C71.9353 102.207 71.669 100.661 71.4625 99.1781C71.3539 98.4028 72.2306 98.6402 72.6472 98.884C74.0059 99.6797 75.3264 100.53 76.6589 101.386Z" fill="#434343"/>
<path d="M88.1939 92.8032C87.9877 92.7767 87.7838 92.7345 87.5841 92.6769C86.6971 92.3656 85.8694 92.3686 85.5843 93.4279C85.3202 94.3835 85.9719 95.0197 86.7593 95.3897C87.5466 95.7597 88.3587 95.8851 88.9523 94.9871C89.1755 94.6557 89.0669 94.1195 89.5969 93.7778C90.2315 95.0695 89.7055 95.724 88.6886 96.1634C88.0069 96.3952 87.2669 96.3906 86.5881 96.1505C85.9092 95.9103 85.331 95.4486 84.9466 94.8397C84.678 94.474 84.554 94.022 84.5986 93.5704C84.6432 93.1189 84.8532 92.6998 85.1882 92.3937C86.0301 91.6125 87.0839 91.64 88.1939 92.8032Z" fill="#464646"/>
<path d="M55.7147 106.382C55.6345 107.342 54.8578 107.267 54.4563 107.618C54.2434 107.79 53.8903 107.928 54.1438 108.315C54.3087 108.577 54.4988 108.809 54.849 108.781C55.5 108.737 55.9959 108.057 56.7502 108.285C55.3093 109.7 55.3093 109.7 55.9689 111.679C54.4193 110.682 53.7196 109.303 52.8874 108.068C52.7101 107.812 52.9391 107.493 53.2493 107.354C54.0128 106.993 54.732 106.448 55.7147 106.382Z" fill="#3D3C3C"/>
<path d="M62.071 108.54C60.6663 107.567 59.511 106.277 58.6992 104.774C60.171 105.229 61.2021 106.359 62.071 108.54Z" fill="#403F40"/>
<path d="M85.0193 86.3809L83.4641 86.3404C83.5683 86.2397 83.6914 86.1608 83.8264 86.1083C83.9614 86.0558 84.1055 86.0307 84.2502 86.0344C84.395 86.0382 84.5376 86.0708 84.6696 86.1303C84.8017 86.1898 84.9206 86.275 85.0193 86.3809Z" fill="#3F3F3E"/>
<path d="M256.226 265.793C255.307 265.769 254.473 265.748 253.646 265.726C253.551 265.731 253.456 265.715 253.368 265.68C253.279 265.645 253.199 265.591 253.133 265.523C253.067 265.454 253.016 265.373 252.984 265.283C252.952 265.193 252.94 265.098 252.948 265.003C252.937 264.848 252.986 264.696 253.083 264.575C253.181 264.455 253.32 264.376 253.474 264.354C254.131 264.183 254.803 264.078 255.481 264.039C264.751 264.017 273.4 261.478 281.705 257.58C284.879 256.131 287.838 254.248 290.495 251.986C290.608 251.89 290.715 251.777 290.834 251.688C291.371 251.309 292.029 250.524 292.579 251.077C293.373 251.883 292.539 252.597 291.912 253.138C289.437 255.136 286.767 256.878 283.941 258.338C276.545 262.436 268.539 264.514 260.206 265.517C258.89 265.728 257.558 265.82 256.226 265.793Z" fill="#0F0303"/>
<path d="M216.734 301.695C216.504 301.56 216.236 301.492 216.13 301.324C216.064 301.185 216.047 301.028 216.082 300.878C216.117 300.729 216.202 300.596 216.323 300.501C216.606 300.253 216.919 300.041 217.253 299.869C224.456 296.158 230.362 290.905 235.321 284.572C236.304 283.323 237.317 282.098 238.335 280.88C238.588 280.587 238.962 280.363 239.335 280.618C239.484 280.742 239.585 280.913 239.622 281.103C239.66 281.292 239.631 281.489 239.541 281.66C239.36 282.156 239.113 282.626 238.806 283.057C233.611 289.733 227.926 295.893 220.429 300.087C219.571 300.567 218.683 300.998 217.789 301.41C217.446 301.535 217.093 301.63 216.734 301.695Z" fill="#0C0302"/>
<path d="M243.703 86.0994C244.316 86.1154 244.925 86.2601 245.026 86.8512C245.127 87.4424 244.569 87.716 244.014 87.8058C238.665 88.6288 234.278 91.3529 230.246 94.8036C229.971 95.0595 229.68 95.2977 229.375 95.5166C229.247 95.6035 229.091 95.6388 228.938 95.6155C228.786 95.5922 228.647 95.512 228.551 95.3908C228.431 95.2961 228.347 95.1622 228.315 95.0124C228.284 94.8627 228.305 94.7065 228.376 94.5709C228.6 94.1798 228.88 93.8236 229.207 93.5135C233.133 89.9257 237.921 87.4147 243.105 86.2249C243.302 86.1715 243.502 86.1296 243.703 86.0994Z" fill="#100403"/>
<path d="M213.824 65.5669C213.211 65.5509 212.899 65.3037 212.792 64.9269C212.685 64.5501 213.012 64.2337 213.378 64.0961C213.867 63.9066 214.374 63.7604 214.874 63.6018C218.503 62.5097 221.822 60.5754 224.561 57.9566C224.995 57.5388 225.435 57.1273 225.904 56.7655C225.974 56.7018 226.057 56.6537 226.148 56.6245C226.238 56.5954 226.333 56.5858 226.428 56.5963C226.522 56.6069 226.613 56.6374 226.694 56.6859C226.776 56.7343 226.846 56.7996 226.9 56.8773C226.971 56.9413 227.027 57.0193 227.066 57.1062C227.104 57.1931 227.125 57.2871 227.125 57.3822C227.125 57.4774 227.106 57.5715 227.068 57.6588C227.03 57.746 226.975 57.8244 226.905 57.889C226.394 58.4397 225.871 58.984 225.312 59.4844C222.355 62.2052 218.797 64.1899 214.929 65.2769C214.515 65.401 214.076 65.5244 213.824 65.5669Z" fill="#150504"/>
<path d="M290.721 133.288C290.182 133.274 290.109 133.272 290.035 133.27C289.559 133.184 288.848 133.435 288.824 132.674C288.795 132.171 289.314 131.994 289.765 131.865C292.235 131.175 294.675 130.473 297.133 129.789C297.424 129.716 297.726 129.694 298.024 129.726C298.173 129.716 298.322 129.755 298.446 129.838C298.57 129.922 298.664 130.044 298.711 130.186C298.752 130.331 298.751 130.485 298.707 130.63C298.663 130.774 298.578 130.903 298.463 131.001C298.295 131.15 298.1 131.268 297.89 131.347C295.594 132.302 293.185 132.954 290.721 133.288Z" fill="#0E0403"/>
<path d="M27.8591 253.412C17.2788 252.937 6.99628 249.761 -2.0083 244.185C-3.55274 243.225 -5.06313 242.213 -6.53944 241.149C-7.26007 240.596 -7.92741 239.977 -8.53277 239.301C-8.6228 239.225 -8.6946 239.13 -8.74285 239.022C-8.79109 238.915 -8.81455 238.798 -8.81148 238.68C-8.80841 238.563 -8.7789 238.447 -8.72512 238.342C-8.67134 238.238 -8.59467 238.146 -8.50081 238.075C-8.34646 237.961 -8.15638 237.905 -7.96462 237.918C-7.77286 237.931 -7.59196 238.011 -7.45429 238.145C-6.8525 238.578 -6.2523 239.072 -5.65115 239.529C2.34461 245.618 11.7505 249.586 21.6916 251.063C23.9404 251.383 26.2049 251.581 28.4751 251.657C28.704 251.65 28.933 251.656 29.1613 251.675C29.8639 251.766 30.9426 251.543 30.8466 252.638C30.7506 253.733 29.7116 253.375 28.9874 253.405C28.514 253.454 28.0552 253.417 27.8591 253.412Z" fill="#0E0302"/>
<path d="M63.7 288.44C63.6329 288.898 63.3287 289.044 62.906 289.032C62.0544 289.01 61.568 288.385 61.0422 287.856C58.8474 285.558 56.8372 283.091 55.0304 280.477C51.9614 276.148 48.4347 272.212 45.0022 268.187C44.5084 267.61 43.3922 266.919 44.1663 266.154C45.1734 265.151 45.7078 266.519 46.2448 267.085C50.5293 271.587 54.2627 276.533 57.9651 281.492C59.4472 283.593 61.12 285.554 62.9622 287.348C63.2908 287.675 63.6952 287.919 63.7 288.44Z" fill="#0C0302"/>
<path d="M216.121 244.534C216.161 245.005 216.06 245.477 215.831 245.89C215.602 246.303 215.255 246.639 214.835 246.855L201.747 255.017C201.62 255.097 201.487 255.167 201.349 255.227C200.369 255.698 199.352 256.138 198.425 255.212C197.792 254.583 198.009 253.086 198.826 252.072C199.371 251.44 200.019 250.905 200.743 250.491C204.743 248.039 208.725 245.561 212.72 243.097C212.965 242.921 213.223 242.763 213.492 242.627C215.086 241.92 216.128 242.622 216.121 244.534Z" fill="#010302"/>
<path d="M198.629 105.419C198.207 105.365 197.753 105.396 197.636 104.964C197.491 104.396 197.939 104.156 198.372 104.008C199.157 103.734 199.954 103.504 200.751 103.273C204.862 102.193 208.7 100.258 212.014 97.5957C212.601 97.1273 213.227 96.7108 213.886 96.3509C214.024 96.2797 214.182 96.2601 214.333 96.2955C214.484 96.3309 214.617 96.4191 214.709 96.5441C214.815 96.6544 214.876 96.8007 214.88 96.954C214.884 97.1074 214.831 97.2566 214.73 97.3723C214.497 97.6688 214.238 97.9432 213.954 98.192C209.828 101.789 204.837 104.252 199.471 105.337C199.193 105.382 198.911 105.41 198.629 105.419Z" fill="#100403"/>
<path d="M181.352 70.1887C180.807 70.1744 180.291 70.2039 180.141 69.6176C179.981 68.9145 180.509 68.6708 181.033 68.5496C181.841 68.3744 182.674 68.3778 183.495 68.1724C186.654 67.3232 189.611 65.8493 192.191 63.8379C192.413 63.6279 192.645 63.4293 192.887 63.243C193.554 62.8312 194.329 61.8092 195.011 62.6853C195.765 63.6429 194.491 64.0389 193.915 64.4959C190.458 67.3179 186.651 69.4073 182.123 69.9942C181.863 70.0464 181.606 70.1113 181.352 70.1887Z" fill="#150403"/>
<path d="M111.794 146.057L104.08 144.017L91.096 140.68C90.4383 140.51 89.7808 140.333 89.1365 140.12C88.9654 140.096 88.8025 140.032 88.6612 139.932C88.5199 139.832 88.4043 139.701 88.3239 139.548C88.2434 139.395 88.2005 139.225 88.1986 139.052C88.1967 138.879 88.2359 138.709 88.3129 138.554C89.1508 136.283 89.9583 133.999 90.8326 131.741C91.2135 130.77 92.0401 131.043 92.7828 131.246L102.419 133.882C102.638 133.943 102.85 134.028 103.07 134.089C105.346 134.719 105.377 134.689 106.11 132.477C108.501 125.182 110.782 117.885 113.421 110.731C114.742 107.087 114.576 107.347 118.084 108.241C119.618 108.637 121.172 108.984 122.713 109.374C124.583 109.839 124.642 109.945 124.028 111.86C123.727 112.803 123.403 113.726 123.06 114.649C119.42 124.455 116.297 134.428 112.809 144.281C112.542 145.108 112.531 146.254 111.794 146.057Z" fill="#60B158"/>
<path d="M135.475 156.496C136.45 158.361 137.375 160.255 138.425 162.091C139.012 163.075 138.706 163.521 137.81 164.037C134.617 165.86 134.427 165.861 131.694 163.473C130.426 162.299 129.032 161.269 127.538 160.403C128.759 161.992 130.005 163.569 131.189 165.188C132.373 166.807 132.271 166.737 130.591 167.674C129.863 168.084 129.141 168.507 128.384 168.843C127.044 169.464 126.531 169.371 125.692 168.159C124.642 166.581 123.717 164.926 122.754 163.301C120.991 160.379 119.408 157.352 117.421 154.579C116.782 153.691 116.847 153.074 117.9 152.654C118.042 152.596 118.173 152.52 118.31 152.456C123.786 149.791 121.883 149.662 126.474 153.227C127.192 153.916 128.002 154.502 128.881 154.969C129.459 154.414 128.907 153.989 128.715 153.586C128.08 152.294 127.396 151.025 126.705 149.763C126.249 148.936 126.412 148.302 127.245 147.882C128.599 147.207 129.977 146.568 131.331 145.886C132.07 145.513 132.603 145.778 133.16 146.296C137.068 149.998 140.984 153.689 144.905 157.368C145.13 157.574 145.339 157.797 145.532 158.034C146.601 159.343 146.553 159.556 145.066 160.388C141.482 162.385 141.482 162.385 138.777 159.378C137.824 158.311 136.859 157.25 135.9 156.182L135.475 156.496Z" fill="#64B25A"/>
<path d="M112.471 205.169C112.373 205.352 112.262 205.527 112.139 205.694C112.039 205.808 111.918 205.9 111.782 205.967C110.434 206.661 109.152 207.596 107.72 207.97C106.128 208.382 105.352 206.62 104.131 205.957C103.406 205.564 102.777 204.99 102.084 204.53C101.71 204.288 101.27 204.006 100.861 204.413C100.452 204.819 100.839 205.246 101.069 205.583C101.839 206.615 102.628 207.628 103.442 208.637C104.119 209.476 104.016 210.129 103.023 210.6C101.521 211.296 100.107 212.847 98.5862 212.642C97.065 212.437 96.5731 210.376 95.6123 209.137C92.7674 205.385 90.1277 201.521 87.1144 197.88C86.0027 196.546 86.0506 196.357 87.5735 195.557C90.5258 194.015 93.4721 192.467 96.4594 190.994C99.2296 189.62 100.624 189.981 102.553 192.434C103.573 193.755 104.587 195.075 105.588 196.407C106.092 197.07 106.706 197.748 106.578 198.627C106.389 200.014 107.137 200.702 108.195 201.299C109.251 201.891 110.272 202.544 111.252 203.255C111.573 203.476 111.847 203.759 112.057 204.088C112.266 204.417 112.407 204.784 112.471 205.169Z" fill="#64B15C"/>
<path d="M161.515 143.915C162.876 145.336 164.262 146.733 165.591 148.184C166.497 149.176 166.484 149.433 165.328 150.047C161.393 152.102 161.986 152.412 159.22 149.182C156.19 145.695 153.042 142.277 150.3 138.583C149.376 137.332 149.38 137.173 150.75 136.369C150.943 136.251 151.142 136.14 151.372 136.042C155.192 134.137 154.348 134.28 157.5 136.134C159.074 137.038 160.655 137.935 162.242 138.827C162.297 138.828 162.377 138.83 162.726 138.839C161.203 137.298 159.786 135.924 158.432 134.491C157.31 133.297 157.328 133.083 158.805 132.398C163 130.453 161.783 130.091 164.856 133.567C167.762 136.864 170.662 140.168 173.555 143.481C174.745 144.867 174.739 145.087 173.098 145.964C169.31 148.017 169.311 148.011 165.55 145.767C164.343 145.037 163.119 144.31 161.879 143.587L161.515 143.915Z" fill="#60B157"/>
<path d="M112.126 177.038L111.505 177.353C110.765 177.732 110.037 178.149 109.28 178.521C106.953 179.577 107.013 180.338 104.875 177.904C104.648 177.551 104.292 177.299 103.883 177.203C103.474 177.106 103.043 177.172 102.682 177.387C101.613 177.923 101.491 178.147 102.019 179.307C102.18 179.65 102.359 179.984 102.557 180.308C103.146 181.206 102.939 181.863 101.983 182.328C100.827 182.911 99.6666 183.457 98.5285 184.077C98.3688 184.182 98.1893 184.252 98.0011 184.283C97.813 184.315 97.6204 184.307 97.4355 184.26C97.2506 184.213 97.0774 184.128 96.927 184.011C96.7765 183.894 96.652 183.746 96.5613 183.579C96.1422 183.042 95.7793 182.463 95.4783 181.852C93.7073 177.825 91.7663 173.892 89.6553 170.052C89.3625 169.523 89.1259 168.959 88.8828 168.407C88.7888 168.262 88.7288 168.098 88.7071 167.927C88.6855 167.756 88.7028 167.582 88.7577 167.418C88.8127 167.255 88.9039 167.106 89.0245 166.982C89.1451 166.859 89.2921 166.764 89.4544 166.705C91.8328 165.541 94.2174 164.377 96.5909 163.17C97.4481 162.739 97.9877 163.207 98.581 163.731C101.814 166.709 105.072 169.669 108.311 172.635C109.377 173.607 110.433 174.585 111.478 175.569C111.683 175.755 111.846 175.982 111.958 176.235C112.07 176.488 112.127 176.762 112.126 177.038Z" fill="#64B15A"/>
<path d="M190.626 143.129C191.752 143.159 192.822 143.627 193.608 144.433C196.656 147.694 199.735 150.926 202.726 154.241C204.061 155.722 203.806 157.261 202.12 158.21C199.357 159.775 196.553 161.265 193.732 162.724C192.222 163.506 191.874 163.436 190.797 162.194C187.163 158.139 183.55 154.066 179.958 149.975C179.076 148.977 179.081 148.566 180.106 148.029C183.127 146.458 186.182 144.963 189.237 143.473C189.684 143.301 190.151 143.186 190.626 143.129Z" fill="#64B259"/>
<path d="M116.271 185.736C116.283 186.441 115.793 186.674 115.314 186.937C114.238 187.522 113.157 188.046 112.094 188.631C111.608 188.9 110.82 189.051 111.318 189.916C111.741 190.645 112.25 191.093 113.14 190.577C114.03 190.061 115.005 189.59 115.98 189.131C117.898 188.224 117.904 188.231 119.155 189.863C119.339 190.101 119.522 190.345 119.7 190.589C120.919 192.27 120.919 192.276 119.152 193.254C118.29 193.73 117.421 194.198 116.547 194.657C115.969 194.967 115.45 195.321 115.996 196.047C116.428 196.628 116.793 197.459 117.78 196.964C118.768 196.468 119.788 195.9 120.795 195.375C121.472 195.031 122.149 194.693 122.832 194.361C123.18 194.192 123.607 194.026 123.887 194.352C124.774 195.387 125.672 196.434 126.428 197.545C126.777 198.044 126.21 198.361 125.831 198.578C124.636 199.239 123.418 199.863 122.212 200.5C120.068 201.634 117.9 202.73 115.784 203.913C115.623 204.042 115.435 204.135 115.233 204.183C115.032 204.232 114.823 204.236 114.62 204.195C114.417 204.154 114.225 204.069 114.059 203.946C113.892 203.823 113.755 203.665 113.656 203.483C110.101 198.756 106.525 194.042 102.928 189.342C102.21 188.416 102.457 187.883 103.395 187.405C106.639 185.742 109.859 184.048 113.108 182.404C114.282 181.822 114.92 182.04 115.51 183.178C115.918 183.976 116.176 184.844 116.271 185.736Z" fill="#65B05B"/>
<path d="M84.1803 169.836C84.6403 169.823 85.0963 169.925 85.5064 170.134C85.9165 170.343 86.2677 170.651 86.5278 171.031C88.0993 173.071 89.7144 175.081 91.1735 177.197C92.6326 179.313 92.2535 180.217 90.1156 181.326C88.9723 181.909 87.8045 182.492 86.6735 183.076C85.0755 183.935 85.0811 183.954 86.1176 185.348C86.7515 186.198 87.3979 187.037 88.0694 187.851C88.7409 188.666 88.6072 189.091 87.758 189.682C83.4606 192.494 83.3945 192.444 80.3246 188.385C77.6406 184.808 75.1751 181.084 72.316 177.643C71.0319 176.102 71.1033 175.95 72.8869 175.028C75.64 173.604 78.4109 172.199 81.1758 170.793C82.0996 170.268 83.123 169.942 84.1803 169.836Z" fill="#63B05B"/>
<path d="M141.347 168.034C141.6 168.022 141.851 168.076 142.076 168.189C142.302 168.302 142.495 168.472 142.636 168.681C143.077 169.299 143.403 169.991 143.601 170.723C143.694 170.911 143.746 171.116 143.754 171.325C143.762 171.534 143.725 171.742 143.647 171.936C143.568 172.13 143.449 172.305 143.298 172.449C143.146 172.594 142.966 172.704 142.769 172.774C141.744 173.262 140.755 173.825 139.766 174.381C139.293 174.651 138.493 174.753 138.863 175.621C139.232 176.489 139.962 176.704 140.888 176.25C141.975 175.714 143.062 175.172 144.107 174.568C145.01 174.052 145.654 174.271 146.266 175.035C148.902 178.329 148.875 177.709 145.535 179.528C145.137 179.745 144.716 179.924 144.293 180.146C143.77 180.445 143.119 180.728 143.601 181.513C144.084 182.298 144.489 182.971 145.565 182.392C147.032 181.603 148.552 180.913 150.002 180.092C150.165 179.964 150.355 179.873 150.557 179.825C150.76 179.778 150.97 179.775 151.174 179.818C151.377 179.861 151.569 179.948 151.735 180.072C151.901 180.197 152.038 180.357 152.136 180.54C154.415 183.665 154.912 183.182 151.342 185.142C148.885 186.488 146.37 187.735 143.93 189.112C142.855 189.697 142.142 189.519 141.412 188.599C137.882 184.145 134.336 179.708 130.773 175.287C130.178 174.567 129.748 173.905 130.91 173.304C134.141 171.647 137.367 169.966 140.598 168.309C140.84 168.197 141.09 168.105 141.347 168.034Z" fill="#63B159"/>
<path d="M166.524 170.444C164.553 167.505 162.57 164.578 160.624 161.621C158.784 158.833 158.191 159.21 161.589 157.527C164.756 155.966 164.695 155.965 166.355 159.067C168.571 163.214 170.867 167.314 173.12 171.444C174.015 173.073 174.012 173.184 172.401 174.067C170.79 174.951 169.01 175.769 167.337 176.651C167.014 176.854 166.633 176.943 166.253 176.906C165.874 176.868 165.517 176.705 165.24 176.443C160.692 172.646 156.111 168.916 151.582 165.107C150.214 163.956 150.33 163.284 152.013 162.439C156.213 160.335 154.964 160.027 158.434 163.312C161.025 165.758 163.572 168.246 166.137 170.71L166.524 170.444Z" fill="#66B15C"/>
<path d="M190.394 164.452C186.665 166.402 183.146 168.254 179.621 170.136C178.707 170.621 178.206 170.099 177.701 169.473C175.523 166.964 173.34 164.455 171.154 161.945C169.672 160.227 168.178 158.526 166.721 156.772C165.712 155.519 165.759 155.367 167.213 154.608C170.097 153.108 172.992 151.626 175.911 150.194C177.308 149.507 178 149.807 178.75 151.365C179.686 153.303 179.518 153.887 178.055 154.492C177.169 154.9 176.308 155.359 175.475 155.866C175.002 156.123 174.454 156.452 174.83 157.075C175.142 157.574 175.546 158.099 176.303 157.727C177.248 157.249 178.196 156.779 179.148 156.317C181.011 155.403 181.054 155.386 182.333 156.903C184.182 159.097 185.064 158.924 181.529 160.677C181.126 160.881 180.716 161.079 180.324 161.308C179.832 161.589 179.018 161.764 179.542 162.581C179.984 163.267 180.486 164.028 181.548 163.473C183.027 162.709 184.53 161.987 186.003 161.217C186.156 161.107 186.329 161.03 186.512 160.989C186.696 160.948 186.886 160.945 187.07 160.979C187.255 161.014 187.431 161.086 187.587 161.19C187.744 161.295 187.877 161.43 187.98 161.587C188.717 162.465 189.693 163.134 190.394 164.452Z" fill="#5FB058"/>
<path d="M147.004 138.215C147.255 138.192 147.506 138.241 147.73 138.355C147.954 138.469 148.141 138.645 148.269 138.861C148.706 139.482 149.047 140.164 149.283 140.886C149.381 141.05 149.44 141.236 149.454 141.427C149.467 141.618 149.436 141.81 149.362 141.987C149.289 142.164 149.174 142.321 149.029 142.446C148.883 142.571 148.71 142.659 148.524 142.705C147.488 143.169 146.481 143.694 145.48 144.244C145.063 144.473 144.336 144.631 144.758 145.366C145.097 145.988 145.556 146.509 146.407 146.071C147.482 145.523 148.616 145.056 149.65 144.433C150.684 143.81 151.502 143.966 152.163 144.928C152.382 145.234 152.651 145.504 152.882 145.805C154.126 147.456 154.126 147.48 152.354 148.421C151.62 148.813 150.869 149.173 150.135 149.589C149.693 149.835 149.05 150.064 149.43 150.754C149.811 151.444 150.26 152.063 151.248 151.58C152.235 151.097 153.166 150.68 154.122 150.22C156.941 148.865 156.941 148.859 158.85 151.325C159.876 152.651 159.893 152.719 158.463 153.485C155.659 154.987 152.868 156.472 150.004 157.899C148.283 158.768 147.948 158.685 146.712 157.2C143.435 153.228 140.18 149.238 136.945 145.23C135.977 144.033 136.03 143.642 137.335 142.977C140.236 141.496 143.174 140.064 146.098 138.645C146.417 138.426 146.775 138.307 147.004 138.215Z" fill="#5FB158"/>
<path d="M129.223 196.146C128.735 196.138 128.256 196.018 127.822 195.794C127.389 195.57 127.013 195.248 126.725 194.855C123.703 191.055 120.663 187.273 117.704 183.431C116.672 182.086 116.854 180.754 118.298 179.909C121.175 178.231 124.168 176.746 127.121 175.198C127.426 175.023 127.787 174.973 128.128 175.06C128.469 175.147 128.763 175.363 128.948 175.662C129.236 176.013 129.495 176.387 129.722 176.78C130.764 178.677 130.616 179.164 128.721 180.138C127.776 180.628 126.82 181.082 125.852 181.529C124.884 181.975 124.699 182.498 125.39 183.276C127.111 185.197 128.814 187.13 130.342 189.211C130.869 189.93 131.554 189.727 132.176 189.394C133.524 188.712 134.914 188.08 136.21 187.304C137.281 186.664 137.967 186.921 138.703 187.835C141.257 191.01 141.086 190.497 137.921 192.21C135.85 193.333 133.762 194.407 131.674 195.487C130.944 195.953 130.088 196.183 129.223 196.146Z" fill="#63B15B"/>
<path d="M111.675 163.269C110.991 161.78 110.3 160.291 109.628 158.796C108.956 157.301 108.941 157.153 110.47 156.365C111.477 155.834 112.525 155.383 113.538 154.864C114.402 154.408 114.987 154.754 115.453 155.471C115.884 156.19 116.179 156.981 116.324 157.805C116.804 160.105 117.376 162.388 117.719 164.714C117.992 166.676 118.873 168.502 120.238 169.936C120.904 170.488 121.419 171.199 121.735 172.004C120.332 173.151 118.587 173.762 117.014 174.616C116.82 174.732 116.592 174.777 116.368 174.742C116.145 174.707 115.941 174.595 115.793 174.424C115.733 174.378 115.681 174.323 115.637 174.261C112.635 169.278 107.23 167.512 102.691 164.568C101.834 164.08 101.06 163.46 100.397 162.73C99.8503 162.054 99.8711 161.49 100.709 161.107C102.017 160.528 103.338 159.95 104.637 159.291C105.401 158.918 105.918 159.281 106.465 159.731C108.044 160.998 109.642 162.266 111.232 163.577L111.675 163.269Z" fill="#65B15C"/>
<path d="M184.544 139.825C183.213 141.017 181.674 141.498 180.317 142.296C179.414 142.824 178.929 142.137 178.429 141.572C176.218 139.062 174.017 136.553 171.826 134.043C171.511 133.716 171.215 133.37 170.94 133.009C170.29 132.066 169.609 132.097 168.638 132.636C166.847 133.625 164.751 132.645 164.049 130.646C163.815 129.99 164.149 129.637 164.659 129.375C167.89 127.712 171.052 125.9 174.411 124.504C175.694 123.967 178.045 126.193 177.746 127.558C177.703 127.742 177.619 127.913 177.499 128.059C177.38 128.205 177.228 128.321 177.056 128.398C176.539 128.691 176.023 128.985 175.333 129.353C178.339 133.036 181.753 136.129 184.544 139.825Z" fill="#69B35C"/>
<path d="M143.611 167.002C144.965 165.891 146.589 165.418 148.021 164.603C148.247 164.458 148.521 164.407 148.784 164.461C149.047 164.515 149.279 164.669 149.429 164.891C150.132 165.688 150.86 166.461 151.544 167.27C154.414 170.692 157.277 174.123 160.134 177.561C160.473 177.968 160.8 178.381 161.113 178.813C161.207 178.909 161.276 179.027 161.313 179.156C161.35 179.285 161.354 179.422 161.325 179.553C161.296 179.684 161.235 179.806 161.147 179.908C161.059 180.01 160.947 180.088 160.821 180.135C159.635 180.803 158.435 181.448 157.221 182.071C156.177 182.601 155.524 182.026 154.919 181.232C152.366 178.039 149.764 174.881 147.248 171.658C146.056 170.125 144.47 168.882 143.611 167.002Z" fill="#62B05A"/>
<path d="M97.6391 200.074C96.9824 200.1 95.6473 198.636 95.4828 197.89C95.3184 197.144 95.9283 197.031 96.3456 196.779C97.2238 196.25 97.9038 196.507 98.4026 197.359C98.4789 197.49 98.5802 197.603 98.6504 197.734C98.8904 198.169 99.4631 198.54 99.1971 199.103C98.8851 199.781 98.088 199.785 97.6391 200.074Z" fill="#F0F9ED"/>
<path d="M96.6554 169.168C97.5869 170.124 98.5251 171.056 99.4437 172.036C99.7478 172.363 100.118 172.74 99.5496 173.148C99.454 173.242 99.3381 173.313 99.2109 173.355C99.0838 173.397 98.9486 173.41 98.8158 173.391C98.6831 173.373 98.5563 173.325 98.4452 173.25C98.3341 173.175 98.2417 173.076 98.1751 172.959C97.4686 171.837 96.8244 170.68 96.1493 169.535L96.6554 169.168Z" fill="#E1F5DD"/>
<path d="M196.065 155.526C194.014 157.054 193.989 157.072 192.601 155.54C191.212 154.008 189.921 152.491 188.582 150.966C188.177 150.502 187.705 150.036 188.431 149.472C188.975 149.057 189.544 148.612 190.201 149.31L196.065 155.526Z" fill="#F5FCF3"/>
<path d="M79.969 177.107C82.2129 175.694 82.3967 175.699 83.5594 177.428C83.8779 177.908 84.7111 178.402 83.8527 179.109C82.9944 179.816 82.043 179.859 81.3531 179.044C80.8844 178.443 80.4777 177.819 79.969 177.107Z" fill="#EDF9EA"/>
<path d="M87.7904 85.6871C89.2523 85.1122 90.0447 85.2861 90.5262 86.3348C90.6397 86.5382 90.6717 86.7772 90.6157 87.0034C90.5597 87.2295 90.42 87.426 90.2247 87.5531C89.8291 87.9106 89.4169 87.9673 89.0607 87.5227C88.6107 86.9101 87.9726 86.4582 87.7904 85.6871Z" fill="#E1E1E1"/>
<path d="M57.0525 100.856C56.9779 101.368 56.5809 101.554 56.1443 101.616C56.0362 101.641 55.924 101.641 55.8159 101.617C55.7078 101.592 55.6065 101.544 55.5195 101.475C55.4325 101.407 55.3621 101.319 55.3133 101.22C55.2646 101.12 55.2388 101.011 55.2378 100.9C55.2469 100.551 55.6089 100.297 56.0142 100.259C56.2309 100.205 56.4601 100.237 56.6536 100.348C56.8472 100.459 56.9902 100.641 57.0525 100.856Z" fill="#C7C7C7"/>
<path d="M84.8105 87.7732C84.8644 88.2893 84.4795 88.4814 84.1407 88.5522C84.029 88.5741 83.9139 88.5723 83.8029 88.547C83.6919 88.5216 83.5875 88.4733 83.4963 88.4051C83.4051 88.3369 83.3293 88.2504 83.2736 88.1511C83.218 88.0518 83.1837 87.9419 83.1731 87.8285C83.0965 87.4773 83.4007 87.3259 83.7208 87.2669C83.9326 87.1917 84.1654 87.2026 84.3691 87.2973C84.5729 87.392 84.7314 87.5629 84.8105 87.7732Z" fill="#CBCAC9"/>
<path d="M80.4797 90.7133C80.2656 91.1734 80.0168 91.3139 79.7107 91.3059C79.1535 91.2914 79.0308 90.8287 79.0114 90.3993C78.9919 89.9699 79.2805 89.9468 79.5957 90.0776C79.9109 90.2083 80.3533 90.3914 80.4797 90.7133Z" fill="#A6A6A6"/>
<path d="M72.6765 99.8779C72.8551 99.9109 73.0287 99.9669 73.1929 100.045C73.4944 100.23 73.9145 100.333 73.9452 100.799C73.937 101.112 73.6916 101.124 73.4938 101.192C72.8758 101.396 72.6972 100.963 72.5495 100.518C72.4871 100.326 72.3032 100.095 72.6765 99.8779Z" fill="#D1D1D1"/>
</g>
<defs>
<clipPath id="clip0_518_2191">
<rect width="612.744" height="338.18" fill="white" transform="translate(-159.184) rotate(1.49396)"/>
</clipPath>
</defs>
</svg>
