<svg width="30" height="30" viewBox="0 0 30 30" fill="none" xmlns="http://www.w3.org/2000/svg">
<g clip-path="url(#clip0_95_362)">
<path d="M9.75 6H20.25C24.25 6 27.5 9.25 27.5 13.25V23.75C27.5 25.6728 26.7362 27.5169 25.3765 28.8765C24.0169 30.2362 22.1728 31 20.25 31H9.75C5.75 31 2.5 27.75 2.5 23.75V13.25C2.5 11.3272 3.26384 9.48311 4.62348 8.12348C5.98311 6.76384 7.82718 6 9.75 6ZM9.5 8.5C8.30653 8.5 7.16193 8.97411 6.31802 9.81802C5.47411 10.6619 5 11.8065 5 13V24C5 26.4875 7.0125 28.5 9.5 28.5H20.5C21.6935 28.5 22.8381 28.0259 23.682 27.182C24.5259 26.3381 25 25.1935 25 24V13C25 10.5125 22.9875 8.5 20.5 8.5H9.5ZM21.5625 10.375C21.9769 10.375 22.3743 10.5396 22.6674 10.8326C22.9604 11.1257 23.125 11.5231 23.125 11.9375C23.125 12.3519 22.9604 12.7493 22.6674 13.0424C22.3743 13.3354 21.9769 13.5 21.5625 13.5C21.1481 13.5 20.7507 13.3354 20.4576 13.0424C20.1646 12.7493 20 12.3519 20 11.9375C20 11.5231 20.1646 11.1257 20.4576 10.8326C20.7507 10.5396 21.1481 10.375 21.5625 10.375ZM15 12.25C16.6576 12.25 18.2473 12.9085 19.4194 14.0806C20.5915 15.2527 21.25 16.8424 21.25 18.5C21.25 20.1576 20.5915 21.7473 19.4194 22.9194C18.2473 24.0915 16.6576 24.75 15 24.75C13.3424 24.75 11.7527 24.0915 10.5806 22.9194C9.40848 21.7473 8.75 20.1576 8.75 18.5C8.75 16.8424 9.40848 15.2527 10.5806 14.0806C11.7527 12.9085 13.3424 12.25 15 12.25ZM15 14.75C14.0054 14.75 13.0516 15.1451 12.3483 15.8483C11.6451 16.5516 11.25 17.5054 11.25 18.5C11.25 19.4946 11.6451 20.4484 12.3483 21.1517C13.0516 21.8549 14.0054 22.25 15 22.25C15.9946 22.25 16.9484 21.8549 17.6517 21.1517C18.3549 20.4484 18.75 19.4946 18.75 18.5C18.75 17.5054 18.3549 16.5516 17.6517 15.8483C16.9484 15.1451 15.9946 14.75 15 14.75Z" fill="#E6E6E6"/>
</g>
<defs>
<clipPath id="clip0_95_362">
<rect width="30" height="30" fill="white"/>
</clipPath>
</defs>
</svg>
