<svg width="437" height="599" viewBox="0 0 437 599" fill="none" xmlns="http://www.w3.org/2000/svg">
<path d="M162.235 491.307C157.093 490.767 151.953 490.218 146.802 489.708C137.642 488.806 128.557 487.47 119.547 485.7C100.874 482.155 83.0458 475.17 66.8224 465.042C59.0571 460.016 50.9471 455.608 42.553 451.849C30.8178 446.771 18.7623 443.019 5.95891 441.604C-8.47549 440.004 -23.0442 439.976 -37.5297 439.017C-40.9779 438.787 -41.2557 438.098 -41.6094 434.833C-43.06 421.047 -43.3018 407.082 -42.3314 393.122C-40.5174 366.388 -35.3429 339.873 -26.9517 314.315C-21.8028 298.167 -15.0445 282.601 -6.80006 267.901C-6.38501 267.265 -6.00498 266.603 -5.66208 265.921C-4.84439 264.001 -3.58465 263.869 -1.85065 264.212C9.83305 266.448 21.6659 267.904 33.5824 268.573C43.2438 269.215 53.0038 268.435 62.5976 266.254C69.3967 264.653 75.9131 261.675 81.7967 257.479C92.3047 249.936 102.155 241.334 111.208 231.794C115.318 227.57 119.447 223.277 123.647 219.153C132.121 210.651 141.56 203.369 151.71 197.505C171.864 186.001 187.208 169.036 199.366 148.438C204.313 140.046 208.679 131.277 214.43 123.441C215.29 122.167 215.949 120.753 216.376 119.26C219.521 109.819 222.699 100.398 225.863 90.9618C226.941 87.9225 228.175 84.9435 229.558 82.0389C233.511 73.3165 240.079 70.4204 248.347 72.592C252.732 73.636 256.768 75.8212 260.115 78.9629C263.463 82.1045 266.022 86.1102 267.578 90.641C270.579 99.0326 271.796 108.128 271.144 117.278C270.205 132.045 267.408 146.424 261.728 160.194C258.433 168.467 254.412 176.409 249.722 183.905C242.677 194.881 235.599 205.836 228.634 216.876C223.743 224.534 219.812 232.831 216.95 241.536C215.26 246.766 215.064 245.466 219.196 247.528C232.784 254.281 247.087 258.958 261.619 263.055C271.174 265.634 280.516 268.95 289.576 272.979C298.941 277.259 307.815 282.423 315.096 290.256C321.31 296.965 326.233 304.658 326.788 314.516C327.466 326.599 324.76 337.804 315.288 346.215C312.801 348.332 309.998 349.957 307.018 351.01C304.426 352.028 301.822 353.02 299.226 354.016C299.357 355.48 300.449 355.88 301.196 356.571C309.065 363.838 312.113 373.102 310.181 384.512C309.529 389.109 308.301 393.619 306.531 397.913C301.934 408.281 294.277 413.826 284.124 415.65C282.124 416.016 280.112 416.251 277.88 416.574C279.117 419.162 280.721 421.551 281.109 424.45C282.728 436.526 280.628 447.804 272.495 457.242C267.221 463.364 260.449 466.289 252.852 466.483C252.005 466.645 251.983 466.091 252.088 465.433C252.835 464.224 254.026 463.987 255.189 463.709C271.881 459.765 276.115 450.488 278.837 435.852C280.113 429.014 278.234 423.318 275.34 417.757C275.14 417.183 275.135 416.542 275.326 415.944C275.518 415.347 275.893 414.83 276.387 414.485C278.93 413.045 281.733 413.202 284.405 412.776C298.102 410.628 305.257 397.848 307.326 386.863C309.721 374.175 306.791 364.171 297.251 356.826C296.329 356.262 295.649 355.339 295.341 354.234C295.328 353.922 295.374 353.607 295.476 353.309C295.577 353.011 295.732 352.735 295.931 352.498C299.331 350.438 303.139 349.726 306.715 348.231C317.563 343.735 322.154 334.546 324 323.165C325.664 312.894 322.411 304.26 316.754 296.675C309.541 286.982 299.984 280.577 289.35 276.041C277.693 270.929 265.67 266.748 253.376 263.531C241.91 260.652 231.129 255.904 220.264 251.356C216.304 249.697 216.056 249.778 214.778 254.124C214.372 256.02 213.8 257.877 213.069 259.671C212.938 260.036 212.699 260.348 212.391 260.557C212.082 260.765 211.723 260.858 211.37 260.819C210.789 260.657 210.574 259.954 210.466 259.322C210.089 256.985 210.761 254.746 211.285 252.476C215.471 233.245 225.106 216.861 235.697 200.839C243.71 188.706 252.106 176.743 257.767 162.968C265.229 144.798 269.632 126.121 268.213 106.501C267.61 98.1212 265.877 90.0389 260.513 83.7912C254.694 77.0307 247.726 73.0311 238.504 75.8004C237.776 76.1668 237.201 76.7905 236.498 77.2069C234.738 78.6083 233.338 80.4813 232.446 82.6278C229.304 88.9351 226.768 95.5516 224.881 102.368C223.139 108.839 220.539 114.986 218.612 121.384C218.414 121.968 218.18 122.537 217.913 123.09C213.014 129.57 208.722 136.549 205.104 143.916C203.18 147.738 203.292 148.671 206.081 151.519C207.51 152.99 209.325 153.924 210.832 155.256C211.459 155.817 212.198 156.57 211.82 157.474C211.345 158.619 210.21 158.443 209.303 158.223C207.177 157.533 205.238 156.342 203.622 154.731C200.301 151.897 199.522 152.131 197.798 156.675C197.677 157.042 197.573 157.414 197.488 157.791C197.212 158.506 196.698 159.093 196.053 159.431C192.029 163.98 188.408 168.909 184.491 173.562C175.676 183.915 165.286 192.555 153.819 199.068C142.853 205.496 132.697 213.51 123.648 222.878C113.255 233.545 102.949 244.321 91.4361 253.635C83.876 259.711 75.9986 264.959 66.9546 267.788C51.1666 272.284 35.3985 271.891 19.6566 269.927C13.3598 269.141 6.99913 268.831 0.864556 267.146C-1.88316 266.403 -4.03246 267.448 -5.49962 270.26C-10.4338 279.697 -14.8145 289.395 -18.9024 299.271C-24.7515 313.263 -28.1964 327.966 -32.2377 342.493C-35.4891 354.18 -36.9856 366.205 -38.4019 378.188C-40.3492 394.682 -41.1775 411.198 -39.89 427.668C-39.2133 436.348 -39.3156 436.469 -31.4654 436.7C-20.6154 437.013 -9.73064 437.272 1.0383 438.228C15.7247 439.575 30.0357 443.311 43.4944 449.31C58.0407 455.782 71.0644 465.267 85.4521 472.028C88.6802 473.736 92.0578 475.117 95.5441 476.156C97.9488 476.761 100.142 477.951 102.446 478.774C109.884 481.402 117.726 482.435 125.454 483.984C133.871 485.66 142.383 486.428 150.882 487.526C154.472 488.102 158.11 488.379 161.765 488.353C163.556 488.948 164.346 489.801 162.235 491.307Z" fill="#100503"/>
<path d="M170.164 583.35C167.681 586.578 165.191 590.007 160.697 590.828C156.473 591.596 152.288 592.922 148.138 593.775C147.44 593.9 146.78 594.234 146.233 594.739C145.686 595.244 145.274 595.899 145.045 596.629C143.303 600.782 141.436 604.889 139.771 609.117C138.565 612.115 136.74 614.798 134.441 616.951C131.607 619.684 129.685 619.385 127.964 615.901C125.22 610.361 122.489 604.813 119.967 599.142C118.92 596.789 117.412 595.983 115.072 595.815C109.548 595.416 104.048 594.756 98.5349 594.177C97.8305 594.104 97.138 593.955 96.4678 593.731C93.948 592.837 93.2458 590.473 94.794 588.038C95.2057 587.406 95.6711 586.817 96.1837 586.277C100.418 581.605 104.617 576.816 109.019 572.351C109.712 571.748 110.234 570.944 110.52 570.042C110.806 569.14 110.842 568.179 110.626 567.28C109.75 562.024 108.976 556.752 108.175 551.473C107.739 549.234 108.103 546.858 109.195 544.815C110.287 542.772 112.027 541.21 114.073 540.437C115.585 539.784 116.872 540.432 118.115 541.1C122.577 543.522 127.059 545.907 131.438 548.488C133.666 549.795 135.532 550.089 137.938 548.332C141.943 545.399 146.217 542.906 150.384 540.234C151.093 539.731 151.832 539.284 152.596 538.895C155.778 537.515 158.147 539.162 158.031 542.812C157.888 544.733 157.633 546.648 157.268 548.546C156.594 553.007 155.96 557.468 155.19 561.923C155.039 562.81 155.112 563.712 155.4 564.535C155.688 565.358 156.18 566.07 156.824 566.597C160.32 570.067 163.801 573.54 167.269 577.017C168.102 577.889 168.878 578.822 169.593 579.81C169.919 580.31 170.138 580.884 170.236 581.495C170.335 582.105 170.31 582.738 170.164 583.35Z" fill="#352814"/>
<path d="M333.728 165.336C338.576 167.565 343.674 170.024 348.865 172.252C356.088 175.335 353.767 175.344 360.107 171.086C365.035 167.755 369.739 164.104 374.621 160.621C378.265 158.071 380.165 158.943 382.381 162.652C385.35 167.557 385.516 172.691 384.471 178.347C383.692 182.521 383.464 186.784 382.806 190.98C382.628 191.79 382.682 192.627 382.958 193.379C383.235 194.132 383.722 194.763 384.354 195.189C388.086 198.374 391.694 201.686 395.454 204.804C397.283 206.138 398.636 208.1 399.308 210.395C399.833 211.789 400.436 213.143 401.114 214.451C402.598 218.084 401.285 221.047 397.613 222.183C390.826 224.288 384.033 226.445 377.203 228.313C376.172 228.532 375.207 229.064 374.422 229.847C373.637 230.63 373.066 231.629 372.776 232.727C370.227 239.887 367.399 246.958 364.644 254.081C363.831 256.195 362.708 258.051 360.349 258.339C357.989 258.627 356.685 257.02 355.672 255.106C352.207 248.571 348.698 242.056 345.387 235.424C345.046 234.573 344.481 233.859 343.759 233.367C343.037 232.875 342.189 232.626 341.317 232.649C334.943 232.422 328.587 231.92 322.207 231.82C318.856 231.768 316.581 230.523 315.486 227.073C315.176 226.257 314.822 225.463 314.426 224.695C312.442 220.258 312.634 218.83 315.798 215.051C320.345 209.607 324.864 204.123 329.498 198.757C330.142 198.097 330.61 197.262 330.849 196.349C331.087 195.436 331.086 194.481 330.846 193.593C329.654 187.647 328.673 181.642 327.648 175.656C327.365 174.038 327.168 172.399 327.057 170.747C326.807 166.266 329.505 163.989 333.728 165.336Z" fill="#342C14"/>
<path d="M47.7106 204.253C46.2094 206.133 44.7998 208.07 43.2126 209.872C42.332 211.055 41.1184 211.897 39.773 212.256C38.4275 212.616 37.0308 212.473 35.8143 211.85C27.1257 208.198 18.3781 204.723 9.72348 200.984C8.74841 200.474 7.6451 200.285 6.54446 200.44C5.44381 200.594 4.39201 201.085 3.51386 201.855C-4.42061 207.87 -12.5007 213.705 -20.4828 219.611C-21.2809 220.194 -22.0691 220.812 -22.9169 221.327C-27.7667 224.272 -32.2838 221.555 -32.023 215.659C-31.8311 211.172 -31.3384 206.693 -30.912 202.207C-30.269 195.43 -29.7286 188.635 -28.8266 181.876C-28.4759 179.279 -29.2611 177.987 -30.9674 176.525C-37.6757 170.784 -44.2614 164.883 -50.8444 158.972C-56.0693 154.298 -56.1649 151.9 -51.3531 146.454C-43.0013 136.969 -46.7876 139.362 -35.4982 136.126C-30.406 134.666 -25.3173 133.183 -20.1968 131.903C-19.2767 131.766 -18.4033 131.332 -17.6918 130.658C-16.9803 129.984 -16.4642 129.101 -16.2116 128.127C-13.7058 120.527 -10.9331 113.022 -8.34825 105.454C-7.62755 103.242 -6.39724 101.243 -4.77766 99.6521C-2.79351 97.7244 -0.970324 95.6017 0.989354 93.6565C3.8623 90.7845 6.35664 90.8558 9.36967 93.6692C9.25812 94.4218 8.73511 94.6842 8.14978 94.8542C3.11322 94.8485 2.4823 95.2526 0.6783 100.612C-2.10225 109.059 -4.98622 117.456 -7.84572 125.871C-8.31072 127.543 -9.18099 129.068 -10.3635 130.284C-11.5461 131.5 -12.9964 132.36 -14.5595 132.773C-22.7511 135.282 -30.9894 137.467 -39.2128 139.773C-42.0355 140.566 -44.3454 141.941 -45.6307 144.944C-46.0172 145.651 -46.57 146.239 -47.2293 146.646C-52.8138 150.052 -53.229 153.865 -48.3431 157.682C-41.9651 162.677 -36.2548 168.56 -29.9471 173.631C-27.3174 175.748 -26.3883 178.422 -26.503 182.104C-26.9346 191.215 -28.7185 200.23 -29.1201 209.339C-29.1793 210.396 -29.3065 211.381 -29.3874 212.41C-29.9204 219.39 -28.2124 220.67 -22.484 217.626C-17.965 215.448 -14.458 211.669 -10.3535 208.871C-10.1076 208.617 -9.84348 208.386 -9.56404 208.178C-4.64167 205.254 -0.203517 201.432 4.3825 197.888C4.64397 197.643 4.93219 197.435 5.23986 197.268C5.87904 196.938 6.59429 196.856 7.26099 197.036C7.75619 197.222 8.26631 197.364 8.78644 197.46C17.2624 200.892 25.6925 204.418 34.1621 207.837C39.2196 209.877 40.2912 209.542 43.7276 204.68C44.0847 203.929 44.6279 203.295 45.2931 202.851C45.627 202.631 46.0004 202.499 46.3827 202.463C46.765 202.428 47.1452 202.491 47.4923 202.647C47.9862 203.192 48.2552 203.632 47.7106 204.253Z" fill="#402112"/>
<path d="M162.235 491.307C162.839 490.402 163.334 489.466 162.201 488.721C160.376 488.954 159.761 487.226 159.121 486.115C156.276 481.115 153.258 476.207 151.537 470.511C151.286 469.946 151.146 469.327 151.123 468.69C151.1 468.053 151.196 467.411 151.404 466.803C152.801 464.594 154.237 465.445 155.655 466.537C158.933 469.735 160.909 474.235 164.563 477.066C164.844 477.275 165.106 477.513 165.344 477.777C169.55 482.49 174.829 485.88 179.396 490.07C180.004 490.628 180.65 491.138 181.329 491.595C181.561 491.839 181.742 492.134 181.861 492.462C181.739 493.921 180.621 493.191 179.966 493.578C174.005 493.183 168.085 492.425 162.235 491.307Z" fill="#140703"/>
<path d="M47.7108 204.253L47.0255 202.989C48.9133 198.63 47.7993 194.616 46.7052 190.426C44.6544 182.642 42.3832 174.947 40.4643 167.146C39.9792 165.593 39.8845 163.91 40.1896 162.264C40.4947 160.618 41.1891 159.067 42.2035 157.764C47.3433 150.8 52.439 143.795 57.4907 136.748C58.0058 136.022 58.5852 135.346 59.0667 134.6C62.1978 129.921 61.1173 126.947 55.9072 126.722C48.3674 126.395 40.7846 126.54 33.2297 126.338C31.8126 126.298 30.3907 126.311 28.9798 126.283C27.8481 126.3 26.7447 126.005 25.7729 125.427C24.8011 124.849 23.9927 124.006 23.4234 122.977C18.3989 114.559 13.7383 105.887 8.82331 97.3921C8.27478 96.4452 7.80492 95.3913 8.45859 94.1669L9.41535 93.6817C14.8527 102.268 19.6299 111.294 24.545 120.176C25.0474 121.283 25.8398 122.196 26.8285 122.806C27.8171 123.416 28.9604 123.697 30.1227 123.617C39.1068 123.604 48.0712 123.908 57.039 124.095C58.4695 123.989 59.8792 124.322 61.1058 125.055C61.7501 125.488 62.2976 126.066 62.7134 126.753C63.1293 127.439 63.4044 128.218 63.5214 129.041C63.6384 129.864 63.5946 130.713 63.3928 131.533C63.1911 132.354 62.8358 133.128 62.3495 133.806C59.4031 138.279 56.2546 142.598 53.1305 146.935C50.0065 151.272 47.0188 155.401 43.7714 159.478C43.0641 160.268 42.5728 161.252 42.3562 162.311C42.1396 163.371 42.2069 164.46 42.5501 165.45C45.1781 174.887 47.6094 184.398 50.1984 193.835C51.3423 197.846 51.0829 201.38 47.7108 204.253Z" fill="#343B1A"/>
<path d="M-7.82613 504.517C-3.51291 503.43 0.721086 502.171 5.01041 501.347C7.72361 500.926 10.2284 499.381 11.9899 497.041C14.2212 494.119 16.7071 491.408 19.0888 488.614C19.6908 487.708 20.5103 486.994 21.4517 486.555C22.5478 491.196 23.4048 495.91 24.0188 500.677C24.313 503.203 25.4464 505.486 27.2102 507.104C30.533 510.175 33.6289 513.57 36.8237 516.82C36.3062 518.083 35.2042 517.894 34.3859 518.128C30.5566 519.21 26.723 520.19 22.885 521.069C20.8914 521.498 19.0672 522.666 17.7309 524.369C14.6365 528.177 11.3302 531.798 8.17752 535.43C6.83865 534.757 6.99751 533.588 6.82528 532.66C6.11209 528.683 5.36965 524.74 4.835 520.684C4.5899 518.66 3.67353 516.835 2.25419 515.544C-0.353972 513.068 -2.90641 510.533 -5.40388 507.906C-6.26639 507.033 -7.40024 506.256 -7.82613 504.517Z" fill="#2C352C"/>
<path d="M252.258 465.491L252.874 466.478C251.407 467.144 249.924 466.849 248.441 466.941C247.444 467.007 246.372 466.57 245.48 467.492C245.16 467.826 244.756 468.048 244.325 468.126C238.11 466.837 231.92 465.49 226.113 462.769C224.079 461.817 221.823 461.522 219.704 460.804C205.452 455.98 191.439 450.579 179.107 441.458C176.805 439.745 174.448 438.23 171.487 437.975C170.054 437.867 168.729 437.205 167.75 436.109C167.06 434.404 168.35 434.129 169.271 434.16C170.608 434.242 171.683 433.575 172.862 433.173C174.544 432.997 175.758 433.979 176.999 434.936C191.787 445.617 208.24 453.46 225.679 458.14C233.715 460.375 241.563 463.461 250.014 464.062C250.481 464.062 250.933 464.193 251.326 464.444C251.72 464.695 252.041 465.056 252.258 465.491Z" fill="#100503"/>
<path d="M244.127 467.362L245.471 467.489C249.167 477.974 246.01 487.283 239.801 495.85C235.043 502.406 228.356 505.344 221.114 506.549C214.493 507.608 207.812 506.857 201.686 504.365C195.312 501.968 189.193 498.907 183.412 495.223C182.306 494.572 181.154 494.012 179.965 493.545L181.674 492.571C183.426 491.373 184.534 492.841 185.817 493.574C193.405 497.95 200.956 502.455 209.649 503.768C219.807 505.305 229.933 504.14 237.514 494.72C242.953 487.968 245.627 479.974 244.163 471.065C243.918 469.837 243.457 468.646 244.127 467.362Z" fill="#422012"/>
<path d="M119.984 173.456C117.08 174.259 114.634 175.103 112.092 175.555C109.966 175.897 108.011 177.127 106.649 178.978C104.967 181.194 103.057 183.207 101.266 185.285C100.067 184.951 100.334 183.888 100.189 183.107C99.907 181.482 99.5833 179.868 99.4424 178.229C99.3406 176.639 98.9264 175.106 98.2274 173.733C97.5284 172.36 96.5605 171.177 95.3878 170.263C93.7866 169.036 92.3932 167.524 91.2621 165.788C91.7407 164.279 93.0121 164.386 93.9564 164.262C96.7313 163.951 99.4318 162.945 101.842 161.322C104.252 159.7 106.304 157.507 107.835 154.919C108.285 154.218 108.726 153.299 109.922 153.149C110.673 155.988 111.198 158.903 111.49 161.862C111.767 163.873 112.678 165.687 114.07 167.002C116.254 168.914 118.236 171.077 119.984 173.456Z" fill="#293429"/>
<path d="M351.628 429.781C349.579 430.647 347.446 431.22 345.284 431.483C343.928 431.679 342.609 432.167 341.407 432.919C340.204 433.671 339.142 434.671 338.286 435.859C336.893 437.769 335.204 439.446 333.169 441.767C332.708 438.783 332.169 436.465 332.026 434.096C331.96 432.629 331.589 431.214 330.94 429.954C330.292 428.693 329.382 427.621 328.279 426.817C326.722 425.557 325.374 424.001 323.717 422.327C326.33 420.778 328.926 420.481 331.385 419.802C333.376 419.364 335.194 418.186 336.517 416.474C338.08 414.375 339.966 412.517 341.941 410.308C342.796 413.023 343.355 415.851 343.607 418.736C343.814 420.77 344.723 422.609 346.155 423.889C348.21 425.587 350.048 427.566 351.628 429.781Z" fill="#273127"/>
<path d="M196.964 157.881C196.292 157.061 195.97 156.252 196.741 155.168C197.945 153.549 199.059 151.862 200.35 150C203.78 153.004 206.476 156.921 211.311 157.686C210.931 156.239 209.943 156.028 209.151 155.604C206.701 154.168 204.56 152.208 202.851 149.837C202.42 149.417 202.143 148.842 202.068 148.209C201.993 147.575 202.124 146.923 202.439 146.362C206.5 138.797 210.293 131.071 215.52 124.238C215.926 123.774 216.371 123.351 216.849 122.976C219.26 121.693 221.446 123.332 223.782 123.305C225.07 123.394 226.374 123.132 227.575 122.542C228.776 121.952 229.837 121.053 230.66 119.927C236.506 112.064 239.507 103.001 241.331 93.4186C242.533 87.1297 241.843 81.4524 237.722 76.7849C237.523 76.5526 237.399 76.2556 237.368 75.9351C237.336 75.6147 237.398 75.2866 237.544 74.9965C241.586 72.4604 245.683 73.2032 249.597 74.5388C253.363 75.7684 256.793 77.895 259.642 80.7675C262.492 83.64 264.691 87.1879 266.084 91.1591C269.756 100.886 270.12 111.218 269.2 121.664C267.132 145.027 259.289 166.257 246.589 185.814C238.445 198.351 230.014 210.723 222.82 223.921C217.435 234.035 213.588 244.963 211.435 256.264C211.259 257.529 211.166 258.802 211.158 260.073C212.427 260.082 212.185 259.124 212.335 258.479C213.053 255.594 213.758 252.709 214.449 249.825C214.833 248.235 215.486 247.751 217.019 248.393C221.745 250.502 226.576 252.372 231.302 254.513C238.082 257.554 245.089 260.027 252.262 261.912C263.326 264.889 274.214 268.485 284.885 272.683C296.081 276.957 306.271 283.088 314.756 292.114C319.593 297.206 323.077 303.624 324.871 310.751C326.902 318.713 325.031 326.458 322.238 334.107C318.959 343.081 312.18 347.508 304.389 350.686C301.675 351.749 298.889 352.547 296.066 353.072C293.876 355.211 291.157 354.927 288.623 355.209C274.415 356.559 260.241 356.728 246.268 354.525C239.203 353.275 232.388 350.927 226.03 347.553C223.911 345.855 221.499 344.616 218.917 343.9C217.275 343.299 215.692 342.539 214.188 341.629C213.343 341.147 212.651 340.471 212.887 339.27C212.932 338.983 213.029 338.705 213.173 338.453C213.317 338.201 213.504 337.981 213.725 337.805C213.945 337.629 214.194 337.501 214.456 337.429C214.718 337.357 214.989 337.341 215.251 337.384C216.015 337.44 216.788 337.265 217.486 336.88C218.183 336.494 218.778 335.913 219.205 335.199C222.817 329.881 224.388 323.846 225.034 317.552C225.78 310.299 221.786 306.687 216.24 304.575C212.508 303.15 208.682 301.957 204.55 303.201C200.579 303.407 198.848 306.467 197.349 309.85C197.147 310.175 196.904 310.469 196.627 310.723C193.448 311.599 193.228 311.194 194.261 306.919C194.412 306.562 194.599 306.221 194.817 305.904C196.199 304.451 197.35 302.763 198.22 300.915C202.517 295.562 208.342 294.069 214.259 293.161C216.482 292.802 218.727 292.611 220.949 292.113C230.615 291.983 240.192 293.247 249.428 295.871C253.55 297.018 257.448 297.318 261.472 295.303C271.386 291.739 281.346 290.678 289.668 292.413C285.38 291.403 275.384 291.22 268.083 293.342C265.467 294.286 262.789 294.978 260.082 295.411C256.216 294.045 254.967 291.54 256.013 287.322C256.373 286.224 256.797 285.147 257.281 284.101C257.697 282.992 258.63 282.275 259.114 281.24C259.392 280.802 258.566 280.959 259.014 281.105C259.123 281.135 259.133 281.277 258.989 281.441C257.339 283.258 256.727 285.739 255.288 287.711C251.768 292.593 247.336 294.774 241.806 293.976C237.763 293.388 233.594 293.709 229.779 291.703C226.145 289.823 224.676 286.805 225.05 282.541C225.241 280.447 225.209 278.452 225.308 276.408C225.158 279.447 225.465 282.56 224.157 285.47C222.848 288.38 221.273 290.915 218.616 292.516C215.026 293.288 211.342 293.272 207.808 294.619C204.056 296.044 200.46 297.716 197.844 301.25C197.203 302.145 196.347 302.798 195.37 302.333C194.23 301.79 194.767 300.598 195.01 299.656C195.738 296.864 196.556 294.097 197.33 291.317C195.435 297.563 194.244 304.027 191.683 310.067C191.043 311.725 190.306 313.341 189.476 314.906C185.401 323.792 180.463 332.216 174.749 340.028C168.561 348.59 160.803 355.202 152.725 361.521C143.245 368.942 132.705 373.352 121.73 376.761C116.858 378.272 111.859 378.309 107.842 379.242C115.339 378.377 122.764 376.627 129.985 374.023C141.551 369.647 152.323 362.904 161.696 354.173C162.776 353.175 163.725 351.872 165.188 351.431C168.465 351.151 169.105 351.769 168.061 355.171C166.136 361.667 164.584 368.159 165.636 374.892C165.834 376.149 165.912 377.416 166.242 378.657C167.261 382.837 167.058 383.918 163.468 386.376C155.147 392.058 152.46 400.489 152.299 410.245C152.188 417.148 154.152 423.556 156.255 429.852C156.859 431.42 157.052 433.157 156.814 434.878C156.576 436.599 155.916 438.241 154.904 439.631C151.418 444.757 149.758 451.014 150.245 457.185C150.691 462.758 151.398 468.289 152.365 473.758C152.571 475.016 153.111 476.165 153.92 477.067C155.925 479.5 157.607 482.228 158.922 485.179C159.33 486.033 160.167 486.856 159.423 487.948C158.679 489.04 157.73 488.83 156.793 488.752C151.876 488.318 147.005 487.574 142.108 486.996C130.055 485.71 118.136 483.531 106.435 480.474C92.5291 476.507 79.2818 470.47 67.0616 462.532C57.4117 456.376 47.2645 451.129 36.7257 446.847C29.0064 443.754 20.7914 441.952 12.558 440.391C-1.38085 437.748 -15.5906 438.153 -29.68 437.282C-39.0388 436.707 -39.0675 437.021 -40.2862 427.161C-41.9508 413.698 -40.9475 400.14 -39.7412 386.521C-38.2441 369.775 -35.4204 353.131 -31.3015 336.774C-25.6774 314.519 -18.0702 293.223 -7.49558 272.935C-4.38883 266.972 -2.81119 266.295 3.15727 267.311C18.723 269.838 34.4013 271.398 50.2959 270.528C56.1576 270.205 62.1176 269.459 67.6276 266.462C79.5975 262.117 89.5171 253.959 99.2249 245.367C108.532 237.125 116.904 227.743 125.807 219.056C134.422 210.697 143.931 203.506 154.105 197.655C169.636 188.633 182.367 176.137 192.987 160.961C193.69 159.944 194.122 158.604 195.492 158.32C198.144 159.057 199.762 161.751 202.224 162.501C200.175 161.566 198.085 160.394 196.964 157.881Z" fill="#6C382C"/>
<path d="M295.654 354.482C304.605 359.473 311.374 370.448 308.814 383.906C308.359 386.956 307.708 389.978 306.865 392.95C303.096 404.493 295.963 411.847 284.673 413.923C281.985 414.41 279.258 414.682 276.533 415.051C271.711 417.263 266.908 415.68 262.214 415.286C247.704 414.03 233.409 411.236 219.534 406.944C214.228 405.307 209.082 403.478 204.475 400.275C196.904 395.034 188.854 390.562 181.909 384.336C181.551 383.689 181.142 383.049 180.725 382.471C180.025 381.472 179.751 380.418 180.515 379.289C181.279 378.16 182.364 378.269 183.447 378.42C185.176 378.675 186.777 379.743 188.631 379.057C191.423 377.107 192.946 374.095 194.186 370.941C196.335 365.431 198.199 359.82 198.65 353.838C198.753 352.554 198.538 351.281 198.027 350.149C197.516 349.018 196.728 348.07 195.744 347.404C192.712 345.047 189.445 343.215 185.456 343.383C184.893 343.226 184.33 343.069 183.76 342.975C183.285 342.965 182.833 342.791 182.47 342.477C182.106 342.163 181.851 341.727 181.74 341.233C181.493 339.908 182.255 339.068 183.18 338.413C183.958 337.793 184.8 337.281 185.688 336.888C186.084 336.755 186.492 336.684 186.901 336.678C194.824 335.662 201.977 338.221 209.163 340.875C216.634 343.63 223.915 346.89 231.246 349.971C241.49 354.291 252.13 355.781 263.128 356.232C264.191 356.23 265.257 356.168 266.32 356.046C273.065 355.465 279.814 355.753 286.567 355.142C289.603 354.849 292.616 353.83 295.654 354.482Z" fill="#6C382C"/>
<path d="M252.258 465.491C245.738 465.824 239.713 463.708 233.583 462.078C220.489 458.659 207.76 453.961 195.55 448.04C188.502 444.461 181.756 440.265 175.376 435.493C174.433 434.802 173.672 433.774 172.42 433.598L171.956 433.544C171.476 433.488 171.024 433.299 170.641 432.995C170.386 432.785 170.155 432.545 169.951 432.277L169.356 431.425C167.454 429.822 165.674 428.028 163.704 426.493C162.438 425.604 161.35 424.457 160.498 423.11C159.901 422.053 159.167 420.861 160.141 419.608C161.116 418.355 162.245 418.798 163.362 419.355C165.254 420.29 167.005 421.593 169.169 421.83C171.581 422.093 173.986 422.096 175.354 419.256C178.747 413.846 182.144 408.457 182.453 401.684C182.535 399.633 182.301 397.598 181.761 395.663C179.86 392.579 176.806 391.354 173.782 390.094C172.379 389.51 170.549 389.194 170.987 386.987C171.425 384.779 173.202 384.898 174.956 384.784C179.543 384.504 183.205 387.133 187.303 388.402C193.351 392.296 199.133 396.62 205.243 400.435C213.58 405.631 222.885 407.876 232.198 410.231C241.732 412.637 251.504 413.766 261.233 414.874C264.722 415.275 268.222 415.53 271.776 415.66C273.35 415.733 274.821 415.895 275.96 417.146C277.902 419.57 279.278 422.474 279.981 425.632C280.684 428.79 280.695 432.117 280.013 435.352C279.141 440.568 277.649 445.67 275.575 450.531C273.709 454.513 270.767 457.823 267.159 459.997C262.56 462.941 257.479 464.814 252.258 465.491Z" fill="#6C382C"/>
<path d="M67.6936 266.469C66.6716 268.139 65.1043 268.744 63.4423 269.162C57.4136 270.776 51.2427 271.449 45.1208 271.16C39.4993 270.831 33.8058 271.147 28.145 271.064C25.082 271.052 22.0405 270.73 19.0598 270.104C14.227 269.049 9.24494 269.059 4.41646 268.059C3.75361 267.874 3.00207 268.009 2.31705 267.904C-1.42861 267.302 -4.66379 268.839 -6.57483 272.719C-9.80326 279.26 -13.5468 285.507 -15.9945 292.512C-17.379 296.799 -19.1637 300.939 -21.3199 304.868C-21.5024 305.206 -21.6426 305.568 -21.7365 305.943C-23.9291 314.844 -28.032 323.192 -29.6986 332.207C-30.9164 338.835 -32.9388 345.26 -34.4487 351.743C-35.1532 354.767 -35.3577 357.823 -35.7941 360.868C-36.6849 366.954 -37.693 373.039 -38.433 379.145C-39.2632 385.25 -39.7191 391.388 -39.7978 397.519C-39.7921 401.331 -40.0865 405.167 -40.3063 408.981C-40.6832 415.822 -40.7378 422.559 -39.1425 429.132C-39.1185 429.257 -39.0436 429.374 -39.0468 429.491C-39.0287 431.536 -39.231 433.669 -37.6811 435.131C-36.1311 436.593 -34.1126 436.124 -32.2667 436.24C-24.3957 436.712 -16.5351 437.257 -8.64698 437.562C-1.09921 437.832 6.39892 438.652 13.7967 440.017C19.4776 441.082 24.9714 442.75 30.5906 444.002C36.2098 445.254 41.2087 448.384 46.5477 450.502C58.7221 455.338 69.0987 463.754 80.7739 469.61C84.8723 471.652 89.0873 473.415 93.2767 475.235C99.7913 478.121 106.732 479.44 113.471 481.519C118.075 482.939 122.882 483.418 127.651 484.069C130.321 484.425 132.943 485.058 135.628 485.429C137.824 485.728 140.021 486.2 142.236 486.29C147.301 486.508 152.238 487.613 157.272 488.048C159.18 488.224 159.515 487.652 158.744 485.924C157.414 482.967 155.899 480.044 153.275 478.294C152.442 477.841 151.787 477.089 151.417 476.161C151.047 475.232 150.983 474.18 151.236 473.175C151.51 471.521 151.37 469.839 150.829 468.307C149.51 463.324 148.98 458.097 149.262 452.842C149.452 447.764 151.385 443.278 153.955 439.173C154.915 437.843 155.534 436.271 155.745 434.627C155.956 432.983 155.751 431.33 155.151 429.845C152.851 423.237 150.911 416.428 151.237 409.101C151.566 401.485 153.456 394.443 158.81 388.666C160.488 386.856 162.618 385.914 164.366 384.275C165.91 382.837 166.044 381.758 165.535 379.684C163.868 373.99 163.752 367.824 165.2 361.9C165.824 359.658 166.445 357.426 167.068 355.185C168.033 351.717 167.988 351.705 164.729 352.516C164.942 349.923 166.696 348.962 168.634 348.149C170.926 348.529 170.861 350.239 170.455 352.155C169.727 355.967 167.626 359.333 167.121 363.261C166.377 368.958 166.193 374.542 167.902 379.967C168.217 380.925 168.308 381.963 168.166 382.992C167.841 384.866 166.532 385.843 165.134 386.646C156.124 391.783 153.594 400.418 153.503 410.311C153.506 413.765 153.909 417.184 154.702 420.488C155.639 424.718 157.034 428.791 158.858 432.626C159.514 433.637 159.858 434.856 159.842 436.12C159.648 437.005 159.159 437.795 158.472 438.337C152.058 444.163 150.841 451.704 151.634 459.857C151.924 462.365 152.019 464.905 151.919 467.451C152.234 470.07 153.024 472.572 154.242 474.817C156.529 479.708 159.213 484.356 162.264 488.706C161.848 490.201 160.867 489.788 159.957 489.685L141.695 487.6C129.5 486.262 117.45 483.985 105.633 480.788C92.0133 476.999 79.428 470.932 67.3831 463.555C58.0354 457.723 48.2986 452.612 38.241 448.256C30.0691 444.91 21.5596 442.503 12.8474 441.073C-2.612 438.339 -18.4252 438.706 -34.0759 437.68C-40.9696 437.211 -39.5996 438.054 -40.4388 431.541C-42.1553 418.933 -41.6787 406.249 -40.9055 393.518C-40.0149 378.501 -37.9866 363.53 -34.8409 348.757C-31.8679 334.858 -27.9825 321.162 -23.2148 307.775C-18.6323 294.749 -13.0464 282.117 -6.51823 270.019C-3.8609 265.144 -3.87552 265.161 1.12949 266.124C15.692 268.953 30.5338 270.279 45.4592 270.084C52.9772 269.997 60.3397 268.288 67.6936 266.469Z" fill="#6C382C"/>
<path d="M217.381 121.697C218.215 117.506 219.978 113.627 221.278 109.588C223.29 103.342 225.005 97.0025 227.371 90.8873C228.767 87.1497 230.43 83.5239 232.344 80.0442C233.283 78.3945 234.102 76.1534 236.563 76.4839C239.991 77.8776 241.121 81.1979 241.965 84.5994C242.809 88.0008 242.342 91.5098 241.626 94.8209C239.801 103.244 237.145 111.383 232.212 118.566C228.326 124.13 222.713 125.423 217.381 121.697Z" fill="#6C382C"/>
<path d="M275.949 417.153C272.162 416.1 268.206 416.535 264.344 416.072C254.64 414.907 244.879 414.092 235.357 411.818C232.387 411.1 229.347 410.705 226.373 409.931C214.728 406.907 203.8 401.56 194.135 394.156C191.86 392.45 189.713 390.5 187.105 389.324C184.266 387.678 181.231 386.433 178.069 385.619C178.187 384.213 178.187 384.213 181.361 382.648C181.916 382.728 182.482 382.767 182.65 383.501C191.76 390.807 201.423 397.296 211.549 402.909C212.056 403.212 212.586 403.471 213.134 403.682C224.676 407.451 236.335 410.727 248.406 412.421C257.739 413.719 267.099 414.713 276.546 415.076C276.289 415.344 276.099 415.677 275.994 416.041C275.889 416.406 275.873 416.79 275.949 417.153Z" fill="#170805"/>
<path d="M295.654 354.482C291.723 355.498 287.719 356.041 283.719 356.099C278.191 356.418 272.66 356.501 267.129 356.69C255.12 356.956 243.503 355.603 232.27 351.039C225.06 348.121 217.923 344.976 210.653 342.202C207.452 340.979 203.846 340.437 201.07 337.969C200.892 337.539 200.853 337.05 200.959 336.579C201.066 336.107 201.311 335.68 201.658 335.363C205.195 334.78 208.13 336.712 210.612 338.552C215.333 342.012 220.704 343.699 225.939 345.843C226.247 345.993 226.492 346.259 226.63 346.593C233.597 349.68 240.659 352.428 248.336 353.491C261.524 355.17 274.904 355.338 288.258 353.991C290.847 353.756 293.444 353.352 296.029 353.029C295.932 353.518 295.796 354.006 295.654 354.482Z" fill="#130607"/>
<path d="M217.381 121.697C219.617 122.384 221.94 122.745 224.292 122.771C225.589 122.769 226.88 122.413 228.047 121.736C229.213 121.059 230.217 120.082 230.966 118.896C233.819 114.839 236.123 110.375 237.801 105.651C238.998 102.119 239.999 98.5226 240.797 94.8802C242.42 87.8174 241.602 81.4389 236.523 76.4514C236.571 76.1346 236.703 75.8354 236.901 75.5897C237.1 75.3441 237.357 75.1624 237.642 75.0666C238.979 76.6123 240.194 78.2785 241.274 80.049C242.568 82.3015 243.192 84.9532 243.069 87.6652C242.403 99.3949 238.512 110.808 231.898 120.432C229.213 124.387 225.666 125.075 221.716 124.363C220.104 124.075 218.548 123.481 216.968 123.041C217.099 122.606 217.235 122.15 217.381 121.697Z" fill="#130607"/>
<path d="M196.963 157.881C199.457 159.466 201.501 161.72 204.398 162.558C204.898 162.697 205.487 163.216 205.187 163.98C204.886 164.744 204.169 164.577 203.656 164.348C200.502 163.068 197.692 161.016 195.435 158.347L196.963 157.881Z" fill="#170805"/>
<path d="M165.334 84.7819C165.235 84.9653 165.152 85.1579 165.086 85.357L162.255 84.494C162.769 84.311 163.308 84.2422 163.837 84.2917C164.367 84.3412 164.876 84.508 165.334 84.7819Z" fill="#225A26"/>
<path d="M127.741 600.703C126.688 598.617 125.509 596.594 124.587 594.458C124.209 593.342 123.522 592.391 122.616 591.731C121.71 591.071 120.628 590.733 119.512 590.76C114.445 590.51 109.412 589.893 104.384 589.332C102.584 589.121 100.29 589.524 99.5047 587.212C98.5939 584.543 100.957 583.397 102.344 581.894C106.105 577.799 109.851 573.688 113.72 569.698C114.505 568.975 115.1 568.041 115.439 566.998C115.777 565.955 115.846 564.845 115.637 563.79C115.551 563.037 115.511 562.277 115.517 561.513C115.541 557.913 114.542 554.469 114.65 550.881C114.665 550.123 114.452 549.377 114.494 548.594C114.787 543.04 116.321 542.028 120.546 544.739C123.743 546.788 127.255 548.194 130.407 550.295C131.737 551.31 133.36 551.808 135.026 551.711C136.691 551.614 138.308 550.927 139.625 549.757C143.266 546.905 147.293 544.773 151.125 542.286C152.152 541.616 153.21 540.805 154.429 541.627C155.648 542.449 155.367 543.917 155.347 545.361C155.179 551.132 153.914 556.77 153.276 562.507C153.102 563.443 153.165 564.4 153.457 565.275C153.75 566.151 154.261 566.912 154.936 567.478C158.01 570.319 160.768 573.523 163.842 576.396C164.932 577.331 165.863 578.46 166.6 579.74C168.103 582.53 167.649 583.81 164.625 584.729C162.201 585.461 159.692 586.32 157.256 586.179C153.616 585.971 150.587 587.962 147.296 589.033C146.849 589.203 146.444 589.49 146.118 589.869C145.792 590.247 145.556 590.704 145.432 591.198C142.777 597.576 139.751 603.776 137.208 610.207C136.118 612.931 134.261 613.134 132.804 610.635C130.93 607.387 129.478 603.956 127.741 600.703Z" fill="#F2A013"/>
<path d="M127.741 600.703C129.756 602.219 130.233 604.864 131.464 606.945C132.03 607.897 132.414 608.981 132.998 609.905C134.407 612.154 135.642 612.004 136.696 609.41C138.822 604.162 141.827 599.266 143.524 593.941C144.833 589.797 147.205 588.095 150.362 586.451C152.272 585.458 154.026 584.743 156.157 585.207C159.11 585.846 162.101 584.94 164.932 583.977C166.86 583.344 167.047 582.494 166.128 580.489C165.602 579.35 164.893 578.328 164.033 577.469C160.978 574.386 158.168 571.018 154.906 568.253C151.841 565.661 152.209 562.511 152.848 558.985C153.69 554.303 154.684 549.642 154.662 544.87C154.646 541.795 153.819 541.146 151.251 542.783C147.506 545.165 143.592 547.211 140.116 550.173C137.166 552.69 133.945 553.404 130.565 551.101C127.044 548.704 122.985 547.296 119.533 544.725C118.927 544.347 118.254 544.105 117.549 544.013C116.347 543.764 116.203 544.314 115.924 545.707C114.964 550.668 115.469 555.499 115.758 560.368C115.71 560.752 115.605 561.129 115.448 561.483C114.645 556.633 113.833 551.781 113.063 546.919C112.951 546.164 112.925 545.393 112.987 544.622C113.178 542.002 114.345 541.114 116.517 542.062C118.346 542.871 120.087 543.892 121.85 544.834C125.38 546.739 128.933 548.597 132.432 550.579C133.124 551.02 133.931 551.226 134.752 551.172C135.573 551.118 136.373 550.807 137.055 550.276C141.914 547.087 146.87 544.076 151.786 540.999C152.285 540.63 152.811 540.306 153.357 540.03C155.078 539.328 156.116 539.993 156.339 541.933C156.398 542.568 156.377 543.212 156.276 543.848C155.48 550.228 154.728 556.621 153.742 562.98C153.581 563.718 153.621 564.479 153.855 565.172C154.09 565.864 154.51 566.458 155.063 566.88C158.691 570.369 162.216 573.979 165.788 577.56C166.482 578.219 167.139 578.921 167.756 579.664C169.656 582.082 168.999 584.057 166.017 584.966C165.214 585.215 164.378 585.337 163.559 585.538C158.791 586.713 154.02 587.93 149.233 589.067C148.424 589.24 147.659 589.629 147.008 590.198C146.357 590.768 145.842 591.499 145.509 592.325C142.739 597.995 140.63 603.956 138.042 609.709C137.824 610.175 137.692 610.685 137.45 611.133C135.99 613.883 133.639 614.034 132.293 611.277C130.555 607.877 129.034 604.345 127.741 600.703Z" fill="#ECDE42"/>
<path d="M133.311 615.811C133.184 616.064 133.011 616.289 132.804 616.471C132.596 616.654 132.358 616.789 132.104 616.87C131.85 616.951 131.586 616.974 131.328 616.94C131.071 616.905 130.825 616.813 130.607 616.668C129.768 616.209 129.118 615.44 128.767 614.493C126 608.799 123.227 603.133 120.446 597.493C119.972 596.524 119.784 595.688 120.624 594.708C121.853 593.279 122.624 593.322 123.51 595.2C125.469 599.341 127.404 603.497 129.268 607.698C130.283 609.955 130.956 612.461 132.876 614.069C133.129 614.247 133.312 614.519 133.391 614.838C133.471 615.157 133.443 615.501 133.311 615.811Z" fill="#C6642D"/>
<path d="M120.351 592.593C119.222 594.823 117.431 595.001 115.857 594.681C110.871 593.909 105.84 593.415 100.782 593.203C99.9607 593.123 99.1521 592.955 98.3681 592.703C97.7234 592.524 96.7406 592.54 96.7638 591.613C96.7943 590.483 97.7243 589.883 98.6541 589.53C99.0036 589.453 99.3615 589.482 99.6874 589.614C106.163 591.48 112.899 591.636 119.572 592.194C119.851 592.284 120.113 592.418 120.351 592.593Z" fill="#B46B39"/>
<path d="M112.487 568.678C111.54 567.653 111.742 566.432 111.578 565.334C110.991 561.467 110.469 557.576 109.807 553.731C109.426 551.585 109.975 550.278 112.379 549.831C113.003 554.62 113.647 559.34 114.242 564.057C114.416 564.907 114.341 565.806 114.027 566.634C113.713 567.461 113.175 568.175 112.487 568.678Z" fill="#AA5C37"/>
<path d="M164.514 587.693C159.009 589.618 153.399 591.042 147.788 592.465C147.509 591.218 148.042 590.743 148.578 590.613C153.836 589.296 159.077 588.038 164.321 586.77L164.514 587.693Z" fill="#996855"/>
<path d="M355.737 249.456C354.795 248.36 353.989 247.133 353.338 245.805C350.255 239.762 347.068 233.777 344.021 227.712C342.938 225.554 341.673 224.407 339.128 224.376C332.301 224.301 325.448 223.79 318.623 223.427C317.079 223.351 315.464 223.353 314.853 221.401C314.242 219.449 315.076 218.243 316.201 216.87C320.118 212.217 323.997 207.521 327.917 202.89C333.717 196.109 332.911 197.248 331.539 189.202C330.565 183.456 329.549 177.72 328.562 171.982C328.399 171.254 328.299 170.507 328.263 169.752C328.26 167.443 329.619 166.039 331.678 166.408C332.831 166.641 333.945 167.031 334.995 167.567C340.353 170.003 345.747 172.383 351.028 174.99C353.76 176.352 355.969 176.043 358.549 174.013C363.567 170.041 368.751 166.492 373.881 162.788C374.674 162.186 375.507 161.65 376.372 161.184C378.656 160.005 380.72 161.202 380.948 163.863C381.035 165.396 380.879 166.946 380.485 168.447C380.728 169.684 379.828 170.808 380.071 172.046C379.179 176.832 378.752 181.673 378.006 186.5C377.744 187.815 377.832 189.165 378.258 190.392C378.685 191.62 379.432 192.673 380.412 193.427C385.204 197.691 389.796 202.21 394.806 206.181C396.023 207.152 397.225 208.034 397.58 209.818C397.794 213.023 395.927 214.425 393.441 215.236C387.157 217.288 380.894 219.442 374.531 221.075C371.425 221.864 369.876 223.741 368.857 226.807C366.454 233.824 363.779 240.734 360.83 247.535C359.559 250.52 358.295 250.952 355.737 249.456Z" fill="#F2A013"/>
<path d="M398.824 212.944C399.138 213.468 399.406 214.024 399.624 214.605C400.639 217.99 399.627 220.081 396.438 221.029C390.672 222.731 385.026 225.09 379.139 226.103C374.722 226.86 372.366 229.35 370.893 233.975C368.676 240.819 365.823 247.453 363.127 254.121C361.757 257.497 359.054 257.754 357.147 254.797C356.599 253.848 356.106 252.861 355.67 251.842C362.466 248.301 362.779 240.531 365.685 234.48C367.282 231.167 368.398 227.613 369.818 224.197C370.137 223.358 370.646 222.612 371.296 222.029C371.946 221.447 372.716 221.049 373.531 220.872C380 219.14 386.343 216.772 392.842 215.177C394.913 214.658 396.495 212.49 398.824 212.944Z" fill="#D96B13"/>
<path d="M343.092 230.91C335.534 231.598 328.416 230.391 321.217 230.138C318.379 230.036 317.141 228.156 316.536 225.304C318.322 224.405 320.09 224.908 321.79 224.951C327.103 225.088 332.421 225.419 337.701 225.707C341.654 225.883 341.882 226.118 343.092 230.91Z" fill="#D66813"/>
<path d="M398.824 212.945C395.058 215.933 390.638 216.453 386.408 217.767C382.179 219.08 378.146 220.32 373.997 221.517C373.244 221.689 372.535 222.069 371.941 222.619C371.347 223.169 370.888 223.87 370.61 224.654C367.941 231.329 364.92 237.863 362.503 244.619C361.154 248.376 359.222 250.855 355.67 251.842C354.723 251.063 355.002 250.272 355.75 249.481C358.684 249.729 358.939 249.692 360.107 246.797C362.663 240.455 365.086 234.066 367.561 227.702C367.981 226.617 368.382 225.526 368.747 224.425C369.549 221.965 371.145 220.798 373.468 220.114C380.185 218.193 386.842 215.998 393.552 214.065C395.786 213.42 397.207 212.216 397.682 209.771C398.103 210.79 397.92 212.113 398.824 212.945Z" fill="#5D260F"/>
<path d="M380.881 191.883C380.309 191.659 379.832 191.23 379.526 190.665C379.221 190.099 379.104 189.429 379.196 188.763C380.103 181.319 381.013 173.864 381.97 165.994C383.279 167.721 384.374 169.131 383.991 171.247C382.952 177.055 382.805 182.929 381.986 188.756C381.962 189.889 381.571 190.995 380.881 191.883Z" fill="#A56837"/>
<path d="M380.091 172.008C379.927 171.424 379.878 170.803 379.949 170.185C380.02 169.567 380.209 168.966 380.503 168.419C380.665 169.004 380.713 169.625 380.642 170.243C380.571 170.86 380.383 171.461 380.091 172.008Z" fill="#A56837"/>
<path d="M8.43045 94.1593L21.0598 116.63C22.089 118.451 23.1921 120.218 24.1885 122.052C24.6846 123.042 25.4334 123.848 26.3502 124.38C27.267 124.912 28.3155 125.149 29.3771 125.063C37.9947 125.066 46.6114 125.284 55.2301 125.46C56.5157 125.428 57.7936 125.553 59.0395 125.833C59.6094 125.98 60.1392 126.254 60.5955 126.64C61.0517 127.025 61.4244 127.513 61.69 128.072C61.9556 128.632 62.1083 129.25 62.1384 129.889C62.1685 130.527 62.0754 131.172 61.8649 131.782C61.3809 133.116 60.6724 134.35 59.7768 135.42C54.0707 143.236 48.4227 151.09 42.5908 158.796C41.7727 159.759 41.2119 160.94 40.973 162.203C40.7342 163.466 40.8269 164.76 41.2407 165.934C43.8957 175.625 46.3868 185.378 49.0537 195.062C49.9188 198.212 49.5507 200.836 46.9828 202.999L45.4979 203.659C43.1364 204.196 40.7192 203.712 38.77 202.313C37.2351 201.36 35.4303 201.202 33.817 200.495C32.8638 199.825 31.8236 199.304 30.7256 198.948C26.6748 197.754 22.7357 196.202 18.9467 194.308C14.8739 192.456 11.4084 192.007 7.14701 195.544C0.0631936 201.421 -7.56609 206.48 -14.8843 212.108C-17.1557 213.838 -19.4393 214.416 -21.9117 213.105C-24.3842 211.795 -24.3581 209.204 -24.2038 206.821C-23.558 196.975 -22.6413 187.139 -21.4447 177.317C-20.9811 173.646 -21.5267 171.036 -24.2218 168.698C-30.2569 163.455 -36.0469 157.894 -42.0708 152.611C-44.3303 150.641 -47.3095 149.007 -46.569 144.833C-45.9069 141.292 -43.6568 139.675 -40.6247 138.833C-31.9373 136.441 -23.2809 133.879 -14.5758 131.599C-13.3469 131.373 -12.1893 130.763 -11.2471 129.845C-10.3048 128.928 -9.6194 127.744 -9.27621 126.439C-6.33661 117.596 -3.27668 108.883 -0.257372 100.105C0.0382599 99.2529 0.31573 98.3962 0.647679 97.5547C2.50128 92.8963 4.13264 92.2015 8.43045 94.1593Z" fill="#F2A013"/>
<path d="M44.532 204.743C44.0863 208.666 40.0436 211.663 36.6673 210.402C32.3897 208.793 28.2004 206.973 23.9715 205.26C18.4514 202.983 12.9396 200.677 7.42509 198.381C7.67018 193.983 11.2006 191.069 14.8347 192.423C24.4719 196.006 33.984 199.898 43.4962 203.789C43.931 203.976 44.2935 204.31 44.532 204.743Z" fill="#E96709"/>
<path d="M44.5313 204.743C42.6984 204.376 40.9215 203.777 39.2363 202.958C34.064 200.768 28.8376 198.702 23.6313 196.599C20.5985 195.369 17.5114 194.263 14.5293 192.886C13.1248 192.237 12.0969 192.381 11.0704 193.609C9.78355 195.14 8.05747 196.281 7.42444 198.381L6.91654 197.499C6.24299 196.86 5.82703 197.582 5.33909 197.929C0.42552 201.736 -4.50698 205.506 -9.51794 209.136C-11.8418 211.194 -14.6077 212.486 -17.0191 214.402C-18.7781 215.802 -20.3224 214.707 -21.8313 213.836C-24.3252 212.251 -25.0676 209.715 -24.7841 206.692C-23.8518 196.625 -22.9831 186.54 -21.801 176.488C-21.3776 172.892 -22.1053 170.725 -24.8677 168.593C-29.3487 165.114 -33.2186 160.774 -37.5988 157.108C-40.335 154.811 -42.8701 152.249 -45.4866 149.804C-46.535 148.825 -47.66 147.911 -47.7752 146.215C-47.2465 145.933 -46.8239 145.454 -46.5891 144.87C-46.2281 147.3 -44.7549 148.826 -43.124 150.278C-36.402 156.217 -29.8362 162.294 -23.0312 168.181C-21.9057 169.028 -21.037 170.212 -20.5234 171.597C-20.0099 172.983 -19.8719 174.515 -20.1252 176.02C-21.3212 186.122 -22.1891 196.239 -23.1743 206.356C-23.2189 206.87 -23.2349 207.386 -23.2221 207.899C-23.2047 212.338 -20.0196 214.286 -16.4903 211.833C-12.0088 208.7 -7.65202 205.382 -3.25181 202.119C1.1484 198.857 5.36606 195.758 9.58821 192.467C10.3812 191.766 11.3308 191.313 12.3271 191.16C13.3234 191.008 14.3256 191.163 15.2177 191.607C20.5124 193.885 25.9015 195.964 31.2475 198.127C31.9089 198.633 32.8093 198.562 33.4652 199.088L45.5608 203.644L44.5313 204.743Z" fill="#59210B"/>
<path d="M-9.49127 209.111C-8.27194 206.627 -5.81287 205.84 -3.88559 204.434C-0.850837 202.175 1.88189 199.35 5.39301 197.912C0.9515 202.417 -4.06783 206.194 -9.49127 209.111Z" fill="#9D6543"/>
<path d="M5.35516 197.944C5.56582 197.187 5.95961 196.545 6.71498 196.573C7.07589 196.577 6.93328 197.159 6.92353 197.511L5.35516 197.944Z" fill="#9D6543"/>
<path d="M244.126 467.362C249.234 478.787 240.547 499.461 227.412 503.353C217.743 506.213 208.664 506.113 199.78 501.967C193.919 499.263 187.96 496.736 182.638 492.904C182.319 492.756 181.979 492.662 181.63 492.624C181.481 492.463 181.289 492.357 181.078 492.32C180.634 491.563 179.553 491.896 179.158 491.066C174.663 487.669 170.244 484.143 166.056 480.315C165.271 479.792 164.645 479.039 164.245 478.137C166.293 476.967 167.687 478.354 169.003 479.461C177.941 487.268 187.892 493.649 198.575 498.422C204.808 501.229 211.264 503.552 218.384 502.784C229.166 501.619 237.085 495.943 241.688 484.954C242.497 483.036 243.001 480.998 243.178 478.928C243.89 470.356 243.129 468.942 235.579 467.034C219.877 463.063 204.918 457.055 190.311 450.061C185.139 447.728 180.34 444.586 176.061 440.729C177.648 442.341 179.96 443.381 179.276 446.508C178.003 447.571 177.06 446.6 176.141 445.893C174.005 444.195 171.743 442.684 169.377 441.371C165.187 439.132 160.755 440.432 158.347 445.011C153.518 454.209 155.856 460.259 164.447 463.98C166.196 464.725 168.163 464.477 169.836 465.426C170.075 468.294 167.989 467.95 166.56 468.025C163.843 468.192 161.68 466.506 159.373 465.338C158.463 464.881 157.782 464.026 156.382 463.433C158.182 467.723 160.811 470.719 163.137 473.964C163.961 475.116 165.587 476.127 164.306 478.132C162.153 477.007 160.983 474.814 159.485 472.991C157.986 471.168 156.741 469.383 155.381 467.555C149.821 458.849 149.543 450.634 154.565 442.36C156.357 439.434 159.023 437.621 161.578 435.648C163.556 434.867 165.537 433.83 167.514 435.41C173.544 436.132 178.503 439.197 183.19 442.992C187.876 446.786 193.193 448.737 198.393 451.182C207.045 455.154 215.925 458.575 224.989 461.426C231.292 463.491 237.864 464.976 244.126 467.362Z" fill="#6C382C"/>
<path d="M162.076 436.355C161.527 436.857 160.951 437.32 160.35 437.743C152.762 442.373 149.687 454.41 153.373 462.821C154.062 464.387 155.147 465.762 155.346 467.578C154.205 467.11 153.2 464.92 151.829 467.458C149.431 459.62 149.471 451.774 152.728 443.899C153.681 441.774 155.089 439.91 156.831 438.471C157.744 437.651 158.958 437.12 159.267 435.692C159.74 435.376 160.299 435.269 160.825 435.393C161.351 435.517 161.8 435.863 162.076 436.355Z" fill="#130607"/>
<path d="M179.166 491.036C179.566 491.047 179.952 491.167 180.288 491.386C180.625 491.606 180.899 491.917 181.087 492.29C180.678 492.32 180.277 492.216 179.934 491.992C179.592 491.769 179.324 491.436 179.166 491.036Z" fill="#422012"/>
<path d="M20.7189 488.627C21.4816 492.919 22.2244 496.367 22.5688 499.877C22.7238 501.714 23.2183 503.481 24.0232 505.074C24.8281 506.668 25.9271 508.056 27.2557 509.156C29.7216 511.334 31.9277 513.848 34.5322 516.548C30.7855 517.96 26.9447 519.007 23.0568 519.678C20.5785 520.131 18.2969 521.548 16.6469 523.659C14.0991 526.804 11.3856 529.806 8.75457 532.864C7.65589 532.558 7.92723 531.442 7.74344 530.661C7.37297 529.329 7.14671 527.948 7.06906 526.544C6.97477 519.358 3.8807 514.129 -1.26528 510.121C-2.62611 508.938 -3.90161 507.647 -5.08184 506.257C-5.21126 506.125 -5.17704 505.791 -5.26392 505.294C-1.35117 504.311 2.56406 503.178 6.49324 502.382C8.73268 501.958 10.7865 500.655 12.2553 498.725C14.8754 495.461 17.6131 492.336 20.7189 488.627Z" fill="#FEFEFC"/>
<path d="M162.076 436.355C161.168 436.103 160.094 436.448 159.322 435.707C156.518 431.331 155.005 426.327 153.882 421.151C153.585 419.126 154.305 418.049 156.287 418.063C156.798 418.218 157.255 418.523 157.607 418.946C158.161 419.817 158.837 420.588 159.612 421.232C162.124 425.001 165.797 427.375 168.99 430.282C169.575 430.868 170.114 431.506 170.602 432.19L170.656 432.205C170.962 433.074 172.078 432.686 172.419 433.5L172.464 433.513C172.117 434.758 171.538 435.542 170.198 435.223C169.29 434.97 168.404 434.638 167.531 435.35L162.076 436.355Z" fill="#100503"/>
<path d="M92.8007 165.636C99.9852 164.919 105.235 161.979 108.854 155.16C109.613 157.346 110.058 159.659 110.173 162.021C110.406 164.451 111.498 166.645 113.222 168.151C114.627 169.433 115.929 170.836 117.404 172.32C115.682 173.655 113.859 173.846 112.152 174.144C110.856 174.336 109.596 174.809 108.449 175.534C107.303 176.259 106.293 177.222 105.48 178.363C104.419 179.786 103.159 181.045 101.668 182.745C101.171 180.682 100.774 178.586 100.48 176.468C100.271 174.171 99.2539 172.091 97.6368 170.653C96.191 169.274 94.8477 167.773 92.8007 165.636Z" fill="#FCFDFD"/>
<path d="M341.309 413.138C341.699 414.606 341.96 416.116 342.089 417.649C341.997 421.498 343.919 423.976 346.401 426.202C347.332 427.04 348.524 427.715 348.978 429.495C342.728 429.559 337.976 432.714 334.268 438.52C333.724 431.928 332.016 426.289 325.79 423.28C329.172 421.355 332.451 421.913 334.84 419.969C337.23 418.025 339.002 415.631 341.309 413.138Z" fill="#FDFEFC"/>
<path d="M218.414 291.762C220.815 289.145 222.948 286.368 224.027 282.771C225.029 279.379 224.621 275.992 224.467 272.256C226.011 273.212 225.801 274.495 225.815 275.497C225.951 278.176 225.901 280.888 225.954 283.544C225.88 285.084 226.25 286.588 227.013 287.847C227.776 289.106 228.894 290.057 230.212 290.568C235.295 292.938 240.651 293.096 246.075 292.834C247.326 292.732 248.556 292.355 249.69 291.725C250.825 291.096 251.839 290.227 252.67 289.173C254.172 287.465 255.546 285.632 256.778 283.692C258.043 281.397 259.638 279.324 261.498 277.556C261.974 278.762 261.081 279.265 260.666 279.912C259.07 282.057 257.838 284.483 257.032 287.069C255.951 291.374 256.451 292.672 260.263 294.409C261.147 294.537 262.409 294.147 262.1 295.929C260.796 296.64 259.485 297.273 258.206 298.002C257.562 298.359 256.863 298.571 256.152 298.624C255.442 298.678 254.736 298.572 254.079 298.314C243.135 294.754 231.8 293.404 220.296 293.155C219.291 293.219 218.078 293.569 218.414 291.762Z" fill="#100503"/>
<path d="M201.828 335.593C201.626 336.32 201.421 337.057 201.264 337.797C200.947 338.047 200.566 338.176 200.184 338.162C198.378 337.971 196.732 336.998 194.869 337.081C191.857 337.003 188.835 337.101 185.817 337.375C183.739 338.566 181.749 339.941 179.87 341.485C178.775 342.254 176.487 344.43 176.301 340.492C177.891 336.641 181.427 336.132 184.381 334.625C185.947 333.987 185.885 332.735 185.672 331.388C185.35 327.799 185.275 324.236 186.509 320.714C187.436 318.825 187.209 316.615 188.376 314.847C188.963 313.087 189.729 311.395 190.66 309.804C191.511 309.278 191.169 307.165 192.765 307.759C194.13 308.268 193.48 309.654 193.406 310.728C193.206 311.987 193.098 313.257 193.084 314.525C192.228 322.627 195.105 328.849 200.654 333.731C200.96 333.932 201.222 334.201 201.424 334.521C201.626 334.842 201.763 335.206 201.828 335.593Z" fill="#130607"/>
<path d="M188.437 314.874C188.101 316.928 187.761 318.98 187.419 321.032C184.874 328.912 179.977 335.192 175.346 341.676C173.055 344.108 171.507 347.424 168.247 348.696C167.032 349.936 165.658 350.971 164.717 352.523C158.689 358.017 152.51 363.276 145.577 367.379C133.92 374.383 121.132 378.672 108.072 379.96C107.694 380.076 107.299 380.082 106.927 379.979C106.556 379.875 106.221 379.666 105.957 379.372C106.675 377.983 108.005 378.374 108.991 378.241C115.257 377.478 121.468 376.049 127.532 373.974C141.992 368.926 155.255 360.168 166.158 348.469C175.005 339.083 182.26 328.097 187.56 316.058C187.81 315.63 188.104 315.232 188.437 314.874Z" fill="#170805"/>
<path d="M203.923 302.287C211.47 300.092 217.538 303.316 223.292 307.6C224.493 308.611 225.285 310.085 225.516 311.74C226.36 315.317 226.314 319.115 225.385 322.76C224.137 327.243 223.053 331.772 220.153 335.517C217.744 339.076 214.307 338.281 211.39 337.759C205.691 336.721 200.485 334.371 196.79 329.296C192.717 323.719 192.6 315.453 196.586 309.917C198.098 306.345 200.163 303.355 203.923 302.287Z" fill="#100503"/>
<path d="M196.598 309.91C195.597 313.507 194.438 317.006 194.941 320.86C195.216 323.397 196.024 325.806 197.305 327.904C198.586 330.001 200.306 331.731 202.335 332.964C206.181 335.419 210.499 336.566 214.887 337.53C217.064 338.006 218.461 336.431 220.138 335.502C219.819 336.496 219.186 337.349 218.354 337.906C217.521 338.463 216.546 338.686 215.606 338.535C214.814 338.497 213.79 338.029 213.546 339.293C213.302 340.556 214.485 340.488 215.156 340.889C218.197 342.723 221.668 343.506 224.8 345.118C225.527 345.492 226.372 345.62 226.642 346.618C218.664 343.747 210.901 340.281 203.407 336.247C202.896 335.976 202.333 335.819 201.796 335.605C196.21 331.7 192.165 326.689 191.951 318.911C191.922 317.647 192.003 316.371 192.033 315.102C192.108 312.439 193.441 310.041 193.716 307.401C193.731 307.211 193.787 307.025 193.878 306.857C193.969 306.689 194.093 306.544 194.24 306.433C194.388 306.322 194.556 306.248 194.731 306.216C194.905 306.184 195.083 306.196 195.249 306.25C195.019 307.077 194.789 307.904 194.65 308.756C194.296 310.729 194.314 310.734 196.598 309.91Z" fill="#6C382C"/>
<path d="M195.281 306.237C193.065 308.755 193.272 312.194 192.065 315.09C191.207 312.865 193.203 310.79 192.744 308.57C191.637 308.261 191.548 309.74 190.721 309.831C193.233 303.016 195.175 296.107 197.243 289.2C197.37 288.742 197.566 288.216 198.718 288.258C198.068 292.811 196.382 297.043 195.262 302.121C198.377 299.295 200.972 296.893 204.156 295.331C208.745 293.076 213.539 292.338 218.383 291.7C218.674 292.693 219.558 292.821 220.291 293.175C218.334 293.951 216.295 293.684 214.303 294.021C208.601 295.001 202.943 296.174 198.829 301.396C197.601 302.997 196.477 304.681 195.267 306.287L195.281 306.237Z" fill="#170805"/>
<path d="M262.104 295.951C261.84 294.966 260.912 294.89 260.264 294.441C264.696 293.42 269.108 292.189 273.574 291.435C280.191 290.31 286.886 290.625 293.263 292.361C294.099 292.416 294.866 292.822 295.404 293.493C294.761 294.925 293.748 294.171 292.973 293.966C288.951 293.069 284.84 292.597 280.696 292.558C274.324 292.288 268.198 293.879 262.104 295.951Z" fill="#100503"/>
<path d="M62.4215 318.192C56.7806 311.814 61.0218 287.145 67.023 282.664C66.2051 286.87 63.9668 290.133 63.0628 293.875C62.0068 297.847 61.399 301.921 61.2531 306.006C61.3555 310.109 61.7461 314.183 62.4215 318.192Z" fill="#130607"/>
<path d="M43.0188 400.947C42.1474 404.923 39.8768 408.091 39.0174 411.813C38.1048 415.436 37.41 419.108 36.9374 422.806C36.472 426.659 37.722 430.324 37.5767 434.363C35.5943 432.029 34.6636 424.439 35.5587 419.041C37.0087 410.278 39.9729 402.858 43.0188 400.947Z" fill="#170805"/>
<path d="M313.545 337.185C313.485 333.637 315.465 331.514 315.959 328.893C316.528 326.112 316.727 323.275 316.552 320.47C316.356 317.904 315.743 315.393 315.222 312.275C319.757 317.809 318.885 330.298 313.545 337.185Z" fill="#130607"/>
<path d="M250.247 319.124C252.795 324.03 250.84 334.822 246.564 339.923C246.542 336.063 248.357 333.058 249.132 329.849C249.907 326.64 249.822 323.042 250.247 319.124Z" fill="#100503"/>
<path d="M228.182 176.023C234.552 179.041 240.646 181.294 247.673 181.177C247.444 181.814 247.006 182.346 246.445 182.665C245.885 182.985 245.244 183.069 244.65 182.902C238.95 182.046 233.327 180.911 228.491 177.408C228.353 177.305 228.381 176.959 228.182 176.023Z" fill="#170805"/>
<path d="M203.923 302.286C200.734 304.008 198.58 306.897 196.58 309.905C197.92 305.017 200.051 302.809 203.923 302.286Z" fill="#6C382C"/>
<path d="M195.268 306.287C195.516 305.26 195.962 304.292 196.577 303.448C197.191 302.604 197.96 301.904 198.83 301.396C198.602 302.431 198.164 303.409 197.547 304.256C196.93 305.103 196.151 305.798 195.268 306.287Z" fill="#6C382C"/>
<path d="M168.239 348.726L174.428 341.356C175.355 341.539 175.925 339.701 177.004 340.677C177.072 341.168 176.735 342.17 177.743 341.537C179.178 340.67 180.533 339.63 181.981 338.788C183.166 338.044 184.406 337.101 185.862 337.355C185.213 338.527 184.006 338.857 183.071 339.617C182.578 340.016 182.162 340.491 182.38 341.185C182.464 341.411 182.61 341.601 182.799 341.73C182.988 341.859 183.212 341.922 183.44 341.91C184.116 341.979 184.784 342.144 185.454 342.266C185.29 343.347 184.493 343.716 183.694 343.987C177.49 346.104 175.029 351.678 173.656 357.597C171.932 365.061 174.43 371.027 180.207 375.157C182.163 376.695 184.381 377.818 186.75 378.469C187.749 378.747 188.83 378.94 189.35 380.094C188.524 381.024 187.602 380.681 186.712 380.434C185.477 380.09 184.242 379.747 183.008 379.403C182.345 379.219 181.592 378.934 181.057 379.698C180.522 380.461 181.039 381.099 181.494 381.644C181.949 382.189 182.525 382.65 182.608 383.478L181.204 383.002C180.925 383.126 180.626 383.176 180.332 383.146C180.039 383.117 179.759 383.01 179.519 382.834C169.865 376.219 164.964 361.835 171.114 350.632C170.5 351.148 170.677 352.657 169.355 352.45C169.576 350.988 170.535 349.193 168.239 348.726Z" fill="#6C382C"/>
<path d="M189.378 380.102C186.372 379.805 183.493 378.803 180.937 377.166C178.382 375.529 176.211 373.294 174.574 370.616C171.438 365.782 171.636 360.395 173.276 354.851C173.721 353.501 174.281 352.194 174.949 350.947C177.229 346.268 180.632 343.178 185.487 342.253C188.906 342.131 191.894 343.381 194.736 345.159C198.611 347.579 200.628 351.092 199.65 356.187C198.362 362.892 196.629 369.474 193.201 375.465C192.208 377.253 190.908 378.828 189.378 380.102Z" fill="#100503"/>
<path d="M200.605 337.635C200.817 337.716 201.036 337.777 201.259 337.817C209.072 341.064 216.871 344.361 224.707 347.561C229.052 349.35 233.384 351.22 237.848 352.687C246.278 355.473 255.095 356.166 263.961 356.474C265.017 356.511 266.072 356.622 267.126 356.7C266.481 357.508 265.592 357.433 264.8 357.395C260.575 357.218 256.349 357.04 252.144 356.718C246.763 356.142 241.484 354.936 236.396 353.121C232.742 351.943 229.216 350.308 225.649 348.854C220.77 346.874 215.883 344.924 211.021 342.884C207.683 341.45 204.267 340.22 200.786 339.199C196.64 337.894 192.277 337.407 187.901 337.762C187.191 337.851 186.48 337.735 185.842 337.425C188.858 336.117 191.911 336.709 194.955 336.74C196.947 336.403 198.602 338.012 200.605 337.635Z" fill="#6C382C"/>
<path d="M299 376.141C300.738 381.112 300.121 386.178 298.699 391.29C297.537 395.464 295.943 399.368 292.538 402.146C293.777 397.692 296.549 393.987 297.637 389.481C298.724 384.974 298.54 380.608 299 376.141Z" fill="#130607"/>
<path d="M214.467 390.839C215.388 386.157 217.878 382.867 219.04 379.079C220.234 375.124 221.037 371.06 221.433 366.96C223.99 371.203 219.646 385.796 214.467 390.839Z" fill="#170805"/>
<path d="M168.756 430.947C165.39 427.96 161.784 425.271 158.851 421.75C158.326 421.035 157.68 420.437 157.173 419.695L156.643 418.785C152.892 415.391 152.981 410.531 153.397 405.838C154.416 395.387 159.267 386.882 170.636 383.712C173.121 383.641 175.911 382.334 177.765 385.094C179.645 385.617 181.502 386.219 183.366 386.834C184.82 387.215 186.111 388.076 187.062 389.301C185.124 388.901 183.259 388.209 181.52 387.244C178.926 385.739 175.862 386.132 172.995 385.785C172.817 385.77 172.637 385.796 172.466 385.861C172.294 385.925 172.136 386.028 172 386.161C171.865 386.294 171.755 386.455 171.678 386.634C171.601 386.812 171.559 387.005 171.555 387.198C171.537 387.522 171.634 387.836 171.825 388.074C172.017 388.313 172.289 388.46 172.586 388.484C175.412 389.201 178.062 390.495 180.398 392.299C181.527 393.129 182.818 393.831 182.857 395.624C179.856 395.863 178.064 393.303 175.879 391.944C169.197 387.831 161.86 391.769 158.719 399.579C154.811 409.334 159.47 418.927 168.838 420.943C171.377 421.489 173.612 419.502 176.075 419.897C174.583 423.433 171.785 423.223 169.06 422.959C166.652 422.718 164.615 421.357 162.614 420.178C162.001 419.814 161.361 419.164 160.754 419.832C159.905 420.669 160.695 421.522 161.083 422.167C163.048 425.194 166.18 426.806 168.661 429.246C169.434 429.987 170.469 430.414 170.638 431.706C170.283 431.765 169.924 431.726 169.595 431.593C169.266 431.461 168.977 431.238 168.756 430.947Z" fill="#6C382C"/>
<path d="M176.121 419.91C172.188 423.217 168.434 422.398 164.566 420.162C159.1 417.021 155.718 412.548 156.357 405.362C156.693 400.562 158.758 396.007 162.105 392.684C163.843 390.928 166.006 389.756 168.31 389.322C170.615 388.889 172.953 389.214 175.019 390.255C177.894 391.618 180.548 393.441 182.895 395.667C184.274 400.344 183.475 404.941 181.724 409.51C180.305 413.222 178.419 416.722 176.121 419.91Z" fill="#170805"/>
<path d="M270.105 432.145C271.204 432.869 270.754 434.032 270.633 434.922C269.823 441.352 268.236 447.512 264.109 452.676C263.743 453.182 263.32 453.638 262.851 454.033C262.697 454.121 262.526 454.163 262.356 454.155C262.186 454.148 262.023 454.09 261.885 453.989C261.784 453.85 261.718 453.684 261.692 453.507C261.667 453.329 261.682 453.145 261.738 452.972C262.025 452.402 262.385 451.876 262.807 451.412C266.797 446.779 268.29 441.129 269.046 435.21C269.198 434.136 269.029 432.951 270.105 432.145Z" fill="#130607"/>
<path d="M196.35 432.859C196.038 432.524 195.858 432.07 195.845 431.584C195.832 431.098 195.986 430.616 196.279 430.23C198.642 426.132 200.889 421.992 201.512 417.152C201.581 416.623 201.808 416.086 202.371 416.103C203.183 416.103 203.235 416.901 203.14 417.487C202.217 423.128 199.865 428.453 196.35 432.859Z" fill="#100503"/>
<path d="M168.756 430.947L170.683 431.719C170.669 431.895 170.62 432.068 170.542 432.227C170.15 432.246 169.767 432.133 169.447 431.904C169.127 431.675 168.886 431.34 168.756 430.947Z" fill="#6C382C"/>
<path d="M172.38 433.533C171.984 433.576 171.592 433.471 171.271 433.235C170.95 432.999 170.719 432.647 170.618 432.237C171.005 432.236 171.378 432.358 171.692 432.588C172.005 432.819 172.245 433.147 172.38 433.533Z" fill="#6C382C"/>
<path d="M177.774 385.096C175.395 384.435 172.979 384.75 170.523 384.754C169.205 384.849 167.778 385.16 167.504 383.12C165.229 376.791 164.663 369.816 165.869 362.977C166.445 359.219 168.426 356.035 169.364 352.453C170.943 351.175 170.727 348.538 172.797 347.429C171.644 351.08 169.93 354.392 169.653 358.201C169.1 365.744 170.678 372.345 175.609 377.581C177.398 379.485 179.345 381.207 181.213 383.004C181.031 385.627 178.954 384.373 177.774 385.096Z" fill="#170805"/>
<path d="M167.56 383.134C168.304 384.222 169.464 384.448 170.578 384.769C156.436 387.039 150.827 406.11 156.092 416.689C156.423 417.328 156.868 417.978 156.662 418.79C154.903 418.397 154.316 419.662 153.873 421.149C151.414 413.208 151.789 404.424 154.927 396.473C156.701 391.857 160.006 388.065 164.166 385.872C165.416 385.179 166.943 384.788 167.56 383.134Z" fill="#170805"/>
<path d="M33.4472 199.083C33.024 199.14 32.5993 199.082 32.212 198.914C31.8247 198.746 31.4869 198.474 31.2296 198.122C31.6547 198.046 32.0855 198.094 32.476 198.264C32.8666 198.433 33.2023 198.716 33.4472 199.083Z" fill="#E96709"/>
<path d="M164.303 478.142C164.235 476.277 162.792 475.414 161.866 474.244C159.401 470.971 156.874 467.745 155.183 463.872C154.853 463.125 154.199 462.417 154.822 461.442C155.947 460.918 156.666 461.848 157.264 462.443C159.178 464.318 161.553 465.311 163.846 466.422C165.865 467.391 168.069 467.875 170.033 465.738C170.556 462.803 173.414 461.848 174.662 459.437C176.252 456.358 178.115 453.495 177.995 449.812C177.948 449.302 178.006 448.781 178.165 448.287C178.325 447.793 178.581 447.338 178.917 446.955C178.901 445.925 178.581 444.943 178.004 444.152C177.428 443.36 176.624 442.8 175.71 442.553C175.48 442.496 175.263 442.392 175.072 442.247C174.135 441.396 172.45 440.594 173.381 439.039C174.455 437.255 175.757 438.798 176.624 439.587C180.687 443.296 185.25 446.326 190.174 448.584C196.144 451.319 202.105 454.05 208.157 456.593C218.803 461.122 229.894 464.122 240.983 467.164C241.783 467.317 242.506 467.74 243.053 468.374C243.599 469.007 243.941 469.818 244.031 470.695C245.533 478.552 243.706 485.504 239.203 492.163C233.964 499.916 226.8 503.022 218.593 504.109C211.246 505.092 204.67 502.501 198.17 499.737C190.441 496.302 183.084 492.026 176.208 486.972C173.697 485.2 171.414 483.104 169.022 481.151C167.557 479.949 166.227 478.506 164.279 478.157L164.303 478.142Z" fill="#6C382C"/>
<path d="M178.929 446.916C179.803 453.514 177.072 458.723 172.848 463.323C171.957 464.174 171.021 464.968 170.044 465.699C164.222 466.795 159.924 463.817 156.547 459.571C152.153 454.055 156.497 442.693 161.205 440.364C162.609 439.594 164.15 439.197 165.693 439.209C167.236 439.221 168.734 439.641 170.059 440.433C173.295 442.131 176.279 444.312 178.929 446.916Z" fill="#100503"/>
<path d="M157.173 419.695C157.613 419.817 158.005 420.076 158.303 420.441C158.6 420.805 158.791 421.26 158.851 421.75C158.396 421.658 157.988 421.408 157.685 421.038C157.383 420.668 157.204 420.197 157.173 419.695Z" fill="#6C382C"/>
<path d="M177.004 340.677C176.602 340.962 176.18 341.21 175.791 341.52C175.248 341.96 174.742 342.302 174.419 341.353C179.106 334.843 183.139 327.871 187.402 321.059C186.347 324.673 186.707 328.305 186.792 331.936C186.793 333.514 186.624 335.002 184.939 335.714C182.281 337.25 179.136 338.007 177.004 340.677Z" fill="#6C382C"/>
<path d="M200.605 337.635C198.575 338.144 196.795 337.263 194.982 336.747C197.011 336.066 198.777 337.03 200.605 337.635Z" fill="#130607"/>
<path d="M184.959 335.677C185.861 334.596 186.499 333.295 186.812 331.898C187.137 334.984 187.097 335.058 184.959 335.677Z" fill="#130607"/>
<path d="M210.582 334.722C206.823 333.676 203.206 332.401 200.332 329.369C194.067 322.667 194.981 312.734 201.708 305.856C204.165 303.32 207.275 302.757 210.408 303.35C213.992 304.024 217.394 305.429 220.437 307.492C221.704 308.269 222.75 309.394 223.474 310.761C224.199 312.128 224.578 313.691 224.575 315.299C224.731 321.213 223.229 327.126 220.266 332.263C217.942 336.329 217.125 336.52 212.916 335.371L210.582 334.722Z" fill="#6C382C"/>
<path d="M196.496 362.953C195.376 367.353 193.669 371.58 191.431 375.499C189.608 378.781 188.819 379.12 185.623 377.737C182.695 376.5 180.003 374.728 177.661 372.494C172.981 367.972 172.62 360.937 175.111 354.127C176.695 349.769 179.327 346.218 183.681 344.703C184.862 344.235 186.109 344.032 187.342 344.107C188.576 344.182 189.769 344.534 190.847 345.14C198.548 349.354 199.466 351.542 197.087 360.831C196.919 361.503 196.693 362.246 196.496 362.953Z" fill="#6C382C"/>
<path d="M180.666 406.35C179.837 410.274 178.228 413.994 175.953 417.244C173.554 420.592 171.289 421.314 167.793 419.848C167.247 419.631 166.763 419.261 166.206 419.084C157.52 416.303 155.879 405.391 160.06 398.449C161.521 396.011 162.832 393.552 165.299 392.103C166.387 391.381 167.6 390.925 168.847 390.769C170.094 390.612 171.345 390.759 172.506 391.199C175.109 392.291 177.6 393.649 179.947 395.255C180.872 395.8 181.585 396.675 181.974 397.738C182.363 398.802 182.404 399.993 182.091 401.122C181.735 402.858 181.151 404.607 180.666 406.35Z" fill="#6C382C"/>
<path d="M198.606 463.887C197.817 470.87 194.069 476.01 189.129 480.368C189.959 477.175 192.405 475.064 194.066 472.435C195.726 469.805 196.467 466.405 198.606 463.887Z" fill="#100503"/>
<path d="M176.364 453.781C175.757 457.113 174.108 460.168 171.7 462.423C170.945 463.285 169.977 463.89 168.924 464.159C167.87 464.428 166.782 464.347 165.803 463.928C163.212 462.817 160.747 461.411 158.448 459.735C157.814 459.281 157.293 458.668 156.925 457.946C156.558 457.224 156.354 456.411 156.33 455.571C155.98 451.062 156.927 446.881 159.976 443.414C160.964 442.14 162.307 441.245 163.785 440.877C165.262 440.508 166.788 440.687 168.112 441.384C170.847 442.769 173.423 444.475 175.795 446.473C176.444 446.905 176.932 447.565 177.183 448.349C177.434 449.134 177.433 449.999 177.181 450.809C176.871 451.957 176.566 453.053 176.364 453.781Z" fill="#6C382C"/>
</svg>
