<svg width="30" height="30" viewBox="0 0 30 30" fill="none" xmlns="http://www.w3.org/2000/svg">
<path d="M23.75 7C24.413 7 25.0489 7.26339 25.5178 7.73223C25.9866 8.20107 26.25 8.83696 26.25 9.5V27C26.25 27.663 25.9866 28.2989 25.5178 28.7678C25.0489 29.2366 24.413 29.5 23.75 29.5H6.25C5.58696 29.5 4.95107 29.2366 4.48223 28.7678C4.01339 28.2989 3.75 27.663 3.75 27V9.5C3.75 8.83696 4.01339 8.20107 4.48223 7.73223C4.95107 7.26339 5.58696 7 6.25 7H23.75ZM23.125 26.375V19.75C23.125 18.6692 22.6957 17.6328 21.9315 16.8685C21.1672 16.1043 20.1308 15.675 19.05 15.675C17.9875 15.675 16.75 16.325 16.15 17.3V15.9125H12.6625V26.375H16.15V20.2125C16.15 19.25 16.925 18.4625 17.8875 18.4625C18.3516 18.4625 18.7967 18.6469 19.1249 18.9751C19.4531 19.3033 19.6375 19.7484 19.6375 20.2125V26.375H23.125ZM8.6 13.95C9.15695 13.95 9.6911 13.7288 10.0849 13.3349C10.4788 12.9411 10.7 12.407 10.7 11.85C10.7 10.6875 9.7625 9.7375 8.6 9.7375C8.03973 9.7375 7.50241 9.96007 7.10624 10.3562C6.71007 10.7524 6.4875 11.2897 6.4875 11.85C6.4875 13.0125 7.4375 13.95 8.6 13.95ZM10.3375 26.375V15.9125H6.875V26.375H10.3375Z" fill="#E6E6E6"/>
</svg>
