<svg width="181" height="55" viewBox="0 0 181 55" fill="none" xmlns="http://www.w3.org/2000/svg">
<path d="M24.1226 16.3364C20.0195 25.4488 16.6113 33.0967 16.5451 33.2595C16.4789 33.5849 35.1084 42.2092 35.34 41.9488C35.6378 41.6234 52.7782 8.4281 52.6789 8.36301C52.5466 8.26538 33.6524 0.519814 32.3288 0.0316505C31.667 -0.228706 31.1707 0.780167 24.1226 16.3364Z" fill="#145932"/>
<path d="M14.4935 13.4399C14.2619 14.0257 10.8867 21.4784 7.08142 29.9725C3.24303 38.4665 0.0664299 45.6263 0.000250747 45.8541C-0.0328388 46.147 3.20994 47.7742 9.19915 50.4754C17.637 54.2831 18.4973 54.6085 18.8944 54.1204C19.2915 53.6322 25.5785 41.5257 25.5785 41.2328C25.5785 41.1677 22.6997 39.8334 19.2253 38.2713C15.7178 36.7091 12.7066 35.3097 12.5743 35.1796C12.4088 35.0494 14.328 30.4932 16.7767 25.0583C19.2253 19.6233 21.1445 15.0671 21.0121 14.937C20.8136 14.7417 15.3207 12.3985 15.056 12.3985C14.9898 12.3985 14.7582 12.8867 14.4935 13.4399Z" fill="#145932"/>
<path d="M65.3049 13.4481C60.7717 14.8475 59.1834 21.1611 62.2938 25.2943C64.0145 27.5724 67.8859 28.2884 70.6655 26.8564C72.6177 25.815 73.6104 24.1227 73.6104 21.6493V19.7943H70.6324H67.6543V20.9333C67.6543 22.0724 67.6543 22.0724 69.1433 22.0724C70.2022 22.0724 70.6324 22.2026 70.6324 22.528C70.6324 23.4392 70.2022 24.0576 69.2757 24.5132C65.9998 26.2055 62.9225 22.8534 64.0145 18.8179C64.577 16.8002 65.6358 15.8889 67.4558 15.8889C68.7794 15.8889 69.0772 16.0191 69.8713 17.028C70.6655 18.0043 70.9964 18.1671 72.2538 18.1671C73.6435 18.1671 73.6766 18.1345 73.445 17.2558C72.6839 14.1641 68.7794 12.3742 65.3049 13.4481Z" fill="#145932"/>
<path d="M132.014 13.2528C128.705 14.0664 127.116 16.0841 126.918 19.6966C126.686 24.5782 129.234 27.6049 133.569 27.6049C136.514 27.6049 138.731 25.9776 139.591 23.1137C139.823 22.4303 139.724 22.3978 138.334 22.3978C137.043 22.3978 136.779 22.5279 136.282 23.3415C135.29 24.9688 133.602 25.3918 131.815 24.4806C129.366 23.2439 129.201 18.0368 131.55 16.4096C133.106 15.3356 136.481 16.2143 136.481 17.7114C136.481 18.0368 136.911 18.167 138.102 18.167H139.757L139.459 17.2232C139.326 16.7025 138.962 15.954 138.665 15.4984C137.573 13.8386 134.231 12.6995 132.014 13.2528Z" fill="#145932"/>
<path d="M75.6619 20.3475L75.7612 27.4421H77.2502H78.7392L78.8385 24.9037L78.9378 22.3652L79.9966 22.4629C80.9562 22.5605 81.1878 22.8208 82.3791 25.0013L83.7027 27.4421L85.2909 27.5398C86.2505 27.6049 86.8462 27.5072 86.8462 27.2794C86.8462 27.0842 86.2175 25.8149 85.4895 24.4806L84.0997 22.0398L84.8277 21.5516C86.4822 20.4126 86.9785 17.7765 85.9527 15.6611C85.0924 13.8711 83.471 13.2853 79.1363 13.2853H75.5957L75.6619 20.3475ZM82.8754 16.5398C84.3644 18.0043 83.2394 19.7942 80.6253 20.0546L78.9047 20.2173V18.0368V15.8889H80.5591C81.7835 15.8889 82.3791 16.0516 82.8754 16.5398Z" fill="#145932"/>
<path d="M88.5669 20.3475L88.6662 27.4421H93.4642H98.2622L98.3614 26.2055L98.4607 25.0013H94.9863H91.4788V23.2114V21.4214H94.6223H97.7658V20.2824V19.1433H94.6223H91.4788V17.5161V15.8889H94.9532H98.4276V14.5871V13.2853H93.4642H88.5007L88.5669 20.3475Z" fill="#145932"/>
<path d="M100.479 20.3475L100.579 27.4421H105.377H110.175L110.274 26.2055L110.373 25.0013H106.899H103.391V23.2114V21.4214H106.535H109.678V20.2824V19.1433H106.535H103.391V17.5161V15.8889H106.866H110.34V14.5871V13.2853H105.377H100.413L100.479 20.3475Z" fill="#145932"/>
<path d="M112.391 20.3475L112.491 27.4421H113.98H115.469L115.436 22.4303V17.451L116.329 19.1759C116.858 20.1522 118.215 22.3978 119.373 24.1877L121.458 27.4421H123.079H124.734L124.833 20.3475L124.899 13.2853H123.212H121.557L121.656 18.1019L121.756 22.9185L118.778 18.1019L115.8 13.2853H114.046H112.325L112.391 20.3475Z" fill="#145932"/>
<path d="M142.801 19.9895C141.51 23.667 140.451 26.8889 140.451 27.1492C140.451 27.5398 140.815 27.6049 142.007 27.5398C143.562 27.4421 143.562 27.4421 144.058 25.88L144.555 24.3504H147.102H149.65L150.213 25.9776L150.775 27.6049H152.397C153.29 27.6049 154.018 27.5398 154.018 27.4421C154.018 27.312 149.683 15.0753 149.22 13.8386C149.022 13.4155 148.591 13.2853 147.069 13.2853H145.15L142.801 19.9895ZM147.83 18.6226C148.128 19.7942 148.492 20.9658 148.591 21.2262C148.757 21.6492 148.492 21.7469 147.069 21.7469C145.845 21.7469 145.415 21.6492 145.514 21.3238C145.613 21.1285 145.944 19.9569 146.275 18.7202C146.606 17.5161 146.97 16.5398 147.069 16.5398C147.169 16.5398 147.533 17.4836 147.83 18.6226Z" fill="#145932"/>
<path d="M155.673 20.4451V27.6375L157.095 27.5398L158.485 27.4422L158.584 24.9037L158.684 22.3978H159.743C160.735 22.3978 160.901 22.5931 162.224 25.0014L163.647 27.6049H165.136C166.096 27.6049 166.592 27.4747 166.592 27.1818C166.592 26.9866 165.997 25.7499 165.269 24.4481L163.978 22.1049L165.136 20.9659C166.129 19.9895 166.261 19.6641 166.261 18.1996C166.261 16.2144 165.666 14.9126 164.375 14.0664C163.647 13.5783 162.655 13.4481 159.577 13.3505L155.673 13.2203V20.4451ZM162.688 16.4422C163.283 16.9629 163.482 18.3623 163.018 19.0132C162.588 19.6641 161.364 20.1197 160.007 20.1197H158.651V18.0043V15.8889H160.371C161.496 15.8889 162.291 16.0842 162.688 16.4422Z" fill="#145932"/>
<path d="M168.313 20.3475L168.412 27.4421H171.92C174.997 27.4096 175.626 27.312 177.048 26.596C180.92 24.6433 181.747 18.3623 178.537 15.2055C177.015 13.7084 175.526 13.2853 171.456 13.2853H168.247L168.313 20.3475ZM175.559 16.4096C177.313 17.2883 178.041 20.2173 177.048 22.5279C176.387 24.0901 175.361 24.6759 173.309 24.6759H171.556V20.2824V15.8889H173.045C173.905 15.8889 175.03 16.1167 175.559 16.4096Z" fill="#145932"/>
<path d="M64.246 29.7529C64.1137 29.883 64.0144 32.454 64.0144 35.4807V40.9481H64.8416C65.6358 40.9481 65.6689 40.883 65.6689 38.5073V36.0665H68.1506C70.4007 36.0665 70.6323 36.0014 70.6323 35.4156C70.6323 34.8298 70.4007 34.7647 68.1506 34.7647H65.6689V32.9747V31.2174L68.4153 31.1197C70.8639 31.0221 71.1287 30.957 71.1287 30.3712C71.1287 29.7854 70.8639 29.7203 67.7866 29.6227C65.9667 29.5901 64.3784 29.6227 64.246 29.7529Z" fill="#145932"/>
<path d="M81.1218 29.7854C80.9894 29.883 80.8901 32.454 80.8901 35.4807V40.9481H81.7174H82.5446V35.2529C82.5446 29.9481 82.5115 29.5576 81.949 29.5576C81.6181 29.5576 81.221 29.6552 81.1218 29.7854Z" fill="#145932"/>
<path d="M93.1333 35.2529C93.1333 40.7203 93.1664 40.9481 93.7951 40.9481C94.4238 40.9481 94.4569 40.7203 94.4569 36.3268V31.7381L96.0452 34.3091C100.181 40.9481 100.181 40.9481 101.174 40.9481H102.067V35.2203V29.525L101.34 29.6227C100.578 29.7203 100.578 29.7854 100.578 34.244C100.612 37.531 100.512 38.6049 100.248 38.2144C96.0121 31.3475 94.6885 29.5576 93.9275 29.5576H93.1333V35.2529Z" fill="#145932"/>
<path d="M115.667 30.1759C115.336 30.7292 111.663 40.5576 111.663 40.8179C111.663 40.883 112.027 40.9481 112.457 40.9481C113.119 40.9481 113.351 40.6878 113.748 39.5487L114.211 38.1818H116.627H119.042L119.539 39.5487C119.903 40.6878 120.134 40.9481 120.796 40.9481C121.226 40.9481 121.59 40.9156 121.59 40.8505C121.59 40.6227 117.653 30.2085 117.454 29.883C117.123 29.3298 115.998 29.525 115.667 30.1759ZM117.454 33.7884C117.785 34.7647 118.116 35.7736 118.215 35.9688C118.314 36.2617 117.884 36.3919 116.66 36.3919C115.733 36.3919 114.972 36.2943 114.972 36.1641C114.972 35.4807 116.461 31.5428 116.66 31.7381C116.759 31.9008 117.156 32.812 117.454 33.7884Z" fill="#145932"/>
<path d="M131.186 35.2529C131.186 40.7203 131.219 40.9481 131.848 40.9481C132.477 40.9481 132.51 40.7203 132.51 36.3268V31.7381L134.098 34.3091C138.234 40.9481 138.234 40.9481 139.227 40.9481H140.12V35.2529C140.12 29.7854 140.087 29.5576 139.459 29.5576C138.863 29.5576 138.797 29.8179 138.731 34.0813L138.631 38.6049L135.72 34.0813C133.271 30.3061 132.675 29.5576 131.98 29.5576H131.186V35.2529Z" fill="#145932"/>
<path d="M152.761 30.2084C150.643 31.4777 149.65 34.3416 150.378 37.0753C150.941 39.1256 151.834 40.167 153.522 40.7853C155.573 41.5664 157.129 41.2084 158.717 39.6463C160.206 38.2143 160.338 37.3682 159.147 37.3682C158.651 37.3682 158.32 37.5634 158.32 37.8238C158.32 39.2883 154.945 40.1995 153.423 39.1256C150.908 37.4007 151.239 32.4214 153.952 31.2824C155.507 30.664 156.831 31.022 157.923 32.3563C158.816 33.4629 159.974 33.8534 159.974 33.0398C159.974 32.8445 159.676 32.1611 159.313 31.5753C158.088 29.6226 154.879 28.9392 152.761 30.2084Z" fill="#145932"/>
<path d="M169.901 35.2529V40.9481H173.541C176.949 40.9481 177.181 40.9156 177.181 40.2972C177.181 39.7114 176.949 39.6463 174.368 39.6463H171.556V37.8564V36.099L174.137 36.0014C176.42 35.9037 176.684 35.8387 176.684 35.2529C176.684 34.6671 176.42 34.602 174.137 34.5043L171.556 34.4067V32.812V31.2174L174.302 31.1197C176.751 31.0221 177.015 30.957 177.015 30.3712C177.015 29.7529 176.751 29.7203 173.475 29.6227L169.901 29.525V35.2529Z" fill="#145932"/>
</svg>
