<svg width="618" height="521" viewBox="0 0 618 521" fill="none" xmlns="http://www.w3.org/2000/svg">
<g clip-path="url(#clip0_66_865)">
<path d="M321.3 327.414C313.384 332.057 304.52 334.847 295.372 335.575C287.184 336.182 278.969 334.829 271.408 331.628C265.97 329.344 260.512 327.105 255.121 324.725C245.196 320.395 236.605 313.499 230.23 304.746C219.457 290.018 213.766 273.399 211.936 255.369C209.066 227.522 214.002 201.182 227.495 176.575C233.991 164.733 242.246 154.305 252.981 146.03C264.239 137.363 276.8 132.074 291.205 131.905C295.769 131.934 300.313 132.502 304.744 133.598C310.801 134.969 316.843 136.394 322.9 137.765C330.366 139.476 337.296 142.996 343.082 148.014C354.496 157.72 361.788 170.055 366.43 184.169C373.199 204.739 373.845 225.688 370.315 246.836C367.096 266.125 360.426 284.172 349.474 300.503C342.531 310.844 332.13 321.388 321.3 327.414Z" fill="#067623"/>
<path d="M112.893 343.111C123.996 336.73 136.228 332.554 148.915 330.814C173.988 326.91 199.649 329.832 223.202 339.273C231.549 342.554 239.435 346.903 246.662 352.214C254.288 357.688 260.638 364.75 265.274 372.913C269.281 379.827 271.145 387.775 270.63 395.75C270.326 400.374 270.076 405.012 270.028 409.647C269.931 419.542 266.232 427.975 259.967 435.462C256.018 440.057 251.381 444.013 246.221 447.188C234 454.993 220.458 459.112 206.272 461.175C190.054 463.527 173.552 463.074 157.487 459.836C140.475 456.393 124.422 450.387 110.275 440.035C103.53 435.246 97.7188 429.263 93.1274 422.383C87.8828 414.301 85.1524 405.563 85.9636 395.823C86.3641 391.053 86.5829 386.262 86.7529 381.466C87.1943 369.455 92.3854 359.774 101.06 351.725C104.633 348.375 108.608 345.482 112.893 343.111Z" fill="#087222"/>
<path d="M374.089 159.265C369.359 151.961 366.684 143.518 366.343 134.823C366.177 130.67 366.72 126.519 367.949 122.548C369.815 116.372 371.757 110.223 373.776 104.102C376.448 95.9551 381.694 89.7492 388.663 84.8971C398.146 78.2872 408.876 75.27 420.217 74.1578C433.163 72.9755 446.216 74.0086 458.815 77.2125C476.919 81.53 493.993 89.376 509.06 100.301C519.467 107.91 528.395 116.827 535.166 127.829C538.649 133.452 541.132 139.635 542.506 146.105C543.757 151.805 543.62 157.721 542.107 163.357C540.39 169.818 538.646 176.272 536.763 182.681C534.386 190.749 529.412 197.013 522.778 202.012C513.472 209.008 502.78 212.424 491.386 213.838C476.837 215.645 462.52 214.118 448.379 210.538C437.391 207.771 426.776 203.688 416.767 198.377C402.629 190.811 390.148 181.223 380.071 168.566C379.004 167.208 377.965 165.822 377.024 164.368C375.995 162.704 375.072 160.967 374.089 159.265Z" fill="#087523"/>
<path d="M275.314 121.561C273.737 122.052 272.148 122.504 270.6 123.046C253.625 129.023 239.905 139.361 228.892 153.424C214.09 172.364 205.305 193.902 201.496 217.515C198.433 236.1 199.05 255.107 203.313 273.454C203.375 273.759 203.451 274.067 203.513 274.371C203.662 275.159 203.514 275.846 202.634 276.014C201.755 276.181 201.377 275.605 201.214 274.791C200.539 271.323 199.742 267.879 199.211 264.384C194.034 230.515 199.588 198.486 216.046 168.421C222.548 156.356 231.278 145.632 241.773 136.818C251.129 128.961 262.002 123.112 273.715 119.636C274.013 119.543 274.315 119.437 274.62 119.375C274.771 119.32 274.932 119.296 275.092 119.304C275.253 119.312 275.411 119.351 275.556 119.42C275.702 119.489 275.832 119.587 275.939 119.706C276.047 119.826 276.13 119.966 276.183 120.118C276.408 120.703 276.089 121.193 275.314 121.561Z" fill="#096B22"/>
<path d="M544.989 124.007C538.624 113.4 530.329 104.079 520.532 96.5263C514.486 91.7363 508.028 87.4902 501.234 83.8376C500.677 83.548 500.146 83.2085 499.65 82.8231C499.473 82.6623 499.361 82.4426 499.335 82.2051C499.309 81.9676 499.37 81.7286 499.507 81.5329C499.608 81.3173 499.785 81.1462 500.004 81.0512C500.222 80.9563 500.468 80.9441 500.695 81.0168C501.207 81.2134 501.701 81.4518 502.173 81.7294C516.251 89.3864 528.796 98.9494 538.999 111.431C550.157 125.097 556.681 140.486 556.608 158.344C556.452 168.849 553.753 179.16 548.743 188.394C548.413 189.016 548.036 189.613 547.618 190.179C547.484 190.379 547.282 190.523 547.05 190.584C546.817 190.645 546.571 190.619 546.356 190.51C546.094 190.409 545.883 190.209 545.767 189.953C545.651 189.697 545.64 189.406 545.737 189.143C545.901 188.702 546.104 188.278 546.343 187.874C551.07 179.299 553.775 169.758 554.25 159.978C554.671 150.436 552.909 140.924 549.097 132.166C547.899 129.364 546.526 126.639 544.989 124.007Z" fill="#0A6B24"/>
<path d="M329.22 336.436C341.156 328.752 351.277 318.564 358.883 306.578C371.888 286.394 378.747 264.153 380.952 240.377C381.092 238.889 381.191 237.391 381.322 235.908C381.396 235.15 381.628 234.472 382.573 234.516C383.518 234.561 383.52 235.41 383.492 236.108C383.138 242.544 382.389 248.953 381.249 255.298C378.112 273.639 371.383 291.18 361.448 306.913C353.576 319.665 342.896 330.45 330.222 338.445C329.034 339.216 327.807 339.925 326.545 340.568C325.66 341 324.736 342.191 323.654 340.966C323.073 340.314 323.537 339.74 325.366 338.684L329.22 336.436Z" fill="#0A6D25"/>
<path d="M389.772 252.057C389.961 252.723 389.947 253.431 389.731 254.089C388.682 261.648 387.025 269.109 384.774 276.401C380.172 291.718 372.962 306.126 363.463 318.992C361.709 321.321 359.83 323.53 357.9 325.71C357.34 326.352 356.745 326.933 355.955 326.175C355.166 325.417 355.65 324.762 356.197 324.118C357.776 322.253 359.406 320.438 360.902 318.508C368.889 307.966 375.255 296.288 379.789 283.864C383.477 274.067 386.07 263.892 387.522 253.526C387.55 253.058 387.647 252.596 387.81 252.157C387.902 251.981 388.038 251.832 388.205 251.725C388.372 251.618 388.564 251.556 388.762 251.546C388.961 251.536 389.158 251.578 389.335 251.667C389.512 251.757 389.663 251.891 389.772 252.057Z" fill="#0A6E25"/>
<path d="M100.07 337.056L100.529 336.791C100.653 336.691 100.797 336.62 100.951 336.582C101.106 336.544 101.267 336.541 101.422 336.572C101.578 336.604 101.725 336.669 101.853 336.764C101.98 336.859 102.085 336.98 102.161 337.12C102.252 337.251 102.315 337.399 102.345 337.555C102.376 337.711 102.373 337.872 102.337 338.027C102.302 338.182 102.234 338.329 102.139 338.456C102.044 338.583 101.923 338.69 101.784 338.767C100.31 339.811 98.8016 340.796 97.3706 341.894C86.9876 349.875 79.4135 359.831 76.1076 372.679C73.6309 382.324 74.114 391.986 76.4862 401.579C76.7005 402.329 76.8684 403.093 76.9888 403.864C77.0191 404 77.0202 404.141 76.9919 404.278C76.9636 404.414 76.9066 404.543 76.8247 404.656C76.7428 404.769 76.6378 404.863 76.5167 404.932C76.3957 405.001 76.2613 405.043 76.1226 405.057C75.8527 405.125 75.5673 405.09 75.3218 404.959C75.0763 404.828 74.8883 404.61 74.7944 404.348C74.7059 404.13 74.6364 403.904 74.5866 403.674C72.2596 394.101 71.2711 384.527 73.2559 374.756C75.634 362.955 81.5964 353.214 90.1874 344.941C93.2696 342.057 96.5739 339.421 100.07 337.056Z" fill="#0B6924"/>
<path d="M407.854 65.1474C408.089 65.7498 408.033 66.3607 407.315 66.6504C406.723 66.8642 406.114 67.026 405.495 67.1339C397.253 68.9312 389.432 72.2912 382.454 77.032C372.339 83.8632 364.748 93.8277 360.848 105.393C360.531 106.359 360.373 107.381 360.083 108.354C359.879 108.983 359.48 109.531 358.717 109.369C358.542 109.333 358.376 109.261 358.231 109.156C358.085 109.051 357.964 108.917 357.874 108.761C357.784 108.606 357.729 108.434 357.711 108.255C357.693 108.077 357.712 107.897 357.769 107.727C357.825 107.419 357.909 107.116 358.019 106.823C361.529 94.7191 368.935 84.1125 379.089 76.6484C386.959 70.8428 395.959 66.7522 405.508 64.641C407.032 64.3515 407.468 64.4397 407.854 65.1474Z" fill="#0A6D23"/>
<path d="M253.46 456.013C253.12 456.21 252.609 456.504 252.167 456.76C252.032 456.846 251.882 456.902 251.724 456.927C251.566 456.951 251.405 456.942 251.251 456.901C251.097 456.86 250.954 456.787 250.829 456.687C250.705 456.587 250.603 456.462 250.529 456.321C250.17 455.7 250.426 455.121 251.031 454.715C252.602 453.661 254.182 452.623 255.71 451.537C263.431 446.193 269.812 439.138 274.356 430.922C278.885 422.593 281.16 413.225 280.954 403.747C280.919 403.121 280.936 402.492 281.004 401.868C281.043 401.636 281.165 401.424 281.346 401.274C281.528 401.123 281.758 401.042 281.994 401.047C282.233 401.018 282.474 401.077 282.672 401.214C282.871 401.35 283.012 401.555 283.069 401.789C283.192 402.401 283.251 403.024 283.247 403.649C283.493 420.449 277.356 434.603 265.523 446.382C261.826 449.978 257.786 453.204 253.46 456.013Z" fill="#077321"/>
<path d="M226.31 295.106C221.829 287.111 218.486 278.53 216.379 269.61C212.73 254.446 212.363 239.168 214.261 223.762C215.049 217.361 216.325 211.029 218.077 204.821C221.837 191.073 228.007 178.102 236.299 166.51C241.052 159.758 246.721 153.701 253.143 148.512C256.08 146.159 259.194 144.035 262.457 142.159C271.726 136.887 281.629 133.598 292.474 133.907C303.561 134.115 314.28 137.924 323.012 144.759C328.084 148.725 332.551 153.409 336.272 158.664C339.601 163.417 342.374 168.536 344.536 173.922C350.637 188.42 352.954 203.559 352.84 219.182C352.799 227.355 352.03 235.509 350.542 243.545C347.635 259.501 341.855 274.796 333.483 288.686C328.654 296.507 322.733 303.598 315.898 309.744C311.448 313.875 306.432 317.352 301.002 320.069C290.142 325.454 278.777 328.157 266.611 326.012C259.229 324.681 252.228 321.751 246.098 317.429C240.132 313.211 234.945 307.99 230.765 301.997C229.237 299.861 227.886 297.6 226.31 295.106Z" fill="#90C187"/>
<path d="M336.943 312.311C335.575 313.975 334.098 315.548 332.524 317.019C332.387 317.152 332.21 317.238 332.021 317.263C331.832 317.289 331.639 317.253 331.471 317.161L317.406 311.256C319.007 309.606 320.328 308.082 321.826 306.764C322.578 306.102 323.509 306.791 324.28 307.083C326.907 308.097 329.484 309.219 332.094 310.299L336.943 312.311Z" fill="#90C187"/>
<path d="M342.265 305.687C342.347 305.756 342.413 305.843 342.458 305.94C342.503 306.038 342.527 306.144 342.528 306.251C342.528 306.358 342.506 306.464 342.461 306.562C342.417 306.66 342.352 306.747 342.272 306.818C341.26 308.015 340.21 309.143 339.213 310.365C338.539 311.163 337.723 310.692 337.079 310.463C333.665 309.03 330.322 307.623 326.943 306.193C326.233 305.887 325.477 305.62 324.796 305.265C324.114 304.909 323.91 304.517 324.542 303.823C325.546 302.732 326.476 301.571 327.387 300.398C327.54 300.171 327.775 300.014 328.043 299.959C328.311 299.904 328.589 299.957 328.818 300.105C333.011 301.804 337.215 303.485 341.407 305.183C341.709 305.324 341.996 305.492 342.265 305.687Z" fill="#90C187"/>
<path d="M348.122 299.105L345.243 303.139C345 303.502 344.635 303.765 344.215 303.881C343.794 303.997 343.346 303.957 342.952 303.77C341.531 303.274 340.134 302.821 338.756 302.243C336.256 301.156 333.729 300.119 331.15 299.19C329.382 298.566 329.31 298.244 330.319 296.709C331.04 295.6 331.595 294.202 332.618 293.497C333.848 292.64 335.085 294.036 336.285 294.444C340.183 295.791 344.057 297.253 348.122 299.105Z" fill="#90C187"/>
<path d="M352.459 291.994C351.539 293.603 350.667 295.139 349.773 296.677C349.684 296.831 349.564 296.965 349.422 297.072C349.28 297.179 349.118 297.257 348.945 297.3C348.773 297.344 348.593 297.352 348.418 297.326C348.242 297.299 348.073 297.237 347.921 297.145C343.653 295.433 339.397 293.702 335.146 292.038C334.995 291.998 334.857 291.922 334.742 291.818C334.626 291.713 334.538 291.583 334.482 291.438C334.427 291.292 334.407 291.136 334.425 290.981C334.442 290.827 334.495 290.678 334.581 290.549C335.309 289.254 336.137 288.016 336.929 286.753C337.341 286.072 337.858 286.398 338.347 286.615C341.898 287.97 345.465 289.314 349.025 290.663L352.459 291.994Z" fill="#90C187"/>
<path d="M329.771 319.267C328.321 319.979 327.262 321.271 325.895 322.185C325.424 322.543 324.859 322.757 324.269 322.802C323.679 322.846 323.088 322.72 322.568 322.438C319.135 320.698 315.472 319.522 311.979 317.953C311.44 317.708 310.616 317.775 310.626 316.907C310.636 316.039 311.287 315.89 311.837 315.584C312.648 315.109 313.393 314.53 314.054 313.861C314.405 313.44 314.88 313.139 315.411 313.001C315.942 312.863 316.503 312.896 317.015 313.093C321.073 314.756 325.186 316.319 329.091 318.286C329.289 318.364 329.459 318.498 329.58 318.673C329.701 318.848 329.767 319.054 329.771 319.267Z" fill="#90C187"/>
<path d="M355.75 284.545C355.883 284.761 355.951 285.011 355.946 285.264C355.942 285.518 355.866 285.765 355.726 285.977C355.093 287.239 354.378 288.458 353.754 289.715C353.38 290.464 352.902 290.206 352.366 290.005C349.021 288.691 345.691 287.346 342.329 286.064C341.218 285.685 340.126 285.251 339.059 284.763C338.928 284.723 338.808 284.652 338.709 284.556C338.61 284.461 338.535 284.344 338.49 284.214C338.445 284.084 338.431 283.946 338.449 283.809C338.468 283.673 338.518 283.543 338.596 283.43C338.702 283.221 338.84 283.028 338.947 282.819C339.568 281.655 339.777 280.07 340.909 279.417C342.041 278.763 343.241 279.977 344.39 280.357C347.948 281.526 351.446 282.888 354.967 284.191C355.27 284.323 355.543 284.46 355.75 284.545Z" fill="#90C187"/>
<path d="M362.088 270.049C362.117 270.268 362.116 270.49 362.083 270.709C361.686 272.066 361.27 273.415 360.834 274.756C360.531 275.725 359.9 275.851 358.999 275.509C354.667 273.902 350.335 272.295 345.981 270.769C344.942 270.404 344.842 269.838 345.16 268.973C345.478 268.109 345.905 267.079 346.262 266.125C346.758 264.783 346.894 264.625 348.314 265.178C349.734 265.731 350.952 266.151 352.304 266.585C355.357 267.569 358.381 268.66 361.416 269.71C361.645 269.812 361.87 269.925 362.088 270.049Z" fill="#90C187"/>
<path d="M359.342 277.637C359.017 279.039 358.223 280.337 357.725 281.714C357.226 283.091 356.555 282.991 355.542 282.611C353.281 281.761 351.011 280.915 348.745 280.056C346.844 279.338 344.969 278.548 343.046 277.91C342.035 277.575 341.782 277.018 342.208 276.125C342.665 275.131 343.061 274.11 343.394 273.068C343.435 272.876 343.521 272.696 343.644 272.542C343.767 272.389 343.925 272.266 344.104 272.185C344.283 272.103 344.479 272.065 344.676 272.073C344.873 272.081 345.065 272.135 345.237 272.231C348.118 273.291 350.961 274.283 353.852 275.36C355.744 275.961 357.581 276.723 359.342 277.637Z" fill="#90C187"/>
<path d="M322.158 324.615C320.257 326.394 317.853 326.987 315.672 327.985C315.37 328.07 315.048 328.042 314.765 327.908C310.458 326.07 306.161 324.228 301.528 322.239C303.508 320.905 305.556 319.677 307.665 318.559C307.837 318.465 308.03 318.414 308.226 318.412C308.423 318.409 308.617 318.455 308.791 318.545C313.089 320.603 317.688 321.964 321.893 324.235C321.965 324.261 321.992 324.348 322.158 324.615Z" fill="#90C187"/>
<path d="M362.98 267.899C362.772 268.039 362.53 268.119 362.279 268.129C362.029 268.14 361.78 268.08 361.562 267.958C357.403 266.376 353.228 264.826 348.944 263.577C347.762 263.239 347.586 262.58 347.835 261.46C348.737 257.342 348.698 257.353 352.644 258.684C356.199 259.888 359.73 261.129 363.322 262.221C364.579 262.63 364.762 263.183 364.37 264.272C364.088 265.081 363.915 265.941 363.628 266.742C363.449 267.147 363.232 267.535 362.98 267.899Z" fill="#90C187"/>
<path d="M350.812 250.028C353.153 250.446 355.002 251.388 356.912 251.964C359.761 252.771 362.514 253.904 365.327 254.845C366.217 255.148 366.659 255.619 366.4 256.586L365.508 259.994C365.496 260.153 365.442 260.307 365.353 260.439C365.264 260.571 365.142 260.678 364.999 260.749C364.856 260.821 364.697 260.853 364.537 260.845C364.378 260.836 364.223 260.786 364.089 260.7C360.683 259.262 357.164 258.298 353.697 257.088C353.032 256.86 352.382 256.599 351.713 256.384C349.971 255.824 349.703 255.457 349.992 253.678C350.173 252.518 350.498 251.389 350.812 250.028Z" fill="#90C187"/>
<path d="M368.158 248.172C368.15 248.506 368.119 248.839 368.064 249.168C367.916 249.855 367.704 250.511 367.549 251.224C366.921 253.596 366.702 253.688 364.55 252.831C362.382 251.935 360.169 251.153 357.92 250.486C356.017 249.962 354.283 249.022 352.359 248.579C351.899 248.47 351.453 248.307 351.577 247.657C351.78 246.496 351.967 245.344 352.148 244.184C352.329 243.024 352.991 242.755 353.969 243.132C355.705 243.878 357.588 244.232 359.3 244.957C361.764 246.02 364.451 246.329 366.86 247.515C367.275 247.763 367.688 247.967 368.158 248.172Z" fill="#90C187"/>
<path d="M353.911 235.858C354.082 235.758 354.277 235.704 354.476 235.703C354.674 235.702 354.87 235.753 355.042 235.852C359.398 237.638 364.093 238.32 368.44 240.111C368.901 240.299 369.426 240.54 369.372 241.037C369.218 242.499 368.944 243.951 368.662 245.407C368.598 245.75 368.216 245.835 367.9 245.779C367.444 245.695 366.995 245.575 366.558 245.419C362.468 244.115 358.398 242.765 354.293 241.493C354.06 241.47 353.835 241.392 353.638 241.265C353.441 241.138 353.277 240.966 353.16 240.763C353.043 240.56 352.976 240.331 352.964 240.097C352.953 239.863 352.997 239.63 353.094 239.416C353.309 238.589 353.34 237.719 353.474 236.87C353.494 236.491 353.649 236.132 353.911 235.858Z" fill="#90C187"/>
<path d="M354.81 228.315C354.997 228.207 355.389 228.355 355.748 228.465C357.315 228.979 358.843 229.561 360.425 230.021C363.142 230.797 365.868 231.534 368.602 232.233C369.751 232.534 370.429 232.903 370.011 234.302C369.594 235.7 370.229 237.331 369.15 237.999C368.206 238.544 366.784 237.595 365.58 237.28C362.019 236.34 358.605 234.907 354.995 234.12C353.907 233.886 353.633 233.352 353.924 232.264C354.126 231.268 354.264 230.26 354.338 229.246C354.364 228.958 354.277 228.611 354.81 228.315Z" fill="#90C187"/>
<path d="M370.342 225.656C370.382 227.223 370.296 228.79 370.087 230.343C370.019 230.678 369.629 230.71 369.298 230.628C368.684 230.508 368.077 230.35 367.482 230.156C363.647 228.794 359.742 227.639 355.783 226.698C354.696 226.406 354.106 225.975 354.433 224.753C354.51 224.291 354.54 223.821 354.521 223.352C354.716 220.505 354.777 220.356 357.361 221.293C361.047 222.626 364.855 223.503 368.602 224.607C369.232 224.834 369.895 224.882 370.342 225.656Z" fill="#90C187"/>
<path d="M292.011 326.156C293.851 325.412 295.661 324.616 297.55 323.957C298.493 323.533 299.565 323.497 300.534 323.857C304.185 325.425 307.861 326.957 311.53 328.516C311.703 328.561 311.859 328.655 311.979 328.787C312.1 328.919 312.179 329.083 312.208 329.259C312.006 329.563 311.742 329.822 311.434 330.02C311.126 330.217 310.781 330.348 310.419 330.405C304.225 331.961 305.472 332.705 299.954 329.968C297.657 328.82 295.207 327.976 292.831 326.988C292.629 326.942 292.445 326.84 292.299 326.692C292.154 326.545 292.054 326.359 292.011 326.156Z" fill="#90C187"/>
<path d="M354.751 213.313C358.701 214.437 362.512 215.278 366.185 216.55C366.851 216.778 367.497 217.052 368.178 217.249C370.486 217.925 370.503 217.915 370.479 220.233C370.474 221.166 370.419 222.094 370.362 223.194C369.21 223.194 368.072 222.941 367.028 222.452C363.575 221.207 360.05 220.168 356.473 219.343C355.16 219.034 354.586 218.413 354.643 217.097C354.701 215.782 354.716 214.786 354.751 213.313Z" fill="#90C187"/>
<path d="M370.191 215.803L360.725 213.166L358.452 212.549C354.067 211.382 353.837 211.004 354.552 206.188C357.511 206.931 360.527 207.516 363.395 208.493C365.183 209.094 366.992 209.593 368.79 210.133C369.14 210.17 369.461 210.341 369.687 210.611C369.913 210.881 370.025 211.228 369.999 211.579C369.978 212.839 370.101 214.074 370.191 215.803Z" fill="#90C187"/>
<path d="M353.651 198.889L367.783 202.668C368.096 202.697 368.392 202.827 368.624 203.038C368.857 203.25 369.015 203.532 369.073 203.841C369.408 205.181 369.518 206.567 369.398 207.943C368.646 208.252 368.062 207.909 367.485 207.754C363.623 206.727 359.793 205.636 355.918 204.662C354.575 204.302 353.634 203.813 353.722 202.196C353.782 201.219 353.198 200.286 353.651 198.889Z" fill="#90C187"/>
<path d="M368.604 200.73C368.408 200.844 368.189 200.91 367.963 200.922C367.737 200.934 367.511 200.892 367.305 200.8C363.109 199.546 358.789 198.726 354.678 197.15C353.426 196.671 352.603 196.17 352.586 194.784C352.579 193.868 351.694 192.825 352.474 192.113C353.255 191.402 354.186 192.385 355.046 192.637C356.006 192.975 356.997 193.216 358.004 193.358C361.117 193.58 363.818 195.153 366.792 195.842C366.987 195.868 367.172 195.946 367.327 196.068C367.482 196.191 367.6 196.353 367.67 196.538C368.154 197.891 368.468 199.299 368.604 200.73Z" fill="#90C187"/>
<path d="M350.373 185.133C350.697 184.96 351.057 184.868 351.424 184.866C351.791 184.864 352.152 184.952 352.477 185.121C356.351 186.131 360.2 187.256 364.089 188.154C364.699 188.238 365.262 188.524 365.69 188.966C366.118 189.408 366.386 189.98 366.45 190.592C366.652 191.61 367.127 192.471 366.809 193.789L359.547 191.843C357.506 191.296 355.485 190.704 353.404 190.226C352.817 190.174 352.267 189.912 351.858 189.488C351.448 189.064 351.205 188.505 351.174 187.916C351.114 186.941 350.841 185.991 350.373 185.133Z" fill="#90C187"/>
<path d="M348.192 178.211C349.111 177.68 349.773 178.138 350.421 178.297C354.071 179.254 357.684 180.322 361.35 181.168C363.064 181.562 364.107 182.288 364.483 184.079C364.626 184.836 364.828 185.581 365.088 186.306C364.364 186.724 363.809 186.352 363.26 186.227C359.387 185.217 355.535 184.128 351.654 183.146C351.033 183.065 350.454 182.788 350.001 182.357C349.547 181.925 349.243 181.36 349.132 180.743C348.888 179.875 348.574 179.028 348.192 178.211Z" fill="#90C187"/>
<path d="M345.788 171.531C345.921 171.447 346.072 171.397 346.228 171.384C346.384 171.37 346.541 171.395 346.686 171.455C350.573 172.683 354.619 173.264 358.523 174.267C360.337 174.717 361.507 175.505 361.794 177.416C361.942 178.013 362.148 178.593 362.408 179.149C361.719 179.547 361.121 179.121 360.549 178.975C356.901 178.062 353.289 177.073 349.591 176.348C347.219 175.856 346.05 174.205 345.788 171.531Z" fill="#90C187"/>
<path d="M281.455 328.392C283.365 328.084 285.28 327.784 287.193 327.462C288.224 327.404 289.254 327.586 290.202 327.995C293.872 329.065 297.225 330.863 301.199 332.676C298.399 333.383 295.523 333.748 292.635 333.762C291.142 333.751 289.932 332.599 288.54 332.075C286.071 331.14 283.896 329.593 281.273 328.963L281.455 328.392Z" fill="#90C187"/>
<path d="M342.858 165.04C345.287 165.533 347.714 165.982 350.115 166.525C351.793 166.895 353.443 167.395 355.108 167.841C357.895 168.58 358.501 169.218 359.349 172.337C359.027 172.704 358.632 172.569 358.287 172.462C354.838 171.446 351.334 170.627 347.793 170.01C346.817 169.932 345.886 169.571 345.112 168.971C344.339 168.372 343.757 167.56 343.438 166.635C343.242 166.158 342.715 165.815 342.858 165.04Z" fill="#90C187"/>
<path d="M355.733 165.721C350.904 165.218 346.436 163.69 341.907 162.548C340.155 162.108 340.143 160.299 339.161 159.345C339.429 158.827 339.726 158.849 340.056 158.93C343.657 160.017 347.391 160.528 351.038 161.441C353.344 162.073 354.985 163.089 355.733 165.721Z" fill="#90C187"/>
<path d="M334.882 153.407C335.524 152.888 336.221 153.133 336.888 153.304C340.524 154.257 344.156 155.201 347.787 156.203C349.658 156.712 350.008 157.122 351.121 159.521C350.894 159.561 350.66 159.685 350.463 159.64C346.592 158.732 342.775 157.565 338.835 156.855C336.222 156.378 336.01 155.99 334.882 153.407Z" fill="#90C187"/>
<path d="M329.923 147.668C334.292 148.788 338.39 149.361 342.339 150.599C343.588 151.013 343.588 151.013 345.984 153.454C343.811 153.051 341.866 152.768 339.955 152.327C337.594 151.796 335.248 151.153 332.915 150.491C331.267 150.036 331.004 149.756 329.923 147.668Z" fill="#90C187"/>
<path d="M284.327 332.522C279.637 332.733 275.347 331.374 270.843 328.959C273.545 328.647 275.775 328.381 277.964 329.5C280.153 330.619 282.216 331.539 284.327 332.522Z" fill="#90C187"/>
<path d="M323.852 143.128C324.859 143.059 325.871 143.132 326.859 143.344C330.042 144.081 333.135 145.212 336.405 145.628C337.622 145.898 338.708 146.583 339.475 147.566C339.246 147.699 339.144 147.916 339.069 147.903C335.144 147.003 331.237 145.797 327.257 145.134C325.947 144.821 324.761 144.122 323.852 143.128Z" fill="#90C187"/>
<path d="M243.436 429.766C233.036 436.066 222.066 439.176 210.755 441.304C203.869 442.541 196.885 443.155 189.889 443.137C176.204 443.275 162.565 441.518 149.36 437.918C138.427 434.996 127.963 430.538 118.282 424.677C111.704 420.64 105.747 415.671 100.595 409.923C95.0192 403.928 91.1729 396.532 89.466 388.524C87.8077 380.431 89.1286 372.012 93.1855 364.816C96.6657 358.554 101.527 353.167 107.399 349.063C116.932 342.25 127.706 337.367 139.113 334.691C156.968 330.238 174.974 329.976 193.104 332.819C208.296 335.099 222.943 340.137 236.321 347.687C244.763 352.482 252.484 358.248 258.477 366.034C262.442 370.91 265.435 376.501 267.294 382.504C269.66 390.573 269.062 399.221 265.609 406.887C263.137 412.57 259.257 417.091 254.925 421.362C251.541 424.727 247.667 427.56 243.436 429.766Z" fill="#90C187"/>
<path d="M178.06 444.702C177.796 449.393 177.524 453.817 177.223 458.269C177.098 460.134 176.869 460.289 174.868 460.184C173.693 460.198 172.52 460.083 171.37 459.844C170.828 459.692 170.242 459.542 170.356 458.795C171.116 453.999 171.009 449.136 171.474 444.203L178.06 444.702Z" fill="#90C187"/>
<path d="M186.181 445.619C186.223 445.983 186.245 446.349 186.247 446.715C186.02 450.784 185.802 454.848 185.54 458.914C185.426 460.682 185.353 460.713 183.589 460.665C178.773 460.54 178.773 460.54 179.074 455.793C179.278 452.668 179.531 449.549 179.654 446.38C179.707 445.136 180.184 444.724 181.402 444.849C182.62 444.974 183.912 444.932 185.151 444.954C185.371 444.942 185.589 444.999 185.774 445.119C185.959 445.238 186.102 445.413 186.181 445.619Z" fill="#90C187"/>
<path d="M160.212 457.991C160.061 458.022 159.907 458.039 159.752 458.041L155.135 457.177C154.979 457.17 154.828 457.128 154.691 457.055C154.554 456.981 154.435 456.878 154.343 456.753C154.251 456.628 154.188 456.483 154.159 456.33C154.13 456.178 154.136 456.02 154.176 455.87C154.491 451.66 154.722 447.441 155.002 443.228C155.111 441.452 155.121 441.469 156.921 441.757C157.994 441.943 159.078 442.112 160.155 442.307C160.37 442.315 160.58 442.371 160.771 442.47C160.961 442.568 161.128 442.708 161.259 442.878C161.389 443.048 161.481 443.245 161.527 443.455C161.574 443.665 161.573 443.882 161.526 444.091C161.282 448.386 160.676 452.662 160.67 456.977C160.696 457.172 160.667 457.37 160.586 457.55C160.505 457.729 160.375 457.882 160.212 457.991Z" fill="#90C187"/>
<path d="M169.77 444.415C169.79 444.676 169.79 444.938 169.769 445.199C169.162 449.317 169.381 453.491 168.995 457.618C168.837 459.309 168.643 459.523 167.013 459.295C166.006 459.162 165.029 458.886 163.971 458.782C163.736 458.804 163.499 458.768 163.282 458.678C163.064 458.587 162.872 458.444 162.722 458.262C162.572 458.08 162.469 457.864 162.422 457.633C162.374 457.402 162.384 457.163 162.451 456.936C162.772 453.562 162.906 450.217 163.105 446.845C163.159 445.917 163.145 444.95 163.204 444.03C163.205 443.875 163.243 443.723 163.314 443.585C163.385 443.447 163.488 443.328 163.614 443.238C163.74 443.147 163.885 443.088 164.039 443.064C164.192 443.041 164.349 443.054 164.496 443.103C165.872 443.364 167.271 443.566 168.662 443.773C168.887 443.77 169.109 443.828 169.304 443.941C169.5 444.054 169.661 444.218 169.77 444.415Z" fill="#90C187"/>
<path d="M194.397 445.619C194.459 445.954 194.488 446.294 194.485 446.635C194.327 450.765 194.135 454.894 193.964 459.021C193.983 459.197 193.964 459.375 193.909 459.544C193.853 459.712 193.761 459.867 193.64 459.997C193.52 460.127 193.372 460.229 193.208 460.297C193.045 460.366 192.868 460.398 192.691 460.391L192.458 460.401C187.22 461.156 187.136 461.011 187.498 455.741C187.685 452.705 187.93 449.67 188.074 446.637C188.122 445.599 188.401 445.041 189.548 445.082C190.695 445.123 191.742 444.95 192.868 444.936C193.158 444.923 193.448 444.979 193.713 445.097C193.978 445.216 194.213 445.394 194.397 445.619Z" fill="#90C187"/>
<path d="M202.797 445.092C202.806 445.246 202.803 445.554 202.791 445.868C202.629 449.774 202.485 453.692 202.293 457.605C202.2 459.565 201.949 459.801 199.892 459.933C198.889 460.101 197.874 460.189 196.857 460.199C195.884 460.125 195.439 459.826 195.512 458.774C195.822 454.475 196.084 450.171 196.345 445.867C196.38 445.359 196.497 444.951 197.123 444.896C198.686 444.754 200.243 444.581 201.817 444.456C202.03 444.417 202.251 444.462 202.433 444.58C202.615 444.699 202.745 444.882 202.797 445.092Z" fill="#90C187"/>
<path d="M147.933 439.161C149.182 439.575 150.422 439.994 151.697 440.393C153.317 440.899 153.498 441.055 153.415 442.681C153.292 445.18 153.16 447.684 152.869 450.167C152.694 451.732 152.714 453.298 152.613 454.854C152.536 456.136 152.196 456.332 150.962 456.102C146.279 455.243 146.287 455.238 146.598 450.509C146.802 447.364 146.999 444.225 147.186 441.091C147.202 440.38 147.467 439.698 147.933 439.161Z" fill="#90C187"/>
<path d="M210.75 443.871L210.734 444.629C210.556 448.704 210.361 452.788 210.225 456.838C210.262 457.089 210.242 457.345 210.167 457.587C210.092 457.829 209.965 458.052 209.793 458.239C209.622 458.425 209.412 458.572 209.177 458.667C208.942 458.763 208.689 458.805 208.436 458.79C207.354 458.882 206.274 459.154 205.189 459.338C204.299 459.488 203.837 459.119 203.883 458.196L204.533 444.817C204.521 444.622 204.585 444.431 204.71 444.283C204.836 444.134 205.014 444.04 205.207 444.019C206.765 443.789 208.33 443.532 209.86 443.352C210.046 443.325 210.234 443.361 210.396 443.456C210.558 443.55 210.683 443.696 210.75 443.871Z" fill="#90C187"/>
<path d="M144.358 454.117C144.111 454.146 143.862 454.149 143.614 454.126C143.084 454.013 142.547 453.869 142.027 453.715C138.754 452.745 138.738 452.698 138.94 449.392C139.143 446.087 139.277 442.525 139.476 439.097C139.606 437.002 139.997 436.776 141.956 437.495C145.523 438.839 145.515 438.844 145.274 442.751C145.066 446.105 144.906 449.465 144.742 452.817C144.778 453.283 144.642 453.746 144.358 454.117Z" fill="#90C187"/>
<path d="M138.009 436.437C138.04 436.738 138.048 437.041 138.032 437.343C137.526 441.301 137.47 445.293 137.15 449.279C137.112 449.744 136.99 450.2 136.916 450.663C136.792 451.37 136.407 451.49 135.733 451.346C134.465 450.934 133.22 450.456 132.002 449.914C131.274 449.676 131.224 449.058 131.293 448.372C131.472 446.755 131.613 445.119 131.716 443.464C131.879 440.896 132.001 438.317 132.137 435.742C132.214 434.381 132.379 434.195 133.722 434.555C135.064 434.915 136.215 435.453 137.459 435.938C137.663 436.08 137.847 436.248 138.009 436.437Z" fill="#90C187"/>
<path d="M211.939 457.801C212.15 453.253 212.36 448.899 212.556 444.542C212.541 444.313 212.571 444.084 212.645 443.866C212.719 443.649 212.836 443.449 212.987 443.277C213.139 443.105 213.323 442.965 213.529 442.864C213.736 442.764 213.96 442.705 214.188 442.692C218.833 441.656 218.799 441.596 218.518 446.377C218.364 449.098 218.269 451.842 218.225 454.557C218.178 456.854 218.211 456.892 216.045 457.268C214.76 457.499 213.504 458.055 211.939 457.801Z" fill="#90C187"/>
<path d="M219.869 456.048C220.052 452.277 220.223 448.524 220.416 444.77C220.609 441.016 220.614 441.183 224.314 440.182C224.374 440.147 224.45 440.103 224.51 440.069C226.001 439.684 226.279 439.91 226.286 441.494C226.286 442.516 226.25 443.535 226.214 444.554C226.119 447.299 225.985 450.054 225.911 452.775C225.853 454.522 225.822 454.586 223.997 455.14C222.882 455.488 221.757 455.82 220.626 456.121C220.464 456.215 220.202 456.094 219.869 456.048Z" fill="#90C187"/>
<path d="M125.234 431.058C127.074 431.256 128.374 432.309 129.821 432.949C130.283 433.159 130.338 433.706 130.309 434.187C130.028 438.889 130.042 443.67 129.486 448.485C127.681 448.267 126.375 447.205 124.942 446.512C124.702 446.372 124.51 446.162 124.391 445.911C124.272 445.659 124.232 445.378 124.277 445.103C124.597 440.47 124.917 435.814 125.234 431.058Z" fill="#90C187"/>
<path d="M227.776 453.922C227.54 450.722 227.905 447.856 227.905 444.986C227.899 443.423 228.016 441.857 228.101 440.333C228.127 439.592 228.258 438.915 229.074 438.637C230.299 438.145 231.523 437.631 232.778 437.19C233.308 437.009 233.673 437.286 233.722 437.882C233.746 438.038 233.757 438.194 233.754 438.351C233.544 442.331 233.303 446.317 233.12 450.304C233.116 450.729 232.993 451.144 232.765 451.503C232.536 451.861 232.212 452.149 231.828 452.332C230.616 452.964 229.252 453.059 227.776 453.922Z" fill="#90C187"/>
<path d="M118.614 427.118C119.99 427.89 121.198 428.588 122.418 429.246C122.742 429.386 123.013 429.628 123.19 429.934C123.367 430.241 123.441 430.596 123.401 430.948C123.09 435.462 122.802 439.974 122.492 444.488C122.483 444.63 122.376 444.759 122.189 445.162C120.816 444.298 119.474 443.428 118.116 442.589C117.357 442.12 117.443 441.423 117.508 440.671C117.731 437.637 117.936 434.613 118.217 431.58C118.325 430.235 118.024 428.809 118.614 427.118Z" fill="#90C187"/>
<path d="M234.942 450.727L235.361 437.027C235.371 436.533 235.423 435.935 235.906 435.827C237.5 435.463 238.805 434.403 240.421 433.821C240.602 436.152 240.571 438.494 240.331 440.819C240.105 442.841 240.041 444.878 240.137 446.911C240.24 447.415 240.151 447.939 239.888 448.38C239.624 448.822 239.205 449.15 238.713 449.299C237.598 449.727 236.431 450.162 234.942 450.727Z" fill="#90C187"/>
<path d="M111.651 438.015C111.254 437.416 111.109 436.684 111.247 435.979C111.807 432.251 111.683 428.499 112.005 424.772C112.166 422.909 112.239 422.878 113.881 423.893C113.915 423.953 114.01 424 114.074 424.031C116.216 424.871 116.77 426.401 116.526 428.652C116.133 432.216 116.114 435.801 115.842 439.397C115.734 441.059 115.476 441.162 114.041 440.21C113.128 439.616 112.32 438.874 111.651 438.015Z" fill="#90C187"/>
<path d="M106.394 418.513C106.635 418.556 106.722 418.551 106.777 418.587C110.371 421.176 110.358 421.172 110.096 425.613C109.922 428.573 109.809 431.543 109.64 434.512C109.605 435.179 109.482 435.851 109.379 436.694C108.202 435.967 107.133 435.08 106.2 434.058C105.974 433.839 105.801 433.572 105.693 433.276C105.586 432.981 105.546 432.665 105.578 432.352C105.764 427.898 105.92 423.451 106.098 419.002C106.103 418.874 106.245 418.747 106.394 418.513Z" fill="#90C187"/>
<path d="M241.982 447.196C242.161 442.769 242.349 438.496 242.523 434.219C242.485 433.869 242.549 433.516 242.709 433.202C242.868 432.888 243.116 432.628 243.421 432.453C244.583 431.85 245.685 431.146 247.098 430.33C247.007 433.219 246.941 435.777 246.842 438.319C246.708 439.169 246.65 440.031 246.671 440.892C247.222 444.42 245.331 446.216 241.982 447.196Z" fill="#90C187"/>
<path d="M248.824 442.735C248.214 441.816 248.632 440.849 248.657 439.949C248.724 436.665 248.963 433.384 249.039 430.094C248.985 429.627 249.089 429.155 249.334 428.754C249.58 428.353 249.953 428.046 250.394 427.882C251.319 427.518 251.686 426.523 252.605 426.208C253.352 426.617 253.151 427.312 253.137 427.876C253.036 431.475 252.869 435.078 252.798 438.67C252.866 439.098 252.79 439.536 252.582 439.916C252.375 440.297 252.048 440.598 251.652 440.773C250.602 441.254 250.146 442.607 248.824 442.735Z" fill="#90C187"/>
<path d="M103.348 431.359C102.386 430.577 101.481 429.726 100.642 428.813C100.442 428.626 100.291 428.394 100.201 428.135C100.111 427.877 100.085 427.6 100.126 427.33C100.296 423.025 100.489 418.722 100.707 414.421C100.699 414.242 100.745 414.064 100.839 413.911C100.932 413.758 101.069 413.637 101.232 413.562C103.154 414.926 104.62 416.383 104.27 419.218C103.867 422.548 103.965 425.941 103.797 429.306C103.883 430.022 103.724 430.745 103.348 431.359Z" fill="#90C187"/>
<path d="M255.067 437.667C254.854 437.479 254.695 437.237 254.607 436.966C254.518 436.696 254.504 436.407 254.566 436.129C254.866 433.103 254.956 430.06 254.833 427.021C254.692 424.221 256.223 422.588 258.472 421.039C258.654 423.562 258.656 426.094 258.478 428.616C258.327 429.538 258.269 430.472 258.306 431.405C258.911 434.358 257.133 435.997 255.067 437.667Z" fill="#90C187"/>
<path d="M96.1643 407.988C98.1455 409.454 99.1639 410.943 98.9986 413.251C98.7166 416.988 98.6517 420.748 98.5026 424.499C98.5359 424.715 98.5094 424.936 98.4261 425.139C98.3428 425.341 98.2058 425.516 98.0299 425.646C97.2918 425.21 96.6729 424.598 96.228 423.865C95.783 423.132 95.5259 422.301 95.4794 421.445C95.4954 417.089 95.8901 412.663 96.1643 407.988Z" fill="#90C187"/>
<path d="M260.147 430.898C260.306 427.243 260.456 423.571 260.62 419.924C260.721 417.8 262.501 416.637 263.775 415.05C263.561 419.043 263.44 423.04 263.093 427.019C262.915 428.676 261.705 429.863 260.691 431.095L260.147 430.898Z" fill="#90C187"/>
<path d="M92.3036 401.91C93.1357 402.829 93.7461 403.926 94.0878 405.118C94.4296 406.31 94.4935 407.564 94.2748 408.784C93.9446 411.573 93.9426 414.4 93.7991 417.217C93.7727 417.584 93.9343 418.002 93.3264 418.364C92.2756 416.701 91.1842 415.243 91.5334 412.92C91.84 409.884 91.9729 406.833 91.9316 403.782C91.9 403.137 92.0277 402.494 92.3036 401.91Z" fill="#90C187"/>
<path d="M88.4494 393.741C89.1755 394.509 89.7269 395.425 90.0659 396.426C90.4049 397.427 90.5234 398.489 90.4134 399.541C90.2038 402.578 90.0686 405.606 89.9115 408.636C89.8949 409.02 90.0162 409.427 89.3536 409.832C87.3577 404.528 88.5952 399.104 88.4494 393.741Z" fill="#90C187"/>
<path d="M265.302 422.532C266.177 417.737 264.544 412.609 267.528 407.754C267.868 413.118 267.392 417.955 265.302 422.532Z" fill="#90C187"/>
<path d="M534.178 129.931C537.497 135.199 539.733 141.076 540.755 147.218C542.931 160.816 539.094 172.212 528.154 180.899C520.036 187.357 510.649 190.892 500.523 192.654C485.059 195.352 469.846 193.865 454.753 190.131C441.972 187.049 429.712 182.106 418.368 175.46C407.042 168.757 396.762 160.7 388.362 150.377C384.3 145.373 380.856 139.897 378.106 134.068C375.675 129.042 374.26 123.585 373.942 118.01C373.642 112.341 374.642 106.679 376.867 101.456C379.024 96.2496 382.751 92.2482 386.94 88.6153C389.44 86.5847 392.147 84.8239 395.017 83.3622C400.686 80.3 406.814 78.1762 413.162 77.0733C425.993 74.6696 438.81 75.2476 451.561 77.5995C464.256 79.9555 476.56 84.0686 488.12 89.8201C498.435 94.866 508.037 101.254 516.677 108.817C521.535 113.182 525.937 118.028 529.816 123.28C531.443 125.371 532.761 127.674 534.178 129.931Z" fill="#90C187"/>
<path d="M465.615 194.243C464.851 197.124 464.295 199.817 463.389 202.337C462.734 204.19 462.199 206.054 461.618 207.898C461.444 208.498 461.24 209.09 461.007 209.67C460.943 209.896 460.832 210.107 460.681 210.288C460.53 210.469 460.344 210.616 460.133 210.721C459.922 210.826 459.691 210.885 459.456 210.896C459.221 210.906 458.986 210.867 458.767 210.781C457.434 210.324 456.05 210.033 454.646 209.915C453.791 209.887 453.712 209.319 453.87 208.57C454.185 206.777 455.192 205.219 455.571 203.458C456.254 200.238 457.64 197.213 458.445 194.048C458.629 193.385 458.893 192.859 459.734 193.077C461.648 193.67 463.619 194.061 465.615 194.243Z" fill="#90C187"/>
<path d="M456.898 192.705C456.859 194.918 455.725 196.571 455.201 198.474C454.425 201.662 453.484 204.807 452.381 207.898C452.006 208.92 451.607 209.309 450.526 208.969C449.444 208.629 447.976 208.228 446.673 207.937C445.642 207.704 445.238 207.279 445.521 206.139C446.723 201.36 448.632 196.785 449.712 191.974C449.727 191.818 449.779 191.668 449.864 191.536C449.949 191.404 450.064 191.294 450.199 191.216C450.335 191.137 450.488 191.093 450.644 191.085C450.801 191.078 450.957 191.108 451.1 191.173C453.023 191.674 454.987 192.186 456.898 192.705Z" fill="#90C187"/>
<path d="M441.272 188.223C443.844 188.905 445.661 189.4 447.489 189.853C448.49 190.093 448.649 190.545 448.309 191.548C447.026 195.341 445.925 199.211 444.636 202.974C442.946 207.909 443.838 207.292 438.976 205.651C436.567 204.84 436.717 204.686 437.543 202.246C438.751 198.598 439.833 194.91 440.906 191.226C441.109 190.237 441.231 189.232 441.272 188.223Z" fill="#90C187"/>
<path d="M469.15 212.06C468.952 212.05 468.719 212.06 468.493 212.042C467.79 211.983 467.09 211.911 466.39 211.838C461.623 211.288 462.341 211.351 463.627 207.328C464.672 204.047 465.604 200.729 466.568 197.426C466.717 196.897 466.983 196.415 467.145 195.89C467.452 194.907 467.949 194.609 469.055 194.855C470.595 195.119 472.149 195.29 473.709 195.368C473.827 195.352 473.946 195.368 474.055 195.414C474.164 195.46 474.259 195.535 474.329 195.63C474.399 195.726 474.442 195.838 474.454 195.956C474.466 196.074 474.445 196.193 474.395 196.3C474.275 196.998 474.094 197.683 473.853 198.349C472.149 202.317 471.618 206.664 469.919 210.64C469.711 211.124 469.747 211.738 469.15 212.06Z" fill="#90C187"/>
<path d="M480.543 212.393C481.007 210.278 481.609 208.194 482.344 206.157C482.846 204.917 483.247 203.638 483.541 202.333C483.949 200.486 484.836 198.817 485.321 197.005C485.404 196.619 485.631 196.28 485.955 196.057C486.28 195.834 486.678 195.743 487.067 195.804C488.477 195.807 489.883 195.767 491.282 195.753C492.682 195.74 493.01 195.993 492.418 197.367C490.99 200.79 490.349 204.417 489.284 207.937C489.218 208.157 489.165 208.38 489.104 208.608C488.099 212.332 488.096 212.345 484.146 212.424C483.036 212.486 481.945 212.424 480.543 212.393Z" fill="#90C187"/>
<path d="M483.471 195.962C482.78 198.54 482.33 200.944 481.497 203.196C480.663 205.447 480.049 207.822 479.332 210.119C478.616 212.417 478.354 212.67 475.862 212.52C474.841 212.463 473.824 212.392 472.823 212.289C471.423 212.144 471.273 211.845 471.715 210.489C473.059 206.263 474.394 202.024 475.72 197.77C476.385 195.639 476.43 195.579 478.651 195.692C480.179 195.764 481.655 195.864 483.471 195.962Z" fill="#90C187"/>
<path d="M425.962 181.618C427.837 182.487 429.433 183.325 431.101 183.973C431.314 184.008 431.515 184.097 431.684 184.23C431.854 184.363 431.988 184.537 432.073 184.735C432.158 184.933 432.192 185.15 432.171 185.365C432.151 185.58 432.077 185.786 431.956 185.965C430.923 188.342 430.539 190.959 429.518 193.318C428.649 195.352 428.371 197.544 427.434 199.537C426.872 200.724 426.268 200.858 425.256 200.363C419.871 197.798 420.392 199.211 422.025 193.707C423.193 189.753 424.677 185.878 425.962 181.618Z" fill="#90C187"/>
<path d="M434.038 185.228C435.758 185.926 437.244 186.633 438.797 187.121C439.905 187.469 440.033 187.985 439.797 189.029C439.166 191.868 437.965 194.524 437.204 197.335C436.586 199.587 436.27 201.948 434.938 203.965C433.034 203.93 431.529 202.756 429.802 202.301C428.925 202.081 428.877 201.348 429.087 200.591C429.402 199.132 429.803 197.692 430.286 196.28C431.709 192.711 432.239 188.853 434.038 185.228Z" fill="#90C187"/>
<path d="M419.186 196.787C418.979 196.871 418.756 196.908 418.532 196.896C418.309 196.883 418.092 196.822 417.896 196.715C416.549 196.087 415.251 195.361 414.01 194.544C413.741 194.39 413.539 194.14 413.444 193.845C413.349 193.549 413.367 193.229 413.495 192.946C414.389 189.207 415.768 185.62 416.967 181.977C417.336 180.867 417.687 179.746 418.03 178.629C418.284 177.812 418.681 177.674 419.412 178.114C420.605 178.86 421.837 179.543 423.101 180.16C423.308 180.223 423.498 180.33 423.659 180.474C423.819 180.619 423.945 180.797 424.029 180.996C424.112 181.195 424.151 181.41 424.141 181.626C424.132 181.841 424.075 182.052 423.975 182.243C423.102 185.017 422.354 187.809 421.296 190.497C420.632 192.196 420.243 193.941 419.724 195.637C419.643 196.059 419.458 196.455 419.186 196.787Z" fill="#90C187"/>
<path d="M501.825 194.693C501.036 197.611 500.422 200.44 499.466 203.148C498.737 205.225 498.091 207.323 497.528 209.441C497.469 209.905 497.253 210.335 496.916 210.659C496.579 210.983 496.142 211.183 495.676 211.225C493.927 211.603 492.144 211.808 490.354 211.835C489.851 211.298 490.263 210.753 490.39 210.305C491.395 205.776 493.18 201.477 494.328 196.979C494.393 196.51 494.62 196.077 494.97 195.757C495.319 195.437 495.77 195.25 496.244 195.226C497.987 195.082 499.714 194.437 501.825 194.693Z" fill="#90C187"/>
<path d="M411.314 173.405C412.865 174.302 414.323 175.197 415.834 176.004C416.013 176.079 416.174 176.191 416.308 176.333C416.441 176.474 416.543 176.642 416.607 176.825C416.671 177.009 416.696 177.203 416.68 177.397C416.664 177.591 416.607 177.779 416.514 177.949C415.543 180.927 414.712 183.948 413.615 186.863C413.051 188.323 412.757 189.878 412.166 191.331C411.575 192.784 411.338 192.944 409.936 192.187C408.9 191.65 407.95 190.928 406.921 190.364C406.72 190.291 406.538 190.174 406.386 190.023C406.235 189.872 406.117 189.691 406.043 189.49C405.968 189.29 405.937 189.076 405.953 188.862C405.969 188.649 406.031 188.441 406.134 188.254C407.886 183.328 409.575 178.392 411.314 173.405Z" fill="#90C187"/>
<path d="M510.664 192.314C510.834 193.184 510.733 194.086 510.375 194.898C509.269 199.076 508.168 203.242 506.749 207.329C506.661 207.7 506.473 208.039 506.205 208.31C505.937 208.581 505.599 208.773 505.23 208.864C503.38 209.469 501.481 209.909 499.554 210.178C498.988 209.552 499.328 208.902 499.565 208.39C500.476 206.143 501.203 203.826 501.738 201.461C502.264 199.66 502.879 197.875 503.423 196.086C503.585 195.321 503.994 194.632 504.588 194.125C505.182 193.618 505.927 193.321 506.707 193.282C508 193.046 509.266 192.644 510.664 192.314Z" fill="#90C187"/>
<path d="M404.251 168.541C405.987 169.442 407.618 170.533 409.113 171.793C409.817 172.306 409.518 172.888 409.368 173.473C408.997 174.993 408.265 176.379 407.81 177.89C406.876 181.029 405.717 184.092 404.667 187.206C404.357 188.145 403.819 188.274 403.09 187.719C401.905 186.826 400.785 185.85 399.585 184.988C399.323 184.815 399.136 184.549 399.063 184.244C398.99 183.938 399.036 183.616 399.191 183.343L404.251 168.541Z" fill="#90C187"/>
<path d="M397.848 163.092C399.323 164.271 400.599 165.282 401.871 166.306C402.225 166.568 402.471 166.95 402.565 167.38C402.659 167.81 402.594 168.259 402.381 168.644C401.322 171.094 400.933 173.781 399.928 176.189C399.187 177.932 399.002 179.832 398.081 181.499C397.271 182.966 397.312 182.998 395.897 182.022C392.627 179.757 392.485 179.453 393.65 175.751C394.97 171.63 396.376 167.481 397.848 163.092Z" fill="#90C187"/>
<path d="M520.509 188.059C519.507 191.748 518.799 194.925 517.724 197.997C517.136 199.709 516.667 201.433 516.153 203.137C515.939 203.827 515.733 204.571 514.959 204.745C513.382 205.234 511.88 205.941 510.498 206.844C510.304 206.985 510.075 207.07 509.837 207.087C509.598 207.105 509.359 207.055 509.147 206.943C508.849 206.151 509.313 205.44 509.484 204.695C510.376 200.639 511.96 196.797 513.005 192.789C513.437 191.121 514.841 190.742 516.001 190.118C517.542 189.519 519.047 188.831 520.509 188.059Z" fill="#90C187"/>
<path d="M390.891 177.616C389.813 176.536 388.702 175.475 387.666 174.349C387.317 173.978 387.085 173.513 386.997 173.011C386.909 172.51 386.969 171.993 387.17 171.526C388.354 168.13 389.465 164.709 390.549 161.28C390.866 160.03 391.382 158.84 392.076 157.754C393.65 158.514 394.68 159.905 395.781 161.164C396.382 161.85 396.087 162.656 395.845 163.397C395.024 166.004 394.327 168.63 393.306 171.206C392.769 172.594 392.391 174.004 391.912 175.415C391.688 176.146 391.757 177.014 390.891 177.616Z" fill="#90C187"/>
<path d="M385.133 171.692C384.073 170.17 382.858 169.147 382.149 167.741C381.92 167.378 381.785 166.963 381.758 166.535C381.731 166.107 381.811 165.678 381.993 165.289C383.398 162.299 383.722 158.969 385.046 155.935C385.63 154.588 386.127 153.188 386.704 151.573C387.891 152.862 388.948 154.045 390.046 155.181C390.648 155.81 390.466 156.459 390.288 157.152C389.837 158.729 389.286 160.275 388.637 161.782C387.389 164.965 386.936 168.427 385.133 171.692Z" fill="#90C187"/>
<path d="M518.603 201.642C519.492 198.406 520.198 195.127 521.342 191.959C521.592 191.473 521.787 190.961 521.924 190.431C522.022 189.099 522.513 187.825 523.334 186.771C524.156 185.717 525.271 184.93 526.539 184.51C527.48 184.037 528.392 183.51 529.271 182.932C529.139 184.578 528.75 186.192 528.119 187.717C527.138 190.114 526.401 192.604 525.919 195.149C525.699 196.136 525.277 197.068 524.681 197.884C524.084 198.701 523.326 199.386 522.452 199.897C521.371 200.657 520.155 201.223 519.048 201.862L518.603 201.642Z" fill="#90C187"/>
<path d="M381.929 144.934C382.657 146.064 383.478 147.131 384.383 148.124C384.667 148.398 384.866 148.748 384.957 149.132C385.048 149.516 385.027 149.918 384.896 150.29C383.962 154.098 382.625 157.775 381.372 161.483C381.024 162.512 380.618 163.518 380.235 164.545C379.141 164.072 378.257 163.218 377.746 162.141C377.235 161.065 377.132 159.839 377.458 158.693C378.845 154.216 380.344 149.776 381.929 144.934Z" fill="#90C187"/>
<path d="M375.742 158.197C375.356 157.705 375.2 157.534 375.07 157.348C373.424 155.087 372.731 152.923 374.111 150.026C375.491 147.13 376.116 143.672 377.151 140.453C377.351 139.815 377.263 139.015 378.039 138.669C380.738 141.378 381.09 142.911 379.639 146.097C379.059 147.63 378.568 149.194 378.167 150.782L375.742 158.197Z" fill="#90C187"/>
<path d="M371.961 150.587C371.124 149.43 370.606 148.075 370.457 146.655C370.308 145.235 370.535 143.801 371.114 142.497C372.414 139.234 373.541 135.905 374.491 132.524C374.619 132.228 374.774 131.944 374.956 131.677C375.931 133.622 376.9 135.241 376.29 137.409C375.038 141.786 373.41 145.983 371.961 150.587Z" fill="#90C187"/>
<path d="M528.658 193.329C529.001 191.015 529.593 188.745 530.423 186.557C530.632 186.051 530.81 185.531 530.954 185.002C532.313 180.201 532.313 180.201 536.411 175.701C535.23 182.363 533.195 188.372 528.658 193.329Z" fill="#90C187"/>
<path d="M372.953 124.788C373.421 125.67 373.668 126.653 373.674 127.652C373.679 128.651 373.443 129.636 372.984 130.523C372.252 132.588 371.642 134.695 371.157 136.832C370.62 138.595 369.961 140.303 369.265 142.282C368.759 141.131 368.502 139.886 368.512 138.629C368.521 137.371 368.797 136.131 369.321 134.987C370.287 132.426 371.103 129.81 371.765 127.153C371.851 126.244 372.275 125.4 372.953 124.788Z" fill="#90C187"/>
<path d="M368.824 129.135C369.319 125.347 370.367 121.653 371.935 118.17C372.022 120.287 370.133 127.392 368.824 129.135Z" fill="#90C187"/>
<path d="M334.202 167.462C340.604 178.372 344.762 190.451 346.43 202.99C348.401 217.342 347.855 231.926 344.817 246.09C341.834 260.585 336.137 274.385 328.027 286.764C322.567 295.13 315.637 302.438 307.571 308.333C299.203 314.458 290.023 318.271 279.627 319.054C267.209 319.993 256.219 316.386 246.431 308.828C240.267 303.948 235.075 297.954 231.123 291.158C223.803 279.009 220.122 265.736 218.722 251.792C217.591 240.586 218.016 229.278 219.985 218.188C222.435 203.832 227.591 190.072 235.18 177.641C239.903 169.751 245.858 162.666 252.818 156.655C257.869 152.293 263.519 148.676 269.595 145.913C277.338 142.381 285.84 140.839 294.33 141.426C303.642 142.123 312.53 145.602 319.841 151.413C326.38 156.409 331.608 162.616 334.202 167.462Z" fill="#067821"/>
<path d="M101.43 401.385C95.958 391.789 94.247 382.575 97.0926 372.841C99.3934 365.276 103.906 358.572 110.048 353.593C114.354 350.019 119.065 346.964 124.085 344.491C129.641 341.757 135.478 339.635 141.492 338.163C154.85 334.816 168.675 333.739 182.389 334.977C197.24 336.054 211.765 339.859 225.238 346.199C235.771 351.216 245.227 357.786 252.527 367.029C259.538 375.93 263.411 385.881 261.552 397.462C260.458 403.772 257.665 409.664 253.474 414.506C250.434 418.105 246.922 421.278 243.033 423.939C233.424 430.723 222.629 434.471 211.239 436.837C196.811 439.716 181.984 439.994 167.458 437.659C161.075 436.759 154.769 435.377 148.594 433.526C134.777 429.248 122.005 423.027 111.239 413.106C107.445 409.669 104.144 405.725 101.43 401.385Z" fill="#057820"/>
<path d="M398.467 88.3946C406.121 83.9658 414.672 81.3129 423.489 80.6317C434.471 79.7368 445.526 80.5345 456.266 82.9969C469.192 85.784 481.6 90.5871 493.034 97.2302C503.474 103.104 512.778 110.799 520.507 119.951C523.978 123.923 526.908 128.337 529.22 133.077C531.602 138.205 533.588 143.492 534.007 149.23C534.512 154.259 533.791 159.336 531.906 164.025C530.02 168.714 527.026 172.877 523.181 176.157C519.139 179.651 514.508 182.398 509.504 184.269C495.651 189.758 481.313 189.787 466.818 187.874C461.828 187.247 456.892 186.247 452.052 184.882C436.259 180.19 421.558 173.301 408.55 162.995C402.66 158.416 397.374 153.11 392.817 147.204C386.855 139.355 382.288 130.814 381.303 120.795C380.798 116.646 381.12 112.438 382.25 108.415C383.38 104.391 385.296 100.63 387.887 97.3511C390.738 93.6481 394.344 90.5949 398.467 88.3946Z" fill="#067921"/>
<path d="M265 150.711C271.754 146.496 279.419 143.961 287.355 143.32C300.249 142.343 311.483 146.331 321.278 154.668C328.074 160.55 333.515 167.834 337.225 176.02C341.866 186.085 344.733 196.876 345.7 207.917C346.892 220.528 346.162 233.247 343.535 245.639C340.399 261.172 334.045 275.877 324.882 288.806C320.386 295.154 314.945 300.775 308.747 305.475C306.603 307.183 304.346 308.744 301.991 310.147C296.311 313.517 290.054 315.802 283.538 316.886C277.478 317.909 271.275 317.731 265.283 316.361C258.78 314.723 252.72 311.664 247.539 307.405C242.996 303.662 239.005 299.297 235.683 294.437C228.545 284.294 224.436 272.992 222.157 260.907C220.406 251.312 219.866 241.536 220.551 231.808C221.212 221.913 223.097 212.138 226.162 202.707C230.61 188.791 237.359 176.088 247.223 165.185C252.289 159.391 258.3 154.498 265 150.711Z" fill="#90C187"/>
<path d="M120.099 348.869C129.313 343.954 139.242 340.518 149.524 338.689C163.01 336.359 176.78 336.192 190.318 338.195C196.535 339.113 202.673 340.501 208.681 342.346C220.499 345.709 231.564 351.304 241.278 358.828C245.795 362.473 249.78 366.73 253.12 371.476C256.081 375.538 258.218 380.141 259.41 385.025C261.933 395.291 259.297 404.484 253.031 412.697C249.838 416.676 246.082 420.168 241.88 423.061C234.184 428.639 225.537 431.941 216.465 434.33C200.107 438.645 183.578 438.928 166.953 436.43C154.015 434.592 141.477 430.6 129.858 424.621C121.166 420.061 113.277 414.415 106.94 406.839C101.978 400.898 98.5116 394.207 97.4286 386.435C96.5546 379.76 97.8806 372.983 101.206 367.13C103.898 362.104 107.9 358.284 112.13 354.604C114.582 352.424 117.252 350.502 120.099 348.869Z" fill="#90C187"/>
<path d="M516.106 179.685C508.086 184.486 499.807 186.44 491.232 187.294C480.814 188.185 470.322 187.52 460.1 185.319C446.365 182.539 433.205 177.433 421.188 170.223C411.523 164.629 402.9 157.402 395.703 148.862C393.401 146.193 391.305 143.351 389.434 140.362C384.352 131.835 381.101 122.705 382.704 112.588C383.281 108.811 384.6 105.186 386.585 101.921C388.57 98.6558 391.181 95.8159 394.269 93.5646C403.401 86.6015 413.921 83.773 425.135 82.8137C434.234 82.1934 443.376 82.8179 452.306 84.6699C464.36 86.9775 476.012 91.0351 486.892 96.714C497.834 102.38 507.867 109.32 516.273 118.435C520.15 122.654 523.889 127.009 526.577 132.096C529.662 137.951 531.995 144.094 532.502 150.791C533.197 160.092 529.975 167.876 523.392 174.321C521.251 176.47 518.794 178.279 516.106 179.685Z" fill="#90C187"/>
<path d="M306.756 228.302C308.089 228.339 309.421 228.192 310.715 227.866C311.052 227.796 311.4 227.8 311.736 227.875C312.072 227.951 312.388 228.098 312.663 228.306C312.938 228.513 313.165 228.777 313.329 229.08C313.493 229.383 313.591 229.717 313.616 230.061C313.787 232.322 313.748 234.614 313.845 236.885C313.888 237.097 313.883 237.315 313.831 237.525C313.78 237.735 313.682 237.931 313.546 238.099C313.409 238.266 313.237 238.402 313.042 238.495C312.847 238.589 312.634 238.638 312.418 238.639C311.1 238.833 309.813 239.258 308.498 239.416C308.244 239.399 307.99 239.442 307.756 239.541C307.522 239.64 307.315 239.793 307.151 239.987C306.987 240.181 306.871 240.411 306.812 240.658C306.753 240.906 306.753 241.163 306.812 241.41C306.956 244.391 306.968 247.38 307.041 250.356C307.168 255.072 307.294 259.784 307.418 264.494C307.472 266.414 307.478 266.445 305.685 266.799C303.218 267.282 300.754 267.751 298.279 268.181C297.476 268.41 296.616 268.343 295.859 267.99C295.101 267.638 294.496 267.025 294.153 266.263C292.258 262.568 290.465 258.814 288.621 255.09C288.061 253.961 287.525 252.818 286.876 251.752C285.806 249.831 284.837 247.857 283.971 245.837C283.901 245.636 283.792 245.452 283.649 245.295C283.507 245.137 283.334 245.01 283.142 244.92C282.949 244.83 282.741 244.78 282.528 244.772C282.316 244.764 282.105 244.798 281.906 244.873C279.37 245.395 276.776 245.815 274.268 246.287C272.428 246.657 272.407 246.681 272.48 248.556C272.741 255.926 273.018 263.305 273.311 270.693C273.413 273.267 273.433 273.301 270.941 273.741C268.702 274.148 266.459 274.528 264.211 274.88C263.783 274.985 263.336 274.987 262.906 274.886C262.477 274.784 262.078 274.583 261.742 274.298C261.405 274.012 261.141 273.652 260.972 273.245C260.802 272.838 260.731 272.396 260.764 271.957C260.555 265.042 260.345 258.127 260.135 251.213C260.107 249.198 260.021 249.225 258.134 249.554C257.292 249.751 256.439 249.895 255.58 249.985C255.232 250.026 254.879 249.992 254.546 249.884C254.213 249.776 253.907 249.597 253.649 249.36C253.392 249.123 253.188 248.833 253.053 248.51C252.918 248.187 252.855 247.838 252.867 247.488C252.775 245.363 252.635 243.253 252.595 241.12C252.536 239.543 252.632 239.454 254.238 239.15C255.626 238.882 257.027 238.675 258.409 238.376C260.013 238.029 260.153 237.642 259.842 235.609C259.62 234.125 258.664 234.768 257.895 234.871C257.127 234.975 256.343 235.189 255.566 235.24C255.179 235.31 254.78 235.292 254.4 235.187C254.021 235.083 253.669 234.894 253.372 234.636C253.074 234.377 252.839 234.056 252.683 233.694C252.526 233.332 252.453 232.94 252.468 232.547C252.359 230.51 252.381 228.466 252.268 226.421C252.221 226.191 252.227 225.953 252.287 225.725C252.346 225.498 252.456 225.287 252.61 225.109C252.763 224.93 252.955 224.789 253.171 224.697C253.387 224.604 253.621 224.562 253.856 224.573C255.018 224.424 256.168 224.135 257.32 223.89C259.494 223.429 259.538 223.427 259.492 221.127C259.431 217.837 259.286 214.539 259.163 211.24C258.984 206.804 258.82 202.45 258.688 198.055C258.599 194.952 258.634 194.955 261.553 194.37L268.236 193.031C270.194 192.649 271.666 193.173 272.584 194.901C274.316 198.156 275.946 201.471 277.523 204.793C277.873 205.666 278.277 206.517 278.733 207.34C280.617 210.348 281.937 213.637 283.548 216.781C283.628 217.039 283.76 217.278 283.937 217.483C284.113 217.687 284.33 217.853 284.573 217.971C284.816 218.088 285.081 218.153 285.351 218.164C285.621 218.174 285.89 218.128 286.142 218.03C288.197 217.502 290.282 217.104 292.35 216.715C292.562 216.714 292.771 216.665 292.962 216.572C293.153 216.479 293.32 216.344 293.452 216.178C293.584 216.012 293.676 215.818 293.723 215.611C293.769 215.404 293.769 215.189 293.721 214.982C293.586 212.075 293.601 209.173 293.519 206.259C293.357 200.848 293.16 195.436 292.993 190.017C292.911 187.909 292.911 187.909 295.033 187.478L301.494 186.187C304.275 185.637 305.324 186.393 305.461 189.128C305.636 193.362 305.737 197.605 305.881 201.845C305.991 205.375 306.113 208.909 306.249 212.447C306.22 212.651 306.232 212.859 306.284 213.059C306.337 213.258 306.43 213.445 306.557 213.608C307.62 213.61 308.677 213.455 309.695 213.147C312.179 212.734 313.29 213.477 313.358 215.934C313.444 217.813 313.505 219.707 313.556 221.584C313.59 223.176 313.398 223.434 311.779 223.813C310.564 224.126 309.332 224.367 308.089 224.537C306.795 224.694 306.306 225.282 306.563 226.552C306.686 227.139 306.674 227.668 306.756 228.302Z" fill="#067A23"/>
<path d="M159.333 372.425L166.309 375.978C168.344 377.005 170.445 377.913 172.388 379.096C173.094 379.586 173.933 379.848 174.792 379.847C175.652 379.846 176.49 379.581 177.195 379.089C180.482 377.236 184.051 375.934 187.76 375.236C195.758 373.525 204.107 374.909 211.125 379.108C214.709 381.17 217.947 383.613 219.824 387.454C220.884 389.477 221.451 391.722 221.481 394.006C221.51 396.291 221 398.549 219.992 400.599C219.093 402.481 219.047 402.461 220.973 403.438C222.375 404.137 223.798 404.813 225.185 405.545C226.778 406.339 227.048 407.612 225.888 408.963C224.774 410.172 223.597 411.322 222.361 412.407C221.719 413.004 221.069 412.665 220.431 412.386C218.308 411.342 216.172 410.374 214.045 409.344C213.383 409.023 212.79 408.763 212.107 409.328C207.492 413.127 201.935 414.372 196.189 415.034C190.26 415.712 184.618 414.373 179.07 412.526C177.174 411.896 176.71 410.246 177.99 408.69C179.72 406.557 181.585 404.538 183.338 402.425C183.69 401.965 184.189 401.638 184.752 401.499C185.315 401.359 185.909 401.416 186.435 401.658C189.818 402.7 193.392 402.964 196.89 402.431C197.186 402.373 197.47 402.255 197.988 402.092C197.475 401.398 196.774 400.866 195.968 400.558C191.276 398.171 186.541 395.787 181.878 393.43C181.532 393.246 181.145 393.156 180.754 393.169C180.363 393.182 179.982 393.296 179.65 393.502C176.914 394.863 174.059 395.971 171.122 396.814C159.852 399.701 149.609 397.683 140.755 389.994C138.304 387.907 136.688 385.006 136.203 381.823C135.719 378.641 136.398 375.39 138.117 372.668C138.323 372.356 138.477 371.995 138.711 371.554C137.336 370.631 135.893 369.813 134.394 369.11C132.39 367.997 132.111 366.649 133.837 365.097C138.451 360.923 136.409 361.081 142.009 363.783C142.379 363.918 142.732 364.094 143.062 364.31C144.219 365.253 145.241 364.958 146.46 364.3C151.267 361.717 156.279 359.686 161.845 359.695C166.253 359.561 170.644 360.31 174.759 361.896C176.244 362.503 176.807 363.891 175.836 365.099C173.843 367.543 171.766 369.843 169.753 372.253C169.153 372.963 168.526 372.78 167.836 372.588C166.09 372.12 164.297 371.85 162.491 371.782C161.397 371.646 160.287 371.872 159.333 372.425Z" fill="#067C24"/>
<path d="M468.205 155.016C468.311 155.023 468.402 155.061 468.448 155.023C472.735 151.827 477.709 149.674 482.974 148.736C484.511 148.426 486.026 148.018 487.511 147.513C490.146 146.62 492.336 144.746 493.625 142.28C494.568 140.533 494.725 140.51 496.52 141.222C499.578 142.482 502.59 143.769 505.557 145.082C507.087 145.765 507.263 146.208 506.948 147.865C506.695 148.935 506.22 149.94 505.554 150.815C502.559 155.279 498.193 157.72 493.207 159.305C489.838 160.388 486.369 160.983 482.95 161.823C477.071 163.276 472.203 166.087 469.229 171.628C468.316 173.29 468.213 173.27 466.497 172.479C463.38 171.011 460.246 169.552 457.094 168.103C455.516 167.335 455.521 167.344 455.73 165.407C456.043 163.389 456.085 161.339 455.853 159.31C455.063 154.365 451.761 151.358 447.918 148.731C447.588 148.511 447.195 148.404 446.799 148.428C446.403 148.452 446.026 148.604 445.725 148.863C443.886 149.924 441.942 150.763 440.048 151.709C439.654 151.957 439.187 152.064 438.724 152.012C438.26 151.96 437.829 151.751 437.499 151.421C435.568 149.825 433.581 148.271 431.649 146.674C430.028 145.34 430.191 143.794 432.057 142.603C433.007 142.183 433.875 141.597 434.621 140.873C433.762 140.042 432.792 139.334 431.738 138.77C427.647 135.982 424.22 132.327 421.7 128.066C419.089 123.74 420.482 116.286 423.182 113.218C427.73 108.005 433.553 105.472 440.228 104.75C448.881 103.817 456.704 106.222 463.794 111.151C465.568 112.396 465.546 114.383 463.71 115.488C461.414 116.849 459.203 118.349 457.09 119.98C456.621 120.453 455.984 120.722 455.319 120.728C454.653 120.734 454.011 120.477 453.534 120.013C451.763 118.695 449.74 117.754 447.591 117.248C444.918 116.563 442.109 116.616 439.464 117.401C438.17 117.752 437.011 118.481 436.133 119.494C434.761 121.047 434.751 121.915 435.666 123.736C436.636 125.525 438.01 127.063 439.678 128.228C442.226 130.067 444.875 131.762 447.613 133.304C448.598 133.87 449.318 133.545 450.229 133.178C453.719 131.753 456.868 129.64 460.361 128.202C460.767 127.979 461.233 127.892 461.692 127.954C462.151 128.016 462.577 128.224 462.909 128.547C464.865 130.243 466.873 131.932 468.788 133.618C470.266 134.921 470.125 136.466 468.321 137.292C466.242 138.231 464.206 139.225 462.227 140.356C460.448 141.383 460.457 141.379 461.895 142.75C463.335 143.964 464.557 145.415 465.508 147.041C466.295 148.215 466.889 149.509 467.265 150.872C467.614 152.282 467.921 153.659 468.205 155.016Z" fill="#067C24"/>
<path d="M253.72 247.983L253.455 242.315C253.373 240.365 253.373 240.365 255.356 239.946C256.734 239.661 258.109 239.31 259.501 239.108C259.697 239.117 259.891 239.08 260.07 239C260.248 238.92 260.405 238.799 260.529 238.648C260.652 238.496 260.738 238.317 260.779 238.126C260.821 237.935 260.817 237.737 260.768 237.548C260.649 236.142 260.568 234.724 260.523 233.309C260.503 232.47 260.111 232.242 259.343 232.288C257.704 232.46 256.079 232.746 254.481 233.144C253.663 233.32 253.256 232.988 253.296 232.193C253.355 230.39 253.305 228.584 253.148 226.787C253.113 226.614 253.118 226.436 253.162 226.266C253.207 226.096 253.289 225.938 253.403 225.805C253.517 225.671 253.66 225.565 253.821 225.495C253.982 225.424 254.157 225.392 254.333 225.399C255.803 225.174 257.275 224.835 258.715 224.537C260.527 224.217 260.542 224.243 260.498 222.555C260.431 220.199 260.37 217.851 260.281 215.496C260.089 209.555 259.875 203.596 259.64 197.62C259.57 195.867 259.577 195.84 261.335 195.506C263.631 195.02 265.96 194.651 268.252 194.1C268.466 194.009 268.697 193.963 268.93 193.963C269.163 193.963 269.394 194.01 269.608 194.101C269.823 194.192 270.017 194.325 270.179 194.493C270.341 194.66 270.467 194.858 270.551 195.076C271.715 197.028 272.743 199.058 273.628 201.152C274.551 203.395 275.638 205.566 276.88 207.649C278.626 211.067 280.09 214.624 282.059 217.936C282.683 219.017 283.271 219.506 284.684 219.201C287.486 218.491 290.337 217.946 293.194 217.431C293.405 217.433 293.614 217.388 293.805 217.299C293.996 217.21 294.165 217.079 294.298 216.915C294.432 216.752 294.527 216.561 294.577 216.356C294.626 216.151 294.629 215.938 294.585 215.731C294.455 210.711 294.452 205.674 294.302 200.677C294.232 197.313 294.038 193.93 293.933 190.564C293.871 188.807 293.968 188.66 295.576 188.299C297.488 187.876 299.407 187.486 301.335 187.13C302.973 186.842 303.249 187.046 303.301 188.786C303.437 192.952 303.558 197.093 303.627 201.262C303.703 205.757 303.815 210.334 303.913 215.044C305.834 215.069 307.622 214.332 309.461 214.235C310.944 214.151 310.962 214.084 311.056 215.584C311.15 217.084 311.138 218.419 311.327 219.807C311.516 221.196 310.872 221.613 309.742 221.857C308.274 222.126 306.825 222.486 305.356 222.733C304.641 222.85 304.168 223.112 304.18 223.9C304.209 225.619 304.255 227.351 304.297 229.075C304.319 229.8 304.741 230.021 305.394 229.894C306.856 229.595 308.32 229.34 309.769 228.98C310.757 228.727 311.247 228.887 311.323 230C311.407 231.483 311.667 232.956 311.743 234.444C311.819 235.932 311.487 236.339 309.993 236.68C308.69 236.978 307.393 237.307 306.074 237.479C304.755 237.651 304.375 238.29 304.446 239.553C304.63 242.682 304.739 245.819 304.834 248.952C304.978 253.499 305.1 258.047 305.2 262.597C305.237 264.312 305.145 264.467 303.492 264.808C301.187 265.277 298.866 265.641 296.561 266.109C296.223 266.221 295.856 266.206 295.528 266.068C295.2 265.93 294.933 265.678 294.777 265.358C294.134 264.372 293.545 263.352 293.013 262.303C291.147 258.069 289.069 253.958 286.955 249.845C285.91 247.838 285.074 245.722 283.951 243.738C283.752 243.23 283.361 242.821 282.861 242.601C282.362 242.381 281.796 242.368 281.287 242.564C278.004 243.324 274.701 243.972 271.391 244.567C270.368 244.76 270.139 245.21 270.169 246.146C270.341 250.767 270.46 255.396 270.61 260.019C270.72 263.236 270.82 266.457 271.004 269.664C271.063 269.889 271.067 270.125 271.017 270.352C270.966 270.579 270.862 270.79 270.714 270.969C270.566 271.148 270.377 271.289 270.163 271.38C269.949 271.472 269.717 271.511 269.485 271.495C267.463 271.766 265.475 272.255 263.474 272.582C261.879 272.845 261.735 272.656 261.684 271.074C261.443 263.383 261.2 255.697 260.956 248.015C260.929 247.044 260.46 246.724 259.613 246.907C258.16 247.201 256.731 247.595 255.274 247.903C254.759 247.97 254.239 247.997 253.72 247.983Z" fill="#90C187"/>
<path d="M155.609 371.398C161.51 374.8 167.586 377.442 173.49 380.513C173.755 380.686 174.055 380.796 174.369 380.835C174.682 380.874 175.001 380.841 175.3 380.739C176.597 380.195 177.918 379.693 179.171 379.072C185.609 375.695 193 374.6 200.14 375.964C206.195 377.154 211.763 379.466 216.071 383.901C220.983 388.93 221.939 393.79 218.102 400.057C217.915 400.403 217.684 400.723 217.415 401.01C216.445 401.944 216.911 402.435 217.889 402.892C219.797 403.799 221.691 404.759 223.564 405.743C225.142 406.512 225.128 406.645 223.942 407.794C221.264 410.408 222.075 410.575 218.451 408.877C216.922 408.194 215.476 407.44 214.033 406.65C213.638 406.401 213.176 406.279 212.709 406.299C212.242 406.319 211.793 406.481 211.42 406.763C210.111 407.621 208.697 408.335 207.335 409.121C202.696 411.799 197.605 412.572 192.396 412.493C187.67 412.555 182.999 411.485 178.771 409.374C180.586 407.191 182.35 405.038 184.15 402.967C184.444 402.643 184.83 402.417 185.256 402.319C185.682 402.221 186.128 402.255 186.534 402.418C188.208 402.885 189.916 403.216 191.643 403.406C195.007 403.742 198.402 403.279 201.552 402.054C201.752 401.997 201.934 401.893 202.085 401.75C202.236 401.608 202.351 401.432 202.419 401.236C202.114 400.413 201.216 400.331 200.585 400.025C194.789 397.062 188.97 394.158 183.16 391.248C182.497 390.869 181.75 390.663 180.986 390.65C180.223 390.637 179.468 390.816 178.792 391.171C173.521 393.579 168.042 395.528 162.094 395.388C153.93 395.222 146.694 392.614 140.753 386.943C139.204 385.361 138.08 383.415 137.485 381.283C136.435 377.872 137.679 374.975 139.571 372.238C141.219 369.845 141.197 369.846 138.675 368.545C137.29 367.835 135.936 367.062 134.534 366.305C134.918 364.768 136.247 364.182 137.074 363.216C137.555 362.633 138.193 362.933 138.788 363.237C140.187 363.95 141.657 364.531 143.001 365.344C144.344 366.157 145.403 365.908 146.7 365.205C151.281 362.742 156.043 360.81 161.335 360.58C165.42 360.454 169.496 361.047 173.376 362.332C174.633 362.741 174.722 363.11 173.881 364.151C172.75 365.553 171.499 366.865 170.447 368.324C170.01 369.032 169.333 369.56 168.54 369.81C167.746 370.059 166.889 370.015 166.125 369.684C162.882 368.606 159.773 369.414 156.686 370.356C156.432 370.421 156.198 370.552 156.009 370.734C155.82 370.917 155.682 371.146 155.609 371.398Z" fill="#90C187"/>
<path d="M457.6 140.361C463.873 144.683 467.34 150.057 467.325 157.521C468.449 156.632 469.512 155.67 470.507 154.64C473.031 152.23 476.215 151.515 479.366 150.604C481.988 149.839 484.65 149.221 487.286 148.459C490.07 147.583 492.457 145.755 494.029 143.295C495.204 141.675 495.255 141.645 497.046 142.427C499.551 143.523 502.072 144.587 504.562 145.736C506.247 146.511 506.298 146.777 505.307 148.382C504.064 150.382 502.383 152.075 500.391 153.331C496.083 156.09 491.249 157.349 486.317 158.437C482.489 159.275 478.73 160.174 475.288 162.252C473.179 163.611 471.405 165.431 470.099 167.574C468.088 170.596 468.977 170.661 465.23 168.967C462.885 167.892 460.573 166.798 458.174 165.767C457.969 165.713 457.778 165.616 457.613 165.483C457.448 165.35 457.313 165.184 457.217 164.995C457.121 164.806 457.065 164.599 457.055 164.388C457.044 164.176 457.079 163.965 457.155 163.767C457.366 162.372 457.417 160.956 457.307 159.549C457.257 155.708 455.57 152.609 453.043 149.903C451.774 148.531 450.372 147.288 448.858 146.191C448.456 145.821 447.935 145.607 447.388 145.587C446.842 145.567 446.307 145.744 445.879 146.084C444.161 147.18 442.329 148.085 440.415 148.785C440.007 149.01 439.541 149.105 439.078 149.058C438.615 149.011 438.177 148.824 437.823 148.522L432.222 143.892C434.064 142.227 436.358 141.504 438.182 140.122C437.994 139.266 437.244 139.029 436.671 138.725C432.501 136.533 428.754 133.617 425.605 130.112C423.584 127.893 422.177 125.185 421.523 122.256C421.119 119.986 421.567 117.647 422.78 115.686C425.184 111.438 429.073 109.034 433.44 107.262C439.532 104.88 445.722 105.107 451.944 106.429C455.68 107.365 459.212 108.98 462.365 111.192C463.621 112.011 463.637 112.727 462.506 113.539C460.451 114.953 458.062 115.867 456.242 117.667C455.639 118.253 454.902 117.862 454.308 117.422C451.965 115.819 449.304 114.742 446.506 114.266C444.825 113.862 443.079 113.809 441.377 114.112C439.675 114.415 438.054 115.067 436.617 116.027C435.417 116.862 434.559 118.103 434.201 119.521C433.844 120.939 434.011 122.438 434.671 123.743C435.649 125.723 437.102 127.43 438.901 128.711C441.55 130.586 444.403 132.343 447.162 134.154C447.661 134.533 448.271 134.737 448.897 134.734C449.523 134.732 450.131 134.523 450.626 134.14C453.677 132.231 457.198 131.175 460.219 129.135C460.922 128.661 461.69 128.479 462.326 129.246C463.693 130.886 465.602 131.894 467.094 133.416C468.34 134.671 468.296 134.889 466.591 135.533C463.543 136.68 460.96 138.614 457.6 140.361Z" fill="#90C187"/>
<path d="M278.019 231.753C278.446 232.493 278.879 233.242 279.306 233.983C279.734 234.723 279.448 235.172 278.648 235.339C276.199 235.833 273.751 236.35 271.31 236.84C270.497 237.003 269.962 236.824 269.954 235.808C269.935 234.321 269.798 232.845 269.742 231.391C269.711 231.216 269.718 231.037 269.762 230.865C269.807 230.693 269.887 230.532 269.998 230.394C270.11 230.255 270.249 230.142 270.408 230.062C270.566 229.982 270.74 229.937 270.917 229.929C271.615 229.821 272.307 229.683 272.968 229.551C276.98 228.676 276.119 228.56 278.019 231.753Z" fill="#057B22"/>
<path d="M286.403 226.935C288.895 226.218 291.423 225.637 293.977 225.194C294.09 225.153 294.211 225.141 294.329 225.16C294.448 225.179 294.56 225.227 294.654 225.3C294.749 225.374 294.823 225.47 294.87 225.58C294.918 225.691 294.936 225.811 294.924 225.93C295.023 227.575 295.122 229.22 295.185 230.863C295.186 231.177 295.106 231.485 294.952 231.758C294.32 232.883 289.882 233.255 289.223 232.172C288.097 230.533 287.151 228.777 286.403 226.935Z" fill="#068024"/>
<path d="M269.495 215.771C270.698 217.137 271.617 218.728 272.198 220.452C272.55 221.633 272.093 221.784 271.208 221.942C269.866 222.173 269.572 222.036 269.53 220.824C269.459 219.128 269.504 217.457 269.495 215.771Z" fill="#057D23"/>
<path d="M186.548 386.955C188.22 386.568 189.52 385.715 191.006 385.243C196.192 383.611 200.77 384.996 204.997 387.855C205.973 388.456 206.778 389.296 207.337 390.296C207.897 391.296 208.191 392.422 208.193 393.567C208.217 394.353 208.053 395.133 207.713 395.842C206.885 397.454 206.896 397.551 205.329 396.764C199.316 393.752 193.31 390.726 187.309 387.684C187.03 387.469 186.774 387.225 186.548 386.955Z" fill="#057B24"/>
<path d="M168.551 383.989C163.394 386.966 154.656 386.769 151.016 381.959C150.346 381.067 149.915 380.018 149.766 378.913C149.616 377.807 149.752 376.682 150.162 375.644C150.561 374.823 151.077 374.968 151.698 375.279C153.937 376.403 156.19 377.497 158.413 378.653C161.693 380.345 164.996 382.115 168.551 383.989Z" fill="#067B25"/>
<path d="M277.227 232.346C278.155 233.955 278.016 234.342 276.33 234.725C275.579 234.898 274.824 235.084 274.055 235.187C273.287 235.291 272.507 235.866 272.23 234.561C271.868 232.853 272.112 232.156 273.358 231.856C274.035 231.692 274.734 231.606 275.394 231.452C275.573 231.386 275.763 231.356 275.954 231.365C276.144 231.374 276.331 231.422 276.502 231.506C276.674 231.589 276.826 231.707 276.951 231.852C277.075 231.996 277.169 232.164 277.227 232.346Z" fill="#90C187"/>
<path d="M289.682 228.82C290.265 228.121 291.133 228.209 291.869 228.068C292.605 227.927 293.359 227.367 293.799 228.089C294.036 228.498 294.174 228.957 294.203 229.43C294.231 229.902 294.149 230.374 293.962 230.809C293.564 231.731 292.5 231.54 291.672 231.677C291.475 231.687 291.28 231.633 291.116 231.523C290.952 231.413 290.829 231.253 290.763 231.067C290.373 230.351 289.671 229.746 289.682 228.82Z" fill="#90C187"/>
<path d="M206.327 395.995C201.041 393.543 196.049 390.99 190.741 388.222C192.741 387.347 194.944 387.041 197.107 387.338C200.001 387.693 202.732 388.874 204.972 390.74C206.844 392.292 207.221 393.652 206.327 395.995Z" fill="#90C187"/>
<path d="M164.049 384.386C163.599 384.699 163.092 384.919 162.556 385.034C162.02 385.149 161.466 385.155 160.928 385.054C157.835 385.14 154.808 384.153 152.36 382.261C151.898 381.96 151.513 381.554 151.237 381.077C150.962 380.599 150.802 380.063 150.773 379.512C150.75 378.334 151.315 377.917 152.401 378.402C153.955 379.128 155.538 379.904 157.04 380.717C159.354 381.934 161.623 383.132 164.049 384.386Z" fill="#90C187"/>
</g>
<defs>
<clipPath id="clip0_66_865">
<rect width="549.68" height="283.64" fill="white" transform="translate(0 274.84) rotate(-30)"/>
</clipPath>
</defs>
</svg>
