<svg width="1144" height="952" viewBox="0 0 1144 952" fill="none" xmlns="http://www.w3.org/2000/svg">
<path d="M221.686 872.863C211.862 871.738 202.043 870.594 192.204 869.523C174.706 867.625 157.339 864.944 140.102 861.479C104.384 854.52 70.1785 841.349 38.9443 822.527C23.989 813.195 8.39389 804.973 -7.72465 797.921C-30.2535 788.379 -53.3557 781.235 -77.8173 778.304C-105.395 774.991 -133.185 774.524 -160.842 772.37C-167.425 771.856 -167.975 770.599 -168.743 764.67C-171.904 739.641 -172.765 714.322 -171.313 689.045C-168.618 640.641 -159.506 592.73 -144.232 546.643C-134.872 517.522 -122.427 489.502 -107.122 463.093C-106.348 461.951 -105.642 460.763 -105.008 459.535C-103.503 456.079 -101.104 455.875 -97.7868 456.546C-75.4373 460.933 -52.8255 463.912 -30.077 465.465C-11.6303 466.905 6.96368 465.77 25.2006 462.092C38.1234 459.385 50.4675 454.173 61.57 446.736C81.3973 433.364 99.9403 418.053 116.935 401.021C124.653 393.483 132.407 385.819 140.299 378.464C156.219 363.295 174.015 350.367 193.208 340.028C231.321 319.753 260.102 289.443 282.703 252.454C291.899 237.384 299.977 221.616 310.721 207.578C312.326 205.293 313.542 202.748 314.314 200.054C320.043 183.031 325.836 166.046 331.599 149.034C333.57 143.556 335.838 138.191 338.393 132.966C345.683 117.269 358.127 112.208 373.962 116.38C382.354 118.398 390.116 122.474 396.59 128.265C403.065 134.055 408.061 141.388 411.158 149.645C417.122 164.941 419.705 181.463 418.721 198.028C417.353 224.768 412.429 250.751 401.989 275.548C395.942 290.448 388.498 304.728 379.766 318.181C366.643 337.873 353.455 357.528 340.486 377.34C331.377 391.081 324.117 406.007 318.906 421.703C315.833 431.134 315.422 428.772 323.362 432.628C349.472 445.258 376.887 454.144 404.723 461.985C423.022 466.933 440.937 473.211 458.332 480.773C476.317 488.799 493.392 498.412 507.504 512.817C519.548 525.157 529.159 539.24 530.498 557.125C532.138 579.045 527.296 599.278 509.471 614.252C504.786 618.018 499.487 620.884 493.834 622.706C488.919 624.477 483.979 626.202 479.057 627.933C479.348 630.59 481.443 631.347 482.887 632.621C498.104 646.017 504.182 662.895 500.824 683.521C499.713 691.836 497.499 699.974 494.245 707.707C485.774 726.369 471.328 736.2 452.014 739.215C448.21 739.823 444.379 740.19 440.13 740.713C442.563 745.439 445.692 749.815 446.514 755.081C449.949 777.016 446.265 797.396 431.021 814.271C421.137 825.216 408.304 830.325 393.82 830.46C392.209 830.729 392.151 829.725 392.332 828.535C393.722 826.365 395.988 825.969 398.198 825.499C429.922 818.827 437.733 802.132 442.506 775.681C444.745 763.325 440.999 752.946 435.319 742.784C434.921 741.738 434.893 740.576 435.241 739.498C435.589 738.42 436.29 737.495 437.223 736.882C442.032 734.346 447.384 734.711 452.468 734.014C478.531 730.514 491.814 707.554 495.445 687.701C499.65 664.772 493.775 646.556 475.37 632.97C473.595 631.922 472.271 630.229 471.652 628.216C471.619 627.651 471.698 627.082 471.883 626.545C472.068 626.007 472.355 625.511 472.729 625.087C479.155 621.451 486.398 620.27 493.176 617.661C513.739 609.822 522.233 593.298 525.428 572.723C528.308 554.152 521.857 538.41 510.85 524.5C496.813 506.725 478.402 494.842 457.989 486.315C435.607 476.716 412.557 468.795 389.015 462.613C367.061 457.067 346.363 448.151 325.508 439.598C317.907 436.476 317.437 436.617 315.124 444.458C314.403 447.882 313.364 451.232 312.022 454.463C311.783 455.121 311.336 455.68 310.754 456.049C310.171 456.418 309.488 456.575 308.815 456.495C307.702 456.186 307.271 454.904 307.047 453.756C306.261 449.509 307.479 445.469 308.413 441.371C315.847 406.633 333.757 377.212 353.501 348.475C368.437 326.711 384.109 305.268 394.514 280.461C408.226 247.741 416.091 214.014 412.824 178.411C411.433 163.204 407.896 148.505 397.486 137.028C386.195 124.607 372.79 117.159 355.277 121.914C353.899 122.558 352.821 123.672 351.492 124.406C348.175 126.896 345.558 130.251 343.919 134.116C338.105 145.459 333.458 157.379 330.053 169.68C326.916 181.36 322.132 192.427 318.64 203.969C318.279 205.02 317.849 206.046 317.354 207.04C308.195 218.646 300.208 231.173 293.52 244.422C289.958 251.296 290.199 252.99 295.599 258.231C298.368 260.939 301.855 262.684 304.769 265.141C305.981 266.175 307.412 267.561 306.716 269.189C305.843 271.251 303.673 270.899 301.936 270.474C297.862 269.164 294.129 266.949 291.001 263.984C284.587 258.751 283.107 259.153 279.949 267.34C279.727 268.001 279.54 268.674 279.388 269.354C278.882 270.642 277.92 271.691 276.699 272.286C269.153 280.415 262.387 289.245 255.05 297.568C238.531 316.082 218.961 331.444 197.275 342.922C176.541 354.259 157.4 368.494 140.407 385.216C120.889 404.252 101.54 423.491 79.8463 440.043C65.5998 450.841 50.7245 460.127 33.5549 464.997C3.56936 472.695 -26.5179 471.531 -56.6003 467.52C-68.6333 465.916 -80.7746 465.173 -92.5239 461.943C-97.7861 460.518 -101.856 462.349 -104.574 467.404C-113.715 484.368 -121.794 501.822 -129.309 519.607C-140.065 544.8 -146.215 571.352 -153.508 597.567C-159.376 618.657 -161.886 640.411 -164.245 662.09C-167.488 691.93 -168.595 721.842 -165.668 751.733C-164.129 767.484 -164.321 767.702 -149.341 768.344C-128.637 769.222 -107.868 770.002 -87.2995 772.044C-59.2482 774.906 -31.8445 782.086 -6.00171 793.344C21.9291 805.492 47.0418 823.056 74.6784 835.723C80.8845 838.91 87.3666 841.511 94.046 843.494C98.65 844.658 102.867 846.878 107.286 848.436C121.548 853.411 136.536 855.508 151.32 858.537C167.422 861.815 183.681 863.452 199.923 865.685C206.787 866.832 213.734 867.437 220.705 867.495C224.139 868.625 225.67 870.194 221.686 872.863Z" fill="#100503"/>
<path d="M239.441 1039.92C234.798 1045.7 230.147 1051.85 221.599 1053.21C213.563 1054.48 205.619 1056.76 197.727 1058.19C196.4 1058.4 195.15 1058.98 194.121 1059.88C193.092 1060.78 192.325 1061.96 191.91 1063.27C188.705 1070.75 185.262 1078.14 182.207 1085.76C179.993 1091.16 176.588 1095.97 172.265 1099.81C166.937 1104.68 163.262 1104.08 159.88 1097.72C154.488 1087.6 149.119 1077.46 144.148 1067.11C142.082 1062.82 139.184 1061.31 134.716 1060.94C124.168 1060.06 113.658 1058.71 103.126 1057.5C101.78 1057.35 100.455 1057.06 99.1701 1056.63C94.3384 1054.94 92.9314 1050.63 95.8148 1046.26C96.5821 1045.13 97.4529 1044.08 98.4152 1043.11C106.359 1034.77 114.231 1026.2 122.499 1018.24C123.803 1017.16 124.776 1015.72 125.296 1014.1C125.815 1012.47 125.858 1010.73 125.418 1009.09C123.598 999.54 121.971 989.963 120.292 980.372C119.397 976.3 120.023 972.005 122.047 968.333C124.071 964.661 127.346 961.879 131.226 960.536C134.091 959.396 136.565 960.607 138.954 961.853C147.534 966.371 156.152 970.822 164.578 975.626C168.866 978.059 172.432 978.644 176.972 975.529C184.527 970.328 192.608 965.932 200.481 961.206C201.818 960.316 203.215 959.526 204.661 958.844C210.69 956.434 215.256 959.486 215.141 966.098C214.922 969.576 214.49 973.041 213.848 976.47C212.69 984.536 211.608 992.604 210.267 1000.66C210.005 1002.26 210.17 1003.9 210.742 1005.4C211.315 1006.9 212.274 1008.2 213.518 1009.17C220.285 1015.56 227.025 1021.96 233.739 1028.36C235.352 1029.97 236.859 1031.68 238.252 1033.49C238.887 1034.4 239.321 1035.45 239.526 1036.56C239.732 1037.67 239.703 1038.82 239.441 1039.92Z" fill="#352814"/>
<path d="M539.468 286.926C548.78 291.105 558.573 295.709 568.538 299.895C582.403 305.69 577.977 305.64 589.948 298.103C599.252 292.207 608.12 285.724 617.332 279.55C624.21 275.033 627.859 276.667 632.193 283.452C637.996 292.428 638.46 301.739 636.628 311.961C635.26 319.504 634.949 327.224 633.812 334.811C633.497 336.274 633.623 337.793 634.172 339.165C634.722 340.536 635.669 341.695 636.887 342.485C644.095 348.365 651.072 354.471 658.333 360.23C661.861 362.701 664.496 366.295 665.844 370.475C666.886 373.016 668.075 375.488 669.406 377.878C672.34 384.506 669.92 389.837 662.949 391.792C650.062 395.413 637.168 399.129 624.194 402.319C622.234 402.686 620.407 403.624 618.933 405.02C617.458 406.416 616.397 408.212 615.876 410.194C611.218 423.098 606.026 435.833 600.976 448.666C599.485 452.475 597.397 455.807 592.904 456.262C588.412 456.716 585.879 453.765 583.891 450.267C577.096 438.323 570.216 426.413 563.712 414.298C563.037 412.747 561.938 411.436 560.547 410.524C559.155 409.611 557.531 409.135 555.868 409.152C543.705 408.557 531.566 407.466 519.394 407.102C513.002 406.912 508.626 404.591 506.439 398.306C505.824 396.819 505.126 395.37 504.349 393.967C500.438 385.866 500.763 383.283 506.69 376.525C515.208 366.787 523.671 356.977 532.355 347.382C533.565 346.204 534.435 344.705 534.863 343.057C535.292 341.408 535.263 339.677 534.78 338.061C532.335 327.249 530.293 316.337 528.166 305.459C527.58 302.517 527.157 299.541 526.899 296.544C526.294 288.414 531.374 284.364 539.468 286.926Z" fill="#342C14"/>
<path d="M-4.96943 349.285C-7.77904 352.649 -10.4123 356.12 -13.3883 359.341C-15.034 361.461 -17.3247 362.951 -19.8808 363.565C-22.4368 364.178 -25.105 363.878 -27.4431 362.715C-44.1203 355.847 -60.9049 349.299 -77.5197 342.274C-79.3941 341.322 -81.5039 340.948 -83.5989 341.196C-85.6939 341.444 -87.686 342.304 -89.339 343.674C-104.301 354.35 -119.546 364.696 -134.603 375.171C-136.108 376.205 -137.594 377.303 -139.196 378.213C-148.362 383.412 -157.056 378.359 -156.727 367.68C-156.49 359.551 -155.678 351.447 -154.993 343.328C-153.96 331.062 -153.124 318.761 -151.597 306.537C-151.002 301.84 -152.537 299.476 -155.833 296.776C-168.793 286.178 -181.523 275.294 -194.249 264.393C-204.348 255.772 -204.599 251.421 -195.577 241.688C-179.918 224.735 -187.072 228.964 -165.631 223.422C-155.959 220.921 -146.296 218.379 -136.565 216.204C-134.814 215.983 -133.161 215.221 -131.823 214.019C-130.485 212.818 -129.526 211.233 -129.072 209.475C-124.51 195.77 -119.436 182.246 -114.722 168.603C-113.411 164.614 -111.121 161.025 -108.077 158.189C-104.348 154.752 -100.931 150.956 -97.2487 147.486C-91.851 142.363 -87.0913 142.564 -81.2637 147.749C-81.455 149.11 -82.4451 149.571 -83.5567 149.862C-93.1636 149.708 -94.3554 150.422 -97.6431 160.084C-102.705 175.316 -107.966 190.454 -113.179 205.625C-114.019 208.642 -115.635 211.382 -117.856 213.551C-120.076 215.721 -122.818 217.239 -125.788 217.943C-141.341 222.256 -156.992 225.98 -172.612 229.926C-177.973 231.282 -182.339 233.709 -184.705 239.114C-185.422 240.385 -186.46 241.436 -187.706 242.154C-198.26 248.167 -198.943 255.067 -189.515 262.126C-177.206 271.362 -166.146 282.187 -153.97 291.561C-148.893 295.472 -147.045 300.345 -147.158 307.016C-147.721 323.519 -150.866 339.807 -151.371 356.307C-151.454 358.221 -151.668 360.002 -151.793 361.865C-152.61 374.501 -149.316 376.87 -138.476 371.517C-129.919 367.699 -123.338 360.948 -115.589 355.995C-115.127 355.542 -114.63 355.13 -114.103 354.761C-104.798 349.602 -96.4416 342.802 -87.7956 336.51C-87.3038 336.073 -86.7601 335.704 -86.178 335.41C-84.9683 334.83 -83.6064 334.702 -82.3295 335.047C-81.3797 335.399 -80.4026 335.67 -79.4077 335.86C-63.1425 342.322 -46.9621 348.955 -30.7092 355.394C-21.0042 359.237 -18.9699 358.66 -12.5544 349.945C-11.8947 348.595 -10.8768 347.46 -9.62066 346.674C-8.98998 346.286 -8.28155 346.057 -7.55342 346.003C-6.82529 345.95 -6.09821 346.075 -5.43176 346.367C-4.47399 347.37 -3.9484 348.175 -4.96943 349.285Z" fill="#402112"/>
<path d="M221.686 872.863C222.812 871.239 223.729 869.557 221.547 868.175C218.071 868.545 216.849 865.396 215.597 863.362C210.027 854.219 204.132 845.237 200.684 834.863C200.191 833.832 199.905 832.705 199.843 831.55C199.782 830.395 199.946 829.235 200.325 828.138C202.927 824.174 205.691 825.757 208.427 827.777C214.77 833.668 218.669 841.881 225.719 847.117C226.261 847.504 226.766 847.943 227.228 848.428C235.386 857.09 245.552 863.385 254.383 871.111C255.559 872.141 256.806 873.083 258.114 873.932C258.564 874.38 258.917 874.92 259.153 875.518C258.962 878.158 256.809 876.804 255.57 877.486C244.189 876.6 232.876 875.057 221.686 872.863Z" fill="#140703"/>
<path d="M-4.96944 349.285L-6.31275 346.974C-2.83677 339.127 -5.07631 331.821 -7.28299 324.195C-11.4173 310.027 -15.9695 296.014 -19.8528 281.819C-20.8225 278.99 -21.0512 275.937 -20.5163 272.963C-19.9814 269.988 -18.7015 267.197 -16.8037 264.865C-7.19922 252.388 2.32004 239.836 11.7541 227.209C12.7158 225.907 13.8016 224.698 14.6988 223.36C20.5371 214.969 18.3912 209.548 8.44695 208.99C-5.9438 208.183 -20.4031 208.228 -34.8191 207.646C-37.5233 207.533 -40.2352 207.515 -42.927 207.425C-45.0852 207.423 -47.1983 206.857 -49.0684 205.782C-50.9385 204.706 -52.5045 203.154 -53.6199 201.273C-63.4444 185.871 -72.582 170.02 -82.1999 154.482C-83.2732 152.75 -84.1996 150.826 -82.9878 148.625L-81.1768 147.773C-70.5599 163.493 -61.1897 179.989 -51.5606 196.228C-50.5708 198.25 -49.0331 199.927 -47.13 201.061C-45.2268 202.195 -43.0381 202.738 -40.8234 202.625C-23.6875 202.859 -6.57987 203.667 10.5306 204.262C13.2561 204.111 15.9546 204.754 18.3151 206.118C19.5564 206.921 20.6172 207.985 21.43 209.241C22.2428 210.497 22.79 211.917 23.0366 213.412C23.2832 214.907 23.224 216.444 22.8626 217.925C22.5013 219.406 21.8458 220.799 20.9377 222.015C15.4455 230.037 9.56355 237.777 3.72878 245.549C-2.10598 253.321 -7.68657 260.718 -13.7641 268.016C-15.0906 269.428 -15.9996 271.197 -16.3825 273.111C-16.7653 275.024 -16.6057 277.002 -15.9227 278.806C-10.6402 295.986 -5.7307 313.294 -0.522716 330.473C1.774 337.776 1.38028 344.175 -4.96944 349.285Z" fill="#343B1A"/>
<path d="M392.657 828.645L393.86 830.452C391.081 831.616 388.243 831.04 385.417 831.164C383.518 831.255 381.461 830.431 379.785 832.077C379.185 832.673 378.421 833.064 377.601 833.193C365.709 830.679 353.864 828.061 342.71 822.963C338.803 821.179 334.491 820.58 330.429 819.217C303.107 810.066 276.225 799.876 252.44 782.992C248.002 779.82 243.462 777.007 237.806 776.46C235.07 776.223 232.523 774.985 230.626 772.971C229.262 769.86 231.713 769.399 233.47 769.481C236.023 769.668 238.056 768.49 240.292 767.795C243.496 767.524 245.839 769.339 248.233 771.109C276.746 790.892 308.353 805.578 341.749 814.56C357.141 818.842 372.199 824.658 388.337 825.99C389.226 826.003 390.092 826.254 390.85 826.72C391.608 827.186 392.231 827.849 392.657 828.645Z" fill="#100503"/>
<path d="M377.201 831.803L379.768 832.072C387.118 851.183 381.362 867.965 369.765 883.316C360.876 895.062 348.205 900.196 334.426 902.174C321.827 903.903 309.063 902.351 297.307 897.659C285.081 893.132 273.322 887.408 262.189 880.567C260.061 879.355 257.848 878.306 255.567 877.427L258.799 875.711C262.106 873.589 264.262 876.281 266.73 877.646C281.327 885.794 295.859 894.176 312.479 896.805C331.897 899.882 351.179 898.06 365.369 881.202C375.551 869.119 380.423 854.706 377.376 838.516C376.872 836.283 375.959 834.112 377.201 831.803Z" fill="#422012"/>
<path d="M132.004 295.532C126.489 296.903 121.848 298.363 117.012 299.11C112.967 299.669 109.272 301.843 106.728 305.16C103.582 309.127 99.9966 312.721 96.6395 316.436C94.3438 315.797 94.8219 313.877 94.5235 312.457C93.9395 309.505 93.2758 306.57 92.9603 303.596C92.7204 300.71 91.8866 297.921 90.5141 295.411C89.1416 292.902 87.2616 290.731 84.9986 289.041C81.9093 286.77 79.2083 283.99 77.0013 280.811C77.871 278.089 80.2991 278.319 82.0966 278.122C87.3807 277.638 92.5028 275.891 97.0531 273.02C101.603 270.148 105.456 266.232 108.302 261.585C109.139 260.326 109.955 258.674 112.232 258.436C113.746 263.604 114.83 268.902 115.471 274.273C116.057 277.926 117.847 281.241 120.541 283.664C124.76 287.191 128.602 291.169 132.004 295.532Z" fill="#293429"/>
<path d="M581.173 766.76C577.29 768.271 573.238 769.248 569.123 769.664C566.541 769.979 564.039 770.826 561.767 772.155C559.494 773.483 557.498 775.266 555.898 777.395C553.297 780.817 550.123 783.808 546.307 787.958C545.342 782.536 544.248 778.319 543.908 774.02C543.74 771.36 542.992 768.783 541.719 766.481C540.446 764.178 538.68 762.209 536.553 760.719C533.547 758.391 530.932 755.533 527.723 752.451C532.662 749.719 537.607 749.254 542.277 748.093C546.062 747.357 549.495 745.273 551.971 742.208C554.891 738.449 558.436 735.135 562.139 731.186C563.849 736.133 564.996 741.275 565.558 746.511C566.012 750.204 567.799 753.563 570.565 755.924C574.533 759.06 578.097 762.7 581.173 766.76Z" fill="#273127"/>
<path d="M278.391 269.503C277.086 267.997 276.447 266.521 277.887 264.578C280.137 261.678 282.215 258.653 284.625 255.313C291.252 260.857 296.507 268.034 305.751 269.559C304.985 266.925 303.094 266.515 301.572 265.723C296.856 263.051 292.716 259.437 289.39 255.089C288.555 254.317 288.011 253.267 287.849 252.117C287.687 250.967 287.919 249.787 288.503 248.78C296.034 235.183 303.047 221.289 312.822 209.053C313.584 208.223 314.421 207.47 315.321 206.804C319.884 204.548 324.099 207.58 328.554 207.599C331.014 207.796 333.493 207.358 335.768 206.323C338.042 205.288 340.038 203.689 341.576 201.672C352.503 187.587 357.967 171.246 361.173 153.929C363.285 142.565 361.807 132.254 353.813 123.676C353.427 123.25 353.183 122.708 353.113 122.126C353.043 121.544 353.151 120.951 353.423 120.43C361.059 115.948 368.896 117.412 376.399 119.945C383.618 122.281 390.22 126.234 395.738 131.522C401.255 136.81 405.552 143.304 408.322 150.542C415.605 168.278 416.595 187.015 415.138 205.923C411.862 248.21 397.509 286.466 373.845 321.551C358.668 344.043 342.941 366.226 329.597 389.943C319.614 408.121 312.59 427.818 308.806 448.241C308.507 450.529 308.367 452.833 308.387 455.136C310.808 455.19 310.319 453.446 310.587 452.281C311.873 447.073 313.135 441.864 314.372 436.655C315.058 433.785 316.289 432.927 319.233 434.133C328.306 438.091 337.574 441.619 346.65 445.635C359.67 451.341 373.105 456.024 386.842 459.645C408.029 465.359 428.901 472.187 449.375 480.102C470.852 488.17 490.464 499.573 506.906 516.177C516.278 525.543 523.107 537.276 526.734 550.247C530.835 564.735 527.488 578.72 522.379 592.505C516.38 608.677 503.578 616.506 488.809 622.044C483.662 623.893 478.37 625.261 473 626.131C468.885 629.945 463.691 629.353 458.865 629.792C431.802 631.833 404.773 631.733 378.057 627.342C364.546 624.872 351.48 620.422 339.256 614.125C335.166 610.986 330.529 608.672 325.584 607.3C322.435 606.163 319.395 604.74 316.498 603.048C314.874 602.151 313.534 600.906 313.95 598.736C314.027 598.216 314.205 597.715 314.472 597.263C314.739 596.811 315.091 596.417 315.506 596.104C315.921 595.792 316.392 595.567 316.89 595.444C317.388 595.32 317.903 595.3 318.406 595.385C319.864 595.508 321.333 595.213 322.653 594.535C323.972 593.856 325.09 592.819 325.884 591.538C332.622 582.002 335.447 571.107 336.498 559.718C337.713 546.593 329.992 539.931 319.352 535.945C312.193 533.256 304.862 530.984 297.016 533.121C289.449 533.379 286.233 538.877 283.471 544.966C283.095 545.55 282.639 546.076 282.118 546.527C276.081 548.024 275.649 547.284 277.497 539.565C277.776 538.921 278.122 538.309 278.529 537.741C281.123 535.147 283.27 532.121 284.878 528.795C292.921 519.216 303.989 516.677 315.249 515.199C319.478 514.613 323.754 514.33 327.979 513.491C346.411 513.532 364.715 516.096 382.407 521.117C390.303 523.314 397.746 523.97 405.364 520.433C424.171 514.255 443.14 512.617 459.062 516C450.855 514.047 431.784 513.429 417.917 517.068C412.954 518.703 407.867 519.881 402.716 520.587C395.303 518.002 392.848 513.425 394.723 505.811C395.378 503.829 396.155 501.891 397.049 500.007C397.811 498.011 399.57 496.737 400.463 494.874C400.982 494.089 399.41 494.349 400.27 494.627C400.479 494.685 400.5 494.943 400.232 495.236C397.136 498.482 396.04 502.962 393.352 506.495C386.777 515.243 378.386 519.068 367.815 517.464C360.087 516.283 352.144 516.746 344.81 513.001C337.824 509.489 334.935 503.978 335.527 496.258C335.832 492.469 335.714 488.852 335.845 485.15C335.644 490.653 336.32 496.304 333.908 501.541C331.495 506.779 328.562 511.328 323.541 514.155C316.715 515.452 309.688 515.318 302.985 517.657C295.87 520.133 289.059 523.062 284.169 529.392C282.973 530.996 281.358 532.155 279.482 531.284C277.292 530.268 278.282 528.122 278.718 526.422C280.026 521.382 281.509 516.389 282.904 511.373C279.47 522.641 277.382 534.322 272.67 545.196C271.496 548.183 270.136 551.092 268.599 553.904C261.081 569.894 251.902 585.022 241.226 599.019C229.669 614.361 215.06 626.124 199.834 637.346C181.964 650.526 161.986 658.218 141.148 664.083C131.899 666.682 122.364 666.606 114.731 668.182C129.004 666.829 143.118 663.87 156.816 659.356C178.752 651.756 199.107 639.842 216.734 624.284C218.765 622.505 220.539 620.171 223.317 619.413C229.559 618.999 230.797 620.138 228.903 626.275C225.418 637.994 222.644 649.717 224.842 661.951C225.256 664.236 225.441 666.535 226.106 668.792C228.168 676.398 227.812 678.352 221.036 682.705C205.327 692.766 200.441 707.97 200.413 725.648C200.4 738.159 204.329 749.829 208.521 761.3C209.717 764.161 210.135 767.314 209.731 770.427C209.326 773.54 208.115 776.497 206.223 778.987C199.721 788.179 196.733 799.472 197.84 810.671C198.849 820.785 200.356 830.832 202.357 840.772C202.786 843.057 203.848 845.155 205.416 846.815C209.311 851.281 212.598 856.274 215.19 861.66C215.992 863.22 217.613 864.737 216.225 866.694C214.837 868.652 213.021 868.244 211.231 868.075C201.84 867.148 192.528 865.662 183.172 864.473C160.144 861.798 137.348 857.507 114.942 851.632C88.3039 844.043 62.8631 832.723 39.3273 817.984C20.7451 806.55 1.24013 796.75 -18.9841 788.686C-33.7963 782.861 -49.5173 779.359 -65.2663 776.295C-91.9289 771.105 -119.021 771.432 -145.92 769.45C-163.788 768.141 -163.833 768.709 -166.44 750.802C-170 726.352 -168.474 701.807 -166.563 677.155C-164.186 646.845 -159.276 616.758 -151.888 587.228C-141.797 547.049 -127.896 508.667 -108.306 472.197C-102.55 461.478 -99.5607 460.295 -88.1474 462.308C-58.3849 467.334 -28.4354 470.61 1.85707 469.487C13.0285 469.069 24.3752 467.887 34.7992 462.612C57.5064 455.078 76.1938 440.576 94.4648 425.281C111.982 410.608 127.683 393.841 144.415 378.35C160.609 363.446 178.54 350.684 197.778 340.37C227.144 324.46 251.07 302.175 270.892 274.971C272.205 273.148 272.99 270.732 275.596 270.255C280.674 271.668 283.838 276.597 288.555 278.026C284.621 276.273 280.6 274.089 278.391 269.503Z" fill="#6C382C"/>
<path d="M472.255 628.675C489.472 637.978 502.697 658.065 498.198 682.384C497.418 687.9 496.263 693.359 494.74 698.721C487.881 719.536 474.486 732.662 453.011 736.102C447.897 736.907 442.703 737.322 437.517 737.913C428.383 741.784 419.176 738.777 410.212 737.93C382.499 735.239 355.153 729.766 328.565 721.589C318.397 718.469 308.529 715.007 299.651 709.07C285.059 699.354 269.577 691.017 256.152 679.534C255.451 678.351 254.652 677.179 253.841 676.121C252.477 674.288 251.924 672.372 253.349 670.347C254.774 668.322 256.847 668.55 258.917 668.854C262.222 669.367 265.306 671.349 268.823 670.157C274.093 666.703 276.911 661.288 279.185 655.606C283.127 645.68 286.523 635.564 287.212 624.733C287.372 622.41 286.926 620.095 285.919 618.03C284.912 615.965 283.381 614.224 281.485 612.989C275.634 608.63 269.351 605.216 261.747 605.406C260.669 605.106 259.591 604.806 258.5 604.618C257.594 604.587 256.726 604.257 256.024 603.679C255.322 603.1 254.822 602.302 254.598 601.402C254.087 598.993 255.517 597.493 257.264 596.332C258.728 595.232 260.321 594.327 262.003 593.641C262.754 593.41 263.531 593.293 264.311 593.295C279.394 591.68 293.112 596.523 306.894 601.538C321.222 606.745 335.204 612.863 349.275 618.656C368.938 626.781 389.276 629.785 410.266 630.917C412.294 630.944 414.325 630.862 416.349 630.672C429.199 629.811 442.078 630.527 454.943 629.612C460.726 629.167 466.443 627.406 472.255 628.675Z" fill="#6C382C"/>
<path d="M392.657 828.645C380.23 829.062 368.679 825.054 356.939 821.924C331.865 815.353 307.451 806.474 283.992 795.392C270.447 788.703 257.46 780.905 245.153 772.073C243.336 770.793 241.855 768.908 239.462 768.553L238.575 768.441C237.658 768.326 236.79 767.971 236.051 767.41C235.559 767.022 235.11 766.579 234.714 766.089L233.556 764.527C229.882 761.568 226.435 758.265 222.634 755.425C220.194 753.779 218.086 751.668 216.421 749.202C215.253 747.27 213.818 745.088 215.641 742.845C217.465 740.601 219.631 741.436 221.776 742.479C225.413 744.226 228.789 746.638 232.924 747.13C237.532 747.675 242.12 747.751 244.647 742.642C250.965 732.932 257.29 723.262 257.686 710.994C257.783 707.279 257.278 703.584 256.194 700.06C252.48 694.417 246.62 692.108 240.815 689.738C238.122 688.64 234.624 688.015 235.396 684.027C236.168 680.038 239.561 680.304 242.902 680.148C251.645 679.772 258.703 684.641 266.556 687.058C278.204 694.29 289.356 702.293 301.119 709.382C317.17 719.039 334.982 723.374 352.814 727.909C371.069 732.542 389.74 734.869 408.329 737.155C414.994 737.982 421.677 738.543 428.46 738.881C431.465 739.058 434.276 739.395 436.484 741.694C440.257 746.143 442.965 751.447 444.396 757.191C445.827 762.935 445.943 768.965 444.735 774.81C443.221 784.238 440.521 793.444 436.704 802.195C433.259 809.36 427.742 815.275 420.923 819.113C412.235 824.316 402.597 827.566 392.657 828.645Z" fill="#6C382C"/>
<path d="M34.9261 462.628C33.0244 465.624 30.0522 466.676 26.8941 467.386C15.4412 470.14 3.68998 471.184 -7.9953 470.485C-18.7272 469.727 -29.5779 470.137 -40.3777 469.825C-46.2204 469.715 -52.031 469.046 -57.7343 467.824C-66.9826 465.774 -76.4851 465.649 -85.7236 463.699C-86.9932 463.346 -88.4228 463.568 -89.7324 463.358C-96.8941 462.16 -103.021 464.853 -106.555 471.832C-112.526 483.595 -119.488 494.812 -123.956 507.439C-126.474 515.168 -129.76 522.622 -133.76 529.681C-134.099 530.29 -134.356 530.942 -134.524 531.619C-138.452 547.689 -146.039 562.703 -148.96 578.995C-151.093 590.974 -154.767 602.563 -157.462 614.269C-158.719 619.731 -159.022 625.265 -159.767 630.772C-161.292 641.777 -163.041 652.778 -164.278 663.824C-165.687 674.865 -166.381 685.978 -166.356 697.088C-166.236 703.998 -166.687 710.943 -166.997 717.85C-167.521 730.238 -167.432 742.447 -164.201 754.407C-164.152 754.634 -164.006 754.849 -164.009 755.062C-163.916 758.768 -164.24 762.63 -161.242 765.323C-158.244 768.017 -154.407 767.225 -150.883 767.489C-135.856 768.57 -120.847 769.781 -105.793 770.56C-91.3886 771.265 -77.0632 772.965 -62.9137 775.651C-52.0473 777.744 -41.5209 780.925 -30.767 783.355C-20.0131 785.785 -10.3885 791.6 -0.144356 795.593C23.2155 804.707 43.2484 820.257 65.6854 831.206C73.561 835.024 81.6511 838.341 89.694 841.76C102.203 847.177 115.479 849.766 128.393 853.727C137.215 856.433 146.398 857.438 155.513 858.754C160.615 859.476 165.634 860.698 170.766 861.447C174.963 862.053 179.167 862.971 183.395 863.198C193.064 863.738 202.51 865.881 212.126 866.813C215.769 867.187 216.393 866.16 214.872 863.005C212.251 857.608 209.277 852.267 204.222 849.02C202.62 848.175 201.35 846.794 200.618 845.1C199.886 843.406 199.734 841.498 200.186 839.684C200.663 836.694 200.347 833.641 199.272 830.848C196.613 821.778 195.453 812.289 195.84 802.773C196.057 793.573 199.615 785.497 204.4 778.131C206.195 775.747 207.33 772.916 207.685 769.942C208.041 766.968 207.601 763.965 206.415 761.257C201.84 749.213 197.944 736.816 198.357 723.546C198.765 709.751 202.17 697.041 212.218 686.721C215.365 683.49 219.402 681.843 222.688 678.922C225.593 676.359 225.818 674.407 224.788 670.634C221.445 660.267 221.047 649.086 223.64 638.39C224.765 634.345 225.886 630.317 227.011 626.272C228.752 620.015 228.665 619.99 222.473 621.367C222.804 616.675 226.123 614.983 229.797 613.564C234.178 614.318 234.103 617.416 233.384 620.877C232.104 627.766 228.194 633.807 227.342 640.912C226.086 651.217 225.895 661.334 229.311 671.214C229.939 672.96 230.141 674.845 229.9 676.705C229.333 680.092 226.864 681.827 224.222 683.242C207.182 692.294 202.604 707.874 202.713 725.804C202.818 732.064 203.685 738.272 205.291 744.285C207.2 751.978 209.976 759.401 213.565 766.404C214.846 768.254 215.537 770.475 215.543 772.765C215.197 774.363 214.288 775.781 212.993 776.744C200.925 787.121 198.819 800.754 200.566 815.555C201.19 820.11 201.444 824.716 201.325 829.327C202.002 834.083 203.579 838.642 205.968 842.745C210.47 851.676 215.722 860.177 221.666 868.15C220.916 870.847 219.033 870.071 217.293 869.859L182.402 865.556C159.103 862.781 136.052 858.311 113.422 852.177C87.3346 844.92 63.1559 833.563 39.9705 819.849C21.9738 809.011 3.25559 799.467 -16.0529 791.284C-31.7357 784.986 -48.0356 780.38 -64.6941 777.538C-94.2596 772.141 -124.411 772.354 -154.293 770.046C-167.455 769 -164.818 770.566 -166.605 758.737C-170.24 735.836 -169.693 712.858 -168.583 689.805C-167.314 662.612 -163.873 635.534 -158.295 608.846C-153.022 583.739 -146.003 559.026 -137.292 534.897C-128.923 511.417 -118.63 488.681 -106.524 466.939C-101.595 458.179 -101.623 458.21 -92.0485 460.099C-64.191 465.643 -35.8437 468.47 -7.38052 468.544C6.95683 468.6 20.9512 465.714 34.9261 462.628Z" fill="#6C382C"/>
<path d="M316.3 204.5C317.769 196.927 321.023 189.948 323.386 182.663C327.045 171.4 330.134 159.958 334.473 148.942C337.029 142.207 340.097 135.683 343.649 129.43C345.391 126.467 346.89 122.428 351.594 123.098C358.172 125.722 360.423 131.772 362.13 137.962C363.837 144.151 363.046 150.498 361.775 156.479C358.535 171.695 353.703 186.371 344.499 199.25C337.246 209.223 326.576 211.407 316.3 204.5Z" fill="#6C382C"/>
<path d="M436.462 741.707C429.209 739.69 421.677 740.364 414.296 739.415C395.754 737.027 377.112 735.269 358.885 730.876C353.2 729.488 347.389 728.686 341.695 727.198C319.397 721.384 298.4 711.379 279.752 697.684C275.365 694.526 271.213 690.93 266.206 688.724C260.743 685.658 254.918 683.315 248.865 681.749C249.048 679.204 249.048 679.204 255.058 676.46C256.12 676.619 257.201 676.707 257.541 678.041C275.128 691.545 293.744 703.584 313.219 714.046C314.194 714.611 315.212 715.095 316.264 715.493C338.387 722.655 360.72 728.927 383.791 732.342C401.631 734.962 419.512 737.031 437.542 737.959C437.06 738.437 436.706 739.035 436.516 739.693C436.327 740.351 436.308 741.046 436.462 741.707Z" fill="#170805"/>
<path d="M472.255 628.675C464.785 630.405 457.165 631.274 449.536 631.265C439.001 631.686 428.455 631.677 417.91 631.862C395.012 632 372.814 629.215 351.258 620.622C337.422 615.126 323.719 609.222 309.773 603.986C303.632 601.677 296.739 600.592 291.373 596.039C291.021 595.254 290.932 594.367 291.122 593.516C291.311 592.665 291.767 591.897 292.42 591.332C299.15 590.376 304.804 593.964 309.59 597.368C318.694 603.775 328.987 606.988 339.032 611.022C339.625 611.304 340.099 611.792 340.372 612.402C353.75 618.197 367.298 623.38 381.973 625.525C407.174 628.947 432.701 629.633 458.133 627.574C463.065 627.222 468.008 626.563 472.928 626.053C472.758 626.936 472.512 627.817 472.255 628.675Z" fill="#130607"/>
<path d="M316.3 204.5C320.584 205.809 325.026 206.53 329.513 206.645C331.986 206.679 334.439 206.07 336.645 204.876C338.85 203.682 340.737 201.94 342.132 199.811C347.458 192.54 351.724 184.516 354.79 176C356.973 169.633 358.779 163.142 360.197 156.563C363.09 143.808 361.347 132.223 351.517 123.038C351.6 122.465 351.842 121.926 352.214 121.487C352.586 121.047 353.071 120.725 353.612 120.56C356.207 123.4 358.572 126.454 360.683 129.694C363.214 133.814 364.482 138.638 364.323 143.55C363.389 164.792 356.295 185.368 343.954 202.624C338.945 209.715 332.2 210.86 324.646 209.456C321.562 208.889 318.576 207.768 315.55 206.926C315.787 206.139 316.035 205.317 316.3 204.5Z" fill="#130607"/>
<path d="M278.391 269.503C283.193 272.447 287.156 276.59 292.706 278.193C293.663 278.459 294.802 279.415 294.25 280.792C293.699 282.169 292.327 281.845 291.341 281.416C285.289 279.005 279.869 275.206 275.489 270.303L278.391 269.503Z" fill="#170805"/>
<path d="M215.97 136.101C215.786 136.43 215.633 136.777 215.513 137.136L210.087 135.491C211.063 135.174 212.089 135.065 213.1 135.17C214.112 135.274 215.088 135.591 215.97 136.101Z" fill="#225A26"/>
<path d="M159.02 1070.16C156.951 1066.35 154.645 1062.65 152.825 1058.75C152.071 1056.72 150.733 1054.98 148.987 1053.75C147.241 1052.53 145.167 1051.89 143.038 1051.9C133.367 1051.31 123.75 1050.05 114.142 1048.88C110.703 1048.45 106.339 1049.11 104.776 1044.9C102.962 1040.04 107.437 1038.03 110.039 1035.34C117.096 1028.03 124.123 1020.68 131.389 1013.56C132.866 1012.28 133.974 1010.6 134.59 1008.72C135.206 1006.84 135.305 1004.83 134.877 1002.91C134.69 1001.54 134.592 1000.16 134.583 998.78C134.525 992.255 132.522 985.983 132.625 979.483C132.632 978.11 132.205 976.751 132.262 975.334C132.662 965.275 135.558 963.485 143.695 968.519C149.851 972.323 156.59 974.973 162.663 978.871C165.229 980.75 168.338 981.698 171.513 981.57C174.687 981.441 177.75 980.243 180.231 978.16C187.092 973.095 194.713 969.345 201.951 964.947C203.892 963.763 205.885 962.322 208.234 963.848C210.583 965.373 210.089 968.025 210.092 970.641C209.937 981.097 207.685 991.28 206.633 1001.66C206.328 1003.35 206.475 1005.09 207.058 1006.68C207.641 1008.28 208.637 1009.67 209.941 1010.72C215.886 1015.95 221.237 1021.84 227.184 1027.14C229.288 1028.86 231.098 1030.94 232.54 1033.28C235.487 1038.38 234.657 1040.68 228.915 1042.26C224.312 1043.52 219.552 1045.01 214.902 1044.68C207.953 1044.2 202.232 1047.72 195.985 1049.57C195.138 1049.86 194.373 1050.37 193.763 1051.05C193.152 1051.73 192.714 1052.55 192.491 1053.44C187.609 1064.92 182.015 1076.08 177.349 1087.66C175.347 1092.57 171.812 1092.88 168.961 1088.31C165.293 1082.37 162.425 1076.11 159.02 1070.16Z" fill="#F2A013"/>
<path d="M159.02 1070.16C162.905 1072.97 163.891 1077.78 166.298 1081.58C167.406 1083.33 168.168 1085.3 169.309 1086.99C172.061 1091.11 174.413 1090.87 176.35 1086.2C180.254 1076.75 185.846 1067.96 188.93 1058.36C191.309 1050.88 195.784 1047.87 201.759 1044.98C205.374 1043.23 208.7 1041.99 212.777 1042.89C218.427 1044.13 224.107 1042.57 229.479 1040.91C233.138 1039.82 233.471 1038.28 231.66 1034.62C230.625 1032.54 229.244 1030.67 227.578 1029.09C221.662 1023.41 216.206 1017.23 209.906 1012.12C203.986 1007.34 204.597 1001.64 205.715 995.265C207.188 986.803 208.95 978.382 208.771 969.731C208.654 964.158 207.057 962.959 202.205 965.851C195.131 970.063 187.723 973.658 181.179 978.928C175.623 983.407 169.499 984.608 162.986 980.336C156.203 975.892 148.42 973.223 141.761 968.465C140.596 967.762 139.304 967.303 137.958 967.116C135.657 966.631 135.399 967.625 134.905 970.142C133.217 979.106 134.318 987.878 135.009 996.71C134.928 997.406 134.739 998.086 134.449 998.723C132.779 989.909 131.091 981.091 129.483 972.255C129.248 970.884 129.178 969.485 129.274 968.091C129.563 963.347 131.763 961.77 135.933 963.551C139.445 965.07 142.795 966.971 146.185 968.727C152.973 972.282 159.802 975.751 166.532 979.444C167.866 980.263 169.41 980.659 170.975 980.585C172.54 980.511 174.057 979.97 175.342 979.028C184.519 973.387 193.887 968.07 203.175 962.634C204.117 961.979 205.11 961.406 206.144 960.922C209.407 959.699 211.406 960.933 211.887 964.457C212.017 965.609 211.995 966.775 211.821 967.926C210.484 979.467 209.234 991.033 207.534 1002.53C207.249 1003.86 207.346 1005.24 207.814 1006.51C208.281 1007.77 209.099 1008.86 210.167 1009.64C217.185 1016.06 224.012 1022.71 230.928 1029.3C232.271 1030.52 233.544 1031.81 234.742 1033.17C238.436 1037.61 237.239 1041.17 231.577 1042.73C230.052 1043.16 228.461 1043.36 226.904 1043.7C217.843 1045.69 208.779 1047.76 199.681 1049.69C198.143 1049.98 196.694 1050.66 195.468 1051.67C194.243 1052.69 193.281 1054 192.671 1055.49C187.548 1065.68 183.697 1076.43 178.924 1086.78C178.522 1087.62 178.285 1088.54 177.836 1089.35C175.13 1094.29 170.651 1094.49 168.005 1089.46C164.592 1083.25 161.59 1076.8 159.02 1070.16Z" fill="#ECDE42"/>
<path d="M583.854 440.029C582.026 438.014 580.455 435.767 579.175 433.342C573.121 422.301 566.871 411.361 560.885 400.281C558.759 396.338 556.312 394.224 551.457 394.094C538.433 393.763 525.348 392.641 512.319 391.787C509.371 391.606 506.292 391.563 505.07 388.007C503.848 384.452 505.405 382.289 507.512 379.834C514.849 371.511 522.114 363.111 529.459 354.829C540.327 342.704 538.822 344.745 535.976 330.122C533.953 319.68 531.851 309.254 529.806 298.825C529.473 297.5 529.261 296.144 529.171 294.774C529.099 290.589 531.651 288.084 535.59 288.811C537.794 289.267 539.931 290.004 541.949 291.007C552.24 295.574 562.595 300.043 572.743 304.92C577.993 307.466 582.197 306.969 587.061 303.363C596.518 296.308 606.305 290.023 615.983 283.456C617.48 282.388 619.053 281.439 620.689 280.62C625.012 278.549 628.983 280.777 629.494 285.607C629.705 288.388 629.45 291.193 628.742 293.902C629.24 296.152 627.556 298.163 628.055 300.413C626.491 309.064 625.815 317.825 624.53 326.553C624.069 328.929 624.274 331.38 625.122 333.616C625.971 335.853 627.426 337.783 629.318 339.179C638.579 347.044 647.468 355.367 657.138 362.706C659.486 364.502 661.805 366.135 662.533 369.379C663.032 375.194 659.511 377.682 654.793 379.082C642.866 382.621 630.98 386.346 618.89 389.123C612.989 390.465 610.088 393.823 608.231 399.35C603.85 412.001 598.944 424.448 593.514 436.692C591.176 442.066 588.776 442.812 583.854 440.029Z" fill="#F2A013"/>
<path d="M664.994 375.081C665.608 376.039 666.134 377.055 666.567 378.115C668.6 384.279 666.729 388.039 660.673 389.667C649.724 392.587 639.024 396.7 627.823 398.369C619.419 399.615 614.997 404.061 612.32 412.401C608.287 424.742 603.035 436.686 598.082 448.694C595.566 454.774 590.418 455.163 586.696 449.75C585.623 448.014 584.654 446.211 583.795 444.351C596.656 438.128 597.031 424.052 602.401 413.167C605.352 407.208 607.379 400.798 609.989 394.648C610.574 393.136 611.523 391.798 612.747 390.761C613.97 389.724 615.427 389.024 616.977 388.727C629.266 385.772 641.296 381.661 653.647 378.956C657.584 378.076 660.538 374.19 664.994 375.081Z" fill="#D96B13"/>
<path d="M559.204 406.051C544.808 407.082 531.196 404.69 517.458 404.026C512.042 403.759 509.627 400.317 508.391 395.13C511.772 393.552 515.158 394.514 518.402 394.641C528.54 395.04 538.693 395.792 548.773 396.466C556.317 396.898 556.759 397.331 559.204 406.051Z" fill="#D66813"/>
<path d="M664.994 375.081C657.895 380.39 649.48 381.206 641.45 383.467C633.42 385.727 625.763 387.858 617.884 389.909C616.452 390.199 615.111 390.867 613.994 391.847C612.877 392.827 612.022 394.085 611.514 395.498C606.614 407.521 601.038 419.278 596.62 431.454C594.156 438.226 590.541 442.664 583.795 444.351C581.965 442.913 582.475 441.485 583.879 440.074C589.483 440.607 589.968 440.548 592.112 435.333C596.807 423.912 601.247 412.401 605.785 400.936C606.554 398.98 607.288 397.015 607.953 395.03C609.412 390.593 612.423 388.525 616.835 387.351C629.592 384.061 642.226 380.273 654.971 376.961C659.213 375.856 661.889 373.714 662.724 369.297C663.556 371.156 663.246 373.549 664.994 375.081Z" fill="#5D260F"/>
<path d="M630.168 336.393C629.07 335.971 628.148 335.18 627.549 334.146C626.95 333.112 626.709 331.894 626.865 330.689C628.381 317.222 629.903 303.737 631.504 289.498C634.051 292.667 636.179 295.254 635.509 299.078C633.694 309.576 633.581 320.218 632.186 330.756C632.172 332.809 631.458 334.804 630.168 336.393Z" fill="#A56837"/>
<path d="M628.092 300.346C627.762 299.282 627.652 298.155 627.77 297.037C627.887 295.919 628.229 294.835 628.774 293.853C629.101 294.917 629.209 296.044 629.092 297.161C628.975 298.279 628.634 299.363 628.092 300.346Z" fill="#A56837"/>
<path d="M-83.04 148.611L-58.3081 189.702C-56.2929 193.033 -54.1384 196.266 -52.1854 199.619C-51.2108 201.427 -49.7595 202.91 -47.9955 203.9C-46.2315 204.891 -44.225 205.349 -42.2025 205.224C-25.7651 205.477 -9.32334 206.119 7.12099 206.684C9.57225 206.662 12.0133 206.926 14.3977 207.469C15.4889 207.751 16.5074 208.264 17.3887 208.976C18.2699 209.687 18.9948 210.582 19.5174 211.604C20.04 212.625 20.3489 213.75 20.4246 214.909C20.5002 216.067 20.3411 217.233 19.9571 218.333C19.0721 220.736 17.756 222.953 16.0782 224.867C5.41796 238.871 -5.1305 252.944 -16.0339 266.745C-17.5668 268.468 -18.6026 270.593 -19.0221 272.875C-19.4416 275.158 -19.2277 277.505 -18.4049 279.645C-13.0635 297.287 -8.03301 315.036 -2.66921 332.665C-0.929071 338.399 -1.55613 343.145 -6.3924 346.991L-9.20567 348.146C-13.6947 349.05 -18.3191 348.105 -22.077 345.514C-25.032 343.743 -28.4791 343.404 -31.5764 342.077C-33.4137 340.835 -35.4127 339.861 -37.5172 339.184C-45.2778 336.904 -52.8357 333.979 -60.1171 330.437C-67.9386 326.963 -74.5614 326.05 -82.5885 332.341C-95.9321 342.789 -110.34 351.74 -124.137 361.733C-128.42 364.803 -132.76 365.785 -137.513 363.339C-142.266 360.893 -142.291 356.199 -142.065 351.883C-141.114 334.055 -139.647 316.254 -137.646 298.485C-136.866 291.844 -137.982 287.098 -143.189 282.782C-154.851 273.106 -166.053 262.861 -177.695 253.114C-182.061 249.477 -187.79 246.431 -186.497 238.887C-185.335 232.488 -181.09 229.62 -175.33 228.181C-158.828 224.094 -142.39 219.698 -125.852 215.814C-123.514 215.439 -121.323 214.367 -119.552 212.731C-117.781 211.095 -116.508 208.968 -115.891 206.614C-110.537 190.669 -104.949 174.963 -99.4412 159.139C-98.9017 157.603 -98.3969 156.058 -97.7878 154.543C-94.3855 146.152 -91.2937 144.939 -83.04 148.611Z" fill="#F2A013"/>
<path d="M-11.0184 350.082C-14.525 349.365 -17.9315 348.229 -21.1692 346.696C-31.0974 342.578 -41.1255 338.684 -51.1162 334.723C-56.9362 332.407 -62.856 330.314 -68.5836 327.733C-71.2809 326.517 -73.2376 326.748 -75.1603 328.944C-77.5711 331.683 -80.8308 333.701 -81.9782 337.489L-82.9722 335.876C-84.2752 334.7 -85.0479 335.996 -85.9687 336.611C-95.232 343.371 -104.532 350.063 -113.987 356.499C-118.36 360.163 -123.599 362.425 -128.144 365.83C-131.459 368.317 -134.436 366.287 -137.339 364.666C-142.141 361.722 -143.629 357.105 -143.175 351.633C-141.685 333.412 -140.316 315.157 -138.349 296.972C-137.644 290.465 -139.094 286.517 -144.424 282.574C-153.071 276.139 -160.576 268.162 -169.036 261.392C-174.321 257.152 -179.23 252.435 -184.29 247.927C-186.318 246.123 -188.49 244.434 -188.758 241.357C-187.758 240.862 -186.965 240.006 -186.534 238.954C-185.776 243.368 -182.922 246.177 -179.77 248.855C-166.779 259.812 -154.081 271.015 -140.933 281.879C-138.762 283.448 -137.071 285.618 -136.052 288.143C-135.033 290.669 -134.726 293.45 -135.166 296.172C-137.158 314.447 -138.524 332.761 -140.114 351.07C-140.185 352.001 -140.2 352.935 -140.161 353.866C-140.001 361.911 -133.87 365.534 -127.209 361.189C-118.75 355.638 -110.535 349.749 -102.235 343.961C-93.9355 338.172 -85.9794 332.676 -78.0202 326.832C-76.5276 325.583 -74.7293 324.79 -72.8333 324.542C-70.9374 324.295 -69.0213 324.604 -67.307 325.434C-57.1428 329.715 -46.8041 333.637 -36.5452 337.711C-35.2691 338.648 -33.5539 338.544 -32.2878 339.516L-9.08618 348.121L-11.0184 350.082Z" fill="#59210B"/>
<path d="M377.201 831.803C387.269 852.659 371.292 889.882 346.349 896.561C327.989 901.468 310.667 901.027 293.604 893.258C282.347 888.189 270.909 883.438 260.648 876.341C260.035 876.064 259.385 875.883 258.717 875.804C258.429 875.509 258.059 875.312 257.657 875.238C256.787 873.853 254.735 874.425 253.957 872.911C245.288 866.624 236.758 860.106 228.659 853.049C227.148 852.079 225.931 850.695 225.144 849.049C229.015 846.988 231.715 849.54 234.257 851.584C251.528 865.991 270.691 877.841 291.204 886.798C303.173 892.066 315.554 896.459 329.113 895.272C349.646 893.468 364.587 883.406 373.052 863.62C374.54 860.167 375.444 856.486 375.723 852.74C376.836 837.223 375.344 834.638 360.888 830.965C330.825 823.318 302.119 812 274.058 798.905C264.127 794.529 254.883 788.695 246.611 781.583C249.683 784.549 254.125 786.502 252.909 792.149C250.51 794.039 248.683 792.252 246.911 790.946C242.788 787.807 238.431 785.002 233.88 782.555C225.824 778.377 217.409 780.607 212.945 788.838C203.998 805.372 208.63 816.404 225.123 823.395C228.481 824.794 232.226 824.402 235.444 826.169C235.982 831.375 231.994 830.692 229.269 830.786C224.091 831.011 219.918 827.894 215.485 825.711C213.736 824.857 212.412 823.287 209.724 822.172C213.28 829.999 218.381 835.506 222.91 841.453C224.514 843.566 227.646 845.444 225.258 849.042C221.121 846.941 218.826 842.932 215.916 839.585C213.006 836.238 210.58 832.967 207.934 829.616C197.079 813.675 196.314 798.779 205.656 783.924C208.99 778.672 214.024 775.462 218.84 771.959C222.591 770.6 226.34 768.776 230.156 771.697C241.679 773.179 251.224 778.876 260.273 785.888C269.321 792.899 279.518 796.588 289.506 801.168C306.123 808.616 323.159 815.069 340.529 820.497C352.61 824.42 365.187 827.299 377.201 831.803Z" fill="#6C382C"/>
<path d="M219.81 773.255C218.778 774.148 217.691 774.972 216.557 775.721C202.215 783.896 196.695 805.626 203.967 820.976C205.326 823.834 207.435 826.358 207.867 829.655C205.676 828.774 203.697 824.776 201.153 829.337C196.356 815.062 196.208 800.841 202.196 786.661C203.952 782.837 206.585 779.499 209.866 776.939C211.583 775.48 213.884 774.551 214.433 771.972C215.325 771.413 216.39 771.234 217.396 771.474C218.403 771.714 219.27 772.354 219.81 773.255Z" fill="#130607"/>
<path d="M253.972 872.857C254.735 872.886 255.475 873.116 256.123 873.523C256.77 873.93 257.303 874.501 257.672 875.184C256.893 875.226 256.124 875.026 255.465 874.611C254.805 874.196 254.285 873.585 253.972 872.857Z" fill="#422012"/>
<path d="M219.81 773.255C218.071 772.771 216.032 773.366 214.538 772.001C209.065 763.99 206.036 754.875 203.745 745.462C203.12 741.782 204.463 739.851 208.244 739.934C209.224 740.229 210.103 740.795 210.787 741.571C211.869 743.167 213.18 744.583 214.677 745.772C219.577 752.676 226.651 757.085 232.824 762.444C233.956 763.524 235.002 764.696 235.952 765.949L236.057 765.978C236.665 767.561 238.782 766.891 239.455 768.376L239.542 768.4C238.917 770.648 237.833 772.051 235.269 771.435C233.53 770.951 231.831 770.323 230.186 771.589L219.81 773.255Z" fill="#100503"/>
<path d="M79.9323 280.58C93.6154 279.486 103.545 274.306 110.252 262.05C111.763 266.034 112.677 270.239 112.965 274.525C113.479 278.934 115.624 282.943 118.956 285.722C121.672 288.086 124.195 290.667 127.051 293.398C123.806 295.769 120.333 296.062 117.086 296.554C114.619 296.865 112.23 297.686 110.064 298.968C107.897 300.25 105.998 301.965 104.481 304.011C102.498 306.559 100.13 308.806 97.3359 311.845C96.3281 308.09 95.5115 304.281 94.8896 300.432C94.4256 296.264 92.4257 292.464 89.3 289.811C86.503 287.271 83.8977 284.512 79.9323 280.58Z" fill="#FCFDFD"/>
<path d="M561.016 736.298C561.802 738.97 562.343 741.714 562.633 744.497C562.566 751.471 566.305 756.018 571.102 760.123C572.902 761.669 575.194 762.927 576.111 766.165C564.192 766.104 555.219 771.685 548.311 782.103C547.086 770.139 543.666 759.87 531.704 754.237C538.101 750.845 544.37 751.95 548.873 748.495C553.375 745.04 556.686 740.75 561.016 736.298Z" fill="#FDFEFC"/>
<path d="M323.135 512.783C327.64 508.108 331.628 503.135 333.583 496.647C335.398 490.527 334.524 484.375 334.123 477.6C337.095 479.376 336.731 481.696 336.787 483.513C337.122 488.372 337.104 493.287 337.282 498.102C337.184 500.892 337.932 503.629 339.424 505.933C340.916 508.236 343.076 509.992 345.604 510.956C355.368 515.396 365.588 515.837 375.927 515.517C378.309 515.368 380.645 514.719 382.79 513.61C384.936 512.502 386.845 510.956 388.401 509.069C391.216 506.017 393.784 502.734 396.079 499.253C398.427 495.129 401.409 491.417 404.907 488.265C405.85 490.465 404.161 491.351 403.388 492.511C400.405 496.354 398.124 500.717 396.66 505.381C394.723 513.153 395.713 515.52 403.033 518.777C404.722 519.034 407.12 518.364 406.58 521.585C404.114 522.836 401.632 523.947 399.214 525.231C397.995 525.859 396.667 526.223 395.313 526.3C393.96 526.377 392.611 526.165 391.351 525.678C370.373 518.912 348.715 516.141 326.765 515.362C324.849 515.448 322.546 516.047 323.135 512.783Z" fill="#100503"/>
<path d="M292.752 591.754C292.387 593.066 292.017 594.397 291.738 595.734C291.141 596.177 290.418 596.4 289.689 596.365C286.24 595.967 283.071 594.155 279.521 594.253C273.773 594.026 268.012 594.117 262.263 594.527C258.334 596.627 254.578 599.062 251.037 601.806C248.972 603.169 244.67 607.047 244.202 599.905C247.125 592.969 253.855 592.149 259.445 589.5C262.415 588.389 262.26 586.118 261.816 583.671C261.099 577.156 260.854 570.695 263.107 564.348C264.821 560.95 264.325 556.938 266.501 553.766C267.569 550.592 268.982 547.548 270.712 544.69C272.32 543.762 271.608 539.922 274.668 541.045C277.286 542.006 276.087 544.5 275.976 546.445C275.631 548.721 275.462 551.019 275.47 553.317C274.07 567.979 279.736 579.338 290.458 588.346C291.048 588.72 291.556 589.215 291.95 589.801C292.345 590.387 292.617 591.051 292.752 591.754Z" fill="#130607"/>
<path d="M266.618 553.818C266.035 557.53 265.446 561.241 264.851 564.95C260.224 579.159 251.062 590.403 242.414 602.022C238.114 606.366 235.255 612.332 229.075 614.545C226.791 616.757 224.201 618.593 222.451 621.38C211.109 631.165 199.475 640.52 186.368 647.761C164.334 660.121 140.065 667.531 115.191 669.492C114.473 669.69 113.719 669.69 113.008 669.492C112.296 669.294 111.651 668.905 111.139 668.364C112.47 665.868 115.017 666.615 116.894 666.401C128.824 665.198 140.63 662.785 152.138 659.198C179.573 650.462 204.621 634.967 225.083 614.074C241.69 597.313 255.213 577.608 264.979 555.939C265.443 555.169 265.993 554.457 266.618 553.818Z" fill="#170805"/>
<path d="M295.796 531.445C310.127 527.683 321.795 533.699 332.892 541.629C335.212 543.496 336.765 546.191 337.251 549.196C338.964 555.704 338.986 562.588 337.317 569.167C335.066 577.258 333.128 585.436 327.703 592.14C323.21 598.523 316.631 596.983 311.052 595.954C300.153 593.91 290.156 589.501 282.963 580.197C275.034 569.972 274.575 554.986 282.019 545.066C284.802 538.634 288.654 533.274 295.796 531.445Z" fill="#100503"/>
<path d="M282.041 545.052C280.236 551.543 278.124 557.852 279.194 564.852C279.79 569.46 281.401 573.85 283.905 577.688C286.408 581.526 289.738 584.712 293.643 587.004C301.05 591.563 309.318 593.767 317.717 595.638C321.881 596.565 324.501 593.748 327.673 592.113C327.094 593.905 325.91 595.434 324.339 596.42C322.767 597.406 320.913 597.782 319.115 597.48C317.604 597.389 315.637 596.513 315.208 598.796C314.779 601.078 317.034 600.989 318.325 601.735C324.178 605.146 330.82 606.664 336.84 609.676C338.238 610.375 339.853 610.63 340.397 612.448C325.097 607.015 310.191 600.512 295.782 592.984C294.799 592.478 293.721 592.178 292.69 591.775C281.924 584.538 274.065 575.339 273.436 561.236C273.343 558.943 273.461 556.632 273.482 554.333C273.55 549.509 276.023 545.199 276.471 540.423C276.496 540.078 276.596 539.742 276.765 539.441C276.934 539.14 277.166 538.881 277.445 538.684C277.724 538.487 278.041 538.357 278.374 538.304C278.706 538.252 279.045 538.278 279.363 538.38C278.948 539.872 278.533 541.364 278.292 542.905C277.674 546.472 277.709 546.482 282.041 545.052Z" fill="#6C382C"/>
<path d="M279.425 538.358C275.269 542.859 275.763 549.098 273.544 554.312C271.844 550.255 275.591 546.551 274.653 542.513C272.532 541.923 272.405 544.599 270.829 544.742C275.426 532.461 278.932 519.993 282.68 507.533C282.91 506.706 283.267 505.759 285.467 505.867C284.356 514.101 281.261 521.725 279.272 530.896C285.132 525.863 290.013 521.584 296.041 518.844C304.73 514.888 313.852 513.687 323.073 512.669C323.657 514.478 325.347 514.735 326.755 515.398C323.044 516.748 319.147 516.206 315.358 516.76C304.51 518.372 293.751 520.338 286.055 529.684C283.758 532.551 281.662 535.571 279.4 538.448L279.425 538.358Z" fill="#170805"/>
<path d="M406.587 521.626C406.056 519.831 404.284 519.668 403.035 518.836C411.459 517.112 419.84 515.007 428.336 513.767C440.926 511.918 453.705 512.681 465.918 516.009C467.513 516.133 468.989 516.89 470.033 518.123C468.848 520.699 466.894 519.303 465.411 518.91C457.713 517.169 449.858 516.196 441.953 516.006C429.792 515.335 418.152 518.044 406.587 521.626Z" fill="#100503"/>
<path d="M26.3496 556.228C15.4077 544.505 22.7919 499.913 34.1104 491.962C32.6706 499.562 28.4946 505.412 26.8773 512.169C24.9767 519.338 23.934 526.705 23.7724 534.105C24.0852 541.546 24.9467 548.941 26.3496 556.228Z" fill="#130607"/>
<path d="M505.887 597.835C505.672 591.402 509.387 587.612 510.255 582.875C511.26 577.849 511.559 572.713 511.144 567.625C510.697 562.968 509.457 558.4 508.373 552.732C517.182 562.893 515.876 585.504 505.887 597.835Z" fill="#130607"/>
<path d="M384.635 563.288C389.635 572.254 386.214 591.759 378.204 600.882C378.052 593.885 381.427 588.49 382.814 582.696C384.201 576.902 383.936 570.378 384.635 563.288Z" fill="#100503"/>
<path d="M338.455 303.279C350.692 308.931 362.38 313.189 375.78 313.179C375.362 314.326 374.541 315.277 373.481 315.84C372.421 316.404 371.201 316.539 370.063 316.218C359.166 314.504 348.409 312.286 339.084 305.798C338.819 305.608 338.862 304.981 338.455 303.279Z" fill="#170805"/>
<path d="M295.796 531.445C289.763 534.474 285.737 539.649 282.007 545.043C284.423 536.223 288.424 532.28 295.796 531.445Z" fill="#6C382C"/>
<path d="M279.401 538.448C279.845 536.594 280.668 534.852 281.816 533.34C282.964 531.828 284.41 530.581 286.055 529.684C285.65 531.555 284.842 533.315 283.69 534.832C282.537 536.35 281.071 537.586 279.401 538.448Z" fill="#6C382C"/>
<path d="M229.06 614.599L240.653 601.416C242.427 601.774 243.462 598.459 245.547 600.259C245.692 601.152 245.077 602.957 246.981 601.84C249.693 600.309 252.249 598.463 254.986 596.977C257.225 595.663 259.564 593.989 262.348 594.492C261.143 596.598 258.851 597.161 257.088 598.511C256.16 599.221 255.381 600.07 255.816 601.334C255.983 601.745 256.267 602.094 256.631 602.333C256.995 602.573 257.423 602.693 257.859 602.677C259.149 602.823 260.429 603.14 261.711 603.381C261.429 605.337 259.919 605.982 258.402 606.451C246.629 610.111 242.095 620.143 239.646 630.833C236.57 644.312 241.506 655.197 252.643 662.847C256.418 665.692 260.68 667.79 265.218 669.038C267.131 669.571 269.198 669.952 270.224 672.058C268.675 673.719 266.906 673.072 265.202 672.598C262.837 671.94 260.471 671.282 258.106 670.624C256.837 670.271 255.393 669.734 254.394 671.102C253.395 672.471 254.4 673.642 255.283 674.643C256.166 675.644 257.278 676.496 257.46 677.999L254.769 677.096C254.241 677.313 253.671 677.394 253.11 677.333C252.549 677.271 252.014 677.069 251.551 676.743C232.947 664.477 223.188 638.264 234.597 618.134C233.442 619.053 233.822 621.793 231.295 621.381C231.675 618.736 233.453 615.511 229.06 614.599Z" fill="#6C382C"/>
<path d="M270.276 672.073C264.535 671.449 259.014 669.551 254.093 666.51C249.172 663.469 244.967 659.357 241.768 654.456C235.648 645.605 235.871 635.846 238.841 625.843C239.651 623.41 240.682 621.057 241.921 618.816C246.136 610.4 252.539 604.897 261.773 603.359C268.291 603.235 274.026 605.587 279.496 608.891C286.958 613.388 290.905 619.813 289.186 629.021C286.921 641.137 283.803 653.016 277.436 663.778C275.592 666.989 273.159 669.807 270.276 672.073Z" fill="#100503"/>
<path d="M290.476 595.421C290.883 595.573 291.302 595.69 291.729 595.77C306.724 601.879 321.695 608.078 336.733 614.102C345.072 617.468 353.388 620.982 361.944 623.769C378.104 629.059 394.942 630.567 411.861 631.38C413.876 631.476 415.892 631.707 417.905 631.88C416.697 633.326 414.999 633.164 413.488 633.073C405.423 632.63 397.358 632.188 389.328 631.485C379.048 630.286 368.944 627.949 359.188 624.514C352.185 622.275 345.412 619.209 338.566 616.471C329.204 612.743 319.826 609.069 310.494 605.233C304.087 602.539 297.535 600.212 290.867 598.261C282.921 595.777 274.586 594.77 266.249 595.287C264.896 595.428 263.538 595.197 262.312 594.618C268.026 592.333 273.868 593.494 279.674 593.637C283.463 593.083 286.667 596.047 290.476 595.421Z" fill="#6C382C"/>
<path d="M479.257 668.029C482.714 677.088 481.682 686.255 479.116 695.478C477.02 703.012 474.09 710.042 467.676 714.98C469.912 706.943 475.093 700.306 477.038 692.169C478.984 684.032 478.508 676.112 479.257 668.029Z" fill="#130607"/>
<path d="M318.439 692.252C320.062 683.792 324.717 677.901 326.825 671.068C328.99 663.932 330.404 656.59 331.043 649.17C336.041 656.933 328.173 683.26 318.439 692.252Z" fill="#170805"/>
<path d="M232.397 763.642C225.891 758.133 218.937 753.157 213.241 746.69C212.219 745.379 210.971 744.276 209.981 742.916L208.945 741.253C201.693 734.993 201.725 726.188 202.383 717.692C204.029 698.778 213.038 683.502 234.633 678.08C239.371 678.023 244.655 675.735 248.27 680.789C251.87 681.791 255.43 682.936 259.003 684.104C261.788 684.837 264.273 686.434 266.124 688.681C262.415 687.9 258.837 686.592 255.494 684.794C250.503 681.992 244.67 682.616 239.191 681.905C238.852 681.873 238.509 681.915 238.184 682.028C237.859 682.14 237.56 682.321 237.305 682.558C237.05 682.796 236.845 683.085 236.704 683.406C236.563 683.728 236.488 684.075 236.484 684.426C236.46 685.013 236.653 685.584 237.026 686.022C237.398 686.46 237.921 686.733 238.489 686.785C243.899 688.166 248.991 690.588 253.498 693.925C255.675 695.46 258.158 696.771 258.284 700.022C252.567 700.368 249.075 695.678 244.869 693.151C232.006 685.505 218.124 692.433 212.355 706.5C205.181 724.069 214.341 741.592 232.269 745.514C237.126 746.574 241.333 743.038 246.042 743.825C243.297 750.19 237.954 749.73 232.749 749.173C228.149 748.668 224.224 746.143 220.375 743.948C219.195 743.271 217.954 742.074 216.816 743.268C215.221 744.761 216.752 746.33 217.51 747.51C221.346 753.052 227.366 756.063 232.168 760.557C233.662 761.922 235.65 762.726 236.008 765.073C235.333 765.17 234.647 765.089 234.016 764.839C233.384 764.589 232.827 764.177 232.397 763.642Z" fill="#6C382C"/>
<path d="M246.129 743.849C238.721 749.73 231.538 748.139 224.096 743.976C213.581 738.126 207.001 729.922 208.015 716.915C208.519 708.223 212.328 700.027 218.615 694.1C221.88 690.966 225.973 688.904 230.356 688.184C234.739 687.464 239.208 688.12 243.178 690.066C248.701 692.618 253.815 695.999 258.356 700.1C261.121 708.618 259.727 716.928 256.519 725.159C253.918 731.845 250.42 738.137 246.129 743.849Z" fill="#170805"/>
<path d="M425.745 768.713C427.863 770.058 427.036 772.152 426.832 773.762C425.47 785.393 422.62 796.514 414.896 805.755C414.212 806.663 413.419 807.477 412.536 808.179C412.244 808.333 411.919 808.405 411.595 808.387C411.27 808.368 410.958 808.259 410.691 808.072C410.495 807.817 410.364 807.515 410.31 807.192C410.256 806.869 410.28 806.537 410.381 806.223C410.912 805.199 411.584 804.257 412.377 803.427C419.853 795.143 422.54 784.946 423.814 774.239C424.073 772.297 423.717 770.144 425.745 768.713Z" fill="#130607"/>
<path d="M285.083 767.897C284.479 767.282 284.123 766.453 284.084 765.572C284.045 764.691 284.326 763.821 284.873 763.131C289.263 755.771 293.432 748.33 294.481 739.575C294.596 738.62 295.016 737.651 296.089 737.698C297.638 737.722 297.76 739.17 297.596 740.229C295.997 750.428 291.663 760.013 285.083 767.897Z" fill="#100503"/>
<path d="M232.396 763.642L236.095 765.097C236.072 765.417 235.985 765.729 235.84 766.014C235.092 766.038 234.359 765.822 233.743 765.398C233.126 764.973 232.656 764.36 232.396 763.642Z" fill="#6C382C"/>
<path d="M239.383 768.434C238.628 768.501 237.878 768.3 237.259 767.863C236.64 767.426 236.19 766.781 235.984 766.035C236.723 766.044 237.439 766.275 238.043 766.702C238.648 767.128 239.114 767.731 239.383 768.434Z" fill="#6C382C"/>
<path d="M248.288 680.794C243.731 679.526 239.132 680.029 234.446 679.965C231.935 680.1 229.223 680.624 228.642 676.917C224.122 665.382 222.842 652.722 224.946 640.361C225.937 633.567 229.626 627.851 231.312 621.386C234.287 619.114 233.8 614.329 237.716 612.377C235.622 618.962 232.447 624.917 232.028 631.813C231.189 645.469 234.388 657.478 243.944 667.11C247.41 670.612 251.173 673.79 254.786 677.101C254.515 681.849 250.517 679.516 248.288 680.794Z" fill="#170805"/>
<path d="M228.747 676.946C230.197 678.938 232.416 679.381 234.55 679.994C207.642 683.705 197.488 718.113 207.833 737.437C208.482 738.606 209.35 739.796 208.98 741.262C205.613 740.5 204.53 742.775 203.728 745.458C198.811 730.995 199.275 715.084 205.032 700.762C208.284 692.445 214.48 685.667 222.353 681.812C224.716 680.59 227.618 679.925 228.747 676.946Z" fill="#170805"/>
<path d="M225.253 849.06C225.07 845.677 222.294 844.072 220.493 841.924C215.698 835.921 210.787 830.003 207.451 822.934C206.799 821.571 205.531 820.269 206.693 818.519C208.822 817.601 210.221 819.307 211.377 820.404C215.083 823.856 219.641 825.725 224.047 827.803C227.926 829.618 232.143 830.559 235.828 826.741C236.742 821.436 242.166 819.787 244.478 815.452C247.423 809.917 250.894 804.781 250.56 798.102C250.455 797.175 250.551 796.233 250.84 795.342C251.13 794.452 251.607 793.635 252.237 792.95C252.176 791.082 251.538 789.293 250.415 787.842C249.293 786.391 247.744 785.353 245.994 784.879C245.552 784.77 245.136 784.575 244.767 784.305C242.955 782.736 239.719 781.235 241.451 778.443C243.448 775.24 245.976 778.075 247.651 779.529C255.507 786.368 264.298 791.991 273.755 796.225C285.22 801.352 296.668 806.473 308.285 811.255C328.72 819.769 349.961 825.523 371.198 831.354C372.729 831.656 374.121 832.443 375.181 833.606C376.242 834.769 376.917 836.25 377.113 837.842C380.203 852.126 376.918 864.676 368.518 876.616C358.748 890.518 345.172 895.943 329.549 897.679C315.564 899.251 302.946 894.365 290.469 889.17C275.628 882.723 261.473 874.762 248.213 865.404C243.374 862.121 238.958 858.258 234.341 854.649C231.511 852.428 228.933 849.774 225.208 849.086L225.253 849.06Z" fill="#6C382C"/>
<path d="M252.257 792.878C254.113 804.863 249.054 814.226 241.128 822.443C239.453 823.961 237.69 825.373 235.848 826.669C224.774 828.489 216.491 822.969 209.927 815.177C201.389 805.053 209.351 784.584 218.264 780.496C220.92 779.14 223.847 778.465 226.79 778.531C229.734 778.597 232.605 779.402 235.154 780.875C241.374 784.045 247.129 788.083 252.257 792.878Z" fill="#100503"/>
<path d="M209.981 742.916C210.825 743.151 211.58 743.632 212.158 744.301C212.736 744.97 213.112 745.8 213.241 746.69C212.371 746.51 211.584 746.046 210.998 745.367C210.411 744.687 210.055 743.828 209.981 742.916Z" fill="#6C382C"/>
<path d="M245.547 600.259C244.788 600.765 243.991 601.202 243.257 601.753C242.234 602.534 241.279 603.14 240.635 601.411C249.39 589.744 256.883 577.223 264.819 564.999C262.911 571.519 263.7 578.112 263.967 584.695C264.015 587.556 263.734 590.248 260.54 591.491C255.515 594.199 249.537 595.481 245.547 600.259Z" fill="#6C382C"/>
<path d="M290.476 595.421C286.62 596.286 283.2 594.637 279.726 593.651C283.576 592.475 286.974 594.272 290.476 595.421Z" fill="#130607"/>
<path d="M260.578 591.423C262.267 589.491 263.448 587.15 264.005 584.628C264.713 590.23 264.639 590.364 260.578 591.423Z" fill="#130607"/>
<path d="M309.423 590.426C302.223 588.423 295.287 586.009 289.719 580.43C277.578 568.103 279.038 550.125 291.671 537.852C296.285 533.324 302.202 532.394 308.193 533.557C315.049 534.881 321.579 537.526 327.441 541.353C329.88 542.796 331.907 544.866 333.328 547.365C334.75 549.863 335.517 552.706 335.558 555.621C336.024 566.345 333.329 577.02 327.825 586.247C323.507 593.549 321.955 593.873 313.893 591.669L309.423 590.426Z" fill="#6C382C"/>
<path d="M283.364 641.194C281.352 649.136 278.218 656.75 274.061 663.789C270.678 669.686 269.183 670.277 263.048 667.679C257.426 665.354 252.241 662.065 247.71 657.949C238.654 649.618 237.764 636.857 242.321 624.584C245.218 616.731 250.136 610.369 258.397 607.747C260.638 606.933 263.01 606.601 265.364 606.772C267.719 606.944 270.005 607.616 272.08 608.745C286.888 616.604 288.701 620.595 284.429 637.364C284.129 638.578 283.719 639.917 283.364 641.194Z" fill="#6C382C"/>
<path d="M254.411 719.401C252.942 726.489 249.979 733.185 245.732 739.012C241.253 745.011 236.953 746.255 230.244 743.498C229.195 743.09 228.262 742.404 227.194 742.068C210.546 736.778 207.105 716.953 214.882 704.49C217.599 700.113 220.027 695.694 224.692 693.137C226.747 691.86 229.047 691.068 231.421 690.82C233.796 690.572 236.185 690.874 238.413 691.704C243.409 693.758 248.2 696.291 252.723 699.269C254.502 700.284 255.888 701.889 256.66 703.828C257.431 705.768 257.544 707.928 256.98 709.965C256.351 713.102 255.286 716.254 254.411 719.401Z" fill="#6C382C"/>
<path d="M290.274 824.202C288.97 836.837 281.967 846.047 272.67 853.805C274.161 848.041 278.766 844.285 281.859 839.566C284.952 834.848 286.267 828.705 290.274 824.202Z" fill="#100503"/>
<path d="M247.56 805.248C246.498 811.27 243.44 816.761 238.911 820.78C237.496 822.32 235.666 823.389 233.665 823.846C231.664 824.303 229.586 824.126 227.706 823.339C222.732 821.25 217.991 818.633 213.558 815.528C212.336 814.687 211.324 813.562 210.602 812.242C209.88 810.922 209.468 809.443 209.398 807.92C208.602 799.737 210.29 792.187 216.005 785.989C217.854 783.708 220.39 782.125 223.198 781.499C226.005 780.873 228.92 781.241 231.467 782.542C236.723 785.131 241.684 788.297 246.265 791.986C247.516 792.788 248.466 793.998 248.967 795.427C249.468 796.856 249.491 798.424 249.033 799.885C248.476 801.958 247.925 803.936 247.56 805.248Z" fill="#6C382C"/>
</svg>
