<svg width="463" height="640" viewBox="0 0 463 640" fill="none" xmlns="http://www.w3.org/2000/svg">
<g clip-path="url(#clip0_57_172)">
<path d="M374.892 571.829C378.888 571.371 382.882 570.906 386.884 570.47C394.001 569.698 401.065 568.608 408.076 567.198C422.604 564.368 436.517 559.01 449.221 551.355C455.304 547.559 461.648 544.215 468.204 541.346C477.367 537.465 486.764 534.56 496.714 533.367C507.931 532.02 519.234 531.83 530.483 530.954C533.161 530.744 533.385 530.233 533.697 527.822C534.983 517.641 535.333 507.343 534.743 497.062C533.646 477.373 529.94 457.886 523.727 439.14C519.921 427.295 514.858 415.898 508.633 405.156C508.318 404.692 508.031 404.209 507.773 403.709C507.161 402.304 506.185 402.221 504.836 402.494C495.746 404.278 486.548 405.49 477.295 406.121C469.792 406.707 462.229 406.245 454.812 404.749C449.555 403.648 444.534 401.528 440.018 398.503C431.954 393.065 424.411 386.837 417.499 379.909C414.36 376.843 411.206 373.726 407.996 370.734C401.52 364.564 394.282 359.306 386.475 355.1C370.973 346.854 359.266 334.525 350.073 319.48C346.333 313.351 343.048 306.937 338.677 301.227C338.024 300.298 337.53 299.262 337.216 298.166C334.886 291.243 332.529 284.334 330.185 277.414C329.384 275.186 328.461 273.004 327.422 270.879C324.457 264.494 319.395 262.435 312.954 264.133C309.541 264.953 306.384 266.611 303.75 268.966C301.117 271.322 299.085 274.305 297.825 277.663C295.399 283.885 294.349 290.605 294.749 297.343C295.305 308.219 297.308 318.787 301.554 328.873C304.014 334.934 307.042 340.742 310.593 346.214C315.931 354.224 321.295 362.218 326.571 370.277C330.276 375.866 333.229 381.937 335.348 388.321C336.598 392.157 336.765 391.197 333.536 392.765C322.915 397.902 311.765 401.517 300.442 404.706C292.999 406.718 285.713 409.272 278.637 412.348C271.322 415.612 264.377 419.522 258.637 425.382C253.738 430.401 249.829 436.129 249.284 443.404C248.617 452.319 250.586 460.549 257.837 466.64C259.742 468.172 261.898 469.337 264.197 470.079C266.196 470.799 268.205 471.501 270.207 472.204C270.089 473.285 269.237 473.593 268.65 474.111C262.46 479.56 259.988 486.425 261.354 494.815C261.806 498.197 262.706 501.507 264.03 504.652C267.475 512.243 273.351 516.242 281.207 517.468C282.754 517.715 284.313 517.865 286.041 518.077C285.051 519.999 283.778 521.78 283.444 523.921C282.047 532.843 283.546 541.133 289.746 547.997C293.766 552.449 298.986 554.527 304.877 554.582C305.533 554.691 305.556 554.282 305.483 553.799C304.917 552.916 303.996 552.755 303.096 552.564C290.193 549.85 287.016 543.059 285.074 532.3C284.164 527.275 285.687 523.053 287.998 518.92C288.16 518.494 288.171 518.021 288.029 517.583C287.888 517.145 287.603 516.768 287.223 516.519C285.267 515.488 283.09 515.636 281.022 515.353C270.421 513.929 265.018 504.59 263.542 496.515C261.831 487.189 264.221 479.779 271.707 474.253C272.429 473.827 272.968 473.138 273.219 472.32C273.233 472.09 273.201 471.858 273.126 471.64C273.05 471.421 272.933 471.219 272.781 471.047C270.167 469.568 267.221 469.087 264.465 468.026C256.101 464.838 252.646 458.117 251.346 449.748C250.175 442.194 252.799 435.791 257.276 430.133C262.985 422.903 270.474 418.07 278.777 414.602C287.88 410.698 297.256 407.476 306.832 404.961C315.761 402.705 324.18 399.079 332.663 395.6C335.755 394.33 335.946 394.387 336.886 397.577C337.18 398.97 337.602 400.332 338.148 401.646C338.245 401.914 338.427 402.141 338.664 402.291C338.901 402.442 339.179 402.506 339.453 402.473C339.905 402.347 340.081 401.826 340.172 401.359C340.491 399.631 339.996 397.988 339.616 396.321C336.592 382.192 329.307 370.225 321.277 358.536C315.202 349.684 308.827 340.962 304.595 330.872C299.018 317.563 295.818 303.845 297.147 289.363C297.713 283.178 299.152 277.199 303.386 272.531C307.979 267.479 313.431 264.449 320.554 266.384C321.115 266.645 321.553 267.098 322.094 267.397C323.443 268.41 324.508 269.774 325.174 271.347C327.539 275.96 329.429 280.809 330.814 285.812C332.09 290.563 334.036 295.064 335.456 299.759C335.603 300.187 335.778 300.604 335.979 301.008C339.705 305.729 342.953 310.824 345.674 316.213C347.122 319.009 347.025 319.698 344.828 321.83C343.702 322.931 342.283 323.641 341.098 324.64C340.605 325.061 340.023 325.625 340.306 326.287C340.662 327.126 341.544 326.983 342.25 326.81C343.908 326.277 345.426 325.376 346.699 324.17C349.307 322.041 349.909 322.205 351.194 325.535C351.284 325.804 351.36 326.077 351.422 326.354C351.628 326.878 352.019 327.305 352.516 327.547C355.585 330.853 358.337 334.445 361.321 337.83C368.04 345.36 376 351.609 384.821 356.278C393.254 360.889 401.04 366.679 407.952 373.48C415.891 381.223 423.761 389.049 432.585 395.781C438.379 400.173 444.43 403.95 451.413 405.931C463.61 409.062 475.848 408.588 488.084 406.957C492.978 406.305 497.916 406.002 502.695 404.689C504.836 404.109 506.491 404.854 507.597 406.91C511.315 413.81 514.601 420.909 517.658 428.143C522.033 438.39 524.534 449.19 527.501 459.853C529.887 468.432 530.908 477.28 531.868 486.098C533.187 498.235 533.637 510.402 532.447 522.56C531.821 528.966 531.899 529.055 525.806 529.316C517.384 529.673 508.936 529.991 500.57 530.821C489.161 531.985 478.014 534.905 467.503 539.485C456.142 544.426 445.928 551.57 434.687 556.722C432.162 558.019 429.526 559.076 426.809 559.883C424.936 560.357 423.221 561.259 421.424 561.893C415.623 563.917 409.526 564.77 403.513 566.002C396.964 567.335 390.35 568.001 383.744 568.909C380.952 569.375 378.126 569.622 375.291 569.645C373.894 570.105 373.272 570.743 374.892 571.829Z" fill="#3D190D"/>
<path d="M250.379 601.19C250.406 601.781 250.745 602.262 250.142 602.942C247.616 605.78 247.345 609.023 249.197 612.557C250.171 614.625 251.639 616.411 253.46 617.746C254.443 618.402 255.12 618.946 254.605 620.437C254.164 622.001 254.326 623.691 255.057 625.157C256.788 629.049 259.122 632.481 263.28 633.948C264.196 634.193 265.032 634.694 265.696 635.393C266.36 636.093 266.826 636.965 267.043 637.912C268.713 643.586 274.781 647.838 280.387 647.524C281.796 647.439 282.045 648.252 282.585 649.126C283.658 650.971 285.119 652.548 286.859 653.739C288.599 654.929 290.572 655.702 292.63 656C294.418 656.29 296.162 656.12 297.5 654.739C298.527 653.666 299.39 654.056 300.375 654.83C301.889 656.1 303.7 656.932 305.619 657.24C306.479 657.422 307.366 657.395 308.207 657.161C309.049 656.927 309.822 656.492 310.464 655.892C311.33 655.06 312.221 654.261 313.015 653.362C314 652.245 314.947 651.13 316.45 650.697C317.216 650.379 317.892 649.872 318.417 649.22C321.108 646.564 323.787 643.865 326.476 641.233C327.505 640.352 328.201 639.129 328.45 637.769C328.699 636.409 328.484 634.995 327.843 633.762C326.91 631.752 326.619 630.376 328.348 628.618C330.171 626.763 330.235 624.224 329.165 621.748C328.109 619.092 326.344 616.787 324.077 615.103C323.232 614.503 322.699 614.068 323.21 612.863C324.062 610.829 323.531 608.786 322.66 606.83C321.882 604.938 320.733 603.226 319.288 601.801C317.842 600.377 316.13 599.271 314.26 598.554C312.232 597.786 311.43 596.599 310.882 594.632C309.931 591.517 307.974 588.816 305.339 586.979C303.249 585.337 300.647 584.555 298.054 584.79C297.43 584.876 296.792 584.768 296.222 584.478C295.653 584.188 295.177 583.731 294.858 583.166C293.244 580.817 291.09 578.913 288.592 577.629C285.704 576.179 282.816 575.548 280.074 577.855C279.315 578.5 278.675 578.307 277.829 577.842C270.938 573.865 269.041 574.141 263.748 579.852C262.805 580.902 261.895 581.849 260.471 582.237C259.396 582.536 258.634 583.442 257.852 584.219C255.362 586.692 252.879 589.164 250.44 591.686C249.316 592.85 248.552 594.213 248.916 595.987C249.128 597.786 249.622 599.543 250.379 601.19Z" fill="#0D340F"/>
<path d="M381.993 287.324C385.673 289.263 389.089 288.502 392.337 286.369C394.702 284.845 394.677 284.836 396.925 286.424C398.319 287.527 400.006 288.16 401.75 288.234C404.661 287.739 407.736 287.837 410.005 285.362C410.498 284.948 410.962 284.498 411.391 284.015C411.785 283.433 412.505 282.87 412.029 282.034C411.641 281.353 410.915 281.429 410.27 281.522C406.888 282.022 403.891 280.862 401.158 278.904C399.591 277.764 398.405 277.936 396.943 279.037C394.535 280.849 391.813 281.858 388.716 281.325C387.026 281.046 385.435 280.297 384.115 279.16C382.795 278.023 381.796 276.541 381.228 274.875C380.453 272.885 379.489 271.829 377.381 272.006C370.161 273.447 364.195 267.401 365.364 259.85C365.454 259.154 365.391 258.444 365.182 257.77C364.972 257.097 364.62 256.477 364.152 255.956C363.148 254.729 361.77 253.888 360.25 253.575C357.82 252.675 357.266 250.465 356.557 248.299C356.106 246.927 356.229 244.766 354.466 244.673C352.702 244.581 352.368 246.833 351.823 248.158C350.572 251.335 351.367 254.439 352.916 257.404C353.401 258.325 354.231 259.008 354.532 260.035C355.559 261.562 357.13 262.251 358.697 262.95C360.771 263.256 359.988 264.852 360.023 266.048C360.286 272.964 363.506 277.552 369.955 278.681C370.679 278.827 371.42 278.835 372.141 278.703C373.842 278.325 374.518 279.027 375.811 280.416C377.909 282.669 379.052 285.873 381.993 287.324Z" fill="#225A26"/>
<path d="M354.569 260.001C354.913 259.378 354.509 258.938 354.162 258.539C352.728 256.7 352.229 254.467 351.8 252.27C351.245 249.398 352.486 247.091 354.346 244.683C355.454 246.336 355.613 247.947 356.047 249.426C356.549 251.245 357.556 252.882 358.942 254.136C359.289 254.449 359.775 255.047 360.288 254.289C360.52 253.232 359.849 252.489 359.358 251.712C357.039 248.007 357.125 244.453 359.466 240.84C361.657 237.456 361.563 237.42 359.376 234.135C355.697 228.69 356.916 222.552 362.685 219.592C365.354 218.227 366.146 216.58 365.988 213.63C365.662 207.528 369.629 203.485 375.508 204.016C378.567 204.3 380.101 203.243 381.441 200.498C384.381 194.464 390.016 193.157 395.495 197.1C397.774 198.744 399.46 198.668 401.646 196.965C406.412 193.275 412.373 195.005 415.14 200.539C417.096 204.447 417.096 204.447 421.434 204.153C426.919 203.786 431.406 208.163 431.247 214.385C431.163 217.781 432.424 219.573 435.132 221.089C440.358 224.095 441.732 229.583 438.458 234.607C436.817 237.119 436.937 239.056 438.545 241.548C442.195 247.19 440.712 252.764 434.836 255.612C432.419 256.788 431.541 258.396 431.674 261.148C432.039 268.406 428.296 272.102 421.227 271.375C418.597 271.098 417.232 271.698 416.292 274.402C414.163 280.447 407.685 282.312 402.536 278.402C400.405 276.797 398.912 276.527 396.453 278.125C390.832 281.784 385.463 280.702 382.523 274.625C381.875 273.285 381.397 271.731 379.631 271.435C379.257 271.385 378.879 271.426 378.527 271.554C378.175 271.682 377.858 271.894 377.603 272.173L377.406 272.59C379.122 272.703 379.948 273.506 380.535 275.344C381.819 279.438 387.488 283.708 392.505 282.044C394.528 281.371 396.525 280.768 398.092 279.252C398.832 278.542 399.346 278.581 400.214 279.206C402.72 281.038 405.353 282.504 408.585 282.503C409.597 282.497 410.544 282.068 411.906 282.28C410.67 284.657 408.663 285.854 406.578 286.851C405.515 287.411 404.315 287.646 403.116 287.531C402.847 287.469 402.567 287.506 402.324 287.636C402.082 287.765 401.892 287.978 401.789 288.239C406.368 288.974 409.851 287.083 412.501 283.486C412.938 282.876 413.339 282.238 413.7 281.576C414.025 280.906 414.544 280.359 415.187 280.01C415.831 279.66 416.567 279.525 417.295 279.623C422.079 279.97 425.547 277.642 428.064 273.68C428.703 272.648 429.464 271.704 430.33 270.867C431.359 269.932 432.195 268.794 432.789 267.519C433.384 266.243 433.726 264.855 433.796 263.434C433.834 262.132 434.353 260.903 435.248 259.996C436.648 258.535 437.737 256.782 439.125 255.277C443.546 250.486 443.783 245.062 439.77 239.678C438.825 238.42 438.674 237.738 439.612 236.373C444.536 229.417 442.357 221.584 434.575 218.266C433.145 217.647 432.943 217.002 433.151 215.557C434.335 207.238 427.932 200.88 419.829 202.355C418.436 202.608 417.917 202.359 417.472 200.977C416.676 198.517 415.107 196.388 413.015 194.929C409.151 192.19 404.256 192.347 400.181 195.56C398.863 196.605 398.008 196.764 396.72 195.586C392.031 191.304 384.289 191.559 380.121 198.407C378.797 200.58 377.071 202.076 374.138 201.915C372.375 201.792 370.623 202.176 369.076 203.023C367.53 203.871 366.251 205.149 365.383 206.715C364.7 207.709 363.899 208.61 362.996 209.396C361.016 211.318 359.496 213.608 359.29 216.431C359.045 219.848 357.037 222.03 354.919 224.195C354.032 224.976 353.278 225.905 352.688 226.943C353.363 227.477 353.915 228.159 354.304 228.937C354.692 229.716 354.906 230.572 354.93 231.441C355.009 233.066 355.942 234.476 356.895 235.763C357.848 237.051 357.65 238.311 356.772 239.595C355.766 241.073 354.883 240.83 354.07 239.472C352.893 237.43 352.249 235.116 352.203 232.759C352.159 231.778 352.553 230.376 350.808 230.35C349.486 234.145 350.542 237.61 352.628 240.78C353.431 242.022 353.763 242.915 353.037 244.306C352.683 245.004 352.438 245.852 352.023 246.55C349.74 250.424 350.506 256.577 354.569 260.001Z" fill="#123B0F"/>
<path d="M367.67 639.78C369.558 642.13 371.45 644.63 374.927 645.183C378.196 645.7 381.427 646.629 384.637 647.209C385.176 647.293 385.685 647.532 386.103 647.898C386.522 648.264 386.834 648.742 387.003 649.277C388.306 652.319 389.707 655.325 390.949 658.423C391.85 660.619 393.235 662.576 394.993 664.137C397.16 666.118 398.655 665.876 400.031 663.287C402.224 659.17 404.408 655.049 406.43 650.838C407.27 649.091 408.449 648.48 410.266 648.329C414.557 647.97 418.831 647.419 423.115 646.929C423.663 646.867 424.202 646.749 424.724 646.576C426.69 645.887 427.262 644.136 426.089 642.359C425.777 641.898 425.423 641.469 425.031 641.077C421.8 637.682 418.598 634.2 415.235 630.959C414.705 630.523 414.309 629.936 414.098 629.275C413.887 628.613 413.869 627.905 414.048 627.24C414.789 623.354 415.45 619.459 416.133 615.558C416.497 613.901 416.242 612.154 415.419 610.661C414.596 609.167 413.264 608.036 411.686 607.489C410.52 607.026 409.514 607.518 408.542 608.025C405.052 609.863 401.547 611.673 398.12 613.627C396.376 614.617 394.925 614.855 393.079 613.588C390.006 611.472 386.719 609.684 383.517 607.762C382.973 607.4 382.404 607.079 381.816 606.801C379.364 605.821 377.507 607.062 377.554 609.752C377.643 611.167 377.818 612.576 378.08 613.971C378.55 617.251 378.991 620.533 379.536 623.809C379.643 624.46 379.576 625.127 379.343 625.737C379.11 626.347 378.72 626.878 378.214 627.273C375.461 629.872 372.72 632.473 369.989 635.077C369.333 635.73 368.72 636.427 368.154 637.163C367.895 637.535 367.718 637.961 367.635 638.413C367.552 638.864 367.563 639.33 367.67 639.78Z" fill="#352814"/>
<path d="M245.635 333.501C241.848 335.201 237.864 337.074 233.811 338.777C228.171 341.134 229.972 341.113 225.103 338.048C221.318 335.649 217.711 333.012 213.964 330.501C211.167 328.664 209.682 329.329 207.92 332.088C205.559 335.739 205.371 339.527 206.116 343.684C206.672 346.752 206.799 349.892 207.261 352.979C207.389 353.573 207.338 354.191 207.115 354.749C206.891 355.307 206.506 355.778 206.011 356.1C203.079 358.491 200.241 360.975 197.288 363.317C195.852 364.322 194.78 365.784 194.232 367.485C193.808 368.518 193.325 369.524 192.783 370.496C191.59 373.191 192.574 375.36 195.41 376.155C200.651 377.628 205.896 379.139 211.173 380.437C211.971 380.586 212.713 380.968 213.313 381.536C213.913 382.104 214.345 382.834 214.556 383.64C216.451 388.889 218.563 394.069 220.617 399.289C221.223 400.838 222.073 402.193 223.9 402.378C225.727 402.563 226.758 401.362 227.566 399.94C230.33 395.081 233.128 390.237 235.774 385.309C236.049 384.678 236.496 384.145 237.062 383.774C237.627 383.403 238.288 383.209 238.964 383.216C243.912 382.974 248.849 382.531 253.8 382.383C256.4 382.305 258.18 381.361 259.069 378.805C259.32 378.2 259.604 377.61 259.92 377.04C261.511 373.745 261.378 372.694 258.967 369.945C255.503 365.985 252.06 361.994 248.528 358.092C248.036 357.613 247.682 357.003 247.508 356.332C247.334 355.662 247.345 354.958 247.542 354.3C248.537 349.903 249.367 345.464 250.232 341.04C250.471 339.843 250.643 338.632 250.748 337.413C250.994 334.107 248.927 332.46 245.635 333.501Z" fill="#342C14"/>
<path d="M467.083 358.866C468.226 360.234 469.297 361.646 470.507 362.956C471.177 363.818 472.108 364.424 473.148 364.674C474.188 364.923 475.273 364.801 476.224 364.328C483.007 361.535 489.834 358.871 496.592 356.014C497.355 355.627 498.213 355.474 499.065 355.575C499.917 355.676 500.728 356.026 501.4 356.583C507.486 360.926 513.687 365.134 519.811 369.395C520.423 369.815 521.027 370.262 521.679 370.632C525.407 372.747 528.944 370.691 528.81 366.348C528.713 363.041 528.383 359.745 528.104 356.443C527.684 351.454 527.344 346.45 526.723 341.478C526.481 339.567 527.105 338.606 528.446 337.508C533.717 333.197 538.895 328.77 544.071 324.336C548.179 320.829 548.281 319.06 544.612 315.101C538.242 308.206 541.152 309.925 532.431 307.671C528.497 306.654 524.567 305.62 520.609 304.736C519.897 304.645 519.224 304.336 518.68 303.847C518.136 303.358 517.746 302.714 517.561 301.998C515.705 296.424 513.642 290.923 511.724 285.374C511.191 283.751 510.26 282.292 509.022 281.138C507.505 279.74 506.115 278.196 504.617 276.785C502.422 274.701 500.486 274.783 498.115 276.892C498.193 277.445 498.596 277.633 499.048 277.751C502.956 277.688 503.44 277.979 504.778 281.909C506.836 288.105 508.976 294.262 511.097 300.432C511.438 301.66 512.096 302.774 512.999 303.657C513.902 304.539 515.017 305.157 516.225 305.443C522.551 307.197 528.918 308.712 535.271 310.317C537.451 310.868 539.227 311.856 540.19 314.054C540.481 314.571 540.903 314.998 541.41 315.29C545.703 317.736 545.981 320.543 542.146 323.414C537.14 327.171 532.641 331.574 527.688 335.387C525.623 336.977 524.871 338.959 524.918 341.673C525.146 348.385 526.426 355.011 526.631 361.722C526.665 362.5 526.752 363.225 526.803 363.983C527.135 369.122 525.795 370.086 521.386 367.908C517.906 366.355 515.229 363.61 512.077 361.595C511.889 361.411 511.687 361.243 511.473 361.093C507.688 358.994 504.289 356.229 500.772 353.669C500.572 353.492 500.351 353.341 500.114 353.222C499.622 352.986 499.068 352.934 498.549 353.074C498.162 353.217 497.765 353.328 497.36 353.405C490.745 356.034 484.163 358.731 477.552 361.35C473.605 362.914 472.778 362.679 470.168 359.134C469.9 358.585 469.486 358.123 468.975 357.804C468.718 357.646 468.43 357.552 468.134 357.531C467.838 357.509 467.542 357.56 467.271 357.679C466.881 358.087 466.668 358.414 467.083 358.866Z" fill="#402112"/>
<path d="M374.892 571.829C374.434 571.168 374.06 570.484 374.948 569.922C376.362 570.072 376.859 568.792 377.368 567.964C379.634 564.245 382.032 560.592 383.434 556.373C383.635 555.953 383.751 555.495 383.776 555.025C383.801 554.555 383.734 554.083 383.58 553.637C382.522 552.025 381.397 552.669 380.285 553.49C377.705 555.886 376.119 559.227 373.251 561.357C373.031 561.514 372.825 561.693 372.637 561.89C369.319 565.413 365.184 567.974 361.592 571.116C361.114 571.535 360.607 571.918 360.075 572.263C359.892 572.446 359.748 572.665 359.652 572.909C359.73 573.982 360.605 573.432 361.109 573.709C365.739 573.349 370.34 572.721 374.892 571.829Z" fill="#140703"/>
<path d="M467.083 358.866L467.629 357.926C466.216 354.734 467.126 351.762 468.024 348.66C469.706 342.898 471.557 337.198 473.137 331.424C473.531 330.274 473.624 329.032 473.407 327.822C473.189 326.612 472.668 325.477 471.896 324.528C467.99 319.453 464.118 314.348 460.281 309.212C459.89 308.682 459.448 308.191 459.083 307.646C456.708 304.233 457.581 302.028 461.626 301.801C467.479 301.473 473.361 301.491 479.224 301.255C480.324 301.209 481.427 301.201 482.522 301.165C483.4 301.164 484.259 300.934 485.02 300.496C485.781 300.059 486.418 299.428 486.871 298.662C490.867 292.398 494.584 285.95 498.496 279.63C498.933 278.926 499.309 278.143 498.817 277.248L498.08 276.902C493.762 283.295 489.95 290.005 486.034 296.61C485.631 297.433 485.006 298.115 484.232 298.576C483.457 299.037 482.567 299.258 481.666 299.212C474.696 299.307 467.738 299.636 460.778 299.878C459.67 299.817 458.572 300.078 457.612 300.633C457.107 300.96 456.676 301.393 456.345 301.903C456.014 302.414 455.792 302.992 455.692 303.6C455.591 304.208 455.615 304.833 455.762 305.436C455.909 306.038 456.176 306.605 456.545 307.099C458.779 310.362 461.172 313.51 463.545 316.671C465.918 319.833 468.188 322.841 470.66 325.81C471.2 326.384 471.569 327.104 471.725 327.882C471.881 328.66 471.816 329.465 471.538 330.198C469.39 337.186 467.393 344.227 465.274 351.214C464.34 354.184 464.5 356.787 467.083 358.866Z" fill="#343B1A"/>
<path d="M230.927 301.372C234.496 302.255 237.852 303.196 241.253 303.889C242.508 304.129 243.654 304.796 244.508 305.78C246.952 308.457 249.224 311.308 252.044 313.856C253.226 310.297 253.631 306.741 254.348 303.263C254.57 301.893 255.235 300.647 256.238 299.728C258.832 297.399 261.275 294.898 263.552 292.241C260.191 290.954 256.875 290.403 253.623 289.669C252.272 289.438 251.033 288.733 250.118 287.673C248.411 285.674 246.6 283.767 244.806 281.839C244.207 281.016 243.401 280.376 242.477 279.989C241.783 283.247 241.042 286.416 240.453 289.614C240.172 291.466 239.254 293.141 237.864 294.336C235.478 296.442 233.015 298.522 230.927 301.372Z" fill="#293328"/>
<path d="M305.35 553.843L304.861 554.578C305.991 555.052 307.145 554.817 308.295 554.868C309.067 554.905 309.904 554.57 310.586 555.239C310.83 555.482 311.14 555.641 311.474 555.693C316.311 554.67 321.129 553.606 325.666 551.532C327.255 550.806 329.009 550.563 330.661 550.009C341.774 546.287 352.708 542.141 362.383 535.274C364.188 533.984 366.034 532.84 368.335 532.617C369.448 532.521 370.484 532.017 371.256 531.198C371.81 529.933 370.813 529.745 370.099 529.779C369.06 529.855 368.233 529.376 367.324 529.093C366.021 528.983 365.067 529.721 364.094 530.441C352.496 538.487 339.64 544.461 326.056 548.114C319.796 549.856 313.671 552.222 307.107 552.763C306.746 552.769 306.393 552.871 306.085 553.06C305.777 553.25 305.523 553.52 305.35 553.843Z" fill="#100503"/>
<path d="M311.637 555.128L310.593 555.237C307.603 563.01 309.944 569.837 314.661 576.081C318.277 580.858 323.431 582.946 329.035 583.751C334.16 584.454 339.352 583.823 344.133 581.915C349.106 580.073 353.889 577.745 358.417 574.962C359.283 574.469 360.183 574.043 361.11 573.685L359.796 572.987C358.451 572.124 357.574 573.219 356.57 573.774C350.633 577.088 344.722 580.498 337.962 581.567C330.064 582.819 322.221 582.077 316.449 575.221C312.308 570.306 310.326 564.443 311.566 557.858C311.77 556.95 312.142 556.067 311.637 555.128Z" fill="#422012"/>
<path d="M350.835 230.334C351.859 230.837 351.454 231.738 351.403 232.54C351.324 235.171 352.002 237.781 353.353 240.043C353.739 240.685 354.235 241.252 354.817 241.715C355.508 242.311 356.075 242.484 356.573 241.565C356.616 241.482 356.665 241.402 356.721 241.328C358.594 239.049 359.546 236.799 357.012 234.155C356.464 233.569 356.055 232.862 355.815 232.091C355.575 231.319 355.512 230.504 355.63 229.71C355.636 229.616 355.631 229.523 355.613 229.431C355.328 226.981 354.997 226.695 352.73 226.9C352.199 227.304 351.757 227.817 351.431 228.408C351.105 228.999 350.902 229.655 350.835 230.334Z" fill="#1F5323"/>
<path d="M411.37 337.002C413.613 337.56 415.501 338.153 417.468 338.457C419.113 338.684 420.616 339.569 421.65 340.918C422.93 342.532 424.389 343.993 425.754 345.504C426.688 345.245 426.493 344.464 426.615 343.886C426.852 342.685 427.122 341.491 427.251 340.282C427.348 339.108 427.687 337.973 428.246 336.953C428.804 335.932 429.568 335.049 430.489 334.362C431.745 333.438 432.844 332.307 433.742 331.014C433.388 329.907 432.4 330.001 431.669 329.92C429.52 329.724 427.437 329.013 425.586 327.845C423.735 326.677 422.168 325.084 421.011 323.194C420.67 322.682 420.338 322.01 419.412 321.913C418.796 324.015 418.355 326.17 418.094 328.355C417.856 329.841 417.128 331.189 416.032 332.175C414.316 333.609 412.753 335.227 411.37 337.002Z" fill="#293429"/>
<path d="M228.672 528.672C230.251 529.287 231.9 529.684 233.573 529.853C234.623 529.981 235.641 530.326 236.565 530.866C237.49 531.406 238.301 532.131 238.952 532.998C240.01 534.389 241.301 535.606 242.853 537.294C243.246 535.089 243.691 533.373 243.829 531.625C243.897 530.543 244.202 529.495 244.72 528.558C245.238 527.622 245.956 526.821 246.821 526.215C248.044 525.268 249.107 524.105 250.412 522.852C248.404 521.74 246.392 521.551 244.493 521.079C242.953 520.78 241.557 519.932 240.55 518.686C239.362 517.156 237.92 515.808 236.414 514.202C235.718 516.214 235.252 518.306 235.023 520.436C234.839 521.938 234.112 523.304 232.986 524.264C231.372 525.54 229.923 527.02 228.672 528.672Z" fill="#273127"/>
<path d="M381.993 287.324C382.142 287.062 382.21 286.705 381.931 286.554C380.031 285.696 379.308 284.053 378.876 282.117C378.694 281.301 378.753 279.677 377.083 280.961C376.72 281.243 376.351 280.605 376.105 280.185C374.939 277.964 374.645 277.676 372.665 278.093C369.366 278.782 366.761 277.474 364.295 275.402C361.486 273.032 360.852 269.71 360.593 266.26C360.635 265.42 360.617 264.577 360.539 263.738C360.315 262.768 359.825 261.856 358.668 262.903C359.025 263.12 359.304 263.453 359.459 263.848C359.615 264.243 359.638 264.677 359.526 265.083C359.294 266.477 359.35 267.912 359.691 269.292C361.078 275.785 366.176 279.78 372.573 279.103C374.053 278.944 374.622 279.321 375.194 280.635C376.604 283.757 378.69 286.218 381.993 287.324Z" fill="#112F14"/>
<path d="M250.379 601.19C250.06 599.402 249.572 597.648 248.922 595.953C248.723 597.816 249.247 599.697 250.379 601.19Z" fill="#205726"/>
<path d="M351.827 326.415C352.358 325.802 352.618 325.202 352.032 324.411C351.117 323.232 350.272 322.001 349.292 320.643C346.596 322.898 344.459 325.817 340.699 326.438C341.01 325.366 341.779 325.199 342.399 324.877C344.317 323.79 346.001 322.32 347.353 320.552C347.693 320.238 347.915 319.811 347.98 319.343C348.046 318.875 347.952 318.395 347.714 317.985C344.651 312.455 341.799 306.804 337.823 301.827C337.513 301.489 337.172 301.183 336.806 300.912C334.95 299.994 333.236 301.228 331.424 301.235C330.423 301.316 329.415 301.137 328.49 300.716C327.565 300.295 326.752 299.645 326.127 298.825C321.683 293.096 319.46 286.449 318.156 279.405C317.297 274.783 317.898 270.589 321.15 267.1C321.307 266.927 321.406 266.706 321.434 266.47C321.463 266.233 321.419 265.992 321.308 265.78C318.202 263.957 315.015 264.552 311.963 265.583C309.027 266.533 306.341 268.141 304.097 270.291C301.853 272.442 300.105 275.084 298.978 278.028C296.016 285.242 295.614 292.863 296.206 300.554C297.539 317.754 303.377 333.314 313.002 347.585C319.175 356.733 325.572 365.756 331 375.403C335.06 382.797 337.917 390.809 339.456 399.115C339.578 400.046 339.635 400.983 339.627 401.92C338.642 401.942 338.841 401.233 338.732 400.759C338.209 398.64 337.695 396.522 337.192 394.403C336.913 393.236 336.412 392.887 335.215 393.377C331.524 394.987 327.755 396.422 324.063 398.056C318.767 400.376 313.303 402.281 307.715 403.754C299.097 406.078 290.608 408.855 282.28 412.075C273.545 415.356 265.567 419.995 258.88 426.748C255.068 430.558 252.29 435.33 250.815 440.606C249.147 446.499 250.508 452.187 252.586 457.794C255.026 464.372 260.233 467.557 266.241 469.809C268.334 470.561 270.487 471.118 272.671 471.472C274.345 473.023 276.458 472.782 278.42 472.961C289.428 473.791 300.422 473.75 311.289 471.964C316.784 470.96 322.099 469.149 327.071 466.588C328.734 465.312 330.62 464.37 332.632 463.812C333.913 463.35 335.149 462.771 336.327 462.083C336.988 461.718 337.533 461.212 337.364 460.329C337.332 460.117 337.26 459.913 337.152 459.73C337.043 459.546 336.9 459.385 336.731 459.258C336.562 459.131 336.371 459.04 336.168 458.99C335.965 458.939 335.756 458.931 335.552 458.966C334.958 459.016 334.361 458.896 333.824 458.62C333.287 458.344 332.833 457.922 332.51 457.401C329.769 453.522 328.62 449.091 328.193 444.458C327.698 439.12 330.839 436.41 335.166 434.789C338.078 433.695 341.06 432.771 344.252 433.64C347.33 433.745 348.638 435.981 349.761 438.458C349.914 438.695 350.099 438.909 350.311 439.093C352.767 439.702 352.942 439.401 352.191 436.261C352.078 435.999 351.937 435.751 351.771 435.519C350.716 434.464 349.843 433.233 349.189 431.88C345.917 427.984 341.415 426.952 336.835 426.351C335.115 426.112 333.376 425.997 331.658 425.656C324.16 425.672 316.715 426.715 309.519 428.758C306.308 429.651 303.28 429.918 300.182 428.479C292.532 425.967 284.817 425.3 278.34 426.676C281.678 425.882 289.436 425.63 295.076 427.111C297.094 427.776 299.163 428.255 301.259 428.542C304.274 427.491 305.273 425.629 304.51 422.532C304.243 421.726 303.927 420.937 303.564 420.171C303.254 419.359 302.538 418.841 302.175 418.083C301.964 417.764 302.603 417.87 302.254 417.983C302.169 418.006 302.16 418.111 302.269 418.231C303.528 419.551 303.974 421.373 305.068 422.81C307.742 426.368 311.155 427.924 315.454 427.272C318.598 426.791 321.829 426.98 324.812 425.457C327.653 424.028 328.828 421.786 328.587 418.646C328.463 417.105 328.511 415.634 328.458 414.128C328.54 416.367 328.265 418.665 329.246 420.795C330.228 422.925 331.421 424.776 333.463 425.926C336.239 426.453 339.097 426.399 341.824 427.35C344.718 428.357 347.488 429.549 349.477 432.123C349.964 432.776 350.621 433.247 351.383 432.893C352.274 432.48 351.872 431.607 351.694 430.915C351.162 428.865 350.559 426.835 349.992 424.794C351.389 429.377 352.238 434.129 354.154 438.552C354.632 439.767 355.185 440.95 355.81 442.094C358.868 448.598 362.602 454.751 366.944 460.444C371.645 466.684 377.587 471.469 383.78 476.033C391.049 481.394 399.175 484.523 407.65 486.908C411.412 487.965 415.29 487.934 418.395 488.576C412.59 488.025 406.849 486.822 401.277 484.986C392.355 481.894 384.076 477.048 376.906 470.72C376.08 469.997 375.358 469.047 374.229 468.739C371.69 468.571 371.186 469.034 371.956 471.53C373.374 476.297 374.502 481.065 373.608 486.041C373.44 486.971 373.364 487.906 373.094 488.824C372.255 491.917 372.4 492.712 375.156 494.483C381.546 498.575 383.533 504.759 383.544 511.95C383.55 517.038 381.952 521.785 380.247 526.451C379.76 527.615 379.59 528.897 379.755 530.163C379.919 531.429 380.412 532.632 381.181 533.645C383.826 537.384 385.041 541.977 384.591 546.532C384.181 550.646 383.568 554.733 382.754 558.776C382.58 559.705 382.147 560.559 381.509 561.234C379.925 563.05 378.588 565.081 377.534 567.272C377.208 567.907 376.549 568.523 377.113 569.32C377.678 570.116 378.416 569.95 379.144 569.881C382.964 569.504 386.752 568.9 390.557 568.416C399.924 567.328 409.196 565.583 418.31 563.193C429.144 560.107 439.492 555.502 449.065 549.507C456.624 544.856 464.557 540.87 472.783 537.59C478.808 535.221 485.203 533.796 491.608 532.55C502.453 530.439 513.473 530.572 524.414 529.766C531.681 529.233 531.7 529.465 532.76 522.181C534.208 512.236 533.588 502.252 532.81 492.225C531.844 479.897 529.846 467.659 526.841 455.648C522.737 439.305 517.083 423.694 509.115 408.86C506.774 404.5 505.557 404.019 500.915 404.837C488.809 406.881 476.628 408.214 464.306 407.757C459.762 407.587 455.147 407.106 450.907 404.961C441.671 401.897 434.07 395.998 426.638 389.777C419.514 383.808 413.127 376.989 406.321 370.688C399.735 364.626 392.441 359.435 384.616 355.239C372.672 348.768 362.94 339.704 354.877 328.639C354.343 327.897 354.024 326.914 352.964 326.721C350.899 327.295 349.612 329.3 347.693 329.881C349.293 329.168 350.929 328.28 351.827 326.415Z" fill="#6C382C"/>
<path d="M272.974 472.506C265.971 476.29 260.592 484.461 262.422 494.352C262.739 496.596 263.209 498.816 263.828 500.997C266.618 509.463 272.067 514.803 280.801 516.202C282.882 516.529 284.994 516.698 287.103 516.939C290.819 518.513 294.563 517.29 298.21 516.945C309.482 515.851 320.605 513.625 331.419 510.299C335.555 509.03 339.569 507.622 343.18 505.207C349.115 501.255 355.412 497.864 360.873 493.193C361.158 492.712 361.483 492.235 361.813 491.805C362.368 491.059 362.593 490.28 362.013 489.456C361.433 488.633 360.59 488.725 359.748 488.849C358.404 489.058 357.15 489.864 355.719 489.379C353.575 487.974 352.429 485.772 351.504 483.46C349.901 479.423 348.52 475.308 348.239 470.903C348.174 469.958 348.356 469.017 348.765 468.177C349.175 467.337 349.798 466.629 350.569 466.126C352.949 464.353 355.504 462.964 358.597 463.042C359.036 462.92 359.474 462.798 359.918 462.721C360.287 462.708 360.639 462.575 360.925 462.339C361.21 462.104 361.414 461.779 361.505 461.413C361.713 460.434 361.131 459.823 360.421 459.351C359.825 458.903 359.177 458.536 358.493 458.256C358.188 458.162 357.871 458.115 357.554 458.116C351.419 457.459 345.84 459.428 340.234 461.469C334.406 463.586 328.719 466.075 322.995 468.431C314.998 471.736 306.725 472.958 298.188 473.418C297.363 473.429 296.537 473.396 295.714 473.319C290.487 472.968 285.248 473.26 280.015 472.887C277.663 472.707 275.338 471.99 272.974 472.506Z" fill="#6C382C"/>
<path d="M305.35 553.843C310.405 554.013 315.103 552.383 319.878 551.11C330.077 548.437 340.007 544.825 349.549 540.318C355.058 537.597 360.341 534.425 365.346 530.833C366.086 530.312 366.688 529.546 367.661 529.401L368.022 529.356C368.395 529.309 368.748 529.164 369.049 528.936C369.249 528.779 369.431 528.598 369.593 528.399L370.064 527.763C371.558 526.56 372.96 525.216 374.506 524.061C375.499 523.392 376.356 522.533 377.033 521.53C377.508 520.744 378.092 519.857 377.35 518.944C376.609 518.032 375.728 518.371 374.855 518.795C373.376 519.506 372.003 520.487 370.321 520.687C368.447 520.909 366.58 520.94 365.552 518.862C362.983 514.912 360.41 510.979 360.249 505.989C360.21 504.478 360.415 502.975 360.856 501.542C362.366 499.246 364.75 498.308 367.111 497.343C368.206 496.897 369.629 496.643 369.315 495.02C369.001 493.398 367.621 493.506 366.262 493.443C362.706 493.29 359.835 495.27 356.641 496.254C351.903 499.195 347.367 502.45 342.583 505.333C336.054 509.261 328.809 511.025 321.556 512.869C314.131 514.754 306.537 515.7 298.976 516.63C296.264 516.967 293.546 517.195 290.787 517.332C289.565 517.404 288.422 517.541 287.524 518.476C285.989 520.286 284.888 522.443 284.305 524.78C283.723 527.116 283.676 529.569 284.168 531.946C284.783 535.781 285.881 539.526 287.434 543.085C288.835 545.999 291.079 548.405 293.853 549.966C297.387 552.083 301.307 553.405 305.35 553.843Z" fill="#6C382C"/>
<path d="M450.856 404.967C451.629 406.186 452.838 406.614 454.123 406.903C458.781 408.023 463.561 408.447 468.314 408.163C472.679 407.855 477.092 408.022 481.485 407.895C483.862 407.85 486.225 407.578 488.545 407.081C492.307 406.247 496.172 406.196 499.929 405.403C500.446 405.259 501.027 405.35 501.56 405.265C504.473 404.777 506.965 405.873 508.403 408.711C510.831 413.496 513.663 418.058 515.48 423.194C516.505 426.338 517.841 429.37 519.468 432.241C519.606 432.488 519.71 432.754 519.779 433.029C521.376 439.566 524.462 445.673 525.651 452.299C526.518 457.172 528.013 461.885 529.109 466.647C529.62 468.868 529.743 471.119 530.046 473.359C530.667 477.835 531.378 482.31 531.881 486.803C532.454 491.294 532.736 495.814 532.726 500.333C532.677 503.144 532.861 505.969 532.987 508.778C533.2 513.817 533.164 518.783 531.85 523.647C531.83 523.74 531.77 523.827 531.772 523.914C531.734 525.421 531.866 526.992 530.646 528.087C529.427 529.183 527.866 528.861 526.433 528.968C520.321 529.408 514.216 529.901 508.093 530.217C502.234 530.504 496.407 531.196 490.652 532.288C486.232 533.14 481.95 534.433 477.576 535.422C473.202 536.41 469.287 538.776 465.12 540.4C455.619 544.107 447.471 550.431 438.344 554.885C435.141 556.438 431.85 557.787 428.579 559.178C423.491 561.381 418.091 562.434 412.838 564.045C409.25 565.146 405.515 565.555 401.807 566.09C399.732 566.384 397.691 566.881 395.603 567.186C393.896 567.432 392.186 567.805 390.467 567.898C386.534 568.117 382.691 568.989 378.78 569.368C377.298 569.52 377.045 569.102 377.664 567.819C378.73 565.624 379.939 563.451 381.995 562.131C382.647 561.787 383.163 561.225 383.461 560.536C383.759 559.847 383.821 559.071 383.637 558.333C383.443 557.117 383.571 555.875 384.009 554.739C385.09 551.05 385.562 547.191 385.405 543.32C385.316 539.578 383.869 536.293 381.923 533.297C381.193 532.327 380.731 531.176 380.587 529.966C380.442 528.757 380.621 527.535 381.103 526.433C382.964 521.535 384.549 516.492 384.381 511.095C384.215 505.483 382.83 500.314 378.743 496.116C377.463 494.802 375.821 494.132 374.484 492.944C373.303 491.902 373.211 491.108 373.63 489.573C374.99 485.356 375.152 480.808 374.097 476.458C373.639 474.812 373.184 473.174 372.726 471.529C372.018 468.984 372.053 468.974 374.572 469.534C374.437 467.625 373.087 466.937 371.593 466.36C369.811 466.667 369.841 467.927 370.134 469.335C370.654 472.137 372.245 474.594 372.591 477.483C373.102 481.675 373.18 485.79 371.791 489.809C371.535 490.519 371.453 491.286 371.551 492.042C371.782 493.42 372.786 494.126 373.86 494.701C380.791 498.383 382.653 504.72 382.609 512.013C382.566 514.559 382.214 517.084 381.561 519.53C380.784 522.659 379.655 525.679 378.195 528.527C377.674 529.28 377.393 530.183 377.391 531.114C377.531 531.764 377.901 532.341 378.428 532.733C383.336 536.954 384.193 542.499 383.483 548.519C383.228 550.372 383.125 552.245 383.174 554.121C382.898 556.055 382.257 557.909 381.285 559.578C379.454 563.211 377.318 566.669 374.9 569.912C375.205 571.009 375.971 570.693 376.679 570.607L390.871 568.857C400.347 567.728 409.723 565.91 418.928 563.415C429.539 560.463 439.373 555.844 448.804 550.265C456.124 545.857 463.738 541.975 471.591 538.647C477.97 536.085 484.6 534.212 491.376 533.056C503.401 530.861 515.666 530.947 527.82 530.008C533.173 529.583 532.101 530.22 532.828 525.408C534.306 516.093 534.084 506.747 533.632 497.371C533.116 486.31 531.716 475.296 529.448 464.441C527.303 454.229 524.448 444.177 520.904 434.363C517.501 424.812 513.314 415.564 508.39 406.721C506.385 403.158 506.396 403.171 502.502 403.939C491.171 406.194 479.641 407.344 468.064 407.374C462.232 407.397 456.54 406.222 450.856 404.967Z" fill="#6C382C"/>
<path d="M336.408 299.975C335.81 296.895 334.487 294.056 333.526 291.093C332.038 286.512 330.781 281.858 329.016 277.377C327.977 274.638 326.729 271.984 325.284 269.441C324.575 268.235 323.966 266.593 322.052 266.865C319.377 267.932 318.461 270.393 317.767 272.911C317.072 275.428 317.394 278.01 317.911 280.443C319.229 286.632 321.194 292.601 324.938 297.839C327.888 301.896 332.228 302.784 336.408 299.975Z" fill="#6C382C"/>
<path d="M287.533 518.482C290.482 517.661 293.546 517.935 296.548 517.549C304.09 516.578 311.673 515.863 319.087 514.076C321.399 513.512 323.762 513.185 326.079 512.58C335.148 510.215 343.688 506.146 351.273 500.575C353.058 499.291 354.747 497.828 356.784 496.931C359.005 495.684 361.375 494.731 363.837 494.094C363.762 493.059 363.762 493.059 361.318 491.942C360.886 492.007 360.446 492.043 360.308 492.586C353.154 498.078 345.582 502.975 337.661 507.23C337.265 507.46 336.85 507.657 336.423 507.819C327.424 510.732 318.34 513.283 308.956 514.673C301.7 515.738 294.427 516.579 287.093 516.957C287.289 517.152 287.433 517.395 287.51 517.662C287.588 517.93 287.595 518.213 287.533 518.482Z" fill="#170805"/>
<path d="M272.974 472.506C276.012 473.21 279.112 473.563 282.214 473.56C286.5 473.731 290.789 473.727 295.078 473.803C304.392 473.859 313.421 472.726 322.189 469.231C327.816 466.996 333.39 464.594 339.063 462.464C341.56 461.525 344.364 461.084 346.547 459.232C346.69 458.913 346.726 458.552 346.649 458.206C346.572 457.859 346.386 457.547 346.121 457.317C343.383 456.929 341.084 458.388 339.137 459.773C335.434 462.379 331.247 463.685 327.161 465.326C326.92 465.441 326.727 465.639 326.616 465.887C321.175 468.244 315.664 470.353 309.696 471.225C299.445 472.617 289.062 472.896 278.718 472.059C276.712 471.915 274.701 471.647 272.7 471.44C272.769 471.799 272.869 472.157 272.974 472.506Z" fill="#130607"/>
<path d="M336.408 299.975C334.665 300.507 332.859 300.801 331.034 300.848C330.027 300.861 329.03 300.614 328.133 300.128C327.236 299.642 326.468 298.934 325.901 298.068C323.734 295.11 321.999 291.846 320.752 288.383C319.864 285.793 319.13 283.153 318.553 280.477C317.376 275.289 318.085 270.577 322.083 266.841C322.05 266.608 321.951 266.388 321.8 266.21C321.649 266.031 321.451 265.9 321.231 265.833C320.176 266.988 319.214 268.23 318.355 269.548C317.326 271.224 316.81 273.186 316.875 275.184C317.254 283.824 320.14 292.193 325.16 299.212C327.197 302.096 329.941 302.562 333.013 301.991C334.268 301.76 335.482 301.304 336.713 300.962C336.616 300.642 336.516 300.307 336.408 299.975Z" fill="#130607"/>
<path d="M351.827 326.415C349.874 327.612 348.262 329.297 346.004 329.949C345.615 330.057 345.152 330.446 345.376 331.006C345.601 331.566 346.159 331.435 346.56 331.26C349.021 330.279 351.226 328.734 353.008 326.74L351.827 326.415Z" fill="#170805"/>
<path d="M260.6 604.783C260.893 605.557 261.421 606.215 262.105 606.658C264.398 608.131 265.538 609.737 265.296 613.003C264.901 618.297 266.761 620.16 273.387 623.485C275.203 624.398 276.254 625.327 276.975 627.317C278.978 632.898 282.609 636.607 288.785 636.756C289.562 636.78 290.324 637.002 291.003 637.402C291.682 637.801 292.257 638.366 292.677 639.046C296.025 643.575 299.925 644.909 305.322 643.407C305.87 643.218 306.45 643.144 307.03 643.19C307.609 643.236 308.176 643.401 308.696 643.674C313.166 645.85 316.051 644.851 318.718 640.547C319.571 639.175 321.108 638.566 322.418 637.769C326.044 635.57 326.187 635.262 324.605 631.054C324.423 630.617 324.357 630.141 324.411 629.674C324.486 629.305 324.654 628.964 324.899 628.687C328.263 625.135 328.285 622.119 324.971 618.424C324.154 617.511 323.294 616.64 322.393 615.816C321.951 615.464 321.61 614.995 321.407 614.46C321.205 613.926 321.149 613.347 321.245 612.787C322.423 606.337 318.649 602.88 313.785 600.325C312.799 599.893 311.908 599.256 311.17 598.453C310.432 597.65 309.863 596.699 309.5 595.663C307.448 590.04 302.925 587.343 297.506 586.329C295.975 586.127 294.559 585.354 293.526 584.159C292.26 582.634 290.743 581.348 289.048 580.362C286.863 579.11 284.604 578.58 282.188 579.702C280.365 580.548 278.599 580.747 276.738 579.288C275.414 578.23 273.636 578.055 271.983 577.979C269.079 577.841 267.869 579.352 267.313 583.572C266.837 584.603 265.867 584.896 264.985 585.315C260.707 587.332 260.057 589.05 261.759 593.635L261.899 594.384C257.602 597.841 257.556 598.224 260.6 604.783Z" fill="#F7F9F8"/>
<path d="M265.172 616.969C265.223 617.318 265.281 617.664 265.381 618.298C263.663 616.585 263.462 614.577 263.148 612.025C260.416 614.888 257.578 616.931 255.761 619.934C254.519 621.989 255.573 624.162 256.472 626.134C258.09 629.703 261.078 631.732 264.433 633.272C265.69 633.844 266.78 633.872 267.843 632.599C269.432 630.692 271.312 629.042 273.016 627.221C274.008 626.157 273.968 625.876 272.653 625.233C271.249 624.517 269.947 623.6 268.787 622.511C268.692 622.444 268.613 622.356 268.554 622.254C268.496 622.152 268.46 622.039 268.448 621.922C268.437 621.805 268.45 621.687 268.488 621.577C268.526 621.467 268.587 621.367 268.666 621.284C267.811 619.607 267.022 617.841 265.172 616.969Z" fill="#205C28"/>
<path d="M288.185 638.68C285.272 638.23 282.526 636.949 280.259 634.984C278.997 633.877 277.928 632.556 277.1 631.08C276.758 630.411 276.375 629.765 275.952 629.146C275.046 627.916 274.133 627.674 273.217 628.685C271.724 630.33 270.015 631.719 268.47 633.292C268.055 633.658 267.758 634.147 267.619 634.694C267.481 635.242 267.506 635.822 267.693 636.36C269.162 641.175 272.714 645.451 278.161 646.591C278.885 646.735 279.63 646.698 280.331 646.484C281.033 646.269 281.672 645.883 282.193 645.359C284.448 643.393 286.46 641.151 288.185 638.68Z" fill="#1F5B28"/>
<path d="M265.172 616.969C266.339 618.425 267.259 620.061 268.663 621.301C270.24 622.609 271.998 623.664 273.877 624.428C274.389 624.62 274.85 624.938 275.218 625.354C275.586 625.769 275.851 626.27 275.989 626.811C278.297 633.111 282.382 637.19 289.217 637.542C289.808 637.578 290.382 637.766 290.888 638.09C291.394 638.413 291.814 638.861 292.11 639.393C293.925 642.18 296.572 644.291 299.641 645.398C302.007 646.205 304.239 646.143 305.917 644.093C306.795 643.06 307.331 643.424 308.187 644.036C309.326 644.834 310.513 645.557 311.739 646.2C312.728 646.729 313.82 647.013 314.927 647.031C317.767 647.076 319.149 645.77 319.321 642.854C319.379 642.049 318.998 641.171 319.443 640.306C320.795 640.371 322.162 640.519 323.528 640.47C326.007 640.395 327.156 639.185 327.336 636.653C327.4 635.137 327.023 633.629 326.253 632.321C325.724 631.325 324.855 630.527 324.603 629.376C324.361 629.191 324.177 629.242 324.065 629.526C323.464 630.898 324.346 632.095 324.59 633.359C324.963 635.327 324.904 635.501 323.074 636.318C320.671 637.38 318.627 638.879 317.442 641.359C317.097 642.287 316.421 643.04 315.551 643.468C314.681 643.896 313.68 643.966 312.749 643.666C311.049 643.256 309.288 643.391 307.604 642.733C306.632 642.392 305.587 642.369 304.613 642.667C303.266 642.93 301.889 643.017 300.516 642.924C299.136 642.961 297.766 642.624 296.541 641.947C295.316 641.27 294.28 640.277 293.536 639.067C292.935 638.059 292.083 637.232 291.07 636.673C290.057 636.114 288.922 635.845 287.783 635.893C282.85 635.831 279.438 632.636 277.906 627.539C277.166 625.073 275.963 623.596 273.623 622.884C271.449 622.22 269.737 620.75 268.096 619.181C266.247 617.411 265.828 615.164 265.968 612.682C266.204 608.929 265.768 608.262 262.128 606.659C262.263 606.897 262.335 607.24 262.54 607.372C264.539 608.667 265.232 610.255 264.353 612.682C263.823 614.067 264.8 615.552 265.172 616.969Z" fill="#60C42C"/>
<path d="M303.496 646.76C298.836 647.268 295.914 644.63 293.001 641.911C292.069 641.027 291.539 639.394 290.2 639.349C288.861 639.304 288.501 640.885 287.645 641.699C286.386 642.9 284.987 643.951 284.079 645.535C283.645 646.143 283.435 646.892 283.486 647.651C283.537 648.411 283.846 649.132 284.358 649.689C285.911 651.722 287.931 653.328 290.23 654.359C292.881 655.504 295.522 654.643 297.485 653.042C299.758 651.239 301.779 649.126 303.496 646.76Z" fill="#225A27"/>
<path d="M324.076 629.562L324.613 629.413C324.992 629.158 325.362 628.873 325.756 628.646C328.64 626.984 329.315 625 328.026 621.845C327.105 619.542 325.571 617.545 323.604 616.086C322.082 614.973 321.319 613.901 322.101 611.863C322.667 610.39 322.256 608.668 321.561 607.183C319.854 603.403 317.27 600.498 313.361 599.158C311.461 598.521 310.59 597.416 310.019 595.502C309.211 592.716 307.549 590.26 305.284 588.503C303.02 586.746 300.275 585.783 297.462 585.759C296.832 585.792 296.203 585.644 295.645 585.329C295.088 585.015 294.624 584.548 294.307 583.981C292.492 581.31 289.938 579.259 286.985 578.099C284.519 577.123 282.308 577.202 280.415 579.139C279.469 580.119 278.659 579.84 277.786 579.083C276.325 577.744 274.564 576.805 272.667 576.354C269.061 575.585 267.272 576.988 267.031 580.751C266.959 581.669 267.276 582.645 266.739 583.511C266.98 584.374 267.422 584.267 267.892 583.71C267.961 583.053 267.974 582.388 268.107 581.744C268.29 580.768 268.841 579.913 269.639 579.363C270.438 578.814 271.421 578.614 272.374 578.808C274.282 579.084 276.139 579.674 277.875 580.555C278.6 580.987 279.421 581.217 280.253 581.219C281.085 581.221 281.899 580.997 282.612 580.569C285.172 578.95 287.149 580.441 289.284 581.431C289.678 581.675 290.025 581.993 290.307 582.368C292.993 585.284 296.384 586.76 300.043 587.885C302.103 588.447 304.012 589.504 305.612 590.967C307.212 592.431 308.456 594.259 309.243 596.301C310.255 599.006 312.032 600.19 314.152 601.452C315.682 602.327 317.122 603.363 318.449 604.543C319.182 605.144 319.763 605.918 320.141 606.798C320.518 607.679 320.681 608.637 320.615 609.59C320.169 613.33 321.519 616.209 324.142 618.678C324.728 619.287 325.253 619.954 325.709 620.669C326.997 622.556 326.944 624.478 326.035 626.496C325.491 627.664 324.307 628.285 324.076 629.562Z" fill="#68C72E"/>
<path d="M249.399 609.696C250.358 612.375 251.872 614.815 253.835 616.846C255.151 618.126 255.884 618.103 257.125 616.836C259.068 614.862 260.936 612.813 262.883 610.853C263.671 610.067 263.608 609.431 262.836 608.739C262.425 608.357 261.978 608.009 261.579 607.616C259.511 605.662 257.679 603.626 257.093 600.614C256.719 598.693 256.151 598.599 254.707 599.844C253.431 600.894 252.218 602.02 251.073 603.219C249.472 605.027 248.474 607.109 249.399 609.696Z" fill="#206028"/>
<path d="M257.606 585.855C255.391 588.607 253.084 590.478 250.904 592.502C249.261 594.023 249.425 598.5 250.9 600.162C251.008 600.289 251.14 600.391 251.288 600.462C251.435 600.534 251.595 600.573 251.757 600.577C251.92 600.581 252.08 600.55 252.228 600.485C252.377 600.421 252.51 600.325 252.619 600.204C253.507 599.421 254.281 598.505 255.146 597.697C256.282 596.632 257.415 595.552 258.645 594.604C259.523 593.926 259.855 593.093 259.33 592.191C258.247 590.254 257.653 588.074 257.606 585.855Z" fill="#205726"/>
<path d="M267.879 583.745C267.688 583.813 267.482 583.831 267.281 583.796C267.079 583.761 266.889 583.675 266.726 583.546C265.636 583.007 264.435 582.763 263.237 582.839C259.943 582.888 258.237 585.167 258.952 588.475C259.473 590.402 260.444 592.177 261.777 593.645C261.773 592.725 261.78 591.793 261.766 590.867C261.708 588.165 262.329 587.165 264.815 586.402C266.263 585.936 267.636 585.555 267.879 583.745Z" fill="#6BCF32"/>
<path d="M260.6 604.783C260.377 603.976 260.108 603.183 259.795 602.407C258.454 599.534 258.722 597.978 260.996 595.77C261.418 595.368 262.28 595.286 261.889 594.347C261.286 594.56 260.696 594.806 260.12 595.084C259.314 595.446 258.665 596.093 258.288 596.909C257.91 597.726 257.83 598.658 258.06 599.541C258.378 601.503 259.264 603.33 260.6 604.783Z" fill="#6BCF32"/>
<path d="M379.616 271.904C380.818 272.224 380.951 273.361 381.361 274.287C382.528 276.972 384.11 279.29 386.876 280.411C390.754 281.995 394.305 281.118 397.495 278.694C399.379 277.248 399.392 277.047 401.28 278.602C404.316 281.13 407.605 282.161 411.301 280.762C412.788 280.268 414.128 279.405 415.205 278.248C416.282 277.092 417.063 275.677 417.481 274.127C418.137 271.801 418.144 271.799 420.654 272.219C422.291 272.514 423.965 272.453 425.566 272.043C430.532 270.716 433.036 267.167 432.743 261.867C432.679 260.569 431.915 259.111 432.622 258.009C433.329 256.906 434.805 256.763 435.935 256.22C437.152 255.621 438.23 254.768 439.103 253.713C439.976 252.659 440.625 251.426 441.007 250.092C441.39 248.759 441.499 247.353 441.328 245.965C441.156 244.576 440.708 243.234 440.01 242.022C439.438 241.039 438.792 240.101 438.08 239.219C437.912 239.055 437.779 238.858 437.689 238.64C437.598 238.422 437.552 238.188 437.553 237.953C437.554 237.717 437.602 237.485 437.695 237.271C437.787 237.058 437.922 236.867 438.09 236.71C438.715 235.914 439.238 235.028 439.784 234.167C442.784 229.392 440.213 222.425 436.049 220.385C435.894 220.279 435.733 220.184 435.566 220.102C432.805 219.136 431.878 217.558 432.154 214.275C432.737 207.305 426.863 202.218 420.151 203.431C417.97 203.809 417.562 204.151 416.524 201.351C414.554 196.187 410.678 193.79 405.456 194.25C403.518 194.448 401.715 195.322 400.346 196.728C398.633 198.379 398.486 198.262 396.661 196.8C394.636 195.189 392.51 194.015 389.874 193.96C386.156 193.884 383.283 195.337 381.352 198.561C380.653 199.661 380.082 200.843 379.65 202.084C379.272 203.276 378.662 203.438 377.593 203.239C376.505 203.055 375.404 202.968 374.305 202.98C368.879 202.984 364.411 207.687 364.966 213.245C365.269 216.115 364.941 217.648 362.045 218.935C356.16 221.533 354.598 228.657 358.216 234.183C358.574 234.729 359.024 235.226 359.413 235.748C360.715 237.387 360.828 237.49 359.464 239.052C355.452 243.642 355.754 249.988 360.217 254.278L363.816 256.231C365.638 257.3 365.274 258.977 365.106 260.702C364.397 267.936 370.183 273.473 377.154 272.368C377.97 272.204 378.726 271.718 379.616 271.904Z" fill="#F7F9F8"/>
<path d="M377.217 272.154C371.097 272.43 366.938 269.341 365.821 263.71C365.634 262.206 365.632 260.688 365.813 259.19C365.905 257.108 365.921 257.111 363.805 256.218C364.576 258.084 364.452 258.079 364.366 261.357C364.161 269.167 371.374 274.686 377.397 272.584C377.566 272.396 377.594 272.278 377.485 272.213C377.447 272.184 377.403 272.164 377.356 272.153C377.31 272.143 377.262 272.143 377.217 272.154Z" fill="#0A3609"/>
<path d="M377.217 272.154C377.292 272.288 377.354 272.429 377.403 272.575L379.609 271.906C379.212 271.777 378.795 271.732 378.384 271.775C377.973 271.818 377.575 271.947 377.217 272.154Z" fill="#225A26"/>
<path d="M400.381 652.08C401.223 650.53 402.16 649.024 402.901 647.439C403.207 646.611 403.752 645.902 404.462 645.405C405.172 644.908 406.016 644.646 406.882 644.653C410.815 644.41 414.727 643.897 418.635 643.424C420.034 643.248 421.809 643.518 422.445 641.805C423.182 639.827 421.362 639.009 420.304 637.917C417.433 634.942 414.575 631.955 411.62 629.058C411.019 628.534 410.568 627.852 410.318 627.087C410.067 626.322 410.027 625.505 410.201 624.725C410.277 624.169 410.317 623.608 410.321 623.045C410.344 620.391 411.159 617.84 411.117 615.196C411.114 614.638 411.288 614.085 411.265 613.508C411.102 609.417 409.924 608.689 406.614 610.736C404.111 612.284 401.369 613.362 398.899 614.947C397.856 615.711 396.591 616.097 395.3 616.045C394.008 615.993 392.763 615.505 391.754 614.658C388.963 612.598 385.863 611.073 382.919 609.284C382.13 608.802 381.319 608.216 380.363 608.836C379.408 609.457 379.609 610.535 379.608 611.599C379.671 615.853 380.587 619.994 381.014 624.217C381.139 624.904 381.079 625.611 380.842 626.26C380.605 626.909 380.199 627.476 379.669 627.9C377.251 630.031 375.074 632.425 372.656 634.579C371.8 635.281 371.064 636.125 370.477 637.076C369.279 639.151 369.616 640.089 371.951 640.732C373.824 641.243 375.76 641.847 377.651 641.715C380.478 641.519 382.805 642.952 385.346 643.703C385.69 643.823 386.001 644.031 386.25 644.306C386.498 644.581 386.676 644.915 386.767 645.277C388.753 649.949 391.028 654.485 392.926 659.197C393.74 661.192 395.178 661.32 396.337 659.461C397.83 657.044 398.996 654.498 400.381 652.08Z" fill="#F2A013"/>
<path d="M400.381 652.08C398.801 653.221 398.4 655.176 397.42 656.725C396.97 657.433 396.66 658.237 396.196 658.925C395.076 660.6 394.12 660.503 393.332 658.603C391.744 654.758 389.469 651.184 388.215 647.278C387.247 644.238 385.427 643.011 382.997 641.835C381.527 641.125 380.174 640.619 378.515 640.986C376.217 641.491 373.907 640.858 371.722 640.181C370.234 639.736 370.098 639.112 370.835 637.623C371.256 636.777 371.818 636.016 372.495 635.372C374.902 633.064 377.121 630.548 379.683 628.472C382.091 626.525 381.842 624.207 381.388 621.615C380.789 618.173 380.072 614.748 380.145 611.229C380.193 608.963 380.842 608.475 382.815 609.651C385.693 611.364 388.706 612.827 391.368 614.97C393.628 616.792 396.119 617.281 398.768 615.543C401.527 613.735 404.692 612.65 407.401 610.715C407.875 610.428 408.4 610.242 408.948 610.166C409.884 609.969 409.988 610.373 410.189 611.396C410.876 615.043 410.428 618.61 410.147 622.203C410.18 622.486 410.257 622.762 410.375 623.022C411.054 619.437 411.741 615.85 412.395 612.256C412.491 611.698 412.519 611.129 412.48 610.562C412.362 608.633 411.468 607.991 409.771 608.716C408.343 609.334 406.98 610.107 405.601 610.821C402.841 612.267 400.063 613.678 397.325 615.18C396.783 615.513 396.155 615.674 395.518 615.644C394.882 615.614 394.264 615.394 393.742 615.011C390.009 612.716 386.199 610.554 382.421 608.343C382.038 608.076 381.634 607.843 381.214 607.646C379.886 607.149 379.073 607.651 378.877 609.084C378.825 609.553 378.834 610.027 378.904 610.495C379.448 615.19 379.956 619.894 380.648 624.571C380.764 625.113 380.724 625.674 380.534 626.188C380.344 626.701 380.011 627.144 379.577 627.461C376.722 630.076 373.946 632.778 371.132 635.46C370.586 635.954 370.068 636.479 369.581 637.034C368.079 638.839 368.566 640.287 370.869 640.923C371.489 641.097 372.136 641.177 372.769 641.316C376.455 642.127 380.142 642.968 383.842 643.751C384.468 643.869 385.057 644.147 385.556 644.559C386.054 644.971 386.445 645.505 386.693 646.109C388.777 650.257 390.344 654.628 392.285 658.839C392.448 659.18 392.545 659.555 392.728 659.882C393.828 661.892 395.65 661.976 396.726 659.928C398.115 657.402 399.336 654.78 400.381 652.08Z" fill="#ECDE42"/>
<path d="M412.588 628.292C413.335 627.525 413.192 626.627 413.332 625.816C413.833 622.958 414.283 620.083 414.841 617.241C415.162 615.655 414.751 614.697 412.891 614.395C412.351 617.934 411.797 621.421 411.28 624.905C411.135 625.534 411.183 626.196 411.417 626.802C411.651 627.408 412.06 627.929 412.588 628.292Z" fill="#AA5C37"/>
<path d="M372.003 642.916C376.251 644.271 380.587 645.255 384.923 646.239C385.154 645.316 384.746 644.973 384.333 644.883C380.269 643.973 376.217 643.107 372.163 642.233L372.003 642.916Z" fill="#996855"/>
<path d="M227.581 395.775C228.325 394.956 228.964 394.042 229.484 393.055C231.947 388.565 234.489 384.115 236.924 379.608C237.789 378.004 238.784 377.144 240.759 377.091C246.056 376.957 251.379 376.501 256.678 376.153C257.877 376.08 259.13 376.062 259.627 374.616C260.123 373.17 259.49 372.29 258.633 371.291C255.649 367.906 252.694 364.489 249.706 361.121C245.286 356.189 245.898 357.019 247.055 351.071C247.878 346.824 248.733 342.583 249.565 338.341C249.701 337.802 249.787 337.251 249.823 336.694C249.853 334.991 248.815 333.972 247.213 334.268C246.316 334.453 245.447 334.753 244.626 335.161C240.44 337.019 236.228 338.837 232.101 340.82C229.965 341.856 228.255 341.654 226.277 340.187C222.43 337.318 218.449 334.761 214.513 332.09C213.904 331.655 213.264 331.27 212.599 330.936C210.84 330.094 209.225 331 209.017 332.965C208.932 334.096 209.035 335.237 209.323 336.339C209.121 337.254 209.806 338.072 209.603 338.987C210.239 342.506 210.514 346.07 211.037 349.62C211.224 350.586 211.141 351.583 210.796 352.492C210.451 353.402 209.858 354.187 209.089 354.755C205.322 357.954 201.706 361.339 197.774 364.325C196.818 365.055 195.875 365.72 195.579 367.039C195.376 369.404 196.808 370.416 198.727 370.985C203.579 372.425 208.413 373.94 213.331 375.07C215.731 375.615 216.911 376.981 217.666 379.229C219.448 384.375 221.444 389.438 223.652 394.418C224.603 396.604 225.579 396.907 227.581 395.775Z" fill="#F2A013"/>
<path d="M194.578 369.358C194.328 369.748 194.114 370.161 193.938 370.592C193.112 373.099 193.872 374.629 196.335 375.291C200.789 376.479 205.141 378.152 209.697 378.83C213.116 379.337 214.914 381.145 216.003 384.538C217.643 389.558 219.78 394.416 221.794 399.3C222.817 401.773 224.912 401.931 226.425 399.729C226.862 399.023 227.256 398.29 227.606 397.533C222.374 395.002 222.222 389.277 220.037 384.849C218.837 382.426 218.013 379.818 216.951 377.317C216.713 376.702 216.327 376.158 215.829 375.736C215.332 375.314 214.739 375.029 214.109 374.908C209.11 373.707 204.217 372.034 199.193 370.934C197.592 370.576 196.39 368.996 194.578 369.358Z" fill="#D96B13"/>
<path d="M237.608 381.955C243.463 382.374 249 381.401 254.588 381.131C256.79 381.023 257.773 379.623 258.276 377.513C256.901 376.871 255.523 377.262 254.204 377.314C250.08 377.476 245.951 377.782 241.85 378.056C238.782 378.232 238.602 378.408 237.608 381.955Z" fill="#D66813"/>
<path d="M194.578 369.358C197.465 371.517 200.888 371.85 204.155 372.769C207.421 373.688 210.535 374.555 213.74 375.389C214.322 375.507 214.868 375.779 215.322 376.178C215.777 376.576 216.124 377.088 216.331 377.663C218.324 382.553 220.592 387.335 222.389 392.287C223.391 395.042 224.861 396.847 227.606 397.533C228.35 396.948 228.142 396.368 227.571 395.794C225.292 396.01 225.095 395.986 224.222 393.865C222.313 389.22 220.507 384.538 218.661 379.874C218.348 379.079 218.05 378.28 217.779 377.472C217.186 375.668 215.961 374.826 214.167 374.349C208.978 373.011 203.839 371.47 198.655 370.123C196.929 369.673 195.841 368.802 195.501 367.005C195.163 367.761 195.289 368.735 194.578 369.358Z" fill="#5D260F"/>
<path d="M208.743 353.622C209.19 353.45 209.565 353.128 209.809 352.708C210.053 352.287 210.151 351.792 210.087 351.302C209.47 345.824 208.851 340.339 208.2 334.548C207.164 335.837 206.298 336.889 206.571 338.444C207.309 342.714 207.355 347.043 207.923 351.329C207.929 352.164 208.219 352.975 208.743 353.622Z" fill="#A56837"/>
<path d="M209.588 338.96C209.722 338.527 209.767 338.069 209.719 337.614C209.671 337.159 209.532 336.718 209.31 336.319C209.177 336.752 209.133 337.21 209.181 337.665C209.229 338.119 209.367 338.56 209.588 338.96Z" fill="#A56837"/>
<path d="M498.838 277.242L488.778 293.956C487.959 295.311 487.082 296.626 486.288 297.99C485.891 298.725 485.301 299.328 484.584 299.731C483.866 300.134 483.05 300.32 482.227 300.27C475.541 300.372 468.854 300.633 462.165 300.863C461.168 300.855 460.175 300.962 459.205 301.182C458.762 301.297 458.347 301.506 457.989 301.795C457.63 302.085 457.336 302.449 457.123 302.864C456.91 303.28 456.785 303.737 456.754 304.209C456.723 304.68 456.788 305.154 456.944 305.601C457.304 306.579 457.839 307.481 458.522 308.259C462.858 313.955 467.148 319.679 471.583 325.293C472.207 325.994 472.628 326.858 472.799 327.786C472.969 328.715 472.882 329.669 472.548 330.54C470.375 337.716 468.329 344.935 466.147 352.106C465.44 354.438 465.695 356.368 467.662 357.933L468.806 358.402C470.632 358.77 472.513 358.386 474.041 357.332C475.243 356.611 476.645 356.473 477.905 355.934C478.652 355.429 479.466 355.033 480.322 354.757C483.478 353.83 486.552 352.64 489.514 351.199C492.695 349.786 495.389 349.415 498.654 351.974C504.082 356.223 509.942 359.864 515.554 363.929C517.296 365.178 519.061 365.577 520.994 364.582C522.928 363.587 522.938 361.678 522.846 359.923C522.459 352.671 521.863 345.43 521.048 338.203C520.731 335.502 521.185 333.571 523.303 331.816C528.046 327.88 532.603 323.713 537.338 319.748C539.114 318.269 541.444 317.03 540.918 313.962C540.446 311.359 538.719 310.193 536.376 309.607C529.664 307.945 522.978 306.157 516.251 304.577C515.3 304.424 514.409 303.988 513.689 303.323C512.969 302.658 512.451 301.792 512.2 300.835C510.022 294.349 507.749 287.961 505.509 281.524C505.289 280.9 505.084 280.272 504.836 279.655C503.452 276.242 502.195 275.749 498.838 277.242Z" fill="#F2A013"/>
<path d="M469.543 359.19C470.969 358.898 472.355 358.436 473.672 357.813C477.71 356.138 481.789 354.554 485.853 352.943C488.22 352 490.628 351.149 492.957 350.099C494.055 349.605 494.85 349.699 495.633 350.592C496.613 351.706 497.939 352.527 498.406 354.068L498.81 353.412C499.34 352.933 499.654 353.46 500.029 353.711C503.797 356.46 507.58 359.182 511.425 361.8C513.204 363.29 515.335 364.21 517.183 365.595C518.532 366.607 519.743 365.781 520.923 365.122C522.877 363.925 523.482 362.046 523.297 359.821C522.691 352.409 522.134 344.984 521.334 337.588C521.048 334.941 521.637 333.335 523.805 331.731C527.322 329.114 530.375 325.869 533.816 323.116C535.966 321.391 537.962 319.472 540.021 317.639C540.845 316.905 541.729 316.218 541.838 314.966C541.431 314.765 541.109 314.417 540.933 313.989C540.625 315.785 539.464 316.927 538.182 318.016C532.898 322.473 527.733 327.03 522.385 331.449C521.502 332.087 520.815 332.969 520.4 333.997C519.985 335.024 519.861 336.155 520.04 337.262C520.85 344.695 521.406 352.144 522.052 359.592C522.081 359.97 522.087 360.35 522.071 360.729C522.006 364.001 519.512 365.475 516.803 363.707C513.363 361.45 510.021 359.054 506.645 356.7C503.269 354.346 500.033 352.11 496.796 349.733C496.189 349.225 495.457 348.902 494.686 348.802C493.915 348.701 493.136 348.827 492.438 349.164C488.304 350.905 484.099 352.501 479.926 354.158C479.407 354.539 478.709 354.497 478.194 354.892L468.757 358.392L469.543 359.19Z" fill="#59210B"/>
<path d="M311.637 555.128C307.541 563.611 314.04 578.751 324.185 581.468C331.653 583.464 338.699 583.284 345.639 580.124C350.218 578.063 354.871 576.13 359.044 573.243C359.293 573.131 359.558 573.057 359.829 573.025C359.947 572.905 360.097 572.825 360.261 572.795C360.615 572.231 361.449 572.464 361.766 571.848C365.292 569.291 368.761 566.64 372.055 563.769C372.67 563.375 373.165 562.812 373.485 562.142C371.911 561.304 370.812 562.342 369.778 563.174C362.754 569.034 354.959 573.854 346.616 577.497C341.747 579.639 336.711 581.426 331.196 580.944C322.845 580.21 316.767 576.117 313.324 568.069C312.719 566.665 312.351 565.168 312.238 563.644C311.785 557.332 312.392 556.281 318.272 554.787C330.5 551.677 342.176 547.073 353.589 541.747C357.629 539.967 361.389 537.594 364.753 534.701C363.504 535.908 361.697 536.702 362.192 538.999C363.168 539.767 363.911 539.041 364.632 538.509C366.309 537.233 368.081 536.092 369.932 535.096C373.209 533.397 376.632 534.304 378.447 537.652C382.086 544.377 380.202 548.865 373.494 551.708C372.128 552.277 370.605 552.118 369.296 552.836C369.077 554.954 370.699 554.676 371.807 554.714C373.913 554.806 375.611 553.538 377.414 552.65C378.125 552.302 378.664 551.664 379.757 551.21C378.311 554.394 376.236 556.634 374.394 559.053C373.741 559.912 372.468 560.676 373.439 562.14C375.122 561.285 376.055 559.655 377.239 558.293C378.422 556.932 379.409 555.601 380.485 554.238C384.901 547.754 385.212 541.695 381.412 535.653C380.056 533.517 378.008 532.211 376.049 530.786C374.524 530.234 372.999 529.492 371.447 530.68C366.76 531.283 362.877 533.6 359.197 536.452C355.516 539.304 351.369 540.804 347.306 542.667C340.547 545.697 333.618 548.321 326.553 550.529C321.639 552.125 316.523 553.296 311.637 555.128Z" fill="#6C382C"/>
<path d="M375.655 531.314C376.075 531.677 376.517 532.012 376.978 532.317C382.811 535.642 385.057 544.48 382.099 550.724C381.546 551.887 380.688 552.913 380.513 554.254C381.404 553.896 382.209 552.269 383.243 554.125C385.195 548.319 385.255 542.534 382.819 536.766C382.105 535.211 381.034 533.853 379.7 532.812C379.001 532.219 378.065 531.841 377.842 530.792C377.479 530.564 377.046 530.492 376.637 530.589C376.227 530.687 375.875 530.947 375.655 531.314Z" fill="#130607"/>
<path d="M361.759 571.826C361.449 571.838 361.148 571.932 360.885 572.097C360.621 572.263 360.405 572.495 360.255 572.773C360.571 572.79 360.884 572.709 361.152 572.54C361.421 572.371 361.632 572.123 361.759 571.826Z" fill="#422012"/>
<path d="M261.863 292.608C258.825 291.877 256.132 291.185 253.449 290.662C251.9 290.404 250.48 289.59 249.442 288.366C247.46 286.12 245.386 283.978 243.15 281.559C242.478 284.622 241.785 287.391 241.349 290.207C241.091 292.082 240.156 293.776 238.73 294.954C236.719 296.712 234.828 298.601 232.625 300.679C235.906 301.516 238.864 302.34 241.861 303.003C242.942 303.19 243.937 303.746 244.685 304.581C246.812 306.967 249.041 309.279 251.333 311.793C252.015 310.684 252.372 309.393 252.363 308.071C252.754 303.037 254.587 298.887 258.655 295.896C259.806 294.888 260.879 293.789 261.863 292.608Z" fill="#FEFEFC"/>
<path d="M375.655 531.314C376.362 531.117 377.192 531.359 377.799 530.804C380.025 527.545 381.257 523.838 382.189 520.009C382.443 518.512 381.897 517.727 380.359 517.76C379.961 517.881 379.603 518.111 379.325 518.426C378.885 519.076 378.352 519.652 377.743 520.135C375.75 522.943 372.872 524.736 370.362 526.916C369.901 527.356 369.476 527.832 369.089 528.342L369.047 528.354C368.799 528.998 367.938 528.725 367.664 529.329L367.629 529.339C367.883 530.253 368.324 530.824 369.367 530.573C370.074 530.376 370.765 530.121 371.435 530.636L375.655 531.314Z" fill="#100503"/>
<path d="M432.549 330.92C426.984 330.475 422.945 328.368 420.217 323.383C419.603 325.004 419.231 326.714 419.114 328.457C418.904 330.251 418.032 331.881 416.677 333.012C415.572 333.973 414.546 335.023 413.384 336.134C414.704 337.098 416.117 337.218 417.437 337.417C418.441 337.544 419.413 337.878 420.294 338.399C421.175 338.921 421.947 339.619 422.565 340.451C423.371 341.487 424.334 342.401 425.471 343.637C425.881 342.11 426.213 340.56 426.466 338.995C426.654 337.3 427.468 335.754 428.739 334.675C429.877 333.642 430.937 332.519 432.549 330.92Z" fill="#FCFDFD"/>
<path d="M236.871 516.282C236.551 517.368 236.331 518.484 236.213 519.616C236.24 522.453 234.72 524.302 232.768 525.972C232.036 526.601 231.104 527.113 230.731 528.43C235.579 528.405 239.229 530.675 242.039 534.913C242.537 530.046 243.928 525.869 248.793 523.578C246.191 522.198 243.641 522.648 241.81 521.243C239.979 519.837 238.632 518.092 236.871 516.282Z" fill="#FDFEFC"/>
<path d="M333.628 425.368C331.795 423.466 330.173 421.444 329.378 418.805C328.64 416.315 328.995 413.813 329.159 411.057C327.95 411.78 328.098 412.723 328.075 413.462C327.939 415.439 327.946 417.438 327.874 419.396C327.913 420.531 327.609 421.644 327.002 422.581C326.396 423.518 325.517 424.232 324.488 424.625C320.517 426.431 316.36 426.61 312.155 426.48C311.186 426.419 310.236 426.155 309.363 425.704C308.49 425.253 307.714 424.625 307.081 423.857C305.936 422.616 304.891 421.28 303.958 419.865C303.003 418.187 301.79 416.677 300.367 415.395C299.984 416.29 300.671 416.65 300.985 417.122C302.199 418.685 303.126 420.46 303.722 422.357C304.51 425.518 304.107 426.481 301.13 427.806C300.442 427.91 299.467 427.638 299.687 428.948C300.69 429.457 301.699 429.909 302.683 430.431C303.179 430.687 303.719 430.835 304.269 430.866C304.82 430.897 305.369 430.811 305.881 430.613C314.414 427.861 323.223 426.734 332.151 426.417C332.931 426.452 333.867 426.696 333.628 425.368Z" fill="#270B05"/>
<path d="M345.986 457.489C346.134 458.023 346.285 458.564 346.398 459.108C346.641 459.288 346.935 459.379 347.232 459.364C348.635 459.202 349.924 458.466 351.367 458.505C353.705 458.413 356.049 458.45 358.387 458.617C359.985 459.471 361.513 460.461 362.953 461.578C363.793 462.132 365.543 463.709 365.733 460.804C364.544 457.983 361.807 457.65 359.533 456.572C358.325 456.12 358.388 455.197 358.569 454.201C358.86 451.551 358.96 448.923 358.044 446.342C357.347 444.96 357.548 443.328 356.663 442.038C356.229 440.747 355.654 439.508 354.95 438.346C354.297 437.968 354.586 436.406 353.341 436.863C352.276 437.254 352.764 438.269 352.809 439.06C352.95 439.986 353.019 440.92 353.015 441.855C353.585 447.819 351.28 452.439 346.919 456.103C346.679 456.255 346.472 456.456 346.312 456.694C346.152 456.933 346.041 457.203 345.986 457.489Z" fill="#130607"/>
<path d="M356.616 442.059C356.853 443.569 357.093 445.078 357.335 446.586C359.217 452.366 362.943 456.939 366.461 461.666C368.21 463.432 369.373 465.859 371.887 466.759C372.815 467.659 373.869 468.406 374.581 469.539C379.194 473.519 383.926 477.324 389.257 480.269C398.219 485.297 408.091 488.311 418.208 489.108C418.5 489.189 418.807 489.189 419.096 489.108C419.386 489.028 419.648 488.87 419.856 488.65C419.315 487.634 418.279 487.938 417.516 487.851C412.663 487.362 407.861 486.381 403.18 484.921C392.021 481.368 381.833 475.066 373.51 466.567C366.755 459.75 361.255 451.735 357.283 442.921C357.094 442.608 356.87 442.319 356.616 442.059Z" fill="#170805"/>
<path d="M344.748 432.958C338.919 431.428 334.173 433.875 329.659 437.101C328.715 437.86 328.084 438.956 327.886 440.179C327.19 442.826 327.18 445.626 327.859 448.302C328.775 451.593 329.563 454.919 331.77 457.646C333.597 460.242 336.273 459.616 338.543 459.197C342.976 458.366 347.042 456.573 349.967 452.788C353.193 448.629 353.379 442.534 350.352 438.499C349.22 435.882 347.653 433.702 344.748 432.958Z" fill="#100503"/>
<path d="M350.342 438.493C351.077 441.133 351.936 443.699 351.501 446.547C351.258 448.421 350.603 450.206 349.584 451.767C348.566 453.329 347.212 454.624 345.624 455.557C342.611 457.411 339.248 458.308 335.832 459.069C334.138 459.446 333.072 458.3 331.782 457.635C332.018 458.364 332.499 458.986 333.138 459.387C333.777 459.788 334.532 459.941 335.263 459.818C335.877 459.781 336.678 459.425 336.852 460.353C337.027 461.282 336.109 461.245 335.584 461.549C333.204 462.936 330.502 463.554 328.053 464.779C327.485 465.063 326.828 465.167 326.607 465.906C332.83 463.696 338.893 461.051 344.753 457.989C345.153 457.784 345.592 457.662 346.011 457.498C350.39 454.554 353.587 450.812 353.843 445.076C353.881 444.143 353.833 443.203 353.824 442.268C353.796 440.306 352.79 438.553 352.608 436.61C352.598 436.47 352.557 436.333 352.489 436.211C352.42 436.088 352.325 435.983 352.212 435.903C352.099 435.823 351.969 435.77 351.834 435.749C351.699 435.727 351.561 435.738 351.432 435.779C351.601 436.386 351.769 436.993 351.868 437.62C352.119 439.071 352.105 439.075 350.342 438.493Z" fill="#6C382C"/>
<path d="M351.406 435.77C353.097 437.601 352.896 440.139 353.799 442.259C354.49 440.609 352.966 439.103 353.348 437.46C354.211 437.22 354.262 438.309 354.903 438.367C353.033 433.372 351.607 428.3 350.083 423.232C349.989 422.896 349.844 422.511 348.949 422.555C349.401 425.904 350.66 429.005 351.469 432.735C349.086 430.688 347.1 428.947 344.648 427.833C341.114 426.224 337.404 425.735 333.653 425.321C333.416 426.057 332.728 426.162 332.155 426.431C333.665 426.98 335.25 426.76 336.791 426.985C341.203 427.641 345.579 428.441 348.71 432.242C349.644 433.408 350.497 434.637 351.417 435.807L351.406 435.77Z" fill="#170805"/>
<path d="M299.684 428.964C299.9 428.235 300.621 428.168 301.129 427.83C297.702 427.128 294.293 426.272 290.838 425.768C285.717 425.016 280.519 425.326 275.551 426.68C274.902 426.73 274.302 427.038 273.878 427.54C274.36 428.587 275.154 428.02 275.758 427.86C278.889 427.152 282.084 426.756 285.299 426.679C290.245 426.406 294.98 427.507 299.684 428.964Z" fill="#170805"/>
<path d="M454.344 443.039C458.794 438.271 455.791 420.133 451.187 416.899C451.773 419.99 453.471 422.37 454.129 425.118C454.902 428.034 455.326 431.031 455.392 434.041C455.265 437.067 454.914 440.075 454.344 443.039Z" fill="#130607"/>
<path d="M259.294 459.962C259.382 457.346 257.871 455.804 257.518 453.877C257.109 451.833 256.987 449.744 257.156 447.674C257.338 445.78 257.842 443.922 258.283 441.617C254.7 445.75 255.231 454.947 259.294 459.962Z" fill="#130607"/>
<path d="M308.613 445.911C306.579 449.557 307.971 457.491 311.229 461.202C311.29 458.356 309.918 456.161 309.354 453.805C308.789 451.448 308.897 448.794 308.613 445.911Z" fill="#100503"/>
<path d="M327.397 340.153C322.419 342.452 317.665 344.184 312.215 344.18C312.385 344.646 312.719 345.033 313.15 345.262C313.581 345.491 314.077 345.546 314.54 345.416C318.972 344.719 323.348 343.816 327.141 341.178C327.249 341.1 327.231 340.845 327.397 340.153Z" fill="#170805"/>
<path d="M344.748 432.958C347.202 434.19 348.839 436.296 350.356 438.489C349.374 434.902 347.746 433.298 344.748 432.958Z" fill="#6C382C"/>
<path d="M351.417 435.807C351.236 435.053 350.901 434.344 350.434 433.729C349.967 433.114 349.379 432.607 348.71 432.242C348.875 433.003 349.203 433.719 349.672 434.336C350.141 434.954 350.737 435.456 351.417 435.807Z" fill="#6C382C"/>
<path d="M371.893 466.781L367.177 461.419C366.455 461.565 366.035 460.216 365.186 460.948C365.127 461.312 365.377 462.046 364.603 461.591C363.5 460.968 362.46 460.218 361.347 459.613C360.436 459.079 359.485 458.398 358.353 458.603C358.843 459.459 359.775 459.688 360.492 460.237C360.87 460.526 361.187 460.871 361.01 461.386C360.942 461.553 360.826 461.694 360.678 461.792C360.53 461.889 360.356 461.938 360.178 461.932C359.654 461.991 359.133 462.12 358.612 462.218C358.726 463.014 359.341 463.276 359.958 463.467C364.746 464.955 366.59 469.036 367.587 473.384C368.838 478.867 366.83 483.294 362.3 486.406C360.765 487.563 359.031 488.416 357.185 488.924C356.407 489.14 355.566 489.296 355.149 490.152C355.779 490.828 356.499 490.565 357.192 490.372C358.154 490.104 359.116 489.837 360.078 489.569C360.594 489.425 361.181 489.207 361.588 489.764C361.994 490.32 361.586 490.796 361.226 491.204C360.867 491.611 360.415 491.957 360.341 492.569L361.435 492.201C361.65 492.29 361.882 492.323 362.11 492.298C362.338 492.273 362.556 492.19 362.744 492.058C370.312 487.069 374.281 476.407 369.64 468.219C370.11 468.593 369.955 469.707 370.983 469.539C370.829 468.464 370.106 467.152 371.893 466.781Z" fill="#6C382C"/>
<path d="M355.128 490.158C357.463 489.904 359.709 489.133 361.71 487.896C363.712 486.659 365.422 484.986 366.723 482.993C369.213 479.393 369.122 475.423 367.914 471.355C367.584 470.365 367.165 469.408 366.661 468.496C364.947 465.073 362.342 462.835 358.586 462.209C355.935 462.159 353.602 463.115 351.377 464.459C348.342 466.288 346.737 468.902 347.436 472.647C348.358 477.575 349.626 482.407 352.215 486.785C352.965 488.091 353.955 489.237 355.128 490.158Z" fill="#100503"/>
<path d="M346.911 458.981C346.746 459.042 346.576 459.09 346.402 459.122C340.303 461.607 334.213 464.129 328.097 466.579C324.705 467.948 321.323 469.377 317.842 470.511C311.269 472.663 304.421 473.276 297.539 473.607C296.719 473.646 295.899 473.74 295.08 473.81C295.572 474.398 296.262 474.332 296.877 474.295C300.157 474.115 303.438 473.935 306.704 473.649C310.885 473.162 314.995 472.211 318.963 470.814C321.812 469.903 324.567 468.656 327.351 467.543C331.159 466.026 334.973 464.532 338.769 462.971C341.375 461.876 344.041 460.929 346.753 460.136C349.984 459.125 353.375 458.716 356.766 458.926C357.316 458.983 357.869 458.889 358.367 458.654C356.043 457.724 353.667 458.196 351.305 458.255C349.764 458.029 348.461 459.235 346.911 458.981Z" fill="#6C382C"/>
<path d="M270.126 488.514C268.72 492.198 269.14 495.927 270.183 499.678C271.036 502.743 272.228 505.602 274.836 507.61C273.927 504.341 271.819 501.642 271.028 498.332C270.237 495.022 270.431 491.801 270.126 488.514Z" fill="#130607"/>
<path d="M335.538 498.366C334.878 494.925 332.984 492.529 332.127 489.749C331.246 486.847 330.671 483.861 330.411 480.842C328.378 484 331.579 494.708 335.538 498.366Z" fill="#170805"/>
<path d="M370.535 527.404C373.181 525.163 376.01 523.139 378.327 520.509C378.742 519.975 379.25 519.527 379.653 518.974L380.074 518.297C383.024 515.751 383.011 512.169 382.743 508.714C382.074 501.021 378.409 494.807 369.625 492.602C367.698 492.578 365.549 491.648 364.079 493.704C362.614 494.111 361.166 494.577 359.713 495.052C358.58 495.35 357.569 496 356.817 496.914C358.326 496.596 359.781 496.064 361.14 495.333C363.171 494.193 365.543 494.447 367.772 494.158C367.91 494.145 368.049 494.162 368.181 494.207C368.313 494.253 368.435 494.327 368.539 494.423C368.643 494.52 368.726 494.637 368.783 494.768C368.841 494.899 368.871 495.04 368.873 495.183C368.883 495.422 368.804 495.654 368.652 495.832C368.501 496.01 368.288 496.121 368.057 496.142C365.857 496.704 363.785 497.689 361.953 499.046C361.067 499.671 360.057 500.204 360.005 501.526C362.331 501.667 363.751 499.759 365.462 498.732C370.694 495.622 376.341 498.44 378.687 504.161C381.605 511.307 377.879 518.435 370.587 520.03C368.611 520.461 366.9 519.023 364.985 519.343C366.102 521.932 368.275 521.745 370.392 521.518C372.263 521.313 373.86 520.286 375.425 519.393C375.905 519.118 376.41 518.631 376.872 519.117C377.522 519.724 376.899 520.362 376.59 520.842C375.03 523.096 372.581 524.321 370.628 526.149C370.02 526.704 369.212 527.031 369.066 527.986C369.341 528.025 369.62 527.992 369.877 527.89C370.134 527.789 370.36 527.621 370.535 527.404Z" fill="#6C382C"/>
<path d="M364.95 519.353C367.962 521.745 370.884 521.098 373.911 519.404C378.188 517.025 380.865 513.688 380.452 508.398C380.247 504.862 378.698 501.528 376.141 499.118C374.813 497.843 373.148 497.004 371.365 496.711C369.582 496.418 367.764 496.685 366.15 497.477C363.903 498.515 361.823 499.89 359.976 501.558C358.852 505.023 359.419 508.403 360.723 511.751C361.781 514.47 363.204 517.029 364.95 519.353Z" fill="#170805"/>
<path d="M291.892 529.466C291.03 530.013 291.366 530.865 291.449 531.52C292.003 536.251 293.163 540.774 296.304 544.533C296.582 544.902 296.905 545.233 297.264 545.519C297.383 545.582 297.515 545.611 297.647 545.603C297.779 545.596 297.906 545.551 298.015 545.475C298.094 545.372 298.148 545.249 298.17 545.117C298.192 544.986 298.182 544.851 298.141 544.723C297.925 544.307 297.651 543.923 297.329 543.586C294.288 540.217 293.195 536.069 292.677 531.714C292.572 530.924 292.717 530.048 291.892 529.466Z" fill="#130607"/>
<path d="M349.105 529.134C349.351 528.884 349.496 528.547 349.511 528.189C349.527 527.83 349.413 527.477 349.191 527.196C347.405 524.202 345.709 521.175 345.283 517.615C345.236 517.226 345.065 516.832 344.628 516.851C343.998 516.861 343.949 517.45 344.015 517.88C344.666 522.029 346.429 525.927 349.105 529.134Z" fill="#100503"/>
<path d="M370.535 527.404L369.031 527.996C369.04 528.125 369.076 528.252 369.135 528.369C369.439 528.378 369.737 528.29 369.988 528.118C370.238 527.945 370.43 527.695 370.535 527.404Z" fill="#661007"/>
<path d="M367.693 529.353C368 529.38 368.306 529.298 368.557 529.12C368.809 528.943 368.992 528.68 369.076 528.377C368.775 528.38 368.484 528.475 368.238 528.648C367.993 528.822 367.803 529.067 367.693 529.353Z" fill="#661007"/>
<path d="M364.072 493.706C365.925 493.19 367.796 493.394 369.702 493.369C370.723 493.423 371.826 493.636 372.062 492.129C373.901 487.437 374.422 482.287 373.566 477.26C373.163 474.496 371.662 472.171 370.976 469.541C369.767 468.617 369.964 466.671 368.372 465.877C369.224 468.556 370.515 470.978 370.685 473.783C371.026 479.337 369.725 484.222 365.839 488.14C364.429 489.564 362.898 490.857 361.428 492.203C361.539 494.135 363.165 493.186 364.072 493.706Z" fill="#170805"/>
<path d="M372.02 492.14C371.43 492.951 370.527 493.131 369.659 493.38C380.604 494.89 384.734 508.885 380.526 516.745C380.262 517.22 379.909 517.704 380.06 518.301C381.429 517.991 381.87 518.916 382.196 520.007C384.196 514.125 384.007 507.653 381.666 501.828C380.343 498.445 377.823 495.687 374.621 494.12C373.659 493.623 372.479 493.352 372.02 492.14Z" fill="#170805"/>
<path d="M373.441 562.147C373.515 560.771 374.644 560.118 375.377 559.244C377.327 556.803 379.325 554.396 380.682 551.52C380.947 550.966 381.462 550.436 380.99 549.725C380.124 549.351 379.555 550.045 379.085 550.491C377.577 551.895 375.724 552.655 373.931 553.501C372.353 554.239 370.638 554.622 369.139 553.069C368.768 550.911 366.561 550.24 365.621 548.477C364.423 546.226 363.011 544.137 363.147 541.42C363.19 541.043 363.151 540.66 363.033 540.298C362.915 539.935 362.721 539.603 362.465 539.325C362.49 538.565 362.75 537.837 363.206 537.247C363.663 536.657 364.292 536.235 365.004 536.042C365.184 535.997 365.353 535.918 365.503 535.808C366.24 535.17 367.557 534.559 366.852 533.424C366.04 532.121 365.012 533.274 364.33 533.865C361.135 536.647 357.559 538.934 353.713 540.656C349.049 542.742 344.393 544.825 339.668 546.77C331.356 550.233 322.716 552.573 314.078 554.945C313.456 555.068 312.889 555.388 312.458 555.861C312.027 556.334 311.752 556.937 311.672 557.584C310.415 563.394 311.752 568.499 315.168 573.355C319.142 579.01 324.664 581.216 331.019 581.923C336.707 582.562 341.84 580.575 346.914 578.462C352.951 575.839 358.708 572.601 364.102 568.795C366.07 567.459 367.866 565.888 369.744 564.42C370.895 563.517 371.944 562.437 373.459 562.158L373.441 562.147Z" fill="#6C382C"/>
<path d="M362.457 539.295C361.702 544.17 363.76 547.978 366.984 551.321C367.665 551.938 368.382 552.512 369.131 553.04C373.636 553.78 377.005 551.535 379.674 548.365C383.147 544.247 379.909 535.922 376.284 534.259C375.203 533.707 374.013 533.433 372.815 533.46C371.618 533.487 370.451 533.814 369.414 534.413C366.884 535.702 364.543 537.345 362.457 539.295Z" fill="#100503"/>
<path d="M379.653 518.973C379.31 519.069 379.002 519.265 378.767 519.537C378.532 519.809 378.379 520.146 378.327 520.509C378.681 520.435 379.001 520.247 379.239 519.97C379.478 519.694 379.623 519.345 379.653 518.973Z" fill="#5A0F08"/>
<path d="M365.187 460.948C365.495 461.154 365.819 461.332 366.118 461.556C366.534 461.874 366.922 462.12 367.184 461.417C363.623 456.672 360.575 451.578 357.348 446.606C358.124 449.258 357.803 451.94 357.694 454.618C357.675 455.781 357.789 456.876 359.088 457.382C361.132 458.483 363.564 459.005 365.187 460.948Z" fill="#6C382C"/>
<path d="M346.912 458.981C348.48 459.332 349.871 458.661 351.284 458.261C349.718 457.782 348.336 458.513 346.912 458.981Z" fill="#6A0F06"/>
<path d="M359.073 457.354C358.386 456.569 357.905 455.616 357.679 454.59C357.39 456.869 357.421 456.924 359.073 457.354Z" fill="#CB5B28"/>
<path d="M339.205 456.949C342.134 456.134 344.955 455.152 347.22 452.883C352.158 447.869 351.564 440.557 346.426 435.565C344.549 433.723 342.142 433.344 339.705 433.818C336.917 434.356 334.261 435.432 331.876 436.988C330.884 437.576 330.06 438.418 329.482 439.434C328.904 440.45 328.591 441.606 328.575 442.792C328.385 447.154 329.481 451.496 331.72 455.249C333.477 458.219 334.108 458.351 337.387 457.454L339.205 456.949Z" fill="#6C382C"/>
<path d="M349.805 477.598C350.623 480.829 351.898 483.926 353.588 486.789C354.965 489.187 355.573 489.428 358.068 488.371C360.355 487.425 362.464 486.088 364.306 484.414C367.99 481.025 368.352 475.834 366.498 470.842C365.32 467.648 363.32 465.061 359.959 463.994C359.048 463.663 358.083 463.528 357.126 463.597C356.168 463.667 355.238 463.941 354.394 464.4C348.371 467.596 347.634 469.22 349.371 476.04C349.493 476.534 349.66 477.079 349.805 477.598Z" fill="#6C382C"/>
<path d="M361.581 509.409C362.179 512.292 363.384 515.015 365.111 517.385C366.933 519.825 368.682 520.332 371.411 519.21C371.837 519.044 372.217 518.765 372.652 518.628C379.423 516.477 380.823 508.413 377.659 503.344C376.554 501.563 375.567 499.766 373.669 498.726C372.833 498.206 371.898 497.885 370.932 497.784C369.966 497.683 368.994 497.806 368.088 498.143C366.056 498.979 364.108 500.009 362.268 501.22C361.544 501.633 360.98 502.286 360.667 503.075C360.353 503.863 360.307 504.742 360.536 505.571C360.792 506.847 361.225 508.129 361.581 509.409Z" fill="#6C382C"/>
<path d="M346.994 552.036C347.524 557.176 350.373 560.922 354.154 564.077C353.548 561.732 351.675 560.205 350.417 558.286C349.159 556.366 348.624 553.868 346.994 552.036Z" fill="#100503"/>
<path d="M364.368 544.327C364.8 546.776 366.043 549.009 367.886 550.644C368.461 551.271 369.205 551.706 370.019 551.891C370.833 552.077 371.678 552.005 372.443 551.685C374.466 550.835 376.395 549.771 378.198 548.508C378.695 548.166 379.106 547.708 379.4 547.171C379.694 546.635 379.861 546.033 379.89 545.414C380.214 542.085 379.527 539.014 377.202 536.493C376.45 535.565 375.419 534.922 374.277 534.667C373.135 534.412 371.949 534.562 370.913 535.091C368.776 536.144 366.758 537.432 364.894 538.933C364.385 539.259 363.999 539.751 363.795 540.332C363.591 540.913 363.582 541.551 363.768 542.145C363.995 542.988 364.219 543.793 364.368 544.327Z" fill="#6C382C"/>
</g>
<defs>
<clipPath id="clip0_57_172">
<rect width="498.47" height="603.35" fill="white" transform="matrix(-0.963412 0.268025 0.268025 0.963412 480.232 0)"/>
</clipPath>
</defs>
</svg>
