<svg width="298" height="540" viewBox="0 0 298 540" fill="none" xmlns="http://www.w3.org/2000/svg">
<path d="M224.376 411.091C228.372 410.633 232.366 410.168 236.368 409.732C243.485 408.961 250.549 407.87 257.56 406.461C272.088 403.63 286.001 398.273 298.705 390.617C304.788 386.821 311.132 383.477 317.688 380.608C326.851 376.727 336.248 373.822 346.198 372.63C357.415 371.282 368.718 371.092 379.967 370.216C382.645 370.007 382.869 369.495 383.181 367.084C384.467 356.904 384.817 346.605 384.227 336.324C383.13 316.636 379.424 297.148 373.211 278.402C369.405 266.558 364.342 255.16 358.117 244.419C357.802 243.954 357.515 243.471 357.257 242.972C356.645 241.566 355.669 241.483 354.32 241.756C345.23 243.54 336.032 244.752 326.779 245.384C319.276 245.969 311.713 245.508 304.295 244.011C299.039 242.91 294.018 240.791 289.502 237.766C281.438 232.327 273.895 226.099 266.983 219.171C263.844 216.105 260.69 212.988 257.48 209.996C251.004 203.826 243.766 198.568 235.959 194.363C220.457 186.116 208.75 173.787 199.557 158.742C195.817 152.613 192.531 146.199 188.161 140.489C187.508 139.56 187.014 138.524 186.7 137.429C184.37 130.505 182.013 123.596 179.669 116.676C178.867 114.448 177.945 112.266 176.906 110.141C173.941 103.756 168.879 101.698 162.438 103.395C159.025 104.216 155.868 105.874 153.234 108.229C150.601 110.584 148.569 113.567 147.309 116.925C144.883 123.147 143.833 129.867 144.233 136.605C144.789 147.481 146.792 158.049 151.038 168.135C153.498 174.196 156.526 180.004 160.077 185.477C165.415 193.486 170.779 201.481 176.055 209.539C179.76 215.128 182.713 221.199 184.832 227.583C186.082 231.419 186.249 230.459 183.02 232.027C172.399 237.164 161.249 240.779 149.926 243.968C142.483 245.98 135.197 248.534 128.121 251.61C120.806 254.874 113.861 258.784 108.121 264.644C103.222 269.663 99.3127 275.391 98.768 282.666C98.1008 291.582 100.07 299.811 107.321 305.902C109.226 307.434 111.382 308.599 113.681 309.341C115.68 310.061 117.689 310.763 119.691 311.466C119.573 312.547 118.721 312.855 118.133 313.373C111.944 318.822 109.472 325.687 110.838 334.077C111.29 337.459 112.19 340.769 113.514 343.914C116.959 351.505 122.835 355.504 130.691 356.73C132.238 356.977 133.797 357.127 135.525 357.339C134.535 359.262 133.262 361.042 132.928 363.183C131.531 372.105 133.029 380.395 139.23 387.259C143.25 391.711 148.47 393.789 154.361 393.844C155.017 393.953 155.04 393.545 154.966 393.061C154.401 392.178 153.479 392.017 152.58 391.826C139.677 389.112 136.5 382.321 134.558 371.563C133.648 366.537 135.171 362.315 137.482 358.182C137.644 357.756 137.655 357.284 137.513 356.845C137.372 356.407 137.087 356.03 136.707 355.781C134.751 354.75 132.574 354.898 130.506 354.615C119.905 353.191 114.502 343.852 113.026 335.777C111.315 326.451 113.705 319.041 121.191 313.515C121.913 313.089 122.451 312.4 122.703 311.582C122.717 311.352 122.685 311.121 122.609 310.902C122.534 310.683 122.417 310.482 122.265 310.309C119.651 308.83 116.705 308.35 113.948 307.289C105.585 304.1 102.13 297.379 100.83 289.01C99.6588 281.457 102.283 275.054 106.76 269.396C112.469 262.166 119.958 257.332 128.26 253.864C137.364 249.96 146.74 246.738 156.316 244.223C165.245 241.968 173.664 238.341 182.147 234.862C185.239 233.592 185.43 233.65 186.37 236.839C186.664 238.232 187.086 239.594 187.632 240.908C187.729 241.176 187.911 241.403 188.148 241.554C188.385 241.704 188.663 241.768 188.937 241.735C189.389 241.609 189.564 241.088 189.656 240.621C189.975 238.893 189.48 237.25 189.1 235.583C186.076 221.454 178.791 209.487 170.761 197.798C164.686 188.946 158.311 180.224 154.079 170.134C148.502 156.825 145.302 143.107 146.631 128.625C147.197 122.44 148.636 116.462 152.87 111.793C157.463 106.741 162.915 103.711 170.038 105.646C170.599 105.907 171.037 106.361 171.578 106.659C172.927 107.672 173.992 109.037 174.658 110.609C177.023 115.222 178.913 120.071 180.298 125.074C181.574 129.825 183.52 134.326 184.94 139.021C185.087 139.449 185.262 139.866 185.463 140.27C189.189 144.991 192.437 150.086 195.158 155.475C196.606 158.271 196.508 158.96 194.312 161.092C193.186 162.193 191.767 162.903 190.582 163.902C190.089 164.323 189.507 164.887 189.79 165.549C190.146 166.388 191.028 166.245 191.734 166.072C193.392 165.539 194.91 164.638 196.182 163.432C198.791 161.303 199.393 161.467 200.678 164.797C200.768 165.066 200.844 165.339 200.906 165.616C201.112 166.14 201.503 166.567 202 166.809C205.069 170.115 207.821 173.707 210.805 177.092C217.524 184.622 225.484 190.871 234.305 195.54C242.738 200.151 250.524 205.941 257.436 212.743C265.375 220.486 273.245 228.311 282.069 235.043C287.863 239.435 293.914 243.212 300.897 245.193C313.094 248.324 325.332 247.851 337.568 246.219C342.462 245.567 347.4 245.265 352.179 243.951C354.32 243.371 355.975 244.116 357.081 246.172C360.799 253.072 364.085 260.172 367.141 267.405C371.517 277.653 374.018 288.453 376.985 299.115C379.371 307.694 380.392 316.542 381.352 325.36C382.671 337.497 383.121 349.664 381.931 361.822C381.305 368.228 381.383 368.317 375.289 368.578C366.868 368.935 358.42 369.253 350.054 370.083C338.645 371.247 327.498 374.168 316.987 378.747C305.626 383.688 295.412 390.832 284.171 395.984C281.646 397.281 279.01 398.339 276.293 399.145C274.42 399.619 272.705 400.521 270.907 401.155C265.107 403.179 259.01 404.032 252.997 405.264C246.448 406.597 239.834 407.263 233.228 408.171C230.436 408.638 227.61 408.884 224.775 408.908C223.378 409.367 222.756 410.005 224.376 411.091Z" fill="#3D190D"/>
<path d="M99.8633 440.452C99.8906 441.043 100.23 441.524 99.6267 442.204C97.1009 445.042 96.8294 448.285 98.6816 451.819C99.6556 453.887 101.123 455.673 102.945 457.008C103.928 457.664 104.605 458.208 104.09 459.699C103.649 461.264 103.81 462.953 104.542 464.419C106.272 468.311 108.607 471.743 112.765 473.21C113.68 473.455 114.516 473.956 115.18 474.655C115.845 475.355 116.311 476.227 116.527 477.174C118.197 482.848 124.266 487.1 129.871 486.786C131.281 486.701 131.53 487.514 132.07 488.388C133.142 490.233 134.603 491.81 136.343 493.001C138.083 494.191 140.057 494.965 142.114 495.262C143.902 495.552 145.646 495.382 146.984 494.001C148.012 492.928 148.875 493.318 149.86 494.092C151.374 495.362 153.185 496.194 155.103 496.502C155.964 496.684 156.85 496.657 157.692 496.423C158.533 496.189 159.306 495.754 159.949 495.154C160.815 494.322 161.705 493.523 162.5 492.624C163.485 491.507 164.432 490.392 165.935 489.959C166.701 489.642 167.376 489.134 167.902 488.482C170.593 485.826 173.271 483.127 175.961 480.495C176.989 479.614 177.686 478.392 177.935 477.032C178.183 475.671 177.969 474.257 177.327 473.024C176.395 471.014 176.103 469.638 177.832 467.88C179.656 466.025 179.719 463.486 178.65 461.011C177.593 458.354 175.829 456.049 173.562 454.365C172.717 453.765 172.184 453.33 172.695 452.125C173.546 450.091 173.016 448.048 172.144 446.093C171.366 444.2 170.218 442.488 168.772 441.063C167.327 439.639 165.615 438.533 163.745 437.816C161.717 437.048 160.914 435.861 160.367 433.894C159.416 430.78 157.459 428.078 154.824 426.241C152.734 424.599 150.132 423.817 147.538 424.052C146.914 424.138 146.276 424.03 145.707 423.74C145.137 423.451 144.662 422.994 144.343 422.428C142.729 420.079 140.574 418.175 138.077 416.891C135.189 415.441 132.3 414.81 129.558 417.117C128.8 417.762 128.16 417.57 127.314 417.104C120.423 413.127 118.525 413.403 113.232 419.114C112.29 420.165 111.379 421.111 109.956 421.499C108.88 421.799 108.118 422.704 107.336 423.481C104.846 425.954 102.363 428.426 99.9249 430.948C98.8006 432.112 98.0366 433.475 98.4006 435.249C98.6124 437.048 99.1064 438.806 99.8633 440.452Z" fill="#0D340F"/>
<path d="M231.478 126.586C235.157 128.525 238.573 127.764 241.821 125.631C244.186 124.107 244.161 124.098 246.409 125.687C247.804 126.789 249.491 127.422 251.234 127.496C254.145 127.001 257.221 127.099 259.489 124.624C259.983 124.211 260.446 123.761 260.875 123.277C261.27 122.695 261.99 122.132 261.513 121.296C261.126 120.615 260.4 120.691 259.755 120.784C256.373 121.284 253.375 120.124 250.643 118.166C249.076 117.026 247.889 117.199 246.427 118.299C244.02 120.111 241.298 121.12 238.2 120.588C236.51 120.308 234.919 119.56 233.599 118.423C232.279 117.285 231.281 115.803 230.712 114.137C229.938 112.147 228.973 111.091 226.866 111.268C219.645 112.709 213.68 106.663 214.849 99.1124C214.938 98.4164 214.876 97.706 214.666 97.0326C214.456 96.3592 214.104 95.7396 213.636 95.2186C212.633 93.9914 211.255 93.1504 209.734 92.8372C207.304 91.9374 206.75 89.7276 206.041 87.5612C205.591 86.1894 205.713 84.0278 203.95 83.9354C202.187 83.8429 201.853 86.0947 201.307 87.4205C200.057 90.597 200.852 93.701 202.401 96.666C202.886 97.587 203.716 98.27 204.017 99.2972C205.044 100.824 206.615 101.513 208.181 102.212C210.255 102.518 209.472 104.114 209.508 105.31C209.77 112.226 212.99 116.814 219.44 117.943C220.163 118.089 220.904 118.097 221.626 117.965C223.327 117.587 224.002 118.289 225.296 119.679C227.393 121.931 228.536 125.136 231.478 126.586Z" fill="#225A26"/>
<path d="M204.053 99.2635C204.398 98.6397 203.994 98.2006 203.647 97.8008C202.213 95.962 201.714 93.7292 201.285 91.5319C200.73 88.6606 201.971 86.3535 203.831 83.9449C204.939 85.5986 205.097 87.2092 205.532 88.6879C206.034 90.5071 207.041 92.1444 208.427 93.3979C208.774 93.7112 209.26 94.3087 209.773 93.5513C210.005 92.4941 209.333 91.7511 208.843 90.9737C206.524 87.2693 206.61 83.7155 208.951 80.1017C211.142 76.7186 211.048 76.6817 208.861 73.3976C205.182 67.9523 206.401 61.814 212.17 58.8538C214.839 57.4889 215.631 55.8424 215.473 52.8922C215.147 46.7897 219.113 42.7472 224.993 43.2784C228.051 43.5621 229.586 42.5047 230.926 39.7602C233.866 33.7262 239.501 32.4187 244.98 36.3626C247.259 38.0057 248.945 37.9306 251.131 36.2272C255.897 32.5375 261.858 34.2673 264.625 39.801C266.58 43.7087 266.58 43.7087 270.919 43.4156C276.404 43.0481 280.891 47.4255 280.732 53.6472C280.648 57.043 281.908 58.8354 284.617 60.3512C289.843 63.357 291.217 68.8447 287.943 73.8687C286.302 76.3816 286.422 78.3182 288.029 80.8099C291.68 86.4523 290.197 92.0258 284.321 94.874C281.904 96.0506 281.025 97.6582 281.159 100.41C281.524 107.668 277.781 111.365 270.712 110.637C268.082 110.36 266.717 110.96 265.777 113.664C263.648 119.709 257.17 121.574 252.02 117.665C249.889 116.059 248.397 115.789 245.938 117.387C240.317 121.047 234.948 119.964 232.007 113.887C231.36 112.547 230.882 110.994 229.116 110.697C228.742 110.647 228.364 110.688 228.012 110.816C227.66 110.944 227.343 111.156 227.088 111.435L226.891 111.852C228.607 111.965 229.432 112.768 230.02 114.606C231.304 118.7 236.973 122.97 241.99 121.306C244.013 120.633 246.01 120.03 247.577 118.515C248.317 117.805 248.831 117.843 249.698 118.468C252.205 120.3 254.838 121.766 258.069 121.765C259.082 121.759 260.029 121.33 261.391 121.542C260.155 123.919 258.148 125.116 256.063 126.113C255 126.673 253.8 126.908 252.601 126.793C252.332 126.731 252.052 126.768 251.809 126.898C251.567 127.027 251.377 127.24 251.274 127.501C255.853 128.236 259.336 126.345 261.986 122.748C262.423 122.138 262.824 121.5 263.185 120.839C263.51 120.168 264.029 119.621 264.672 119.272C265.316 118.922 266.052 118.787 266.78 118.885C271.564 119.232 275.032 116.904 277.549 112.942C278.188 111.91 278.949 110.966 279.815 110.129C280.844 109.194 281.679 108.056 282.274 106.781C282.869 105.505 283.211 104.117 283.281 102.696C283.318 101.394 283.838 100.165 284.733 99.2585C286.132 97.7975 287.222 96.0445 288.61 94.5396C293.031 89.7481 293.268 84.3244 289.255 78.9404C288.31 77.6824 288.158 76.9998 289.097 75.6355C294.021 68.6791 291.842 60.8466 284.06 57.5278C282.63 56.9091 282.428 56.2641 282.636 54.8195C283.819 46.5005 277.417 40.1424 269.314 41.6167C267.921 41.8702 267.402 41.6207 266.957 40.2396C266.161 37.7794 264.592 35.6501 262.5 34.1911C258.636 31.4525 253.741 31.6088 249.666 34.8226C248.348 35.8668 247.493 36.0259 246.205 34.8478C241.515 30.566 233.774 30.8207 229.605 37.6694C228.282 39.842 226.556 41.3384 223.623 41.1775C221.86 41.0542 220.108 41.4379 218.561 42.2856C217.015 43.1334 215.736 44.4116 214.867 45.9771C214.185 46.9713 213.383 47.872 212.481 48.6581C210.501 50.5801 208.981 52.8703 208.775 55.6931C208.529 59.1102 206.522 61.2917 204.404 63.457C203.517 64.2386 202.763 65.1669 202.173 66.205C202.848 66.7391 203.4 67.4208 203.789 68.1994C204.177 68.9781 204.391 69.8337 204.415 70.7028C204.494 72.3277 205.427 73.7384 206.38 75.0256C207.332 76.3128 207.134 77.5734 206.257 78.8576C205.251 80.3353 204.367 80.0924 203.555 78.7346C202.378 76.6924 201.734 74.3781 201.688 72.021C201.643 71.0405 202.038 69.6384 200.293 69.6118C198.971 73.4071 200.027 76.8719 202.113 80.0421C202.916 81.2843 203.248 82.1768 202.522 83.5684C202.168 84.2659 201.923 85.1139 201.508 85.8125C199.225 89.6862 199.991 95.8393 204.053 99.2635Z" fill="#123B0F"/>
<path d="M217.155 479.042C219.043 481.393 220.935 483.892 224.412 484.445C227.681 484.962 230.911 485.891 234.121 486.472C234.661 486.555 235.17 486.794 235.588 487.16C236.007 487.526 236.319 488.004 236.488 488.54C237.791 491.581 239.192 494.587 240.434 497.685C241.335 499.881 242.72 501.838 244.478 503.399C246.645 505.38 248.14 505.138 249.516 502.549C251.709 498.433 253.893 494.311 255.915 490.1C256.755 488.354 257.934 487.742 259.751 487.591C264.042 487.233 268.316 486.682 272.6 486.191C273.148 486.129 273.687 486.011 274.209 485.838C276.175 485.149 276.747 483.398 275.574 481.621C275.262 481.16 274.908 480.731 274.516 480.339C271.285 476.944 268.083 473.462 264.72 470.221C264.19 469.785 263.794 469.199 263.583 468.537C263.371 467.875 263.354 467.167 263.533 466.502C264.273 462.616 264.935 458.721 265.618 454.82C265.982 453.164 265.727 451.416 264.904 449.923C264.081 448.429 262.749 447.298 261.171 446.752C260.005 446.288 258.999 446.781 258.027 447.287C254.537 449.125 251.032 450.935 247.605 452.889C245.861 453.879 244.41 454.117 242.564 452.85C239.491 450.734 236.204 448.946 233.002 447.024C232.458 446.662 231.889 446.341 231.301 446.063C228.849 445.083 226.992 446.324 227.039 449.014C227.128 450.429 227.303 451.838 227.565 453.233C228.035 456.514 228.476 459.795 229.021 463.071C229.127 463.723 229.061 464.389 228.828 464.999C228.595 465.609 228.205 466.14 227.699 466.535C224.946 469.134 222.205 471.735 219.474 474.339C218.818 474.992 218.205 475.689 217.638 476.425C217.38 476.797 217.203 477.223 217.12 477.675C217.036 478.126 217.048 478.592 217.155 479.042Z" fill="#352814"/>
<path d="M95.1198 172.764C91.3323 174.463 87.349 176.336 83.2956 178.039C77.656 180.396 79.4566 180.375 74.5873 177.31C70.8029 174.911 67.196 172.275 63.4488 169.764C60.6512 167.926 59.1671 168.591 57.4045 171.351C55.0439 175.001 54.8552 178.789 55.6004 182.947C56.1567 186.014 56.2833 189.155 56.7456 192.241C56.8738 192.836 56.8227 193.453 56.5992 194.011C56.3757 194.569 55.9905 195.041 55.4952 195.362C52.5633 197.754 49.7255 200.237 46.7722 202.579C45.337 203.585 44.2651 205.047 43.7168 206.747C43.2931 207.78 42.8093 208.786 42.2681 209.758C41.0746 212.454 42.059 214.622 44.8943 215.417C50.1361 216.89 55.3809 218.401 60.6578 219.699C61.4552 219.849 62.1981 220.23 62.7979 220.798C63.3977 221.366 63.8292 222.096 64.0411 222.902C65.9357 228.151 68.0475 233.331 70.1018 238.551C70.708 240.1 71.5576 241.455 73.3849 241.64C75.2121 241.825 76.2424 240.624 77.0508 239.202C79.8148 234.344 82.6131 229.499 85.2587 224.572C85.5334 223.941 85.9804 223.408 86.5462 223.036C87.112 222.665 87.7726 222.471 88.449 222.478C93.3966 222.237 98.3338 221.793 103.285 221.645C105.885 221.567 107.665 220.623 108.554 218.067C108.804 217.462 109.088 216.873 109.404 216.302C110.995 213.007 110.863 211.956 108.452 209.208C104.987 205.247 101.545 201.256 98.013 197.354C97.5207 196.875 97.1672 196.265 96.9927 195.595C96.8183 194.924 96.8301 194.22 97.0268 193.562C98.0212 189.165 98.8518 184.726 99.7168 180.302C99.9552 179.105 100.127 177.895 100.232 176.676C100.478 173.369 98.412 171.722 95.1198 172.764Z" fill="#342C14"/>
<path d="M316.567 198.128C317.71 199.496 318.781 200.908 319.991 202.218C320.661 203.08 321.592 203.686 322.632 203.936C323.672 204.185 324.757 204.064 325.708 203.59C332.491 200.797 339.318 198.133 346.076 195.276C346.839 194.889 347.697 194.737 348.549 194.838C349.401 194.938 350.211 195.288 350.884 195.846C356.97 200.188 363.17 204.396 369.295 208.657C369.907 209.078 370.511 209.524 371.163 209.894C374.891 212.009 378.428 209.953 378.294 205.61C378.197 202.304 377.867 199.007 377.588 195.705C377.168 190.716 376.828 185.712 376.207 180.74C375.965 178.83 376.589 177.868 377.93 176.77C383.201 172.459 388.379 168.032 393.555 163.598C397.663 160.092 397.765 158.322 394.096 154.363C387.726 147.468 390.636 149.188 381.915 146.933C377.981 145.916 374.051 144.882 370.093 143.998C369.381 143.908 368.708 143.598 368.164 143.109C367.62 142.62 367.23 141.976 367.045 141.261C365.189 135.686 363.126 130.185 361.208 124.636C360.675 123.013 359.744 121.554 358.506 120.4C356.989 119.002 355.599 117.458 354.101 116.047C351.906 113.963 349.97 114.045 347.599 116.154C347.677 116.707 348.08 116.895 348.532 117.013C352.439 116.951 352.924 117.241 354.261 121.171C356.32 127.367 358.46 133.524 360.581 139.695C360.922 140.922 361.58 142.036 362.483 142.919C363.386 143.801 364.501 144.419 365.709 144.705C372.035 146.459 378.401 147.974 384.755 149.579C386.935 150.13 388.711 151.118 389.674 153.316C389.965 153.833 390.387 154.261 390.894 154.553C395.187 156.998 395.465 159.805 391.63 162.676C386.623 166.433 382.125 170.836 377.172 174.649C375.107 176.24 374.355 178.222 374.401 180.935C374.63 187.648 375.909 194.273 376.115 200.984C376.149 201.762 376.236 202.487 376.287 203.245C376.619 208.384 375.279 209.348 370.87 207.171C367.39 205.618 364.713 202.872 361.561 200.857C361.373 200.673 361.171 200.505 360.956 200.355C357.172 198.257 353.773 195.491 350.256 192.932C350.056 192.754 349.835 192.604 349.598 192.484C349.106 192.248 348.552 192.196 348.033 192.337C347.646 192.48 347.249 192.59 346.844 192.667C340.229 195.296 333.647 197.993 327.036 200.613C323.089 202.176 322.262 201.941 319.652 198.396C319.384 197.847 318.97 197.385 318.459 197.066C318.202 196.908 317.914 196.815 317.618 196.793C317.322 196.771 317.026 196.822 316.755 196.941C316.365 197.349 316.152 197.676 316.567 198.128Z" fill="#402112"/>
<path d="M224.377 411.091C223.919 410.43 223.545 409.746 224.433 409.184C225.847 409.334 226.344 408.054 226.853 407.227C229.119 403.508 231.517 399.854 232.919 395.635C233.12 395.215 233.236 394.757 233.261 394.287C233.286 393.817 233.219 393.345 233.065 392.899C232.007 391.287 230.882 391.931 229.77 392.752C227.189 395.149 225.604 398.489 222.736 400.619C222.516 400.776 222.31 400.955 222.122 401.152C218.804 404.675 214.669 407.236 211.077 410.378C210.599 410.797 210.092 411.181 209.56 411.525C209.377 411.708 209.233 411.927 209.137 412.171C209.215 413.245 210.09 412.694 210.594 412.971C215.223 412.611 219.825 411.983 224.377 411.091Z" fill="#140703"/>
<path d="M316.567 198.128L317.113 197.188C315.699 193.996 316.61 191.024 317.508 187.922C319.19 182.16 321.041 176.46 322.621 170.686C323.015 169.536 323.108 168.294 322.891 167.084C322.673 165.874 322.152 164.739 321.38 163.79C317.474 158.715 313.602 153.61 309.765 148.474C309.373 147.944 308.932 147.453 308.567 146.908C306.192 143.495 307.065 141.29 311.11 141.063C316.963 140.735 322.844 140.754 328.708 140.517C329.808 140.471 330.911 140.463 332.006 140.427C332.884 140.426 333.743 140.196 334.504 139.758C335.265 139.321 335.902 138.69 336.355 137.925C340.351 131.66 344.068 125.213 347.98 118.892C348.417 118.188 348.793 117.405 348.301 116.51L347.564 116.164C343.246 122.558 339.434 129.267 335.518 135.873C335.115 136.695 334.49 137.377 333.715 137.838C332.941 138.3 332.051 138.52 331.15 138.474C324.18 138.57 317.222 138.898 310.262 139.14C309.154 139.079 308.056 139.34 307.096 139.895C306.591 140.222 306.16 140.655 305.829 141.165C305.498 141.676 305.276 142.254 305.176 142.862C305.075 143.47 305.099 144.095 305.246 144.698C305.393 145.3 305.66 145.867 306.029 146.361C308.263 149.624 310.656 152.772 313.029 155.934C315.402 159.095 317.672 162.104 320.144 165.072C320.684 165.646 321.053 166.366 321.209 167.144C321.365 167.923 321.3 168.727 321.022 169.461C318.873 176.448 316.877 183.489 314.758 190.476C313.824 193.446 313.984 196.049 316.567 198.128Z" fill="#343B1A"/>
<path d="M80.4121 140.634C83.9806 141.517 87.3368 142.458 90.7381 143.151C91.9924 143.391 93.1388 144.058 93.9929 145.043C96.4371 147.719 98.7087 150.57 101.529 153.118C102.711 149.559 103.116 146.003 103.833 142.526C104.054 141.155 104.72 139.909 105.723 138.99C108.317 136.661 110.76 134.16 113.037 131.503C109.676 130.216 106.36 129.665 103.107 128.931C101.756 128.7 100.517 127.995 99.6025 126.935C97.8955 124.936 96.0845 123.029 94.2906 121.101C93.6915 120.278 92.8856 119.638 91.9621 119.251C91.268 122.509 90.5263 125.678 89.9372 128.876C89.6569 130.728 88.7385 132.403 87.3489 133.599C84.9624 135.704 82.5001 137.784 80.4121 140.634Z" fill="#293328"/>
<path d="M154.835 393.105L154.346 393.84C155.476 394.314 156.63 394.079 157.78 394.13C158.552 394.167 159.389 393.832 160.07 394.501C160.314 394.744 160.625 394.903 160.959 394.955C165.796 393.933 170.614 392.868 175.151 390.794C176.74 390.069 178.494 389.825 180.146 389.271C191.259 385.549 202.193 381.404 211.867 374.536C213.673 373.246 215.519 372.102 217.82 371.879C218.933 371.783 219.968 371.28 220.74 370.46C221.295 369.195 220.298 369.007 219.583 369.041C218.545 369.117 217.718 368.638 216.809 368.355C215.505 368.245 214.552 368.983 213.579 369.703C201.981 377.75 189.125 383.723 175.541 387.376C169.281 389.118 163.156 391.484 156.592 392.026C156.23 392.031 155.878 392.133 155.57 392.323C155.261 392.512 155.008 392.782 154.835 393.105Z" fill="#100503"/>
<path d="M161.121 394.39L160.077 394.499C157.087 402.273 159.429 409.099 164.146 415.343C167.761 420.12 172.915 422.209 178.52 423.013C183.644 423.716 188.836 423.085 193.617 421.177C198.59 419.335 203.373 417.007 207.902 414.224C208.767 413.732 209.667 413.305 210.595 412.947L209.28 412.249C207.935 411.386 207.058 412.481 206.054 413.036C200.117 416.351 194.206 419.76 187.446 420.829C179.548 422.081 171.705 421.34 165.934 414.483C161.792 409.568 159.811 403.705 161.05 397.12C161.255 396.212 161.626 395.329 161.121 394.39Z" fill="#422012"/>
<path d="M200.32 69.5966C201.344 70.0997 200.939 71.0002 200.888 71.8024C200.809 74.4335 201.487 77.0432 202.838 79.3047C203.224 79.9474 203.72 80.5143 204.301 80.9776C204.993 81.5731 205.559 81.7465 206.058 80.8276C206.101 80.744 206.15 80.6644 206.206 80.5897C208.079 78.3114 209.031 76.061 206.497 73.4173C205.949 72.8312 205.539 72.1245 205.3 71.353C205.06 70.5815 204.997 69.7663 205.115 68.9717C205.121 68.8785 205.115 68.7848 205.098 68.6927C204.813 66.2428 204.482 65.9567 202.215 66.162C201.684 66.5658 201.242 67.0792 200.916 67.6701C200.59 68.261 200.387 68.9168 200.32 69.5966Z" fill="#1F5323"/>
<path d="M260.854 176.264C263.097 176.822 264.985 177.415 266.952 177.719C268.597 177.947 270.1 178.831 271.135 180.18C272.415 181.794 273.873 183.255 275.238 184.767C276.172 184.507 275.978 183.726 276.099 183.148C276.337 181.948 276.607 180.754 276.735 179.544C276.833 178.37 277.172 177.236 277.73 176.215C278.288 175.194 279.053 174.311 279.973 173.624C281.23 172.7 282.329 171.569 283.226 170.276C282.872 169.169 281.885 169.263 281.154 169.182C279.004 168.986 276.921 168.275 275.07 167.107C273.219 165.939 271.653 164.346 270.495 162.456C270.154 161.944 269.823 161.272 268.896 161.175C268.28 163.277 267.84 165.432 267.579 167.617C267.34 169.103 266.613 170.451 265.517 171.437C263.8 172.871 262.238 174.489 260.854 176.264Z" fill="#293429"/>
<path d="M78.1567 367.934C79.7361 368.549 81.3844 368.946 83.0582 369.115C84.1082 369.243 85.1258 369.588 86.0502 370.128C86.9745 370.669 87.7864 371.394 88.4373 372.26C89.4952 373.652 90.7864 374.868 92.3382 376.556C92.7308 374.351 93.1757 372.635 93.3143 370.887C93.3824 369.805 93.6867 368.757 94.2046 367.82C94.7224 366.884 95.4406 366.083 96.3058 365.477C97.5286 364.53 98.5922 363.367 99.8973 362.114C97.8885 361.002 95.8772 360.813 93.9777 360.341C92.4381 360.042 91.0415 359.194 90.0346 357.948C88.847 356.419 87.405 355.071 85.8988 353.465C85.2034 355.476 84.7368 357.568 84.5082 359.698C84.3236 361.2 83.5968 362.566 82.4714 363.527C80.8574 364.802 79.4079 366.282 78.1567 367.934Z" fill="#273127"/>
<path d="M231.478 126.586C231.626 126.325 231.694 125.967 231.416 125.816C229.515 124.958 228.792 123.315 228.36 121.379C228.178 120.563 228.237 118.939 226.567 120.223C226.204 120.505 225.836 119.867 225.589 119.447C224.423 117.227 224.129 116.938 222.149 117.355C218.85 118.044 216.246 116.736 213.779 114.664C210.97 112.294 210.336 108.972 210.077 105.522C210.119 104.682 210.101 103.839 210.023 103C209.799 102.03 209.309 101.118 208.153 102.165C208.51 102.382 208.788 102.715 208.943 103.11C209.099 103.505 209.123 103.94 209.011 104.345C208.778 105.74 208.834 107.174 209.176 108.554C210.563 115.047 215.66 119.042 222.057 118.365C223.537 118.206 224.107 118.583 224.678 119.898C226.088 123.02 228.175 125.48 231.478 126.586Z" fill="#112F14"/>
<path d="M99.8634 440.452C99.5452 438.664 99.0573 436.91 98.4067 435.215C98.2083 437.078 98.7316 438.959 99.8634 440.452Z" fill="#205726"/>
<path d="M201.312 165.677C201.842 165.064 202.102 164.464 201.517 163.673C200.602 162.494 199.756 161.264 198.776 159.905C196.081 162.16 193.943 165.079 190.183 165.7C190.495 164.628 191.264 164.461 191.883 164.139C193.801 163.052 195.485 161.583 196.838 159.814C197.178 159.5 197.399 159.073 197.465 158.605C197.53 158.137 197.436 157.658 197.199 157.248C194.136 151.717 191.283 146.066 187.307 141.089C186.997 140.751 186.657 140.445 186.291 140.174C184.435 139.256 182.72 140.49 180.908 140.498C179.908 140.578 178.899 140.399 177.974 139.978C177.049 139.557 176.237 138.907 175.611 138.087C171.167 132.358 168.945 125.711 167.64 118.668C166.781 114.045 167.383 109.851 170.634 106.362C170.791 106.189 170.89 105.968 170.919 105.732C170.947 105.495 170.903 105.254 170.793 105.042C167.687 103.219 164.499 103.814 161.447 104.845C158.511 105.795 155.826 107.403 153.581 109.554C151.337 111.705 149.59 114.346 148.463 117.29C145.501 124.504 145.098 132.125 145.69 139.816C147.023 157.016 152.861 172.577 162.486 186.847C168.659 195.995 175.056 205.018 180.484 214.665C184.544 222.059 187.402 230.071 188.94 238.378C189.062 239.308 189.119 240.246 189.111 241.182C188.126 241.204 188.325 240.495 188.216 240.021C187.693 237.903 187.18 235.784 186.677 233.665C186.398 232.498 185.897 232.149 184.699 232.639C181.009 234.249 177.239 235.684 173.548 237.318C168.252 239.639 162.787 241.543 157.2 243.016C148.582 245.34 140.093 248.118 131.765 251.337C123.029 254.618 115.052 259.257 108.364 266.01C104.552 269.82 101.775 274.592 100.299 279.868C98.6312 285.761 99.9927 291.449 102.071 297.056C104.511 303.635 109.718 306.819 115.725 309.072C117.819 309.823 119.971 310.38 122.155 310.734C123.829 312.285 125.942 312.044 127.905 312.223C138.912 313.053 149.906 313.012 160.773 311.226C166.269 310.222 171.583 308.412 176.555 305.851C178.219 304.574 180.105 303.632 182.116 303.074C183.397 302.612 184.634 302.033 185.812 301.345C186.472 300.98 187.017 300.474 186.848 299.591C186.817 299.379 186.745 299.176 186.636 298.992C186.527 298.808 186.384 298.648 186.215 298.521C186.046 298.393 185.855 298.302 185.652 298.252C185.45 298.201 185.24 298.193 185.036 298.228C184.443 298.278 183.845 298.158 183.308 297.882C182.772 297.606 182.317 297.184 181.994 296.663C179.254 292.784 178.105 288.353 177.677 283.721C177.183 278.382 180.323 275.672 184.651 274.051C187.563 272.957 190.545 272.033 193.736 272.902C196.814 273.007 198.122 275.243 199.246 277.72C199.398 277.958 199.584 278.172 199.796 278.355C202.251 278.964 202.427 278.663 201.675 275.523C201.562 275.262 201.421 275.013 201.256 274.781C200.201 273.726 199.327 272.496 198.673 271.143C195.402 267.246 190.9 266.214 186.32 265.613C184.6 265.374 182.86 265.259 181.142 264.918C173.645 264.935 166.2 265.978 159.004 268.02C155.792 268.913 152.764 269.18 149.666 267.741C142.016 265.229 134.301 264.562 127.825 265.939C131.163 265.144 138.92 264.893 144.56 266.373C146.579 267.038 148.648 267.517 150.743 267.804C153.758 266.753 154.757 264.891 153.994 261.794C153.728 260.988 153.412 260.2 153.048 259.433C152.738 258.621 152.023 258.103 151.659 257.346C151.449 257.026 152.088 257.132 151.738 257.245C151.653 257.269 151.644 257.374 151.754 257.493C153.013 258.813 153.459 260.635 154.552 262.072C157.226 265.63 160.639 267.186 164.939 266.534C168.082 266.053 171.313 266.242 174.296 264.719C177.138 263.29 178.313 261.048 178.072 257.908C177.948 256.367 177.996 254.896 177.943 253.39C178.024 255.629 177.749 257.927 178.731 260.057C179.712 262.188 180.905 264.038 182.947 265.188C185.724 265.716 188.582 265.661 191.308 266.612C194.202 267.619 196.973 268.811 198.962 271.385C199.448 272.038 200.105 272.509 200.868 272.155C201.759 271.742 201.356 270.869 201.179 270.178C200.647 268.127 200.044 266.097 199.476 264.056C200.873 268.64 201.722 273.391 203.639 277.814C204.116 279.029 204.669 280.212 205.295 281.356C208.353 287.86 212.086 294.013 216.428 299.706C221.129 305.946 227.071 310.731 233.265 315.295C240.533 320.656 248.659 323.785 257.135 326.17C260.897 327.228 264.775 327.197 267.88 327.838C262.074 327.288 256.334 326.084 250.762 324.248C241.839 321.157 233.56 316.311 226.391 309.983C225.564 309.259 224.843 308.309 223.713 308.001C221.174 307.833 220.67 308.296 221.441 310.792C222.858 315.559 223.987 320.327 223.092 325.303C222.924 326.233 222.849 327.168 222.578 328.086C221.74 331.18 221.885 331.974 224.641 333.745C231.03 337.837 233.017 344.021 233.029 351.212C233.034 356.3 231.436 361.047 229.731 365.713C229.245 366.877 229.075 368.159 229.239 369.425C229.403 370.692 229.896 371.894 230.666 372.907C233.31 376.646 234.526 381.24 234.076 385.795C233.665 389.909 233.052 393.995 232.238 398.038C232.064 398.967 231.632 399.821 230.994 400.496C229.41 402.312 228.073 404.343 227.019 406.534C226.692 407.169 226.033 407.785 226.597 408.582C227.162 409.378 227.901 409.212 228.629 409.144C232.449 408.766 236.236 408.162 240.042 407.678C249.408 406.59 258.68 404.845 267.794 402.455C278.629 399.369 288.977 394.764 298.55 388.769C306.108 384.119 314.042 380.132 322.268 376.852C328.293 374.483 334.687 373.058 341.093 371.812C351.938 369.701 362.957 369.834 373.898 369.028C381.166 368.496 381.185 368.727 382.245 361.443C383.693 351.498 383.072 341.514 382.295 331.488C381.328 319.159 379.331 306.921 376.326 294.91C372.221 278.568 366.567 262.956 358.599 248.122C356.258 243.762 355.042 243.281 350.4 244.099C338.294 246.144 326.112 247.476 313.791 247.019C309.247 246.849 304.632 246.369 300.392 244.223C291.156 241.159 283.555 235.26 276.123 229.039C268.998 223.071 262.612 216.251 255.806 209.95C249.219 203.888 241.926 198.697 234.101 194.501C222.156 188.03 212.425 178.966 204.362 167.901C203.828 167.159 203.509 166.176 202.449 165.983C200.383 166.557 199.096 168.562 197.177 169.143C198.778 168.43 200.413 167.542 201.312 165.677Z" fill="#6C382C"/>
<path d="M122.458 311.768C115.455 315.553 110.076 323.723 111.906 333.614C112.223 335.858 112.693 338.078 113.312 340.259C116.102 348.726 121.55 354.065 130.285 355.464C132.366 355.792 134.478 355.96 136.587 356.201C140.303 357.775 144.047 356.552 147.694 356.207C158.966 355.113 170.088 352.887 180.903 349.561C185.039 348.292 189.053 346.884 192.664 344.469C198.599 340.517 204.896 337.126 210.357 332.455C210.642 331.974 210.967 331.497 211.297 331.067C211.852 330.322 212.077 329.542 211.497 328.718C210.917 327.895 210.074 327.987 209.232 328.111C207.888 328.32 206.634 329.126 205.203 328.641C203.059 327.236 201.913 325.034 200.988 322.723C199.385 318.685 198.004 314.57 197.723 310.165C197.658 309.22 197.84 308.279 198.249 307.439C198.659 306.599 199.282 305.891 200.053 305.388C202.433 303.615 204.988 302.227 208.081 302.304C208.52 302.182 208.958 302.06 209.402 301.984C209.77 301.971 210.123 301.837 210.409 301.601C210.694 301.366 210.898 301.041 210.989 300.675C211.197 299.696 210.615 299.085 209.905 298.613C209.309 298.166 208.661 297.798 207.977 297.518C207.672 297.425 207.355 297.377 207.038 297.378C200.903 296.721 195.324 298.691 189.718 300.731C183.89 302.849 178.203 305.337 172.479 307.693C164.482 310.998 156.209 312.22 147.672 312.68C146.847 312.691 146.021 312.658 145.198 312.581C139.971 312.23 134.732 312.522 129.499 312.15C127.147 311.969 124.822 311.253 122.458 311.768Z" fill="#6C382C"/>
<path d="M154.834 393.106C159.888 393.275 164.587 391.645 169.362 390.372C179.561 387.699 189.491 384.087 199.033 379.58C204.542 376.859 209.825 373.687 214.83 370.095C215.57 369.574 216.172 368.808 217.145 368.663L217.506 368.618C217.879 368.571 218.232 368.427 218.533 368.198C218.733 368.041 218.915 367.86 219.077 367.661L219.548 367.026C221.042 365.822 222.444 364.479 223.99 363.324C224.983 362.654 225.84 361.795 226.517 360.792C226.992 360.006 227.576 359.119 226.834 358.206C226.093 357.294 225.212 357.634 224.339 358.058C222.86 358.768 221.487 359.749 219.805 359.949C217.93 360.171 216.064 360.202 215.036 358.124C212.467 354.175 209.894 350.242 209.733 345.251C209.693 343.74 209.899 342.237 210.34 340.804C211.85 338.509 214.234 337.57 216.595 336.606C217.69 336.159 219.113 335.905 218.799 334.283C218.485 332.66 217.105 332.768 215.746 332.705C212.19 332.552 209.319 334.533 206.125 335.516C201.387 338.457 196.851 341.712 192.067 344.596C185.538 348.524 178.293 350.287 171.04 352.132C163.615 354.016 156.02 354.963 148.459 355.892C145.748 356.229 143.03 356.457 140.271 356.594C139.049 356.666 137.906 356.803 137.007 357.739C135.473 359.548 134.372 361.705 133.789 364.042C133.207 366.378 133.16 368.831 133.652 371.208C134.267 375.043 135.365 378.788 136.918 382.347C138.319 385.261 140.563 387.667 143.337 389.228C146.871 391.345 150.791 392.667 154.834 393.106Z" fill="#6C382C"/>
<path d="M300.34 244.229C301.114 245.448 302.323 245.876 303.607 246.165C308.266 247.285 313.045 247.71 317.798 247.425C322.163 247.117 326.577 247.284 330.97 247.157C333.346 247.112 335.71 246.84 338.029 246.343C341.791 245.509 345.656 245.458 349.414 244.665C349.93 244.522 350.512 244.612 351.044 244.527C353.957 244.039 356.449 245.135 357.887 247.973C360.316 252.758 363.147 257.32 364.965 262.456C365.989 265.6 367.325 268.632 368.953 271.503C369.09 271.751 369.195 272.016 369.263 272.291C370.861 278.828 373.947 284.935 375.135 291.562C376.003 296.434 377.497 301.148 378.593 305.909C379.104 308.131 379.228 310.381 379.531 312.621C380.151 317.098 380.862 321.572 381.365 326.065C381.938 330.556 382.221 335.076 382.211 339.595C382.162 342.406 382.346 345.231 382.472 348.04C382.684 353.079 382.648 358.045 381.334 362.91C381.314 363.002 381.255 363.089 381.256 363.176C381.218 364.683 381.35 366.254 380.131 367.35C378.911 368.445 377.351 368.123 375.917 368.23C369.805 368.67 363.7 369.163 357.577 369.48C351.718 369.766 345.891 370.458 340.136 371.55C335.716 372.402 331.435 373.695 327.06 374.684C322.686 375.672 318.772 378.038 314.605 379.662C305.103 383.369 296.955 389.694 287.829 394.147C284.626 395.7 281.335 397.049 278.064 398.44C272.976 400.643 267.575 401.696 262.323 403.307C258.734 404.408 254.999 404.817 251.292 405.352C249.217 405.646 247.175 406.143 245.088 406.448C243.381 406.694 241.671 407.067 239.951 407.16C236.018 407.379 232.176 408.251 228.265 408.63C226.783 408.782 226.529 408.364 227.148 407.081C228.214 404.886 229.423 402.713 231.48 401.393C232.131 401.049 232.648 400.487 232.946 399.798C233.243 399.11 233.305 398.333 233.121 397.595C232.927 396.379 233.056 395.137 233.493 394.001C234.575 390.312 235.046 386.453 234.889 382.582C234.801 378.84 233.353 375.555 231.407 372.559C230.677 371.589 230.215 370.438 230.071 369.228C229.927 368.019 230.105 366.797 230.588 365.696C232.449 360.797 234.033 355.755 233.865 350.357C233.699 344.746 232.314 339.576 228.228 335.379C226.947 334.064 225.305 333.394 223.969 332.206C222.787 331.164 222.696 330.37 223.115 328.835C224.474 324.618 224.636 320.07 223.582 315.72C223.124 314.075 222.668 312.436 222.21 310.791C221.502 308.246 221.538 308.236 224.056 308.796C223.921 306.887 222.571 306.199 221.077 305.622C219.295 305.929 219.326 307.189 219.618 308.597C220.139 311.399 221.729 313.856 222.076 316.746C222.587 320.937 222.664 325.052 221.275 329.071C221.019 329.781 220.937 330.548 221.035 331.305C221.266 332.682 222.27 333.388 223.345 333.964C230.276 337.645 232.138 343.982 232.094 351.275C232.051 353.821 231.698 356.347 231.045 358.792C230.269 361.921 229.139 364.941 227.679 367.789C227.158 368.542 226.877 369.445 226.875 370.377C227.016 371.026 227.385 371.603 227.912 371.995C232.821 376.216 233.678 381.761 232.967 387.781C232.713 389.634 232.609 391.507 232.658 393.383C232.383 395.317 231.741 397.172 230.77 398.841C228.938 402.473 226.802 405.931 224.384 409.174C224.69 410.271 225.455 409.955 226.163 409.869L240.355 408.119C249.832 406.99 259.208 405.172 268.412 402.677C279.023 399.725 288.858 395.106 298.288 389.528C305.608 385.119 313.222 381.237 321.076 377.909C327.454 375.347 334.084 373.474 340.86 372.318C352.886 370.123 365.15 370.209 377.304 369.271C382.658 368.845 381.585 369.482 382.312 364.671C383.79 355.356 383.568 346.01 383.116 336.633C382.6 325.572 381.201 314.558 378.932 303.703C376.787 293.491 373.932 283.439 370.389 273.625C366.985 264.074 362.798 254.826 357.874 245.983C355.87 242.42 355.881 242.433 351.986 243.201C340.656 245.456 329.125 246.606 317.548 246.636C311.716 246.659 306.024 245.485 300.34 244.229Z" fill="#6C382C"/>
<path d="M185.892 139.237C185.294 136.157 183.971 133.318 183.009 130.355C181.521 125.774 180.265 121.12 178.5 116.639C177.46 113.9 176.212 111.246 174.768 108.703C174.059 107.497 173.45 105.855 171.536 106.127C168.861 107.194 167.945 109.655 167.251 112.173C166.556 114.691 166.878 117.272 167.395 119.705C168.713 125.894 170.678 131.863 174.422 137.102C177.372 141.158 181.712 142.047 185.892 139.237Z" fill="#6C382C"/>
<path d="M137.017 357.744C139.967 356.923 143.031 357.198 146.033 356.811C153.575 355.84 161.157 355.125 168.571 353.338C170.883 352.774 173.247 352.447 175.563 351.842C184.632 349.477 193.173 345.408 200.758 339.838C202.542 338.553 204.231 337.091 206.268 336.193C208.49 334.946 210.859 333.993 213.321 333.356C213.247 332.321 213.247 332.321 210.802 331.205C210.37 331.27 209.931 331.305 209.792 331.848C202.639 337.341 195.067 342.237 187.145 346.493C186.749 346.723 186.335 346.919 185.907 347.081C176.909 349.995 167.825 352.545 158.441 353.935C151.184 355 143.911 355.842 136.578 356.219C136.774 356.414 136.918 356.657 136.995 356.924C137.072 357.192 137.08 357.475 137.017 357.744Z" fill="#170805"/>
<path d="M122.458 311.768C125.496 312.472 128.596 312.826 131.699 312.822C135.984 312.993 140.274 312.989 144.563 313.065C153.876 313.121 162.905 311.988 171.673 308.493C177.301 306.258 182.874 303.856 188.547 301.726C191.044 300.787 193.848 300.346 196.031 298.494C196.174 298.175 196.21 297.814 196.133 297.468C196.056 297.122 195.87 296.809 195.605 296.579C192.868 296.191 190.568 297.65 188.621 299.035C184.918 301.641 180.731 302.947 176.646 304.588C176.405 304.703 176.212 304.901 176.101 305.15C170.659 307.507 165.149 309.615 159.18 310.487C148.929 311.879 138.546 312.158 128.202 311.321C126.196 311.178 124.185 310.91 122.184 310.702C122.253 311.061 122.353 311.419 122.458 311.768Z" fill="#130607"/>
<path d="M185.893 139.237C184.15 139.77 182.343 140.063 180.519 140.11C179.512 140.123 178.515 139.876 177.618 139.39C176.72 138.904 175.953 138.196 175.386 137.33C173.219 134.372 171.484 131.109 170.237 127.645C169.349 125.055 168.615 122.415 168.038 119.739C166.861 114.551 167.57 109.839 171.568 106.103C171.534 105.87 171.436 105.651 171.285 105.472C171.134 105.293 170.936 105.162 170.716 105.095C169.661 106.25 168.699 107.492 167.84 108.81C166.81 110.486 166.295 112.448 166.36 114.446C166.739 123.086 169.625 131.455 174.645 138.474C176.682 141.358 179.426 141.824 182.498 141.253C183.752 141.022 184.967 140.566 186.198 140.224C186.101 139.904 186.001 139.569 185.893 139.237Z" fill="#130607"/>
<path d="M201.312 165.677C199.358 166.874 197.747 168.56 195.489 169.211C195.1 169.32 194.637 169.708 194.861 170.268C195.085 170.829 195.643 170.697 196.044 170.522C198.506 169.542 200.71 167.996 202.492 166.002L201.312 165.677Z" fill="#170805"/>
<path d="M110.085 444.045C110.378 444.819 110.906 445.477 111.59 445.92C113.882 447.394 115.022 448.999 114.78 452.265C114.386 457.56 116.245 459.422 122.871 462.747C124.688 463.66 125.739 464.589 126.46 466.579C128.462 472.16 132.093 475.869 138.27 476.018C139.047 476.043 139.808 476.264 140.488 476.664C141.167 477.063 141.742 477.628 142.161 478.308C145.51 482.837 149.409 484.171 154.807 482.669C155.354 482.48 155.935 482.406 156.514 482.452C157.094 482.498 157.661 482.663 158.181 482.936C162.651 485.112 165.535 484.113 168.202 479.81C169.055 478.438 170.593 477.829 171.903 477.031C175.529 474.832 175.672 474.525 174.09 470.316C173.908 469.879 173.841 469.403 173.896 468.936C173.97 468.567 174.139 468.227 174.384 467.949C177.747 464.397 177.77 461.381 174.455 457.686C173.639 456.773 172.779 455.902 171.878 455.078C171.436 454.726 171.094 454.257 170.892 453.722C170.689 453.188 170.633 452.609 170.73 452.049C171.908 445.599 168.134 442.142 163.269 439.587C162.283 439.156 161.392 438.518 160.654 437.715C159.916 436.912 159.348 435.961 158.985 434.925C156.933 429.302 152.41 426.605 146.991 425.591C145.459 425.389 144.043 424.616 143.011 423.421C141.744 421.896 140.228 420.61 138.532 419.624C136.347 418.372 134.089 417.842 131.672 418.964C129.85 419.81 128.084 420.009 126.222 418.55C124.899 417.492 123.12 417.317 121.468 417.241C118.564 417.103 117.353 418.614 116.798 422.834C116.322 423.865 115.352 424.158 114.47 424.577C110.192 426.595 109.542 428.312 111.244 432.897L111.384 433.646C107.087 437.103 107.041 437.486 110.085 444.045Z" fill="#F7F9F8"/>
<path d="M114.657 456.231C114.708 456.58 114.766 456.926 114.866 457.56C113.148 455.848 112.947 453.839 112.633 451.287C109.901 454.151 107.063 456.193 105.246 459.196C104.004 461.252 105.058 463.425 105.957 465.396C107.575 468.965 110.563 470.994 113.918 472.534C115.175 473.107 116.265 473.134 117.328 471.861C118.916 469.954 120.797 468.304 122.501 466.483C123.493 465.419 123.453 465.138 122.138 464.496C120.734 463.779 119.432 462.862 118.272 461.773C118.177 461.706 118.098 461.618 118.039 461.516C117.981 461.414 117.945 461.301 117.933 461.184C117.922 461.067 117.935 460.949 117.973 460.839C118.011 460.729 118.071 460.629 118.151 460.546C117.296 458.87 116.507 457.103 114.657 456.231Z" fill="#205C28"/>
<path d="M137.67 477.943C134.756 477.492 132.01 476.211 129.744 474.246C128.482 473.139 127.413 471.818 126.585 470.342C126.243 469.673 125.859 469.027 125.437 468.408C124.531 467.179 123.617 466.936 122.702 467.947C121.209 469.592 119.499 470.982 117.955 472.554C117.539 472.92 117.243 473.409 117.104 473.956C116.965 474.504 116.991 475.084 117.178 475.622C118.647 480.438 122.199 484.713 127.645 485.853C128.37 485.997 129.114 485.96 129.816 485.746C130.518 485.531 131.156 485.146 131.677 484.621C133.932 482.655 135.944 480.413 137.67 477.943Z" fill="#1F5B28"/>
<path d="M114.656 456.232C115.823 457.688 116.743 459.323 118.148 460.563C119.724 461.871 121.483 462.926 123.362 463.69C123.874 463.882 124.334 464.2 124.702 464.616C125.07 465.031 125.335 465.532 125.473 466.073C127.782 472.373 131.866 476.453 138.702 476.804C139.292 476.84 139.867 477.029 140.372 477.352C140.878 477.675 141.298 478.124 141.594 478.655C143.409 481.442 146.056 483.553 149.126 484.66C151.492 485.467 153.723 485.406 155.401 483.355C156.28 482.323 156.815 482.686 157.672 483.299C158.811 484.096 159.997 484.819 161.223 485.462C162.212 485.991 163.304 486.275 164.411 486.293C167.252 486.338 168.633 485.032 168.805 482.116C168.864 481.312 168.482 480.433 168.927 479.568C170.279 479.634 171.646 479.781 173.012 479.732C175.491 479.657 176.641 478.447 176.82 475.915C176.885 474.4 176.507 472.891 175.737 471.583C175.209 470.588 174.339 469.79 174.087 468.638C173.845 468.453 173.661 468.505 173.55 468.788C172.948 470.161 173.83 471.357 174.075 472.621C174.447 474.589 174.389 474.763 172.558 475.58C170.156 476.642 168.111 478.141 166.926 480.621C166.581 481.549 165.906 482.302 165.035 482.73C164.165 483.158 163.164 483.228 162.233 482.928C160.534 482.518 158.773 482.653 157.088 481.995C156.117 481.654 155.071 481.631 154.097 481.929C152.751 482.192 151.374 482.279 150 482.187C148.621 482.223 147.25 481.886 146.025 481.209C144.8 480.532 143.764 479.539 143.02 478.329C142.419 477.321 141.567 476.494 140.554 475.935C139.542 475.377 138.406 475.107 137.267 475.155C132.334 475.093 128.922 471.898 127.39 466.801C126.651 464.335 125.447 462.858 123.107 462.146C120.934 461.482 119.221 460.012 117.581 458.444C115.732 456.673 115.312 454.426 115.453 451.944C115.689 448.191 115.252 447.525 111.613 445.921C111.747 446.159 111.82 446.502 112.024 446.634C114.023 447.929 114.716 449.517 113.837 451.945C113.308 453.329 114.285 454.814 114.656 456.232Z" fill="#60C42C"/>
<path d="M152.981 486.022C148.32 486.531 145.399 483.892 142.486 481.173C141.554 480.289 141.023 478.656 139.685 478.611C138.346 478.566 137.986 480.147 137.13 480.961C135.871 482.162 134.472 483.213 133.563 484.797C133.13 485.405 132.92 486.154 132.971 486.913C133.022 487.673 133.33 488.394 133.842 488.951C135.396 490.984 137.415 492.59 139.714 493.621C142.365 494.767 145.007 493.906 146.969 492.304C149.242 490.501 151.264 488.388 152.981 486.022Z" fill="#225A27"/>
<path d="M173.56 468.824L174.098 468.675C174.477 468.42 174.847 468.135 175.241 467.908C178.125 466.247 178.8 464.262 177.51 461.107C176.589 458.804 175.056 456.807 173.088 455.348C171.567 454.235 170.804 453.163 171.586 451.125C172.151 449.652 171.741 447.93 171.046 446.445C169.339 442.665 166.755 439.76 162.846 438.421C160.946 437.783 160.075 436.678 159.504 434.764C158.695 431.978 157.034 429.522 154.769 427.765C152.505 426.008 149.759 425.045 146.946 425.021C146.317 425.054 145.688 424.906 145.13 424.591C144.572 424.277 144.109 423.81 143.792 423.243C141.976 420.572 139.422 418.521 136.47 417.361C134.003 416.385 131.792 416.464 129.9 418.401C128.953 419.382 128.144 419.102 127.27 418.345C125.81 417.006 124.048 416.067 122.152 415.616C118.546 414.847 116.757 416.251 116.516 420.013C116.443 420.931 116.761 421.907 116.224 422.773C116.464 423.636 116.907 423.529 117.377 422.972C117.446 422.315 117.459 421.65 117.592 421.006C117.775 420.03 118.325 419.175 119.124 418.626C119.923 418.076 120.905 417.876 121.859 418.07C123.767 418.346 125.624 418.936 127.36 419.817C128.085 420.25 128.905 420.479 129.737 420.481C130.569 420.484 131.383 420.259 132.097 419.831C134.657 418.212 136.634 419.703 138.769 420.693C139.163 420.937 139.51 421.255 139.792 421.63C142.478 424.546 145.868 426.022 149.527 427.147C151.587 427.71 153.496 428.766 155.096 430.23C156.696 431.693 157.941 433.521 158.728 435.563C159.74 438.268 161.517 439.452 163.636 440.714C165.167 441.59 166.607 442.626 167.933 443.805C168.666 444.406 169.247 445.18 169.625 446.061C170.003 446.941 170.166 447.899 170.1 448.852C169.654 452.592 171.004 455.471 173.627 457.94C174.212 458.549 174.737 459.216 175.194 459.931C176.481 461.819 176.429 463.74 175.519 465.758C174.975 466.926 173.792 467.547 173.56 468.824Z" fill="#68C72E"/>
<path d="M98.8841 448.958C99.8432 451.637 101.357 454.077 103.32 456.108C104.636 457.388 105.369 457.366 106.61 456.099C108.552 454.124 110.421 452.076 112.368 450.116C113.156 449.329 113.093 448.693 112.321 448.001C111.91 447.619 111.463 447.271 111.064 446.878C108.996 444.924 107.164 442.888 106.578 439.876C106.203 437.955 105.636 437.861 104.191 439.106C102.916 440.156 101.702 441.283 100.557 442.481C98.957 444.289 97.9586 446.371 98.8841 448.958Z" fill="#206028"/>
<path d="M157.684 494.878C159.889 494.106 161.739 492.544 162.899 490.472C163.523 489.511 163.182 488.479 162.557 487.573C162.384 487.349 162.166 487.165 161.919 487.033C160.398 486.141 158.953 484.864 157.321 484.476C155.422 484.035 154.934 486.416 153.68 487.387C152.56 488.34 151.534 489.401 150.614 490.557C149.489 491.831 149.613 492.797 150.958 493.849C152.77 495.268 154.846 495.58 157.684 494.878Z" fill="#205E29"/>
<path d="M107.09 425.117C104.875 427.869 102.568 429.74 100.388 431.765C98.7454 433.285 98.9087 437.762 100.385 439.424C100.492 439.551 100.624 439.653 100.772 439.725C100.919 439.796 101.079 439.835 101.242 439.839C101.404 439.843 101.564 439.812 101.713 439.748C101.861 439.683 101.994 439.587 102.103 439.466C102.991 438.683 103.765 437.767 104.63 436.959C105.766 435.894 106.899 434.815 108.129 433.866C109.007 433.188 109.339 432.355 108.814 431.453C107.731 429.516 107.138 427.336 107.09 425.117Z" fill="#205726"/>
<path d="M117.364 423.008C117.172 423.076 116.966 423.093 116.765 423.058C116.564 423.023 116.373 422.937 116.211 422.808C115.121 422.269 113.919 422.025 112.721 422.101C109.427 422.15 107.722 424.429 108.436 427.737C108.958 429.664 109.928 431.44 111.262 432.908C111.257 431.987 111.265 431.055 111.251 430.129C111.193 427.427 111.814 426.427 114.3 425.664C115.748 425.198 117.12 424.817 117.364 423.008Z" fill="#6BCF32"/>
<path d="M110.085 444.045C109.862 443.239 109.593 442.445 109.279 441.669C107.938 438.796 108.207 437.24 110.481 435.032C110.903 434.631 111.764 434.549 111.373 433.609C110.771 433.822 110.18 434.068 109.604 434.346C108.798 434.708 108.149 435.355 107.772 436.171C107.395 436.988 107.314 437.921 107.544 438.803C107.863 440.765 108.748 442.592 110.085 444.045Z" fill="#6BCF32"/>
<path d="M229.101 111.166C230.303 111.486 230.436 112.623 230.846 113.549C232.013 116.234 233.595 118.552 236.361 119.673C240.239 121.258 243.79 120.38 246.98 117.956C248.864 116.51 248.877 116.309 250.765 117.864C253.801 120.392 257.09 121.423 260.786 120.024C262.273 119.53 263.613 118.667 264.69 117.51C265.767 116.354 266.548 114.939 266.965 113.389C267.622 111.063 267.629 111.061 270.139 111.482C271.776 111.776 273.45 111.716 275.051 111.305C280.017 109.978 282.521 106.43 282.227 101.129C282.164 99.8314 281.4 98.3735 282.107 97.2707C282.813 96.168 284.29 96.025 285.42 95.4823C286.637 94.8835 287.715 94.03 288.588 92.9754C289.461 91.9208 290.11 90.688 290.492 89.3544C290.875 88.0209 290.984 86.6155 290.813 85.2266C290.641 83.8378 290.193 82.4957 289.495 81.2846C288.923 80.3008 288.277 79.3634 287.564 78.4809C287.397 78.317 287.264 78.1199 287.174 77.902C287.083 77.6842 287.037 77.4502 287.038 77.2147C287.039 76.9792 287.087 76.7474 287.18 76.5336C287.272 76.3198 287.407 76.1287 287.575 75.9722C288.2 75.176 288.723 74.2898 289.269 73.4289C292.269 68.6545 289.698 61.6873 285.533 59.647C285.379 59.5411 285.218 59.4464 285.051 59.3637C282.29 58.3984 281.363 56.8203 281.639 53.5368C282.222 46.5667 276.348 41.4798 269.636 42.6931C267.455 43.0715 267.047 43.4134 266.009 40.6135C264.039 35.4492 260.163 33.0525 254.941 33.5126C253.003 33.7101 251.2 34.5842 249.83 35.9902C248.118 37.6408 247.971 37.524 246.146 36.0618C244.121 34.4507 241.995 33.2769 239.358 33.2226C235.641 33.1459 232.768 34.5991 230.837 37.8231C230.138 38.9233 229.566 40.1055 229.134 41.3461C228.757 42.5383 228.147 42.7003 227.078 42.5013C225.99 42.317 224.889 42.2303 223.79 42.2421C218.364 42.2465 213.896 46.9487 214.451 52.5067C214.754 55.3771 214.426 56.9103 211.53 58.1967C205.645 60.7952 204.083 67.9193 207.701 73.4447C208.058 73.9913 208.509 74.4884 208.898 75.0104C210.2 76.6496 210.313 76.7522 208.949 78.3137C204.936 82.9046 205.238 89.2501 209.701 93.5398L213.301 95.4931C215.123 96.5622 214.759 98.2393 214.591 99.9643C213.882 107.198 219.668 112.735 226.639 111.63C227.455 111.467 228.211 110.98 229.101 111.166Z" fill="#F7F9F8"/>
<path d="M226.701 111.416C220.582 111.692 216.422 108.603 215.306 102.972C215.119 101.469 215.117 99.9498 215.298 98.4518C215.39 96.3698 215.406 96.3732 213.29 95.4805C214.061 97.3462 213.937 97.3412 213.851 100.619C213.646 108.43 220.859 113.948 226.882 111.847C227.051 111.658 227.079 111.54 226.97 111.476C226.931 111.446 226.888 111.426 226.841 111.415C226.795 111.405 226.747 111.405 226.701 111.416Z" fill="#0A3609"/>
<path d="M226.701 111.416C226.776 111.55 226.838 111.691 226.887 111.837L229.094 111.168C228.697 111.039 228.28 110.995 227.868 111.037C227.457 111.08 227.06 111.209 226.701 111.416Z" fill="#225A26"/>
<path d="M249.866 491.342C250.707 489.792 251.645 488.286 252.385 486.701C252.692 485.873 253.236 485.165 253.946 484.668C254.657 484.17 255.5 483.908 256.366 483.915C260.3 483.672 264.211 483.159 268.119 482.686C269.518 482.51 271.293 482.78 271.929 481.067C272.667 479.089 270.847 478.272 269.788 477.179C266.918 474.204 264.06 471.217 261.104 468.32C260.504 467.797 260.053 467.115 259.802 466.35C259.552 465.585 259.511 464.767 259.686 463.987C259.761 463.431 259.801 462.87 259.805 462.307C259.829 459.653 260.643 457.102 260.601 454.458C260.598 453.9 260.772 453.347 260.749 452.77C260.587 448.679 259.408 447.951 256.099 449.998C253.595 451.546 250.854 452.624 248.384 454.209C247.34 454.973 246.075 455.359 244.784 455.307C243.493 455.255 242.247 454.767 241.238 453.92C238.447 451.86 235.348 450.335 232.403 448.546C231.614 448.064 230.803 447.478 229.848 448.098C228.892 448.719 229.093 449.798 229.092 450.862C229.155 455.115 230.071 459.257 230.499 463.479C230.623 464.167 230.563 464.873 230.326 465.522C230.089 466.171 229.684 466.738 229.153 467.163C226.736 469.293 224.559 471.687 222.14 473.841C221.284 474.543 220.548 475.387 219.962 476.338C218.763 478.413 219.1 479.352 221.436 479.994C223.308 480.505 225.244 481.109 227.136 480.977C229.962 480.782 232.289 482.214 234.83 482.965C235.175 483.085 235.486 483.293 235.734 483.568C235.983 483.843 236.16 484.177 236.251 484.54C238.237 489.211 240.512 493.747 242.41 498.459C243.224 500.454 244.662 500.582 245.822 498.723C247.314 496.307 248.48 493.76 249.866 491.342Z" fill="#F2A013"/>
<path d="M249.865 491.342C248.285 492.483 247.883 494.438 246.904 495.987C246.454 496.695 246.144 497.499 245.68 498.187C244.56 499.862 243.604 499.765 242.816 497.865C241.228 494.02 238.953 490.446 237.699 486.54C236.731 483.5 234.911 482.273 232.481 481.097C231.01 480.387 229.658 479.881 227.999 480.248C225.701 480.753 223.391 480.12 221.206 479.443C219.718 478.998 219.582 478.374 220.319 476.885C220.74 476.039 221.302 475.278 221.979 474.635C224.385 472.326 226.604 469.81 229.167 467.734C231.575 465.788 231.326 463.469 230.872 460.877C230.273 457.435 229.556 454.01 229.629 450.492C229.677 448.225 230.326 447.737 232.299 448.913C235.177 450.626 238.19 452.089 240.852 454.232C243.111 456.054 245.603 456.543 248.252 454.805C251.011 452.998 254.176 451.912 256.885 449.977C257.359 449.69 257.884 449.504 258.432 449.428C259.367 449.231 259.472 449.635 259.673 450.659C260.36 454.305 259.912 457.873 259.631 461.465C259.664 461.748 259.741 462.025 259.859 462.284C260.538 458.699 261.225 455.112 261.879 451.518C261.974 450.961 262.003 450.392 261.964 449.824C261.846 447.895 260.951 447.254 259.255 447.978C257.827 448.596 256.464 449.369 255.085 450.083C252.324 451.529 249.547 452.94 246.809 454.442C246.266 454.775 245.639 454.936 245.002 454.906C244.366 454.876 243.748 454.656 243.226 454.273C239.493 451.978 235.683 449.816 231.905 447.605C231.522 447.338 231.118 447.105 230.697 446.909C229.37 446.411 228.557 446.913 228.361 448.346C228.309 448.815 228.318 449.289 228.388 449.757C228.932 454.452 229.44 459.156 230.132 463.833C230.248 464.375 230.208 464.937 230.018 465.45C229.828 465.963 229.495 466.406 229.061 466.723C226.206 469.338 223.43 472.041 220.616 474.722C220.07 475.216 219.552 475.741 219.065 476.296C217.563 478.101 218.049 479.549 220.353 480.185C220.973 480.359 221.62 480.439 222.253 480.578C225.939 481.389 229.625 482.23 233.326 483.013C233.952 483.131 234.541 483.409 235.039 483.821C235.538 484.234 235.929 484.767 236.177 485.372C238.261 489.519 239.828 493.89 241.769 498.101C241.932 498.442 242.029 498.817 242.211 499.144C243.312 501.155 245.134 501.239 246.21 499.19C247.599 496.664 248.819 494.042 249.865 491.342Z" fill="#ECDE42"/>
<path d="M245.368 502.545C245.463 502.73 245.595 502.894 245.754 503.026C245.913 503.158 246.096 503.255 246.292 503.312C246.488 503.368 246.693 503.382 246.893 503.354C247.093 503.325 247.285 503.254 247.456 503.146C248.112 502.797 248.626 502.222 248.909 501.52C251.121 497.291 253.339 493.081 255.562 488.89C255.941 488.17 256.097 487.552 255.457 486.839C254.52 485.8 253.921 485.84 253.212 487.235C251.644 490.311 250.094 493.398 248.599 496.516C247.785 498.192 247.234 500.048 245.726 501.255C245.527 501.39 245.382 501.593 245.317 501.829C245.251 502.065 245.269 502.318 245.368 502.545Z" fill="#C6642D"/>
<path d="M255.693 485.277C256.543 486.908 257.93 487.018 259.155 486.764C263.032 486.136 266.942 485.714 270.868 485.499C271.506 485.43 272.136 485.297 272.747 485.102C273.249 484.962 274.011 484.963 274.004 484.28C273.994 483.447 273.279 483.016 272.562 482.766C272.292 482.713 272.014 482.739 271.759 482.84C266.713 484.291 261.486 484.485 256.302 484.973C256.085 485.043 255.88 485.145 255.693 485.277Z" fill="#B46B39"/>
<path d="M262.072 467.554C262.819 466.787 262.676 465.889 262.816 465.078C263.317 462.22 263.767 459.345 264.325 456.503C264.646 454.917 264.235 453.96 262.375 453.657C261.835 457.196 261.281 460.683 260.764 464.167C260.619 464.796 260.667 465.458 260.901 466.064C261.135 466.671 261.544 467.191 262.072 467.554Z" fill="#AA5C37"/>
<path d="M221.486 482.178C225.735 483.533 230.071 484.517 234.407 485.502C234.638 484.579 234.23 484.235 233.816 484.145C229.753 483.235 225.701 482.369 221.647 481.495L221.486 482.178Z" fill="#996855"/>
<path d="M77.0657 235.037C77.8091 234.218 78.4485 233.304 78.9689 232.318C81.4312 227.827 83.9734 223.377 86.4084 218.87C87.2731 217.266 88.2686 216.406 90.243 216.353C95.5407 216.219 100.863 215.763 106.162 215.415C107.361 215.342 108.614 215.324 109.111 213.878C109.608 212.432 108.975 211.552 108.117 210.553C105.133 207.168 102.178 203.751 99.1908 200.383C94.7701 195.451 95.3822 196.281 96.5398 190.333C97.3626 186.086 98.2178 181.845 99.0497 177.603C99.1849 177.064 99.2713 176.513 99.3078 175.956C99.3372 174.254 98.2991 173.234 96.6971 173.53C95.8003 173.716 94.9314 174.016 94.1104 174.423C89.9248 176.281 85.7129 178.099 81.5852 180.083C79.4496 181.118 77.7396 180.916 75.7615 179.449C71.9146 176.58 67.9338 174.023 63.9973 171.352C63.3886 170.918 62.7487 170.532 62.0835 170.199C60.3248 169.356 58.7097 170.262 58.5018 172.227C58.4163 173.358 58.5198 174.499 58.8078 175.601C58.6051 176.516 59.29 177.334 59.0873 178.249C59.7232 181.768 59.9983 185.332 60.521 188.882C60.7087 189.848 60.6251 190.845 60.2801 191.755C59.935 192.664 59.3429 193.449 58.5734 194.017C54.8066 197.216 51.1909 200.602 47.258 203.587C46.3028 204.317 45.3596 204.982 45.0636 206.301C44.8604 208.666 46.2927 209.678 48.2116 210.247C53.0631 211.687 57.8974 213.202 62.815 214.332C65.2152 214.878 66.3954 216.243 67.1504 218.492C68.9326 223.637 70.9279 228.7 73.1365 233.68C74.0876 235.866 75.0637 236.17 77.0657 235.037Z" fill="#F2A013"/>
<path d="M44.0631 208.62C43.8134 209.01 43.5992 209.423 43.4232 209.854C42.5964 212.361 43.3573 213.891 45.8204 214.553C50.274 215.741 54.6264 217.414 59.1823 218.093C62.6005 218.599 64.3992 220.407 65.4878 223.8C67.1282 228.82 69.2647 233.678 71.279 238.562C72.3023 241.035 74.3965 241.193 75.9103 238.991C76.3467 238.285 76.7408 237.552 77.0905 236.796C71.8591 234.264 71.7067 228.539 69.5224 224.112C68.3222 221.688 67.4978 219.081 66.4359 216.579C66.1982 215.964 65.812 215.42 65.3144 214.998C64.8167 214.576 64.2242 214.291 63.5938 214.17C58.5952 212.969 53.7019 211.297 48.6782 210.197C47.0771 209.838 45.8753 208.258 44.0631 208.62Z" fill="#D96B13"/>
<path d="M87.0914 221.217C92.9471 221.637 98.4839 220.664 104.072 220.393C106.274 220.285 107.257 218.885 107.76 216.775C106.385 216.133 105.007 216.524 103.688 216.576C99.5641 216.739 95.4345 217.044 91.3342 217.318C88.266 217.494 88.0863 217.67 87.0914 221.217Z" fill="#D66813"/>
<path d="M44.0624 208.62C46.9496 210.78 50.3725 211.112 53.6388 212.031C56.905 212.95 60.0195 213.817 63.2239 214.651C63.8067 214.769 64.3521 215.041 64.8065 215.44C65.2608 215.838 65.6084 216.35 65.815 216.925C67.8081 221.815 70.0759 226.597 71.8729 231.55C72.8755 234.304 74.3456 236.109 77.0898 236.796C77.8339 236.21 77.6267 235.63 77.0555 235.056C74.7759 235.273 74.5787 235.249 73.7066 233.127C71.7969 228.482 69.9913 223.8 68.1452 219.137C67.8325 218.341 67.5338 217.542 67.2635 216.734C66.67 214.93 65.4452 214.089 63.6508 213.611C58.4619 212.273 53.3231 210.732 48.1392 209.385C46.4136 208.935 45.3253 208.064 44.9855 206.268C44.6471 207.024 44.7731 207.997 44.0624 208.62Z" fill="#5D260F"/>
<path d="M58.2278 192.884C58.6745 192.713 59.0498 192.391 59.2934 191.97C59.537 191.549 59.635 191.054 59.5716 190.564C58.9546 185.086 58.3356 179.601 57.6847 173.81C56.6485 175.099 55.7828 176.151 56.0555 177.706C56.7937 181.976 56.8396 186.305 57.407 190.591C57.4129 191.426 57.7034 192.238 58.2278 192.884Z" fill="#A56837"/>
<path d="M59.0721 178.222C59.2064 177.789 59.251 177.331 59.2033 176.876C59.1555 176.422 59.0163 175.98 58.7946 175.581C58.6617 176.014 58.6177 176.472 58.6654 176.927C58.7132 177.381 58.8517 177.822 59.0721 178.222Z" fill="#A56837"/>
<path d="M348.322 116.504L338.263 133.218C337.443 134.573 336.567 135.888 335.772 137.252C335.376 137.987 334.786 138.59 334.068 138.993C333.351 139.396 332.534 139.583 331.712 139.532C325.026 139.635 318.338 139.896 311.65 140.125C310.653 140.117 309.66 140.224 308.69 140.445C308.246 140.559 307.832 140.768 307.473 141.058C307.115 141.347 306.82 141.711 306.607 142.126C306.395 142.542 306.269 143 306.238 143.471C306.208 143.942 306.272 144.416 306.429 144.864C306.789 145.841 307.324 146.743 308.006 147.521C312.342 153.217 316.633 158.942 321.068 164.555C321.691 165.256 322.113 166.12 322.283 167.048C322.454 167.977 322.367 168.931 322.032 169.802C319.86 176.978 317.813 184.197 315.632 191.368C314.924 193.7 315.179 195.63 317.146 197.195L318.29 197.664C320.116 198.032 321.997 197.648 323.526 196.594C324.728 195.873 326.13 195.736 327.39 195.196C328.137 194.691 328.95 194.295 329.806 194.019C332.963 193.092 336.037 191.902 338.998 190.461C342.18 189.048 344.874 188.677 348.139 191.236C353.566 195.486 359.426 199.127 365.038 203.191C366.78 204.44 368.545 204.839 370.479 203.844C372.412 202.849 372.422 200.94 372.33 199.185C371.944 191.933 371.347 184.692 370.533 177.465C370.216 174.764 370.67 172.833 372.788 171.078C377.531 167.142 382.088 162.975 386.823 159.01C388.598 157.531 390.929 156.292 390.403 153.224C389.93 150.621 388.203 149.455 385.861 148.869C379.149 147.207 372.463 145.419 365.736 143.839C364.785 143.687 363.894 143.25 363.173 142.585C362.453 141.92 361.935 141.054 361.684 140.097C359.506 133.611 357.234 127.223 354.993 120.787C354.774 120.162 354.569 119.534 354.321 118.917C352.937 115.504 351.679 115.011 348.322 116.504Z" fill="#F2A013"/>
<path d="M161.121 394.39C157.025 402.873 163.524 418.013 173.669 420.73C181.137 422.726 188.183 422.547 195.123 419.387C199.702 417.325 204.354 415.392 208.528 412.506C208.777 412.393 209.042 412.319 209.313 412.287C209.431 412.167 209.581 412.087 209.745 412.057C210.099 411.494 210.933 411.726 211.25 411.11C214.776 408.553 218.245 405.902 221.539 403.032C222.154 402.637 222.649 402.074 222.969 401.405C221.395 400.566 220.296 401.604 219.262 402.436C212.237 408.296 204.443 413.116 196.1 416.759C191.231 418.901 186.195 420.689 180.68 420.206C172.329 419.472 166.251 415.379 162.808 407.331C162.203 405.927 161.835 404.43 161.722 402.906C161.269 396.594 161.876 395.543 167.756 394.049C179.984 390.939 191.66 386.335 203.073 381.009C207.113 379.229 210.873 376.856 214.237 373.963C212.988 375.17 211.181 375.964 211.676 378.261C212.652 379.03 213.395 378.303 214.115 377.771C215.793 376.495 217.564 375.354 219.416 374.359C222.693 372.659 226.115 373.566 227.931 376.914C231.57 383.639 229.686 388.127 222.978 390.97C221.612 391.539 220.089 391.38 218.78 392.098C218.561 394.216 220.183 393.938 221.291 393.976C223.397 394.068 225.095 392.8 226.898 391.912C227.609 391.565 228.148 390.926 229.241 390.472C227.795 393.656 225.72 395.896 223.878 398.315C223.225 399.174 221.952 399.938 222.923 401.402C224.606 400.547 225.539 398.917 226.723 397.555C227.906 396.194 228.893 394.864 229.969 393.5C234.384 387.016 234.696 380.957 230.896 374.915C229.54 372.779 227.492 371.473 225.533 370.049C224.008 369.496 222.483 368.754 220.931 369.942C216.244 370.545 212.361 372.862 208.681 375.714C205 378.566 200.853 380.067 196.79 381.929C190.031 384.959 183.102 387.584 176.037 389.791C171.123 391.387 166.007 392.558 161.121 394.39Z" fill="#6C382C"/>
<path d="M225.139 370.576C225.559 370.939 226.001 371.274 226.462 371.579C232.296 374.904 234.541 383.742 231.583 389.986C231.03 391.149 230.173 392.175 229.997 393.516C230.888 393.158 231.693 391.532 232.728 393.387C234.679 387.581 234.739 381.796 232.304 376.029C231.59 374.473 230.518 373.116 229.184 372.074C228.485 371.481 227.549 371.103 227.326 370.054C226.963 369.827 226.53 369.754 226.121 369.851C225.712 369.949 225.359 370.209 225.139 370.576Z" fill="#130607"/>
<path d="M211.244 411.088C210.934 411.1 210.633 411.194 210.37 411.359C210.106 411.525 209.889 411.757 209.739 412.035C210.056 412.052 210.369 411.971 210.637 411.802C210.906 411.633 211.117 411.385 211.244 411.088Z" fill="#422012"/>
<path d="M111.348 131.87C108.309 131.14 105.617 130.447 102.934 129.925C101.384 129.666 99.9642 128.852 98.926 127.628C96.9445 125.382 94.8703 123.241 92.6348 120.821C91.9626 123.884 91.2697 126.653 90.8337 129.469C90.5753 131.344 89.6404 133.038 88.2141 134.217C86.2031 135.974 84.3127 137.863 82.1091 139.941C85.3904 140.778 88.3481 141.602 91.3449 142.265C92.4267 142.452 93.4217 143.008 94.1695 143.843C96.2967 146.23 98.525 148.541 100.817 151.055C101.499 149.946 101.856 148.655 101.847 147.333C102.238 142.3 104.071 138.149 108.139 135.158C109.291 134.15 110.364 133.051 111.348 131.87Z" fill="#FEFEFC"/>
<path d="M225.139 370.576C225.847 370.379 226.676 370.621 227.284 370.066C229.51 366.807 230.742 363.1 231.674 359.271C231.928 357.774 231.381 356.989 229.844 357.023C229.445 357.143 229.087 357.373 228.81 357.688C228.369 358.338 227.836 358.914 227.227 359.397C225.234 362.205 222.357 363.999 219.846 366.178C219.385 366.618 218.96 367.094 218.574 367.604L218.531 367.616C218.283 368.26 217.423 367.987 217.149 368.591L217.113 368.601C217.368 369.515 217.808 370.086 218.851 369.835C219.559 369.639 220.25 369.383 220.919 369.898L225.139 370.576Z" fill="#100503"/>
<path d="M282.033 170.182C276.468 169.737 272.429 167.63 269.701 162.645C269.087 164.266 268.715 165.976 268.597 167.719C268.388 169.513 267.516 171.144 266.161 172.274C265.056 173.235 264.03 174.285 262.868 175.396C264.188 176.361 265.601 176.48 266.921 176.68C267.925 176.806 268.896 177.14 269.778 177.662C270.659 178.183 271.431 178.881 272.048 179.713C272.855 180.749 273.818 181.663 274.955 182.899C275.365 181.372 275.697 179.823 275.95 178.257C276.138 176.562 276.952 175.016 278.223 173.937C279.361 172.904 280.42 171.782 282.033 170.182Z" fill="#FCFDFD"/>
<path d="M86.3552 355.544C86.0359 356.63 85.8158 357.747 85.6977 358.878C85.7248 361.715 84.2043 363.565 82.2528 365.234C81.5209 365.863 80.5886 366.375 80.2157 367.692C85.0636 367.667 88.7133 369.937 91.5232 374.175C92.0214 369.309 93.4125 365.132 98.2778 362.84C95.676 361.46 93.1259 361.91 91.2946 360.505C89.4632 359.099 88.1165 357.355 86.3552 355.544Z" fill="#FDFEFC"/>
<path d="M183.112 264.63C181.28 262.728 179.658 260.706 178.862 258.067C178.124 255.577 178.48 253.075 178.643 250.319C177.434 251.042 177.582 251.985 177.559 252.725C177.423 254.701 177.43 256.7 177.358 258.659C177.398 259.793 177.093 260.907 176.487 261.844C175.88 262.78 175.001 263.495 173.973 263.887C170.002 265.693 165.844 265.872 161.639 265.742C160.67 265.681 159.72 265.418 158.848 264.966C157.975 264.515 157.198 263.887 156.565 263.119C155.42 261.878 154.376 260.542 153.443 259.127C152.488 257.449 151.275 255.94 149.852 254.657C149.468 255.552 150.155 255.912 150.469 256.384C151.683 257.948 152.611 259.722 153.206 261.619C153.994 264.78 153.591 265.743 150.614 267.068C149.927 267.173 148.952 266.9 149.171 268.21C150.174 268.719 151.184 269.171 152.168 269.693C152.663 269.949 153.203 270.097 153.754 270.128C154.304 270.159 154.853 270.073 155.366 269.875C163.898 267.123 172.708 265.996 181.636 265.679C182.415 265.714 183.352 265.958 183.112 264.63Z" fill="#270B05"/>
<path d="M195.47 296.751C195.619 297.285 195.769 297.826 195.882 298.37C196.125 298.55 196.419 298.641 196.716 298.626C198.119 298.465 199.408 297.728 200.852 297.767C203.19 297.675 205.533 297.712 207.871 297.879C209.47 298.733 210.997 299.723 212.437 300.84C213.277 301.394 215.027 302.972 215.217 300.066C214.029 297.245 211.291 296.912 209.018 295.834C207.81 295.383 207.873 294.459 208.053 293.463C208.345 290.813 208.444 288.185 207.528 285.604C206.831 284.222 207.032 282.59 206.148 281.3C205.713 280.009 205.138 278.77 204.435 277.608C203.781 277.23 204.07 275.669 202.826 276.125C201.761 276.516 202.249 277.531 202.293 278.322C202.434 279.248 202.503 280.182 202.499 281.117C203.069 287.081 200.764 291.701 196.403 295.365C196.163 295.517 195.956 295.718 195.796 295.957C195.636 296.195 195.525 296.465 195.47 296.751Z" fill="#130607"/>
<path d="M206.1 281.321C206.337 282.831 206.577 284.34 206.818 285.848C208.701 291.628 212.427 296.202 215.945 300.928C217.694 302.695 218.857 305.121 221.37 306.021C222.299 306.921 223.353 307.668 224.065 308.801C228.678 312.781 233.41 316.587 238.741 319.532C247.703 324.559 257.575 327.573 267.692 328.37C267.984 328.451 268.291 328.451 268.58 328.371C268.87 328.29 269.132 328.132 269.34 327.912C268.799 326.896 267.763 327.2 267 327.113C262.147 326.624 257.345 325.643 252.664 324.184C241.505 320.63 231.317 314.328 222.994 305.829C216.239 299.012 210.739 290.997 206.767 282.183C206.578 281.87 206.354 281.581 206.1 281.321Z" fill="#170805"/>
<path d="M194.232 272.22C188.403 270.69 183.657 273.137 179.143 276.363C178.2 277.122 177.568 278.218 177.37 279.441C176.674 282.088 176.665 284.888 177.344 287.564C178.259 290.855 179.047 294.181 181.254 296.908C183.081 299.504 185.758 298.878 188.027 298.459C192.46 297.628 196.526 295.835 199.452 292.05C202.677 287.891 202.864 281.796 199.836 277.761C198.704 275.145 197.137 272.965 194.232 272.22Z" fill="#100503"/>
<path d="M199.827 277.755C200.561 280.395 201.42 282.962 200.985 285.809C200.742 287.683 200.087 289.468 199.069 291.03C198.051 292.591 196.696 293.887 195.108 294.819C192.095 296.673 188.732 297.57 185.316 298.331C183.622 298.708 182.557 297.562 181.267 296.897C181.502 297.626 181.983 298.248 182.623 298.649C183.262 299.05 184.016 299.203 184.747 299.08C185.362 299.043 186.162 298.687 186.336 299.615C186.511 300.544 185.594 300.507 185.069 300.811C182.688 302.198 179.987 302.816 177.538 304.041C176.969 304.325 176.312 304.429 176.091 305.168C182.314 302.958 188.377 300.313 194.238 297.251C194.638 297.046 195.076 296.924 195.496 296.76C199.875 293.816 203.071 290.074 203.327 284.338C203.365 283.405 203.317 282.465 203.308 281.53C203.281 279.568 202.275 277.815 202.092 275.872C202.082 275.732 202.042 275.596 201.973 275.473C201.904 275.35 201.81 275.245 201.696 275.165C201.583 275.085 201.454 275.032 201.319 275.011C201.183 274.989 201.046 275 200.916 275.041C201.085 275.648 201.254 276.255 201.352 276.882C201.603 278.333 201.589 278.337 199.827 277.755Z" fill="#6C382C"/>
<path d="M200.891 275.033C202.581 276.863 202.381 279.401 203.283 281.522C203.975 279.871 202.451 278.365 202.832 276.722C203.695 276.482 203.746 277.571 204.387 277.629C202.518 272.634 201.091 267.562 199.567 262.495C199.474 262.158 199.328 261.773 198.434 261.817C198.885 265.166 200.144 268.267 200.953 271.997C198.57 269.95 196.584 268.21 194.133 267.095C190.598 265.486 186.888 264.998 183.137 264.583C182.9 265.319 182.213 265.424 181.64 265.693C183.149 266.243 184.734 266.022 186.275 266.248C190.688 266.903 195.064 267.703 198.194 271.504C199.129 272.671 199.981 273.899 200.901 275.069L200.891 275.033Z" fill="#170805"/>
<path d="M149.169 268.227C149.385 267.497 150.105 267.43 150.613 267.092C147.187 266.391 143.778 265.534 140.323 265.03C135.201 264.278 130.003 264.588 125.036 265.942C124.387 265.992 123.787 266.301 123.362 266.802C123.844 267.85 124.639 267.282 125.242 267.122C128.373 266.414 131.568 266.018 134.784 265.941C139.73 265.668 144.465 266.77 149.169 268.227Z" fill="#170805"/>
<path d="M303.829 282.301C308.279 277.533 305.276 259.395 300.672 256.161C301.258 259.252 302.956 261.632 303.614 264.38C304.387 267.296 304.811 270.293 304.877 273.303C304.75 276.329 304.399 279.337 303.829 282.301Z" fill="#130607"/>
<path d="M108.779 299.224C108.866 296.608 107.355 295.066 107.002 293.14C106.593 291.095 106.472 289.006 106.641 286.937C106.822 285.042 107.327 283.184 107.768 280.879C104.185 285.012 104.716 294.209 108.779 299.224Z" fill="#130607"/>
<path d="M158.098 285.173C156.064 288.82 157.455 296.753 160.713 300.464C160.775 297.618 159.402 295.423 158.838 293.067C158.274 290.71 158.382 288.056 158.098 285.173Z" fill="#100503"/>
<path d="M176.881 179.415C171.904 181.714 167.15 183.446 161.699 183.442C161.869 183.909 162.203 184.295 162.634 184.524C163.065 184.754 163.562 184.808 164.025 184.678C168.457 183.981 172.832 183.079 176.625 180.44C176.733 180.362 176.715 180.107 176.881 179.415Z" fill="#170805"/>
<path d="M194.232 272.22C196.686 273.452 198.324 275.558 199.841 277.751C198.858 274.164 197.231 272.56 194.232 272.22Z" fill="#6C382C"/>
<path d="M200.901 275.069C200.72 274.315 200.385 273.606 199.918 272.991C199.451 272.376 198.863 271.869 198.194 271.504C198.358 272.265 198.687 272.981 199.156 273.598C199.625 274.216 200.221 274.718 200.901 275.069Z" fill="#6C382C"/>
<path d="M221.377 306.043L216.661 300.681C215.939 300.827 215.518 299.478 214.67 300.211C214.611 300.574 214.861 301.308 214.087 300.853C212.984 300.231 211.944 299.48 210.831 298.875C209.92 298.341 208.969 297.66 207.837 297.865C208.327 298.721 209.259 298.95 209.976 299.499C210.354 299.788 210.671 300.134 210.494 300.648C210.426 300.815 210.31 300.957 210.162 301.054C210.014 301.152 209.84 301.2 209.662 301.194C209.138 301.253 208.617 301.382 208.096 301.48C208.21 302.276 208.825 302.538 209.442 302.729C214.23 304.217 216.074 308.298 217.071 312.646C218.322 318.129 216.314 322.556 211.784 325.668C210.248 326.825 208.515 327.678 206.669 328.186C205.891 328.403 205.05 328.558 204.633 329.414C205.263 330.09 205.983 329.827 206.676 329.634C207.638 329.366 208.6 329.099 209.562 328.831C210.078 328.687 210.665 328.469 211.072 329.026C211.478 329.582 211.07 330.058 210.71 330.466C210.351 330.873 209.899 331.219 209.825 331.831L210.919 331.463C211.134 331.552 211.366 331.585 211.594 331.56C211.822 331.535 212.04 331.452 212.228 331.32C219.796 326.331 223.765 315.669 219.124 307.481C219.594 307.855 219.439 308.969 220.467 308.802C220.313 307.726 219.59 306.414 221.377 306.043Z" fill="#6C382C"/>
<path d="M204.613 329.42C206.948 329.167 209.194 328.395 211.195 327.158C213.197 325.921 214.907 324.248 216.208 322.255C218.697 318.655 218.607 314.685 217.399 310.617C217.069 309.627 216.65 308.67 216.146 307.758C214.432 304.335 211.827 302.097 208.071 301.471C205.42 301.421 203.087 302.377 200.862 303.721C197.827 305.551 196.222 308.164 196.921 311.909C197.843 316.837 199.111 321.669 201.7 326.047C202.45 327.353 203.44 328.499 204.613 329.42Z" fill="#100503"/>
<path d="M196.396 298.243C196.231 298.305 196.061 298.352 195.887 298.384C189.788 300.869 183.698 303.391 177.582 305.841C174.19 307.21 170.807 308.639 167.327 309.773C160.754 311.925 153.905 312.538 147.024 312.869C146.204 312.908 145.384 313.002 144.565 313.072C145.057 313.66 145.747 313.594 146.362 313.557C149.642 313.377 152.923 313.197 156.189 312.911C160.37 312.424 164.48 311.473 168.448 310.076C171.297 309.165 174.052 307.918 176.836 306.805C180.644 305.288 184.458 303.794 188.254 302.234C190.86 301.138 193.525 300.191 196.238 299.398C199.469 298.387 202.86 297.978 206.251 298.188C206.801 298.245 207.354 298.152 207.852 297.916C205.528 296.987 203.152 297.459 200.79 297.517C199.249 297.292 197.946 298.497 196.396 298.243Z" fill="#6C382C"/>
<path d="M119.61 327.776C118.204 331.46 118.624 335.189 119.668 338.94C120.52 342.005 121.712 344.864 124.321 346.873C123.412 343.604 121.304 340.904 120.513 337.594C119.722 334.285 119.915 331.063 119.61 327.776Z" fill="#130607"/>
<path d="M185.022 337.628C184.362 334.187 182.468 331.791 181.611 329.012C180.731 326.109 180.155 323.123 179.896 320.105C177.863 323.262 181.063 333.971 185.022 337.628Z" fill="#170805"/>
<path d="M220.019 366.666C222.665 364.425 225.494 362.401 227.811 359.771C228.226 359.237 228.734 358.789 229.136 358.236L229.558 357.559C232.508 355.013 232.495 351.431 232.227 347.976C231.558 340.283 227.893 334.069 219.109 331.864C217.182 331.841 215.033 330.91 213.563 332.966C212.098 333.373 210.65 333.839 209.197 334.314C208.064 334.612 207.053 335.262 206.301 336.176C207.809 335.858 209.264 335.326 210.624 334.595C212.655 333.455 215.027 333.709 217.256 333.42C217.394 333.407 217.533 333.424 217.665 333.469C217.797 333.515 217.919 333.589 218.023 333.685C218.127 333.782 218.21 333.899 218.267 334.03C218.325 334.161 218.355 334.302 218.357 334.445C218.367 334.684 218.288 334.916 218.136 335.094C217.985 335.272 217.772 335.383 217.541 335.405C215.34 335.966 213.269 336.951 211.436 338.309C210.551 338.933 209.541 339.466 209.489 340.789C211.815 340.929 213.235 339.022 214.946 337.994C220.178 334.884 225.825 337.702 228.171 343.423C231.089 350.57 227.363 357.697 220.071 359.292C218.095 359.724 216.384 358.285 214.469 358.605C215.585 361.194 217.759 361.007 219.876 360.781C221.747 360.575 223.343 359.548 224.909 358.655C225.389 358.38 225.893 357.893 226.356 358.379C227.005 358.986 226.383 359.624 226.074 360.104C224.514 362.358 222.065 363.583 220.112 365.411C219.504 365.966 218.696 366.293 218.55 367.248C218.825 367.287 219.104 367.254 219.361 367.153C219.617 367.051 219.844 366.883 220.019 366.666Z" fill="#6C382C"/>
<path d="M214.434 358.615C217.447 361.007 220.369 360.36 223.396 358.667C227.673 356.287 230.35 352.95 229.937 347.66C229.732 344.124 228.183 340.79 225.625 338.38C224.297 337.105 222.633 336.266 220.85 335.973C219.067 335.681 217.249 335.947 215.635 336.739C213.388 337.777 211.308 339.152 209.461 340.82C208.337 344.285 208.903 347.665 210.208 351.013C211.266 353.733 212.689 356.292 214.434 358.615Z" fill="#170805"/>
<path d="M141.376 368.728C140.515 369.275 140.851 370.127 140.934 370.782C141.488 375.513 142.647 380.036 145.789 383.795C146.067 384.164 146.39 384.495 146.749 384.781C146.868 384.844 147 384.873 147.132 384.865C147.264 384.858 147.391 384.814 147.499 384.738C147.579 384.634 147.632 384.511 147.654 384.379C147.676 384.248 147.666 384.113 147.625 383.986C147.409 383.569 147.136 383.186 146.814 382.848C143.773 379.479 142.68 375.331 142.162 370.976C142.056 370.186 142.201 369.31 141.376 368.728Z" fill="#130607"/>
<path d="M198.59 368.397C198.836 368.146 198.98 367.809 198.996 367.451C199.012 367.093 198.898 366.739 198.676 366.458C196.89 363.464 195.194 360.438 194.768 356.877C194.72 356.488 194.55 356.094 194.113 356.113C193.483 356.123 193.434 356.712 193.5 357.143C194.151 361.291 195.914 365.19 198.59 368.397Z" fill="#100503"/>
<path d="M220.02 366.666L218.515 367.258C218.525 367.388 218.56 367.515 218.619 367.631C218.923 367.64 219.221 367.553 219.472 367.38C219.723 367.207 219.914 366.958 220.02 366.666Z" fill="#661007"/>
<path d="M217.178 368.615C217.485 368.642 217.79 368.56 218.042 368.383C218.293 368.205 218.477 367.942 218.56 367.639C218.26 367.643 217.969 367.737 217.723 367.91C217.477 368.084 217.287 368.329 217.178 368.615Z" fill="#661007"/>
<path d="M213.556 332.968C215.409 332.452 217.28 332.657 219.186 332.631C220.207 332.685 221.311 332.898 221.547 331.391C223.385 326.699 223.906 321.549 223.05 316.522C222.647 313.758 221.146 311.433 220.461 308.804C219.251 307.879 219.449 305.933 217.856 305.139C218.708 307.818 219.999 310.24 220.17 313.045C220.511 318.599 219.21 323.484 215.323 327.402C213.913 328.826 212.382 330.119 210.913 331.465C211.023 333.397 212.649 332.448 213.556 332.968Z" fill="#170805"/>
<path d="M221.504 331.403C220.914 332.213 220.011 332.393 219.143 332.642C230.088 334.152 234.218 348.147 230.01 356.007C229.746 356.482 229.393 356.967 229.544 357.563C230.913 357.253 231.354 358.178 231.68 359.269C233.68 353.387 233.491 346.915 231.149 341.09C229.827 337.707 227.307 334.95 224.105 333.382C223.143 332.885 221.963 332.614 221.504 331.403Z" fill="#170805"/>
<path d="M222.925 401.409C223 400.033 224.129 399.38 224.862 398.507C226.812 396.065 228.809 393.658 230.166 390.782C230.431 390.228 230.947 389.699 230.475 388.987C229.609 388.613 229.04 389.307 228.569 389.753C227.062 391.158 225.208 391.918 223.416 392.763C221.838 393.501 220.123 393.884 218.624 392.331C218.252 390.173 216.046 389.503 215.106 387.739C213.908 385.488 212.496 383.399 212.632 380.682C212.675 380.305 212.636 379.922 212.518 379.56C212.4 379.198 212.206 378.865 211.95 378.587C211.975 377.827 212.234 377.099 212.691 376.509C213.147 375.919 213.777 375.497 214.489 375.304C214.669 375.259 214.838 375.18 214.988 375.07C215.725 374.432 217.041 373.822 216.337 372.686C215.525 371.383 214.496 372.536 213.815 373.128C210.62 375.909 207.044 378.197 203.197 379.919C198.534 382.004 193.878 384.087 189.152 386.032C180.84 389.495 172.201 391.835 163.563 394.207C162.94 394.33 162.374 394.65 161.943 395.123C161.511 395.596 161.237 396.199 161.157 396.846C159.9 402.656 161.236 407.761 164.653 412.617C168.627 418.272 174.149 420.479 180.503 421.185C186.192 421.824 191.324 419.837 196.399 417.724C202.435 415.102 208.193 411.863 213.587 408.057C215.555 406.722 217.351 405.15 219.229 403.682C220.38 402.779 221.428 401.699 222.943 401.42L222.925 401.409Z" fill="#6C382C"/>
<path d="M211.941 378.558C211.186 383.432 213.244 387.241 216.468 390.583C217.149 391.2 217.866 391.775 218.615 392.302C223.12 393.042 226.489 390.797 229.159 387.627C232.632 383.509 229.393 375.184 225.768 373.521C224.687 372.969 223.497 372.695 222.3 372.722C221.102 372.749 219.935 373.076 218.898 373.675C216.368 374.965 214.027 376.607 211.941 378.558Z" fill="#100503"/>
<path d="M229.137 358.236C228.794 358.331 228.487 358.527 228.252 358.799C228.016 359.071 227.864 359.408 227.811 359.771C228.165 359.697 228.485 359.509 228.723 359.232C228.962 358.956 229.107 358.607 229.137 358.236Z" fill="#5A0F08"/>
<path d="M214.671 300.211C214.98 300.416 215.304 300.594 215.602 300.818C216.018 301.136 216.407 301.382 216.669 300.679C213.108 295.934 210.06 290.841 206.832 285.868C207.608 288.521 207.287 291.202 207.179 293.88C207.159 295.044 207.274 296.139 208.573 296.644C210.617 297.746 213.048 298.267 214.671 300.211Z" fill="#6C382C"/>
<path d="M196.396 298.243C197.965 298.594 199.356 297.924 200.769 297.523C199.203 297.044 197.821 297.775 196.396 298.243Z" fill="#6A0F06"/>
<path d="M208.557 296.617C207.87 295.831 207.39 294.878 207.163 293.853C206.875 296.131 206.905 296.186 208.557 296.617Z" fill="#CB5B28"/>
<path d="M188.69 296.211C191.618 295.396 194.439 294.414 196.704 292.145C201.643 287.131 201.049 279.819 195.91 274.827C194.034 272.985 191.627 272.607 189.19 273.08C186.402 273.618 183.746 274.694 181.361 276.251C180.369 276.838 179.544 277.68 178.966 278.696C178.388 279.712 178.076 280.868 178.06 282.054C177.87 286.416 178.966 290.758 181.205 294.511C182.961 297.481 183.592 297.613 186.872 296.717L188.69 296.211Z" fill="#6C382C"/>
<path d="M199.289 316.86C200.107 320.091 201.382 323.188 203.073 326.051C204.449 328.449 205.057 328.69 207.552 327.633C209.839 326.688 211.948 325.35 213.791 323.676C217.474 320.287 217.836 315.096 215.983 310.104C214.804 306.91 212.804 304.323 209.444 303.256C208.532 302.925 207.568 302.79 206.61 302.86C205.652 302.929 204.722 303.203 203.879 303.662C197.855 306.858 197.118 308.482 198.855 315.303C198.978 315.797 199.144 316.341 199.289 316.86Z" fill="#6C382C"/>
<path d="M211.066 348.671C211.663 351.554 212.869 354.277 214.596 356.648C216.418 359.087 218.167 359.594 220.896 358.472C221.322 358.306 221.702 358.027 222.136 357.891C228.908 355.739 230.307 347.675 227.144 342.606C226.039 340.826 225.051 339.028 223.154 337.988C222.318 337.469 221.382 337.147 220.417 337.046C219.451 336.945 218.479 337.068 217.573 337.405C215.541 338.241 213.592 339.271 211.752 340.482C211.029 340.895 210.465 341.548 210.151 342.337C209.837 343.126 209.791 344.004 210.021 344.833C210.277 346.109 210.71 347.391 211.066 348.671Z" fill="#6C382C"/>
<path d="M196.478 391.298C197.008 396.438 199.857 400.184 203.638 403.339C203.032 400.994 201.159 399.467 199.901 397.548C198.643 395.628 198.108 393.13 196.478 391.298Z" fill="#100503"/>
<path d="M213.852 383.589C214.284 386.038 215.527 388.272 217.37 389.906C217.945 390.533 218.689 390.968 219.503 391.154C220.317 391.339 221.163 391.267 221.927 390.947C223.95 390.098 225.879 389.033 227.682 387.77C228.179 387.428 228.591 386.97 228.884 386.434C229.178 385.897 229.345 385.295 229.374 384.676C229.698 381.347 229.011 378.276 226.687 375.755C225.934 374.827 224.903 374.184 223.761 373.929C222.619 373.674 221.433 373.824 220.398 374.353C218.26 375.406 216.242 376.694 214.378 378.195C213.87 378.521 213.483 379.013 213.279 379.594C213.076 380.175 213.066 380.813 213.252 381.408C213.479 382.251 213.703 383.055 213.852 383.589Z" fill="#6C382C"/>
</svg>
