<svg width="1728" height="952" viewBox="0 0 1728 952" fill="none" xmlns="http://www.w3.org/2000/svg">
<g clip-path="url(#clip0_447_307)">
<rect width="1728" height="952" fill="#286744"/>
<path opacity="0.25" d="M1116.07 180.921C979.767 372.324 864.95 532.236 862.432 535.508C856.608 540.688 459.829 258.028 462.363 250.203C465.431 240.25 935.865 -502.192 938.368 -500.911C941.926 -499.329 1324 -200.91 1349.66 -179.366C1362.82 -168.785 1348.23 -146.728 1116.07 180.921Z" fill="#9FE870"/>
<path opacity="0.25" d="M1289.44 345.331C1280.29 356.973 1169.05 513.913 1041.77 691.929C914.879 870.627 807.224 1020.04 803.384 1024.08C797.827 1028.19 726.201 980.469 600.091 888.758C422.379 759.577 405.534 745.67 410.728 731.764C415.921 717.858 587.065 446.347 593.015 442.912C594.337 442.149 655.684 485.809 728.743 539.068C802.196 593.009 866.439 638.633 870.658 639.833C875.27 641.715 944.995 548.74 1026.27 434.553C1107.55 320.365 1177.27 227.39 1181.49 228.59C1187.82 230.391 1300.75 316.074 1303.9 321.528C1304.69 322.891 1297.53 333.389 1289.44 345.331Z" fill="#9FE870"/>
</g>
<defs>
<clipPath id="clip0_447_307">
<rect width="1728" height="952" fill="white"/>
</clipPath>
</defs>
</svg>
