<svg width="1728" height="952" viewBox="0 0 1728 952" fill="none" xmlns="http://www.w3.org/2000/svg">
<g clip-path="url(#clip0_447_517)">
<rect width="1728" height="952" fill="#9FE870"/>
<path opacity="0.15" d="M734.056 296.79C997.489 395.048 1217.87 478.229 1222.43 480.126C1230.22 485.253 1026.41 1031.38 1016.58 1030.88C1004.13 1030.41 0.328678 716.621 1.035 713.331C1.76148 708.73 228.344 174.709 245.297 138.38C253.451 119.892 283.463 129.924 734.056 296.79Z" fill="#2E8B57"/>
<path opacity="0.15" d="M870.388 45.4933C886.676 52.4569 1102.52 132.428 1347.68 224.409C1593.52 315.724 1799.55 393.878 1805.4 397.067C1811.88 402.214 1778.9 499.779 1711.96 673.937C1617.69 919.342 1606.83 943.117 1589.15 941.422C1571.47 939.726 1204.66 826.005 1198.85 820.192C1197.56 818.9 1229.02 734.475 1267.95 633.54C1307.55 531.939 1340.38 443.557 1340.46 438.31C1341.21 432.396 1212.16 380.603 1055.01 322.027C897.863 263.452 768.81 211.659 768.891 206.411C769.012 198.54 833.069 41.4759 838.397 36.1477C839.729 34.8156 854.08 39.8416 870.388 45.4933Z" fill="#2E8B57"/>
</g>
<defs>
<clipPath id="clip0_447_517">
<rect width="1728" height="952" fill="white"/>
</clipPath>
</defs>
</svg>
