<svg width="803" height="853" viewBox="0 0 803 853" fill="none" xmlns="http://www.w3.org/2000/svg">
<path opacity="0.15" d="M101.497 -43.6071C117.785 -36.6434 333.626 43.3277 578.793 135.309C824.626 226.623 1030.66 304.778 1036.51 307.967C1042.99 313.114 1010.01 410.678 943.07 584.837C848.801 830.242 837.943 854.017 820.262 852.321C802.582 850.625 435.77 736.904 429.957 731.091C428.666 729.8 460.129 645.374 499.06 544.439C538.656 442.838 571.492 354.457 571.573 349.209C572.319 343.296 443.267 291.503 286.119 232.927C128.972 174.352 -0.0804756 122.558 0.000100881 117.311C0.120987 109.439 64.1783 -47.6244 69.5065 -52.9526C70.8386 -54.2847 85.189 -49.2587 101.497 -43.6071Z" fill="#2E8B57"/>
</svg>
