<svg width="297" height="589" viewBox="0 0 297 589" fill="none" xmlns="http://www.w3.org/2000/svg">
<path d="M47.149 436.107C42.3648 435.559 37.5831 435.002 32.7917 434.48C24.2705 433.556 15.813 432.25 7.41907 430.563C-9.9752 427.174 -26.6329 420.76 -41.8435 411.594C-49.1266 407.049 -56.7212 403.045 -64.5707 399.611C-75.542 394.964 -86.7924 391.485 -98.7049 390.058C-112.135 388.444 -125.668 388.217 -139.137 387.168C-142.343 386.917 -142.611 386.305 -142.984 383.418C-144.524 371.23 -144.943 358.899 -144.236 346.59C-142.923 323.018 -138.486 299.685 -131.048 277.242C-126.49 263.06 -120.429 249.415 -112.976 236.554C-112.599 235.998 -112.255 235.419 -111.946 234.821C-111.214 233.139 -110.045 233.039 -108.43 233.366C-97.5459 235.502 -86.5342 236.953 -75.456 237.709C-66.4727 238.41 -57.4177 237.858 -48.5366 236.066C-42.2433 234.748 -36.2319 232.21 -30.8251 228.589C-21.1695 222.077 -12.1393 214.62 -3.8632 206.326C-0.104394 202.655 3.67147 198.922 7.51487 195.341C15.2676 187.954 23.9341 181.658 33.2808 176.623C51.8413 166.749 65.8574 151.989 76.8638 133.976C81.3418 126.637 85.2758 118.958 90.5083 112.121C91.2899 111.009 91.8816 109.769 92.2577 108.457C95.0475 100.168 97.8688 91.8962 100.676 83.6113C101.635 80.9436 102.74 78.3312 103.984 75.7866C107.534 68.1424 113.594 65.6776 121.305 67.7096C125.392 68.6922 129.172 70.6773 132.325 73.497C135.478 76.3167 137.912 79.8881 139.419 83.9091C142.324 91.3582 143.582 99.4039 143.103 107.471C142.436 120.493 140.039 133.146 134.954 145.222C132.009 152.478 128.385 159.432 124.132 165.984C117.741 175.574 111.319 185.145 105.003 194.793C100.567 201.485 97.0316 208.754 94.4942 216.397C92.9975 220.99 92.7973 219.84 96.664 221.718C109.379 227.869 122.73 232.196 136.286 236.014C145.197 238.424 153.921 241.481 162.393 245.164C171.151 249.073 179.467 253.754 186.339 260.769C192.204 266.778 196.884 273.637 197.536 282.346C198.335 293.021 195.977 302.874 187.297 310.166C185.015 312.001 182.435 313.396 179.681 314.284C177.288 315.146 174.883 315.986 172.486 316.829C172.627 318.123 173.647 318.492 174.351 319.112C181.761 325.636 184.721 333.855 183.086 343.9C182.545 347.949 181.467 351.912 179.882 355.678C175.757 364.766 168.722 369.554 159.316 371.022C157.463 371.318 155.598 371.497 153.529 371.751C154.713 374.053 156.237 376.184 156.637 378.748C158.31 389.43 156.516 399.355 149.093 407.573C144.279 412.903 138.03 415.391 130.976 415.457C130.192 415.588 130.163 415.099 130.251 414.52C130.929 413.463 132.032 413.27 133.108 413.041C148.557 409.792 152.361 401.662 154.686 388.78C155.776 382.763 153.952 377.709 151.186 372.76C150.992 372.251 150.978 371.684 151.148 371.16C151.317 370.635 151.659 370.184 152.113 369.886C154.455 368.651 157.061 368.829 159.537 368.489C172.229 366.785 178.698 355.603 180.466 345.935C182.514 334.769 179.653 325.898 170.69 319.282C169.826 318.771 169.181 317.947 168.879 316.967C168.863 316.691 168.902 316.415 168.992 316.153C169.082 315.891 169.222 315.65 169.404 315.443C172.533 313.672 176.06 313.097 179.361 311.827C189.375 308.009 193.512 299.962 195.067 289.942C196.47 280.899 193.329 273.232 187.968 266.458C181.133 257.802 172.167 252.015 162.226 247.863C151.326 243.188 140.101 239.331 128.636 236.32C117.945 233.619 107.865 229.277 97.7089 225.112C94.0074 223.592 93.7785 223.66 92.6523 227.479C92.301 229.147 91.7952 230.778 91.1417 232.351C91.0254 232.672 90.8076 232.944 90.524 233.124C90.2403 233.303 89.9075 233.38 89.5797 233.341C89.0377 233.19 88.8281 232.566 88.7189 232.007C88.3363 229.939 88.9292 227.972 89.3841 225.976C93.0045 209.059 101.726 194.731 111.341 180.736C118.615 170.138 126.247 159.695 131.314 147.615C137.992 131.68 141.822 115.256 140.231 97.9175C139.553 90.5122 137.831 83.354 132.761 77.7644C127.263 71.716 120.735 68.0886 112.206 70.4045C111.535 70.7178 111.01 71.2604 110.363 71.6181C108.748 72.8305 107.473 74.4644 106.675 76.3466C103.844 81.8703 101.581 87.6752 99.9225 93.6656C98.3948 99.3537 96.065 104.743 94.3644 110.364C94.1885 110.876 93.9794 111.376 93.7384 111.86C89.2781 117.512 85.3885 123.612 82.1313 130.064C80.397 133.412 80.5142 134.237 83.1439 136.789C84.4925 138.108 86.1906 138.957 87.6097 140.154C88.1996 140.658 88.8969 141.333 88.5578 142.125C88.1324 143.129 87.0759 142.958 86.2301 142.751C84.2457 142.113 82.4282 141.034 80.9045 139.59C77.7809 137.042 77.0604 137.238 75.5223 141.225C75.4145 141.547 75.3234 141.874 75.2495 142.206C75.0029 142.833 74.5344 143.344 73.9397 143.634C70.2651 147.592 66.9701 151.893 63.397 155.946C55.3525 164.962 45.8222 172.443 35.2612 178.032C25.1644 183.553 15.8429 190.486 7.56734 198.629C-1.93759 207.899 -11.3604 217.268 -21.9248 225.329C-28.8627 230.587 -36.1068 235.11 -44.4681 237.481C-59.0707 241.23 -73.7228 240.663 -88.3725 238.71C-94.2324 237.929 -100.145 237.567 -105.867 235.994C-108.429 235.3 -110.411 236.192 -111.735 238.654C-116.187 246.915 -120.121 255.415 -123.781 264.075C-129.019 276.344 -132.014 289.275 -135.565 302.041C-138.423 312.312 -139.645 322.905 -140.794 333.463C-142.373 347.995 -142.912 362.561 -141.487 377.118C-140.738 384.789 -140.831 384.895 -133.536 385.207C-123.453 385.635 -113.339 386.015 -103.323 387.009C-89.662 388.403 -76.3168 391.899 -63.7317 397.382C-50.1298 403.298 -37.9002 411.851 -24.4415 418.02C-21.4192 419.572 -18.2626 420.839 -15.0098 421.804C-12.7677 422.371 -10.7141 423.452 -8.56193 424.211C-1.61661 426.634 5.68215 427.655 12.8821 429.13C20.7234 430.726 28.6411 431.524 36.551 432.611C39.8935 433.169 43.2769 433.464 46.6717 433.493C48.3437 434.043 49.0892 434.807 47.149 436.107Z" fill="#100503"/>
<path d="M55.7957 517.463C53.5345 520.277 51.2694 523.269 47.1066 523.932C43.1932 524.551 39.325 525.663 35.4817 526.358C34.8353 526.458 34.2265 526.744 33.7253 527.182C33.2241 527.62 32.8509 528.193 32.6485 528.834C31.088 532.475 29.4113 536.075 27.9234 539.783C26.8453 542.413 25.1871 544.756 23.0818 546.625C20.4873 548.997 18.6974 548.707 17.0504 545.607C14.4248 540.679 11.8101 535.744 9.38924 530.703C8.38326 528.611 6.97185 527.879 4.79568 527.698C-0.340935 527.269 -5.45898 526.609 -10.5881 526.022C-11.2434 525.948 -11.8887 525.806 -12.5144 525.599C-14.8675 524.775 -15.5526 522.679 -14.1484 520.551C-13.7748 519.999 -13.3507 519.485 -12.8821 519.016C-9.01365 514.951 -5.18014 510.782 -1.15345 506.902C-0.518368 506.379 -0.0445699 505.678 0.208363 504.885C0.461295 504.093 0.482076 503.245 0.268035 502.449C-0.618571 497.796 -1.41075 493.133 -2.22832 488.462C-2.66418 486.479 -2.35924 484.387 -1.37362 482.599C-0.387992 480.811 1.20677 479.456 3.0962 478.802C4.49164 478.247 5.69629 478.837 6.85975 479.444C11.0383 481.644 15.235 483.811 19.3382 486.151C21.4267 487.336 23.1633 487.621 25.3738 486.104C29.0532 483.571 32.9886 481.43 36.8225 479.129C37.4737 478.695 38.1541 478.31 38.8581 477.978C41.7944 476.804 44.0179 478.291 43.9616 481.511C43.8553 483.205 43.645 484.892 43.332 486.562C42.7684 490.49 42.2412 494.419 41.5881 498.341C41.4609 499.121 41.5409 499.919 41.8197 500.649C42.0985 501.38 42.5657 502.015 43.1716 502.489C46.4669 505.6 49.7493 508.715 53.0187 511.832C53.8041 512.614 54.5382 513.448 55.2164 514.33C55.5256 514.775 55.7373 515.285 55.8372 515.826C55.9372 516.366 55.923 516.924 55.7957 517.463Z" fill="#352814"/>
<path d="M201.905 150.763C206.44 152.798 211.209 155.04 216.062 157.079C222.814 159.901 220.659 159.876 226.489 156.206C231.02 153.335 235.338 150.178 239.824 147.171C243.174 144.971 244.951 145.767 247.061 149.071C249.887 153.442 250.113 157.977 249.221 162.955C248.555 166.628 248.403 170.388 247.85 174.083C247.696 174.795 247.758 175.535 248.025 176.203C248.293 176.871 248.754 177.435 249.347 177.82C252.857 180.683 256.255 183.657 259.791 186.461C261.509 187.664 262.793 189.415 263.449 191.45C263.956 192.688 264.535 193.891 265.183 195.055C266.612 198.283 265.434 200.88 262.039 201.831C255.763 203.595 249.484 205.404 243.166 206.958C242.211 207.137 241.322 207.593 240.604 208.273C239.886 208.953 239.369 209.828 239.115 210.793C236.847 217.077 234.318 223.279 231.859 229.528C231.133 231.383 230.116 233.006 227.928 233.227C225.74 233.449 224.507 232.011 223.539 230.308C220.23 224.491 216.879 218.691 213.712 212.792C213.383 212.036 212.848 211.398 212.17 210.953C211.493 210.509 210.702 210.277 209.892 210.286C203.969 209.996 198.057 209.465 192.13 209.287C189.017 209.195 186.886 208.064 185.821 205.004C185.521 204.279 185.181 203.574 184.803 202.89C182.898 198.946 183.056 197.688 185.943 194.397C190.091 189.655 194.213 184.877 198.441 180.204C199.031 179.631 199.454 178.901 199.663 178.098C199.872 177.295 199.858 176.452 199.622 175.665C198.432 170.4 197.437 165.086 196.402 159.788C196.116 158.356 195.91 156.906 195.784 155.447C195.49 151.488 197.964 149.516 201.905 150.763Z" fill="#342C14"/>
<path d="M47.149 436.107C47.6975 435.316 48.1444 434.497 47.0815 433.824C45.3889 434.004 44.7936 432.47 44.184 431.48C41.4716 427.027 38.6005 422.653 36.9217 417.601C36.6814 417.099 36.5422 416.55 36.5122 415.988C36.4822 415.425 36.562 414.86 36.7469 414.326C38.014 412.396 39.36 413.167 40.6923 414.15C43.7814 417.019 45.6799 421.019 49.1133 423.568C49.3772 423.757 49.6232 423.971 49.8482 424.207C53.8211 428.425 58.7717 431.491 63.0722 435.254C63.6452 435.755 64.2523 436.214 64.8892 436.627C65.1082 436.845 65.2804 437.108 65.3951 437.4C65.3021 438.685 64.2537 438.026 63.6503 438.358C58.108 437.927 52.5989 437.175 47.149 436.107Z" fill="#140703"/>
<path d="M130.41 414.573L130.995 415.453C129.642 416.02 128.26 415.739 126.884 415.8C125.959 415.844 124.958 415.443 124.141 416.244C123.849 416.535 123.477 416.725 123.078 416.788C117.286 415.563 111.518 414.289 106.086 411.806C104.183 410.937 102.084 410.645 100.106 409.982C86.8002 405.526 73.7087 400.563 62.1262 392.341C59.9645 390.796 57.754 389.426 54.9994 389.16C53.667 389.044 52.4268 388.442 51.5028 387.461C50.8384 385.946 52.0323 385.721 52.888 385.761C54.1311 385.852 55.121 385.279 56.2098 384.94C57.7704 384.808 58.9116 385.692 60.077 386.554C73.9625 396.188 89.3549 403.34 105.618 407.714C113.114 409.799 120.447 412.632 128.306 413.28C128.739 413.286 129.161 413.409 129.53 413.636C129.899 413.862 130.202 414.186 130.41 414.573Z" fill="#100503"/>
<path d="M122.883 416.111L124.133 416.242C127.712 425.549 124.909 433.722 119.262 441.197C114.933 446.917 108.762 449.418 102.052 450.381C95.9166 451.223 89.7004 450.467 83.9757 448.182C78.0216 445.977 72.295 443.19 66.8735 439.858C65.8373 439.268 64.7596 438.757 63.6489 438.329L65.2228 437.493C66.8333 436.46 67.883 437.771 69.0851 438.436C76.1936 442.404 83.2705 446.486 91.3641 447.766C100.82 449.265 110.21 448.377 117.121 440.168C122.079 434.283 124.452 427.264 122.968 419.38C122.723 418.293 122.278 417.235 122.883 416.111Z" fill="#422012"/>
<path d="M3.47594 154.954C0.789911 155.622 -1.47009 156.333 -3.82513 156.696C-5.795 156.969 -7.59447 158.027 -8.83316 159.643C-10.3653 161.575 -12.1114 163.325 -13.7463 165.134C-14.8642 164.823 -14.6314 163.888 -14.7767 163.196C-15.0611 161.759 -15.3843 160.329 -15.538 158.881C-15.6548 157.476 -16.0608 156.117 -16.7293 154.895C-17.3977 153.673 -18.3132 152.616 -19.4152 151.793C-20.9197 150.687 -22.235 149.333 -23.3098 147.785C-22.8863 146.46 -21.7038 146.572 -20.8285 146.476C-18.2552 146.24 -15.7608 145.389 -13.5448 143.991C-11.3289 142.592 -9.45292 140.685 -8.06695 138.422C-7.65917 137.809 -7.26198 137.005 -6.15297 136.889C-5.41558 139.405 -4.88788 141.985 -4.57555 144.601C-4.29009 146.38 -3.4187 147.995 -2.10669 149.175C-0.0517801 150.892 1.81927 152.829 3.47594 154.954Z" fill="#293429"/>
<path d="M222.215 384.436C220.324 385.172 218.35 385.647 216.346 385.85C215.089 386.004 213.871 386.416 212.764 387.063C211.658 387.71 210.686 388.578 209.906 389.615C208.64 391.281 207.094 392.738 205.236 394.759C204.766 392.119 204.233 390.065 204.067 387.972C203.986 386.676 203.621 385.421 203.001 384.3C202.381 383.179 201.521 382.22 200.486 381.494C199.022 380.36 197.748 378.968 196.185 377.468C198.591 376.137 200.999 375.911 203.273 375.345C205.116 374.987 206.788 373.972 207.994 372.48C209.416 370.649 211.142 369.035 212.946 367.112C213.778 369.521 214.337 372.025 214.611 374.575C214.831 376.373 215.702 378.009 217.049 379.159C218.982 380.686 220.717 382.459 222.215 384.436Z" fill="#273127"/>
<path d="M74.7638 142.278C74.1283 141.545 73.8172 140.826 74.5185 139.88C75.614 138.468 76.6261 136.994 77.7994 135.368C81.0268 138.068 83.5859 141.563 88.0877 142.306C87.7146 141.023 86.7938 140.823 86.0524 140.438C83.756 139.136 81.74 137.376 80.1201 135.259C79.7135 134.883 79.4483 134.372 79.3696 133.811C79.2909 133.251 79.4036 132.677 79.6884 132.186C83.3554 125.565 86.7709 118.799 91.5311 112.84C91.902 112.436 92.3097 112.069 92.7483 111.745C94.9702 110.646 97.0231 112.123 99.1923 112.132C100.39 112.228 101.598 112.014 102.705 111.51C103.813 111.006 104.785 110.228 105.534 109.245C110.855 102.386 113.516 94.4286 115.078 85.9953C116.106 80.4609 115.386 75.44 111.493 71.2626C111.305 71.0548 111.186 70.7909 111.152 70.5076C111.118 70.2243 111.171 69.9356 111.303 69.6816C115.022 67.4993 118.839 68.212 122.492 69.4454C126.008 70.5832 129.223 72.5081 131.91 75.0834C134.597 77.6586 136.689 80.8209 138.039 84.3457C141.585 92.9831 142.067 102.107 141.358 111.316C139.762 131.909 132.772 150.539 121.248 167.625C113.858 178.578 106.199 189.381 99.7003 200.931C94.8389 209.783 91.418 219.376 89.5755 229.321C89.4297 230.435 89.3615 231.558 89.3713 232.679C90.5503 232.705 90.312 231.856 90.4425 231.289C91.0691 228.752 91.6835 226.216 92.2858 223.679C92.6199 222.282 93.2198 221.864 94.6532 222.451C99.0719 224.378 103.585 226.096 108.005 228.052C114.346 230.831 120.888 233.112 127.578 234.875C137.896 237.658 148.06 240.983 158.03 244.837C168.49 248.766 178.041 254.319 186.048 262.405C190.612 266.966 193.937 272.68 195.703 278.997C197.701 286.052 196.071 292.863 193.582 299.576C190.661 307.452 184.427 311.264 177.234 313.961C174.728 314.862 172.151 315.528 169.536 315.952C167.532 317.809 165.002 317.52 162.652 317.735C149.473 318.728 136.31 318.679 123.3 316.541C116.72 315.338 110.357 313.171 104.404 310.105C102.412 308.576 100.154 307.449 97.7459 306.781C96.2125 306.227 94.7319 305.534 93.3215 304.71C92.5306 304.273 91.8779 303.667 92.0807 302.611C92.1182 302.357 92.2045 302.113 92.3347 301.893C92.4648 301.673 92.6361 301.481 92.8383 301.329C93.0406 301.177 93.2698 301.067 93.5123 301.007C93.7548 300.947 94.0057 300.937 94.2503 300.978C94.9604 301.038 95.6761 300.895 96.3187 300.564C96.9613 300.234 97.5058 299.729 97.8922 299.105C101.173 294.461 102.549 289.155 103.061 283.609C103.653 277.218 99.8926 273.973 94.7113 272.032C91.2249 270.722 87.6546 269.616 83.8337 270.657C80.1487 270.782 78.5826 273.46 77.2376 276.425C77.0545 276.709 76.8327 276.965 76.5789 277.185C73.6386 277.914 73.4286 277.554 74.3284 273.795C74.4641 273.481 74.6327 273.183 74.8311 272.907C76.0941 271.643 77.1399 270.17 77.9228 268.55C81.8395 263.885 87.2295 262.649 92.7131 261.929C94.7726 261.644 96.8549 261.506 98.9123 261.097C107.889 261.117 116.802 262.366 125.418 264.811C129.263 265.881 132.888 266.2 136.598 264.478C145.757 261.469 154.994 260.671 162.748 262.319C158.752 261.368 149.464 261.067 142.711 262.839C140.294 263.636 137.817 264.209 135.308 264.553C131.698 263.294 130.503 261.065 131.416 257.357C131.735 256.392 132.113 255.448 132.549 254.531C132.92 253.559 133.776 252.938 134.211 252.031C134.464 251.649 133.699 251.775 134.117 251.911C134.219 251.939 134.229 252.065 134.098 252.207C132.591 253.788 132.057 255.97 130.748 257.69C127.546 261.95 123.46 263.813 118.312 263.032C114.548 262.457 110.68 262.682 107.109 260.859C103.707 259.148 102.3 256.464 102.588 252.705C102.737 250.86 102.679 249.098 102.743 247.295C102.645 249.976 102.974 252.728 101.8 255.278C100.625 257.828 99.1961 260.044 96.751 261.42C93.4271 262.052 90.0051 261.987 86.7409 263.126C83.2756 264.332 79.9588 265.758 77.5774 268.841C76.995 269.622 76.2084 270.186 75.2952 269.762C74.2284 269.267 74.7107 268.222 74.9228 267.395C75.5601 264.94 76.2821 262.509 76.9617 260.066C75.2891 265.553 74.2722 271.242 71.9778 276.537C71.4062 277.992 70.7438 279.409 69.995 280.778C66.3338 288.565 61.8639 295.932 56.665 302.748C51.0367 310.22 43.9225 315.948 36.5073 321.413C27.805 327.831 18.0759 331.577 7.92825 334.433C3.42424 335.699 -1.21916 335.662 -4.9367 336.43C2.01444 335.771 8.88734 334.33 15.5583 332.132C26.241 328.43 36.1533 322.628 44.7375 315.052C45.7267 314.186 46.5905 313.049 47.9433 312.68C50.9832 312.478 51.5863 313.033 50.6636 316.021C48.9664 321.728 47.6155 327.437 48.6862 333.395C48.8877 334.508 48.9778 335.627 49.3015 336.727C50.306 340.431 50.1324 341.382 46.8326 343.502C39.1824 348.402 36.8032 355.806 36.7897 364.415C36.7829 370.507 38.6967 376.191 40.7377 381.777C41.3204 383.17 41.524 384.706 41.3271 386.222C41.1302 387.738 40.5401 389.178 39.6191 390.39C36.4525 394.867 34.9972 400.366 35.5363 405.82C36.0276 410.746 36.7618 415.638 37.7361 420.479C37.9449 421.592 38.4622 422.613 39.2261 423.421C41.1228 425.596 42.7235 428.028 43.9855 430.651C44.3764 431.411 45.1656 432.149 44.4897 433.103C43.8138 434.056 42.9293 433.857 42.0579 433.775C37.4842 433.323 32.9497 432.6 28.3932 432.021C17.1792 430.718 6.0778 428.629 -4.83395 425.767C-17.8062 422.072 -30.1955 416.559 -41.6571 409.382C-50.7064 403.813 -60.2051 399.041 -70.054 395.114C-77.2673 392.277 -84.9233 390.571 -92.5928 389.079C-105.577 386.552 -118.771 386.711 -131.87 385.746C-140.571 385.108 -140.594 385.385 -141.863 376.664C-143.597 364.758 -142.854 352.804 -141.923 340.8C-140.765 326.039 -138.374 311.387 -134.776 297.006C-129.862 277.44 -123.092 258.748 -113.552 240.988C-110.75 235.768 -109.294 235.191 -103.736 236.172C-89.2416 238.619 -74.6567 240.215 -59.9046 239.668C-54.4643 239.464 -48.9386 238.889 -43.8622 236.32C-32.8041 232.651 -23.7036 225.589 -14.8059 218.14C-6.27539 210.994 1.37076 202.829 9.5194 195.285C17.4054 188.027 26.1375 181.812 35.5065 176.789C49.8072 169.042 61.4586 158.189 71.112 144.941C71.7514 144.053 72.1336 142.877 73.4026 142.645C75.8756 143.333 77.4161 145.733 79.7137 146.429C77.7977 145.575 75.8397 144.511 74.7638 142.278Z" fill="#6C382C"/>
<path d="M169.174 317.19C177.558 321.721 183.998 331.503 181.808 343.346C181.428 346.032 180.865 348.69 180.124 351.302C176.784 361.438 170.26 367.831 159.802 369.506C157.312 369.898 154.782 370.1 152.257 370.388C147.809 372.273 143.325 370.809 138.96 370.396C125.464 369.085 112.147 366.42 99.1987 362.438C94.2467 360.919 89.4415 359.233 85.1177 356.342C78.0117 351.61 70.4724 347.55 63.9344 341.958C63.5928 341.382 63.204 340.811 62.809 340.296C62.1448 339.403 61.8752 338.47 62.5693 337.484C63.2634 336.498 64.2728 336.609 65.2809 336.757C66.8904 337.007 68.3922 337.972 70.1048 337.392C72.6715 335.71 74.0439 333.073 75.1514 330.305C77.071 325.472 78.7245 320.545 79.0604 315.271C79.1383 314.139 78.9208 313.012 78.4304 312.006C77.9399 311.001 77.1945 310.153 76.2715 309.551C73.422 307.429 70.3622 305.766 66.6592 305.858C66.1341 305.712 65.609 305.566 65.0777 305.475C64.6365 305.46 64.2141 305.299 63.8722 305.017C63.5304 304.736 63.2869 304.347 63.1775 303.909C62.9289 302.736 63.625 302.005 64.4757 301.44C65.1891 300.904 65.9648 300.463 66.784 300.129C67.1494 300.017 67.528 299.96 67.9076 299.961C75.253 299.174 81.9334 301.532 88.645 303.975C95.6228 306.511 102.432 309.49 109.284 312.311C118.86 316.268 128.764 317.731 138.986 318.282C139.974 318.295 140.962 318.256 141.948 318.163C148.206 317.743 154.478 318.092 160.743 317.647C163.559 317.43 166.343 316.573 169.174 317.19Z" fill="#6C382C"/>
<path d="M130.411 414.573C124.359 414.776 118.733 412.824 113.016 411.3C100.806 408.1 88.9166 403.776 77.4923 398.379C70.8961 395.122 64.5715 391.324 58.5784 387.023C57.6933 386.4 56.9723 385.482 55.8068 385.309L55.3748 385.255C54.9284 385.199 54.5053 385.026 54.1458 384.752C53.9059 384.564 53.6875 384.348 53.4944 384.109L52.9304 383.348C51.1413 381.907 49.4627 380.299 47.6118 378.916C46.4233 378.114 45.3966 377.086 44.5859 375.885C44.0174 374.944 43.3183 373.882 44.2063 372.789C45.0942 371.697 46.1491 372.103 47.1941 372.611C48.9648 373.462 50.609 374.637 52.6229 374.876C54.8667 375.142 57.1012 375.179 58.3317 372.691C61.4084 367.962 64.4887 363.253 64.6817 357.279C64.7286 355.47 64.483 353.67 63.9548 351.954C62.1462 349.206 59.2925 348.082 56.4656 346.927C55.1543 346.393 53.4505 346.088 53.8266 344.146C54.2028 342.203 55.8549 342.333 57.4819 342.257C61.7395 342.074 65.1769 344.445 69.0013 345.622C74.6737 349.144 80.1046 353.041 85.8328 356.493C93.6494 361.196 102.324 363.308 111.008 365.516C119.898 367.772 128.99 368.906 138.043 370.018C141.289 370.421 144.543 370.695 147.846 370.859C149.31 370.945 150.678 371.109 151.754 372.229C153.591 374.396 154.91 376.978 155.607 379.776C156.304 382.573 156.36 385.51 155.772 388.356C155.035 392.948 153.72 397.431 151.861 401.692C150.183 405.181 147.496 408.062 144.176 409.931C139.945 412.465 135.251 414.048 130.411 414.573Z" fill="#6C382C"/>
<path d="M-43.8001 236.327C-44.7262 237.787 -46.1736 238.299 -47.7116 238.645C-53.289 239.986 -59.0117 240.494 -64.7023 240.154C-69.9286 239.785 -75.2127 239.984 -80.4721 239.832C-83.3174 239.779 -86.1471 239.453 -88.9245 238.858C-93.4283 237.86 -98.0559 237.799 -102.555 236.849C-103.173 236.677 -103.869 236.785 -104.507 236.683C-107.995 236.1 -110.978 237.411 -112.7 240.81C-115.607 246.538 -118.998 252.001 -121.174 258.15C-122.4 261.914 -124 265.544 -125.948 268.981C-126.113 269.278 -126.238 269.595 -126.32 269.925C-128.233 277.751 -131.928 285.063 -133.35 292.997C-134.389 298.83 -136.178 304.474 -137.49 310.175C-138.103 312.835 -138.25 315.529 -138.613 318.211C-139.356 323.571 -140.207 328.928 -140.81 334.307C-141.496 339.684 -141.834 345.096 -141.822 350.507C-141.763 353.872 -141.983 357.254 -142.134 360.617C-142.389 366.65 -142.346 372.596 -140.773 378.42C-140.749 378.531 -140.677 378.636 -140.679 378.739C-140.633 380.544 -140.792 382.424 -139.331 383.736C-137.871 385.048 -136.003 384.662 -134.287 384.791C-126.969 385.317 -119.66 385.907 -112.328 386.286C-105.314 386.63 -98.3374 387.458 -91.4468 388.766C-86.155 389.785 -81.0288 391.334 -75.7918 392.517C-70.5548 393.701 -65.8677 396.533 -60.879 398.477C-49.503 402.916 -39.7473 410.488 -28.8208 415.82C-24.9855 417.68 -21.0456 419.295 -17.1289 420.96C-11.0373 423.598 -4.5718 424.859 1.71707 426.788C6.01329 428.106 10.4852 428.595 14.9242 429.236C17.4088 429.587 19.853 430.182 22.352 430.547C24.3961 430.842 26.4435 431.289 28.5023 431.4C33.2107 431.663 37.8112 432.707 42.4939 433.16C44.2681 433.343 44.5716 432.842 43.831 431.306C42.5548 428.677 41.1066 426.077 38.6448 424.495C37.8645 424.084 37.2463 423.411 36.8897 422.586C36.5332 421.762 36.4591 420.832 36.6794 419.949C36.9115 418.493 36.7576 417.006 36.234 415.646C34.9394 411.229 34.3745 406.608 34.5627 401.974C34.6684 397.494 36.4013 393.561 38.7316 389.973C39.6053 388.812 40.1585 387.434 40.3314 385.985C40.5043 384.537 40.2905 383.075 39.7129 381.756C37.4847 375.891 35.5872 369.854 35.7883 363.391C35.9874 356.673 37.6455 350.484 42.5385 345.458C44.0712 343.885 46.0372 343.083 47.6375 341.66C49.0523 340.412 49.1617 339.461 48.66 337.624C47.0322 332.575 46.8383 327.13 48.101 321.921C48.649 319.951 49.1947 317.99 49.7428 316.02C50.5905 312.973 50.5482 312.961 47.5329 313.631C47.6941 311.346 49.3104 310.522 51.0994 309.831C53.2329 310.198 53.1964 311.707 52.8462 313.393C52.2231 316.748 50.3188 319.689 49.9037 323.149C49.2923 328.168 49.1992 333.095 50.8626 337.906C51.1685 338.757 51.2671 339.675 51.1498 340.58C50.8734 342.23 49.6711 343.075 48.3844 343.764C40.0862 348.172 37.8568 355.759 37.9097 364.491C37.9612 367.539 38.3831 370.563 39.1653 373.491C40.0948 377.237 41.447 380.852 43.1948 384.262C43.8187 385.164 44.1549 386.245 44.1579 387.36C43.9893 388.138 43.5468 388.829 42.9163 389.298C37.0391 394.351 36.0134 400.99 36.8642 408.199C37.1684 410.416 37.2921 412.66 37.234 414.905C37.5637 417.221 38.3318 419.441 39.4949 421.44C41.6874 425.789 44.2453 429.928 47.1398 433.811C46.7744 435.125 45.8575 434.747 45.0104 434.643L28.0186 432.548C16.6722 431.197 5.44676 429.02 -5.57368 426.033C-18.2779 422.499 -30.0526 416.968 -41.3436 410.289C-50.1077 405.011 -59.2232 400.364 -68.6262 396.379C-76.2635 393.312 -84.2013 391.069 -92.3139 389.685C-106.712 387.057 -121.395 387.16 -135.947 386.036C-142.357 385.526 -141.073 386.289 -141.943 380.529C-143.713 369.376 -143.447 358.186 -142.906 346.96C-142.288 333.717 -140.613 320.531 -137.896 307.534C-135.328 295.307 -131.91 283.272 -127.668 271.522C-123.593 260.087 -118.58 249.015 -112.685 238.427C-110.284 234.161 -110.298 234.176 -105.635 235.096C-92.0688 237.796 -78.264 239.173 -64.4029 239.209C-57.4208 239.236 -50.6057 237.83 -43.8001 236.327Z" fill="#6C382C"/>
<path d="M93.225 110.623C93.9407 106.935 95.525 103.536 96.6762 99.9886C98.4577 94.5033 99.9622 88.9314 102.075 83.5666C103.32 80.2869 104.814 77.1096 106.544 74.0647C107.392 72.6216 108.122 70.6549 110.413 70.9809C113.616 72.2588 114.713 75.2053 115.544 78.2195C116.375 81.2337 115.99 84.3246 115.371 87.2372C113.793 94.6471 111.44 101.794 106.958 108.066C103.426 112.923 98.2295 113.986 93.225 110.623Z" fill="#6C382C"/>
<path d="M151.743 372.236C148.211 371.253 144.543 371.581 140.948 371.119C131.919 369.956 122.84 369.1 113.964 366.961C111.195 366.285 108.366 365.894 105.593 365.17C94.7342 362.338 84.5089 357.466 75.4275 350.797C73.2912 349.259 71.2691 347.508 68.8305 346.433C66.1704 344.94 63.3335 343.799 60.3859 343.037C60.4751 341.797 60.4751 341.797 63.402 340.461C63.9187 340.538 64.4452 340.581 64.6112 341.231C73.1754 347.807 82.2416 353.67 91.7254 358.765C92.2001 359.04 92.6959 359.276 93.2082 359.47C103.982 362.957 114.858 366.012 126.093 367.675C134.781 368.951 143.489 369.958 152.269 370.41C152.034 370.643 151.862 370.934 151.77 371.255C151.677 371.575 151.668 371.913 151.743 372.236Z" fill="#170805"/>
<path d="M169.174 317.19C165.536 318.033 161.825 318.456 158.11 318.452C152.98 318.656 147.844 318.652 142.708 318.742C131.557 318.81 120.747 317.453 110.25 313.269C103.512 310.592 96.8386 307.717 90.0472 305.167C87.0568 304.043 83.6998 303.515 81.0865 301.297C80.915 300.915 80.8721 300.483 80.9643 300.068C81.0565 299.654 81.2787 299.28 81.5964 299.005C84.874 298.539 87.6273 300.287 89.9583 301.944C94.3919 305.065 99.4043 306.629 104.296 308.594C104.585 308.731 104.816 308.969 104.949 309.266C111.464 312.088 118.061 314.612 125.208 315.656C137.48 317.323 149.911 317.657 162.297 316.654C164.699 316.483 167.106 316.162 169.502 315.914C169.419 316.343 169.299 316.772 169.174 317.19Z" fill="#130607"/>
<path d="M93.2249 110.623C95.3111 111.26 97.4745 111.611 99.6594 111.667C100.864 111.684 102.059 111.387 103.133 110.806C104.207 110.224 105.126 109.376 105.805 108.339C108.399 104.798 110.476 100.891 111.969 96.7434C113.032 93.6431 113.912 90.4821 114.602 87.2781C116.011 81.0664 115.162 75.4248 110.375 70.9516C110.416 70.6727 110.534 70.4104 110.715 70.1963C110.896 69.9822 111.132 69.8255 111.395 69.7449C112.659 71.1278 113.811 72.6155 114.839 74.1933C116.072 76.1997 116.689 78.549 116.612 80.9411C116.157 91.2856 112.702 101.306 106.692 109.709C104.253 113.162 100.968 113.72 97.2893 113.036C95.7875 112.76 94.3335 112.214 92.8598 111.804C92.9754 111.421 93.0959 111.021 93.2249 110.623Z" fill="#130607"/>
<path d="M74.7639 142.278C77.1025 143.712 79.0322 145.73 81.7351 146.51C82.201 146.64 82.7558 147.105 82.4871 147.776C82.2185 148.446 81.5505 148.289 81.0703 148.08C78.123 146.905 75.4838 145.055 73.3505 142.668L74.7639 142.278Z" fill="#170805"/>
<path d="M44.3658 77.3132C44.276 77.4737 44.2015 77.6426 44.1434 77.8174L41.5011 77.0162C41.9764 76.8619 42.4757 76.8086 42.9683 76.8597C43.461 76.9108 43.9365 77.0651 44.3658 77.3132Z" fill="#225A26"/>
<path d="M16.632 532.189C15.6244 530.333 14.5017 528.531 13.6153 526.633C13.2481 525.642 12.5966 524.793 11.7462 524.198C10.8958 523.603 9.88598 523.289 8.84917 523.298C4.13962 523.006 -0.54395 522.392 -5.22276 521.826C-6.89773 521.615 -9.0227 521.939 -9.78423 519.887C-10.6675 517.519 -8.48813 516.541 -7.22092 515.233C-3.78429 511.67 -0.362151 508.094 3.17601 504.626C3.89535 503.999 4.43503 503.182 4.73494 502.266C5.03485 501.351 5.08324 500.371 4.87473 499.438C4.7839 498.772 4.73612 498.1 4.7317 497.426C4.70323 494.249 3.72794 491.195 3.77814 488.029C3.78171 487.361 3.57343 486.699 3.60124 486.008C3.79603 481.11 5.20653 480.238 9.16914 482.69C12.1668 484.543 15.4487 485.833 18.4063 487.731C19.6558 488.646 21.17 489.108 22.7159 489.045C24.2618 488.983 25.7536 488.399 26.9615 487.385C30.303 484.918 34.0139 483.092 37.5389 480.95C38.4841 480.374 39.4549 479.672 40.5987 480.415C41.7426 481.158 41.5019 482.449 41.5034 483.723C41.4281 488.815 40.3314 493.774 39.8192 498.83C39.6706 499.653 39.742 500.498 40.0259 501.275C40.3097 502.052 40.7951 502.732 41.4301 503.24C44.3249 505.791 46.931 508.657 49.827 511.236C50.8518 512.077 51.733 513.087 52.4353 514.226C53.8703 516.71 53.4665 517.834 50.6702 518.603C48.4285 519.215 46.1104 519.938 43.8458 519.78C40.4617 519.546 37.6758 521.261 34.6335 522.16C34.221 522.304 33.8487 522.552 33.5513 522.882C33.2538 523.211 33.0408 523.611 32.9319 524.045C30.5546 529.638 27.8302 535.069 25.5581 540.71C24.5832 543.099 22.8617 543.252 21.4734 541.026C19.6868 538.133 18.2903 535.084 16.632 532.189Z" fill="#F2A013"/>
<path d="M16.6315 532.189C18.5235 533.555 19.0037 535.896 20.1759 537.751C20.7156 538.599 21.0868 539.561 21.6422 540.385C22.9824 542.39 24.1277 542.275 25.071 539.999C26.9721 535.396 29.6958 531.116 31.1975 526.44C32.3561 522.8 34.5351 521.331 37.4451 519.924C39.2054 519.074 40.8249 518.468 42.8106 518.907C45.5622 519.512 48.3283 518.753 50.9443 517.943C52.7259 517.411 52.8881 516.664 52.0063 514.88C51.5022 513.868 50.8296 512.956 50.0184 512.186C47.1373 509.422 44.4806 506.41 41.4126 503.924C38.5296 501.594 38.8273 498.818 39.3712 495.715C40.0888 491.594 40.9468 487.493 40.8596 483.28C40.8025 480.566 40.0252 479.982 37.6623 481.391C34.2173 483.442 30.6095 485.193 27.4227 487.759C24.7171 489.94 21.7347 490.525 18.5631 488.445C15.2597 486.281 11.4694 484.981 8.22685 482.664C7.65945 482.321 7.03012 482.098 6.37472 482.007C5.25421 481.771 5.12871 482.255 4.88814 483.48C4.06602 487.846 4.60223 492.117 4.93866 496.418C4.89937 496.757 4.80725 497.088 4.66583 497.399C3.85245 493.107 3.03059 488.812 2.24749 484.509C2.13295 483.842 2.09876 483.16 2.14566 482.481C2.28639 480.171 3.35776 479.403 5.3887 480.27C7.09908 481.01 8.73047 481.936 10.3813 482.791C13.6867 484.522 17.0126 486.212 20.29 488.01C20.9397 488.409 21.6916 488.602 22.4535 488.566C23.2155 488.53 23.9546 488.266 24.5804 487.808C29.0494 485.06 33.6113 482.471 38.1346 479.824C38.5933 479.505 39.0769 479.226 39.5802 478.99C41.1694 478.395 42.1428 478.996 42.3771 480.712C42.4403 481.273 42.4295 481.841 42.3452 482.401C41.694 488.022 41.0852 493.654 40.2573 499.254C40.1184 499.902 40.1658 500.575 40.3935 501.189C40.6212 501.804 41.0194 502.334 41.5394 502.714C44.9573 505.844 48.2819 509.08 51.65 512.291C52.3038 512.882 52.9239 513.511 53.5073 514.175C55.3061 516.336 54.7233 518.07 51.9657 518.831C51.2233 519.04 50.4484 519.136 49.6903 519.302C45.2776 520.272 40.8636 521.28 36.4328 522.217C35.6838 522.359 34.9782 522.691 34.3815 523.185C33.7848 523.679 33.3163 524.317 33.0193 525.041C30.5244 530.007 28.6489 535.24 26.3246 540.282C26.129 540.69 26.0132 541.139 25.7947 541.531C24.4772 543.938 22.2957 544.038 21.0071 541.586C19.3449 538.561 17.8831 535.422 16.6315 532.189Z" fill="#ECDE42"/>
<path d="M22.0163 545.602C21.902 545.824 21.7446 546.02 21.5542 546.178C21.3638 546.336 21.1444 546.453 20.9098 546.52C20.6751 546.588 20.4303 546.605 20.1905 546.571C19.9508 546.537 19.7214 546.452 19.5167 546.322C18.7312 545.904 18.116 545.216 17.7769 544.375C15.1281 539.311 12.4728 534.271 9.81099 529.254C9.35732 528.392 9.17097 527.651 9.93746 526.799C11.0593 525.554 11.7758 525.602 12.6252 527.273C14.5024 530.955 16.3578 534.651 18.1478 538.384C19.1225 540.391 19.782 542.612 21.588 544.058C21.8258 544.219 21.9992 544.462 22.0775 544.745C22.1559 545.027 22.1342 545.331 22.0163 545.602Z" fill="#C6642D"/>
<path d="M9.65514 524.927C8.6374 526.88 6.97637 527.012 5.50976 526.708C0.867606 525.957 -3.81299 525.451 -8.51366 525.193C-9.27799 525.111 -10.0314 524.952 -10.7632 524.719C-11.3645 524.551 -12.2772 524.552 -12.2685 523.734C-12.2559 522.737 -11.4005 522.221 -10.5417 521.922C-10.2181 521.858 -9.88528 521.889 -9.58073 522.01C-3.53969 523.747 2.71939 523.979 8.92582 524.564C9.18556 524.647 9.4313 524.77 9.65514 524.927Z" fill="#B46B39"/>
<path d="M2.01624 503.709C1.12205 502.79 1.29335 501.715 1.12554 500.744C0.526138 497.323 -0.0126959 493.88 -0.681127 490.478C-1.06524 488.578 -0.573042 487.432 1.65368 487.071C2.30011 491.307 2.96361 495.482 3.5823 499.654C3.75584 500.406 3.69855 501.2 3.41827 501.925C3.138 502.651 2.64839 503.274 2.01624 503.709Z" fill="#AA5C37"/>
<path d="M50.6091 521.218C45.5222 522.84 40.3308 524.019 35.1394 525.197C34.8629 524.092 35.3514 523.68 35.8467 523.573C40.7123 522.483 45.5633 521.446 50.4168 520.4L50.6091 521.218Z" fill="#996855"/>
<path d="M223.521 225.322C222.631 224.341 221.865 223.247 221.242 222.066C218.294 216.689 215.251 211.361 212.335 205.965C211.3 204.045 210.108 203.016 207.744 202.952C201.401 202.791 195.029 202.245 188.684 201.829C187.249 201.741 185.749 201.72 185.154 199.988C184.559 198.257 185.317 197.204 186.343 196.008C189.917 191.955 193.455 187.864 197.031 183.831C202.324 177.926 201.591 178.92 200.205 171.799C199.22 166.714 198.196 161.637 197.2 156.558C197.038 155.912 196.935 155.252 196.891 154.585C196.856 152.547 198.099 151.327 200.017 151.681C201.09 151.903 202.131 152.262 203.114 152.75C208.125 154.975 213.168 157.151 218.11 159.526C220.667 160.766 222.714 160.524 225.082 158.768C229.688 155.332 234.454 152.271 239.167 149.073C239.896 148.553 240.662 148.091 241.459 147.692C243.564 146.683 245.498 147.769 245.747 150.121C245.849 151.475 245.726 152.841 245.381 154.16C245.623 155.256 244.803 156.235 245.046 157.331C244.285 161.544 243.955 165.811 243.33 170.061C243.105 171.218 243.205 172.411 243.618 173.501C244.031 174.59 244.74 175.53 245.661 176.209C250.171 180.04 254.5 184.093 259.209 187.667C260.353 188.542 261.482 189.337 261.836 190.917C262.08 193.748 260.365 194.96 258.067 195.642C252.259 197.365 246.471 199.179 240.583 200.532C237.709 201.185 236.296 202.82 235.392 205.512C233.259 211.673 230.87 217.735 228.225 223.697C227.087 226.314 225.918 226.678 223.521 225.322Z" fill="#F2A013"/>
<path d="M263.034 193.693C263.334 194.16 263.59 194.655 263.801 195.171C264.791 198.172 263.88 200.004 260.931 200.797C255.598 202.219 250.387 204.222 244.933 205.034C240.84 205.641 238.687 207.806 237.383 211.868C235.419 217.878 232.861 223.694 230.45 229.542C229.224 232.503 226.717 232.692 224.905 230.056C224.382 229.211 223.91 228.333 223.492 227.427C229.755 224.396 229.937 217.541 232.553 212.241C233.99 209.339 234.977 206.217 236.248 203.222C236.533 202.486 236.995 201.834 237.591 201.329C238.187 200.824 238.896 200.483 239.651 200.339C245.636 198.9 251.494 196.898 257.509 195.581C259.426 195.152 260.865 193.26 263.034 193.693Z" fill="#D96B13"/>
<path d="M211.517 208.775C204.506 209.278 197.877 208.113 191.187 207.789C188.55 207.659 187.374 205.983 186.771 203.457C188.418 202.689 190.067 203.157 191.647 203.219C196.584 203.413 201.528 203.779 206.437 204.107C210.111 204.318 210.326 204.529 211.517 208.775Z" fill="#D66813"/>
<path d="M263.035 193.693C259.578 196.279 255.48 196.676 251.569 197.777C247.659 198.878 243.93 199.916 240.093 200.914C239.396 201.056 238.743 201.381 238.199 201.858C237.655 202.336 237.238 202.948 236.991 203.636C234.605 209.491 231.89 215.217 229.738 221.146C228.538 224.444 226.778 226.605 223.492 227.427C222.601 226.726 222.849 226.031 223.533 225.344C226.262 225.604 226.499 225.575 227.543 223.035C229.829 217.473 231.991 211.868 234.201 206.284C234.576 205.332 234.933 204.375 235.257 203.408C235.967 201.248 237.434 200.241 239.582 199.668C245.795 198.067 251.947 196.222 258.154 194.609C260.22 194.071 261.523 193.028 261.93 190.877C262.335 191.782 262.184 192.947 263.035 193.693Z" fill="#5D260F"/>
<path d="M246.075 174.853C245.54 174.647 245.091 174.262 244.799 173.758C244.508 173.255 244.39 172.662 244.466 172.075C245.205 165.517 245.946 158.95 246.726 152.016C247.966 153.559 249.003 154.819 248.676 156.681C247.792 161.793 247.737 166.976 247.058 172.108C247.051 173.107 246.703 174.079 246.075 174.853Z" fill="#A56837"/>
<path d="M245.064 157.299C244.903 156.78 244.85 156.232 244.907 155.687C244.964 155.143 245.131 154.615 245.396 154.136C245.555 154.655 245.608 155.203 245.551 155.748C245.494 156.292 245.328 156.82 245.064 157.299Z" fill="#A56837"/>
<path d="M122.883 416.111C127.786 426.267 120.006 444.395 107.859 447.647C98.9176 450.037 90.482 449.822 82.1724 446.039C76.6906 443.57 71.1203 441.257 66.1232 437.8C65.8249 437.666 65.5081 437.577 65.1831 437.539C65.0426 437.395 64.8627 437.299 64.6666 437.263C64.2429 436.589 63.2438 436.867 62.8649 436.13C58.6431 433.069 54.4893 429.894 50.5453 426.457C49.8091 425.985 49.2169 425.311 48.8334 424.509C50.7186 423.506 52.0335 424.749 53.2714 425.744C61.6821 432.76 71.0143 438.531 81.0036 442.893C86.8326 445.458 92.862 447.598 99.4651 447.02C109.464 446.141 116.74 441.241 120.863 431.605C121.587 429.924 122.027 428.131 122.163 426.307C122.705 418.75 121.979 417.492 114.939 415.703C100.298 411.979 86.3194 406.467 72.6541 400.09C67.8176 397.959 63.3161 395.118 59.2877 391.655C60.7838 393.099 62.9466 394.05 62.3548 396.8C61.1863 397.72 60.2968 396.85 59.4336 396.214C57.4256 394.686 55.3042 393.319 53.0879 392.128C49.1646 390.093 45.0664 391.179 42.8927 395.188C38.5357 403.239 40.7914 408.612 48.8232 412.016C50.4587 412.698 52.282 412.507 53.8493 413.367C54.1113 415.903 52.169 415.57 50.8422 415.616C48.3206 415.725 46.2884 414.207 44.1294 413.144C43.278 412.728 42.6329 411.964 41.324 411.421C43.0558 415.232 45.54 417.914 47.7454 420.811C48.5268 421.839 50.0517 422.754 48.889 424.506C46.8741 423.483 45.7565 421.531 44.3394 419.901C42.9223 418.271 41.7411 416.678 40.4523 415.046C35.166 407.283 34.7935 400.029 39.3428 392.794C40.9668 390.237 43.4183 388.674 45.7636 386.968C47.5901 386.306 49.4159 385.418 51.274 386.84C56.8858 387.562 61.5342 390.336 65.9406 393.751C70.347 397.165 75.3131 398.962 80.1767 401.192C88.2693 404.819 96.5654 407.962 105.024 410.605C110.908 412.515 117.033 413.917 122.883 416.111Z" fill="#6C382C"/>
<path d="M46.2365 387.599C45.7338 388.034 45.2047 388.435 44.6523 388.8C37.6682 392.781 34.9797 403.363 38.521 410.839C39.1832 412.23 40.21 413.459 40.4203 415.065C39.3534 414.636 38.3895 412.689 37.151 414.91C34.8145 407.958 34.7428 401.033 37.6586 394.127C38.5137 392.265 39.7962 390.64 41.3938 389.393C42.2303 388.682 43.3508 388.23 43.618 386.974C44.0526 386.702 44.571 386.615 45.061 386.732C45.5511 386.849 45.9733 387.16 46.2365 387.599Z" fill="#130607"/>
<path d="M62.8724 436.104C63.2441 436.118 63.6046 436.23 63.9197 436.428C64.2349 436.626 64.4945 436.905 64.6741 437.237C64.2949 437.257 63.9205 437.16 63.5992 436.958C63.278 436.756 63.0248 436.458 62.8724 436.104Z" fill="#422012"/>
<path d="M46.2359 387.599C45.3889 387.363 44.3958 387.653 43.6682 386.988C41.0033 383.087 39.528 378.648 38.4125 374.064C38.1081 372.272 38.7622 371.331 40.6033 371.372C41.0807 371.516 41.5088 371.791 41.8415 372.169C42.3685 372.946 43.0071 373.636 43.736 374.215C46.1222 377.577 49.5673 379.724 52.5733 382.334C53.1247 382.86 53.6341 383.431 54.0968 384.041L54.1477 384.055C54.4441 384.826 55.4748 384.5 55.8028 385.223L55.8452 385.235C55.5407 386.329 55.013 387.013 53.7642 386.712C52.9173 386.477 52.0898 386.171 51.2886 386.788L46.2359 387.599Z" fill="#100503"/>
<path d="M-21.883 147.673C-15.2196 147.14 -10.3841 144.617 -7.11771 138.649C-6.38211 140.589 -5.93672 142.637 -5.79654 144.724C-5.54621 146.871 -4.50167 148.823 -2.87888 150.177C-1.55656 151.328 -0.327644 152.585 1.06336 153.915C-0.517099 155.07 -2.20841 155.212 -3.78973 155.452C-4.99117 155.603 -6.15449 156.003 -7.20952 156.627C-8.26454 157.252 -9.18941 158.087 -9.92831 159.083C-10.894 160.324 -12.047 161.418 -13.4077 162.898C-13.8985 161.07 -14.2962 159.215 -14.5991 157.341C-14.825 155.311 -15.799 153.46 -17.3211 152.168C-18.6832 150.931 -19.9519 149.587 -21.883 147.673Z" fill="#FCFDFD"/>
<path d="M212.399 369.602C212.781 370.902 213.045 372.239 213.186 373.594C213.153 376.991 214.974 379.205 217.31 381.204C218.187 381.957 219.303 382.569 219.749 384.146C213.945 384.116 209.575 386.834 206.211 391.908C205.615 386.082 203.949 381.081 198.124 378.337C201.239 376.685 204.292 377.223 206.485 375.541C208.678 373.859 210.29 371.769 212.399 369.602Z" fill="#FDFEFC"/>
<path d="M96.5543 260.752C98.748 258.476 100.69 256.054 101.642 252.894C102.526 249.914 102.1 246.918 101.905 243.619C103.352 244.484 103.175 245.614 103.203 246.499C103.366 248.865 103.357 251.258 103.443 253.603C103.396 254.962 103.76 256.295 104.487 257.416C105.213 258.538 106.265 259.393 107.496 259.863C112.251 262.025 117.228 262.24 122.263 262.084C123.423 262.011 124.561 261.695 125.605 261.155C126.65 260.615 127.58 259.863 128.338 258.944C129.709 257.457 130.959 255.859 132.077 254.164C133.22 252.155 134.672 250.348 136.376 248.813C136.835 249.884 136.013 250.315 135.636 250.88C134.183 252.752 133.073 254.876 132.36 257.148C131.416 260.932 131.899 262.085 135.463 263.671C136.286 263.797 137.454 263.47 137.191 265.039C135.99 265.648 134.781 266.189 133.603 266.814C133.01 267.12 132.363 267.298 131.704 267.335C131.045 267.373 130.388 267.269 129.774 267.032C119.558 263.737 109.011 262.388 98.3219 262.008C97.3885 262.05 96.2671 262.342 96.5543 260.752Z" fill="#100503"/>
<path d="M81.7577 299.21C81.5799 299.849 81.3996 300.497 81.2642 301.148C80.9733 301.364 80.6212 301.473 80.2662 301.456C78.5863 301.262 77.0433 300.38 75.3146 300.427C72.5153 300.316 69.7097 300.361 66.9099 300.56C64.9964 301.583 63.1677 302.769 61.4433 304.106C60.4374 304.769 58.3425 306.658 58.1148 303.18C59.538 299.802 62.8155 299.403 65.5377 298.113C66.984 297.572 66.9084 296.466 66.6926 295.274C66.3433 292.101 66.224 288.955 67.3212 285.864C68.1556 284.209 67.9144 282.256 68.9738 280.711C69.494 279.165 70.182 277.682 71.0247 276.291C71.8075 275.839 71.4608 273.969 72.9512 274.516C74.2263 274.983 73.6419 276.198 73.5883 277.146C73.42 278.254 73.3375 279.373 73.3417 280.492C72.66 287.632 75.419 293.164 80.6409 297.55C80.9282 297.733 81.1754 297.974 81.3674 298.259C81.5594 298.544 81.6923 298.868 81.7577 299.21Z" fill="#130607"/>
<path d="M69.0312 280.736C68.7472 282.544 68.4605 284.351 68.1709 286.157C65.9173 293.077 61.4557 298.552 57.2444 304.211C55.1502 306.326 53.758 309.231 50.7481 310.309C49.6362 311.386 48.3746 312.281 47.5225 313.638C41.9993 318.403 36.3337 322.959 29.9507 326.485C19.2204 332.504 7.40154 336.112 -4.71175 337.067C-5.06152 337.164 -5.42829 337.164 -5.77486 337.068C-6.12143 336.971 -6.43547 336.782 -6.68513 336.518C-6.03664 335.303 -4.79651 335.667 -3.8824 335.562C1.92753 334.977 7.67673 333.802 13.2812 332.055C26.6417 327.8 38.8395 320.254 48.8044 310.08C56.8917 301.918 63.4773 292.321 68.2329 281.769C68.4589 281.394 68.7268 281.047 69.0312 280.736Z" fill="#170805"/>
<path d="M83.2405 269.84C90.2197 268.009 95.9016 270.938 101.306 274.8C102.436 275.709 103.192 277.022 103.429 278.485C104.263 281.654 104.274 285.007 103.461 288.211C102.364 292.151 101.421 296.134 98.7787 299.398C96.5909 302.507 93.3868 301.757 90.6701 301.256C85.3625 300.26 80.4939 298.113 76.9912 293.582C73.1298 288.603 72.9062 281.305 76.5314 276.474C77.8865 273.341 79.7624 270.731 83.2405 269.84Z" fill="#100503"/>
<path d="M76.5423 276.467C75.6629 279.628 74.6348 282.701 75.1555 286.11C75.446 288.353 76.2306 290.491 77.4498 292.36C78.669 294.229 80.2907 295.781 82.1919 296.897C85.799 299.117 89.8257 300.191 93.9156 301.102C95.9436 301.553 97.2194 300.182 98.7642 299.385C98.4822 300.258 97.9058 301.002 97.1405 301.483C96.3752 301.963 95.4722 302.146 94.5968 301.999C93.8609 301.955 92.9029 301.528 92.694 302.639C92.4851 303.751 93.5831 303.707 94.212 304.071C97.0623 305.732 100.297 306.471 103.228 307.938C103.909 308.278 104.696 308.403 104.961 309.288C97.5097 306.642 90.2507 303.475 83.234 299.809C82.755 299.563 82.2299 299.417 81.7279 299.221C76.4852 295.696 72.658 291.216 72.3514 284.348C72.3061 283.232 72.3637 282.106 72.3741 280.987C72.4072 278.638 73.6116 276.539 73.8298 274.213C73.8417 274.045 73.8906 273.881 73.9727 273.735C74.0549 273.588 74.1682 273.462 74.3039 273.366C74.4397 273.27 74.5944 273.207 74.7562 273.181C74.9181 273.155 75.0829 273.168 75.2381 273.218C75.0359 273.944 74.8337 274.671 74.7162 275.422C74.4155 277.159 74.4324 277.163 76.5423 276.467Z" fill="#6C382C"/>
<path d="M75.2678 273.207C73.2438 275.399 73.4843 278.437 72.4039 280.976C71.5756 279.001 73.4005 277.197 72.9439 275.23C71.9106 274.943 71.849 276.247 71.0815 276.316C73.3202 270.335 75.0277 264.263 76.8526 258.196C76.9647 257.793 77.1386 257.332 78.2098 257.385C77.6691 261.394 76.1617 265.107 75.193 269.573C78.0467 267.122 80.424 265.038 83.3593 263.704C87.5909 261.777 92.0332 261.193 96.5238 260.697C96.8079 261.578 97.6309 261.703 98.3167 262.026C96.5095 262.683 94.6119 262.419 92.7666 262.689C87.4839 263.474 82.2444 264.431 78.4962 268.983C77.3777 270.379 76.3572 271.85 75.2557 273.251L75.2678 273.207Z" fill="#170805"/>
<path d="M137.194 265.059C136.935 264.185 136.072 264.105 135.464 263.7C139.567 262.86 143.648 261.835 147.785 261.232C153.917 260.331 160.14 260.703 166.087 262.324C166.864 262.384 167.583 262.753 168.091 263.353C167.514 264.607 166.563 263.928 165.84 263.736C162.092 262.888 158.266 262.415 154.417 262.322C148.494 261.995 142.826 263.314 137.194 265.059Z" fill="#100503"/>
<path d="M185.551 302.172C185.446 299.039 187.256 297.193 187.678 294.886C188.168 292.439 188.313 289.938 188.111 287.46C187.893 285.192 187.29 282.967 186.762 280.207C191.052 285.155 190.416 296.167 185.551 302.172Z" fill="#130607"/>
<path d="M126.503 285.348C128.938 289.714 127.272 299.212 123.372 303.655C123.297 300.248 124.941 297.621 125.616 294.799C126.292 291.978 126.163 288.8 126.503 285.348Z" fill="#100503"/>
<path d="M104.014 158.727C109.974 161.479 115.666 163.553 122.191 163.548C121.988 164.107 121.588 164.57 121.072 164.844C120.555 165.118 119.961 165.184 119.407 165.028C114.1 164.193 108.862 163.113 104.321 159.954C104.192 159.861 104.213 159.556 104.014 158.727Z" fill="#170805"/>
<path d="M83.2396 269.84C80.3017 271.315 78.3412 273.836 76.5246 276.463C77.7013 272.167 79.6498 270.247 83.2396 269.84Z" fill="#6C382C"/>
<path d="M75.2563 273.251C75.4725 272.348 75.8737 271.5 76.4327 270.763C76.9917 270.027 77.6955 269.42 78.4968 268.983C78.2998 269.894 77.906 270.751 77.3449 271.49C76.7838 272.229 76.0698 272.831 75.2563 273.251Z" fill="#6C382C"/>
<path d="M50.7407 310.335L56.3865 303.916C57.2505 304.09 57.7544 302.475 58.7697 303.352C58.8404 303.787 58.5411 304.666 59.4681 304.122C60.7888 303.376 62.0335 302.477 63.3663 301.754C64.4568 301.114 65.5961 300.299 66.9514 300.544C66.365 301.569 65.2485 301.843 64.3903 302.501C63.9382 302.847 63.5586 303.26 63.7706 303.876C63.8518 304.076 63.9901 304.246 64.1676 304.362C64.3451 304.479 64.5535 304.537 64.7657 304.53C65.3939 304.601 66.017 304.755 66.6414 304.872C66.5042 305.825 65.7689 306.139 65.0301 306.367C59.2966 308.15 57.0888 313.035 55.896 318.241C54.3983 324.805 56.8017 330.106 62.2257 333.832C64.064 335.217 66.1395 336.239 68.3493 336.847C69.2809 337.106 70.2877 337.292 70.7871 338.317C70.0328 339.126 69.1714 338.811 68.3414 338.58C67.1896 338.26 66.0378 337.939 64.8859 337.619C64.2676 337.447 63.5648 337.185 63.0782 337.852C62.5917 338.518 63.081 339.088 63.5111 339.576C63.9412 340.064 64.4828 340.478 64.5711 341.211L63.2609 340.771C63.0037 340.876 62.7263 340.916 62.4531 340.886C62.1798 340.856 61.919 340.757 61.6936 340.599C52.6335 334.625 47.8812 321.86 53.4372 312.057C52.8747 312.504 53.06 313.839 51.8293 313.638C52.0143 312.35 52.8801 310.78 50.7407 310.335Z" fill="#6C382C"/>
<path d="M70.8122 338.324C68.0162 338.021 65.3276 337.096 62.9312 335.616C60.5348 334.135 58.4872 332.132 56.9291 329.745C53.949 325.435 54.0576 320.682 55.504 315.811C55.8984 314.626 56.4005 313.48 57.0036 312.389C59.0563 308.29 62.1743 305.611 66.6714 304.862C69.8454 304.802 72.6385 305.947 75.3024 307.556C78.9362 309.746 80.858 312.875 80.0212 317.359C78.918 323.259 77.3998 329.044 74.2992 334.285C73.4011 335.849 72.2164 337.221 70.8122 338.324Z" fill="#100503"/>
<path d="M80.6496 300.996C80.8476 301.07 81.0516 301.127 81.2594 301.166C88.5621 304.141 95.8526 307.16 103.176 310.093C107.237 311.732 111.287 313.444 115.453 314.801C123.323 317.378 131.523 318.112 139.762 318.508C140.744 318.554 141.725 318.667 142.706 318.751C142.117 319.455 141.291 319.376 140.555 319.332C136.627 319.117 132.699 318.901 128.789 318.558C123.783 317.975 118.862 316.837 114.111 315.164C110.701 314.073 107.402 312.58 104.068 311.247C99.5092 309.432 94.9427 307.642 90.398 305.774C87.2777 304.462 84.0868 303.329 80.8397 302.379C76.9703 301.169 72.9112 300.679 68.851 300.931C68.1923 300.999 67.5308 300.887 66.9341 300.605C69.7165 299.492 72.5614 300.057 75.389 300.127C77.2343 299.857 78.7946 301.301 80.6496 300.996Z" fill="#6C382C"/>
<path d="M172.583 336.355C174.267 340.767 173.764 345.231 172.514 349.723C171.493 353.391 170.067 356.815 166.943 359.22C168.032 355.306 170.555 352.074 171.503 348.111C172.45 344.148 172.218 340.291 172.583 336.355Z" fill="#130607"/>
<path d="M94.2672 348.151C95.0574 344.032 97.3248 341.163 98.3509 337.835C99.4054 334.36 100.094 330.785 100.405 327.171C102.839 330.952 99.0077 343.772 94.2672 348.151Z" fill="#170805"/>
<path d="M52.3658 382.918C49.1977 380.234 45.8112 377.811 43.0373 374.662C42.5397 374.024 41.9317 373.487 41.4499 372.824L40.9453 372.014C37.4134 368.966 37.4292 364.678 37.7498 360.541C38.5512 351.33 42.9386 343.89 53.4551 341.25C55.7623 341.222 58.3353 340.108 60.096 342.569C61.8492 343.057 63.5829 343.615 65.3226 344.184C66.679 344.54 67.8894 345.318 68.7905 346.413C66.9842 346.032 65.2422 345.395 63.614 344.52C61.1833 343.155 58.3429 343.459 55.6744 343.113C55.5093 343.097 55.3423 343.118 55.1841 343.172C55.026 343.227 54.8801 343.315 54.756 343.431C54.6319 343.546 54.5322 343.687 54.4634 343.844C54.3946 344 54.3581 344.17 54.3565 344.34C54.3445 344.626 54.4388 344.904 54.6202 345.118C54.8015 345.331 55.0562 345.464 55.3326 345.489C57.9675 346.162 60.4471 347.341 62.6417 348.966C63.702 349.714 64.9114 350.352 64.9729 351.935C62.1884 352.104 60.488 349.82 58.4395 348.589C52.1755 344.866 45.4151 348.239 42.606 355.09C39.1124 363.646 43.573 372.179 52.3034 374.089C54.6691 374.606 56.7178 372.883 59.011 373.267C57.6742 376.366 55.072 376.142 52.5376 375.871C50.2974 375.625 48.3858 374.395 46.5113 373.327C45.9369 372.997 45.3327 372.414 44.7785 372.996C44.0013 373.723 44.7469 374.487 45.1163 375.061C46.9843 377.76 49.916 379.227 52.2546 381.415C52.9822 382.08 53.9499 382.472 54.1247 383.614C53.7956 383.661 53.4618 383.622 53.1543 383.5C52.8468 383.378 52.5755 383.178 52.3658 382.918Z" fill="#6C382C"/>
<path d="M59.053 373.278C55.4456 376.143 51.9474 375.368 48.323 373.34C43.2026 370.491 39.998 366.496 40.4918 360.162C40.7375 355.929 42.5922 351.938 45.6543 349.051C47.2442 347.525 49.2371 346.521 51.3716 346.17C53.5061 345.82 55.6827 346.139 57.6161 347.087C60.3057 348.33 62.7961 349.976 65.0075 351.973C66.3537 356.121 65.675 360.168 64.1127 364.177C62.846 367.433 61.1427 370.497 59.053 373.278Z" fill="#170805"/>
<path d="M146.523 385.387C147.555 386.042 147.152 387.062 147.053 387.846C146.389 393.51 145.001 398.926 141.24 403.426C140.907 403.868 140.521 404.265 140.09 404.606C139.949 404.682 139.79 404.717 139.632 404.707C139.474 404.698 139.322 404.646 139.192 404.555C139.097 404.43 139.033 404.283 139.007 404.126C138.98 403.969 138.992 403.807 139.041 403.654C139.3 403.155 139.627 402.696 140.013 402.292C143.654 398.258 144.963 393.292 145.583 388.078C145.709 387.132 145.535 386.084 146.523 385.387Z" fill="#130607"/>
<path d="M78.0232 384.99C77.729 384.69 77.5555 384.286 77.5366 383.857C77.5176 383.428 77.6545 383.005 77.9206 382.669C80.0584 379.084 82.0886 375.461 82.5994 371.197C82.6559 370.732 82.8601 370.26 83.383 370.283C84.1371 370.295 84.1964 371 84.1169 371.516C83.338 376.483 81.2272 381.15 78.0232 384.99Z" fill="#100503"/>
<path d="M52.3652 382.918L54.1665 383.626C54.1552 383.782 54.1129 383.934 54.0422 384.073C53.6779 384.084 53.3211 383.979 53.0208 383.772C52.7205 383.566 52.4915 383.267 52.3652 382.918Z" fill="#6C382C"/>
<path d="M55.7681 385.251C55.4005 385.284 55.0353 385.186 54.7338 384.973C54.4324 384.76 54.2131 384.446 54.1129 384.083C54.4726 384.087 54.8213 384.2 55.1156 384.408C55.4099 384.615 55.6369 384.909 55.7681 385.251Z" fill="#6C382C"/>
<path d="M60.1042 342.572C57.8852 341.954 55.6453 342.199 53.3636 342.168C52.1409 342.234 50.8198 342.489 50.5372 340.684C48.3357 335.066 47.7124 328.901 48.7374 322.881C49.22 319.572 51.0163 316.789 51.8375 313.64C53.2859 312.534 53.0491 310.204 54.956 309.253C53.9361 312.46 52.3902 315.36 52.1859 318.718C51.7775 325.369 53.3351 331.217 57.9887 335.908C59.6769 337.613 61.5094 339.161 63.2691 340.773C63.1368 343.085 61.1898 341.949 60.1042 342.572Z" fill="#170805"/>
<path d="M50.588 340.698C51.2944 341.668 52.375 341.884 53.4143 342.182C40.31 343.989 35.3656 360.745 40.4033 370.156C40.7195 370.725 41.1422 371.305 40.9618 372.019C39.3222 371.648 38.795 372.756 38.4042 374.062C36.0096 367.019 36.2357 359.27 39.0394 352.296C40.6228 348.246 43.6401 344.944 47.4741 343.067C48.6251 342.472 50.0383 342.149 50.588 340.698Z" fill="#170805"/>
<path d="M48.8866 424.515C48.7974 422.867 47.4454 422.086 46.5684 421.04C44.2335 418.117 41.8416 415.234 40.217 411.792C39.8998 411.128 39.2823 410.494 39.8478 409.642C40.8848 409.195 41.5661 410.026 42.1293 410.56C43.9337 412.241 46.1534 413.151 48.2991 414.163C50.1884 415.047 52.2418 415.505 54.0365 413.646C54.4815 411.062 57.123 410.259 58.2487 408.148C59.6829 405.453 61.3734 402.952 61.2107 399.699C61.1594 399.248 61.2061 398.789 61.3472 398.355C61.4884 397.921 61.7207 397.524 62.0273 397.19C61.9974 396.281 61.6867 395.409 61.1401 394.703C60.5935 393.996 59.8395 393.491 58.9872 393.26C58.772 393.206 58.5693 393.112 58.3896 392.98C57.5073 392.216 55.9313 391.485 56.7749 390.125C57.7472 388.566 58.9783 389.946 59.7942 390.654C63.6198 393.985 67.9011 396.723 72.5062 398.785C78.0896 401.281 83.6645 403.776 89.3221 406.104C99.2737 410.25 109.617 413.053 119.96 415.892C120.705 416.039 121.383 416.423 121.9 416.989C122.416 417.555 122.745 418.277 122.84 419.052C124.345 426.008 122.745 432.119 118.655 437.934C113.897 444.705 107.286 447.346 99.6773 448.192C92.867 448.957 86.7217 446.578 80.6457 444.048C73.4185 440.909 66.5252 437.032 60.0677 432.474C57.7111 430.875 55.5609 428.994 53.3124 427.237C51.9343 426.155 50.6788 424.862 48.8648 424.528L48.8866 424.515Z" fill="#6C382C"/>
<path d="M62.037 397.155C62.941 402.991 60.477 407.551 56.6172 411.553C55.8016 412.292 54.9429 412.98 54.0462 413.611C48.6531 414.497 44.6195 411.809 41.4231 408.014C37.2649 403.084 41.1422 393.116 45.4829 391.125C46.7764 390.465 48.2018 390.136 49.6351 390.168C51.0685 390.2 52.4665 390.592 53.7079 391.31C56.7371 392.853 59.5395 394.82 62.037 397.155Z" fill="#100503"/>
<path d="M41.4492 372.824C41.8598 372.939 42.2277 373.173 42.5091 373.499C42.7906 373.825 42.9737 374.228 43.0367 374.662C42.6128 374.574 42.2298 374.348 41.9441 374.018C41.6583 373.687 41.4849 373.269 41.4492 372.824Z" fill="#6C382C"/>
<path d="M58.7695 303.352C58.3999 303.599 58.0122 303.811 57.6546 304.08C57.1565 304.46 56.6911 304.755 56.3778 303.913C60.6412 298.232 64.2904 292.134 68.1548 286.181C67.2258 289.356 67.6101 292.567 67.7402 295.773C67.7632 297.166 67.6266 298.477 66.0713 299.082C63.6238 300.401 60.7127 301.025 58.7695 303.352Z" fill="#6C382C"/>
<path d="M80.65 300.996C78.7718 301.417 77.1063 300.614 75.4148 300.134C77.2897 299.561 78.9441 300.437 80.65 300.996Z" fill="#130607"/>
<path d="M66.0891 299.049C66.9118 298.108 67.4868 296.968 67.758 295.74C68.1031 298.468 68.0667 298.533 66.0891 299.049Z" fill="#130607"/>
<path d="M89.8766 298.563C86.3703 297.588 82.9926 296.412 80.2809 293.696C74.3682 287.692 75.0792 278.938 81.2314 272.961C83.4783 270.756 86.36 270.303 89.2776 270.869C92.6161 271.514 95.7961 272.802 98.6512 274.666C99.8389 275.368 100.826 276.377 101.518 277.593C102.21 278.81 102.584 280.194 102.604 281.614C102.831 286.836 101.518 292.035 98.8378 296.528C96.7351 300.085 95.9795 300.242 92.0533 299.169L89.8766 298.563Z" fill="#6C382C"/>
<path d="M77.1855 323.287C76.206 327.155 74.6794 330.862 72.6552 334.29C71.0076 337.162 70.2796 337.45 67.2918 336.185C64.554 335.053 62.029 333.451 59.8227 331.446C55.4125 327.389 54.9789 321.175 57.1983 315.198C58.609 311.374 61.0038 308.276 65.0272 306.999C66.1183 306.602 67.2734 306.44 68.4201 306.524C69.5667 306.608 70.6801 306.935 71.6902 307.485C78.9019 311.312 79.7846 313.255 77.7043 321.422C77.5581 322.013 77.3584 322.665 77.1855 323.287Z" fill="#6C382C"/>
<path d="M63.0858 361.373C62.3703 364.825 60.9273 368.085 58.8593 370.923C56.6779 373.844 54.5839 374.45 51.3166 373.107C50.8061 372.909 50.3515 372.575 49.8313 372.411C41.7242 369.835 40.0484 360.18 43.8355 354.111C45.1586 351.98 46.3413 349.828 48.6131 348.582C49.614 347.96 50.7338 347.575 51.8901 347.454C53.0465 347.334 54.21 347.481 55.2951 347.885C57.7279 348.885 60.0609 350.118 62.2636 351.569C63.1298 352.063 63.8049 352.845 64.1807 353.789C64.5566 354.733 64.6115 355.786 64.3368 356.777C64.0303 358.305 63.512 359.84 63.0858 361.373Z" fill="#6C382C"/>
<path d="M80.5513 412.409C79.9162 418.563 76.5058 423.048 71.9782 426.826C72.7044 424.018 74.9469 422.19 76.4531 419.892C77.9593 417.594 78.5999 414.602 80.5513 412.409Z" fill="#100503"/>
<path d="M59.7502 403.179C59.233 406.112 57.744 408.786 55.5381 410.743C54.8489 411.493 53.9581 412.014 52.9836 412.236C52.0092 412.459 50.9971 412.372 50.0815 411.989C47.6592 410.972 45.3503 409.697 43.1918 408.185C42.5964 407.775 42.1036 407.228 41.7521 406.585C41.4006 405.942 41.1999 405.222 41.1657 404.48C40.7779 400.495 41.6 396.818 44.3833 393.8C45.2839 392.689 46.5185 391.918 47.8859 391.614C49.2534 391.309 50.6729 391.488 51.913 392.122C54.4726 393.382 56.8887 394.924 59.1197 396.721C59.7288 397.111 60.1915 397.7 60.4355 398.396C60.6794 399.092 60.6907 399.856 60.4677 400.567C60.196 401.577 59.9281 402.54 59.7502 403.179Z" fill="#6C382C"/>
</svg>
