<svg width="394" height="217" viewBox="0 0 394 217" fill="none" xmlns="http://www.w3.org/2000/svg">
<g clip-path="url(#clip0_290_723)">
<path d="M249.786 216.985C249.549 216.196 249.183 215.451 248.703 214.781C246.771 211.457 246.52 208.031 248.342 204.644C248.743 204.002 248.927 203.247 248.865 202.493C248.803 201.739 248.498 201.024 247.996 200.457C246.504 198.356 245.193 196.137 243.685 194.043C241.853 191.443 239.306 189.428 236.351 188.241C228.688 185.16 222.743 179.868 217.443 173.737C216.399 172.521 216.43 172.514 215.087 173.384C212.538 175.077 209.978 176.76 207.408 178.433C204.822 180.196 201.809 181.233 198.684 181.436C196.123 181.625 193.553 181.208 191.184 180.217C188.816 179.226 186.715 177.691 185.053 175.736C182.697 173.078 180.467 170.31 178.174 167.605C177.962 167.355 177.837 167.002 177.389 166.884C175.656 169.839 173.564 172.57 171.162 175.015C170.668 175.156 170.432 174.842 170.236 174.474C169.767 170.911 169.03 167.388 168.029 163.936C165.25 155.461 160.53 148.169 154.68 141.505C150.536 136.952 146.015 132.756 141.167 128.96C142.015 132.027 142.593 135.162 142.894 138.329C143.226 141.672 142.987 145.047 142.188 148.31C142.144 148.502 142.081 148.688 141.999 148.867C141.787 149.321 141.536 149.784 140.939 149.651C140.342 149.517 140.303 149 140.319 148.498C140.333 148.206 140.383 147.916 140.468 147.636C141.42 143.447 141.471 139.105 140.617 134.895C139.074 126.142 135.133 117.987 129.231 111.335C124.442 105.846 119.024 101.064 113.598 96.2417C113.307 95.9829 113.009 95.732 112.726 95.4576C110.198 93.0349 109.68 92.7684 105.91 92.0392C106.681 93.1269 107.688 94.0273 108.855 94.6736C109.939 95.3243 111.061 95.9202 112.082 96.6729C112.259 96.7653 112.393 96.9212 112.459 97.109C112.525 97.2967 112.516 97.5024 112.436 97.6843C112.247 98.1234 111.847 98.1391 111.446 98.1077C111.108 98.0629 110.78 97.9566 110.48 97.7941C108.638 96.9 106.915 95.7778 105.353 94.454C104.662 93.8327 104.138 93.0482 103.83 92.1725C102.762 89.8203 102.259 87.2644 101.474 84.8025C100.829 82.6056 100.042 80.4528 99.1183 78.3576C98.7025 77.4347 98.6383 76.3921 98.9377 75.4253C100.987 68.3028 100.453 60.6869 97.4301 53.9189C97.0938 53.3802 96.8868 52.771 96.8254 52.1392C96.8434 51.9112 96.911 51.69 97.0236 51.4909C97.1361 51.2918 97.291 51.1197 97.4772 50.9866C102.063 47.6701 107.41 45.8433 112.491 43.5382C119.856 40.1982 127.245 36.9209 134.642 33.6514C143.279 29.8253 151.814 25.7561 160.554 22.1259C167.008 19.4367 172.945 20.6911 177.923 25.5679C182.446 29.9977 187.032 34.357 191.562 38.7712C196.541 43.6323 201.519 48.4934 206.623 53.2211C210.447 56.765 214.012 60.5676 217.804 64.135C224.212 70.18 230.478 76.3661 236.815 82.4895C242.164 87.6642 247.53 92.8259 252.912 97.9744C258.141 102.992 263.434 107.947 268.577 113.059C270.552 114.911 271.828 117.387 272.189 120.069C272.573 123.283 270.964 125.784 268.6 127.799C266.942 129.076 265.206 130.249 263.402 131.312C252.841 138.306 242.201 145.15 231.577 152.05C223.246 157.468 214.915 162.885 206.529 168.217C203.058 170.428 199.265 171.675 195.002 170.953C191.931 170.445 189.145 168.854 187.149 166.469C182.171 160.745 177.287 154.935 172.317 149.22C167.692 143.896 163.106 138.541 158.505 133.194C154.578 128.584 150.566 123.981 146.632 119.347C142.572 114.557 138.521 109.774 134.367 105.07C130.865 101.095 127.496 96.9944 124.049 92.9644C119.17 87.2827 114.302 81.5905 109.444 75.8879C107.23 73.3005 104.905 70.8073 102.77 68.1572C102.542 67.8749 102.377 67.4908 101.867 67.3731C101.859 67.8137 101.945 68.2509 102.118 68.6562C102.291 69.0614 102.548 69.4257 102.872 69.7253C108.203 76.0525 113.527 82.3798 118.961 88.6129C126.098 96.7827 132.961 105.188 140.083 113.373C144.363 118.289 148.564 123.276 152.812 128.215C158.395 134.707 163.93 141.238 169.521 147.722C174.759 153.798 180.177 159.741 185.131 166.053C188.508 170.357 192.701 172.662 198.237 172.263C201.461 172.007 204.566 170.927 207.251 169.126C214.703 164.234 222.17 159.428 229.7 154.598C241.11 147.228 252.425 139.701 263.897 132.41C265.946 131.1 267.988 129.76 269.904 128.254C271.276 127.268 272.334 125.908 272.952 124.336C273.57 122.765 273.722 121.05 273.39 119.395C273.296 118.822 272.888 118.171 273.594 117.677C273.821 117.688 274.038 117.77 274.215 117.911C274.393 118.051 274.522 118.244 274.584 118.461C274.968 120.359 276.005 122.209 275.078 124.224C274.015 127.024 272.055 129.395 269.503 130.967C258.439 138.157 247.352 145.315 236.312 152.536C228.499 157.593 220.584 162.572 212.795 167.786C210.408 169.474 207.908 170.996 205.311 172.341C201.769 174.173 197.694 174.706 193.798 173.846C189.903 172.986 186.432 170.789 183.993 167.637C180.067 162.752 175.834 158.103 171.798 153.297C167.165 147.808 162.438 142.375 157.766 136.902C153.668 132.096 149.529 127.313 145.431 122.507C140.601 116.846 135.765 111.193 130.975 105.501C126.185 99.8091 121.293 94.0855 116.393 88.4247C111.493 82.7639 106.97 77.0639 101.914 71.4659C101.395 73.2535 101.427 74.602 102.746 76.1701C108.706 83.2893 114.626 90.4554 120.633 97.5275C126.837 104.835 132.969 112.189 139.196 119.481C145.807 127.18 152.375 134.919 158.897 142.696C162.431 146.899 166.129 150.968 169.608 155.241C173.874 160.29 178.18 165.308 182.524 170.295C184.644 172.733 186.45 175.532 189.238 177.351C194.554 180.746 199.996 180.777 205.437 177.798C209.41 175.626 213.085 172.96 216.862 170.467C224.141 165.677 231.397 160.855 238.73 156.151C242.5 153.736 246.221 151.242 249.967 148.788C254.529 145.801 259.107 142.837 263.646 139.819C264.117 139.505 264.556 139.035 265.216 139.254C265.585 139.905 264.988 140.187 264.69 140.572C264.101 141.356 263.119 141.724 262.601 142.532C258.934 145.966 257.709 150.325 257.811 155.178C257.811 155.813 258.039 156.613 257.152 156.676C256.264 156.739 256.17 155.892 256.162 155.186C256.055 153.634 256.121 152.074 256.359 150.537C256.444 150.348 256.479 150.141 256.461 149.935C256.444 149.729 256.373 149.532 256.257 149.361C255.084 149.788 253.971 150.362 252.943 151.07C247.062 154.724 241.392 158.706 236.595 163.732C232.582 167.919 229.049 172.49 226.929 177.978C226.081 180.119 226.057 180.174 227.863 181.632C230.357 183.667 233.148 185.309 236.139 186.501C240.414 188.129 243.998 191.173 246.292 195.125C247.164 196.584 248.192 197.948 249.064 199.414C249.794 200.622 249.904 200.622 250.634 199.328C253.005 195.126 255.811 191.185 259.005 187.567C263.28 182.637 268.137 178.24 273.469 174.474C279.609 170.072 286.388 166.635 293.57 164.281C294.251 164.013 294.968 163.85 295.698 163.795C296.424 163.765 297.141 163.628 297.826 163.387C298.792 163.16 299.821 162.917 300.747 163.622C300.527 164.563 299.664 164.406 299.028 164.61C294.825 165.673 290.725 167.109 286.778 168.899C280.686 171.754 274.983 175.374 269.809 179.672C263.142 185.153 257.436 191.706 252.927 199.061C251.479 201.429 250.264 203.931 249.3 206.533C248.318 209.136 248.773 211.559 249.998 213.982C250.47 214.915 251.427 215.761 251.003 217.016L249.786 216.985Z" fill="#010501"/>
<path d="M393.694 216.984H347.484C345.56 215.252 344.076 213.127 342.34 211.222C340.181 208.87 338.116 206.392 335.917 204.063C332.572 200.527 329.204 197.007 325.89 193.463C325.042 192.577 323.948 191.963 322.749 191.699C316.075 189.888 309.267 188.61 302.553 186.94C301.991 186.798 301.405 186.775 300.833 186.872C300.261 186.969 299.716 187.185 299.232 187.504C292.738 191.443 286.666 196.036 281.109 201.209C276.39 205.565 272.038 210.301 268.098 215.369C267.684 216.031 267.119 216.584 266.449 216.984H255.935C255.346 216.075 256.021 215.416 256.422 214.726C263.523 202.633 273.266 192.296 284.925 184.486C294.426 178.339 304.87 174.865 316.043 173.384C320.544 172.864 325.076 172.681 329.604 172.835C336.082 172.945 341.893 175.187 347.35 178.503C349.015 179.507 350.601 180.644 352.211 181.749C352.588 182.008 353.153 182.259 352.996 182.847C352.839 183.435 352.273 183.419 351.802 183.521C345.014 184.878 338.342 186.766 331.85 189.166C331.435 189.307 331.028 189.472 330.633 189.66C330.491 189.705 330.364 189.786 330.262 189.895C330.161 190.003 330.09 190.136 330.055 190.281C330.02 190.425 330.023 190.576 330.064 190.718C330.105 190.861 330.182 190.991 330.287 191.095C330.595 191.533 330.948 191.938 331.339 192.303C335.501 196.403 339.561 200.598 343.44 204.965C343.758 205.427 344.24 205.751 344.788 205.87C345.337 205.99 345.91 205.896 346.392 205.608C353.253 202.438 360.453 200.058 367.852 198.512C369.525 198.152 371.213 197.956 372.901 197.681C373.925 197.555 374.957 197.837 375.775 198.465C380.055 201.374 383.981 204.738 387.993 207.968C389.815 209.442 391.338 211.229 393.191 212.672C393.37 212.801 393.52 212.966 393.631 213.156C393.742 213.347 393.812 213.559 393.835 213.778C393.764 214.828 394 215.926 393.694 216.984Z" fill="#1E211A"/>
<path d="M135.427 216.984H52.0602C51.809 216.302 52.3036 215.894 52.657 215.455C56.8501 210.336 61.1531 205.318 65.6131 200.425C69.9057 195.721 74.3264 191.134 78.8755 186.665C81.0977 184.486 83.4847 182.479 85.7854 180.393C86.1908 180.045 86.6794 179.808 87.2037 179.705C87.728 179.602 88.2701 179.637 88.7771 179.805C98.6276 181.956 107.823 186.42 115.6 192.828C123.255 198.9 129.707 206.345 134.626 214.781C135.058 215.424 135.647 216.067 135.427 216.984Z" fill="#1C2117"/>
<path d="M50.0184 216.985H1.75095C1.60961 216.153 2.27704 215.769 2.74818 215.33C4.89445 213.354 7.0983 211.441 9.35973 209.591C14.4794 205.404 19.4184 200.966 24.3574 196.607C24.7882 196.22 25.3031 195.937 25.8618 195.782C26.4205 195.627 27.0075 195.603 27.5768 195.713C34.2669 196.458 40.423 198.85 46.4221 201.649C47.2074 201.994 47.9062 202.386 48.6443 202.754C51.1649 204.009 51.1413 203.993 52.963 201.79C55.6471 198.649 58.4962 195.652 61.4984 192.812L61.6083 192.71C63.2887 191.142 63.1787 190.421 61.1136 189.449C55.6795 186.803 49.9636 184.777 44.0743 183.412C43.2184 183.231 41.9464 183.325 41.7658 182.251C41.5852 181.177 42.7866 180.824 43.5011 180.307C49.5316 175.885 55.9861 172.349 63.4457 170.977C70.1135 169.793 76.9264 169.666 83.6337 170.6C86.2014 170.938 88.7219 171.479 91.2425 172.027C91.8794 172.064 92.4865 172.31 92.97 172.725C93.2213 173.509 92.546 173.744 92.1298 174.05C87.5598 177.375 83.4924 181.279 79.3543 185.09C71.4 192.405 64.2859 200.488 57.2111 208.611C55.2009 210.926 53.2431 213.279 51.3376 215.667C50.9867 216.187 50.5388 216.634 50.0184 216.985Z" fill="#1E2119"/>
<path d="M345.434 216.984H268.545C268.357 216.365 268.789 215.965 269.103 215.565C273.205 210.315 277.747 205.423 282.679 200.943C286.782 197.205 291.152 193.77 295.753 190.664C296.297 190.353 296.821 190.01 297.324 189.637C299.75 187.543 302.341 187.489 305.349 188.375C310.201 189.802 315.227 190.593 320.142 191.832C320.472 191.918 320.802 191.997 321.132 192.091C321.595 192.224 322.184 192.31 322.31 192.828C322.435 193.345 321.87 193.737 321.469 194.075C315.816 198.779 310.476 203.773 305.27 208.971C304.98 209.269 304.564 209.512 304.595 210.116C305.231 210.218 305.521 209.708 305.867 209.379C311.23 204.291 316.57 199.187 322.27 194.482C323.911 193.126 324.21 193.095 325.67 194.561C329.981 198.912 334.158 203.397 338.273 207.936C340.534 210.422 342.733 212.947 344.9 215.502C345.246 215.918 345.866 216.271 345.434 216.984Z" fill="#1F221B"/>
<path d="M250.957 216.984C250.75 216.186 250.416 215.426 249.967 214.734C249.477 213.782 249.042 212.803 248.664 211.802C248.216 210.558 248.153 209.209 248.483 207.929C249.439 204.505 250.934 201.255 252.912 198.301C259.301 188.054 267.966 179.413 278.235 173.046C284.81 168.839 292.061 165.795 299.672 164.046C300.001 163.967 300.331 163.865 300.653 163.779C301.925 162.838 303.496 162.995 304.909 162.642C306.362 162.509 307.814 162.376 309.259 162.18C310.606 161.934 311.993 162.025 313.296 162.445C314.599 162.865 315.778 163.601 316.727 164.587C318.739 166.498 320.612 168.549 322.333 170.726C323.267 171.964 323.189 172.231 321.673 172.419C318.101 172.866 314.512 173.156 310.963 173.831C299.699 175.879 289.077 180.553 279.963 187.473C269.927 195.086 262.044 204.565 255.503 215.236C255.235 215.861 254.886 216.449 254.466 216.984H250.957Z" fill="#5EA858"/>
<path d="M146.836 216.985H144.795C143.146 214.342 141.921 211.496 140.311 208.815C136.26 201.922 131.235 195.648 125.392 190.186C113.08 178.911 98.7887 171.839 82.0478 170.052C79.433 169.777 76.8182 169.566 74.1956 169.487C73.7166 169.487 73.1277 169.55 72.8843 169.056C72.6409 168.562 73.0649 168.115 73.379 167.778C75.8053 165.151 78.3965 163.019 82.3619 163.144C87.5226 163.247 92.6514 163.979 97.6344 165.324C104.104 166.973 110.306 169.531 116.056 172.921C120.493 175.552 124.633 178.651 128.407 182.165C134.205 187.431 139.211 193.505 143.271 200.198C144.99 202.922 146.446 205.802 147.622 208.799C148.642 211.637 148.603 214.405 146.836 216.985Z" fill="#5FA957"/>
<path d="M143.617 216.984H137.178C136.766 216.724 136.441 216.347 136.244 215.903C129.386 203.617 119.42 193.343 107.34 186.109C106.845 185.799 106.334 185.516 105.808 185.262C104.603 184.723 103.602 183.814 102.95 182.667C101.788 180.644 100.461 178.747 99.1576 176.779C98.8435 176.308 98.3724 175.877 98.5216 175.211C99.1262 174.56 99.8094 174.693 100.54 174.952C107.819 177.578 114.257 181.648 120.311 186.383C122.73 188.265 125.033 190.292 127.206 192.452C130.453 195.678 133.395 199.198 135.992 202.966C138.726 206.874 141.159 210.984 143.271 215.26C143.53 215.777 144.057 216.302 143.617 216.984Z" fill="#1D2118"/>
<path d="M143.617 216.984C142.677 214.643 141.531 212.389 140.193 210.249C137.923 206.301 135.362 202.527 132.529 198.959C131.744 198.018 131.014 197.062 130.174 196.176C129.224 195.133 128.258 194.114 127.308 193.04C126.029 191.644 124.64 190.354 123.154 189.182C121.301 187.7 119.526 186.117 117.602 184.721C112.225 180.705 106.313 177.456 100.037 175.069C99.4874 174.873 99.0948 175.171 98.6315 175.203C97.7599 174.999 97.1867 174.262 96.3465 174.019C95.9009 173.861 95.4406 173.748 94.9724 173.682C94.3285 173.392 93.5747 173.399 93.0172 172.898C90.9398 172.248 88.8163 171.755 86.6648 171.424C83.7212 170.866 80.7327 170.58 77.7368 170.569C76.6689 170.569 75.6403 170.232 74.5959 170.263C72.4052 170.318 70.2537 170.592 68.0786 170.804C66.4403 170.932 64.81 171.147 63.1945 171.447C58.7657 172.362 54.5113 173.977 50.5917 176.23C47.8653 177.815 45.2258 179.545 42.6846 181.412C42.4542 181.588 42.2412 181.784 42.0485 182C41.9936 182.055 42.0485 182.181 41.9857 182.361C43.072 182.848 44.2221 183.178 45.4014 183.341C48.3358 184.027 51.2213 184.907 54.0389 185.975C56.5673 186.861 58.9543 188.069 61.4199 189.112C61.725 189.258 62.0167 189.431 62.2915 189.629C63.807 190.617 63.862 190.821 62.7627 192.193C62.5375 192.505 62.2736 192.786 61.9774 193.032C61.1464 193.713 60.3596 194.446 59.6218 195.227C56.952 197.854 54.4472 200.621 52.013 203.46C51.3298 204.244 51.0943 204.322 50.1599 203.891C48.8328 203.271 47.5451 202.581 46.2338 201.954C41.9582 199.87 37.4869 198.213 32.885 197.007C30.9063 196.513 28.8883 196.325 26.8859 195.98C26.5286 195.913 26.1602 195.937 25.8146 196.05C25.4689 196.162 25.1569 196.359 24.9072 196.623C22.1589 199.155 19.4106 201.696 16.5446 204.079C13.8277 206.337 11.1187 208.619 8.40971 210.885C6.39255 212.478 4.46332 214.179 2.63049 215.981C2.28855 216.257 1.9987 216.591 1.7746 216.969H0C0.243418 216.185 0.965821 215.785 1.52333 215.283C5.44943 211.708 9.52472 208.321 13.5922 204.918C19.5363 199.955 25.1349 194.616 30.9063 189.472C36.4028 184.572 42.0328 179.868 48.346 176.057C54.0513 172.571 60.4563 170.384 67.1049 169.652C68.3209 169.637 69.5318 169.492 70.7169 169.22C71.8634 168.828 72.3895 167.519 73.2611 166.688C74.8865 165.12 76.5276 163.622 78.6948 162.846C78.9585 162.719 79.2501 162.659 79.5428 162.674C81.2232 162.384 82.9271 162.627 84.6153 162.525C85.0551 162.525 85.5812 162.807 85.9345 162.282C86.8297 162.007 87.5599 162.783 88.4237 162.65C88.5666 162.674 88.7081 162.705 88.8477 162.744C90.0569 162.917 91.2662 163.128 92.4832 163.238C92.6252 163.272 92.7643 163.316 92.8994 163.371C93.9987 164.03 95.3493 163.795 96.4957 164.32C97.0925 164.595 97.8541 164.665 97.7207 165.606C96.1502 165.269 94.5798 164.869 93.0093 164.595C89.1953 163.84 85.3155 163.467 81.4273 163.481C79.6119 163.513 77.8637 164.173 76.4805 165.347C75.126 166.408 73.8982 167.621 72.8213 168.962C73.199 169.135 73.6193 169.195 74.0306 169.134C86.547 169.322 98.4195 172.082 109.428 178.143C117.508 182.579 124.771 188.36 130.904 195.235C136.284 201.334 140.801 208.14 144.331 215.463C144.567 215.926 144.936 216.365 144.779 216.953L143.617 216.984Z" fill="#030502"/>
<path d="M254.466 216.984C254.444 216.718 254.475 216.45 254.557 216.195C254.639 215.941 254.771 215.706 254.945 215.503C262.413 202.958 271.804 192.201 284.061 184.141C291.94 179.002 300.738 175.432 309.974 173.627C313.935 172.843 317.947 172.34 321.98 172.121C322.12 172.146 322.265 172.137 322.402 172.094C322.538 172.052 322.663 171.978 322.765 171.878C321.273 170.005 319.734 168.146 318.054 166.39C317.582 165.896 317.088 165.426 316.609 164.94C315.71 164.003 314.599 163.296 313.369 162.88C312.138 162.463 310.826 162.35 309.542 162.548C308.05 162.713 306.55 162.831 305.05 162.972C305.592 162.086 306.173 161.27 307.406 161.537C308.232 161.589 309.061 161.555 309.879 161.435C311.264 161.279 312.665 161.443 313.976 161.913C315.287 162.383 316.473 163.148 317.441 164.148C319.121 165.786 320.582 167.574 322.152 169.346C322.938 170.232 323.527 171.384 324.508 171.925C325.49 172.466 326.793 172.082 327.955 172.074C336.019 172.074 343.228 174.623 349.784 179.178C359.73 186.088 369.616 193.082 379.442 200.159C384.082 203.542 388.509 207.208 392.697 211.136C393.131 211.45 393.492 211.853 393.757 212.319C393.835 212.727 393.969 213.103 393.655 213.503C392.483 212.639 391.383 211.682 390.365 210.642C388.315 208.65 386.054 206.886 383.831 205.09C382.481 203.993 381.154 202.856 379.756 201.813C378.131 200.598 376.435 199.461 374.778 198.293C374.265 197.996 373.655 197.914 373.082 198.065C369.769 198.487 366.491 199.15 363.274 200.049C361.005 200.739 358.712 201.366 356.435 202.033C352.925 203.052 349.659 204.698 346.298 206.094C344.806 206.713 344.578 206.776 343.503 205.592C339.294 200.943 334.865 196.482 330.507 191.997C328.662 190.115 329.055 189.864 331.292 188.986C337.253 186.785 343.355 184.985 349.557 183.6C350.625 183.341 351.716 183.184 352.855 182.965C352.737 182.455 352.352 182.306 352.069 182.11C349.18 179.979 346.106 178.11 342.882 176.528C339.481 174.864 335.808 173.825 332.038 173.462C329.259 173.25 326.503 173.258 323.731 173.25C319.704 173.276 315.688 173.67 311.733 174.427C307.458 175.222 303.256 176.365 299.169 177.845C293.102 180.083 287.365 183.129 282.114 186.901C276.869 190.586 272.346 195.047 267.98 199.665C265.19 202.631 262.667 205.837 260.442 209.246C259.225 211.112 258.008 212.978 256.814 214.86C256.313 215.46 256.019 216.205 255.974 216.984H254.466Z" fill="#010501"/>
<path d="M96.5193 173.752C97.3972 173.945 98.1626 174.478 98.6472 175.234C100.422 178.018 102.181 180.809 103.963 183.584C104.335 184.036 104.82 184.382 105.369 184.588C109.817 187.002 114.01 189.857 117.885 193.11C122.314 196.84 126.336 201.026 129.883 205.6C132.685 209.145 135.129 212.959 137.178 216.985H135.427C132.988 212.33 130.021 207.971 126.585 203.993C121.657 198.144 115.905 193.042 109.507 188.845C102.977 184.58 95.7024 181.578 88.0625 179.993C87.7334 179.911 87.3886 179.915 87.0613 180.004C86.7341 180.093 86.4353 180.265 86.1937 180.503C80.7521 185.301 75.5147 190.311 70.5678 195.619C68.0158 198.356 65.4638 201.108 62.9668 203.883C59.4333 207.835 56.0019 211.875 52.6726 216.004C52.4502 216.319 52.2458 216.647 52.0601 216.985H50.0186C50.5468 216.004 51.2161 215.106 52.0052 214.319C57.9964 206.98 64.2939 199.916 70.8505 193.048C76.8895 186.724 83.2976 180.763 90.0412 175.195C91.0149 174.411 92.0592 173.69 93.0722 172.937C93.7883 172.866 94.5051 173.065 95.0823 173.494C95.1373 174.278 94.462 174.411 94.0302 174.717C92.5225 175.775 91.0385 176.865 89.4366 178.214C93.2434 179.23 96.9896 180.46 100.657 181.899C99.1655 179.484 97.5951 177.32 96.1817 175.07C95.899 174.599 95.1452 173.854 96.5193 173.752Z" fill="#65A75D"/>
<path d="M345.434 216.984C345.513 216.592 345.238 216.357 345.01 216.106C342.113 212.829 339.254 209.52 336.294 206.298C332.651 202.315 328.976 198.363 325.16 194.537C324.076 193.447 324.076 193.455 322.945 194.38C318.674 197.917 314.559 201.633 310.563 205.475C308.953 207.043 307.327 208.572 305.71 210.116C304.925 210.9 304.438 211.026 304.139 210.587C303.66 209.912 304.234 209.505 304.634 209.113C306.605 207.16 308.56 205.192 310.578 203.295C313.468 200.614 316.412 198.003 319.349 195.376C320.284 194.545 321.273 193.769 322.239 192.969C321.775 192.42 321.147 192.467 320.613 192.342C314.559 190.915 308.497 189.535 302.451 188.092C302.012 187.974 301.552 187.95 301.103 188.021C300.654 188.093 300.225 188.259 299.844 188.508C295.839 190.912 292.001 193.584 288.356 196.505C284.034 199.985 279.962 203.763 276.17 207.811C273.38 210.661 270.823 213.729 268.522 216.984H266.48C268.492 214.184 270.665 211.503 272.99 208.956C278.218 203.119 284.004 197.804 290.265 193.087C293.255 190.833 296.378 188.76 299.617 186.877C299.978 186.635 300.386 186.469 300.814 186.393C301.243 186.316 301.682 186.328 302.106 186.43C308.246 187.873 314.402 189.284 320.551 190.719C321.728 190.993 322.906 191.331 324.076 191.613C324.681 191.809 325.214 192.18 325.607 192.679C328.591 195.815 331.551 198.951 334.551 202.088C338.901 206.604 342.976 211.371 347.115 216.114C347.334 216.365 347.609 216.592 347.546 216.984H345.434Z" fill="#64A75D"/>
<path d="M97.6894 165.637C96.9041 164.359 95.4986 164.406 94.3051 164.234C94.0106 164.228 93.7203 164.164 93.4507 164.046C93.1812 163.927 92.9378 163.757 92.7346 163.544C93.2136 163.113 93.7476 163.317 94.2579 163.426C102.78 165.131 110.918 168.378 118.27 173.007C123.253 176.16 127.86 179.869 132.003 184.062C136.505 188.52 140.459 193.497 143.782 198.889C143.884 199.053 143.986 199.218 144.096 199.383C144.881 200.598 145.007 200.614 145.666 199.296C147.33 195.886 149.243 192.602 151.391 189.472C153.16 186.841 155.507 184.648 158.253 183.059C162.287 180.792 166.031 178.047 169.404 174.881C169.718 174.583 170.024 174.238 170.526 174.309C170.594 174.47 170.694 174.615 170.819 174.736C170.945 174.857 171.094 174.952 171.257 175.015C169.317 177.122 167.152 179.013 164.802 180.652C163.108 181.876 161.338 182.992 159.502 183.992C155.874 185.952 153.385 189.01 151.186 192.381C149.271 195.477 147.543 198.684 146.012 201.986C145.879 202.213 145.808 202.471 145.808 202.734C145.808 202.998 145.879 203.256 146.012 203.483C146.585 204.549 147.033 205.678 147.582 206.753C148.406 208.19 148.893 209.796 149.008 211.448C149.122 213.1 148.86 214.757 148.242 216.294C148.155 216.522 148.093 216.757 148.014 216.984H146.836C147.001 216.475 147.135 215.965 147.323 215.463C147.759 214.301 147.956 213.062 147.903 211.822C147.851 210.581 147.549 209.364 147.017 208.242C145.401 204.549 143.468 201.002 141.238 197.642C136.948 191.26 131.813 185.486 125.973 180.479C118.029 173.626 108.633 168.658 98.4903 165.951C98.2155 165.873 97.9092 165.88 97.6894 165.637Z" fill="#0F0302"/>
<path d="M393.655 213.472C393.655 213.08 393.725 212.688 393.757 212.288C393.771 212.271 393.789 212.258 393.81 212.249C393.83 212.24 393.852 212.235 393.874 212.235C393.897 212.235 393.919 212.24 393.939 212.249C393.959 212.258 393.977 212.271 393.992 212.288C393.992 213.746 393.992 215.205 393.992 216.663C393.992 216.914 393.937 217.016 393.686 216.953C393.686 215.816 393.67 214.648 393.655 213.472Z" fill="#B1B2B0"/>
<path d="M307.453 161.513C306.464 161.662 305.945 162.595 305.097 162.948L300.669 163.779C299.731 163.404 298.685 163.404 297.748 163.779C297 164.076 296.193 164.194 295.392 164.124C295.588 163.34 296.326 163.34 296.892 163.191C299.734 162.438 302.618 161.852 305.529 161.435C305.027 160.298 304.461 159.302 303.959 158.299C302.052 154.68 301.622 150.466 302.757 146.538C304.783 139.325 306.542 132.033 309.086 124.977C310.076 122.233 311.151 119.488 312.054 116.736C313.003 113.923 313.658 111.02 314.01 108.073C314.097 106.665 313.978 105.252 313.656 103.878C312.35 97.0417 311.823 90.0794 312.086 83.1245C312.18 80.8508 312.565 78.5927 312.086 76.2955C311.94 75.1377 311.677 73.9976 311.301 72.8927C310.138 70.2656 309.292 67.51 308.78 64.6838C308.707 64.297 308.543 63.9331 308.301 63.6223C308.06 63.3114 307.747 63.0625 307.39 62.8961C303.464 60.7949 302.467 57.2824 302.679 53.1818C302.726 52.1626 302.773 51.1512 302.891 50.1319C302.991 49.0152 303.344 47.9358 303.924 46.9754C304.503 46.0151 305.294 45.1989 306.236 44.5887C306.581 44.3535 307.139 44.1732 307.06 43.6714C306.982 43.1696 306.369 43.0441 305.922 42.8873C302.695 41.9857 299.907 43.0128 297.543 45.0983C292.934 49.1518 290.217 54.3109 288.686 60.2226C287.846 63.4999 287.901 66.7693 287.901 70.0702C288.012 71.5978 288.398 73.093 289.04 74.4843C289.559 75.7518 289.642 77.1555 289.275 78.4751C288.008 83.2228 287.017 88.0396 286.307 92.9015C286.188 93.8526 285.84 94.7607 285.293 95.5485C284.746 96.3362 284.016 96.9802 283.166 97.4255C282.993 97.5117 283.213 97.4255 283.04 97.496C279.593 99.4561 276.35 101.683 273.932 104.905C273.626 105.313 273.217 105.909 272.628 105.493C272.04 105.078 272.204 104.435 272.487 103.925C273.382 102.255 274.843 101.079 276.201 99.8403C277.665 98.4764 279.325 97.3376 281.124 96.4611C281.746 96.1729 282.327 95.8038 282.852 95.3634C283.284 94.9949 284.022 94.5794 283.763 94.0149C283.504 93.4504 282.632 93.6464 282.043 93.764C280.766 94.0803 279.522 94.5188 278.329 95.0733C278.022 95.2191 277.704 95.3423 277.379 95.4418C277.196 95.4931 277.001 95.481 276.826 95.4073C276.651 95.3337 276.506 95.203 276.415 95.0364C276.323 94.8699 276.292 94.6774 276.324 94.4905C276.357 94.3035 276.452 94.1331 276.594 94.007C276.934 93.6563 277.351 93.3881 277.811 93.223C279.553 92.4393 281.408 91.9365 283.307 91.7333C284.25 91.6549 284.744 91.2707 284.807 90.322C284.887 89.1088 285.109 87.909 285.467 86.7468C285.733 85.8628 285.815 84.9339 285.708 84.0171C285.601 83.1003 285.308 82.2149 284.846 81.4153C283.873 79.4552 282.836 77.495 281.761 75.6212C279.161 70.9875 277.143 66.0794 274.858 61.2967C271.922 55.1576 269.48 48.752 265.585 43.1147C260.512 35.8153 255.534 28.4609 249.7 21.8044C247.062 18.8172 244.353 15.877 241.432 13.1799C240.677 12.4881 239.841 11.8904 238.942 11.4001C234.459 8.95389 230.234 11.4001 228.421 14.8891C227.596 16.4572 227.855 18.2213 228.271 19.8913C229.108 23.717 230.868 27.2806 233.399 30.2721C237.875 35.2821 240.694 41.3428 244.156 47.0428C244.997 48.4148 245.68 49.8967 246.645 51.1668C248.891 54.295 250.556 57.8004 251.561 61.5162C252.857 65.7501 254.411 69.8898 256.115 73.9825C256.775 75.5506 256.9 75.6682 258.471 74.994C262.972 72.9579 267.852 71.8894 272.793 71.8578C273.649 71.8578 274.992 71.5598 274.976 72.8535C274.976 74.0296 273.665 73.763 272.84 73.7552C267.603 73.7496 262.441 75.0085 257.796 77.4245C253.398 79.6277 248.868 81.5878 244.69 84.2065C243.293 85.0768 243.23 85.2101 244.408 86.3077C248.75 90.3534 252.935 94.5637 257.285 98.6094C258.227 99.4875 258.785 99.0798 259.437 98.3114C261.229 96.1206 263.137 94.0269 265.153 92.0391C266.35 90.8825 267.666 89.855 269.079 88.9735C269.707 88.5814 270.516 87.8209 271.129 88.6206C271.741 89.4204 270.791 90.0006 270.194 90.424C266.745 93.0507 263.633 96.0922 260.929 99.4797C259.696 100.938 259.712 100.977 261.196 102.208C261.643 102.584 262.051 102.992 262.476 103.416C265.067 105.909 267.548 108.52 270.241 110.927C273.327 113.559 275.429 117.157 276.206 121.135C276.983 125.112 276.389 129.235 274.521 132.833C273.636 134.577 272.363 136.095 270.799 137.271C268.498 139.003 266.048 140.501 263.622 142.038C263.253 142.273 262.884 142.547 262.405 142.32C262.523 141.802 262.947 141.591 263.324 141.301C264.11 140.77 264.776 140.081 265.279 139.278C265.279 138.407 266.064 138.172 266.582 137.866C269.774 136.148 272.328 133.452 273.869 130.175C274.843 129.524 275.251 128.748 274.45 127.682C274.348 126.498 274.819 125.33 274.654 124.161C274.949 123.777 275.128 123.317 275.168 122.834C275.209 122.352 275.109 121.868 274.882 121.441C274.673 120.946 274.595 120.406 274.654 119.873C274.691 119.437 274.601 119.001 274.394 118.615C274.188 118.23 273.875 117.912 273.492 117.701C272.102 116.588 271.482 114.886 270.296 113.592C269.111 112.299 267.768 111.17 266.551 109.931C263.339 106.669 259.908 103.659 256.657 100.413C250.846 94.6578 244.839 89.1068 238.982 83.4067C234.27 78.8279 229.488 74.3197 224.754 69.7722C217.977 63.2646 211.279 56.6708 204.503 50.1711C200.043 45.8902 195.685 41.5074 191.107 37.352C186.207 32.93 181.723 28.0454 176.674 23.8037C174.115 21.7438 170.939 20.5984 167.652 20.5499C163.569 20.3539 160.004 21.726 156.424 23.3176C146.114 27.9121 135.843 32.4595 125.549 37.054C118.388 40.2529 111.211 43.4126 104.065 46.6429C102.338 47.427 100.618 48.211 98.9534 49.1518C98.5583 49.3168 98.2251 49.6017 98.0011 49.9661C97.777 50.3305 97.6734 50.7561 97.7049 51.1825C97.3515 51.4099 97.2495 51.8098 97.061 52.1469C96.2758 52.092 96.0795 51.4177 95.7497 50.9003C94.1832 48.3746 92.1564 46.1646 89.7742 44.3849C86.9081 42.2836 83.7908 42.1425 80.5871 42.9422C80.4772 43.201 80.4772 43.3107 80.5871 43.3578C84.2462 45.114 84.7173 48.4933 84.9372 51.9823C85.0236 53.2916 84.9372 54.6088 84.9372 55.9025C84.9832 56.7847 84.7883 57.6627 84.3734 58.443C83.9585 59.2232 83.3392 59.8762 82.5815 60.3323C82.3616 60.5246 82.1125 60.6808 81.8434 60.7949C79.0952 61.5162 78.0508 63.4371 77.9173 66.1107C77.8494 66.8893 77.6558 67.6518 77.3441 68.3688C75.491 73.073 75.5381 77.9498 76.1899 82.8736C77.111 88.9805 77.1533 95.1876 76.3155 101.306C75.5543 106.741 76.5269 112.277 79.0952 117.129C83.7123 126.459 87.8425 136.008 91.8393 145.613C92.4478 147.025 92.7688 148.544 92.7836 150.081C92.7984 151.618 92.5068 153.143 91.9257 154.567C91.0396 156.77 89.9209 158.873 88.5885 160.839C88.0702 161.623 87.9446 162.235 88.5885 162.932C87.5677 163.183 86.7197 162.681 85.8481 162.282C87.2615 160.071 88.5728 157.813 89.7742 155.5C90.615 154.011 91.0905 152.344 91.1615 150.637C91.2324 148.929 90.8969 147.229 90.1825 145.676C87.5913 139.544 84.9922 133.421 82.2361 127.36C81.0111 124.655 79.6841 122.013 78.3963 119.34C76.628 115.925 75.3738 112.268 74.6744 108.488C74.4113 106.362 74.3955 104.213 74.6273 102.083C74.855 99.1739 75.2711 96.2808 75.3183 93.3641C75.2809 89.2286 74.9634 85.1003 74.3681 81.0076C73.9049 77.1579 73.8656 73.3475 75.279 69.6468C76.1902 67.026 76.791 64.3078 77.0693 61.5476C77.2578 60.0893 76.8651 58.5604 76.7002 57.0629C76.3862 54.3109 75.915 51.5745 75.8129 48.799C75.7253 47.6425 75.845 46.4795 76.1663 45.3649C76.4923 44.3661 77.0644 43.4651 77.8299 42.7445C78.5955 42.0239 79.53 41.5069 80.5478 41.2408C84.0185 40.1353 87.1908 41.0056 90.1903 42.7697C92.1402 43.9999 93.8311 45.5978 95.1686 47.474C95.522 47.9287 95.891 48.3756 96.2758 48.8618C102.251 45.4747 108.627 43.0833 114.799 40.2373C115.36 40.0586 115.828 39.6672 116.103 39.1474C117.532 35.8623 119.722 33.0554 121.733 30.1309C127.037 22.4495 132.831 15.1167 139.078 8.17768C140.087 7.05635 141.188 6.02048 142.368 5.08071C146.977 1.3957 152.231 2.47768 155.795 5.3708C156.96 6.40877 157.841 7.72543 158.355 9.19694C158.881 8.99309 159.015 8.48346 159.282 8.09928C160.372 6.42618 161.559 4.81871 162.839 3.28524C166.255 -0.533052 170.534 -0.878032 174.955 1.82692C178.496 4.00657 179.957 7.26819 179.36 11.4079C179.305 11.7921 179.274 12.192 179.211 12.5605C179.148 12.929 179.077 13.2112 178.975 13.7209C179.671 13.6853 180.368 13.6853 181.064 13.7209C183.201 13.9557 185.178 14.9619 186.624 16.5501C188.07 18.1383 188.885 20.1992 188.916 22.3454C189.01 24.5376 188.745 26.7305 188.131 28.8373C187.935 29.5351 188.005 29.7938 188.806 30.0368C190.193 30.3888 191.426 31.1838 192.317 32.3007C193.209 33.4176 193.71 34.795 193.745 36.223C193.789 36.9415 193.988 37.6421 194.328 38.2768C194.668 38.9115 195.142 39.4652 195.716 39.9001C196.336 40.4333 196.925 40.9978 197.805 41.7975C197.318 40.4803 196.957 39.4924 196.596 38.5045C195.461 35.7007 194.926 32.6909 195.025 29.6683C195.118 27.61 195.847 25.631 197.113 24.0036C198.378 22.3763 200.118 21.1806 202.092 20.5813C202.745 20.3849 203.421 20.2768 204.102 20.2598C204.805 20.2329 205.508 20.2855 206.199 20.4166C206.241 19.9125 206.191 19.4049 206.05 18.9191C205.484 15.532 206.411 12.6467 209.12 10.4593C211.829 8.27177 214.868 7.15842 218.362 8.06008C220.717 8.66379 222.288 10.3103 223.741 12.1371C224.636 13.2818 225.421 14.4892 226.261 15.6888C226.748 15.5634 226.615 15.1322 226.717 14.8499C228.719 9.36159 235.354 7.30739 240.419 10.5533C241.869 11.4743 243.189 12.5843 244.345 13.8542C247.211 16.9903 250.155 20.0168 252.888 23.2627C255.88 26.7987 258.432 30.6562 261.211 34.3491C261.847 35.2037 262.421 36.121 263.104 36.9443C266.552 41.2768 269.453 46.0167 271.741 51.0571C274.709 57.2353 277.583 63.5077 280.496 69.7801C281.517 71.9832 282.703 74.1001 283.849 76.2484C284.776 77.9968 285.71 79.7453 286.817 81.8151C287.257 79.9491 287.642 78.3889 287.972 76.8208C288.029 76.2835 287.937 75.7407 287.705 75.2527C285.161 68.3688 286.189 61.6574 288.725 55.0557C289.905 52.1171 291.513 49.3692 293.5 46.9016C295.066 44.8344 297.104 43.1705 299.444 42.0484C300.611 41.4318 301.899 41.0786 303.218 41.0135C304.537 40.9485 305.854 41.1733 307.076 41.6721C308.088 42.0492 308.97 42.7086 309.617 43.5717C310.264 44.4349 310.65 45.4655 310.727 46.541C310.83 48.4344 310.774 50.3331 310.562 52.2175C310.413 54.648 310.264 57.0707 310.028 59.4934C309.777 63.2558 310.445 67.0229 311.976 70.47C313.405 73.8849 313.981 77.5953 313.656 81.282C313.079 87.5869 313.386 93.9414 314.567 100.162C314.889 101.879 315.109 103.619 315.297 105.36C315.713 109.21 314.905 112.91 313.688 116.525C312.172 120.994 310.547 125.424 309.07 129.854C307.147 135.569 305.859 141.465 304.084 147.228C303.811 148.252 303.661 149.305 303.637 150.364C303.548 152.56 303.987 154.746 304.917 156.738C305.615 158.404 306.464 160.002 307.453 161.513Z" fill="#0F0302"/>
<path d="M85.9344 162.297C85.7146 162.862 85.212 162.689 84.8037 162.689C83.0527 162.689 81.2938 162.689 79.5427 162.689C80.7284 162.141 81.9848 162.407 83.2176 162.344C84.1206 162.297 85.0314 162.587 85.9344 162.297Z" fill="#0F0302"/>
<path d="M166.655 23.1216C168.244 23.0372 169.832 23.2843 171.319 23.8473C172.806 24.4102 174.16 25.2766 175.293 26.3911C178.756 29.8174 182.305 33.1496 185.799 36.5366C200.561 50.8585 215.318 65.1673 230.07 79.4631C241.775 90.8108 253.501 102.145 265.248 113.467C266.366 114.484 267.271 115.713 267.909 117.082C269.425 120.555 268.608 123.762 265.499 125.949C262.798 127.854 260.002 129.65 257.254 131.437C251.679 135.096 246.101 138.755 240.521 142.414L220.686 155.319C215.59 158.644 210.478 161.945 205.398 165.277C203.29 166.789 200.808 167.697 198.221 167.903C196.387 168.02 194.552 167.702 192.865 166.974C191.178 166.246 189.688 165.13 188.516 163.717C183.294 157.75 178.112 151.736 172.921 145.738C164.441 135.953 155.971 126.163 147.512 116.368C140.225 107.942 132.948 99.5006 125.682 91.0434L110.426 73.3632C107.622 70.1173 104.835 66.8713 102.032 63.6411C101.727 63.331 101.543 62.9222 101.513 62.4885C101.295 59.7773 100.607 57.1245 99.4797 54.6481C99.2633 54.2639 99.1925 53.8148 99.2805 53.3829C99.3685 52.951 99.6092 52.5652 99.9587 52.2959C100.971 51.3105 102.152 50.5139 103.445 49.9438C106.154 48.7364 108.871 47.5446 111.564 46.3058C111.91 46.0857 112.324 45.9992 112.729 46.0628C113.134 46.1263 113.502 46.3354 113.763 46.6508C115.914 48.8305 118.561 49.1754 121.309 48.1013C124.057 47.0272 126.743 45.7492 129.444 44.5104C136.354 41.3742 143.261 38.238 150.166 35.1018C151.062 34.7174 151.921 34.253 152.733 33.7141C154.5 32.5066 154.822 31.0483 153.754 29.198C152.969 27.8886 153.055 27.6848 154.461 27.0654C156.644 26.1088 158.834 25.168 161.017 24.2193C162.792 23.4394 164.718 23.0644 166.655 23.1216Z" fill="#FDFEFD"/>
<path d="M262.405 142.343C265.664 140.313 269.071 138.478 271.867 135.812C274.095 133.596 275.507 130.691 275.871 127.572C276.215 125.213 276.149 122.813 275.675 120.476C275.028 117.455 273.488 114.696 271.254 112.557C267.697 108.951 263.968 105.501 260.308 102.028C259.929 101.712 259.533 101.416 259.123 101.142C260.246 99.7853 261.156 98.5936 262.177 97.4959C264.619 94.8537 267.022 92.1566 270.029 90.1416C270.186 90.0318 270.336 89.9064 270.493 89.7888C270.838 89.53 271.364 89.2478 271.011 88.7774C270.658 88.3069 270.226 88.7225 269.849 88.9498C267.04 90.798 264.512 93.0397 262.342 95.6064C261.274 96.806 260.23 98.0291 259.146 99.2051C258.361 100.083 258.29 100.075 257.434 99.2522C254.294 96.2624 251.153 93.2673 248.012 90.267C246.441 88.7852 244.871 87.3269 243.363 85.8372C242.578 85.0531 242.578 85.0531 243.513 84.4651C246.73 82.5173 250.057 80.7556 253.477 79.1885C254.835 78.5299 256.147 77.7772 257.505 77.1264C262.394 74.6665 267.782 73.3576 273.257 73.3003C273.806 73.3003 274.78 73.661 274.772 72.7436C274.772 72.0145 273.846 72.2575 273.304 72.2418C268.029 72.1952 262.81 73.3284 258.031 75.5584C257.851 75.6281 257.675 75.7093 257.505 75.8014C256.869 76.1934 256.555 75.919 256.28 75.3231C255.291 73.1513 254.474 70.9168 253.65 68.6823C252.228 64.8561 250.886 60.9986 249.724 57.0863C249.453 56.2485 249.059 55.4558 248.554 54.7341C244.867 49.2368 241.508 43.5268 238.495 37.6341C238.025 36.7277 237.444 35.8824 236.767 35.1173C234.236 32.3511 232.033 29.3018 230.203 26.0303C229.019 23.8467 228.165 21.5007 227.667 19.0679C227.332 17.7141 227.415 16.2908 227.906 14.9851C228.396 13.6795 229.271 12.5526 230.415 11.7528C234.341 8.71072 238.322 9.83975 241.408 12.6309C245.103 16.094 248.575 19.7863 251.804 23.686C255.44 27.9433 258.432 32.6868 261.832 37.1245C264.417 40.3542 266.701 43.8131 268.655 47.4582C270.296 50.6493 271.859 53.8952 273.367 57.149C274.874 60.4028 276.398 63.7977 277.968 67.1064C279.753 71.0004 281.7 74.8109 283.81 78.5377C284.525 79.8 285.027 81.1878 285.718 82.4579C285.981 82.9184 286.151 83.4263 286.217 83.9524C286.283 84.4785 286.244 85.0125 286.103 85.5236C285.669 87.2652 285.349 89.033 285.145 90.8159C285.027 91.9214 284.902 91.9684 283.755 92.0311C281.574 92.229 279.447 92.8159 277.473 93.7639C277.381 93.7983 277.293 93.8458 277.214 93.905C276.9 94.1637 276.319 94.3754 276.594 94.885C276.869 95.3947 277.379 95.0575 277.756 94.885C278.996 94.3227 280.267 93.8331 281.564 93.4189C282.371 93.2223 283.2 93.1379 284.03 93.168C284.556 93.168 284.705 93.4581 284.548 93.952C284.376 94.5149 284.029 95.0088 283.559 95.3633C283.026 95.7872 282.455 96.1624 281.855 96.4845C278.773 98.0763 276.021 100.237 273.744 102.851C273.193 103.338 272.804 103.98 272.629 104.693C272.595 104.809 272.593 104.932 272.625 105.048C272.657 105.165 272.721 105.27 272.809 105.352C272.929 105.375 273.052 105.358 273.162 105.305C273.271 105.251 273.359 105.163 273.414 105.054C275.853 101.814 279.008 99.1799 282.632 97.3548C284.902 96.1474 285.773 94.2657 286.142 91.8665C286.692 87.8258 287.5 83.8243 288.561 79.8863L288.608 79.753C289.3 77.7742 289.247 75.6114 288.459 73.6688C286.951 69.5212 287.289 65.2717 288.199 61.03C289.424 55.1541 292.316 49.7541 296.531 45.4746C298.355 43.695 300.713 42.5605 303.244 42.2443C304.66 42.0559 306.097 42.3545 307.32 43.0911C308.058 43.5223 308.058 43.7183 307.422 44.2593C307.197 44.4475 306.958 44.6179 306.707 44.7689C304.092 46.337 303.158 48.7676 303.056 51.645C302.984 53.6359 303.081 55.6293 303.346 57.6037C303.44 58.2565 303.663 58.8838 304.005 59.4482C304.346 60.0126 304.798 60.5026 305.333 60.8889C306.22 61.5788 307.108 62.261 308.034 62.8804C308.344 63.072 308.608 63.3307 308.805 63.6373C309.002 63.944 309.128 64.2908 309.173 64.6523C309.57 67.1461 310.279 69.5801 311.285 71.8969C312.485 74.9282 312.908 78.2105 312.518 81.4465C312.29 83.8614 312.4 86.3076 312.337 88.7381C312.354 92.478 312.704 96.209 313.381 99.8873C313.727 102.192 314.088 104.49 314.339 106.803C314.406 108.163 314.271 109.527 313.939 110.848C313.072 114.837 311.869 118.745 310.343 122.53C308.413 127.721 306.751 133.007 305.364 138.368C304.634 141.183 303.708 143.951 303.009 146.781C302.032 150.482 302.417 154.41 304.092 157.852C304.707 159.181 305.421 160.463 306.228 161.686C304.21 162.046 302.365 162.329 300.535 162.721C298.762 162.999 297.024 163.469 295.353 164.124C292.759 164.779 290.232 165.676 287.807 166.805C280.369 170.004 273.48 174.348 267.391 179.679C261.922 184.383 257.115 189.802 253.1 195.792C251.961 197.477 251.011 199.288 249.959 201.092C249.389 200.706 248.946 200.161 248.687 199.524C247.187 197.015 245.499 194.631 243.78 192.279C242.06 189.927 239.469 188.359 236.713 187.238C233.198 185.775 229.905 183.83 226.929 181.459C225.547 180.354 225.555 180.354 226.206 178.668C228.128 173.876 230.885 169.461 234.349 165.629C239.1 160.188 244.792 155.899 250.792 151.964C252.299 150.976 253.877 150.113 255.448 149.235C255.865 148.906 256.385 148.736 256.916 148.757C256.894 149.412 256.823 150.064 256.704 150.709C256.439 152.241 256.365 153.8 256.484 155.351C256.484 155.546 256.508 155.741 256.555 155.931C256.626 156.221 256.767 156.534 257.113 156.487C257.458 156.44 257.599 156.08 257.521 155.703C257.174 153.684 257.333 151.61 257.984 149.666C258.581 147.762 259.37 145.923 260.34 144.178C260.827 143.339 261.745 142.978 262.405 142.343Z" fill="#6C382C"/>
<path d="M88.6436 162.964C88.306 162.595 87.7956 162.823 87.3401 162.587C87.4216 162.079 87.6447 161.603 87.984 161.215C89.3398 159.138 90.5191 156.95 91.5097 154.676C92.1262 153.219 92.4359 151.65 92.4197 150.068C92.4035 148.486 92.0617 146.924 91.4154 145.479C88.1175 137.639 84.7882 129.799 81.1448 122.138C79.8963 119.504 78.5221 116.94 77.4699 114.204C75.8943 110.11 75.3549 105.69 75.8995 101.338C76.4081 98.1232 76.6236 94.8691 76.5434 91.6156C76.3157 88.1266 76.0565 84.6455 75.6325 81.18C75.1692 77.3852 75.1692 73.6296 76.4177 69.9525C77.3077 67.6305 77.8783 65.1987 78.1138 62.7236C78.1138 62.0807 78.4829 61.8298 79.0875 61.6573C80.3467 61.2744 81.5292 60.6747 82.5817 59.8853C83.2156 59.4696 83.7328 58.8994 84.0846 58.2285C84.4363 57.5577 84.6109 56.8083 84.5919 56.0513C84.6221 53.7693 84.4988 51.4878 84.2228 49.2223C83.8224 46.5174 82.566 44.5181 79.8648 43.5458C79.6756 43.4492 79.4967 43.3336 79.3309 43.2009C80.2676 42.5736 81.3482 42.1933 82.4718 42.0954C86.2487 41.6798 89.3189 43.0519 91.9808 45.6314C93.7503 47.3048 95.2755 49.2183 96.5115 51.3157C96.6928 51.588 96.8894 51.8498 97.1004 52.0998C98.2607 54.4536 99.1662 56.9242 99.8016 59.4698C100.692 63.2121 100.852 67.0906 100.273 70.8933C99.99 72.6653 99.9115 74.4607 99.1813 76.1464C99.0944 76.4254 99.0691 76.7198 99.107 77.0094C99.145 77.299 99.2453 77.577 99.4011 77.8243C100.914 81.3 102.107 84.9057 102.966 88.597C103.371 89.9594 103.861 91.2949 104.434 92.5957C104.728 93.2685 105.191 93.8545 105.777 94.297C107.313 95.5732 108.989 96.6725 110.771 97.5743C111.021 97.7026 111.284 97.8025 111.556 97.8723C111.831 97.9272 112.169 97.9899 112.279 97.6057C112.305 97.4863 112.289 97.3615 112.233 97.2527C112.177 97.144 112.085 97.0581 111.973 97.0098L108.58 94.9948C106.991 94.1893 105.727 92.8636 105 91.2393C107.866 92.1488 110.543 92.7446 112.773 94.8537C117.587 99.3933 122.557 103.768 127.19 108.496C129.616 110.89 131.777 113.537 133.637 116.391C135.669 119.656 137.426 123.084 138.89 126.639C140.127 129.808 140.951 133.123 141.34 136.502C141.544 138.288 141.638 140.084 141.622 141.881C141.672 143.972 141.424 146.061 140.884 148.082C140.751 148.561 140.421 149.282 141.065 149.462C141.709 149.643 141.764 148.835 141.85 148.357C142.647 145 142.876 141.534 142.525 138.102C142.226 134.916 141.624 131.765 140.727 128.693C140.727 128.615 140.727 128.513 140.798 128.372C141.462 128.665 142.061 129.089 142.557 129.618C146.027 132.282 149.295 135.199 152.333 138.345C157.295 143.307 161.492 148.977 164.786 155.17C167.395 160.078 169.195 165.372 170.118 170.851C170.307 171.996 170.354 173.203 170.456 174.324C168.222 176.562 165.785 178.588 163.177 180.377C162.156 181.044 161.151 181.726 160.091 182.322C158.276 183.362 156.541 184.536 154.901 185.834C154.251 186.349 153.671 186.945 153.173 187.606C150.303 191.294 147.861 195.295 145.894 199.532C145.683 200.154 145.343 200.726 144.897 201.209C144.274 200.46 143.727 199.651 143.264 198.795C140.824 194.934 138.08 191.274 135.058 187.849C131.398 183.68 127.314 179.901 122.871 176.575C114.476 170.265 104.767 165.921 94.4621 163.865C93.9079 163.677 93.3277 163.577 92.7425 163.567C91.3762 163.316 89.9942 163.246 88.6358 162.979L88.6436 162.964Z" fill="#6C382C"/>
<path d="M97.705 51.1824C97.6652 51.0938 97.6207 51.0074 97.5715 50.9237C96.8805 49.9279 97.1161 49.7711 98.0034 49.2537C100.6 47.8073 103.27 46.4987 106.005 45.3335C109.719 43.6478 113.472 42.0248 117.21 40.3783C122.322 38.1124 127.418 35.8622 132.545 33.5806C137.673 31.2991 142.565 29.0724 147.59 26.8457C151.778 24.9901 155.966 23.1607 160.154 21.3574C162.152 20.5681 164.286 20.1765 166.435 20.2048C169.365 20.042 172.282 20.6963 174.861 22.0944C176.128 22.8174 177.297 23.7002 178.339 24.7209C181.103 27.3945 183.946 29.9819 186.686 32.6711C192.183 38.0575 197.836 43.2557 203.333 48.6264C205.249 50.4925 207.165 52.3663 209.096 54.2167C213.619 58.5603 218.111 62.9509 222.626 67.3102C227.667 72.1713 232.721 77.0219 237.788 81.8621C242.178 86.0646 246.536 90.3063 250.972 94.4617C253.956 97.2607 256.751 100.24 259.806 102.969C262.703 105.556 265.342 108.457 268.263 111.005C270.452 112.877 272.242 115.17 273.524 117.748C273.634 118.414 273.767 119.081 273.861 119.755C274.145 121.343 273.982 122.979 273.392 124.48C272.802 125.982 271.806 127.291 270.516 128.262C267.423 130.7 264.046 132.762 260.74 134.903C258 136.675 255.244 138.423 252.519 140.203C244.439 145.456 236.406 150.772 228.295 155.978C221.327 160.447 214.381 164.937 207.455 169.448C204.141 171.738 200.157 172.863 196.132 172.647C194.277 172.579 192.457 172.126 190.787 171.316C189.117 170.506 187.635 169.357 186.435 167.942L175.497 155.241C171.704 150.811 167.982 146.311 164.103 141.959C160.224 137.608 156.667 133.099 152.827 128.771C148.988 124.444 145.517 120.147 141.834 115.897C139.306 112.942 136.723 110.033 134.194 107.077C131.289 103.682 128.423 100.24 125.557 96.8373C122.973 93.8031 120.359 90.7924 117.775 87.7503L105.22 72.9553C104.434 71.991 103.649 70.9795 102.754 70.0779C102.262 69.6678 101.894 69.1302 101.689 68.5242C101.484 67.9183 101.45 67.2675 101.592 66.6438C102.141 66.5027 102.33 67.0044 102.573 67.3024C105.07 70.3445 107.709 73.269 110.3 76.2405C112.891 79.212 115.608 82.4423 118.254 85.5549C122.479 90.5179 126.68 95.4966 130.912 100.452C133.032 102.929 135.231 105.336 137.327 107.83C139.141 109.986 140.994 112.103 142.824 114.274C144.881 116.736 147.017 119.136 149.106 121.59C152.207 125.267 155.387 128.85 158.528 132.566C160.672 135.138 162.894 137.655 165.124 140.164C167.032 142.304 168.854 144.523 170.723 146.703L177.468 154.543C180.085 157.564 182.679 160.588 185.249 163.614C186.859 165.504 188.39 167.464 190.526 168.82C193.989 171.047 197.711 171.29 201.582 170.146C203.404 169.604 205.137 168.798 206.725 167.754C213.337 163.452 219.948 159.158 226.56 154.872C233.917 150.113 241.298 145.393 248.648 140.634C253.587 137.427 258.487 134.166 263.41 130.943C265.043 129.877 266.716 128.889 268.255 127.689C269.271 126.931 270.126 125.978 270.77 124.886C271.415 123.795 271.836 122.586 272.008 121.331C272.074 120.112 271.842 118.896 271.333 117.787C270.806 116.209 269.91 114.778 268.718 113.616C264.007 109.006 259.248 104.364 254.451 99.801C253.257 98.6563 252.04 97.5351 250.854 96.3904C246.661 92.3212 242.515 88.205 238.252 84.2064C235.236 81.376 232.339 78.4201 229.339 75.5819C222.21 68.8077 215.205 61.9082 208.138 55.0556C203.882 50.9158 199.501 46.878 195.284 42.7226C191.743 39.2493 188.217 35.7681 184.55 32.3967C182.195 30.2484 180.043 27.959 177.743 25.7872C175.825 23.9026 173.478 22.5115 170.903 21.7337C167.448 20.7687 163.762 21.0661 160.507 22.5726C154.657 25.1051 148.862 27.7552 143.036 30.3504C136.149 33.416 129.239 36.4345 122.384 39.5786C116.943 42.0718 111.391 44.2828 106.013 46.9407C104.05 47.9051 101.937 48.5088 100.076 49.7398C99.2597 50.2259 98.6315 50.9629 97.705 51.1824Z" fill="#425847"/>
<path d="M274.654 124.185C275.236 125.126 274.859 126.137 274.859 127.117C274.835 127.403 274.787 127.686 274.717 127.964C275.22 128.92 274.545 129.532 274.097 130.277C272.856 133.401 270.57 136 267.627 137.631C266.755 138.054 265.959 138.618 265.271 139.301C264.6 139.589 263.972 139.966 263.402 140.422L239.61 156.025C234.077 159.652 228.538 163.275 222.995 166.892L207.604 176.943C205.607 178.339 203.364 179.347 200.993 179.915C197.001 180.794 192.823 180.067 189.364 177.892C187.299 176.645 185.901 174.756 184.362 173.046C182.148 170.527 179.965 167.984 177.813 165.418C174.986 162.078 172.065 158.832 169.364 155.39C169.364 153.626 170.801 153.485 171.987 153.038C174.61 156.033 177.232 159.02 179.839 162.031C181.771 164.273 183.585 166.625 185.603 168.789C189.866 173.36 195.19 174.575 201.189 173.337C203.62 172.801 205.927 171.811 207.989 170.42C212.112 167.762 216.195 165.026 220.317 162.368C224.565 159.624 228.853 156.942 233.101 154.198C237.349 151.454 241.385 148.757 245.546 146.052C249.708 143.347 254.05 140.563 258.29 137.827C262.217 135.263 266.198 132.692 270.108 130.057C272.247 128.672 273.851 126.601 274.654 124.185Z" fill="#3A5540"/>
<path d="M171.963 153.053C171.924 153.296 171.869 153.571 171.578 153.594C171.072 153.646 170.591 153.843 170.193 154.162C169.796 154.48 169.5 154.907 169.341 155.39C167.65 153.456 165.964 151.517 164.284 149.572C162.132 147.063 159.973 144.562 157.837 142.038C154.288 137.851 150.77 133.64 147.213 129.446C144.292 125.996 141.347 122.578 138.426 119.128C135.191 115.302 131.964 111.473 128.745 107.642C126.263 104.709 123.766 101.793 121.293 98.8602C119.66 96.9315 118.05 94.9871 116.417 93.0505C113.88 90.0476 111.313 87.0604 108.8 84.034C106.287 81.0075 104.049 77.9968 101.443 75.1742C101.252 74.9893 101.117 74.7545 101.053 74.4967C100.989 74.2389 100.999 73.9684 101.081 73.7159C101.309 72.83 101.372 71.8969 101.529 70.8777C102.253 71.2602 102.867 71.8217 103.311 72.5085C106.976 76.7946 110.624 81.0912 114.257 85.3982C117.89 89.7052 121.555 93.9965 125.25 98.2722C128.391 101.965 131.579 105.65 134.728 109.351C137.625 112.754 140.492 116.188 143.365 119.59C145.949 122.617 148.579 125.612 151.171 128.638C154.9 132.998 158.559 137.412 162.352 141.716C164.668 144.343 166.789 147.126 169.207 149.666C170.247 150.692 171.171 151.828 171.963 153.053Z" fill="#405B44"/>
<path d="M129.923 40.6684C129.538 40.6684 129.255 40.59 129.137 40.2842C128.957 39.853 129.302 39.6805 129.601 39.5002C130.062 39.2307 130.542 38.9948 131.038 38.7945C133.22 38.0105 135.286 36.9207 137.429 36.0269C137.696 35.9171 137.932 35.6976 138.254 35.8152C138.576 35.9328 138.741 35.9798 138.819 36.2229C138.844 36.3442 138.822 36.4703 138.758 36.5763C138.694 36.6822 138.592 36.7604 138.474 36.7952L130.292 40.5743C130.173 40.6205 130.049 40.6521 129.923 40.6684Z" fill="#2C2D2A"/>
<path d="M142.494 35.1567C141.709 35.1567 141.277 34.8588 141.332 34.3727C141.332 34.1086 141.437 33.8553 141.624 33.6686C141.811 33.4819 142.065 33.377 142.329 33.377C142.594 33.377 142.847 33.4819 143.034 33.6686C143.221 33.8553 143.326 34.1086 143.326 34.3727C143.373 34.9921 143.02 35.1881 142.494 35.1567Z" fill="#313530"/>
<path d="M62.1817 190.931C61.2472 191.895 60.462 192.695 59.6768 193.471C56.7788 196.285 54.0344 199.253 51.4555 202.362C50.9844 202.95 50.6703 202.95 50.0107 202.621C44.242 199.474 38.0824 197.101 31.6915 195.564C30.1996 195.227 28.6842 194.968 26.9802 194.686C28.5507 193.236 29.9248 191.895 31.3775 190.625C33.9373 188.382 36.5756 186.226 39.104 183.96C39.3931 183.674 39.7556 183.473 40.1518 183.379C40.548 183.285 40.9625 183.301 41.3498 183.427C47.5137 184.901 53.5678 186.658 59.2685 189.472L62.1817 190.931Z" fill="#5CA856"/>
<path d="M96.5192 173.752C95.8675 173.752 95.9617 174.105 96.2365 174.536C97.3201 176.151 98.3959 177.769 99.4638 179.39C100.1 180.362 100.712 181.342 101.505 182.588C97.3268 180.892 93.0175 179.537 88.6199 178.535C90.6614 176.489 92.9543 175.132 95.0508 173.525C95.5377 173.564 96.0873 173.274 96.5192 173.752Z" fill="#1D2217"/>
<path d="M88.6357 162.964C90.0293 162.903 91.422 163.103 92.7424 163.552C91.3474 163.645 89.9483 163.445 88.6357 162.964Z" fill="#0F0302"/>
<path d="M372.791 196.74C371.739 197.266 370.828 197.109 369.98 197.281C362.371 198.717 354.948 201.005 347.852 204.103C347.067 204.463 346.235 204.769 345.442 205.138C345.282 205.251 345.085 205.296 344.892 205.264C344.699 205.231 344.527 205.124 344.413 204.965C340.291 199.83 335.218 195.556 330.97 190.562C330.805 190.374 331.426 190.194 331.755 190.068C337.396 187.928 343.185 186.201 349.077 184.901C350.491 184.556 351.936 184.321 353.341 183.945C353.688 183.844 354.055 183.831 354.408 183.906C354.762 183.981 355.091 184.143 355.367 184.376C359.293 187.144 363.156 189.864 367.059 192.632C368.889 193.949 370.742 195.282 372.791 196.74Z" fill="#5DA956"/>
<path d="M207.102 17.0453C206.945 14.113 208.672 12.0274 211.075 10.4123C212.812 9.19851 214.925 8.64255 217.035 8.8442C218.394 8.99145 219.665 9.58745 220.647 10.5377C222.735 12.582 224.548 14.888 226.041 17.3981C226.354 17.9512 226.536 18.5678 226.575 19.2014C226.905 22.0083 228.091 24.4937 229.371 26.9635C231.083 30.28 233.517 33.079 235.865 35.9173C237.015 37.4842 238.019 39.1534 238.864 40.9038C241.695 46.1283 244.788 51.2075 248.13 56.1221C248.533 56.7889 248.825 57.5173 248.993 58.2782C250.381 63.0852 252.011 67.819 253.878 72.4616C254.349 73.6298 254.835 74.8137 255.377 75.9427C255.636 76.4916 255.574 76.8444 255.032 77.1188C254.49 77.3932 253.752 77.8244 253.084 78.1224C249.523 79.6973 246.082 81.5317 242.79 83.6107C242.099 84.0498 241.683 84.1046 241.063 83.4774C239.131 81.5487 237.137 79.6748 235.15 77.8323C234.142 76.9034 233.359 75.7589 232.857 74.4844C231.528 71.3549 230.416 68.138 229.528 64.8563C228.884 62.3709 227.392 60.2854 226.128 58.1057C222.689 52.1156 219.289 46.1098 216.784 39.6493C216.271 38.4375 215.64 37.2793 214.899 36.1917C212.531 32.4501 210.482 28.516 208.774 24.431C207.814 22.0777 207.249 19.5823 207.102 17.0453Z" fill="#6C382C"/>
<path d="M230.894 73.5905C222.681 65.899 214.703 58.0194 206.513 50.077C208.303 49.7713 210.034 49.1838 211.64 48.3364C212.281 47.9871 212.895 47.5914 213.478 47.1525C213.823 46.8859 214.334 46.6194 214.004 46.1333C213.674 45.6472 213.313 46.1333 212.991 46.2979C211.947 46.8311 210.918 47.3799 209.85 47.9052C209.456 48.0922 209.049 48.252 208.633 48.3835C205.728 49.3949 205.728 49.3949 203.521 47.2309C202.618 46.3371 201.684 45.4825 200.757 44.6279C200.43 44.3404 200.164 43.9914 199.972 43.6008C198.359 40.3313 197.171 36.8691 196.438 33.2984C195.999 30.7111 195.889 28.0375 197.404 25.6619C199.155 22.9099 201.511 21.1379 204.974 21.3653C205.9 21.4202 206.693 21.6711 207.008 22.6903C208.282 26.6766 210.066 30.4819 212.316 34.0119C214.558 37.8191 216.554 41.7657 218.291 45.8275C220.273 50.1586 222.521 54.3638 225.02 58.4192C226.835 61.2972 228.238 64.4137 229.19 67.6788C229.638 69.3096 230.289 70.8934 230.839 72.5007C230.925 72.8065 231.169 73.0965 230.894 73.5905Z" fill="#6C382C"/>
<path d="M137.846 30.029C131.124 32.7967 124.748 35.9956 118.121 38.6535C117.767 38.1753 118.121 37.8695 118.309 37.5794C119.906 34.8697 121.655 32.2521 123.547 29.7389C125.706 26.7439 127.803 23.7018 130.072 20.7851C132.702 17.3667 135.498 14.1129 138.199 10.8435C139.784 8.93574 141.551 7.18688 143.476 5.62172C147.574 2.35226 154.689 3.85762 156.95 8.56973C157.669 10.1279 157.875 11.8737 157.539 13.5563C156.989 16.5765 155.833 19.4542 154.139 22.0161C153.766 22.5869 153.241 23.043 152.623 23.3333C148.54 25.3953 144.214 26.9242 140.115 28.9549C139.838 29.1025 139.526 29.1732 139.213 29.1594C138.899 29.1456 138.595 29.0479 138.332 28.8765C137.406 28.3433 136.44 27.8807 135.49 27.3868C135.286 27.2582 135.073 27.1429 134.854 27.0418C134.742 26.9902 134.615 26.9808 134.497 27.0154C134.378 27.05 134.276 27.1262 134.21 27.23C134.045 27.4966 134.21 27.7083 134.43 27.8337C135.215 28.2885 135.937 28.7275 136.691 29.1744C137.142 29.358 137.539 29.6519 137.846 30.029Z" fill="#6C382C"/>
<path d="M155.945 21.6241C156.077 20.8466 156.357 20.1015 156.769 19.4288C157.695 17.6062 158.333 15.6518 158.662 13.6347C158.731 13.4028 158.77 13.163 158.779 12.9212C158.497 11.2277 159.321 9.94186 160.24 8.65603C161.354 7.00932 162.563 5.42815 163.86 3.9204C164.543 3.17114 165.338 2.5312 166.215 2.02301C166.997 1.52788 167.883 1.21937 168.803 1.12147C169.724 1.02357 170.655 1.13889 171.524 1.4585C173.958 2.28958 176.007 3.52053 177.342 5.8021C178.164 7.19642 178.503 8.82196 178.308 10.428C177.898 13.8079 176.865 17.0829 175.261 20.0874C174.994 20.6049 174.767 20.8009 174.146 20.5421C168.603 18.19 163.153 18.6918 157.759 21.1145C157.224 21.473 156.588 21.6515 155.945 21.6241Z" fill="#6C382C"/>
<path d="M186.254 30.5778C185.736 30.4445 185.469 29.9976 185.147 29.6683C183.168 27.7395 181.221 25.7872 179.234 23.8428C178.421 23.0768 177.529 22.3988 176.573 21.82C176.461 21.7711 176.362 21.6982 176.282 21.6065C176.202 21.5149 176.144 21.4067 176.111 21.2898C176.078 21.1729 176.071 21.0501 176.091 20.9303C176.111 20.8105 176.158 20.6967 176.227 20.5969C177.064 18.9555 177.786 17.2578 178.386 15.5163C178.646 14.7322 179.289 14.7322 179.957 14.693C183.223 14.5519 185.87 16.4885 187.228 19.7344C187.808 21.2306 187.989 22.8516 187.754 24.4387C187.581 26.0068 187.236 27.5749 186.969 29.143C186.927 29.696 186.671 30.2109 186.254 30.5778Z" fill="#6C382C"/>
<path d="M78.522 60.7558C78.0508 59.0858 78.1136 57.4158 77.8702 55.7928C77.5404 53.5426 77.352 51.2689 77.085 49.003C76.9312 47.8927 77.0415 46.7619 77.4069 45.7021C77.8231 44.4869 78.412 44.1811 79.6448 44.5731C80.3757 44.7887 81.0434 45.1781 81.5904 45.708C82.1375 46.2378 82.5476 46.8923 82.7857 47.6152C83.0904 48.636 83.2774 49.6882 83.3432 50.7514C83.5631 52.39 83.5709 54.0444 83.6887 55.6909C83.7222 56.1769 83.6466 56.6643 83.4673 57.1173C83.2879 57.5704 83.0095 57.9778 82.6522 58.3096C81.5149 59.4735 80.0902 60.3173 78.522 60.7558Z" fill="#6C382C"/>
<path d="M308.592 61.8768C307.12 61.0876 305.851 59.9685 304.885 58.6074C304.452 57.8401 304.258 56.961 304.328 56.0828C304.136 53.9568 304.183 51.816 304.469 49.7006C304.862 47.3485 306.417 46.1254 308.301 45.0905C308.859 44.7768 309.126 45.0905 309.259 45.5452C309.598 46.5545 309.747 47.6178 309.699 48.6814C309.306 52.876 308.867 57.0707 308.859 61.2888C308.88 61.4023 308.865 61.5196 308.818 61.6247C308.77 61.7298 308.691 61.8178 308.592 61.8768Z" fill="#6C382C"/>
<path d="M192.56 36.4738C192.206 36.5522 192.041 36.2699 191.845 36.0739C190.589 34.8665 189.348 33.6434 188.107 32.4202C187.841 32.2153 187.633 31.9452 187.503 31.6362C187.354 31.1109 187.644 30.7189 188.154 30.8522C190.165 31.3226 192.866 33.9883 192.709 36.2777C192.709 36.3326 192.615 36.4032 192.56 36.4738Z" fill="#6C382C"/>
<path d="M274.097 130.277C274.301 129.493 274.505 128.709 274.717 127.964C275.016 127.964 275.4 128.082 275.338 128.411C275.243 128.905 275.385 129.517 274.859 129.869C274.612 130.019 274.358 130.155 274.097 130.277Z" fill="#010501"/>
<path d="M201.323 69.686C200.679 72.9006 200.035 76.0917 199.391 79.2827L193.643 108.01C193.392 109.249 193.141 110.488 192.858 111.726C192.607 112.832 192.591 112.84 191.515 112.612L182.65 110.762C176.557 109.492 170.456 108.237 164.362 106.936C162.423 106.528 162.282 106.873 162.886 104.647C163.572 102.164 164.226 99.6731 164.849 97.1746C165.289 95.434 165.148 95.6065 166.914 95.975C171.492 96.8924 176.054 97.8881 180.632 98.8525C180.773 98.8525 180.907 98.9387 181.056 98.9622C182.791 99.2994 182.807 99.2837 183.161 97.5745C185.207 87.7321 187.262 77.8871 189.325 68.0395C189.384 67.8551 189.428 67.6664 189.458 67.475C189.497 66.7615 189.89 66.5733 190.542 66.691L200.695 68.8C201.173 68.9098 201.55 69.1137 201.323 69.686Z" fill="#67B360"/>
<path d="M270.375 163.536C270.146 163.534 269.918 163.516 269.692 163.481C269.401 163.411 269.134 163.27 269.142 162.909C269.15 162.548 269.409 162.423 269.723 162.399L272.181 162.188C277.173 161.725 282.039 160.362 286.543 158.165C288.966 157.033 291.222 155.574 293.249 153.83C293.563 153.555 293.908 152.857 294.419 153.422C294.929 153.986 294.324 154.3 293.987 154.637C292.374 156.114 290.564 157.359 288.608 158.338C283.918 160.921 278.777 162.584 273.461 163.238C272.409 163.395 271.325 163.324 270.375 163.536Z" fill="#190202"/>
<path d="M246.7 186.94C246.481 186.94 246.19 186.987 246.119 186.665C246.049 186.344 246.269 186.219 246.481 186.101C248.256 185.09 249.957 183.953 251.569 182.698C253.695 180.99 255.609 179.034 257.27 176.873C258.116 175.924 258.903 174.924 259.625 173.878C259.738 173.719 259.867 173.572 260.01 173.439C260.084 173.34 260.19 173.269 260.31 173.238C260.429 173.207 260.556 173.217 260.67 173.266C260.999 173.446 260.921 173.768 260.787 174.05C260.571 174.484 260.321 174.901 260.041 175.297C257.523 178.766 254.54 181.873 251.176 184.533C250.126 185.32 249.009 186.015 247.839 186.611C247.504 186.839 247.105 186.954 246.7 186.94Z" fill="#180202"/>
<path d="M260.057 48.501C260.308 48.4999 260.559 48.5288 260.803 48.5873C261.156 48.7284 261.204 49.0577 260.913 49.2537C260.577 49.4424 260.214 49.5799 259.837 49.6614C256.951 50.3908 254.304 51.858 252.158 53.9188C251.883 54.1968 251.592 54.4586 251.286 54.7028C251.09 54.8439 250.847 54.9459 250.627 54.742C250.513 54.6496 250.437 54.5192 250.412 54.375C250.388 54.2308 250.417 54.0826 250.493 53.958C250.626 53.7583 250.785 53.5764 250.964 53.417C253.288 51.2712 256.058 49.6648 259.076 48.7127C259.397 48.6158 259.725 48.545 260.057 48.501Z" fill="#1D0302"/>
<path d="M240.929 35.7291C240.45 35.7291 240.144 35.7291 240.034 35.3606C239.924 34.9921 240.23 34.8431 240.489 34.7177C240.801 34.583 241.121 34.4678 241.447 34.3727C243.739 33.6757 245.809 32.3948 247.454 30.6563C247.652 30.4432 247.862 30.2416 248.082 30.0526C248.182 29.9445 248.319 29.8792 248.466 29.8704C248.612 29.8616 248.756 29.9101 248.868 30.0056C249.158 30.28 248.993 30.5466 248.781 30.7896C248.019 31.6197 247.208 32.405 246.355 33.1418C244.966 34.2118 243.401 35.0317 241.73 35.5645C241.416 35.6037 241.063 35.6821 240.929 35.7291Z" fill="#1F0403"/>
<path d="M290.877 77.9889H290.681C290.335 77.9889 289.958 77.9183 289.935 77.4714C289.911 77.0245 290.233 76.9696 290.524 76.9383C291.666 76.7226 292.786 76.4024 293.869 75.9817C294.34 75.8485 294.78 75.6446 295.243 75.5035C295.706 75.3623 296.185 75.2447 296.366 75.7779C296.546 76.311 296.052 76.4365 295.706 76.5619C294.454 77.0859 293.152 77.48 291.819 77.738L290.877 77.9889Z" fill="#1C0403"/>
<path d="M123.397 159.2C117.206 159.022 111.154 157.323 105.777 154.253C104.261 153.477 102.823 152.558 101.482 151.509C101.301 151.352 101.081 151.234 100.909 151.062C100.618 150.772 100.422 150.395 100.744 150.035C101.066 149.674 101.364 149.972 101.639 150.176C102.228 150.607 102.785 151.085 103.39 151.485C108.276 154.786 113.851 156.931 119.691 157.758C121.576 158.016 123.468 158.024 125.345 158.259C125.486 158.259 125.635 158.259 125.776 158.259C125.918 158.259 126.279 158.346 126.295 158.659C126.31 158.973 126.036 159.161 125.729 159.161C124.952 159.216 124.175 159.2 123.397 159.2Z" fill="#180201"/>
<path d="M135.364 167.049C135.867 167.049 136.149 167.386 136.44 167.699C138.16 169.487 139.816 171.337 141.387 173.25C143.389 175.681 145.227 178.26 147.519 180.448C147.662 180.582 147.788 180.732 147.896 180.895C147.953 180.974 147.984 181.068 147.984 181.165C147.984 181.262 147.953 181.357 147.896 181.436C147.755 181.647 147.543 181.569 147.378 181.491C146.542 181.089 145.802 180.511 145.211 179.797C142.855 177.139 140.861 174.207 138.474 171.58C137.586 170.608 136.66 169.683 135.765 168.719C135.434 168.425 135.167 168.068 134.979 167.668C134.862 167.307 134.987 167.103 135.364 167.049Z" fill="#1A0302"/>
<path d="M92.656 74.0139C94.8508 74.1294 96.9483 74.955 98.6315 76.366C97.1867 76.5464 93.5512 75.1351 92.656 74.0139Z" fill="#240503"/>
<path d="M245.334 150.38C245.291 150.688 245.182 150.984 245.014 151.247C244.846 151.509 244.623 151.732 244.361 151.901C241.45 153.819 238.529 155.73 235.598 157.632C235.103 157.954 234.561 158.236 234.027 157.632C233.799 157.377 233.672 157.046 233.672 156.703C233.672 156.36 233.799 156.03 234.027 155.774C234.514 155.164 235.094 154.635 235.747 154.206L242.932 149.502C243.132 149.366 243.342 149.246 243.56 149.141C243.756 149.023 243.982 148.965 244.211 148.973C244.44 148.981 244.662 149.055 244.849 149.186C245.037 149.317 245.183 149.499 245.269 149.711C245.355 149.923 245.378 150.155 245.334 150.38Z" fill="#010301"/>
<path d="M231.64 61.6652C231.334 61.6652 231.028 61.6652 230.902 61.3202C230.776 60.9753 231.075 60.7871 231.334 60.6852C231.873 60.469 232.424 60.2805 232.983 60.1207C235.599 59.3514 238.023 58.0396 240.097 56.271C240.388 55.9448 240.763 55.7036 241.18 55.5732C241.274 55.5424 241.373 55.5378 241.469 55.5599C241.565 55.5821 241.652 55.6301 241.722 55.6986C241.761 55.746 241.79 55.8008 241.807 55.8596C241.824 55.9183 241.829 55.9799 241.822 56.0407C241.814 56.1015 241.795 56.1601 241.764 56.2132C241.734 56.2662 241.693 56.3126 241.644 56.3494C241.196 56.7806 240.733 57.2197 240.254 57.6274C237.828 59.6738 234.93 60.7636 231.923 61.6182C231.83 61.6421 231.735 61.6578 231.64 61.6652Z" fill="#1C0302"/>
<path d="M219.995 39.2416C219.838 39.2416 219.642 39.2416 219.453 39.1867C219.405 39.1829 219.359 39.1693 219.316 39.1469C219.274 39.1244 219.236 39.0935 219.206 39.0561C219.176 39.0186 219.154 38.9754 219.141 38.9292C219.128 38.8829 219.125 38.8344 219.131 38.7868C219.154 38.6465 219.23 38.5203 219.343 38.434C219.474 38.3719 219.615 38.3347 219.76 38.3243C222.669 37.7075 225.372 36.358 227.612 34.404C227.895 34.161 228.224 33.7925 228.601 34.2159C228.978 34.6393 228.601 34.8509 228.342 35.0783C226.208 37.1365 223.544 38.564 220.647 39.2024C220.431 39.2301 220.213 39.2432 219.995 39.2416Z" fill="#1D0303"/>
</g>
<defs>
<clipPath id="clip0_290_723">
<rect width="394" height="217" fill="white"/>
</clipPath>
</defs>
</svg>
