<svg width="274" height="289" viewBox="0 0 274 289" fill="none" xmlns="http://www.w3.org/2000/svg">
<g clip-path="url(#clip0_290_200)">
<path d="M204.628 289H69.1251C69.1251 288.881 69.0708 288.763 69.0461 288.649C69.1941 288.457 69.3921 288.31 69.6182 288.224C73.5341 287.804 77.455 288.09 81.3758 288.056C82.1069 288.016 82.8395 288.016 83.5705 288.056C97.9091 287.957 112.246 287.957 126.581 288.056C127.188 288.056 127.8 288.006 128.406 288.056C129.708 288.011 131.015 288.14 132.322 288.031C134.019 287.957 135.71 288.184 137.407 288.001C154.718 287.972 172.03 287.972 189.344 288.001C189.728 287.992 190.112 288.011 190.493 288.056C191.1 288.056 191.707 288.011 192.313 288.056C196.155 288.056 200.007 287.912 203.849 288.14C204.077 288.187 204.295 288.275 204.49 288.402C204.586 288.464 204.655 288.561 204.68 288.673C204.706 288.785 204.688 288.902 204.628 289Z" fill="#D8C5BD"/>
<path d="M204.628 289C204.628 288.872 204.628 288.748 204.628 288.619C205.121 288.081 205.758 288.1 206.394 288.061C207.223 287.974 208.057 287.95 208.889 287.987H269.28C270.113 287.95 270.946 287.974 271.776 288.056C272.417 288.09 273.068 288.1 273.546 288.639C273.592 288.755 273.592 288.884 273.546 289H204.628Z" fill="#B5B6B4"/>
<path d="M69.135 288.654C69.1424 288.769 69.1424 288.885 69.135 289H0.217041L0.271292 288.545C0.892707 287.987 1.66701 288.081 2.41666 288.051C5.74567 287.908 9.07468 287.992 12.4086 287.992C29.8346 287.992 47.2605 287.992 64.6865 287.992C65.5829 287.953 66.481 287.976 67.3743 288.061C68.0155 288.096 68.6763 288.086 69.135 288.654Z" fill="#B5B6B4"/>
<path d="M2.13059 288.555H0.271277C-0.601664 280.927 0.720077 273.571 3.1071 266.374C6.43612 256.309 10.6233 246.599 14.7217 236.816C20.0316 224.141 25.6655 211.611 31.6232 199.225C34.2272 193.867 37.0778 188.621 40.9346 183.999C43.5685 180.753 46.6998 177.947 50.2114 175.684C53.8089 173.444 57.5247 171.401 61.3426 169.564C62.6101 168.951 63.8875 168.353 65.1451 167.715C66.5063 167.028 66.5507 166.993 66.0033 165.599C64.9873 162.999 64.9577 160.325 65.3424 157.625C65.7567 154.719 67.3447 152.385 69.2238 150.21C69.6826 149.682 70.1769 149.187 70.7033 148.727C71.3398 148.183 71.8404 147.497 72.165 146.725C72.4896 145.952 72.6291 145.114 72.5725 144.278C72.5183 136.368 76.2221 130.723 83.0577 126.975C88.2115 124.163 93.7204 122.294 99.3871 120.845C99.8719 120.695 100.366 120.578 100.867 120.494C101.631 120.41 101.853 120.079 101.597 119.343C101.497 119.037 101.428 118.722 101.389 118.403C101.271 117.736 100.951 117.622 100.304 117.825C97.6757 118.65 95.3726 117.775 93.2568 116.278C90.1629 114.045 87.8365 110.905 86.5988 107.29C85.0255 102.989 84.2167 98.6192 85.6124 94.0909C85.7739 93.536 85.9682 92.9912 86.1943 92.4595C87.9304 88.4701 90.5591 87.1403 94.9533 88.1537C94.1889 83.0915 93.1532 78.1232 93.2814 73.0165C92.4134 75.0928 92.226 77.3075 91.8265 79.4728C91.7131 80.1006 91.6539 80.7433 91.5306 81.3711C90.9437 84.4213 89.4001 85.8203 86.6431 85.761C85.314 85.7826 84.0224 85.3191 83.0089 84.4569C81.9953 83.5947 81.3291 82.3926 81.1342 81.0745C80.89 79.2227 80.9249 77.3446 81.2378 75.5031C81.5535 73.6691 81.9085 71.8449 82.2488 70.0158C82.4905 69.6302 82.2488 69.126 82.5694 68.7552C82.5933 68.7415 82.6142 68.723 82.6308 68.7009C82.6473 68.6789 82.6592 68.6536 82.6657 68.6268C82.6721 68.5999 82.6731 68.572 82.6684 68.5448C82.6637 68.5176 82.6535 68.4916 82.6385 68.4685C82.7223 66.1994 83.7876 63.0602 85.7505 59.1993C84.5767 61.4486 83.5262 63.7622 82.3574 66.0115C82.0713 66.5602 81.9825 67.2573 81.3019 67.5391C81 68.009 80.7674 68.5201 80.6115 69.0567C80.3347 70.1144 79.8296 71.0983 79.1319 71.9388C77.1592 74.5589 73.7068 74.7171 71.4727 72.3047C69.6824 70.3717 69.4605 68.0928 70.0918 65.6605C71.4086 60.5786 73.771 55.9761 76.5871 51.5813C79.3706 47.2781 82.8182 43.4453 86.801 40.226C86.8947 39.9046 87.2942 39.8058 87.3484 39.4449C87.1265 39.8305 86.6826 39.6574 86.362 39.8255C83.0666 41.5703 80.1259 43.9177 77.6918 46.7465C76.9261 47.697 76.054 48.5562 75.0927 49.3073C73.0016 50.82 70.802 50.9535 69.0265 49.6632C67.251 48.3729 66.4077 45.6737 67.1622 43.4294C67.7533 41.8011 68.6339 40.2936 69.7613 38.9802C74.6636 33.0034 80.9074 29.014 88.1128 26.4384C89.0499 26.1072 89.8143 25.7562 90.3125 24.7773C90.9141 23.581 92.1619 22.9186 93.3308 21.8854C91.0473 21.5986 89.0598 22.0287 87.0722 22.3501C85.9379 22.533 84.8184 22.8444 83.689 23.0718C83.3783 23.141 83.0675 23.23 82.7519 23.2795C79.852 23.7095 77.4255 22.4737 76.6068 20.1551C75.7585 17.7575 76.9175 14.7172 79.2848 13.333C80.9201 12.4398 82.6836 11.8061 84.5126 11.4545C95.1605 8.9827 105.118 10.8959 114.474 16.398C115.026 16.7194 115.514 17.1445 116.042 17.5054C116.486 17.8119 116.782 18.3408 117.665 18.4941C115.899 15.7504 113.946 13.5505 111.302 11.9933C109.823 11.1183 108.23 10.3817 106.795 9.42762C106.177 9.04603 105.652 8.53267 105.255 7.9241C104.858 7.31553 104.6 6.62673 104.499 5.9068C104.399 5.18686 104.458 4.45351 104.672 3.75899C104.886 3.06446 105.251 2.42587 105.739 1.88871C106.529 0.917573 107.657 0.283246 108.896 0.113971C110.814 -0.185183 112.777 0.133296 114.503 1.02358C123.938 5.73479 129.215 13.2885 130.004 23.8875C130.035 24.0709 130.076 24.2525 130.127 24.4313C135.414 21.7618 139.991 22.3451 143.493 27.4716C143.804 27.61 143.986 27.3777 144.164 27.2294C148.997 23.2745 154.742 25.8847 157.302 29.098C157.887 29.7833 158.357 30.5598 158.693 31.3968C158.92 32.0246 159.24 32.0988 159.857 31.9702C161.491 31.5987 163.196 31.679 164.789 32.2026C168.527 33.4681 170.776 36.014 171.56 39.875C171.661 40.1807 171.722 40.498 171.743 40.8192C171.678 42.1984 172.453 42.6335 173.656 43.1229C177.414 44.6554 179.057 47.8637 179.634 51.6802C179.896 53.3444 179.667 55.0494 178.973 56.5842C178.645 57.3535 178.607 58.2158 178.864 59.0114C180.521 65.4974 180.724 72.0822 180.142 78.7164C179.92 81.1882 179.86 83.7243 179.219 86.1614C178.859 86.8288 179.037 87.5407 179.061 88.2328C179.086 88.9249 179.362 89.6318 178.435 89.7158C177.661 89.8048 177.39 89.1276 177.232 88.475C177.182 88.2226 177.158 87.966 177.158 87.7088C177.454 83.4375 177.917 79.1811 178.401 74.9247C178.756 73.8792 178.802 72.753 178.534 71.6818C178.476 71.4947 178.434 71.3028 178.41 71.1083C178.203 68.3053 177.824 65.5271 177.493 62.7389C177.316 61.2558 176.827 61.063 175.723 62.0814C173.943 63.8355 171.73 65.0843 169.311 65.7001C166.978 65.7001 165.415 64.5433 164.631 62.3928C164.3 61.5079 163.995 61.4041 163.112 61.7897C159.571 63.431 158.106 63.1146 155.364 60.1534C154.742 59.486 154.333 59.58 153.791 60.1188C152.967 60.9295 152.173 61.77 151.063 62.2149C148.622 63.2036 146.408 62.8724 144.469 61.0581C143.843 60.4649 143.35 60.0249 142.649 61.0136C139.937 64.8597 134.837 65.0673 131.533 60.5192C131.398 60.3045 131.205 60.133 130.976 60.0249C129.96 61.241 128.875 62.4967 127.08 62.6944C125.96 62.8367 124.823 62.7205 123.756 62.3546C122.688 61.9888 121.718 61.3829 120.92 60.5835C119.81 59.5009 119.248 59.5107 118.296 60.8158C116.737 62.9416 114.844 63.253 111.727 61.9825C110.336 61.414 109.68 61.3596 109.231 63.0503C108.664 65.2156 106.568 65.621 104.763 66.2686C102.281 65.3888 99.996 64.03 98.0358 62.2692C97.1283 61.4684 96.6302 61.6019 96.3984 62.8229C95.4104 67.9817 95.1679 73.2561 95.6783 78.4841C95.8639 81.1454 96.2463 83.7892 96.8225 86.3938C97.1588 88.2688 97.9105 90.0443 99.0221 91.5895C99.4266 92.4793 100.408 93.1516 100.043 94.3282C99.1652 95.0499 98.2824 95.7668 97.1135 94.8522C96.6203 94.2985 96.5414 93.5817 96.285 92.9292C95.6734 91.3373 94.5983 90.1509 92.877 89.8839C91.1558 89.617 89.987 90.6947 89.0203 91.9454C88.3033 92.9346 87.7994 94.0626 87.5407 95.2576C87.3503 96.1239 87.302 97.0155 87.3977 97.8974V101.358C87.3404 101.954 87.4007 102.555 87.5753 103.128C88.4186 106.662 89.8341 109.905 92.2803 112.644C93.6705 114.334 95.5769 115.519 97.7053 116.016C99.6781 116.426 100.275 115.773 100.043 113.791C99.8655 112.263 98.8643 110.736 99.9543 109.179C101.345 108.709 101.434 109.871 101.804 110.662C102.79 114.443 103.451 118.309 104.368 122.121C105.651 127.47 107.821 132.265 111.48 136.457C115.672 141.267 119.988 145.875 125.57 149.132C133.17 153.582 143.818 153.048 150.836 147.768C156.942 143.19 162.357 137.95 166.387 131.4C168.961 127.213 169.839 122.447 170.968 117.766C171.461 115.704 171.851 113.618 172.191 111.527C172.32 110.765 172.418 109.984 173.178 109.52C173.317 109.462 173.467 109.435 173.617 109.441C173.768 109.447 173.915 109.486 174.049 109.554C174.183 109.623 174.301 109.72 174.394 109.839C174.487 109.957 174.553 110.095 174.588 110.241C174.874 111.547 174.401 112.773 174.209 114.033C173.947 115.749 174.435 116.278 176.181 116.011C178.088 115.677 179.837 114.735 181.167 113.326C184.62 109.866 186.366 105.639 186.775 100.819C186.864 99.8007 186.775 98.7724 186.775 97.7491C186.721 93.0181 185.123 90.8281 180.709 89.4439C180.285 89.0732 179.944 88.6876 180.373 88.1042C182.928 87.4023 185.527 88.4701 187.125 90.8974C187.886 92.0989 188.39 93.4456 188.605 94.8522C189.591 100.359 188.861 105.59 186.139 110.503C184.884 112.755 183.164 114.712 181.093 116.243C178.766 117.988 176.206 118.715 173.355 117.85C172.946 118.097 172.916 118.512 172.823 118.868C172.468 120.242 172.482 120.257 173.913 120.618C179.639 122.066 185.256 123.871 190.454 126.694C194.104 128.671 197.304 131.177 199.331 134.974C200.84 137.826 201.55 141.034 201.388 144.258C201.307 145.117 201.436 145.982 201.762 146.781C202.089 147.579 202.603 148.286 203.262 148.841C205.945 151.238 207.943 154.051 208.648 157.739C209.131 160.337 208.887 163.018 207.943 165.486C207.385 167.028 207.4 167.043 208.855 167.71C213.636 169.887 218.281 172.353 222.763 175.096C229.174 179.051 234.072 184.489 237.894 190.95C240.966 196.141 243.462 201.638 245.987 207.115C252.398 221.036 258.672 235.027 264.477 249.215C267.436 256.398 270.262 263.63 272.195 271.164C273.448 276.028 274.261 280.967 273.956 286.024C273.901 286.919 273.956 287.829 273.571 288.669L272.027 288.59C271.406 287.967 271.48 287.161 271.534 286.41C272.027 277.877 269.68 269.893 266.844 262.013C263.564 252.888 259.747 243.984 255.866 235.111C254.909 232.906 254.608 232.767 252.384 233.628C249.868 234.582 247.397 235.664 244.877 236.594C242.451 237.498 241.538 237.088 240.488 234.75C238.89 231.176 237.489 227.517 236.158 223.834C235.245 221.303 235.817 220.196 238.318 219.227C240.71 218.303 243.077 217.314 245.533 216.567C246.638 216.236 247.171 215.742 246.599 214.481C242.594 205.667 238.925 196.684 233.46 188.607C232.24 186.721 230.809 184.981 229.194 183.421C228.982 183.218 228.78 183.006 228.577 182.793C224.094 178.344 218.714 175.254 213.19 172.372C209.659 170.528 205.975 169.02 202.34 167.399C202.167 167.325 201.98 167.27 201.807 167.181C200.781 166.687 199.341 166.148 199.953 164.759C200.545 163.454 201.857 164.354 202.853 164.63C203.282 164.749 203.686 164.967 204.11 165.125C204.895 165.387 205.398 165.278 205.733 164.368C207.168 160.512 206.616 156.953 204.401 153.552C203.663 152.419 202.764 151.4 201.733 150.526C200.8 149.814 200.068 148.869 199.611 147.786C199.153 146.704 198.986 145.52 199.124 144.352C199.135 143.454 199.074 142.556 198.942 141.668C198.518 135.879 195.139 132.141 190.424 129.393C185.399 126.461 179.954 124.553 174.356 123.05C173.37 122.788 172.492 122.516 172.122 123.955C171.752 125.393 172.502 125.665 173.602 126.051C177.952 127.534 182.479 128.671 186.104 131.79C189.443 134.668 190.158 138.014 188.279 141.959C187.056 144.525 185.157 146.497 182.977 148.228C179.356 150.995 175.598 153.579 171.718 155.969C164.956 160.3 158.456 164.957 152.508 170.395C147.523 175.029 143.243 180.37 139.804 186.249C139.375 186.965 138.975 187.702 138.492 188.384C137.506 189.754 136.568 189.808 135.612 188.434C134.364 186.644 133.323 184.721 132.159 182.877C129.852 179.24 127.167 175.858 124.15 172.787C119.961 168.622 115.418 164.831 110.573 161.457C105.093 157.531 99.2638 154.135 93.7401 150.269C91.4184 148.66 89.296 146.78 87.4174 144.668C83.9158 140.714 83.3832 134.831 88.7441 131.143C92.4529 128.592 96.6351 127.242 100.921 126.016C101.907 125.73 102.509 125.374 102.272 124.163C102.036 122.951 101.434 122.546 100.25 122.927C95.92 124.321 91.4665 125.344 87.3928 127.475C84.5471 128.958 81.6521 130.293 79.3538 132.665C77.9874 134.026 76.902 135.643 76.1599 137.424C75.4177 139.206 75.0333 141.116 75.0286 143.047C74.999 145.88 74.4466 148.356 72.2224 150.324C71.2705 151.164 70.585 152.301 69.7959 153.29C67.3299 156.454 67.3299 160.072 67.9513 163.76C68.2275 165.367 68.6862 165.51 70.2496 164.828C70.9335 164.474 71.6442 164.175 72.3752 163.933C72.9375 163.79 73.554 163.627 73.909 164.289C74.0349 164.552 74.0809 164.845 74.0414 165.134C74.002 165.422 73.8788 165.692 73.6871 165.911C73.1912 166.506 72.5358 166.947 71.7982 167.181C65.4222 169.903 59.2309 173.041 53.2642 176.574C50.4128 178.312 47.7514 180.345 45.3239 182.64C45.1951 182.787 45.0584 182.927 44.9146 183.06C40.3329 188.004 36.9249 193.703 34.0645 199.774C31.8451 204.471 29.5074 209.113 27.4459 213.888C26.5582 215.944 26.5187 215.935 28.7084 216.666C31.199 217.502 33.7044 218.303 36.1457 219.281C38.2418 220.127 38.6462 220.863 37.8965 222.979C36.4761 226.969 35.0755 230.968 33.4578 234.878C32.5454 237.049 31.5147 237.533 29.177 236.618C26.6716 235.63 24.1859 234.601 21.6657 233.652C19.2935 232.767 19.1061 232.871 18.0852 235.214C13.5331 245.621 9.20783 256.111 5.50399 266.853C3.42211 272.806 2.4508 279.091 2.63858 285.396C2.66323 286.469 2.95915 287.616 2.13059 288.555Z" fill="#030302"/>
<path d="M101.434 110.844C100.886 110.35 101.217 108.971 99.8703 109.297C99.0812 109.208 99.0812 108.536 98.9776 108.002C98.2083 104.047 97.9272 99.9834 96.9359 96.0483C96.8464 95.8042 96.8315 95.5389 96.8929 95.2862C96.9544 95.0336 97.0895 94.8049 97.2811 94.6295C97.4655 94.7865 97.6951 94.8803 97.9364 94.8972C98.1778 94.9141 98.4182 94.8532 98.6225 94.7234C99.0178 94.4314 99.4887 94.2598 99.9788 94.2291C101.592 92.2517 102.726 89.9727 104.63 88.1782C113.231 80.0806 129.215 83.462 132.741 95.4254C133.072 96.5476 132.574 98.1345 133.826 98.7228C134.813 99.1875 136.09 98.7228 137.244 98.7228C140.469 98.7673 140.4 98.7228 141.392 95.6578C143.409 89.4091 149.495 83.2989 158.791 83.9416C165.874 84.4112 170.598 87.9458 173.977 94.1599C175.052 91.9007 176.191 89.8689 177.113 87.7333C177.177 87.6567 177.267 87.6066 177.365 87.5929C177.464 87.5792 177.564 87.6028 177.646 87.6591C177.646 87.9112 177.646 88.1535 177.671 88.4254C177.695 88.9197 177.823 89.4141 178.356 89.4141C178.992 89.3646 178.741 88.7417 178.78 88.3314C178.854 87.5948 178.534 86.7841 179.19 86.1563V88.104C179.54 88.455 179.974 87.9162 180.368 88.104C180.399 88.5135 180.525 88.91 180.738 89.2608C179.934 90.7043 178.346 91.4063 177.449 92.7658C176.747 93.3346 176.283 94.1456 176.147 95.0398C175.871 96.422 175.391 97.755 174.721 98.9947C173.587 100.942 174.84 102.534 175.708 104.156C175.915 106.094 175.343 107.928 174.973 109.782C174.899 110.157 174.697 110.498 174.218 110.488C174.164 109.762 173.676 109.658 173.089 109.693C171.22 112.659 168.887 115.101 165.652 116.673C155.24 121.75 143.458 116.08 140.992 104.749C140.317 101.62 139.463 100.957 136.287 101.101C134.344 101.19 133.737 101.733 133.412 103.701C132.583 108.768 130.191 112.861 125.846 115.694C119.036 120.143 108.136 119.342 102.312 111.7C102.09 111.363 102.03 110.81 101.434 110.844Z" fill="#1F130B"/>
<path d="M81.3167 67.5883C82.5493 64.2438 84.2318 61.0837 86.3176 58.1956C84.9071 61.5819 83.9108 65.1165 82.6532 68.5375C82.5484 68.2649 82.3657 68.0294 82.1279 67.8606C81.8901 67.6917 81.6079 67.597 81.3167 67.5883Z" fill="#E4E7DE"/>
<path d="M86.3965 39.8254C86.9561 39.2571 87.699 38.9066 88.4925 38.8367C88.0996 39.4764 87.504 39.9656 86.8009 40.2258L86.3965 39.8254Z" fill="#86918D"/>
<path d="M82.5842 68.8044C82.6298 69.0252 82.6247 69.2534 82.5692 69.4719C82.5136 69.6903 82.4091 69.8932 82.2636 70.0651C82.1693 69.8492 82.1497 69.6079 82.2078 69.3795C82.2658 69.1511 82.3983 68.9488 82.5842 68.8044Z" fill="#E4E7DE"/>
<path d="M190.745 288.565C189.019 288.565 187.293 288.615 185.567 288.61H137.234C134.51 288.196 131.872 287.336 129.427 286.064C128.851 285.779 128.309 285.431 127.809 285.026C126.517 283.903 125.704 282.554 126.172 280.789C126.641 279.024 128.002 278.204 129.654 277.823C131.048 277.571 132.479 277.611 133.856 277.942C138.935 279.041 143.955 280.396 148.898 282C153.7 283.457 158.771 283.795 163.723 282.989C163.87 282.989 164.015 282.95 164.142 282.876C164.269 282.802 164.375 282.696 164.448 282.569C163.351 282.474 162.246 282.498 161.154 282.638C156.834 283.493 152.725 282.47 148.661 281.278C145.278 280.29 141.905 279.247 138.566 278.1C137.137 277.683 135.837 276.909 134.788 275.85C132.968 273.873 133.456 271.085 135.853 269.918C137.723 268.994 139.725 269.048 141.703 269.369C146.191 270.101 150.669 270.907 155.201 271.347C159.733 271.787 163.812 270.141 167.856 268.425C166.155 268.574 164.586 269.251 162.954 269.686C160.685 270.289 160.039 269.879 160.271 267.525C160.528 264.846 160.508 262.142 160.971 259.472C161.188 258.222 161.716 257.806 162.944 258.237C165.602 259.176 168.31 259.982 170.953 260.97C173.597 261.959 175.279 263.936 177.005 265.914C178.198 267.259 179.319 268.667 180.364 270.131C182.257 272.85 184.373 275.297 187.362 276.869C188.241 277.414 188.931 278.218 189.335 279.172C190.568 281.56 190.977 284.156 191.258 286.786C191.321 287.102 191.307 287.428 191.218 287.738C191.129 288.048 190.967 288.331 190.745 288.565Z" fill="#6C382C"/>
<path d="M126.833 288.595H85.0353C84.4632 288.595 83.8911 288.54 83.314 288.511C81.8345 284.729 83.8072 278.386 87.2102 276.463C90.5294 274.595 92.4479 271.416 94.825 268.667C95.7078 267.649 96.5314 266.581 97.3748 265.528C100.122 262.092 103.905 260.525 107.964 259.294C112.683 257.866 112.614 257.777 113.28 262.542C113.517 264.454 113.59 266.382 113.497 268.306C113.463 269.547 112.876 270.037 111.623 269.715C109.907 269.275 108.171 268.84 106.459 268.45C110.711 270.388 115.095 271.816 119.859 271.342C123.43 270.981 126.976 270.398 130.512 269.775C131.14 269.634 131.786 269.594 132.426 269.656C133.234 269.775 133.802 270.15 133.56 271.065C133.128 272.554 133.128 274.134 133.56 275.623C133.816 276.503 133.313 276.943 132.495 277.106C131.794 277.225 131.084 277.16 130.384 277.22C128.495 277.383 126.867 278.07 125.945 279.81C125.24 281.11 124.12 281.669 122.789 282.109C118.937 283.389 115.046 282.663 111.159 282.485C110.785 282.406 110.401 282.386 110.02 282.425C109.966 282.425 109.931 282.509 109.561 282.88C113.329 282.93 116.737 283.869 120.244 283.266C120.624 283.201 121.003 283.122 121.378 283.048C125.092 282.292 125.61 282.554 127.296 285.985C127.546 286.403 127.636 286.897 127.551 287.377C127.466 287.856 127.211 288.289 126.833 288.595Z" fill="#6C382C"/>
<path d="M126.833 288.595C126.897 288.219 126.956 287.843 127.03 287.468C127.08 287.22 127.282 286.904 127.193 286.741C126.473 285.406 125.368 284.323 124.663 282.964C124.53 282.707 124.071 282.91 123.77 283.018C119.381 284.645 114.893 283.651 110.454 283.513C110.199 283.482 109.949 283.419 109.71 283.325C109.177 283.167 108.398 283.122 108.605 282.336C108.777 281.659 109.517 281.654 110.084 281.787C112.097 282.282 114.168 282.069 116.2 282.321C118.848 282.657 121.413 281.985 123.943 281.239C124.22 281.156 124.475 281.011 124.687 280.815C124.9 280.619 125.065 280.376 125.171 280.107C126.369 277.487 128.53 276.572 131.262 276.646C131.893 276.646 132.529 276.646 133.437 276.646C132.519 274.506 132.169 272.429 133.466 270.313C132.48 269.913 131.622 270.185 130.769 270.313C126.414 271.001 122.084 271.999 117.655 271.955C113.502 271.915 109.606 270.6 105.818 268.964C105.409 268.791 104.881 268.573 105.093 268.025C105.305 267.476 105.878 267.402 106.405 267.619C108.523 268.435 110.71 269.057 112.94 269.478C113.295 267.995 113.014 266.621 112.979 265.241C112.93 263.318 112.748 261.405 112.644 259.482C112.6 258.711 112.274 258.459 111.525 258.721C108.684 259.71 105.808 260.609 103.002 261.687C100.536 262.641 98.8595 264.653 97.1876 266.63C95.4318 268.667 93.829 270.837 92.1472 272.938C90.8945 274.506 89.484 275.969 87.6641 276.799C85.6371 277.729 84.7346 279.35 84.1378 281.318C83.4645 283.664 83.1943 286.108 83.3389 288.545C82.7438 288.702 82.1203 288.715 81.519 288.585C81.2827 288.364 81.1089 288.084 81.0154 287.774C80.9218 287.464 80.9118 287.135 80.9864 286.82C81.5042 281.995 82.1602 277.215 86.9046 274.263C85.9839 274.036 85.0186 274.065 84.1132 274.347C82.0664 274.842 80.0049 275.287 77.9385 275.727C76.6727 275.943 75.4803 276.471 74.4681 277.263C73.4558 278.055 72.6555 279.087 72.1386 280.265C71.1135 282.329 70.4036 284.535 70.0327 286.81C69.939 287.512 69.9044 288.234 69.1449 288.6V288.654L67.6062 288.56C66.9453 287.858 67.0242 287.003 67.2314 286.197C67.755 284.02 68.4341 281.884 69.2633 279.805C70.9007 275.85 73.8598 273.616 77.9631 272.741C78.6347 272.643 79.2889 272.45 79.9063 272.167C76.5871 269.518 73.2779 267.397 68.9871 267.145C63.1922 266.804 57.7129 268.46 52.1497 269.616C51.0844 269.834 50.0487 270.19 48.9736 270.363C48.3374 270.462 47.6272 270.556 47.3707 269.735C47.1488 269.018 47.5729 268.494 48.1154 268.109C49.4076 267.184 50.9562 267.011 52.4407 266.626C53.1241 266.368 53.8288 266.171 54.5466 266.037C58.3096 265.32 61.9839 264.104 65.8899 264.169C66.2993 264.169 66.7135 264.169 67.1229 264.169C72.8488 263.907 77.5735 266.265 81.7705 269.903C82.8062 270.798 83.8419 271.317 85.2228 271.159C86.1698 271.055 87.1956 270.917 88.0784 271.322C89.7651 272.108 90.6874 271.233 91.6244 270.046C93.5627 267.491 95.6405 265.045 97.8484 262.72C99.7015 260.84 102.012 259.477 104.551 258.765C106.41 258.277 108.237 257.671 110.02 256.951C110.57 256.774 111.043 256.412 111.358 255.927C111.673 255.442 111.812 254.862 111.751 254.286C111.702 252.487 111.258 250.732 111.337 248.918C111.451 246.337 112.24 244.142 114.444 242.62C115.845 241.502 117.492 241.329 119.199 241.389C127.233 241.488 135.262 241.191 143.291 241.389C144.982 241.339 146.679 241.339 148.371 241.389C150.6 241.389 152.809 241.324 155.053 241.423C156.735 241.384 158.372 241.542 159.768 242.625C162.791 244.889 163.112 248.063 162.693 251.464C162.071 256.452 161.943 256.086 166.924 257.89C168.187 258.355 169.499 258.681 170.766 259.126C173.651 260.101 176.182 261.911 178.041 264.327C179.328 266.008 180.699 267.624 181.912 269.359C183.051 270.991 184.067 271.742 186.533 271.431C189.343 271.082 192.01 269.995 194.267 268.282C197.911 265.676 201.945 263.867 206.596 264.183C207.01 264.149 207.425 264.183 207.839 264.183C211.824 264.307 215.651 265.36 219.537 266.106C220.114 266.333 220.704 266.525 221.303 266.68C222.477 266.972 223.705 267.046 224.805 267.629C225.673 268.089 226.728 268.558 226.348 269.725C225.969 270.892 224.829 270.393 224.025 270.19C219.306 268.984 214.532 268.054 209.723 267.318C203.755 266.413 198.626 268.163 194.02 272.202C194.658 272.507 195.347 272.693 196.052 272.751C199.287 273.423 201.802 275.025 203.563 277.922C205.177 280.626 206.205 283.641 206.581 286.771C206.666 287.081 206.671 287.408 206.598 287.721C206.525 288.034 206.375 288.324 206.162 288.565L204.653 288.629V288.585C204.022 288.016 204.007 287.201 203.864 286.464C203.571 285.149 203.206 283.852 202.769 282.578C201.482 278.495 199.001 275.806 194.548 275.277C192.96 275.089 191.446 274.481 189.867 274.224C189.007 274 188.102 274.022 187.253 274.288C191.736 277.556 192.619 282.311 192.762 287.374C192.781 287.599 192.746 287.825 192.66 288.034C192.575 288.243 192.44 288.428 192.269 288.575C191.766 288.694 191.243 288.694 190.74 288.575C190.796 285.417 190.165 282.284 188.891 279.395C188.523 278.432 187.823 277.634 186.918 277.145C184.319 275.86 182.391 273.868 180.729 271.515C178.839 268.838 176.748 266.309 174.475 263.951C173.322 262.734 171.892 261.815 170.308 261.272C167.467 260.283 164.606 259.383 161.578 258.385C161.228 262.117 160.769 265.76 160.789 269.537C162.915 269.364 164.68 268.588 166.49 267.99C167.093 267.778 167.707 267.601 168.33 267.461C168.422 267.43 168.52 267.418 168.617 267.428C168.714 267.438 168.808 267.468 168.892 267.518C168.976 267.567 169.049 267.634 169.105 267.713C169.161 267.793 169.199 267.884 169.218 267.98C169.249 268.141 169.223 268.307 169.143 268.45C169.064 268.593 168.936 268.703 168.784 268.761C167.733 269.256 166.697 269.75 165.607 270.135C162.515 271.188 159.403 272.261 156.059 271.965C152.043 271.618 148.048 271.06 144.09 270.294C142.342 269.888 140.552 269.695 138.758 269.72C137.727 269.742 136.714 270.002 135.799 270.482C135.369 270.699 134.996 271.015 134.709 271.403C134.422 271.792 134.23 272.242 134.148 272.718C134.065 273.193 134.095 273.682 134.235 274.144C134.374 274.607 134.619 275.03 134.951 275.381C135.761 276.309 136.813 276.994 137.989 277.358C142.921 278.92 147.813 280.705 152.888 281.832C155.193 282.411 157.588 282.539 159.941 282.208C161.519 281.946 163.146 282.183 164.73 281.852C164.836 281.812 164.951 281.798 165.064 281.811C165.177 281.824 165.286 281.862 165.381 281.924C165.477 281.986 165.557 282.069 165.615 282.167C165.673 282.265 165.708 282.376 165.716 282.489C165.77 282.984 165.43 283.147 165.035 283.27C164.419 283.439 163.791 283.561 163.156 283.636C157.381 284.516 151.813 283.597 146.324 281.812C142.059 280.432 137.722 279.285 133.333 278.376C131.883 278.075 130.404 277.882 128.973 278.465C126.054 279.647 125.566 282.489 127.953 284.536C129.235 285.638 130.843 286.162 132.391 286.81C133.94 287.458 135.74 287.66 137.224 288.595C135.582 288.703 133.933 288.688 132.293 288.55C130.986 288.55 129.679 287.428 128.372 288.55L126.833 288.595Z" fill="#030302"/>
<path d="M192.274 288.565C192.469 285.552 192.006 282.532 190.918 279.716C189.985 277.333 188.674 275.232 186.045 274.491C186.109 273.7 186.612 273.67 187.031 273.581C187.404 273.49 187.789 273.465 188.171 273.507C191.783 273.931 195.335 274.772 198.754 276.013C199.88 276.516 200.802 277.388 201.368 278.485C203.271 281.529 204.406 284.992 204.673 288.575L192.274 288.565Z" fill="#5FAB5C"/>
<path d="M69.1399 288.6C69.3717 287.408 69.5838 286.217 69.8353 285.035C70.3434 282.852 71.1746 280.758 72.3012 278.821C72.7198 278.024 73.2988 277.321 74.0016 276.759C74.7044 276.196 75.5159 275.786 76.3848 275.554C79.2206 274.807 82.091 274.174 84.9663 273.606C85.997 273.403 87.1264 273.26 88.098 273.972C88.098 274.605 87.5654 274.674 87.1856 274.822C85.1142 275.618 83.9256 277.244 83.1415 279.197C81.9025 282.167 81.3349 285.374 81.4794 288.59L69.1399 288.6Z" fill="#5EAE5D"/>
<path d="M128.352 288.54C128.352 287.646 128.801 287.211 129.674 287.492C130.547 287.774 131.405 288.184 132.273 288.54H128.352Z" fill="#73544B"/>
<path d="M52.5886 267.076C51.4543 267.654 50.0832 267.417 48.9735 268.133C48.6205 268.283 48.2888 268.48 47.9872 268.717C47.7159 269.004 47.4644 269.335 47.6764 269.74C47.8885 270.145 48.3028 270.022 48.6628 269.918C52.6083 268.85 56.5933 268.064 60.5782 267.234C64.356 266.448 68.2029 266.136 71.9659 267.085C75.4182 267.955 78.3132 269.903 81.0455 272.578C78.6733 273.151 76.5575 273.473 74.6341 274.441C73.1163 275.138 71.8428 276.277 70.9795 277.709C69.0068 281.066 67.7048 284.63 67.5913 288.585C65.2882 288.585 62.985 288.634 60.6867 288.639H3.6595C3.16631 288.639 2.6386 288.6 2.13062 288.58C2.13062 286.716 2.13062 284.857 2.13062 282.994C2.13509 277.936 2.95105 272.912 4.54723 268.114C6.46573 262.142 8.7196 256.284 11.1411 250.5C13.3408 245.246 15.5305 239.99 17.7104 234.73C18.7806 232.154 18.7954 232.11 21.429 233.084C23.7667 233.944 26.1291 234.74 28.3879 235.817C29.084 236.145 29.8203 236.38 30.5777 236.514C31.8402 236.737 32.3433 236.445 32.8019 235.239C34.3966 231.05 35.9665 226.855 37.5119 222.653C38.1875 220.794 38.0051 220.542 36.1655 219.835C33.3642 218.747 30.5135 217.798 27.658 216.869C25.7839 216.261 25.8233 216.266 26.6026 214.545C28.7726 209.76 31.0412 205.029 33.2902 200.273C35.2477 196.033 37.5574 191.965 40.1948 188.112C41.5177 186.072 43.0919 184.207 44.8801 182.561C49.3927 187.702 52.8648 193.52 55.8634 199.631C57.6684 203.319 59.1085 207.165 60.5832 211.001C60.8051 211.579 60.8248 212.261 61.4018 212.692C61.7471 212.326 61.5251 211.95 61.4018 211.634C58.1961 202.785 54.4331 194.282 48.939 186.575C47.7948 184.978 46.0835 184.034 44.8702 182.551C46.4994 180.751 48.366 179.182 50.4186 177.889C57.0865 173.44 64.2919 169.935 71.6503 166.761C72.4246 166.43 73.2235 166.178 73.623 165.357C73.699 165.214 73.7388 165.054 73.7388 164.892C73.7388 164.73 73.699 164.571 73.623 164.428C73.4159 164.062 73.0904 164.25 72.7797 164.324C71.6404 164.596 70.6836 165.273 69.6183 165.708C68.4347 166.202 67.9218 166 67.6456 164.759C66.6198 160.062 66.8022 155.603 70.3236 151.817C71.2804 150.788 72.1435 149.671 73.115 148.648C74.3973 147.293 74.5256 145.538 74.496 143.788C74.4372 140.827 75.1873 137.907 76.6651 135.343C78.1429 132.778 80.292 130.668 82.8801 129.239C88.4384 125.977 94.4848 123.886 100.719 122.318C102.272 121.933 102.341 121.987 102.613 123.446C103.066 125.848 103.071 125.873 100.709 126.555C97.0839 127.608 93.4985 128.775 90.2385 130.718C88.9981 131.388 87.8847 132.272 86.9489 133.328C83.9898 136.951 85.1784 141.317 87.526 144.075C90.1201 147.12 93.316 149.463 96.6598 151.639C102.396 155.366 108.25 158.921 113.675 163.098C116.634 165.392 119.534 167.829 122.335 170.37C125.827 173.544 128.613 177.256 131.489 180.914C132.86 182.664 133.866 184.701 135.035 186.609C135.37 187.158 135.686 187.717 136.056 188.241C136.879 189.402 137.348 189.363 138.122 188.097C139.493 185.858 140.79 183.569 142.26 181.399C143.921 178.965 145.752 176.652 147.739 174.478C154.688 166.835 162.984 160.918 171.644 155.43C175.566 153.027 179.353 150.408 182.987 147.585C185.251 145.872 187.039 143.607 188.181 141.005C189.561 137.643 188.61 134.658 185.932 132.24C183.12 129.694 179.614 128.686 176.231 127.386C174.924 126.891 173.632 126.298 172.196 126.204C171.427 126.15 171.21 125.71 171.457 125.018C171.485 124.893 171.498 124.765 171.496 124.637C171.822 121.859 171.866 121.814 174.455 122.516C179.88 123.999 185.212 125.863 190.153 128.631C192.871 130.084 195.236 132.118 197.083 134.588C198.291 136.254 198.779 138.158 199.188 140.1C199.549 141.924 199.691 143.785 199.613 145.642C199.572 146.284 199.679 146.927 199.926 147.52C200.172 148.114 200.551 148.644 201.033 149.068C201.699 149.666 202.296 150.348 202.937 150.976C204.432 152.387 205.57 154.136 206.257 156.076C206.943 158.017 207.157 160.094 206.882 162.134C206.764 163.251 205.95 164.18 205.92 165.372C205.92 165.837 205.309 165.995 204.826 165.832C204.16 165.609 203.519 165.337 202.853 165.09C202.187 164.843 201.526 164.625 200.88 164.438C200.756 164.397 200.622 164.396 200.498 164.435C200.373 164.474 200.264 164.551 200.185 164.655C200.081 164.795 200.03 164.967 200.039 165.141C200.048 165.315 200.117 165.481 200.234 165.609C200.578 166.077 201.062 166.423 201.615 166.598C206.803 168.616 211.849 170.981 216.721 173.677C220.07 175.511 223.404 177.444 226.23 180.104C227.103 180.929 228.257 181.458 228.854 182.575C220.716 190.327 216.85 200.516 212.904 210.655C212.61 211.248 212.492 211.914 212.564 212.573C213.55 210.441 214.469 208.287 215.321 206.112C217.955 199.43 221.339 193.069 225.406 187.153C226.481 185.601 227.488 183.925 229.243 182.966C230.762 183.89 231.788 185.309 232.76 186.723C234.732 189.63 236.75 192.522 238.323 195.696C241.489 202.068 244.557 208.489 247.383 215.025C247.876 216.182 247.876 216.266 246.682 216.656C243.758 217.596 240.907 218.728 238.037 219.82C236.207 220.512 235.748 221.189 236.38 223.004C237.859 227.24 239.546 231.408 241.312 235.516C241.755 236.564 242.559 236.826 243.921 236.346C245.726 235.704 247.486 234.938 249.277 234.25C250.707 233.697 252.142 233.143 253.592 232.649C254.948 232.189 255.022 232.199 255.644 233.524C256.867 236.134 258.07 238.759 259.175 241.433C261.434 246.871 263.697 252.309 265.823 257.801C268.343 264.302 270.523 270.912 271.667 277.828C271.891 279.217 272.005 280.622 272.008 282.03C272.008 284.215 272.008 286.4 272.008 288.585C271.564 288.585 271.115 288.634 270.666 288.634H207.686C207.193 288.634 206.665 288.595 206.157 288.575C206.096 284.195 204.61 279.955 201.926 276.498C200.377 274.481 198.099 273.814 195.79 273.23C194.878 272.998 193.941 272.874 192.831 272.667C193.956 271.184 195.465 270.323 196.87 269.399C201.043 266.665 205.59 266.191 210.458 266.927C215.326 267.664 220.095 268.672 224.849 269.859C225.268 269.963 225.752 270.304 226.033 269.755C226.084 269.634 226.109 269.504 226.106 269.373C226.103 269.242 226.072 269.113 226.016 268.995C225.959 268.876 225.878 268.771 225.779 268.687C225.679 268.602 225.562 268.54 225.436 268.504C224.45 268.089 223.542 267.422 222.398 267.436C222.177 267.477 221.95 267.466 221.734 267.405C221.517 267.344 221.318 267.235 221.15 267.085C223.734 266.057 226.481 265.919 229.199 265.751C238.569 265.182 247.087 267.639 255.007 273.191C253.375 271.258 249.656 269.033 246.179 267.782C239.999 265.558 233.402 264.737 226.866 265.38C226.235 265.439 225.387 265.701 225.115 265.034C224.78 264.228 225.609 263.778 226.2 263.457C230.974 260.817 236.034 259.062 241.519 258.795C243.856 258.686 246.204 258.721 248.532 258.746C239.654 257.525 231.359 259.072 223.956 264.406C222.6 265.395 221.308 266.413 219.587 266.65C215.641 265.978 211.74 264.777 207.681 264.698C207.119 264.07 207.153 263.289 207.109 262.518C206.512 251.746 206.645 240.993 208.209 230.296C208.237 230.142 208.207 229.983 208.125 229.851C206.457 239.414 205.96 249.146 206.645 258.83C206.784 260.758 207.469 262.74 206.645 264.678C200.841 264.49 196.155 267.061 191.953 270.739C191.635 271.044 191.259 271.284 190.848 271.443C190.436 271.603 189.997 271.679 189.557 271.668C187.86 271.668 186.104 271.287 184.585 272.563C184.053 273.013 183.648 272.38 183.352 271.999C181.465 269.58 179.592 267.153 177.735 264.717C175.797 262.13 173.064 260.254 169.957 259.378C167.57 258.688 165.223 257.863 162.929 256.907C162.618 256.824 162.346 256.632 162.165 256.365C161.984 256.098 161.905 255.774 161.943 255.453C162.037 254.242 161.977 253.041 162.145 251.815C162.461 249.546 162.702 247.242 161.415 245.082C160.91 244.346 160.309 243.682 159.63 243.104C160.355 240.899 160.616 238.601 161.149 236.351C161.682 234.102 162.135 233.751 164.448 233.687C165.474 233.687 166.505 233.627 167.526 233.687C169.084 233.781 169.499 233 169.499 231.576C169.499 230.236 169.257 229.287 167.62 229.391C166.789 229.448 165.955 229.448 165.124 229.391C163.354 229.267 162.924 228.807 163.186 227.102C163.413 225.579 163.728 224.067 163.995 222.549C164.236 221.165 165.055 220.572 166.401 220.601C166.786 220.601 167.171 220.601 167.555 220.601C168.798 220.631 169.859 220.542 169.873 218.836C169.873 216.898 169.681 216.572 167.689 216.295C165.967 216.058 165.588 215.613 165.824 213.888C166.061 212.163 166.505 210.615 166.752 208.944C166.875 208.148 167.501 207.12 166.11 206.725C164.498 206.265 162.89 206.764 162.505 207.965C161.958 209.681 161.82 211.495 161.312 213.22C161.006 214.273 161.213 215.776 159.788 216.083C157.976 216.54 156.075 216.501 154.284 215.969C153.426 215.687 153.702 214.773 153.835 214.105C154.185 212.345 154.664 210.605 154.876 208.821C154.974 207.995 155.462 206.987 154.037 206.695C152.311 206.344 150.989 206.739 150.624 207.926C150.082 209.711 149.84 211.564 149.475 213.389C148.982 215.949 148.597 216.241 146.023 216.29C145.53 216.29 144.997 216.29 144.484 216.29C142.344 216.345 141.569 217.457 142.151 219.548C142.403 220.458 143.069 220.492 143.784 220.537C147.759 220.878 147.759 220.878 147.113 224.877C147.009 225.51 146.911 226.143 146.773 226.771C146.279 228.926 145.895 229.243 143.656 229.376C141.5 229.485 140.696 230.755 141.421 232.787C141.737 233.682 142.477 233.627 143.153 233.677C144.558 233.781 145.125 234.493 144.79 235.852C144.297 237.829 144.4 239.94 143.562 241.854C135.291 241.938 127.02 242.041 118.75 241.888C119.129 240.805 120.086 241.067 120.851 241.053C123.287 240.998 125.728 240.969 128.16 241.053C128.895 241.096 129.63 240.963 130.304 240.666C130.978 240.369 131.571 239.915 132.036 239.342C133.385 237.788 134.427 235.991 135.109 234.048C135.444 233.138 135.222 232.565 134.28 232.278C133.787 232.13 133.294 231.961 132.801 231.818C129.516 230.869 129.442 230.829 127.982 233.969C126.503 237.197 123.736 238.373 120.525 238.522C117.408 238.66 114.503 237.558 113.058 234.671C110.015 228.58 109.991 222.312 113.024 216.157C115.618 210.867 125.21 210.328 128.115 216.434C128.949 218.179 129.93 218.352 131.607 217.917C135.622 216.824 135.967 216.172 133.521 212.677C129.876 207.461 124.579 205.949 118.616 206.824C109.389 208.178 104.773 214.629 104.314 223.696C104.156 226.889 104.112 230.088 105.3 233.207C106.938 237.572 109.586 240.904 113.981 242.679C114.223 242.768 114.433 242.926 114.587 243.134C112.654 244.429 112.067 246.382 111.875 248.572C111.682 250.762 112.338 252.764 112.299 254.89C112.299 256.002 111.968 256.625 110.942 257.114C109.029 258.002 107.036 258.706 104.99 259.215C102.436 259.84 100.107 261.169 98.2676 263.051C96.1088 265.324 94.0786 267.715 92.1866 270.215C91.792 270.709 91.3136 271.154 90.9142 271.653C90.2878 272.429 89.7354 272.78 88.7195 272.064C87.5506 271.238 86.0711 271.569 84.774 271.708C84.2117 271.776 83.6411 271.707 83.1112 271.507C82.5813 271.306 82.1077 270.98 81.731 270.556C78.8296 267.814 75.2565 265.89 71.3741 264.979C69.9586 264.628 68.5728 264.816 67.1771 264.693C66.6395 263.244 67.0735 261.786 67.1771 260.333C67.7788 250.139 67.468 239.985 65.6975 229.905C66.9206 238.368 67.1771 246.876 67.0587 255.409C67.0192 258.039 66.5162 260.634 66.6198 263.274C66.6467 263.792 66.4696 264.3 66.1266 264.688C63.5817 264.614 61.1306 265.207 58.6696 265.721C57.2541 266.018 55.8387 266.29 54.4232 266.571C52.5442 266.393 51.1584 265.271 49.6739 264.253C42.6854 259.487 34.9621 257.693 26.6322 258.409C26.2494 258.442 25.8795 258.564 25.5521 258.765C26.9478 258.765 28.3386 258.849 29.7244 258.765C35.9682 258.395 41.5609 260.51 47.0698 263.121C47.8984 263.516 49.2842 263.976 48.9834 264.955C48.653 266.032 47.3164 265.365 46.404 265.311C37.4823 264.757 28.9995 266.097 21.3057 270.961C20.4472 271.412 19.6809 272.021 19.0469 272.756C19.3872 273.072 19.6141 272.756 19.8163 272.617C28.7775 266.428 38.6709 264.559 49.3138 266.28C50.4087 266.458 51.6614 266.156 52.5886 267.076Z" fill="#23241E"/>
<path d="M101.434 110.844C101.463 110.592 101.488 110.35 101.518 110.088C102.075 110.024 102.139 110.543 102.351 110.825C105.651 115.274 109.961 117.701 115.564 117.864C119.539 117.978 123.193 117.167 126.414 114.74C128.305 113.357 129.876 111.581 131.018 109.533C132.16 107.486 132.848 105.214 133.032 102.875C133.165 101.511 133.358 101.229 134.63 100.863C136.49 100.329 138.295 100.676 140.09 101.214C140.398 101.296 140.67 101.476 140.865 101.728C141.06 101.98 141.167 102.289 141.17 102.608C141.316 103.953 141.6 105.278 142.018 106.563C144.277 113.02 148.745 116.88 155.527 117.859C162.392 118.848 167.733 116.169 171.915 110.8C172.226 110.404 172.186 109.475 173.119 109.727C172.591 112.362 172.098 115.007 171.526 117.637C170.834 121.027 169.915 124.367 168.774 127.633C167.606 130.749 165.901 133.635 163.738 136.16C159.99 140.635 155.759 144.681 151.122 148.223C147.493 150.981 143.384 152.044 138.995 152.504C131.75 153.26 125.733 150.526 120.288 146.042C116.151 142.651 112.649 138.627 109.295 134.509C106.972 131.647 105.547 128.265 104.561 124.706C103.268 120.128 102.322 115.496 101.434 110.844Z" fill="#6C382C"/>
<path d="M177.301 87.7087C177.354 88.3524 177.231 88.9985 176.946 89.5774C175.801 91.357 175.067 93.3493 173.987 95.5096C170.115 86.7398 163.344 83.2546 154.392 84.7623C146.403 86.1119 142.432 91.7822 140.948 99.6276C139.527 99.2936 138.066 99.1588 136.608 99.2272C135.905 99.2443 135.204 99.2987 134.507 99.3903C133.027 99.6325 132.86 99.5485 132.687 98.1248C131.972 92.2617 128.875 88.1338 123.499 85.8499C117.625 83.3781 111.875 83.6105 106.533 87.333C104.06 88.9777 102.126 91.3184 100.975 94.0612C100.709 94.7285 100.438 94.8324 99.9887 94.249C99.8112 93.3592 99.0615 92.7659 98.7952 91.9255C98.4697 88.5936 99.5153 85.5385 100.625 82.4834C101.542 79.9523 103.091 77.7277 104.077 75.2213C104.123 75.016 104.184 74.8144 104.26 74.6182C104.58 72.6408 104.378 70.6979 104.378 68.7353C104.422 67.8208 104.215 66.8519 104.926 66.0757C105.004 65.7593 105.113 65.4479 105.493 65.3935C108.131 65.0129 109.152 63.3073 109.251 60.8306C109.251 60.7268 109.374 60.623 109.438 60.5241C114.991 63.07 116.649 63.0354 119.406 58.4824C120.017 59.0658 120.624 59.6343 121.216 60.2176C122.355 61.2685 123.779 61.9567 125.309 62.195C126.291 62.4059 127.314 62.2954 128.228 61.8798C129.143 61.4643 129.9 60.7655 130.389 59.8864C130.581 59.57 130.749 59.2437 130.951 58.8977C135.36 65.3688 139.828 64.4987 143.419 59.392C146.491 63.0255 150.274 63.8412 154.841 58.4824C155.63 59.4711 156.02 60.7565 157.174 61.4486C158.325 62.1804 159.713 62.4406 161.05 62.1753C162.298 61.9182 163.358 61.1865 164.616 60.4302C164.907 63.3666 166.391 65.0425 169.237 65.3737C170.08 66.3624 169.73 67.5687 169.814 68.6909C169.718 70.6196 169.728 72.5521 169.844 74.4798C169.921 74.6662 169.985 74.8578 170.036 75.0532C170.529 77.2037 172.009 78.9191 172.798 80.9558C173.676 83.0874 174.4 85.2798 174.963 87.5159C176.191 86.6211 176.428 86.6458 177.301 87.7087Z" fill="#6C382C"/>
<path d="M113.551 144.297C115.903 147.198 118.457 149.927 121.196 152.464C123.928 155.079 126.715 157.586 130.216 159.257C135.38 161.728 140.465 161.62 145.628 159.464C147.214 158.764 148.706 157.865 150.067 156.79C154.178 153.758 157.792 150.102 160.779 145.953V147.382C160.705 151.168 160.976 154.952 161.588 158.688C161.765 159.677 161.617 160.3 160.72 160.932C156.388 163.924 152.376 167.355 148.745 171.171C147.981 172.046 146.933 172.624 145.786 172.802C143.379 173.143 140.992 173.573 138.551 173.721C134.793 173.949 131.153 173.365 127.518 172.51C126.961 172.363 126.459 172.055 126.073 171.625C122.095 167.614 117.775 163.958 113.162 160.7C112.585 160.295 112.175 159.87 112.343 159.123C113.32 154.264 113.561 149.34 113.551 144.297Z" fill="#6C382C"/>
<path d="M144.953 42.8855C144.593 47.5967 144.114 52.2782 142.724 56.8263C142.127 58.8037 140.849 60.1632 139.395 61.4188C138.408 62.2889 135.898 62.0566 134.744 61.0431C133.593 60.0168 132.717 58.7185 132.194 57.2663C131.099 54.3842 130.552 51.3686 129.975 48.3679C129.398 45.3671 128.692 42.3565 128.53 39.3212C128.367 36.2858 127.686 33.3889 128.392 30.3635C129.403 26.0576 132.727 24.1099 136.588 24.5844C139.764 24.975 141.693 27.0562 142.832 29.9136C143.919 32.6492 144.495 35.5613 144.534 38.5055C144.563 39.9885 145.042 41.4073 144.953 42.8855Z" fill="#27281D"/>
<path d="M110.937 158.466C110.714 158.512 110.483 158.504 110.264 158.443C110.044 158.382 109.842 158.269 109.675 158.115C104.802 154.921 99.9245 151.738 95.0765 148.5C93.0396 147.165 91.1687 145.592 89.5035 143.813C89.0116 143.306 88.5752 142.747 88.2015 142.147C85.8786 138.158 86.5592 134.974 90.3962 132.388C93.3553 130.411 96.6942 129.264 100.068 128.256C101.207 127.915 102.494 127.153 103.559 127.643C104.625 128.132 104.546 129.62 105.039 130.643C106.544 133.55 108.43 136.242 110.646 138.647C111.427 139.495 111.861 140.607 111.86 141.761C111.965 145.929 111.819 150.099 111.421 154.249C111.297 155.633 111.13 157.032 110.937 158.466Z" fill="#315C3B"/>
<path d="M163.171 158.53C162.502 153.036 162.212 147.503 162.303 141.969C162.322 140.943 162.699 139.957 163.368 139.181C165.558 136.427 167.807 133.708 169.36 130.51C169.499 130.218 169.666 129.941 169.78 129.645C170.899 126.703 170.702 127.326 173.207 127.964C176.617 128.847 179.889 130.194 182.933 131.968C184.826 132.956 186.273 134.63 186.977 136.65C187.276 137.497 187.29 138.419 187.017 139.275C186.186 141.864 184.607 144.147 182.479 145.835C179.633 148.119 176.656 150.234 173.562 152.167L164.877 157.838C164.409 158.12 163.995 158.559 163.171 158.53Z" fill="#305C3B"/>
<path d="M104.985 35.0202C105.05 35.4632 105.005 35.9154 104.855 36.337C104.704 36.7586 104.452 37.1365 104.122 37.4376C103.251 38.3016 102.635 39.3895 102.341 40.5817C102.202 41.1081 101.944 41.5953 101.587 42.0052C101.229 42.4151 100.782 42.7366 100.28 42.9447C95.91 44.8974 92.6304 48.2689 89.326 51.5415C86.6431 54.2012 84.695 57.4738 82.8159 60.7563C81.2768 63.3464 80.0107 66.0901 79.0381 68.9428C78.8803 69.4372 78.5449 69.8524 78.392 70.3369C77.7361 72.8433 74.1161 72.8087 72.7155 71.0636C72.0263 70.2532 71.5786 69.2649 71.4233 68.2115C71.2681 67.1581 71.4116 66.0821 71.8376 65.1066C73.1096 61.6144 74.6497 58.2261 76.444 54.9724C78.6286 50.9825 81.4076 47.3501 84.6851 44.2004C88.7736 40.3938 93.2518 37.1261 98.7656 35.5936C101.192 34.8867 102.622 34.6989 104.985 35.0202Z" fill="#26261C"/>
<path d="M158.436 39.7709C158.806 45.2088 157.277 50.2562 155.043 55.1404C154.185 56.9457 152.945 58.5417 151.408 59.817C150.75 60.3299 149.96 60.6442 149.13 60.723C148.301 60.8018 147.466 60.6419 146.723 60.2619C144.972 59.1941 144.287 57.6666 144.75 55.7089C145.996 50.4189 146.438 44.9708 146.062 39.5485C145.925 36.6804 145.5 33.8334 144.795 31.0505C144.242 29.1126 144.533 28.5787 146.274 27.6642C149.16 26.1811 152.124 26.6755 154.57 28.8654C155.893 29.9828 156.933 31.3988 157.604 32.9972C158.276 34.5956 158.559 36.3309 158.431 38.0605C158.412 38.6141 158.436 39.1925 158.436 39.7709Z" fill="#28281D"/>
<path d="M126.867 33.9771C126.998 38.3779 127.463 42.7623 128.258 47.0923C128.751 49.7174 129.388 52.3276 129.861 54.9575C130.093 56.2676 130.157 57.6271 129.289 58.8481C127.272 61.6808 124.638 61.0084 122.665 59.3721C121.013 58.0028 119.884 56.1984 118.878 54.3297C116.933 50.719 115.533 46.8389 114.725 42.8162C114.119 39.8055 113.699 36.7455 114.972 33.7645C116.407 30.4029 121.26 27.2786 125.916 29.3944C126.213 29.5061 126.466 29.7106 126.638 29.9776C126.81 30.2447 126.893 30.5601 126.872 30.8775C126.848 31.9206 126.867 32.9488 126.867 33.9771Z" fill="#28291C"/>
<path d="M93.1482 12.1117C99.8856 11.9466 106.546 13.5793 112.447 16.8427C114.603 17.9692 116.54 19.4764 118.163 21.2919C119.475 22.775 119.42 23.121 117.586 23.7241C116.111 24.1607 114.711 24.8191 113.433 25.6768C112.402 26.4283 111.751 26.102 110.923 25.5335C109.012 24.1325 106.911 23.0122 104.684 22.2065C102.386 21.46 100.077 20.7234 97.6313 20.6048C96.6153 20.5553 95.6585 20.2538 94.608 20.1944C90.7266 19.9621 87.008 20.7976 83.2647 21.5984C81.7852 21.9148 80.2711 22.1422 79.0283 20.7135C77.7854 19.2848 77.5881 17.7029 78.7422 16.2643C79.6532 15.0935 80.878 14.2069 82.2734 13.7085C85.1251 12.5786 88.174 12.034 91.2396 12.1068C91.8659 12.1414 92.5071 12.1117 93.1482 12.1117Z" fill="#27291C"/>
<path d="M170.372 42.9696C170.455 46.5784 169.439 49.7274 168.137 52.8122C167.945 53.2174 167.78 53.6353 167.644 54.0629C166.722 57.6173 164.103 59.3822 160.878 60.445C160.379 60.6023 159.85 60.6411 159.333 60.5583C158.817 60.4755 158.326 60.2734 157.901 59.968C157.476 59.6625 157.127 59.2621 156.883 58.7984C156.639 58.3346 156.505 57.8203 156.493 57.296C156.46 56.1458 156.682 55.0025 157.144 53.9492C158.816 49.9202 160.163 45.7825 159.97 41.3234C159.872 39.1581 160.237 36.973 159.664 34.8127C159.408 33.8537 159.837 33.4532 160.893 33.3297C162.525 33.196 164.161 33.5321 165.61 34.2983C167.058 35.0645 168.258 36.2291 169.07 37.6553C170.224 39.8205 170.372 40.4484 170.372 42.9696Z" fill="#28291D"/>
<path d="M96.0974 47.4583C95.3724 49.1341 94.6721 50.5381 94.46 52.1744C94.2649 53.8137 94.423 55.4759 94.9236 57.0487C95.1741 57.7664 95.1913 58.5452 94.9729 59.2733C94.5598 60.748 94.2305 62.245 93.9866 63.7571C93.4194 66.9161 92.2061 69.897 91.4812 73.0065C90.84 75.7354 90.4356 78.5235 89.9276 81.282C89.6317 82.8689 88.1028 84.2482 86.6381 84.2482C85.7826 84.1961 84.9654 83.8747 84.3029 83.3296C83.6405 82.7845 83.1666 82.0437 82.949 81.2128C82.0268 77.5595 83.0131 74.0743 83.9009 70.6336C84.8872 66.8024 85.9032 62.9415 87.6146 59.3426C89.5873 55.2295 91.5009 51.0918 95.0716 48.0465C95.3315 47.7328 95.6959 47.5239 96.0974 47.4583Z" fill="#28291E"/>
<path d="M174.238 110.484C174.856 108.336 175.233 106.125 175.362 103.894C175.184 103.66 175.098 103.367 175.121 103.073C175.202 102.582 175.256 102.087 175.284 101.59C175.698 99.2716 176.122 96.9481 176.383 94.6049C176.51 93.7841 176.831 93.0059 177.32 92.3358C178.154 91.0025 179.353 89.9371 180.773 89.2659C183.668 89.34 185.601 90.8033 186.627 93.6162C187.613 96.2808 187.613 99.0541 187.238 101.778C186.617 106.514 184.772 110.765 181.148 114.063C179.49 115.546 177.621 116.614 175.323 116.619C173.695 116.619 173.321 116.08 173.621 114.453C173.853 113.133 174.277 111.843 174.238 110.484Z" fill="#6C382C"/>
<path d="M112.624 37.8826C112.945 40.3544 113.216 43.3205 114.044 46.2323C114.797 49.0743 115.852 51.8271 117.191 54.4435C117.521 54.9872 117.731 55.5951 117.809 56.2267C117.886 56.8583 117.829 57.4992 117.64 58.1067C116.806 60.7515 115.381 61.1519 113.112 60.5142C111.546 60.0947 110.168 59.1533 109.206 57.8447C107.125 54.928 105.128 51.947 104.136 48.452C103.622 46.8728 103.374 45.2188 103.402 43.5578C103.619 39.4893 105.892 36.2414 110.069 35.6482C110.193 35.6482 110.326 35.6482 110.449 35.6185C112.668 35.228 112.668 35.223 112.624 37.8826Z" fill="#28281D"/>
<path d="M110.745 27.0907C108.866 28.5869 107.293 30.4335 106.114 32.5286C105.675 33.28 105.064 33.3245 104.334 33.3591C99.9386 33.5441 95.5902 34.3376 91.4122 35.7172C89.1583 36.4785 87.1116 37.6946 85.0007 38.7179C83.5754 39.4149 83.5853 39.4199 82.6038 38.184C81.4301 36.7009 80.562 35.1338 80.6656 33.1218C80.6545 32.6773 80.7714 32.2391 81.0023 31.8594C81.2332 31.4798 81.5683 31.1749 81.9676 30.9812C85.8637 28.771 90.0958 27.2178 94.4946 26.3837C97.3712 25.8009 100.305 25.5537 103.239 25.6472C105.705 25.7411 108.077 26.364 110.745 27.0907Z" fill="#27281C"/>
<path d="M97.2811 94.6296C97.4241 96.4834 98.0455 98.2483 98.3464 100.067C98.7902 102.777 99.1453 105.505 99.53 108.224C99.5843 108.605 99.5547 109 99.8703 109.292C99.9444 110.826 100.176 112.349 100.561 113.835C101.054 116.144 100.275 116.955 97.9321 116.579C96.1543 116.271 94.5042 115.452 93.1827 114.221C91.0603 112.355 89.4277 109.996 88.4284 107.349C87.9352 105.99 87.077 104.719 87.1806 103.177C86.8551 102.683 87.2151 102.07 86.8699 101.59C86.7664 100.299 86.7664 99.0009 86.8699 97.7094C87.2891 96.8393 86.7713 95.8556 87.1954 94.9904C87.3952 93.4614 88.0879 92.0397 89.1681 90.9417C92.1273 87.7828 95.5796 89.6366 96.7386 92.6027C96.9704 93.2602 97.0986 93.9523 97.2811 94.6296Z" fill="#6C382C"/>
<path d="M254.312 230.112C254.396 230.725 254.016 230.899 253.656 231.007C250.204 232.05 246.993 233.622 243.62 234.829C242.801 235.125 242.456 234.903 242.224 234.127C241.075 230.251 239.344 226.593 237.963 222.806C237.603 221.817 237.879 221.427 238.772 221.105C241.657 220.062 244.532 218.994 247.388 217.872C248.211 217.551 248.675 217.64 249.05 218.48C250.697 222.158 252.384 225.826 254.056 229.495C254.164 229.727 254.253 229.969 254.312 230.112Z" fill="#63B05F"/>
<path d="M19.4119 230.587L22.7212 223.117C23.4264 221.535 24.1465 219.958 24.8468 218.377C24.8819 218.236 24.949 218.106 25.0427 217.996C25.1364 217.886 25.2542 217.799 25.3869 217.742C25.5196 217.685 25.6636 217.659 25.8078 217.667C25.9519 217.676 26.0923 217.717 26.2178 217.788C29.177 218.896 32.1065 219.944 35.036 221.071C36.269 221.565 36.2838 221.629 35.8054 222.944C34.4393 226.682 33.0386 230.404 31.6577 234.132C31.4407 234.72 31.2089 235.194 30.4247 234.883C26.7998 233.459 23.1798 232.05 19.4119 230.587Z" fill="#60AF5E"/>
<path d="M178.11 52.4019C178.159 55.4125 176.887 57.8843 175.012 60.0693C173.676 61.6315 172.201 63.0355 170.081 63.5644C167.96 64.0934 166.628 63.1986 166.505 61.0926C166.338 59.5524 166.725 58.003 167.595 56.7225C169.816 53.6524 171.197 50.0528 171.6 46.2818C171.792 44.3043 172.492 43.8891 174.09 45.1101C176.428 46.8997 178.041 49.2874 178.11 52.4019Z" fill="#27281D"/>
<path d="M96.1024 53.3905C95.6782 49.93 97.8976 47.9526 100.265 46.1185C101.36 45.2781 101.996 45.6242 102.238 46.9737C102.795 50.5973 104.33 53.9992 106.676 56.8114C108.121 58.5219 107.707 60.44 107.5 62.2988C107.382 63.3517 105.65 64.0339 104.284 63.7324C103.212 63.513 102.202 63.0589 101.325 62.4026C99.5892 61.0678 97.9716 59.6589 97.0197 57.6172C96.3835 56.2627 95.8657 54.8983 96.1024 53.3905Z" fill="#27281E"/>
<path d="M128.396 21.5687C128.396 23.1951 128.091 23.5461 126.823 23.1902C125.556 22.8343 124.16 22.9628 122.833 22.9233C121.068 22.8738 121.082 22.8936 120.5 21.3215C119.706 18.9565 118.521 16.7421 116.994 14.7713C116.501 14.188 116.555 13.7134 116.742 13.0312C117.334 10.8412 118.977 9.68937 120.787 8.68583C121.06 8.52354 121.383 8.4681 121.694 8.53015C122.005 8.59219 122.283 8.76736 122.473 9.02199C124.416 11.0627 125.907 13.492 126.848 16.1506C127.572 17.8902 128.092 19.7085 128.396 21.5687Z" fill="#28281D"/>
<path d="M104.556 74.979C104.556 75.0983 104.546 75.2173 104.526 75.3349C102.06 73.3575 101.241 73.3921 98.3957 75.4783C97.2268 76.3385 96.0235 77.1492 95.2936 78.4444C94.8004 77.9896 94.9335 77.3816 94.9335 76.8229C94.9335 74.5242 94.7806 72.2106 94.968 69.9267C95.1998 67.0841 95.3527 64.2169 96.1418 61.4485C96.253 61.1416 96.3848 60.8427 96.5364 60.5537C97.3551 60.6674 97.6954 61.3645 98.2181 61.7698C100.082 63.2232 101.937 64.6667 104.215 65.4281C104.487 65.522 104.708 65.8433 104.911 66.0559V68.7798C104.393 70.8363 105.049 72.9423 104.556 74.979Z" fill="#2D2B20"/>
<path d="M177.301 87.7087C176.443 86.9325 175.575 87.3824 174.716 87.7087C174.134 87.1896 174.223 86.4134 174.026 85.7609C173.199 83.0113 172.078 80.3594 170.682 77.8512C170.189 76.991 169.538 76.1358 169.577 75.0383C169.577 74.3808 169.656 73.6591 170.342 73.4267C173.11 72.4413 175.951 71.6776 178.839 71.1428C178.847 71.2679 178.847 71.3934 178.839 71.5185C179.113 72.5386 179.113 73.6129 178.839 74.633C178.652 78.311 178.267 81.9643 177.799 85.6126C177.71 86.3047 177.695 87.0067 177.651 87.7087H177.301Z" fill="#4E3B2B"/>
<path d="M95.2837 78.4642C95.2295 77.5101 95.4613 76.7735 96.4181 76.2742C97.3318 75.8204 98.1648 75.2192 98.884 74.4946C100.176 73.1104 101.779 73.4614 103.323 73.4515C103.418 73.4413 103.514 73.4505 103.606 73.4786C103.698 73.5067 103.783 73.5531 103.856 73.615C103.929 73.6769 103.989 73.753 104.032 73.8387C104.075 73.9245 104.101 74.0181 104.107 74.1139C104.176 74.5391 104.067 75.0285 104.506 75.335C104.506 76.21 103.979 76.8971 103.564 77.5942C101.784 80.5332 100.471 83.732 99.6731 87.0759C99.3081 88.6776 99.0714 90.309 98.7755 91.9255C97.4964 90.5254 96.6576 88.7784 96.3638 86.9029C95.841 84.1048 95.1555 81.3463 95.2837 78.4642Z" fill="#513B2B"/>
<path d="M178.84 71.1181C176.679 72.3738 174.253 72.8385 171.866 73.3427C170.771 73.5701 170.021 74.015 169.578 75.0136V74.9889C169.084 72.9472 169.735 70.8413 169.242 68.8045C169.242 67.6428 169.242 66.486 169.242 65.344C171.859 64.5006 174.224 63.0154 176.122 61.0234C177.01 60.0643 177.256 60.2423 177.794 61.4881C178.287 62.6004 178.085 63.7572 178.223 64.8843C178.45 66.9457 178.963 69.0023 178.84 71.1181Z" fill="#2E2B21"/>
<path d="M145.288 174.423C142.245 178.452 139.488 182.2 137.101 186.565C134.711 182.384 132.008 178.389 129.018 174.616C134.359 175.496 139.641 175.684 145.288 174.423Z" fill="#32603E"/>
<path d="M71.0435 49.0895C70.9202 48.7188 71.443 48.8078 71.3838 48.4765C71.078 48.2541 70.6983 48.4123 70.3432 48.3777C69.9547 48.3736 69.5808 48.2286 69.2907 47.9696C69.0005 47.7106 68.8138 47.3551 68.765 46.9688C68.4986 45.5796 68.4345 44.2004 69.1496 42.8953C70.6462 40.2092 72.626 37.8241 74.989 35.8606C75.063 35.8013 75.2257 35.8606 75.5857 35.8606C75.4575 38.8267 76.36 41.427 79.038 43.2265C77.4204 44.8628 75.9556 46.4695 74.3478 47.9229C73.4453 48.7089 72.3652 49.3664 71.0435 49.0895Z" fill="#27271C"/>
<path d="M106.958 34.9707C109.128 26.9474 122.246 21.9395 128.682 25.4149C128.677 25.542 128.651 25.6674 128.604 25.7856C128.189 26.5024 127.908 27.417 127.292 27.8767C126.557 28.4205 125.782 27.5356 125.018 27.333C120.895 26.2602 116.012 28.3464 113.926 32.3408C113.325 33.4976 112.713 33.9326 111.436 33.8238C109.941 33.6755 108.546 34.244 106.958 34.9707Z" fill="#61B563"/>
<path d="M229.253 182.956C227.418 185.497 225.342 187.85 223.69 190.539C219.661 197.236 216.293 204.311 213.634 211.663C213.432 212.202 213.244 212.746 213.022 213.275C212.975 213.431 212.87 213.563 212.729 213.644C212.588 213.725 212.421 213.748 212.263 213.71C212.075 213.66 211.914 213.537 211.816 213.368C211.718 213.2 211.69 212.999 211.74 212.81C211.788 212.492 211.865 212.179 211.972 211.876C215.222 202.518 219.301 193.585 225.194 185.546C226.104 184.217 227.383 183.186 228.873 182.58L229.253 182.956Z" fill="#75AD6F"/>
<path d="M106.464 6.71831C107.13 6.01632 106.78 5.14132 106.824 4.3454C106.913 2.70909 107.614 1.90329 109.216 1.71544C111.82 1.40894 114.094 2.20979 116.205 3.69286C116.871 4.15261 116.673 4.55303 116.165 4.85459C114.477 5.9046 113.172 7.47405 112.447 9.3285C112.289 9.69927 112.106 10.3172 111.515 9.98105C109.769 8.99234 107.614 8.62652 106.459 6.71831H106.464Z" fill="#27281E"/>
<path d="M79.4771 32.7363C79.4759 33.5628 79.5287 34.3885 79.635 35.2081C79.9216 36.865 80.7306 38.3863 81.9431 39.5485C82.4363 40.0429 82.3376 40.3346 81.8938 40.7795C80.0098 42.6729 79.2552 42.6086 77.8299 40.3543C77.3299 39.6022 76.9721 38.7644 76.7745 37.8826C76.1728 34.9659 76.015 34.3133 79.4771 32.7363Z" fill="#5DAD5B"/>
<path d="M115.5 13.1104C112.817 10.9797 112.797 10.8117 114.513 8.30033C115.042 7.49689 115.71 6.79526 116.486 6.22898C118.025 5.1414 118.636 5.18589 119.978 6.47616C120.244 6.72828 120.471 7.01501 120.841 7.42038C118.123 8.4338 116.481 10.3816 115.5 13.1104Z" fill="#63BB66"/>
<path d="M92.4626 24.7821C93.0105 24.1625 93.6203 23.601 94.2825 23.1062C95.7621 22.2015 97.2416 21.5342 99.1453 22.073C101.261 22.6761 103.431 23.0617 105.325 24.347C101.033 24.0861 96.7269 24.2317 92.4626 24.7821Z" fill="#292A21"/>
<path d="M178.859 74.6081V71.4937C179.134 71.9663 179.279 72.5037 179.279 73.0509C179.279 73.5981 179.134 74.1355 178.859 74.6081Z" fill="#2E2B21"/>
<path d="M106.464 6.71837C105.764 6.02133 106.139 5.2353 106.237 4.44434C106.588 5.17598 106.445 5.95706 106.464 6.71837Z" fill="#27281E"/>
<path d="M87.1955 94.9954C87.1166 95.905 87.5161 96.8739 86.87 97.7143C86.8601 96.7948 86.6431 95.8457 87.1955 94.9954Z" fill="#793E2C"/>
<path d="M86.8701 101.595C87.3633 102.045 87.1907 102.628 87.1857 103.182C86.7517 102.717 86.801 102.154 86.8701 101.595Z" fill="#793E2C"/>
<path d="M117.29 116.554C109.216 117.162 102.04 111.368 101.103 103.513C101.458 102.969 101.34 102.312 101.532 101.729C103.796 97.7391 105.527 93.4827 107.599 89.3944C107.924 88.7567 108.476 88.3117 108.832 87.7136C109.991 86.7001 111.45 86.359 112.871 86.0921C119.09 84.9056 124.431 86.4134 128.49 91.53C128.624 91.7417 128.734 91.9671 128.82 92.2023C128.754 93.9655 128.117 95.6592 127.005 97.0272C126.019 97.1607 125.684 96.3302 125.225 95.7864C121.304 91.1592 112.895 92.138 109.359 97.047C108.866 97.7391 108.111 98.5301 109.32 99.2864C109.714 100.428 110.094 101.57 110.597 102.668C110.691 103.538 111.288 103.978 111.983 104.359C114.35 105.654 116.777 106.702 119.578 106.509C120.336 106.372 121.118 106.491 121.802 106.845C122.241 107.453 121.753 107.913 121.541 108.407C120.609 110.558 119.539 112.644 118.656 114.834C118.365 115.511 118.064 116.223 117.29 116.554Z" fill="#A78371"/>
<path d="M148.804 88.7072C153.406 85.222 158.417 84.9205 163.659 86.8831C165.445 87.5504 167.171 88.4205 168.448 89.9332C168.823 92.7758 167.698 95.0795 165.879 97.131C165.035 97.1904 164.68 96.5082 164.202 96.0138C160.858 92.6077 155.142 91.7673 151.053 94.0858C148.686 95.4305 147.256 98.0407 147.601 100.409C147.656 101.729 148.03 103.017 148.691 104.161C149.396 106.079 151.157 106.227 152.75 106.4C155.492 106.697 158.219 106.499 160.774 105.258C161.213 104.978 161.741 104.872 162.254 104.962C162.747 105.491 162.5 106.049 162.254 106.549C160.843 109.47 159.344 112.347 158.086 115.338C157.88 115.881 157.471 116.322 156.947 116.569C152.942 116.52 149.633 114.765 146.925 112.011C143.227 108.249 142.053 103.577 142.788 98.3916C142.788 98.2779 142.921 98.1791 142.99 98.0753C144.336 95.91 145.456 93.6261 146.832 91.4608C147.398 90.4806 148.059 89.5583 148.804 88.7072Z" fill="#A78371"/>
<path d="M171.56 93.8584C173.155 96.6811 173.799 99.9446 173.396 103.164C172.992 106.382 171.563 109.385 169.321 111.724C166.964 114.196 164.226 115.931 160.735 116.218C160.241 115.481 160.71 114.859 161.011 114.241C164.019 108.155 166.673 101.882 169.952 95.9495C170.376 95.1734 170.692 94.2984 171.56 93.8584Z" fill="#A48370"/>
<path d="M171.56 93.8585C171.447 94.6544 170.884 95.2229 170.524 95.8903C166.973 102.396 164.113 109.238 160.799 115.847C160.759 115.969 160.738 116.095 160.735 116.223C160.286 116.638 159.659 116.223 159.191 116.564C158.444 116.683 157.684 116.683 156.937 116.564C158.55 113 160.192 109.45 161.997 105.975C162.118 105.682 162.214 105.38 162.283 105.07C162.017 104.393 162.584 103.844 162.569 103.207C163.725 102.13 164.576 100.765 165.035 99.2519C165.528 98.5598 165.297 97.6452 165.745 96.9383C167.101 94.7997 168.023 92.4143 168.458 89.9185C169.809 90.9461 170.877 92.3022 171.56 93.8585Z" fill="#CDBDAE"/>
<path d="M117.29 116.554C118.34 114.191 119.376 111.823 120.456 109.475C120.851 108.62 121.364 107.819 121.817 107.003C121.788 106.054 122.651 106.079 123.188 105.743C123.726 105.407 124.569 105.52 124.87 104.754C126.754 103.231 126.655 101.234 126.216 99.153C126.443 98.4411 126.216 97.6106 126.798 96.9926L128.811 92.2073C129.794 93.3276 130.485 94.6744 130.823 96.1275C131.06 97.0605 130.944 98.0485 130.497 98.9008C127.588 103.914 125.225 109.213 122.439 114.29C122.14 114.929 121.671 115.471 121.082 115.857C120.527 116.17 119.899 116.331 119.263 116.322C118.863 116.52 118.395 116.352 118 116.569L117.29 116.554Z" fill="#C7B6A8"/>
<path d="M121.082 115.837C123.307 111.512 125.521 107.186 127.76 102.865C128.495 101.447 129.274 100.048 130.063 98.6536C130.509 97.875 130.769 97.0037 130.823 96.1077C133.59 103.834 129.649 112.876 121.645 115.778C121.461 115.823 121.271 115.843 121.082 115.837Z" fill="#A58572"/>
<path d="M108.822 87.7136C109.039 88.3711 108.472 88.7518 108.235 89.1967C106.07 93.4333 104.289 97.8627 101.823 101.961C100.546 101.506 101.074 100.567 101.296 99.7858C102.337 96.3444 103.805 93.0476 105.665 89.9728C106.554 89.0135 107.628 88.245 108.822 87.7136Z" fill="#E4D8CC"/>
<path d="M175.407 103.177L175.363 103.894C173.459 101.956 173.281 100.433 174.652 98.2087C175.338 97.1063 175.446 95.8111 175.752 94.59C175.994 93.6013 176.374 92.7906 177.321 92.3308C176.724 95.5342 176.487 98.8019 175.713 101.976C175.427 102.332 175.678 102.826 175.407 103.177Z" fill="#030302"/>
<path d="M105.665 89.9727C105.794 90.8625 105.31 91.5744 104.93 92.2961C103.836 94.4521 102.872 96.6725 102.045 98.9452C101.69 99.8845 100.96 100.923 101.848 101.966C101.841 102.261 101.77 102.551 101.64 102.816C101.509 103.08 101.323 103.313 101.093 103.498C100.206 98.1839 101.892 93.7298 105.665 89.9727Z" fill="#AE9E8F"/>
<path d="M148.804 88.7073C148.341 90.3288 147.236 91.5943 146.422 93.023C145.411 94.7878 144.38 96.5329 143.463 98.3373C143.148 98.9454 143.177 98.1396 142.97 98.0753C143.601 94.1254 145.416 90.922 148.804 88.7073Z" fill="#D9D0C6"/>
<path d="M159.186 116.564C159.635 116.134 160.172 116.208 160.73 116.223C160.286 116.703 159.748 116.668 159.186 116.564Z" fill="#A48370"/>
<path d="M118 116.549C118.166 116.394 118.373 116.288 118.596 116.244C118.819 116.201 119.05 116.221 119.263 116.302C119.091 116.449 118.885 116.55 118.664 116.593C118.443 116.636 118.214 116.621 118 116.549Z" fill="#A78371"/>
<path d="M160.286 249.244C159.99 254.188 159.817 259.096 159.299 264.005C159.132 265.597 159.25 267.209 158.885 268.791C158.569 270.175 158.456 270.323 157.065 270.457C155.656 270.526 154.244 270.38 152.878 270.022C149.184 269.241 145.436 268.84 141.707 268.301C139.998 267.988 138.241 268.042 136.554 268.46C136.248 268.558 135.926 268.592 135.607 268.558C131.858 267.975 128.253 269.053 124.599 269.503C122.503 269.75 120.426 270.121 118.34 270.412C117.895 270.467 117.444 270.467 116.999 270.412C115.361 270.224 115.08 269.918 114.957 268.227C114.577 262.987 114.183 257.752 113.828 252.512C113.754 251.424 113.828 250.332 113.828 249.239C113.936 249.044 114.084 248.873 114.261 248.736C114.438 248.6 114.642 248.502 114.858 248.448C116.831 247.089 119.05 246.738 121.433 246.748C132.135 246.807 142.838 246.807 153.544 246.748C155.906 246.748 157.983 247.197 159.758 248.784C159.943 248.927 160.119 249.08 160.286 249.244Z" fill="#485858"/>
<path d="M143.518 241.873C143.024 240.237 143.838 238.719 143.966 237.137C144.084 236.249 144.249 235.368 144.46 234.498C143.572 234.147 142.733 234.3 141.92 234.3C141.106 234.3 140.701 234.092 140.731 233.217C140.77 232.13 140.775 231.032 140.731 229.945C140.731 229.089 141.14 228.827 141.92 228.857C142.699 228.887 143.591 228.817 144.415 228.892C144.602 228.936 144.796 228.939 144.983 228.9C145.171 228.86 145.347 228.779 145.5 228.663C145.652 228.546 145.777 228.397 145.865 228.226C145.953 228.056 146.002 227.867 146.008 227.675C146.368 225.604 146.728 223.528 147.108 221.363C145.658 221.016 144.257 221.269 142.876 221.199C141.495 221.13 141.52 221.14 141.486 219.756C141.486 218.92 141.486 218.085 141.486 217.254C141.53 215.969 141.624 215.865 142.965 215.831C144.307 215.796 145.658 215.752 146.999 215.831C148.065 215.9 148.479 215.415 148.647 214.466C149.061 212.202 149.51 209.938 149.959 207.679C150.254 206.196 150.289 206.171 151.847 206.141C152.681 206.141 153.514 206.141 154.343 206.141C155.758 206.171 155.887 206.309 155.596 207.738C155.172 209.874 154.895 212.034 154.264 214.13C154.048 214.63 154.003 215.188 154.136 215.717C155.823 215.92 157.544 215.761 159.26 215.796C159.975 215.796 160.246 215.45 160.365 214.768C160.828 212.38 161.351 210.002 161.879 207.624C162.209 206.141 162.229 206.141 163.792 206.102C164.626 206.102 165.459 206.077 166.288 206.102C167.684 206.136 167.837 206.309 167.565 207.708C167.136 209.908 166.643 212.093 166.209 214.293C165.953 215.588 166.081 215.776 167.403 215.776C170.515 215.747 170.268 215.673 170.263 218.742C170.263 221.437 170.376 221.165 167.911 221.165C164.665 221.165 164.67 221.165 164.157 224.472C163.945 225.851 163.477 227.191 163.467 228.669C165.099 228.961 166.697 228.778 168.285 228.832C169.873 228.887 169.977 228.877 169.957 230.399C169.957 231.601 170.45 233.084 169.696 233.944C168.941 234.804 167.398 234.191 166.204 234.275C165.183 234.344 164.157 234.31 163.132 234.275C162.974 234.25 162.814 234.26 162.66 234.302C162.507 234.345 162.364 234.42 162.242 234.523C162.12 234.626 162.022 234.753 161.953 234.897C161.884 235.041 161.847 235.198 161.844 235.358C161.489 237.375 161.139 239.397 160.636 241.384C160.483 241.982 160.814 243.099 159.566 243.089C158.367 242.051 156.927 241.844 155.413 241.888C154.767 241.7 154.767 241.171 154.782 240.647C154.847 239.753 154.982 238.866 155.186 237.993C155.364 237.004 156.197 235.729 155.384 235.096C154.333 234.275 152.799 234.715 151.478 234.883C150.738 234.977 150.531 235.679 150.373 236.312C150.072 237.493 149.88 238.7 149.613 239.886C149.426 240.697 149.268 241.547 148.346 241.898L143.518 241.873Z" fill="#65B361"/>
<path d="M114.562 243.134C112.59 243.183 111.199 241.972 109.828 240.855C106.198 237.889 104.373 233.874 103.835 229.361C103.306 225.335 103.671 221.241 104.906 217.373C106.878 211.441 111.041 207.98 116.89 206.581C121.166 205.548 125.442 205.859 129.368 208.124C132.339 209.731 134.558 212.449 135.542 215.687C135.972 217.106 135.868 217.294 134.403 217.665C132.86 218.07 131.296 218.416 129.752 218.831C129.003 219.034 128.5 218.91 128.332 218.07C128.27 217.887 128.193 217.71 128.1 217.541C125.911 212.246 120.979 211.806 117.058 213.181C114.562 214.056 113.157 216.147 112.417 218.515C110.921 223.189 111 228.227 112.644 232.851C114.552 238.289 121.398 239.683 125.891 236.035C127.183 234.982 127.691 233.41 128.317 231.937C129.042 230.221 129.018 230.206 130.783 230.706C132.199 231.101 133.609 231.526 135.03 231.897C135.868 232.115 136.228 232.461 135.893 233.38C135.007 236.073 133.539 238.536 131.592 240.593C131.271 240.943 130.876 241.218 130.436 241.397C129.996 241.575 129.521 241.654 129.047 241.626C126.226 241.567 123.405 241.577 120.584 241.586C119.953 241.586 119.292 241.448 118.715 241.858C117.22 241.747 115.738 242.202 114.562 243.134Z" fill="#66B460"/>
<path d="M160.286 249.244C160.184 249.237 160.082 249.251 159.985 249.284C158.071 246.743 155.329 246.387 152.439 246.392C142.635 246.392 132.835 246.441 123.031 246.367C119.874 246.342 116.91 246.639 114.449 248.839L113.838 249.209C113.502 245.858 115.396 243.554 118.715 243.495C123.075 243.416 127.435 243.495 131.79 243.495C139.605 243.495 147.424 243.508 155.245 243.534C157.825 243.534 159.581 244.78 160.212 246.96C160.424 247.704 160.449 248.488 160.286 249.244Z" fill="#828D8F"/>
<path d="M219.601 266.65C224.4 263.368 229.144 260.011 234.989 258.741C239.427 257.777 243.832 257.292 248.305 258.128C248.561 258.148 248.816 258.181 249.069 258.226C249.562 258.375 250.154 258.538 249.977 259.215C249.824 259.784 249.262 259.645 248.837 259.566C246.178 259.102 243.465 259.027 240.784 259.344C235.596 259.804 230.582 261.444 226.121 264.139C225.815 264.327 225.386 264.44 225.372 265.039C228.024 264.642 230.71 264.531 233.386 264.707C240.754 265.053 247.649 266.962 253.794 271.193C254.48 271.688 255.131 272.182 255.767 272.711C256.077 272.968 256.304 273.329 256.003 273.7C255.877 273.849 255.699 273.946 255.505 273.972C255.311 273.998 255.114 273.95 254.953 273.838C254.621 273.642 254.302 273.426 253.996 273.191C246.174 267.688 237.44 265.573 227.986 266.27C225.697 266.443 223.468 267.229 221.135 267.056L219.601 266.65Z" fill="#73B172"/>
<path d="M52.5886 267.075C50.8427 267.268 49.1363 266.764 47.4545 266.541C37.4329 265.226 28.2695 267.387 19.9741 273.181C19.6113 273.441 19.2287 273.672 18.8299 273.873C18.7496 273.923 18.6601 273.956 18.5667 273.971C18.4732 273.986 18.3778 273.982 18.2859 273.96C18.194 273.937 18.1075 273.896 18.0316 273.84C17.9556 273.783 17.8917 273.712 17.8435 273.631C17.762 273.489 17.739 273.321 17.7796 273.163C17.8202 273.005 17.9211 272.869 18.0605 272.785C18.6918 272.246 19.3132 271.693 19.9938 271.218C24.98 267.758 30.548 265.844 36.5501 265.053C40.4161 264.49 44.3431 264.49 48.2091 265.053C48.4097 265.058 48.61 265.038 48.8058 264.994C48.4734 264.509 47.9973 264.14 47.4446 263.941C40.5055 260.174 33.1669 258.409 25.2512 259.492C25.1871 259.492 25.123 259.527 25.0638 259.536C24.6693 259.596 24.2353 259.63 24.107 259.161C23.9541 258.582 24.4227 258.34 24.8517 258.236C25.6621 258.03 26.4862 257.883 27.3177 257.796C34.7155 257.134 41.5215 258.983 47.9822 262.438C48.2093 262.559 48.4284 262.695 48.6382 262.844C50.5024 264.169 52.2877 265.622 54.4035 266.566L52.5886 267.075Z" fill="#71B071"/>
<path d="M206.601 264.678C205.664 258.182 205.615 251.642 205.861 245.101C206.028 239.918 206.602 234.756 207.578 229.663C207.652 229.287 207.701 228.901 207.804 228.531C207.831 228.403 207.906 228.291 208.014 228.219C208.122 228.147 208.254 228.12 208.381 228.145C208.51 228.153 208.63 228.208 208.721 228.299C208.812 228.39 208.867 228.511 208.875 228.639C208.927 229.212 208.927 229.787 208.875 230.36C208.5 232.832 208.155 235.303 207.982 237.775C207.548 244.044 207.163 250.307 207.587 256.595C207.765 259.275 207.686 261.974 207.726 264.663L206.601 264.678Z" fill="#75B573"/>
<path d="M66.0871 264.683C66.018 262.315 66.235 259.952 66.3189 257.584C66.6099 249.318 66.5408 241.058 65.3325 232.866C65.1698 231.724 65.0267 230.582 64.9133 229.435C64.8689 228.941 64.6815 228.278 65.4065 228.189C65.9884 228.115 65.9835 228.733 66.1019 229.153C66.5942 231.075 66.9241 233.035 67.0882 235.012C67.9764 242.913 68.2222 250.873 67.8231 258.815C67.7393 260.792 67.7343 262.77 67.1326 264.712L66.0871 264.683Z" fill="#77B675"/>
<path d="M148.365 241.913C149.303 240.608 149.219 239.011 149.579 237.548C150.516 233.721 149.737 234.3 153.524 234.26C154.353 234.26 155.181 234.285 155.99 234.314C156.137 234.355 156.277 234.419 156.404 234.502C156.36 236.01 155.818 237.468 155.541 238.952C155.359 239.94 154.935 240.929 155.433 241.918L148.365 241.913Z" fill="#252920"/>
<path d="M199.618 165.001C199.558 165.688 199.006 165.846 198.444 166.044C196.693 166.652 194.932 167.245 193.206 167.933C186.952 170.404 180.709 172.93 174.657 175.877C168.2 179.022 161.954 182.587 155.961 186.55C155.467 186.866 155.009 187.198 154.525 187.514C154.141 187.766 153.726 188.043 153.352 187.514C152.977 186.985 153.352 186.678 153.657 186.342C154.242 185.743 154.906 185.228 155.63 184.81C165.192 178.58 175.341 173.308 185.932 169.07C189.67 167.542 193.433 166.103 197.275 164.818C197.804 164.586 198.374 164.458 198.952 164.442C199.307 164.452 199.583 164.561 199.618 165.001Z" fill="#73AD70"/>
<path d="M74.9643 164.225C75.3591 164.306 75.7492 164.409 76.1332 164.531C88.1324 168.862 99.8851 173.746 110.932 180.193C113.808 181.873 116.57 183.742 119.351 185.571C119.987 185.986 121.166 186.466 120.471 187.395C119.928 188.117 119.085 187.262 118.498 186.851C105.285 177.968 90.84 171.581 75.9507 166.103C75.4506 165.995 74.9775 165.787 74.5599 165.49C74.4285 165.397 74.3294 165.265 74.2764 165.113C74.2233 164.96 74.219 164.795 74.264 164.64C74.3824 164.289 74.7079 164.245 74.9643 164.225Z" fill="#72AF70"/>
<path d="M44.8801 182.551C46.7443 183.168 47.9872 184.558 49.1067 186.056C53.2791 191.647 56.3812 197.831 59.074 204.238C60.1388 206.642 61.0771 209.101 61.8852 211.604C62.1071 212.34 62.7631 213.413 61.6238 213.72C60.6128 213.992 60.6374 212.731 60.4204 212.073C57.703 204.361 54.3641 196.956 49.9402 190.06C48.6496 188.063 47.2068 186.169 45.6248 184.394C45.1316 183.866 44.599 183.406 44.8554 182.56L44.8801 182.551Z" fill="#75AC6E"/>
<path d="M123.79 129.748C127.134 129.407 130.409 128.513 133.807 128.552C134.821 128.64 135.83 128.782 136.83 128.977C138.068 129.116 139.222 128.671 140.425 128.582C142.972 128.424 145.526 128.742 147.956 129.521C148.38 129.65 148.824 129.714 149.263 129.808C149.086 130.683 148.321 130.796 147.67 130.984C146.324 131.416 144.945 131.737 143.547 131.943C137.732 132.69 131.928 132.902 126.202 131.291C125.27 131.004 124.106 131.004 123.79 129.748Z" fill="#723B2D"/>
<path d="M123.79 129.749C125.704 130.761 127.803 131.374 129.96 131.548C136.312 132.26 142.63 132.042 148.794 130.065C148.969 129.985 149.135 129.886 149.288 129.768C150.609 129.492 151.849 128.915 152.913 128.083C153.169 127.905 153.445 127.653 153.726 128.023C153.817 128.158 153.86 128.318 153.851 128.48C153.841 128.642 153.778 128.796 153.672 128.918C153.298 129.359 152.829 129.711 152.301 129.946C149.554 131.593 146.491 132.26 143.384 132.759C140.402 133.179 137.388 133.333 134.379 133.219C130.397 133.117 126.458 132.369 122.715 131.004C122.054 130.767 121.018 130.48 121.235 129.793C121.536 128.869 122.498 129.457 123.208 129.635C123.39 129.679 123.583 129.709 123.79 129.749Z" fill="#190403"/>
<path d="M128.51 115.299C128.47 115.986 128.017 116.47 127.809 117.054C127.183 118.902 128.061 120.351 130.009 120.371C131.285 120.382 132.537 120.722 133.644 121.359C136.149 122.758 138.64 122.808 141.042 121.132C141.845 120.601 142.798 120.345 143.759 120.4C146.107 120.4 146.935 119.14 146.176 116.89C145.998 116.366 145.456 115.981 145.559 115.343C147.285 115.926 147.882 116.89 147.695 118.769C147.537 120.381 146.432 121.636 144.913 121.661C143.51 121.707 142.14 122.097 140.923 122.798C139.875 123.364 138.71 123.679 137.519 123.717C136.329 123.756 135.146 123.517 134.063 123.02C132.633 122.325 131.07 121.951 129.481 121.923C128.734 121.95 128.004 121.692 127.439 121.201C126.873 120.711 126.514 120.023 126.433 119.278C126.157 117.34 126.774 116.124 128.51 115.299Z" fill="#160403"/>
<path d="M137.289 140.56C135.47 140.606 133.658 140.327 131.937 139.734C131.337 139.518 130.763 139.234 130.226 138.889C130.115 138.821 130.033 138.715 129.994 138.59C129.956 138.465 129.965 138.331 130.019 138.212C130.065 138.093 130.156 137.996 130.272 137.943C130.388 137.889 130.52 137.883 130.64 137.925C131.015 138.019 131.37 138.157 131.74 138.266C135.913 139.492 140.036 139.453 144.07 137.742C144.42 137.594 144.78 137.46 145.14 137.327C145.251 137.261 145.383 137.241 145.509 137.271C145.634 137.302 145.743 137.38 145.811 137.49C145.983 137.752 145.811 137.984 145.643 138.172C145.163 138.693 144.556 139.08 143.882 139.294C141.545 140.14 139.957 140.684 137.289 140.56Z" fill="#1B0504"/>
<path d="M155.231 76.2051C160.848 76.3484 165.188 78.4198 168.359 82.7602C168.695 83.2281 168.961 83.7427 169.148 84.2878C169.246 84.5628 169.25 84.8623 169.161 85.1401C169.072 85.418 168.894 85.6587 168.655 85.8252C168.216 86.1713 167.817 85.9983 167.403 85.7956C166.988 85.5929 166.702 85.4792 166.367 85.3012C162.638 83.215 158.663 82.8937 154.486 83.3535C152.08 83.6564 149.701 84.144 147.369 84.8118C145.618 85.3062 145.012 84.9156 144.578 83.215C143.828 80.3181 144.662 78.6966 147.473 77.6931C150.067 76.7489 152.799 76.4523 155.231 76.2051Z" fill="#202117"/>
<path d="M119.1 76.1309C122.011 76.2472 124.884 76.8434 127.602 77.8957C130.719 79.1168 130.694 80.8124 129.496 83.9862C129.121 84.9749 128.194 85.1528 127.232 84.9254C126.271 84.698 125.26 84.3915 124.273 84.1147C119.544 82.7948 114.824 82.602 110.134 84.2778C109.177 84.6189 108.269 85.1182 107.342 85.5483C106.745 85.8252 106.114 86.0971 105.586 85.4939C105.385 85.2387 105.268 84.9273 105.25 84.6025C105.232 84.2777 105.315 83.9553 105.488 83.6797C105.73 83.1553 106.042 82.6664 106.415 82.2263C107.982 80.3724 109.922 78.8712 112.108 77.8208C114.294 76.7704 116.676 76.1945 119.1 76.1309Z" fill="#202016"/>
<path d="M169.237 68.8044C169.77 69.2988 169.568 69.9958 169.578 70.6088C169.602 72.0672 169.578 73.5255 169.578 74.9888C169.109 74.6082 169.208 74.0693 169.208 73.575C169.208 71.9832 169.227 70.3913 169.237 68.8044Z" fill="#4E3B2B"/>
<path d="M104.556 74.979C104.556 73.3921 104.556 71.8102 104.556 70.2233C104.556 69.729 104.462 69.195 104.901 68.7996C104.901 70.3864 104.901 71.9733 104.901 73.5602C104.911 74.0595 105 74.5934 104.556 74.979Z" fill="#513B2B"/>
<path d="M178.771 103.246C178.574 103.492 178.363 103.727 178.139 103.948C177.74 104.299 177.429 104.195 177.34 103.681C177.267 103.109 177.316 102.528 177.483 101.976C178.071 99.8711 179.059 97.9003 180.393 96.172C180.856 95.5517 181.483 95.0738 182.203 94.7927C183.254 94.3626 183.895 94.7186 184.541 96.0336C183.648 96.2264 182.637 95.5392 181.873 96.4933C180.766 97.8209 179.89 99.3248 179.279 100.943C179.057 101.565 179.535 102.03 179.851 102.505C181.33 104.729 180.975 106.865 179.54 108.931C179.356 109.193 179.145 109.433 178.909 109.648C178.509 110.014 177.981 110.33 177.547 109.915C177.113 109.5 177.695 109.154 177.942 108.837C179.219 107.216 180.112 105.525 178.771 103.246Z" fill="#150504"/>
<path d="M175.407 103.177C175.358 102.737 175.294 102.292 175.713 101.976C175.773 102.185 175.776 102.407 175.723 102.618C175.669 102.829 175.56 103.022 175.407 103.177Z" fill="#1F130B"/>
<path d="M93.6759 107.384C93.1643 107.401 92.6521 107.387 92.142 107.344C90.4849 107.112 89.7254 106.287 89.5232 104.601C89.3112 102.836 88.6059 101.14 88.7144 99.3211C88.7188 98.2373 88.9934 97.1718 89.5134 96.2215C90.4356 95.1339 91.3776 95.3514 92.3097 96.1869C93.4104 97.156 94.2772 98.3629 94.8447 99.7166C95.0962 100.305 95.402 101.002 95.0666 101.556C93.9718 103.365 94.0359 105.417 93.6759 107.384Z" fill="#793E2C"/>
<path d="M93.676 107.384C93.3743 106.476 93.2841 105.512 93.4124 104.564C93.5406 103.616 93.8839 102.71 94.4158 101.916C94.5813 101.691 94.6836 101.426 94.7123 101.148C94.7409 100.869 94.6947 100.589 94.5786 100.334C94.1016 99.1544 93.4353 98.0606 92.6058 97.0964C91.7674 96.0582 90.8353 95.46 89.5037 96.2164C89.8292 94.9113 90.4604 94.4614 91.58 94.7828C92.0767 94.9205 92.5278 95.1884 92.8869 95.5589C94.8873 97.475 96.2379 99.9716 96.7486 102.697C96.7774 102.887 96.789 103.079 96.7831 103.271C96.7831 103.607 96.6894 103.958 96.354 104.047C96.0187 104.136 95.8263 103.79 95.6389 103.553C95.5748 103.464 95.4367 103.424 95.3331 103.365C94.3468 105.787 94.6575 107.32 96.5168 109.213C96.7584 109.455 97.2862 109.648 96.9015 110.093C96.5168 110.538 96.137 110.172 95.8608 109.969C94.9386 109.277 94.0262 108.565 93.676 107.384Z" fill="#170504"/>
<path d="M126.502 99.2617C126.502 100.102 127.139 100.745 127.084 101.645C126.991 103.246 126.142 104.22 124.905 105.006C124.639 105.284 124.311 105.495 123.948 105.619C123.672 105.738 123.361 105.995 123.07 105.777C122.695 105.496 122.853 105.085 122.966 104.724C123.124 104.23 123.361 103.775 123.46 103.276C123.953 101.298 123.356 99.4595 121.931 98.4658C121.289 98.0377 120.529 97.8256 119.759 97.8603C118.989 97.895 118.25 98.1746 117.65 98.6586C116.234 99.7759 115.82 101.551 116.363 103.533C116.58 104.329 117.842 105.125 116.949 105.876C116.057 106.628 114.977 105.822 114.084 105.407C112.693 104.744 110.957 104.492 110.311 102.742C109.87 102.285 109.528 101.742 109.306 101.147C109.085 100.551 108.989 99.9161 109.024 99.2815C108.827 97.6254 110.01 96.7059 111.036 95.821C115.421 92.0046 122.453 92.8252 125.916 97.4821C126.133 97.7207 126.297 98.0026 126.398 98.3092C126.499 98.6159 126.535 98.9404 126.502 99.2617Z" fill="#FDFEFC"/>
<path d="M110.336 102.742C112.452 104.517 113.857 105.15 117.107 105.708C116.486 105.049 116.027 104.252 115.77 103.382C115.513 102.511 115.464 101.593 115.628 100.7C115.844 99.6849 116.43 98.7863 117.27 98.1791C118.007 97.5466 118.946 97.199 119.916 97.199C120.886 97.199 121.825 97.5466 122.562 98.1791C124.51 99.7462 124.722 102.258 123.139 105.407C123.839 105.659 124.328 105.1 124.91 104.996C124.836 105.876 124.012 105.856 123.479 106.109C122.947 106.361 122.251 106.445 121.822 106.979C118.266 107.265 114.888 106.741 111.791 104.828C111.19 104.477 110.651 104.027 110.198 103.498C110.139 103.448 110.094 103.383 110.068 103.309C110.042 103.236 110.036 103.157 110.05 103.08C110.064 103.004 110.098 102.932 110.148 102.873C110.198 102.814 110.263 102.768 110.336 102.742Z" fill="#5B635B"/>
<path d="M126.502 99.2617C123.726 94.4615 118.636 92.6472 113.759 94.7334C111.689 95.63 110.015 97.2499 109.049 99.2914C108.649 99.499 108.2 99.8154 108.018 99.0887C107.964 98.8059 107.971 98.5147 108.039 98.2349C108.107 97.9551 108.234 97.6933 108.412 97.4672C110.415 94.3182 113.344 92.7313 116.974 92.3605C118.565 92.1642 120.179 92.3195 121.704 92.8153C123.948 93.5816 125.477 95.124 126.798 96.9729C126.749 97.7391 127.242 98.5795 126.502 99.2617Z" fill="#5A5B54"/>
<path d="M165.331 99.3655C165.223 100.219 164.929 101.037 164.468 101.763C164.008 102.488 163.393 103.103 162.668 103.563C161.682 105.466 159.768 105.683 158.017 106.034C156.937 106.242 156.986 105.318 157.327 104.606C157.83 103.558 158.02 102.387 157.874 101.234C157.628 99.0986 156.232 97.8726 154.126 97.922C153.188 97.9459 152.294 98.3247 151.624 98.9822C150.953 99.6397 150.555 100.527 150.511 101.467C150.48 102.108 150.542 102.751 150.693 103.375C150.831 104.022 151.354 104.858 150.452 105.243C149.549 105.629 148.829 105.243 148.479 104.299C147.182 103.31 147.059 101.956 147.266 100.493C147.606 96.958 150.407 94.1699 154.59 93.5717C156.397 93.256 158.256 93.4208 159.981 94.0496C161.706 94.6785 163.236 95.7494 164.419 97.1558C164.717 97.4391 164.953 97.7824 165.11 98.1631C165.267 98.5439 165.343 98.9536 165.331 99.3655Z" fill="#FCFDFA"/>
<path d="M148.479 104.255C149.184 104.512 149.746 105.135 150.733 105.056C149.554 102.307 149.209 99.6819 152.094 97.7836C153.608 96.7949 155.872 97.1212 157.243 98.4263C158.88 99.9884 158.944 102.381 157.366 105.669C159.284 105.415 161.107 104.682 162.668 103.538C163.043 103.666 163.062 103.909 162.87 104.205L162.278 105.075C159.26 106.895 155.941 107.231 152.533 106.969C151.064 106.838 149.672 106.254 148.548 105.298C148.198 105.021 147.867 104.645 148.479 104.255Z" fill="#59625A"/>
<path d="M165.331 99.3656C162.618 93.8634 155.576 92.7313 151.591 95.0795C150.233 95.7979 149.119 96.9042 148.39 98.2582C148.02 98.9998 147.64 99.7413 147.266 100.473C146.565 99.588 146.822 98.6883 147.226 97.7935C147.831 96.3324 148.818 95.0616 150.082 94.1151C151.347 93.1686 152.842 92.5812 154.412 92.415C156.028 92.159 157.679 92.2365 159.264 92.6429C160.849 93.0492 162.335 93.7757 163.629 94.778C164.463 95.4107 164.853 96.4192 165.735 96.9778C165.967 97.8084 166.007 98.6339 165.331 99.3656Z" fill="#555750"/>
<path d="M114.459 248.859C115.692 246.763 117.63 245.922 119.943 245.922C131.405 245.922 142.862 245.922 154.323 245.922C154.708 245.922 155.088 245.991 155.472 246.026C157.613 246.219 159.26 247.104 159.995 249.269C159.684 249.222 159.384 249.116 159.112 248.957C157.465 247.474 155.512 247.287 153.386 247.301C142.612 247.367 131.836 247.367 121.058 247.301C119.016 247.301 117.112 247.504 115.435 248.784C115.169 249.032 114.799 249.348 114.459 248.859Z" fill="#0A090A"/>
<path d="M121.511 256.264C119.425 256.264 118.059 255.097 118.059 253.298C118.036 252.864 118.104 252.43 118.258 252.024C118.413 251.619 118.651 251.25 118.957 250.942C119.263 250.635 119.63 250.395 120.035 250.239C120.439 250.082 120.872 250.013 121.304 250.035C122.207 250.036 123.077 250.38 123.736 250.999C124.395 251.617 124.795 252.464 124.855 253.367C124.865 255.087 123.524 256.244 121.511 256.264Z" fill="#030303"/>
<path d="M159.127 221.165C158.673 223.503 158.239 225.565 157.869 227.641C157.706 228.58 157.223 228.887 156.296 228.847C154.954 228.788 153.603 228.847 152.257 228.847C151.665 228.847 151.453 228.545 151.586 227.992C152.069 226.066 152.449 224.115 152.725 222.149C152.729 222.004 152.763 221.862 152.825 221.732C152.887 221.601 152.976 221.486 153.086 221.392C153.196 221.299 153.324 221.23 153.463 221.19C153.601 221.15 153.746 221.14 153.889 221.16C155.546 221.18 157.203 221.165 159.127 221.165Z" fill="#1F261A"/>
<path d="M121.442 254.697C120.372 254.697 119.568 254.034 119.622 253.214C119.691 252.807 119.893 252.434 120.197 252.154C120.501 251.875 120.889 251.705 121.299 251.671C121.743 251.663 122.173 251.83 122.496 252.136C122.819 252.442 123.009 252.863 123.025 253.308C123.03 254.301 122.577 254.702 121.442 254.697Z" fill="#333630"/>
</g>
<defs>
<clipPath id="clip0_290_200">
<rect width="274" height="289" fill="white"/>
</clipPath>
</defs>
</svg>
